  0
SECTION
  2
HEADER
  9
$ACADVER
  1
AC1009
  9
$INSBASE
 10
0
 20
0
 30
0
  9
$EXTMIN
 10
0
 20
0
  9
$EXTMAX
 10
841
 20
594
  9
$LIMMIN
 10
0
 20
0
  9
$LIMMAX
 10
841
 20
594
  9
$LTSCALE
 40
1
  0
ENDSEC
  0
SECTION
  2
TABLES
  0
TABLE
  2
LTYPE
 70
     9
  0
LTYPE
  2
CONTINUOUS
 70
    64
  3
実線
 72
    65
 73
     0
 40
0.0
  0
LTYPE
  2
DASHED1
 70
    64
  3
--  --  --  --  --  --  --  --  
 72
    65
 73
     2
 40
2.5
 49
1.25
 49
-1.25
  0
LTYPE
  2
DASHED2
 70
    64
  3
----    ----    ----    ----    
 72
    65
 73
     2
 40
5.0
 49
2.5
 49
-2.5
  0
LTYPE
  2
DASHED3
 70
    64
  3
------  ------  ------  ------  
 72
    65
 73
     2
 40
5.0
 49
3.75
 49
-1.25
  0
LTYPE
  2
CENTER1
 70
    64
  3
----- - ----- - ----- - ----- - 
 72
    65
 73
     4
 40
10.0
 49
6.25
 49
-1.25
 49
1.25
 49
-1.25
  0
LTYPE
  2
CENTER2
 70
    64
  3
----------  --  ----------  --  
 72
    65
 73
     4
 40
20.0
 49
12.5
 49
-2.5
 49
2.5
 49
-2.5
  0
LTYPE
  2
PHANTOM1
 70
    64
  3
--- - - --- - - --- - - --- - - 
 72
    65
 73
     6
 40
10.0
 49
3.25
 49
-1.25
 49
1.25
 49
-1.25
 49
1.25
 49
-1.25
  0
LTYPE
  2
PHANTOM2
 70
    64
  3
--------  -  -  --------  -  -  
 72
    65
 73
     6
 40
20.0
 49
10.0
 49
-2.5
 49
1.25
 49
-2.5
 49
1.25
 49
-2.5
  0
LTYPE
  2
DOT
 70
    64
  3
-   -   -   -   -   -   -   -   
 72
    65
 73
     2
 40
2.5
 49
0.625
 49
-1.875
  0
LTYPE
  2
DUMMY
 70
    64
  3
ダミー
 72
    65
 73
     0
 40
0.0
  0
LTYPE
  2
RAND1
 70
    64
  3
ランダム線1
 72
    65
 73
     4
 40
10.0
 49
1.0
 49
-2.0
 49
3.0
 49
-4.0
  0
LTYPE
  2
RAND2
 70
    64
  3
ランダム線2
 72
    65
 73
     4
 40
14.0
 49
2.0
 49
-3.0
 49
4.0
 49
-5.0
  0
LTYPE
  2
RAND3
 70
    64
  3
ランダム線3
 72
    65
 73
     4
 40
18.0
 49
3.0
 49
-4.0
 49
5.0
 49
-6.0
  0
LTYPE
  2
RAND4
 70
    64
  3
ランダム線4
 72
    65
 73
     4
 40
22.0
 49
4.0
 49
-5.0
 49
6.0
 49
-7.0
  0
LTYPE
  2
RAND5
 70
    64
  3
ランダム線5
 72
    65
 73
     4
 40
26.0
 49
5.0
 49
-6.0
 49
7.0
 49
-8.0
  0
LTYPE
  2
LONG1
 70
    64
  3
----------  --  ----------  --  
 72
    65
 73
     4
 40
40.0
 49
32.5
 49
-2.5
 49
2.5
 49
-2.5
  0
LTYPE
  2
LONG2
 70
    64
  3
--------  -  -  --------  -  -  
 72
    65
 73
     6
 40
40.0
 49
30.0
 49
-2.5
 49
1.25
 49
-2.5
 49
1.25
 49
-2.5
  0
LTYPE
  2
LONG3
 70
    64
  3
+++++++++++++++..+++++++++++++++
 72
    65
 73
     2
 40
40.0
 49
37.5
 49
-2.5
  0
LTYPE
  2
LONG4
 70
    64
  3
+++++++++++++++..+++++++++++++++
 72
    65
 73
     2
 40
80.0
 49
75.0
 49
-5.0
  0
LTYPE
  2
LONG5
 70
    64
  3
----------  --  ----------  --  
 72
    65
 73
     4
 40
60.0
 49
37.5
 49
-7.5
 49
7.5
 49
-7.5
  0
LTYPE
  2
dashed
 70
   64
  3
-------   -------------   ------
 72
   65
 73
    2
 40
7.5
 49
6
 49
-1.5
  0
LTYPE
  2
dashed_spaced
 70
   64
  3
----        --------        ----
 72
   65
 73
    2
 40
12
 49
6
 49
-6
  0
LTYPE
  2
long_dashed_dotted
 70
   64
  3
------------- --- --------------
 72
   65
 73
    4
 40
15.25
 49
12
 49
-1.5
 49
0.25
 49
-1.5
  0
LTYPE
  2
long_dashed_double-dotted
 70
   64
  3
----------- --- --- ------------
 72
   65
 73
    6
 40
17
 49
12
 49
-1.5
 49
0.25
 49
-1.5
 49
0.25
 49
-1.5
  0
LTYPE
  2
long_dashed_triplicate-dotted
 70
   64
  3
--------- --- --- --- ----------
 72
   65
 73
    8
 40
18.75
 49
12
 49
-1.5
 49
0.25
 49
-1.5
 49
0.25
 49
-1.5
 49
0.25
 49
-1.5
  0
LTYPE
  2
dotted
 70
   64
  3
   -       -       -       -    
 72
   65
 73
    2
 40
1.75
 49
0.25
 49
-1.5
  0
LTYPE
  2
chain
 70
   64
  3
-------------- -- --------------
 72
   65
 73
    4
 40
18.5
 49
12
 49
-1.5
 49
3.5
 49
-1.5
  0
LTYPE
  2
chain_double_dash
 70
   64
  3
------------ -- -- -------------
 72
   65
 73
    6
 40
23.5
 49
12
 49
-1.5
 49
3.5
 49
-1.5
 49
3.5
 49
-1.5
  0
LTYPE
  2
dashed_dotted
 70
   64
  3
-----------     -     ----------
 72
   65
 73
    4
 40
9.25
 49
6
 49
-1.5
 49
0.25
 49
-1.5
  0
LTYPE
  2
double-dashed_dotted
 70
   64
  3
------   -----------   -   -----
 72
   65
 73
    6
 40
16.75
 49
6
 49
-1.5
 49
6
 49
-1.5
 49
0.25
 49
-1.5
  0
LTYPE
  2
dashed_double-dotted
 70
   64
  3
---------    -    -    ---------
 72
   65
 73
    6
 40
11
 49
6
 49
-1.5
 49
0.25
 49
-1.5
 49
0.25
 49
-1.5
  0
LTYPE
  2
double-dashed_double-dotted
 70
   64
  3
-----   ---------   -   -   ----
 72
   65
 73
    8
 40
18.5
 49
6
 49
-1.5
 49
6
 49
-1.5
 49
0.25
 49
-1.5
 49
0.25
 49
-1.5
  0
LTYPE
  2
dashed_triplicate-dotted
 70
   64
  3
-------    -    -    -    ------
 72
   65
 73
    8
 40
12.75
 49
6
 49
-1.5
 49
0.25
 49
-1.5
 49
0.25
 49
-1.5
 49
0.25
 49
-1.5
  0
LTYPE
  2
double-dashed_triplicate-dotted
 70
   64
  3
-----  ---------  -  -  -  -----
 72
   65
 73
   10
 40
20.25
 49
6
 49
-1.5
 49
6
 49
-1.5
 49
0.25
 49
-1.5
 49
0.25
 49
-1.5
 49
0.25
 49
-1.5
  0
LTYPE
  2
undefined
 70
   64
  3
--------------------------------
 72
   65
 73
    0
 40
0
  0
LTYPE
  2
_
 70
   64
  3
                                
 72
   65
 73
    0
 40
0
  0
LTYPE
  2
__18
 70
   64
  3
                                
 72
   65
 73
    0
 40
0
  0
LTYPE
  2
__19
 70
   64
  3
                                
 72
   65
 73
    0
 40
0
  0
LTYPE
  2
__20
 70
   64
  3
                                
 72
   65
 73
    0
 40
0
  0
LTYPE
  2
__21
 70
   64
  3
                                
 72
   65
 73
    0
 40
0
  0
LTYPE
  2
__22
 70
   64
  3
                                
 72
   65
 73
    0
 40
0
  0
LTYPE
  2
__23
 70
   64
  3
                                
 72
   65
 73
    0
 40
0
  0
LTYPE
  2
__24
 70
   64
  3
                                
 72
   65
 73
    0
 40
0
  0
LTYPE
  2
__25
 70
   64
  3
                                
 72
   65
 73
    0
 40
0
  0
LTYPE
  2
__26
 70
   64
  3
                                
 72
   65
 73
    0
 40
0
  0
LTYPE
  2
__27
 70
   64
  3
                                
 72
   65
 73
    0
 40
0
  0
LTYPE
  2
__28
 70
   64
  3
                                
 72
   65
 73
    0
 40
0
  0
LTYPE
  2
__29
 70
   64
  3
                                
 72
   65
 73
    0
 40
0
  0
LTYPE
  2
__30
 70
   64
  3
                                
 72
   65
 73
    0
 40
0
  0
LTYPE
  2
__31
 70
   64
  3
                                
 72
   65
 73
    0
 40
0
  0
LTYPE
  2
__32
 70
   64
  3
                                
 72
   65
 73
    0
 40
0
  0
ENDTAB
  0
TABLE
  2
STYLE
  5
3
100
AcDbSymbolTable
 70
     1
  0
STYLE
  5
10
100
AcDbSymbolTableRecord
100
AcDbTextStyleTableRecord
  2
STANDARD
 70
     0
 40
0.0
 41
1.0
 50
0.0
 71
     0
 42
0.2
  3
txt
  4
bigfont.shx
  0
STYLE
  5
26
100
AcDbSymbolTableRecord
100
AcDbTextStyleTableRecord
  2
TATEGAKI
 70
    68
 40
0.0
 41
1.0
 50
0.0
 71
     0
 42
1.0
  3
txt
  4
bigfont.shx
  0
ENDTAB
  0
TABLE
  2
LAYER
 70
    2
  0
LAYER
  2
_0-0_
 70
   64
 62
    7
  6
CONTINUOUS
  0
LAYER
  2
ADD_LINE
 70
   64
 62
    7
  6
CONTINUOUS
  0
ENDTAB
  0
ENDSEC
  0
SECTION
  2
BLOCKS
  0
ENDSEC
  0
SECTION
  2
ENTITIES
  0
LINE
  8
_0-0_
  6
CONTINUOUS
 62
    7
 10
629.36302380952384
 20
395.41044613591276
 11
437.62474130952387
 21
395.41044613591276
  0
LINE
  8
_0-0_
  6
CONTINUOUS
 62
    7
 10
310.30519880952392
 20
297.46141613591266
 11
310.30519880952392
 21
301.16071613591265
  0
LINE
  8
_0-0_
  6
CONTINUOUS
 62
    7
 10
311.65556005902386
 20
297.46141613591266
 11
310.30519880952392
 21
297.46141613591266
  0
LINE
  8
_0-0_
  6
CONTINUOUS
 62
    7
 10
268.4628738095239
 20
264.58571113591267
 11
268.4628738095239
 21
392.41044613591271
  0
LINE
  8
_0-0_
  6
CONTINUOUS
 62
    7
 10
271.4628738095239
 20
395.41044613591271
 11
434.62474130952387
 21
395.41044613591271
  0
ARC
  8
_0-0_
  6
CONTINUOUS
 62
    7
 10
271.4628738095239
 20
392.41044613591271
 40
3
 50
90
 51
180
  0
ARC
  8
_0-0_
  6
CONTINUOUS
 62
    7
 10
445.62474130952387
 20
324.96688169828673
 40
10
 50
180
 51
194.03713868216576
  0
ARC
  8
_0-0_
  6
CONTINUOUS
 62
    7
 10
434.62474130952387
 20
394.41044613591276
 40
1
 50
0
 51
90
  0
LINE
  8
_0-0_
  6
CONTINUOUS
 62
    7
 10
444.85177341496956
 20
286.83006840289983
 11
435.92335420407812
 21
322.54137386892552
  0
ARC
  8
_0-0_
  6
CONTINUOUS
 62
    7
 10
435.15038630952381
 20
284.40456057353862
 40
10
 50
0
 51
14.037138682165798
  0
ARC
  8
_0-0_
  6
CONTINUOUS
 62
    7
 10
444.15038630952381
 20
262.58571113591267
 40
1
 50
270
 51
0
  0
LINE
  8
_0-0_
  6
CONTINUOUS
 62
    7
 10
271.4628738095239
 20
261.58571113591267
 11
444.15038630952381
 21
261.58571113591267
  0
ARC
  8
_0-0_
  6
CONTINUOUS
 62
    7
 10
271.4628738095239
 20
264.58571113591267
 40
3
 50
180
 51
270
  0
CIRCLE
  8
_0-0_
  6
CONTINUOUS
 62
    7
 10
271.4628738095239
 20
392.41044613591271
 40
1.1000000000000001
  0
CIRCLE
  8
_0-0_
  6
CONTINUOUS
 62
    7
 10
271.4628738095239
 20
264.58571113591267
 40
1.1000000000000001
  0
CIRCLE
  8
_0-0_
  6
CONTINUOUS
 62
    7
 10
442.15038630952381
 20
264.58571113591267
 40
1.1000000000000001
  0
CIRCLE
  8
_0-0_
  6
CONTINUOUS
 62
    7
 10
432.62474130952387
 20
392.41044613591271
 40
1.1000000000000001
  0
LINE
  8
_0-0_
  6
CONTINUOUS
 62
    7
 10
445.15038630952381
 20
284.40456057353862
 11
445.15038630952381
 21
262.58571113591267
  0
LINE
  8
_0-0_
  6
CONTINUOUS
 62
    7
 10
435.62474130952387
 20
394.41044613591276
 11
435.62474130952387
 21
324.96688169828673
  0
LINE
  8
_0-0_
  6
CONTINUOUS
 62
    7
 10
310.30519880952392
 20
301.16071613591265
 11
303.30519880952392
 21
301.16071613591265
  0
LINE
  8
_0-0_
  6
CONTINUOUS
 62
    7
 10
303.30519880952392
 20
287.66071613591265
 11
303.30519880952392
 21
301.16071613591265
  0
LINE
  8
_0-0_
  6
CONTINUOUS
 62
    7
 10
310.30519880952392
 20
287.66071613591265
 11
303.30519880952392
 21
287.66071613591265
  0
LINE
  8
_0-0_
  6
CONTINUOUS
 62
    7
 10
334.10519880952398
 20
287.66071613591265
 11
327.10519880952398
 21
287.66071613591265
  0
LINE
  8
_0-0_
  6
CONTINUOUS
 62
    7
 10
334.10519880952398
 20
301.16071613591265
 11
327.10519880952398
 21
301.16071613591265
  0
LINE
  8
_0-0_
  6
CONTINUOUS
 62
    7
 10
334.10519880952398
 20
287.66071613591265
 11
334.10519880952398
 21
301.16071613591265
  0
LINE
  8
_0-0_
  6
CONTINUOUS
 62
    7
 10
310.30519880952392
 20
287.66071613591265
 11
310.30519880952392
 21
292.86151613591267
  0
LINE
  8
_0-0_
  6
CONTINUOUS
 62
    7
 10
327.10519880952398
 20
287.66071613591265
 11
327.10519880952398
 21
292.86151613591267
  0
LINE
  8
_0-0_
  6
CONTINUOUS
 62
    7
 10
327.10519880952398
 20
297.46141613591266
 11
327.10519880952398
 21
301.16071613591265
  0
LINE
  8
_0-0_
  6
CONTINUOUS
 62
    7
 10
310.30519880952392
 20
292.86151613591267
 11
311.65556005902386
 21
292.86151613591267
  0
LINE
  8
_0-0_
  6
CONTINUOUS
 62
    7
 10
325.75483756002404
 20
292.86151613591267
 11
327.10519880952398
 21
292.86151613591267
  0
LINE
  8
_0-0_
  6
CONTINUOUS
 62
    7
 10
327.10519880952398
 20
297.46141613591266
 11
325.75483756002404
 21
297.46141613591266
  0
LINE
  8
_0-0_
  6
CONTINUOUS
 62
    7
 10
420.95646005902381
 20
283.11092792091267
 11
420.95646005902381
 21
269.06145792091274
  0
LINE
  8
_0-0_
  6
CONTINUOUS
 62
    7
 10
420.95646005902381
 20
269.06145792091274
 11
406.90546005902388
 21
269.06145792091274
  0
LINE
  8
_0-0_
  6
CONTINUOUS
 62
    7
 10
406.90546005902388
 20
283.11092792091267
 11
420.95646005902381
 21
283.11092792091267
  0
LINE
  8
_0-0_
  6
CONTINUOUS
 62
    7
 10
406.90546005902388
 20
269.06145792091274
 11
406.90546005902388
 21
283.11092792091267
  0
LINE
  8
_0-0_
  6
CONTINUOUS
 62
    7
 10
399.52546005902389
 20
283.11092792091267
 11
399.52546005902389
 21
269.06145792091274
  0
LINE
  8
_0-0_
  6
CONTINUOUS
 62
    7
 10
399.52546005902389
 20
269.06145792091274
 11
385.47546005902382
 21
269.06145792091274
  0
LINE
  8
_0-0_
  6
CONTINUOUS
 62
    7
 10
385.47546005902382
 20
283.11092792091267
 11
399.52546005902389
 21
283.11092792091267
  0
LINE
  8
_0-0_
  6
CONTINUOUS
 62
    7
 10
385.47546005902382
 20
269.06145792091274
 11
385.47546005902382
 21
283.11092792091267
  0
LINE
  8
_0-0_
  6
CONTINUOUS
 62
    7
 10
380.47546005902382
 20
283.11092792091267
 11
380.47546005902382
 21
269.06145792091274
  0
LINE
  8
_0-0_
  6
CONTINUOUS
 62
    7
 10
380.47546005902382
 20
269.06145792091274
 11
366.42566005902393
 21
269.06145792091274
  0
LINE
  8
_0-0_
  6
CONTINUOUS
 62
    7
 10
366.42566005902393
 20
283.11092792091267
 11
380.47546005902382
 21
283.11092792091267
  0
LINE
  8
_0-0_
  6
CONTINUOUS
 62
    7
 10
366.42566005902393
 20
269.06145792091274
 11
366.42566005902393
 21
283.11092792091267
  0
LINE
  8
_0-0_
  6
CONTINUOUS
 62
    7
 10
359.04376005902384
 20
283.11092792091267
 11
359.04376005902384
 21
269.06145792091274
  0
LINE
  8
_0-0_
  6
CONTINUOUS
 62
    7
 10
359.04376005902384
 20
269.06145792091274
 11
344.99446005902382
 21
269.06145792091274
  0
LINE
  8
_0-0_
  6
CONTINUOUS
 62
    7
 10
344.99446005902382
 20
283.11092792091267
 11
359.04376005902384
 21
283.11092792091267
  0
LINE
  8
_0-0_
  6
CONTINUOUS
 62
    7
 10
344.99446005902382
 20
269.06145792091274
 11
344.99446005902382
 21
283.11092792091267
  0
LINE
  8
_0-0_
  6
CONTINUOUS
 62
    7
 10
337.61246005902387
 20
283.11092792091267
 11
337.61246005902387
 21
269.06145792091274
  0
LINE
  8
_0-0_
  6
CONTINUOUS
 62
    7
 10
337.61246005902387
 20
269.06145792091274
 11
323.56316005902386
 21
269.06145792091274
  0
LINE
  8
_0-0_
  6
CONTINUOUS
 62
    7
 10
323.56316005902386
 20
283.11092792091267
 11
337.61246005902387
 21
283.11092792091267
  0
LINE
  8
_0-0_
  6
CONTINUOUS
 62
    7
 10
323.56316005902386
 20
269.06145792091274
 11
323.56316005902386
 21
283.11092792091267
  0
LINE
  8
_0-0_
  6
CONTINUOUS
 62
    7
 10
316.18126005902388
 20
283.11092792091267
 11
316.18126005902388
 21
269.06145792091274
  0
LINE
  8
_0-0_
  6
CONTINUOUS
 62
    7
 10
316.18126005902388
 20
269.06145792091274
 11
302.1304600590239
 21
269.06145792091274
  0
LINE
  8
_0-0_
  6
CONTINUOUS
 62
    7
 10
302.1304600590239
 20
283.11092792091267
 11
316.18126005902388
 21
283.11092792091267
  0
LINE
  8
_0-0_
  6
CONTINUOUS
 62
    7
 10
302.1304600590239
 20
269.06145792091274
 11
302.1304600590239
 21
283.11092792091267
  0
LINE
  8
_0-0_
  6
CONTINUOUS
 62
    7
 10
289.98766005902382
 20
283.11092792091267
 11
289.98766005902382
 21
269.06145792091274
  0
LINE
  8
_0-0_
  6
CONTINUOUS
 62
    7
 10
289.98766005902382
 20
269.06145792091274
 11
275.93811005902387
 21
269.06145792091274
  0
LINE
  8
_0-0_
  6
CONTINUOUS
 62
    7
 10
275.93811005902387
 20
283.11092792091267
 11
289.98766005902382
 21
283.11092792091267
  0
LINE
  8
_0-0_
  6
CONTINUOUS
 62
    7
 10
275.93811005902387
 20
269.06145792091274
 11
275.93811005902387
 21
283.11092792091267
  0
LINE
  8
_0-0_
  6
CONTINUOUS
 62
    7
 10
432.86246005902387
 20
302.16082792091271
 11
432.86246005902387
 21
288.11142792091272
  0
LINE
  8
_0-0_
  6
CONTINUOUS
 62
    7
 10
432.86246005902387
 20
288.11142792091272
 11
418.8134600590239
 21
288.11142792091272
  0
LINE
  8
_0-0_
  6
CONTINUOUS
 62
    7
 10
418.8134600590239
 20
302.16082792091271
 11
432.86246005902387
 21
302.16082792091271
  0
LINE
  8
_0-0_
  6
CONTINUOUS
 62
    7
 10
418.8134600590239
 20
288.11142792091272
 11
418.8134600590239
 21
302.16082792091271
  0
LINE
  8
_0-0_
  6
CONTINUOUS
 62
    7
 10
413.81246005902381
 20
302.16082792091271
 11
413.81246005902381
 21
288.11142792091272
  0
LINE
  8
_0-0_
  6
CONTINUOUS
 62
    7
 10
413.81246005902381
 20
288.11142792091272
 11
399.76346005902383
 21
288.11142792091272
  0
LINE
  8
_0-0_
  6
CONTINUOUS
 62
    7
 10
399.76346005902383
 20
302.16082792091271
 11
413.81246005902381
 21
302.16082792091271
  0
LINE
  8
_0-0_
  6
CONTINUOUS
 62
    7
 10
399.76346005902383
 20
288.11142792091272
 11
399.76346005902383
 21
302.16082792091271
  0
LINE
  8
_0-0_
  6
CONTINUOUS
 62
    7
 10
394.76246005902385
 20
302.16082792091271
 11
394.76246005902385
 21
288.11142792091272
  0
LINE
  8
_0-0_
  6
CONTINUOUS
 62
    7
 10
394.76246005902385
 20
288.11142792091272
 11
380.71346005902387
 21
288.11142792091272
  0
LINE
  8
_0-0_
  6
CONTINUOUS
 62
    7
 10
380.71346005902387
 20
302.16082792091271
 11
394.76246005902385
 21
302.16082792091271
  0
LINE
  8
_0-0_
  6
CONTINUOUS
 62
    7
 10
380.71346005902387
 20
288.11142792091272
 11
380.71346005902387
 21
302.16082792091271
  0
LINE
  8
_0-0_
  6
CONTINUOUS
 62
    7
 10
375.7124600590239
 20
302.16082792091271
 11
375.7124600590239
 21
288.11142792091272
  0
LINE
  8
_0-0_
  6
CONTINUOUS
 62
    7
 10
375.7124600590239
 20
288.11142792091272
 11
361.66316005902388
 21
288.11142792091272
  0
LINE
  8
_0-0_
  6
CONTINUOUS
 62
    7
 10
361.66316005902388
 20
302.16082792091271
 11
375.7124600590239
 21
302.16082792091271
  0
LINE
  8
_0-0_
  6
CONTINUOUS
 62
    7
 10
361.66316005902388
 20
288.11142792091272
 11
361.66316005902388
 21
302.16082792091271
  0
LINE
  8
_0-0_
  6
CONTINUOUS
 62
    7
 10
356.66246005902383
 20
302.16082792091271
 11
356.66246005902383
 21
288.11142792091272
  0
LINE
  8
_0-0_
  6
CONTINUOUS
 62
    7
 10
356.66246005902383
 20
288.11142792091272
 11
342.61316005902393
 21
288.11142792091272
  0
LINE
  8
_0-0_
  6
CONTINUOUS
 62
    7
 10
342.61316005902393
 20
302.16082792091271
 11
356.66246005902383
 21
302.16082792091271
  0
LINE
  8
_0-0_
  6
CONTINUOUS
 62
    7
 10
342.61316005902393
 20
288.11142792091272
 11
342.61316005902393
 21
302.16082792091271
  0
LINE
  8
_0-0_
  6
CONTINUOUS
 62
    7
 10
289.98766005902382
 20
302.16082792091271
 11
289.98766005902382
 21
288.11142792091272
  0
LINE
  8
_0-0_
  6
CONTINUOUS
 62
    7
 10
289.98766005902382
 20
288.11142792091272
 11
275.93811005902387
 21
288.11142792091272
  0
LINE
  8
_0-0_
  6
CONTINUOUS
 62
    7
 10
275.93811005902387
 20
302.16082792091271
 11
289.98766005902382
 21
302.16082792091271
  0
LINE
  8
_0-0_
  6
CONTINUOUS
 62
    7
 10
275.93811005902387
 20
288.11142792091272
 11
275.93811005902387
 21
302.16082792091271
  0
LINE
  8
_0-0_
  6
CONTINUOUS
 62
    7
 10
423.3374600590239
 20
321.21082792091266
 11
423.3374600590239
 21
307.16162792091274
  0
LINE
  8
_0-0_
  6
CONTINUOUS
 62
    7
 10
423.3374600590239
 20
307.16162792091274
 11
409.28846005902392
 21
307.16162792091274
  0
LINE
  8
_0-0_
  6
CONTINUOUS
 62
    7
 10
409.28846005902392
 20
321.21082792091266
 11
423.3374600590239
 21
321.21082792091266
  0
LINE
  8
_0-0_
  6
CONTINUOUS
 62
    7
 10
409.28846005902392
 20
307.16162792091274
 11
409.28846005902392
 21
321.21082792091266
  0
LINE
  8
_0-0_
  6
CONTINUOUS
 62
    7
 10
404.28746005902383
 20
321.21082792091266
 11
404.28746005902383
 21
307.16162792091274
  0
LINE
  8
_0-0_
  6
CONTINUOUS
 62
    7
 10
404.28746005902383
 20
307.16162792091274
 11
390.23846005902385
 21
307.16162792091274
  0
LINE
  8
_0-0_
  6
CONTINUOUS
 62
    7
 10
390.23846005902385
 20
321.21082792091266
 11
404.28746005902383
 21
321.21082792091266
  0
LINE
  8
_0-0_
  6
CONTINUOUS
 62
    7
 10
390.23846005902385
 20
307.16162792091274
 11
390.23846005902385
 21
321.21082792091266
  0
LINE
  8
_0-0_
  6
CONTINUOUS
 62
    7
 10
385.23746005902387
 20
321.21082792091266
 11
385.23746005902387
 21
307.16162792091274
  0
LINE
  8
_0-0_
  6
CONTINUOUS
 62
    7
 10
385.23746005902387
 20
307.16162792091274
 11
371.18816005902386
 21
307.16162792091274
  0
LINE
  8
_0-0_
  6
CONTINUOUS
 62
    7
 10
371.18816005902386
 20
321.21082792091266
 11
385.23746005902387
 21
321.21082792091266
  0
LINE
  8
_0-0_
  6
CONTINUOUS
 62
    7
 10
371.18816005902386
 20
307.16162792091274
 11
371.18816005902386
 21
321.21082792091266
  0
LINE
  8
_0-0_
  6
CONTINUOUS
 62
    7
 10
366.18746005902392
 20
321.21082792091266
 11
366.18746005902392
 21
307.16162792091274
  0
LINE
  8
_0-0_
  6
CONTINUOUS
 62
    7
 10
366.18746005902392
 20
307.16162792091274
 11
352.1381600590239
 21
307.16162792091274
  0
LINE
  8
_0-0_
  6
CONTINUOUS
 62
    7
 10
352.1381600590239
 20
321.21082792091266
 11
366.18746005902392
 21
321.21082792091266
  0
LINE
  8
_0-0_
  6
CONTINUOUS
 62
    7
 10
352.1381600590239
 20
307.16162792091274
 11
352.1381600590239
 21
321.21082792091266
  0
LINE
  8
_0-0_
  6
CONTINUOUS
 62
    7
 10
347.13746005902385
 20
321.21082792091266
 11
347.13746005902385
 21
307.16162792091274
  0
LINE
  8
_0-0_
  6
CONTINUOUS
 62
    7
 10
347.13746005902385
 20
307.16162792091274
 11
333.08816005902383
 21
307.16162792091274
  0
LINE
  8
_0-0_
  6
CONTINUOUS
 62
    7
 10
333.08816005902383
 20
321.21082792091266
 11
347.13746005902385
 21
321.21082792091266
  0
LINE
  8
_0-0_
  6
CONTINUOUS
 62
    7
 10
333.08816005902383
 20
307.16162792091274
 11
333.08816005902383
 21
321.21082792091266
  0
LINE
  8
_0-0_
  6
CONTINUOUS
 62
    7
 10
320.94376005902382
 20
321.21082792091266
 11
320.94376005902382
 21
307.16162792091274
  0
LINE
  8
_0-0_
  6
CONTINUOUS
 62
    7
 10
320.94376005902382
 20
307.16162792091274
 11
306.89436005902382
 21
307.16162792091274
  0
LINE
  8
_0-0_
  6
CONTINUOUS
 62
    7
 10
306.89436005902382
 20
321.21082792091266
 11
320.94376005902382
 21
321.21082792091266
  0
LINE
  8
_0-0_
  6
CONTINUOUS
 62
    7
 10
306.89436005902382
 20
307.16162792091274
 11
306.89436005902382
 21
321.21082792091266
  0
LINE
  8
_0-0_
  6
CONTINUOUS
 62
    7
 10
289.98766005902382
 20
321.21082792091266
 11
289.98766005902382
 21
307.16162792091274
  0
LINE
  8
_0-0_
  6
CONTINUOUS
 62
    7
 10
289.98766005902382
 20
307.16162792091274
 11
275.93811005902387
 21
307.16162792091274
  0
LINE
  8
_0-0_
  6
CONTINUOUS
 62
    7
 10
275.93811005902387
 20
321.21082792091266
 11
289.98766005902382
 21
321.21082792091266
  0
LINE
  8
_0-0_
  6
CONTINUOUS
 62
    7
 10
275.93811005902387
 20
307.16162792091274
 11
275.93811005902387
 21
321.21082792091266
  0
LINE
  8
_0-0_
  6
CONTINUOUS
 62
    7
 10
418.57546005902384
 20
340.26082792091267
 11
418.57546005902384
 21
326.21162792091275
  0
LINE
  8
_0-0_
  6
CONTINUOUS
 62
    7
 10
418.57546005902384
 20
326.21162792091275
 11
404.52546005902389
 21
326.21162792091275
  0
LINE
  8
_0-0_
  6
CONTINUOUS
 62
    7
 10
404.52546005902389
 20
340.26082792091267
 11
418.57546005902384
 21
340.26082792091267
  0
LINE
  8
_0-0_
  6
CONTINUOUS
 62
    7
 10
404.52546005902389
 20
326.21162792091275
 11
404.52546005902389
 21
340.26082792091267
  0
LINE
  8
_0-0_
  6
CONTINUOUS
 62
    7
 10
399.52546005902389
 20
340.26082792091267
 11
399.52546005902389
 21
326.21162792091275
  0
LINE
  8
_0-0_
  6
CONTINUOUS
 62
    7
 10
399.52546005902389
 20
326.21162792091275
 11
385.47546005902382
 21
326.21162792091275
  0
LINE
  8
_0-0_
  6
CONTINUOUS
 62
    7
 10
385.47546005902382
 20
340.26082792091267
 11
399.52546005902389
 21
340.26082792091267
  0
LINE
  8
_0-0_
  6
CONTINUOUS
 62
    7
 10
385.47546005902382
 20
326.21162792091275
 11
385.47546005902382
 21
340.26082792091267
  0
LINE
  8
_0-0_
  6
CONTINUOUS
 62
    7
 10
380.47546005902382
 20
340.26082792091267
 11
380.47546005902382
 21
326.21162792091275
  0
LINE
  8
_0-0_
  6
CONTINUOUS
 62
    7
 10
380.47546005902382
 20
326.21162792091275
 11
366.42566005902393
 21
326.21162792091275
  0
LINE
  8
_0-0_
  6
CONTINUOUS
 62
    7
 10
366.42566005902393
 20
340.26082792091267
 11
380.47546005902382
 21
340.26082792091267
  0
LINE
  8
_0-0_
  6
CONTINUOUS
 62
    7
 10
366.42566005902393
 20
326.21162792091275
 11
366.42566005902393
 21
340.26082792091267
  0
LINE
  8
_0-0_
  6
CONTINUOUS
 62
    7
 10
361.42496005902387
 20
340.26082792091267
 11
361.42496005902387
 21
326.21162792091275
  0
LINE
  8
_0-0_
  6
CONTINUOUS
 62
    7
 10
361.42496005902387
 20
326.21162792091275
 11
347.37566005902386
 21
326.21162792091275
  0
LINE
  8
_0-0_
  6
CONTINUOUS
 62
    7
 10
347.37566005902386
 20
340.26082792091267
 11
361.42496005902387
 21
340.26082792091267
  0
LINE
  8
_0-0_
  6
CONTINUOUS
 62
    7
 10
347.37566005902386
 20
326.21162792091275
 11
347.37566005902386
 21
340.26082792091267
  0
LINE
  8
_0-0_
  6
CONTINUOUS
 62
    7
 10
342.37496005902392
 20
340.26082792091267
 11
342.37496005902392
 21
326.21162792091275
  0
LINE
  8
_0-0_
  6
CONTINUOUS
 62
    7
 10
342.37496005902392
 20
326.21162792091275
 11
328.3256600590239
 21
326.21162792091275
  0
LINE
  8
_0-0_
  6
CONTINUOUS
 62
    7
 10
328.3256600590239
 20
340.26082792091267
 11
342.37496005902392
 21
340.26082792091267
  0
LINE
  8
_0-0_
  6
CONTINUOUS
 62
    7
 10
328.3256600590239
 20
326.21162792091275
 11
328.3256600590239
 21
340.26082792091267
  0
LINE
  8
_0-0_
  6
CONTINUOUS
 62
    7
 10
318.56246005902392
 20
340.26082792091267
 11
318.56246005902392
 21
326.21162792091275
  0
LINE
  8
_0-0_
  6
CONTINUOUS
 62
    7
 10
318.56246005902392
 20
326.21162792091275
 11
304.5131600590239
 21
326.21162792091275
  0
LINE
  8
_0-0_
  6
CONTINUOUS
 62
    7
 10
304.5131600590239
 20
340.26082792091267
 11
318.56246005902392
 21
340.26082792091267
  0
LINE
  8
_0-0_
  6
CONTINUOUS
 62
    7
 10
304.5131600590239
 20
326.21162792091275
 11
304.5131600590239
 21
340.26082792091267
  0
LINE
  8
_0-0_
  6
CONTINUOUS
 62
    7
 10
289.98766005902382
 20
340.26082792091267
 11
289.98766005902382
 21
326.21162792091275
  0
LINE
  8
_0-0_
  6
CONTINUOUS
 62
    7
 10
289.98766005902382
 20
326.21162792091275
 11
275.93811005902387
 21
326.21162792091275
  0
LINE
  8
_0-0_
  6
CONTINUOUS
 62
    7
 10
275.93811005902387
 20
340.26082792091267
 11
289.98766005902382
 21
340.26082792091267
  0
LINE
  8
_0-0_
  6
CONTINUOUS
 62
    7
 10
275.93811005902387
 20
326.21162792091275
 11
275.93811005902387
 21
340.26082792091267
  0
LINE
  8
_0-0_
  6
CONTINUOUS
 62
    7
 10
428.10046005902382
 20
359.31082792091274
 11
428.10046005902382
 21
345.2616279209127
  0
LINE
  8
_0-0_
  6
CONTINUOUS
 62
    7
 10
428.10046005902382
 20
345.2616279209127
 11
414.05046005902386
 21
345.2616279209127
  0
LINE
  8
_0-0_
  6
CONTINUOUS
 62
    7
 10
414.05046005902386
 20
359.31082792091274
 11
428.10046005902382
 21
359.31082792091274
  0
LINE
  8
_0-0_
  6
CONTINUOUS
 62
    7
 10
414.05046005902386
 20
345.2616279209127
 11
414.05046005902386
 21
359.31082792091274
  0
LINE
  8
_0-0_
  6
CONTINUOUS
 62
    7
 10
409.05046005902386
 20
359.31082792091274
 11
409.05046005902386
 21
345.2616279209127
  0
LINE
  8
_0-0_
  6
CONTINUOUS
 62
    7
 10
409.05046005902386
 20
345.2616279209127
 11
395.00046005902391
 21
345.2616279209127
  0
LINE
  8
_0-0_
  6
CONTINUOUS
 62
    7
 10
395.00046005902391
 20
359.31082792091274
 11
409.05046005902386
 21
359.31082792091274
  0
LINE
  8
_0-0_
  6
CONTINUOUS
 62
    7
 10
395.00046005902391
 20
345.2616279209127
 11
395.00046005902391
 21
359.31082792091274
  0
LINE
  8
_0-0_
  6
CONTINUOUS
 62
    7
 10
390.00046005902391
 20
359.31082792091274
 11
390.00046005902391
 21
345.2616279209127
  0
LINE
  8
_0-0_
  6
CONTINUOUS
 62
    7
 10
390.00046005902391
 20
345.2616279209127
 11
375.95046005902384
 21
345.2616279209127
  0
LINE
  8
_0-0_
  6
CONTINUOUS
 62
    7
 10
375.95046005902384
 20
359.31082792091274
 11
390.00046005902391
 21
359.31082792091274
  0
LINE
  8
_0-0_
  6
CONTINUOUS
 62
    7
 10
375.95046005902384
 20
345.2616279209127
 11
375.95046005902384
 21
359.31082792091274
  0
LINE
  8
_0-0_
  6
CONTINUOUS
 62
    7
 10
370.94996005902385
 20
359.31082792091274
 11
370.94996005902385
 21
345.2616279209127
  0
LINE
  8
_0-0_
  6
CONTINUOUS
 62
    7
 10
370.94996005902385
 20
345.2616279209127
 11
356.90066005902383
 21
345.2616279209127
  0
LINE
  8
_0-0_
  6
CONTINUOUS
 62
    7
 10
356.90066005902383
 20
359.31082792091274
 11
370.94996005902385
 21
359.31082792091274
  0
LINE
  8
_0-0_
  6
CONTINUOUS
 62
    7
 10
356.90066005902383
 20
345.2616279209127
 11
356.90066005902383
 21
359.31082792091274
  0
LINE
  8
_0-0_
  6
CONTINUOUS
 62
    7
 10
351.8999600590239
 20
359.31082792091274
 11
351.8999600590239
 21
345.2616279209127
  0
LINE
  8
_0-0_
  6
CONTINUOUS
 62
    7
 10
351.8999600590239
 20
345.2616279209127
 11
337.85066005902388
 21
345.2616279209127
  0
LINE
  8
_0-0_
  6
CONTINUOUS
 62
    7
 10
337.85066005902388
 20
359.31082792091274
 11
351.8999600590239
 21
359.31082792091274
  0
LINE
  8
_0-0_
  6
CONTINUOUS
 62
    7
 10
337.85066005902388
 20
345.2616279209127
 11
337.85066005902388
 21
359.31082792091274
  0
LINE
  8
_0-0_
  6
CONTINUOUS
 62
    7
 10
332.84996005902383
 20
359.31082792091274
 11
332.84996005902383
 21
345.2616279209127
  0
LINE
  8
_0-0_
  6
CONTINUOUS
 62
    7
 10
332.84996005902383
 20
345.2616279209127
 11
318.80066005902381
 21
345.2616279209127
  0
LINE
  8
_0-0_
  6
CONTINUOUS
 62
    7
 10
318.80066005902381
 20
359.31082792091274
 11
332.84996005902383
 21
359.31082792091274
  0
LINE
  8
_0-0_
  6
CONTINUOUS
 62
    7
 10
318.80066005902381
 20
345.2616279209127
 11
318.80066005902381
 21
359.31082792091274
  0
LINE
  8
_0-0_
  6
CONTINUOUS
 62
    7
 10
313.79996005902387
 20
359.31082792091274
 11
313.79996005902387
 21
345.2616279209127
  0
LINE
  8
_0-0_
  6
CONTINUOUS
 62
    7
 10
313.79996005902387
 20
345.2616279209127
 11
299.75066005902386
 21
345.2616279209127
  0
LINE
  8
_0-0_
  6
CONTINUOUS
 62
    7
 10
299.75066005902386
 20
359.31082792091274
 11
313.79996005902387
 21
359.31082792091274
  0
LINE
  8
_0-0_
  6
CONTINUOUS
 62
    7
 10
299.75066005902386
 20
345.2616279209127
 11
299.75066005902386
 21
359.31082792091274
  0
LINE
  8
_0-0_
  6
CONTINUOUS
 62
    7
 10
289.98766005902382
 20
359.31082792091274
 11
289.98766005902382
 21
345.2616279209127
  0
LINE
  8
_0-0_
  6
CONTINUOUS
 62
    7
 10
289.98766005902382
 20
345.2616279209127
 11
275.93811005902387
 21
345.2616279209127
  0
LINE
  8
_0-0_
  6
CONTINUOUS
 62
    7
 10
275.93811005902387
 20
359.31082792091274
 11
289.98766005902382
 21
359.31082792091274
  0
LINE
  8
_0-0_
  6
CONTINUOUS
 62
    7
 10
275.93811005902387
 20
345.2616279209127
 11
275.93811005902387
 21
359.31082792091274
  0
LINE
  8
_0-0_
  6
CONTINUOUS
 62
    7
 10
428.10046005902382
 20
387.88542792091266
 11
428.10046005902382
 21
373.83642792091268
  0
LINE
  8
_0-0_
  6
CONTINUOUS
 62
    7
 10
428.10046005902382
 20
373.83642792091268
 11
414.05046005902386
 21
373.83642792091268
  0
LINE
  8
_0-0_
  6
CONTINUOUS
 62
    7
 10
414.05046005902386
 20
387.88542792091266
 11
428.10046005902382
 21
387.88542792091266
  0
LINE
  8
_0-0_
  6
CONTINUOUS
 62
    7
 10
414.05046005902386
 20
373.83642792091268
 11
414.05046005902386
 21
387.88542792091266
  0
LINE
  8
_0-0_
  6
CONTINUOUS
 62
    7
 10
399.52546005902389
 20
387.88542792091266
 11
399.52546005902389
 21
373.83642792091268
  0
LINE
  8
_0-0_
  6
CONTINUOUS
 62
    7
 10
399.52546005902389
 20
373.83642792091268
 11
385.47546005902382
 21
373.83642792091268
  0
LINE
  8
_0-0_
  6
CONTINUOUS
 62
    7
 10
385.47546005902382
 20
387.88542792091266
 11
399.52546005902389
 21
387.88542792091266
  0
LINE
  8
_0-0_
  6
CONTINUOUS
 62
    7
 10
385.47546005902382
 20
373.83642792091268
 11
385.47546005902382
 21
387.88542792091266
  0
LINE
  8
_0-0_
  6
CONTINUOUS
 62
    7
 10
380.47546005902382
 20
387.88542792091266
 11
380.47546005902382
 21
373.83642792091268
  0
LINE
  8
_0-0_
  6
CONTINUOUS
 62
    7
 10
380.47546005902382
 20
373.83642792091268
 11
366.42566005902393
 21
373.83642792091268
  0
LINE
  8
_0-0_
  6
CONTINUOUS
 62
    7
 10
366.42566005902393
 20
387.88542792091266
 11
380.47546005902382
 21
387.88542792091266
  0
LINE
  8
_0-0_
  6
CONTINUOUS
 62
    7
 10
366.42566005902393
 20
373.83642792091268
 11
366.42566005902393
 21
387.88542792091266
  0
LINE
  8
_0-0_
  6
CONTINUOUS
 62
    7
 10
361.42496005902387
 20
387.88542792091266
 11
361.42496005902387
 21
373.83642792091268
  0
LINE
  8
_0-0_
  6
CONTINUOUS
 62
    7
 10
361.42496005902387
 20
373.83642792091268
 11
347.37566005902386
 21
373.83642792091268
  0
LINE
  8
_0-0_
  6
CONTINUOUS
 62
    7
 10
347.37566005902386
 20
387.88542792091266
 11
361.42496005902387
 21
387.88542792091266
  0
LINE
  8
_0-0_
  6
CONTINUOUS
 62
    7
 10
347.37566005902386
 20
373.83642792091268
 11
347.37566005902386
 21
387.88542792091266
  0
LINE
  8
_0-0_
  6
CONTINUOUS
 62
    7
 10
342.37496005902392
 20
387.88542792091266
 11
342.37496005902392
 21
373.83642792091268
  0
LINE
  8
_0-0_
  6
CONTINUOUS
 62
    7
 10
342.37496005902392
 20
373.83642792091268
 11
328.3256600590239
 21
373.83642792091268
  0
LINE
  8
_0-0_
  6
CONTINUOUS
 62
    7
 10
328.3256600590239
 20
387.88542792091266
 11
342.37496005902392
 21
387.88542792091266
  0
LINE
  8
_0-0_
  6
CONTINUOUS
 62
    7
 10
328.3256600590239
 20
373.83642792091268
 11
328.3256600590239
 21
387.88542792091266
  0
LINE
  8
_0-0_
  6
CONTINUOUS
 62
    7
 10
313.79996005902387
 20
387.88542792091266
 11
313.79996005902387
 21
373.83642792091268
  0
LINE
  8
_0-0_
  6
CONTINUOUS
 62
    7
 10
313.79996005902387
 20
373.83642792091268
 11
299.75066005902386
 21
373.83642792091268
  0
LINE
  8
_0-0_
  6
CONTINUOUS
 62
    7
 10
299.75066005902386
 20
387.88542792091266
 11
313.79996005902387
 21
387.88542792091266
  0
LINE
  8
_0-0_
  6
CONTINUOUS
 62
    7
 10
299.75066005902386
 20
373.83642792091268
 11
299.75066005902386
 21
387.88542792091266
  0
LINE
  8
_0-0_
  6
CONTINUOUS
 62
    7
 10
311.65556005902386
 20
302.21040435091265
 11
325.75483756002404
 21
302.21040435091265
  0
LINE
  8
_0-0_
  6
CONTINUOUS
 62
    7
 10
325.75483756002404
 20
288.11142792091272
 11
311.65556005902386
 21
288.11142792091272
  0
LINE
  8
_0-0_
  6
CONTINUOUS
 62
    7
 10
311.65556005902386
 20
297.46141613591266
 11
311.65556005902386
 21
302.21040435091265
  0
LINE
  8
_0-0_
  6
CONTINUOUS
 62
    7
 10
311.65556005902386
 20
288.11142792091272
 11
311.65556005902386
 21
292.86151613591267
  0
LINE
  8
_0-0_
  6
CONTINUOUS
 62
    7
 10
325.75483756002404
 20
292.86151613591267
 11
325.75483756002404
 21
288.11142792091272
  0
LINE
  8
_0-0_
  6
CONTINUOUS
 62
    7
 10
325.75483756002404
 20
302.21040435091265
 11
325.75483756002404
 21
297.46141613591266
  0
LINE
  8
_0-0_
  6
CONTINUOUS
 62
    7
 10
463.17573461277391
 20
387.90993435091264
 11
477.22526300627391
 21
387.90993435091264
  0
LINE
  8
_0-0_
  6
CONTINUOUS
 62
    7
 10
589.34282380952391
 20
332.13574613591271
 11
589.34282380952391
 21
330.76033435091273
  0
LINE
  8
_0-0_
  6
CONTINUOUS
 62
    7
 10
593.94272380952384
 20
330.76033435091273
 11
593.94272380952384
 21
332.13574613591271
  0
LINE
  8
_0-0_
  6
CONTINUOUS
 62
    7
 10
589.34282380952391
 20
316.7113579209128
 11
589.34282380952391
 21
315.3357461359127
  0
LINE
  8
_0-0_
  6
CONTINUOUS
 62
    7
 10
593.94272380952384
 20
315.3357461359127
 11
593.94272380952384
 21
316.7113579209128
  0
LINE
  8
_0-0_
  6
CONTINUOUS
 62
    7
 10
589.34282380952391
 20
316.7113579209128
 11
584.61883461277387
 21
316.7113579209128
  0
LINE
  8
_0-0_
  6
CONTINUOUS
 62
    7
 10
446.15038630952387
 20
283.08571113591267
 11
446.15038630952387
 21
284.40456057353856
  0
ARC
  8
_0-0_
  6
CONTINUOUS
 62
    7
 10
446.62474130952387
 20
324.96688169828673
 40
10
 50
180
 51
194.03713868216576
  0
LINE
  8
_0-0_
  6
CONTINUOUS
 62
    7
 10
445.85177341496956
 20
286.83006840289977
 11
436.92335420407818
 21
322.54137386892552
  0
ARC
  8
_0-0_
  6
CONTINUOUS
 62
    7
 10
437.62474130952387
 20
394.41044613591276
 40
1
 50
90
 51
180
  0
ARC
  8
_0-0_
  6
CONTINUOUS
 62
    7
 10
447.15038630952387
 20
262.58571113591262
 40
1
 50
180
 51
270
  0
LINE
  8
_0-0_
  6
CONTINUOUS
 62
    7
 10
629.36302380952384
 20
261.58571113591262
 11
447.15038630952387
 21
261.58571113591262
  0
ARC
  8
_0-0_
  6
CONTINUOUS
 62
    7
 10
629.36302380952384
 20
264.58571113591262
 40
3
 50
270
 51
0
  0
LINE
  8
_0-0_
  6
CONTINUOUS
 62
    7
 10
632.36302380952384
 20
392.41044613591276
 11
632.36302380952384
 21
264.58571113591262
  0
ARC
  8
_0-0_
  6
CONTINUOUS
 62
    7
 10
629.36302380952384
 20
392.41044613591276
 40
3
 50
0
 51
90
  0
CIRCLE
  8
_0-0_
  6
CONTINUOUS
 62
    7
 10
439.62474130952387
 20
392.41044613591276
 40
1.1000000000000001
  0
CIRCLE
  8
_0-0_
  6
CONTINUOUS
 62
    7
 10
449.15038630952387
 20
264.58571113591262
 40
1.1000000000000001
  0
CIRCLE
  8
_0-0_
  6
CONTINUOUS
 62
    7
 10
629.36302380952384
 20
264.58571113591262
 40
1.1000000000000001
  0
CIRCLE
  8
_0-0_
  6
CONTINUOUS
 62
    7
 10
629.36302380952384
 20
392.41044613591276
 40
1.1000000000000001
  0
LINE
  8
_0-0_
  6
CONTINUOUS
 62
    7
 10
436.62474130952387
 20
394.41044613591276
 11
436.62474130952387
 21
324.96688169828673
  0
LINE
  8
_0-0_
  6
CONTINUOUS
 62
    7
 10
446.15038630952387
 20
284.40456057353856
 11
446.15038630952387
 21
262.58571113591262
  0
ARC
  8
_0-0_
  6
CONTINUOUS
 62
    7
 10
436.15038630952387
 20
284.40456057353856
 40
10
 50
0
 51
14.037138682165798
  0
LINE
  8
_0-0_
  6
CONTINUOUS
 62
    7
 10
585.64352380952391
 20
315.3357461359127
 11
585.64352380952391
 21
308.3357461359127
  0
LINE
  8
_0-0_
  6
CONTINUOUS
 62
    7
 10
599.14352380952391
 20
308.3357461359127
 11
585.64352380952391
 21
308.3357461359127
  0
LINE
  8
_0-0_
  6
CONTINUOUS
 62
    7
 10
599.14352380952391
 20
315.3357461359127
 11
599.14352380952391
 21
308.3357461359127
  0
LINE
  8
_0-0_
  6
CONTINUOUS
 62
    7
 10
599.14352380952391
 20
339.13574613591271
 11
599.14352380952391
 21
332.13574613591271
  0
LINE
  8
_0-0_
  6
CONTINUOUS
 62
    7
 10
585.64352380952391
 20
339.13574613591271
 11
585.64352380952391
 21
332.13574613591271
  0
LINE
  8
_0-0_
  6
CONTINUOUS
 62
    7
 10
599.14352380952391
 20
339.13574613591271
 11
585.64352380952391
 21
339.13574613591271
  0
LINE
  8
_0-0_
  6
CONTINUOUS
 62
    7
 10
589.34282380952391
 20
315.3357461359127
 11
585.64352380952391
 21
315.3357461359127
  0
LINE
  8
_0-0_
  6
CONTINUOUS
 62
    7
 10
599.14352380952391
 20
315.3357461359127
 11
593.94272380952384
 21
315.3357461359127
  0
LINE
  8
_0-0_
  6
CONTINUOUS
 62
    7
 10
599.14352380952391
 20
332.13574613591271
 11
593.94272380952384
 21
332.13574613591271
  0
LINE
  8
_0-0_
  6
CONTINUOUS
 62
    7
 10
589.34282380952391
 20
332.13574613591271
 11
585.64352380952391
 21
332.13574613591271
  0
LINE
  8
_0-0_
  6
CONTINUOUS
 62
    7
 10
444.12568461277385
 20
387.90993435091264
 11
458.17521300627379
 21
387.90993435091264
  0
LINE
  8
_0-0_
  6
CONTINUOUS
 62
    7
 10
458.17521300627379
 20
387.90993435091264
 11
458.17521300627379
 21
373.86095792091271
  0
LINE
  8
_0-0_
  6
CONTINUOUS
 62
    7
 10
458.17521300627379
 20
373.86095792091271
 11
444.12568461277385
 21
373.86095792091271
  0
LINE
  8
_0-0_
  6
CONTINUOUS
 62
    7
 10
444.12568461277385
 20
373.86095792091271
 11
444.12568461277385
 21
387.90993435091264
  0
LINE
  8
_0-0_
  6
CONTINUOUS
 62
    7
 10
477.22526300627391
 20
387.90993435091264
 11
477.22526300627391
 21
373.86095792091271
  0
LINE
  8
_0-0_
  6
CONTINUOUS
 62
    7
 10
477.22526300627391
 20
373.86095792091271
 11
463.17573461277391
 21
373.86095792091271
  0
LINE
  8
_0-0_
  6
CONTINUOUS
 62
    7
 10
463.17573461277391
 20
373.86095792091271
 11
463.17573461277391
 21
387.90993435091264
  0
LINE
  8
_0-0_
  6
CONTINUOUS
 62
    7
 10
482.22573461277381
 20
387.90993435091264
 11
496.27526300627386
 21
387.90993435091264
  0
LINE
  8
_0-0_
  6
CONTINUOUS
 62
    7
 10
496.27526300627386
 20
387.90993435091264
 11
496.27526300627386
 21
373.86095792091271
  0
LINE
  8
_0-0_
  6
CONTINUOUS
 62
    7
 10
496.27526300627386
 20
373.86095792091271
 11
482.22573461277381
 21
373.86095792091271
  0
LINE
  8
_0-0_
  6
CONTINUOUS
 62
    7
 10
482.22573461277381
 20
373.86095792091271
 11
482.22573461277381
 21
387.90993435091264
  0
LINE
  8
_0-0_
  6
CONTINUOUS
 62
    7
 10
501.27573461277387
 20
387.90993435091264
 11
515.32526300627387
 21
387.90993435091264
  0
LINE
  8
_0-0_
  6
CONTINUOUS
 62
    7
 10
515.32526300627387
 20
387.90993435091264
 11
515.32526300627387
 21
373.86095792091271
  0
LINE
  8
_0-0_
  6
CONTINUOUS
 62
    7
 10
515.32526300627387
 20
373.86095792091271
 11
501.27573461277387
 21
373.86095792091271
  0
LINE
  8
_0-0_
  6
CONTINUOUS
 62
    7
 10
501.27573461277387
 20
373.86095792091271
 11
501.27573461277387
 21
387.90993435091264
  0
LINE
  8
_0-0_
  6
CONTINUOUS
 62
    7
 10
529.85073461277375
 20
387.90993435091264
 11
543.90026300627392
 21
387.90993435091264
  0
LINE
  8
_0-0_
  6
CONTINUOUS
 62
    7
 10
543.90026300627392
 20
387.90993435091264
 11
543.90026300627392
 21
373.86095792091271
  0
LINE
  8
_0-0_
  6
CONTINUOUS
 62
    7
 10
543.90026300627392
 20
373.86095792091271
 11
529.85073461277375
 21
373.86095792091271
  0
LINE
  8
_0-0_
  6
CONTINUOUS
 62
    7
 10
529.85073461277375
 20
373.86095792091271
 11
529.85073461277375
 21
387.90993435091264
  0
LINE
  8
_0-0_
  6
CONTINUOUS
 62
    7
 10
548.90103461277386
 20
387.90993435091264
 11
562.9505630062738
 21
387.90993435091264
  0
LINE
  8
_0-0_
  6
CONTINUOUS
 62
    7
 10
562.9505630062738
 20
387.90993435091264
 11
562.9505630062738
 21
373.86095792091271
  0
LINE
  8
_0-0_
  6
CONTINUOUS
 62
    7
 10
562.9505630062738
 20
373.86095792091271
 11
548.90103461277386
 21
373.86095792091271
  0
LINE
  8
_0-0_
  6
CONTINUOUS
 62
    7
 10
548.90103461277386
 20
373.86095792091271
 11
548.90103461277386
 21
387.90993435091264
  0
LINE
  8
_0-0_
  6
CONTINUOUS
 62
    7
 10
567.95103461277381
 20
387.90993435091264
 11
582.00056300627398
 21
387.90993435091264
  0
LINE
  8
_0-0_
  6
CONTINUOUS
 62
    7
 10
582.00056300627398
 20
387.90993435091264
 11
582.00056300627398
 21
373.86095792091271
  0
LINE
  8
_0-0_
  6
CONTINUOUS
 62
    7
 10
582.00056300627398
 20
373.86095792091271
 11
567.95103461277381
 21
373.86095792091271
  0
LINE
  8
_0-0_
  6
CONTINUOUS
 62
    7
 10
567.95103461277381
 20
373.86095792091271
 11
567.95103461277381
 21
387.90993435091264
  0
LINE
  8
_0-0_
  6
CONTINUOUS
 62
    7
 10
587.00103461277376
 20
387.90993435091264
 11
601.05056300627393
 21
387.90993435091264
  0
LINE
  8
_0-0_
  6
CONTINUOUS
 62
    7
 10
601.05056300627393
 20
387.90993435091264
 11
601.05056300627393
 21
373.86095792091271
  0
LINE
  8
_0-0_
  6
CONTINUOUS
 62
    7
 10
601.05056300627393
 20
373.86095792091271
 11
587.00103461277376
 21
373.86095792091271
  0
LINE
  8
_0-0_
  6
CONTINUOUS
 62
    7
 10
587.00103461277376
 20
373.86095792091271
 11
587.00103461277376
 21
387.90993435091264
  0
LINE
  8
_0-0_
  6
CONTINUOUS
 62
    7
 10
610.81303461277389
 20
359.33533435091272
 11
624.86256300627383
 21
359.33533435091272
  0
LINE
  8
_0-0_
  6
CONTINUOUS
 62
    7
 10
624.86256300627383
 20
359.33533435091272
 11
624.86256300627383
 21
345.28635792091279
  0
LINE
  8
_0-0_
  6
CONTINUOUS
 62
    7
 10
624.86256300627383
 20
345.28635792091279
 11
610.81303461277389
 21
345.28635792091279
  0
LINE
  8
_0-0_
  6
CONTINUOUS
 62
    7
 10
610.81303461277389
 20
345.28635792091279
 11
610.81303461277389
 21
359.33533435091272
  0
LINE
  8
_0-0_
  6
CONTINUOUS
 62
    7
 10
610.81303461277389
 20
340.28533435091265
 11
624.86256300627383
 21
340.28533435091265
  0
LINE
  8
_0-0_
  6
CONTINUOUS
 62
    7
 10
624.86256300627383
 20
340.28533435091265
 11
624.86256300627383
 21
326.23635792091272
  0
LINE
  8
_0-0_
  6
CONTINUOUS
 62
    7
 10
624.86256300627383
 20
326.23635792091272
 11
610.81303461277389
 21
326.23635792091272
  0
LINE
  8
_0-0_
  6
CONTINUOUS
 62
    7
 10
610.81303461277389
 20
326.23635792091272
 11
610.81303461277389
 21
340.28533435091265
  0
LINE
  8
_0-0_
  6
CONTINUOUS
 62
    7
 10
587.00103461277376
 20
359.33533435091272
 11
601.05056300627393
 21
359.33533435091272
  0
LINE
  8
_0-0_
  6
CONTINUOUS
 62
    7
 10
601.05056300627393
 20
359.33533435091272
 11
601.05056300627393
 21
345.28635792091279
  0
LINE
  8
_0-0_
  6
CONTINUOUS
 62
    7
 10
601.05056300627393
 20
345.28635792091279
 11
587.00103461277376
 21
345.28635792091279
  0
LINE
  8
_0-0_
  6
CONTINUOUS
 62
    7
 10
587.00103461277376
 20
345.28635792091279
 11
587.00103461277376
 21
359.33533435091272
  0
LINE
  8
_0-0_
  6
CONTINUOUS
 62
    7
 10
567.95103461277381
 20
359.33533435091272
 11
582.00056300627398
 21
359.33533435091272
  0
LINE
  8
_0-0_
  6
CONTINUOUS
 62
    7
 10
582.00056300627398
 20
359.33533435091272
 11
582.00056300627398
 21
345.28635792091279
  0
LINE
  8
_0-0_
  6
CONTINUOUS
 62
    7
 10
582.00056300627398
 20
345.28635792091279
 11
567.95103461277381
 21
345.28635792091279
  0
LINE
  8
_0-0_
  6
CONTINUOUS
 62
    7
 10
567.95103461277381
 20
345.28635792091279
 11
567.95103461277381
 21
359.33533435091272
  0
LINE
  8
_0-0_
  6
CONTINUOUS
 62
    7
 10
548.90103461277386
 20
359.33533435091272
 11
562.9505630062738
 21
359.33533435091272
  0
LINE
  8
_0-0_
  6
CONTINUOUS
 62
    7
 10
562.9505630062738
 20
359.33533435091272
 11
562.9505630062738
 21
345.28635792091279
  0
LINE
  8
_0-0_
  6
CONTINUOUS
 62
    7
 10
562.9505630062738
 20
345.28635792091279
 11
548.90103461277386
 21
345.28635792091279
  0
LINE
  8
_0-0_
  6
CONTINUOUS
 62
    7
 10
548.90103461277386
 20
345.28635792091279
 11
548.90103461277386
 21
359.33533435091272
  0
LINE
  8
_0-0_
  6
CONTINUOUS
 62
    7
 10
529.85073461277375
 20
359.33533435091272
 11
543.90026300627392
 21
359.33533435091272
  0
LINE
  8
_0-0_
  6
CONTINUOUS
 62
    7
 10
543.90026300627392
 20
359.33533435091272
 11
543.90026300627392
 21
345.28635792091279
  0
LINE
  8
_0-0_
  6
CONTINUOUS
 62
    7
 10
543.90026300627392
 20
345.28635792091279
 11
529.85073461277375
 21
345.28635792091279
  0
LINE
  8
_0-0_
  6
CONTINUOUS
 62
    7
 10
529.85073461277375
 20
345.28635792091279
 11
529.85073461277375
 21
359.33533435091272
  0
LINE
  8
_0-0_
  6
CONTINUOUS
 62
    7
 10
510.80073461277385
 20
359.33533435091272
 11
524.85026300627396
 21
359.33533435091272
  0
LINE
  8
_0-0_
  6
CONTINUOUS
 62
    7
 10
524.85026300627396
 20
359.33533435091272
 11
524.85026300627396
 21
345.28635792091279
  0
LINE
  8
_0-0_
  6
CONTINUOUS
 62
    7
 10
524.85026300627396
 20
345.28635792091279
 11
510.80073461277385
 21
345.28635792091279
  0
LINE
  8
_0-0_
  6
CONTINUOUS
 62
    7
 10
510.80073461277385
 20
345.28635792091279
 11
510.80073461277385
 21
359.33533435091272
  0
LINE
  8
_0-0_
  6
CONTINUOUS
 62
    7
 10
491.7507346127739
 20
359.33533435091272
 11
505.80026300627395
 21
359.33533435091272
  0
LINE
  8
_0-0_
  6
CONTINUOUS
 62
    7
 10
505.80026300627395
 20
359.33533435091272
 11
505.80026300627395
 21
345.28635792091279
  0
LINE
  8
_0-0_
  6
CONTINUOUS
 62
    7
 10
505.80026300627395
 20
345.28635792091279
 11
491.7507346127739
 21
345.28635792091279
  0
LINE
  8
_0-0_
  6
CONTINUOUS
 62
    7
 10
491.7507346127739
 20
345.28635792091279
 11
491.7507346127739
 21
359.33533435091272
  0
LINE
  8
_0-0_
  6
CONTINUOUS
 62
    7
 10
501.27573461277387
 20
340.28533435091265
 11
515.32526300627387
 21
340.28533435091265
  0
LINE
  8
_0-0_
  6
CONTINUOUS
 62
    7
 10
515.32526300627387
 20
340.28533435091265
 11
515.32526300627387
 21
326.23635792091272
  0
LINE
  8
_0-0_
  6
CONTINUOUS
 62
    7
 10
515.32526300627387
 20
326.23635792091272
 11
501.27573461277387
 21
326.23635792091272
  0
LINE
  8
_0-0_
  6
CONTINUOUS
 62
    7
 10
501.27573461277387
 20
326.23635792091272
 11
501.27573461277387
 21
340.28533435091265
  0
LINE
  8
_0-0_
  6
CONTINUOUS
 62
    7
 10
520.32573461277389
 20
340.28533435091265
 11
534.37526300627383
 21
340.28533435091265
  0
LINE
  8
_0-0_
  6
CONTINUOUS
 62
    7
 10
534.37526300627383
 20
340.28533435091265
 11
534.37526300627383
 21
326.23635792091272
  0
LINE
  8
_0-0_
  6
CONTINUOUS
 62
    7
 10
534.37526300627383
 20
326.23635792091272
 11
520.32573461277389
 21
326.23635792091272
  0
LINE
  8
_0-0_
  6
CONTINUOUS
 62
    7
 10
520.32573461277389
 20
326.23635792091272
 11
520.32573461277389
 21
340.28533435091265
  0
LINE
  8
_0-0_
  6
CONTINUOUS
 62
    7
 10
539.37433461277374
 20
340.28533435091265
 11
553.4238630062739
 21
340.28533435091265
  0
LINE
  8
_0-0_
  6
CONTINUOUS
 62
    7
 10
553.4238630062739
 20
340.28533435091265
 11
553.4238630062739
 21
326.23635792091272
  0
LINE
  8
_0-0_
  6
CONTINUOUS
 62
    7
 10
553.4238630062739
 20
326.23635792091272
 11
539.37433461277374
 21
326.23635792091272
  0
LINE
  8
_0-0_
  6
CONTINUOUS
 62
    7
 10
539.37433461277374
 20
326.23635792091272
 11
539.37433461277374
 21
340.28533435091265
  0
LINE
  8
_0-0_
  6
CONTINUOUS
 62
    7
 10
558.42403461277377
 20
340.28533435091265
 11
572.47356300627393
 21
340.28533435091265
  0
LINE
  8
_0-0_
  6
CONTINUOUS
 62
    7
 10
572.47356300627393
 20
340.28533435091265
 11
572.47356300627393
 21
326.23635792091272
  0
LINE
  8
_0-0_
  6
CONTINUOUS
 62
    7
 10
572.47356300627393
 20
326.23635792091272
 11
558.42403461277377
 21
326.23635792091272
  0
LINE
  8
_0-0_
  6
CONTINUOUS
 62
    7
 10
558.42403461277377
 20
326.23635792091272
 11
558.42403461277377
 21
340.28533435091265
  0
LINE
  8
_0-0_
  6
CONTINUOUS
 62
    7
 10
472.70073461277389
 20
359.33533435091272
 11
486.75026300627388
 21
359.33533435091272
  0
LINE
  8
_0-0_
  6
CONTINUOUS
 62
    7
 10
486.75026300627388
 20
359.33533435091272
 11
486.75026300627388
 21
345.28635792091279
  0
LINE
  8
_0-0_
  6
CONTINUOUS
 62
    7
 10
486.75026300627388
 20
345.28635792091279
 11
472.70073461277389
 21
345.28635792091279
  0
LINE
  8
_0-0_
  6
CONTINUOUS
 62
    7
 10
472.70073461277389
 20
345.28635792091279
 11
472.70073461277389
 21
359.33533435091272
  0
LINE
  8
_0-0_
  6
CONTINUOUS
 62
    7
 10
453.65073461277393
 20
359.33533435091272
 11
467.70026300627387
 21
359.33533435091272
  0
LINE
  8
_0-0_
  6
CONTINUOUS
 62
    7
 10
467.70026300627387
 20
359.33533435091272
 11
467.70026300627387
 21
345.28635792091279
  0
LINE
  8
_0-0_
  6
CONTINUOUS
 62
    7
 10
467.70026300627387
 20
345.28635792091279
 11
453.65073461277393
 21
345.28635792091279
  0
LINE
  8
_0-0_
  6
CONTINUOUS
 62
    7
 10
453.65073461277393
 20
345.28635792091279
 11
453.65073461277393
 21
359.33533435091272
  0
LINE
  8
_0-0_
  6
CONTINUOUS
 62
    7
 10
444.12568461277385
 20
340.28533435091265
 11
458.17521300627379
 21
340.28533435091265
  0
LINE
  8
_0-0_
  6
CONTINUOUS
 62
    7
 10
458.17521300627379
 20
340.28533435091265
 11
458.17521300627379
 21
326.23635792091272
  0
LINE
  8
_0-0_
  6
CONTINUOUS
 62
    7
 10
458.17521300627379
 20
326.23635792091272
 11
444.12568461277385
 21
326.23635792091272
  0
LINE
  8
_0-0_
  6
CONTINUOUS
 62
    7
 10
444.12568461277385
 20
326.23635792091272
 11
444.12568461277385
 21
340.28533435091265
  0
LINE
  8
_0-0_
  6
CONTINUOUS
 62
    7
 10
463.17573461277391
 20
340.28533435091265
 11
477.22526300627391
 21
340.28533435091265
  0
LINE
  8
_0-0_
  6
CONTINUOUS
 62
    7
 10
477.22526300627391
 20
340.28533435091265
 11
477.22526300627391
 21
326.23635792091272
  0
LINE
  8
_0-0_
  6
CONTINUOUS
 62
    7
 10
477.22526300627391
 20
326.23635792091272
 11
463.17573461277391
 21
326.23635792091272
  0
LINE
  8
_0-0_
  6
CONTINUOUS
 62
    7
 10
463.17573461277391
 20
326.23635792091272
 11
463.17573461277391
 21
340.28533435091265
  0
LINE
  8
_0-0_
  6
CONTINUOUS
 62
    7
 10
482.22573461277381
 20
340.28533435091265
 11
496.27526300627386
 21
340.28533435091265
  0
LINE
  8
_0-0_
  6
CONTINUOUS
 62
    7
 10
496.27526300627386
 20
340.28533435091265
 11
496.27526300627386
 21
326.23635792091272
  0
LINE
  8
_0-0_
  6
CONTINUOUS
 62
    7
 10
496.27526300627386
 20
326.23635792091272
 11
482.22573461277381
 21
326.23635792091272
  0
LINE
  8
_0-0_
  6
CONTINUOUS
 62
    7
 10
482.22573461277381
 20
326.23635792091272
 11
482.22573461277381
 21
340.28533435091265
  0
LINE
  8
_0-0_
  6
CONTINUOUS
 62
    7
 10
506.03824461277389
 20
321.23533435091269
 11
520.08777300627389
 21
321.23533435091269
  0
LINE
  8
_0-0_
  6
CONTINUOUS
 62
    7
 10
520.08777300627389
 20
321.23533435091269
 11
520.08777300627389
 21
307.18635792091277
  0
LINE
  8
_0-0_
  6
CONTINUOUS
 62
    7
 10
520.08777300627389
 20
307.18635792091277
 11
506.03824461277389
 21
307.18635792091277
  0
LINE
  8
_0-0_
  6
CONTINUOUS
 62
    7
 10
506.03824461277389
 20
307.18635792091277
 11
506.03824461277389
 21
321.23533435091269
  0
LINE
  8
_0-0_
  6
CONTINUOUS
 62
    7
 10
525.08824461277391
 20
321.23533435091269
 11
539.13777300627385
 21
321.23533435091269
  0
LINE
  8
_0-0_
  6
CONTINUOUS
 62
    7
 10
539.13777300627385
 20
321.23533435091269
 11
539.13777300627385
 21
307.18635792091277
  0
LINE
  8
_0-0_
  6
CONTINUOUS
 62
    7
 10
539.13777300627385
 20
307.18635792091277
 11
525.08824461277391
 21
307.18635792091277
  0
LINE
  8
_0-0_
  6
CONTINUOUS
 62
    7
 10
525.08824461277391
 20
307.18635792091277
 11
525.08824461277391
 21
321.23533435091269
  0
LINE
  8
_0-0_
  6
CONTINUOUS
 62
    7
 10
544.13684461277376
 20
321.23533435091269
 11
558.18637300627393
 21
321.23533435091269
  0
LINE
  8
_0-0_
  6
CONTINUOUS
 62
    7
 10
558.18637300627393
 20
321.23533435091269
 11
558.18637300627393
 21
307.18635792091277
  0
LINE
  8
_0-0_
  6
CONTINUOUS
 62
    7
 10
558.18637300627393
 20
307.18635792091277
 11
544.13684461277376
 21
307.18635792091277
  0
LINE
  8
_0-0_
  6
CONTINUOUS
 62
    7
 10
544.13684461277376
 20
307.18635792091277
 11
544.13684461277376
 21
321.23533435091269
  0
LINE
  8
_0-0_
  6
CONTINUOUS
 62
    7
 10
563.18654461277379
 20
321.23533435091269
 11
577.23607300627395
 21
321.23533435091269
  0
LINE
  8
_0-0_
  6
CONTINUOUS
 62
    7
 10
577.23607300627395
 20
321.23533435091269
 11
577.23607300627395
 21
307.18635792091277
  0
LINE
  8
_0-0_
  6
CONTINUOUS
 62
    7
 10
577.23607300627395
 20
307.18635792091277
 11
563.18654461277379
 21
307.18635792091277
  0
LINE
  8
_0-0_
  6
CONTINUOUS
 62
    7
 10
563.18654461277379
 20
307.18635792091277
 11
563.18654461277379
 21
321.23533435091269
  0
LINE
  8
_0-0_
  6
CONTINUOUS
 62
    7
 10
448.88819461277387
 20
321.23533435091269
 11
462.93772300627381
 21
321.23533435091269
  0
LINE
  8
_0-0_
  6
CONTINUOUS
 62
    7
 10
462.93772300627381
 20
321.23533435091269
 11
462.93772300627381
 21
307.18635792091277
  0
LINE
  8
_0-0_
  6
CONTINUOUS
 62
    7
 10
462.93772300627381
 20
307.18635792091277
 11
448.88819461277387
 21
307.18635792091277
  0
LINE
  8
_0-0_
  6
CONTINUOUS
 62
    7
 10
448.88819461277387
 20
307.18635792091277
 11
448.88819461277387
 21
321.23533435091269
  0
LINE
  8
_0-0_
  6
CONTINUOUS
 62
    7
 10
467.93824461277393
 20
321.23533435091269
 11
481.98777300627393
 21
321.23533435091269
  0
LINE
  8
_0-0_
  6
CONTINUOUS
 62
    7
 10
481.98777300627393
 20
321.23533435091269
 11
481.98777300627393
 21
307.18635792091277
  0
LINE
  8
_0-0_
  6
CONTINUOUS
 62
    7
 10
481.98777300627393
 20
307.18635792091277
 11
467.93824461277393
 21
307.18635792091277
  0
LINE
  8
_0-0_
  6
CONTINUOUS
 62
    7
 10
467.93824461277393
 20
307.18635792091277
 11
467.93824461277393
 21
321.23533435091269
  0
LINE
  8
_0-0_
  6
CONTINUOUS
 62
    7
 10
486.98824461277383
 20
321.23533435091269
 11
501.03777300627388
 21
321.23533435091269
  0
LINE
  8
_0-0_
  6
CONTINUOUS
 62
    7
 10
501.03777300627388
 20
321.23533435091269
 11
501.03777300627388
 21
307.18635792091277
  0
LINE
  8
_0-0_
  6
CONTINUOUS
 62
    7
 10
501.03777300627388
 20
307.18635792091277
 11
486.98824461277383
 21
307.18635792091277
  0
LINE
  8
_0-0_
  6
CONTINUOUS
 62
    7
 10
486.98824461277383
 20
307.18635792091277
 11
486.98824461277383
 21
321.23533435091269
  0
LINE
  8
_0-0_
  6
CONTINUOUS
 62
    7
 10
515.56328461277394
 20
302.18533435091274
 11
529.61281300627388
 21
302.18533435091274
  0
LINE
  8
_0-0_
  6
CONTINUOUS
 62
    7
 10
529.61281300627388
 20
302.18533435091274
 11
529.61281300627388
 21
288.13635792091281
  0
LINE
  8
_0-0_
  6
CONTINUOUS
 62
    7
 10
529.61281300627388
 20
288.13635792091281
 11
515.56328461277394
 21
288.13635792091281
  0
LINE
  8
_0-0_
  6
CONTINUOUS
 62
    7
 10
515.56328461277394
 20
288.13635792091281
 11
515.56328461277394
 21
302.18533435091274
  0
LINE
  8
_0-0_
  6
CONTINUOUS
 62
    7
 10
534.6132846127739
 20
302.18533435091274
 11
548.66281300627384
 21
302.18533435091274
  0
LINE
  8
_0-0_
  6
CONTINUOUS
 62
    7
 10
548.66281300627384
 20
302.18533435091274
 11
548.66281300627384
 21
288.13635792091281
  0
LINE
  8
_0-0_
  6
CONTINUOUS
 62
    7
 10
548.66281300627384
 20
288.13635792091281
 11
534.6132846127739
 21
288.13635792091281
  0
LINE
  8
_0-0_
  6
CONTINUOUS
 62
    7
 10
534.6132846127739
 20
288.13635792091281
 11
534.6132846127739
 21
302.18533435091274
  0
LINE
  8
_0-0_
  6
CONTINUOUS
 62
    7
 10
553.66188461277375
 20
302.18533435091274
 11
567.71141300627392
 21
302.18533435091274
  0
LINE
  8
_0-0_
  6
CONTINUOUS
 62
    7
 10
567.71141300627392
 20
302.18533435091274
 11
567.71141300627392
 21
288.13635792091281
  0
LINE
  8
_0-0_
  6
CONTINUOUS
 62
    7
 10
567.71141300627392
 20
288.13635792091281
 11
553.66188461277375
 21
288.13635792091281
  0
LINE
  8
_0-0_
  6
CONTINUOUS
 62
    7
 10
553.66188461277375
 20
288.13635792091281
 11
553.66188461277375
 21
302.18533435091274
  0
LINE
  8
_0-0_
  6
CONTINUOUS
 62
    7
 10
458.41323461277386
 20
302.18533435091274
 11
472.4627630062738
 21
302.18533435091274
  0
LINE
  8
_0-0_
  6
CONTINUOUS
 62
    7
 10
472.4627630062738
 20
302.18533435091274
 11
472.4627630062738
 21
288.13635792091281
  0
LINE
  8
_0-0_
  6
CONTINUOUS
 62
    7
 10
472.4627630062738
 20
288.13635792091281
 11
458.41323461277386
 21
288.13635792091281
  0
LINE
  8
_0-0_
  6
CONTINUOUS
 62
    7
 10
458.41323461277386
 20
288.13635792091281
 11
458.41323461277386
 21
302.18533435091274
  0
LINE
  8
_0-0_
  6
CONTINUOUS
 62
    7
 10
477.46328461277386
 20
302.18533435091274
 11
491.51281300627392
 21
302.18533435091274
  0
LINE
  8
_0-0_
  6
CONTINUOUS
 62
    7
 10
491.51281300627392
 20
302.18533435091274
 11
491.51281300627392
 21
288.13635792091281
  0
LINE
  8
_0-0_
  6
CONTINUOUS
 62
    7
 10
491.51281300627392
 20
288.13635792091281
 11
477.46328461277386
 21
288.13635792091281
  0
LINE
  8
_0-0_
  6
CONTINUOUS
 62
    7
 10
477.46328461277386
 20
288.13635792091281
 11
477.46328461277386
 21
302.18533435091274
  0
LINE
  8
_0-0_
  6
CONTINUOUS
 62
    7
 10
496.51328461277382
 20
302.18533435091274
 11
510.56281300627387
 21
302.18533435091274
  0
LINE
  8
_0-0_
  6
CONTINUOUS
 62
    7
 10
510.56281300627387
 20
302.18533435091274
 11
510.56281300627387
 21
288.13635792091281
  0
LINE
  8
_0-0_
  6
CONTINUOUS
 62
    7
 10
510.56281300627387
 20
288.13635792091281
 11
496.51328461277382
 21
288.13635792091281
  0
LINE
  8
_0-0_
  6
CONTINUOUS
 62
    7
 10
496.51328461277382
 20
288.13635792091281
 11
496.51328461277382
 21
302.18533435091274
  0
LINE
  8
_0-0_
  6
CONTINUOUS
 62
    7
 10
544.13828461277399
 20
283.13543435091265
 11
558.18781300627393
 21
283.13543435091265
  0
LINE
  8
_0-0_
  6
CONTINUOUS
 62
    7
 10
558.18781300627393
 20
283.13543435091265
 11
558.18781300627393
 21
269.08645792091272
  0
LINE
  8
_0-0_
  6
CONTINUOUS
 62
    7
 10
558.18781300627393
 20
269.08645792091272
 11
544.13828461277399
 21
269.08645792091272
  0
LINE
  8
_0-0_
  6
CONTINUOUS
 62
    7
 10
544.13828461277399
 20
269.08645792091272
 11
544.13828461277399
 21
283.13543435091265
  0
LINE
  8
_0-0_
  6
CONTINUOUS
 62
    7
 10
563.18828461277394
 20
283.13543435091265
 11
577.23781300627388
 21
283.13543435091265
  0
LINE
  8
_0-0_
  6
CONTINUOUS
 62
    7
 10
577.23781300627388
 20
283.13543435091265
 11
577.23781300627388
 21
269.08645792091272
  0
LINE
  8
_0-0_
  6
CONTINUOUS
 62
    7
 10
577.23781300627388
 20
269.08645792091272
 11
563.18828461277394
 21
269.08645792091272
  0
LINE
  8
_0-0_
  6
CONTINUOUS
 62
    7
 10
563.18828461277394
 20
269.08645792091272
 11
563.18828461277394
 21
283.13543435091265
  0
LINE
  8
_0-0_
  6
CONTINUOUS
 62
    7
 10
486.98823461277385
 20
283.13543435091265
 11
501.03776300627391
 21
283.13543435091265
  0
LINE
  8
_0-0_
  6
CONTINUOUS
 62
    7
 10
501.03776300627391
 20
283.13543435091265
 11
501.03776300627391
 21
269.08645792091272
  0
LINE
  8
_0-0_
  6
CONTINUOUS
 62
    7
 10
501.03776300627391
 20
269.08645792091272
 11
486.98823461277385
 21
269.08645792091272
  0
LINE
  8
_0-0_
  6
CONTINUOUS
 62
    7
 10
486.98823461277385
 20
269.08645792091272
 11
486.98823461277385
 21
283.13543435091265
  0
LINE
  8
_0-0_
  6
CONTINUOUS
 62
    7
 10
506.03828461277391
 20
283.13543435091265
 11
520.08781300627402
 21
283.13543435091265
  0
LINE
  8
_0-0_
  6
CONTINUOUS
 62
    7
 10
520.08781300627402
 20
283.13543435091265
 11
520.08781300627402
 21
269.08645792091272
  0
LINE
  8
_0-0_
  6
CONTINUOUS
 62
    7
 10
520.08781300627402
 20
269.08645792091272
 11
506.03828461277391
 21
269.08645792091272
  0
LINE
  8
_0-0_
  6
CONTINUOUS
 62
    7
 10
506.03828461277391
 20
269.08645792091272
 11
506.03828461277391
 21
283.13543435091265
  0
LINE
  8
_0-0_
  6
CONTINUOUS
 62
    7
 10
525.0882846127738
 20
283.13543435091265
 11
539.13781300627397
 21
283.13543435091265
  0
LINE
  8
_0-0_
  6
CONTINUOUS
 62
    7
 10
539.13781300627397
 20
283.13543435091265
 11
539.13781300627397
 21
269.08645792091272
  0
LINE
  8
_0-0_
  6
CONTINUOUS
 62
    7
 10
539.13781300627397
 20
269.08645792091272
 11
525.0882846127738
 21
269.08645792091272
  0
LINE
  8
_0-0_
  6
CONTINUOUS
 62
    7
 10
525.0882846127738
 20
269.08645792091272
 11
525.0882846127738
 21
283.13543435091265
  0
LINE
  8
_0-0_
  6
CONTINUOUS
 62
    7
 10
465.55693461277394
 20
283.13543435091265
 11
479.60646300627394
 21
283.13543435091265
  0
LINE
  8
_0-0_
  6
CONTINUOUS
 62
    7
 10
479.60646300627394
 20
283.13543435091265
 11
479.60646300627394
 21
269.08645792091272
  0
LINE
  8
_0-0_
  6
CONTINUOUS
 62
    7
 10
479.60646300627394
 20
269.08645792091272
 11
465.55693461277394
 21
269.08645792091272
  0
LINE
  8
_0-0_
  6
CONTINUOUS
 62
    7
 10
465.55693461277394
 20
269.08645792091272
 11
465.55693461277394
 21
283.13543435091265
  0
LINE
  8
_0-0_
  6
CONTINUOUS
 62
    7
 10
584.61803461277395
 20
283.13543435091265
 11
598.66756300627389
 21
283.13543435091265
  0
LINE
  8
_0-0_
  6
CONTINUOUS
 62
    7
 10
598.66756300627389
 20
283.13543435091265
 11
598.66756300627389
 21
269.08645792091272
  0
LINE
  8
_0-0_
  6
CONTINUOUS
 62
    7
 10
598.66756300627389
 20
269.08645792091272
 11
584.61803461277395
 21
269.08645792091272
  0
LINE
  8
_0-0_
  6
CONTINUOUS
 62
    7
 10
584.61803461277395
 20
269.08645792091272
 11
584.61803461277395
 21
283.13543435091265
  0
LINE
  8
_0-0_
  6
CONTINUOUS
 62
    7
 10
579.85703461277399
 20
302.18533435091274
 11
593.90656300627393
 21
302.18533435091274
  0
LINE
  8
_0-0_
  6
CONTINUOUS
 62
    7
 10
593.90656300627393
 20
302.18533435091274
 11
593.90656300627393
 21
288.13635792091281
  0
LINE
  8
_0-0_
  6
CONTINUOUS
 62
    7
 10
593.90656300627393
 20
288.13635792091281
 11
579.85703461277399
 21
288.13635792091281
  0
LINE
  8
_0-0_
  6
CONTINUOUS
 62
    7
 10
579.85703461277399
 20
288.13635792091281
 11
579.85703461277399
 21
302.18533435091274
  0
LINE
  8
_0-0_
  6
CONTINUOUS
 62
    7
 10
598.66836300627392
 20
330.76033435091273
 11
598.66836300627392
 21
316.7113579209128
  0
LINE
  8
_0-0_
  6
CONTINUOUS
 62
    7
 10
584.61883461277387
 20
316.7113579209128
 11
584.61883461277387
 21
330.76033435091273
  0
LINE
  8
_0-0_
  6
CONTINUOUS
 62
    7
 10
610.81303461277389
 20
321.23533435091269
 11
624.86256300627383
 21
321.23533435091269
  0
LINE
  8
_0-0_
  6
CONTINUOUS
 62
    7
 10
624.86256300627383
 20
321.23533435091269
 11
624.86256300627383
 21
307.18635792091277
  0
LINE
  8
_0-0_
  6
CONTINUOUS
 62
    7
 10
624.86256300627383
 20
307.18635792091277
 11
610.81303461277389
 21
307.18635792091277
  0
LINE
  8
_0-0_
  6
CONTINUOUS
 62
    7
 10
610.81303461277389
 20
307.18635792091277
 11
610.81303461277389
 21
321.23533435091269
  0
LINE
  8
_0-0_
  6
CONTINUOUS
 62
    7
 10
610.81303461277389
 20
302.18533435091274
 11
624.86256300627383
 21
302.18533435091274
  0
LINE
  8
_0-0_
  6
CONTINUOUS
 62
    7
 10
624.86256300627383
 20
302.18533435091274
 11
624.86256300627383
 21
288.13635792091281
  0
LINE
  8
_0-0_
  6
CONTINUOUS
 62
    7
 10
624.86256300627383
 20
288.13635792091281
 11
610.81303461277389
 21
288.13635792091281
  0
LINE
  8
_0-0_
  6
CONTINUOUS
 62
    7
 10
610.81303461277389
 20
288.13635792091281
 11
610.81303461277389
 21
302.18533435091274
  0
LINE
  8
_0-0_
  6
CONTINUOUS
 62
    7
 10
610.81303461277389
 20
283.13543435091265
 11
624.86256300627383
 21
283.13543435091265
  0
LINE
  8
_0-0_
  6
CONTINUOUS
 62
    7
 10
624.86256300627383
 20
283.13543435091265
 11
624.86256300627383
 21
269.08645792091272
  0
LINE
  8
_0-0_
  6
CONTINUOUS
 62
    7
 10
624.86256300627383
 20
269.08645792091272
 11
610.81303461277389
 21
269.08645792091272
  0
LINE
  8
_0-0_
  6
CONTINUOUS
 62
    7
 10
610.81303461277389
 20
269.08645792091272
 11
610.81303461277389
 21
283.13543435091265
  0
LINE
  8
_0-0_
  6
CONTINUOUS
 62
    7
 10
584.61883461277387
 20
330.76033435091273
 11
589.34282380952391
 21
330.76033435091273
  0
LINE
  8
_0-0_
  6
CONTINUOUS
 62
    7
 10
593.94272380952384
 20
330.76033435091273
 11
598.66836300627392
 21
330.76033435091273
  0
LINE
  8
_0-0_
  6
CONTINUOUS
 62
    7
 10
598.66836300627392
 20
316.7113579209128
 11
593.94272380952384
 21
316.7113579209128
  0
CIRCLE
  8
_0-0_
  6
CONTINUOUS
 62
    7
 10
282.37287380952387
 20
390.41044613591271
 40
1
  0
CIRCLE
  8
_0-0_
  6
CONTINUOUS
 62
    7
 10
618.45302380952387
 20
390.41044613591276
 40
1
  0
ENDSEC
  0
EOF
