  0
SECTION
  2
HEADER
  9
$ACADVER
  1
AC1009
  9
$INSBASE
 10
0
 20
0
 30
0
  9
$EXTMIN
 10
0
 20
0
  9
$EXTMAX
 10
841
 20
594
  9
$LIMMIN
 10
0
 20
0
  9
$LIMMAX
 10
841
 20
594
  9
$LTSCALE
 40
1
  0
ENDSEC
  0
SECTION
  2
TABLES
  0
TABLE
  2
LTYPE
 70
     9
  0
LTYPE
  2
CONTINUOUS
 70
    64
  3
実線
 72
    65
 73
     0
 40
0.0
  0
LTYPE
  2
DASHED1
 70
    64
  3
--  --  --  --  --  --  --  --  
 72
    65
 73
     2
 40
2.5
 49
1.25
 49
-1.25
  0
LTYPE
  2
DASHED2
 70
    64
  3
----    ----    ----    ----    
 72
    65
 73
     2
 40
5.0
 49
2.5
 49
-2.5
  0
LTYPE
  2
DASHED3
 70
    64
  3
------  ------  ------  ------  
 72
    65
 73
     2
 40
5.0
 49
3.75
 49
-1.25
  0
LTYPE
  2
CENTER1
 70
    64
  3
----- - ----- - ----- - ----- - 
 72
    65
 73
     4
 40
10.0
 49
6.25
 49
-1.25
 49
1.25
 49
-1.25
  0
LTYPE
  2
CENTER2
 70
    64
  3
----------  --  ----------  --  
 72
    65
 73
     4
 40
20.0
 49
12.5
 49
-2.5
 49
2.5
 49
-2.5
  0
LTYPE
  2
PHANTOM1
 70
    64
  3
--- - - --- - - --- - - --- - - 
 72
    65
 73
     6
 40
10.0
 49
3.25
 49
-1.25
 49
1.25
 49
-1.25
 49
1.25
 49
-1.25
  0
LTYPE
  2
PHANTOM2
 70
    64
  3
--------  -  -  --------  -  -  
 72
    65
 73
     6
 40
20.0
 49
10.0
 49
-2.5
 49
1.25
 49
-2.5
 49
1.25
 49
-2.5
  0
LTYPE
  2
DOT
 70
    64
  3
-   -   -   -   -   -   -   -   
 72
    65
 73
     2
 40
2.5
 49
0.625
 49
-1.875
  0
LTYPE
  2
DUMMY
 70
    64
  3
ダミー
 72
    65
 73
     0
 40
0.0
  0
LTYPE
  2
RAND1
 70
    64
  3
ランダム線1
 72
    65
 73
     4
 40
10.0
 49
1.0
 49
-2.0
 49
3.0
 49
-4.0
  0
LTYPE
  2
RAND2
 70
    64
  3
ランダム線2
 72
    65
 73
     4
 40
14.0
 49
2.0
 49
-3.0
 49
4.0
 49
-5.0
  0
LTYPE
  2
RAND3
 70
    64
  3
ランダム線3
 72
    65
 73
     4
 40
18.0
 49
3.0
 49
-4.0
 49
5.0
 49
-6.0
  0
LTYPE
  2
RAND4
 70
    64
  3
ランダム線4
 72
    65
 73
     4
 40
22.0
 49
4.0
 49
-5.0
 49
6.0
 49
-7.0
  0
LTYPE
  2
RAND5
 70
    64
  3
ランダム線5
 72
    65
 73
     4
 40
26.0
 49
5.0
 49
-6.0
 49
7.0
 49
-8.0
  0
LTYPE
  2
LONG1
 70
    64
  3
----------  --  ----------  --  
 72
    65
 73
     4
 40
40.0
 49
32.5
 49
-2.5
 49
2.5
 49
-2.5
  0
LTYPE
  2
LONG2
 70
    64
  3
--------  -  -  --------  -  -  
 72
    65
 73
     6
 40
40.0
 49
30.0
 49
-2.5
 49
1.25
 49
-2.5
 49
1.25
 49
-2.5
  0
LTYPE
  2
LONG3
 70
    64
  3
+++++++++++++++..+++++++++++++++
 72
    65
 73
     2
 40
40.0
 49
37.5
 49
-2.5
  0
LTYPE
  2
LONG4
 70
    64
  3
+++++++++++++++..+++++++++++++++
 72
    65
 73
     2
 40
80.0
 49
75.0
 49
-5.0
  0
LTYPE
  2
LONG5
 70
    64
  3
----------  --  ----------  --  
 72
    65
 73
     4
 40
60.0
 49
37.5
 49
-7.5
 49
7.5
 49
-7.5
  0
LTYPE
  2
dashed
 70
   64
  3
-------   -------------   ------
 72
   65
 73
    2
 40
7.5
 49
6
 49
-1.5
  0
LTYPE
  2
dashed_spaced
 70
   64
  3
----        --------        ----
 72
   65
 73
    2
 40
12
 49
6
 49
-6
  0
LTYPE
  2
long_dashed_dotted
 70
   64
  3
------------- --- --------------
 72
   65
 73
    4
 40
15.25
 49
12
 49
-1.5
 49
0.25
 49
-1.5
  0
LTYPE
  2
long_dashed_double-dotted
 70
   64
  3
----------- --- --- ------------
 72
   65
 73
    6
 40
17
 49
12
 49
-1.5
 49
0.25
 49
-1.5
 49
0.25
 49
-1.5
  0
LTYPE
  2
long_dashed_triplicate-dotted
 70
   64
  3
--------- --- --- --- ----------
 72
   65
 73
    8
 40
18.75
 49
12
 49
-1.5
 49
0.25
 49
-1.5
 49
0.25
 49
-1.5
 49
0.25
 49
-1.5
  0
LTYPE
  2
dotted
 70
   64
  3
   -       -       -       -    
 72
   65
 73
    2
 40
1.75
 49
0.25
 49
-1.5
  0
LTYPE
  2
chain
 70
   64
  3
-------------- -- --------------
 72
   65
 73
    4
 40
18.5
 49
12
 49
-1.5
 49
3.5
 49
-1.5
  0
LTYPE
  2
chain_double_dash
 70
   64
  3
------------ -- -- -------------
 72
   65
 73
    6
 40
23.5
 49
12
 49
-1.5
 49
3.5
 49
-1.5
 49
3.5
 49
-1.5
  0
LTYPE
  2
dashed_dotted
 70
   64
  3
-----------     -     ----------
 72
   65
 73
    4
 40
9.25
 49
6
 49
-1.5
 49
0.25
 49
-1.5
  0
LTYPE
  2
double-dashed_dotted
 70
   64
  3
------   -----------   -   -----
 72
   65
 73
    6
 40
16.75
 49
6
 49
-1.5
 49
6
 49
-1.5
 49
0.25
 49
-1.5
  0
LTYPE
  2
dashed_double-dotted
 70
   64
  3
---------    -    -    ---------
 72
   65
 73
    6
 40
11
 49
6
 49
-1.5
 49
0.25
 49
-1.5
 49
0.25
 49
-1.5
  0
LTYPE
  2
double-dashed_double-dotted
 70
   64
  3
-----   ---------   -   -   ----
 72
   65
 73
    8
 40
18.5
 49
6
 49
-1.5
 49
6
 49
-1.5
 49
0.25
 49
-1.5
 49
0.25
 49
-1.5
  0
LTYPE
  2
dashed_triplicate-dotted
 70
   64
  3
-------    -    -    -    ------
 72
   65
 73
    8
 40
12.75
 49
6
 49
-1.5
 49
0.25
 49
-1.5
 49
0.25
 49
-1.5
 49
0.25
 49
-1.5
  0
LTYPE
  2
double-dashed_triplicate-dotted
 70
   64
  3
-----  ---------  -  -  -  -----
 72
   65
 73
   10
 40
20.25
 49
6
 49
-1.5
 49
6
 49
-1.5
 49
0.25
 49
-1.5
 49
0.25
 49
-1.5
 49
0.25
 49
-1.5
  0
LTYPE
  2
undefined
 70
   64
  3
--------------------------------
 72
   65
 73
    0
 40
0
  0
LTYPE
  2
_
 70
   64
  3
                                
 72
   65
 73
    0
 40
0
  0
LTYPE
  2
__18
 70
   64
  3
                                
 72
   65
 73
    0
 40
0
  0
LTYPE
  2
__19
 70
   64
  3
                                
 72
   65
 73
    0
 40
0
  0
LTYPE
  2
__20
 70
   64
  3
                                
 72
   65
 73
    0
 40
0
  0
LTYPE
  2
__21
 70
   64
  3
                                
 72
   65
 73
    0
 40
0
  0
LTYPE
  2
__22
 70
   64
  3
                                
 72
   65
 73
    0
 40
0
  0
LTYPE
  2
__23
 70
   64
  3
                                
 72
   65
 73
    0
 40
0
  0
LTYPE
  2
__24
 70
   64
  3
                                
 72
   65
 73
    0
 40
0
  0
LTYPE
  2
__25
 70
   64
  3
                                
 72
   65
 73
    0
 40
0
  0
LTYPE
  2
__26
 70
   64
  3
                                
 72
   65
 73
    0
 40
0
  0
LTYPE
  2
__27
 70
   64
  3
                                
 72
   65
 73
    0
 40
0
  0
LTYPE
  2
__28
 70
   64
  3
                                
 72
   65
 73
    0
 40
0
  0
LTYPE
  2
__29
 70
   64
  3
                                
 72
   65
 73
    0
 40
0
  0
LTYPE
  2
__30
 70
   64
  3
                                
 72
   65
 73
    0
 40
0
  0
LTYPE
  2
__31
 70
   64
  3
                                
 72
   65
 73
    0
 40
0
  0
LTYPE
  2
__32
 70
   64
  3
                                
 72
   65
 73
    0
 40
0
  0
ENDTAB
  0
TABLE
  2
STYLE
  5
3
100
AcDbSymbolTable
 70
     1
  0
STYLE
  5
10
100
AcDbSymbolTableRecord
100
AcDbTextStyleTableRecord
  2
STANDARD
 70
     0
 40
0.0
 41
1.0
 50
0.0
 71
     0
 42
0.2
  3
txt
  4
bigfont.shx
  0
STYLE
  5
26
100
AcDbSymbolTableRecord
100
AcDbTextStyleTableRecord
  2
TATEGAKI
 70
    68
 40
0.0
 41
1.0
 50
0.0
 71
     0
 42
1.0
  3
txt
  4
bigfont.shx
  0
ENDTAB
  0
TABLE
  2
LAYER
 70
    2
  0
LAYER
  2
_0-0_
 70
   64
 62
    7
  6
CONTINUOUS
  0
LAYER
  2
ADD_LINE
 70
   64
 62
    7
  6
CONTINUOUS
  0
ENDTAB
  0
ENDSEC
  0
SECTION
  2
BLOCKS
  0
ENDSEC
  0
SECTION
  2
ENTITIES
  0
LINE
  8
_0-0_
  6
CONTINUOUS
 62
    7
 10
292.55912213187128
 20
256.59912917560223
 11
306.56012213187125
 21
256.59912917560223
  0
LINE
  8
_0-0_
  6
CONTINUOUS
 62
    7
 10
306.56012213187125
 20
256.59912917560223
 11
306.56012213187125
 21
242.59965917560228
  0
LINE
  8
_0-0_
  6
CONTINUOUS
 62
    7
 10
306.56012213187125
 20
242.59965917560228
 11
292.55912213187128
 21
242.59965917560228
  0
LINE
  8
_0-0_
  6
CONTINUOUS
 62
    7
 10
292.55912213187128
 20
242.59965917560228
 11
292.55912213187128
 21
256.59912917560223
  0
LINE
  8
_0-0_
  6
CONTINUOUS
 62
    7
 10
271.12912213187127
 20
256.59912917560223
 11
285.12912213187127
 21
256.59912917560223
  0
LINE
  8
_0-0_
  6
CONTINUOUS
 62
    7
 10
285.12912213187127
 20
256.59912917560223
 11
285.12912213187127
 21
242.59965917560228
  0
LINE
  8
_0-0_
  6
CONTINUOUS
 62
    7
 10
285.12912213187127
 20
242.59965917560228
 11
271.12912213187127
 21
242.59965917560228
  0
LINE
  8
_0-0_
  6
CONTINUOUS
 62
    7
 10
271.12912213187127
 20
242.59965917560228
 11
271.12912213187127
 21
256.59912917560223
  0
LINE
  8
_0-0_
  6
CONTINUOUS
 62
    7
 10
252.07932213187132
 20
256.59912917560223
 11
266.07912213187126
 21
256.59912917560223
  0
LINE
  8
_0-0_
  6
CONTINUOUS
 62
    7
 10
266.07912213187126
 20
256.59912917560223
 11
266.07912213187126
 21
242.59965917560228
  0
LINE
  8
_0-0_
  6
CONTINUOUS
 62
    7
 10
266.07912213187126
 20
242.59965917560228
 11
252.07932213187132
 21
242.59965917560228
  0
LINE
  8
_0-0_
  6
CONTINUOUS
 62
    7
 10
252.07932213187132
 20
242.59965917560228
 11
252.07932213187132
 21
256.59912917560223
  0
LINE
  8
_0-0_
  6
CONTINUOUS
 62
    7
 10
230.64812213187128
 20
256.59912917560223
 11
244.64742213187128
 21
256.59912917560223
  0
LINE
  8
_0-0_
  6
CONTINUOUS
 62
    7
 10
244.64742213187128
 20
256.59912917560223
 11
244.64742213187128
 21
242.59965917560228
  0
LINE
  8
_0-0_
  6
CONTINUOUS
 62
    7
 10
244.64742213187128
 20
242.59965917560228
 11
230.64812213187128
 21
242.59965917560228
  0
LINE
  8
_0-0_
  6
CONTINUOUS
 62
    7
 10
230.64812213187128
 20
242.59965917560228
 11
230.64812213187128
 21
256.59912917560223
  0
LINE
  8
_0-0_
  6
CONTINUOUS
 62
    7
 10
209.21682213187131
 20
256.59912917560223
 11
223.21612213187132
 21
256.59912917560223
  0
LINE
  8
_0-0_
  6
CONTINUOUS
 62
    7
 10
223.21612213187132
 20
256.59912917560223
 11
223.21612213187132
 21
242.59965917560228
  0
LINE
  8
_0-0_
  6
CONTINUOUS
 62
    7
 10
223.21612213187132
 20
242.59965917560228
 11
209.21682213187131
 21
242.59965917560228
  0
LINE
  8
_0-0_
  6
CONTINUOUS
 62
    7
 10
209.21682213187131
 20
242.59965917560228
 11
209.21682213187131
 21
256.59912917560223
  0
LINE
  8
_0-0_
  6
CONTINUOUS
 62
    7
 10
187.7841221318713
 20
256.59912917560223
 11
201.78492213187127
 21
256.59912917560223
  0
LINE
  8
_0-0_
  6
CONTINUOUS
 62
    7
 10
201.78492213187127
 20
256.59912917560223
 11
201.78492213187127
 21
242.59965917560228
  0
LINE
  8
_0-0_
  6
CONTINUOUS
 62
    7
 10
201.78492213187127
 20
242.59965917560228
 11
187.7841221318713
 21
242.59965917560228
  0
LINE
  8
_0-0_
  6
CONTINUOUS
 62
    7
 10
187.7841221318713
 20
242.59965917560228
 11
187.7841221318713
 21
256.59912917560223
  0
LINE
  8
_0-0_
  6
CONTINUOUS
 62
    7
 10
161.59177213187127
 20
256.59912917560223
 11
175.59132213187127
 21
256.59912917560223
  0
LINE
  8
_0-0_
  6
CONTINUOUS
 62
    7
 10
175.59132213187127
 20
256.59912917560223
 11
175.59132213187127
 21
242.59965917560228
  0
LINE
  8
_0-0_
  6
CONTINUOUS
 62
    7
 10
175.59132213187127
 20
242.59965917560228
 11
161.59177213187127
 21
242.59965917560228
  0
LINE
  8
_0-0_
  6
CONTINUOUS
 62
    7
 10
161.59177213187127
 20
242.59965917560228
 11
161.59177213187127
 21
256.59912917560223
  0
LINE
  8
_0-0_
  6
CONTINUOUS
 62
    7
 10
197.30922213187131
 20
275.64902917560232
 11
197.30922213187131
 21
270.95002917560225
  0
LINE
  8
_0-0_
  6
CONTINUOUS
 62
    7
 10
197.30922213187131
 20
270.95002917560225
 11
195.78522213187131
 21
270.95002917560225
  0
LINE
  8
_0-0_
  6
CONTINUOUS
 62
    7
 10
195.78522213187131
 20
270.95002917560225
 11
195.78522213187131
 21
274.18012917560225
  0
LINE
  8
_0-0_
  6
CONTINUOUS
 62
    7
 10
195.78522213187131
 20
274.18012917560225
 11
194.0597221318713
 21
274.18012917560225
  0
LINE
  8
_0-0_
  6
CONTINUOUS
 62
    7
 10
194.0597221318713
 20
274.18012917560225
 11
194.0597221318713
 21
275.09942917560227
  0
LINE
  8
_0-0_
  6
CONTINUOUS
 62
    7
 10
194.0597221318713
 20
275.09942917560227
 11
190.75932213187127
 21
275.09942917560227
  0
LINE
  8
_0-0_
  6
CONTINUOUS
 62
    7
 10
190.75932213187127
 20
275.09942917560227
 11
190.75932213187127
 21
274.18012917560225
  0
LINE
  8
_0-0_
  6
CONTINUOUS
 62
    7
 10
190.75932213187127
 20
274.18012917560225
 11
189.03402213187127
 21
274.18012917560225
  0
LINE
  8
_0-0_
  6
CONTINUOUS
 62
    7
 10
189.03402213187127
 20
274.18012917560225
 11
189.03402213187127
 21
270.95002917560225
  0
LINE
  8
_0-0_
  6
CONTINUOUS
 62
    7
 10
189.03402213187127
 20
270.95002917560225
 11
188.20992213187128
 21
270.95002917560225
  0
LINE
  8
_0-0_
  6
CONTINUOUS
 62
    7
 10
188.20992213187128
 20
270.95002917560225
 11
188.20992213187128
 21
268.14982917560224
  0
LINE
  8
_0-0_
  6
CONTINUOUS
 62
    7
 10
188.20992213187128
 20
268.14982917560224
 11
189.03402213187127
 21
268.14982917560224
  0
LINE
  8
_0-0_
  6
CONTINUOUS
 62
    7
 10
189.03402213187127
 20
268.14982917560224
 11
189.03402213187127
 21
261.87982917560225
  0
LINE
  8
_0-0_
  6
CONTINUOUS
 62
    7
 10
189.03402213187127
 20
261.87982917560225
 11
190.75932213187127
 21
261.87982917560225
  0
LINE
  8
_0-0_
  6
CONTINUOUS
 62
    7
 10
190.75932213187127
 20
261.87982917560225
 11
190.75932213187127
 21
260.9000291756023
  0
LINE
  8
_0-0_
  6
CONTINUOUS
 62
    7
 10
190.75932213187127
 20
260.9000291756023
 11
194.0597221318713
 21
260.9000291756023
  0
LINE
  8
_0-0_
  6
CONTINUOUS
 62
    7
 10
194.0597221318713
 20
260.9000291756023
 11
194.0597221318713
 21
261.87982917560225
  0
LINE
  8
_0-0_
  6
CONTINUOUS
 62
    7
 10
194.0597221318713
 20
261.87982917560225
 11
195.78522213187131
 21
261.87982917560225
  0
LINE
  8
_0-0_
  6
CONTINUOUS
 62
    7
 10
195.78522213187131
 20
261.87982917560225
 11
195.78522213187131
 21
266.35012917560232
  0
LINE
  8
_0-0_
  6
CONTINUOUS
 62
    7
 10
195.78522213187131
 20
266.35012917560232
 11
197.30922213187131
 21
266.35012917560232
  0
LINE
  8
_0-0_
  6
CONTINUOUS
 62
    7
 10
197.30922213187131
 20
266.35012917560232
 11
197.30922213187131
 21
261.64962917560229
  0
LINE
  8
_0-0_
  6
CONTINUOUS
 62
    7
 10
197.30922213187131
 20
261.64962917560229
 11
211.3099221318713
 21
261.64962917560229
  0
LINE
  8
_0-0_
  6
CONTINUOUS
 62
    7
 10
211.3099221318713
 20
261.64962917560229
 11
211.3099221318713
 21
266.35012917560232
  0
LINE
  8
_0-0_
  6
CONTINUOUS
 62
    7
 10
211.3099221318713
 20
266.35012917560232
 11
212.83422213187129
 21
266.35012917560232
  0
LINE
  8
_0-0_
  6
CONTINUOUS
 62
    7
 10
212.83422213187129
 20
266.35012917560232
 11
212.83422213187129
 21
261.87982917560225
  0
LINE
  8
_0-0_
  6
CONTINUOUS
 62
    7
 10
212.83422213187129
 20
261.87982917560225
 11
214.55932213187128
 21
261.87982917560225
  0
LINE
  8
_0-0_
  6
CONTINUOUS
 62
    7
 10
214.55932213187128
 20
261.87982917560225
 11
214.55932213187128
 21
260.9000291756023
  0
LINE
  8
_0-0_
  6
CONTINUOUS
 62
    7
 10
214.55932213187128
 20
260.9000291756023
 11
217.85992213187126
 21
260.9000291756023
  0
LINE
  8
_0-0_
  6
CONTINUOUS
 62
    7
 10
217.85992213187126
 20
260.9000291756023
 11
217.85992213187126
 21
261.87982917560225
  0
LINE
  8
_0-0_
  6
CONTINUOUS
 62
    7
 10
217.85992213187126
 20
261.87982917560225
 11
219.58502213187131
 21
261.87982917560225
  0
LINE
  8
_0-0_
  6
CONTINUOUS
 62
    7
 10
219.58502213187131
 20
261.87982917560225
 11
219.58502213187131
 21
268.14982917560224
  0
LINE
  8
_0-0_
  6
CONTINUOUS
 62
    7
 10
219.58502213187131
 20
268.14982917560224
 11
220.4091221318713
 21
268.14982917560224
  0
LINE
  8
_0-0_
  6
CONTINUOUS
 62
    7
 10
220.4091221318713
 20
268.14982917560224
 11
220.4091221318713
 21
270.95002917560225
  0
LINE
  8
_0-0_
  6
CONTINUOUS
 62
    7
 10
220.4091221318713
 20
270.95002917560225
 11
219.58502213187131
 21
270.95002917560225
  0
LINE
  8
_0-0_
  6
CONTINUOUS
 62
    7
 10
219.58502213187131
 20
270.95002917560225
 11
219.58502213187131
 21
274.18012917560225
  0
LINE
  8
_0-0_
  6
CONTINUOUS
 62
    7
 10
219.58502213187131
 20
274.18012917560225
 11
217.85992213187126
 21
274.18012917560225
  0
LINE
  8
_0-0_
  6
CONTINUOUS
 62
    7
 10
217.85992213187126
 20
274.18012917560225
 11
217.85992213187126
 21
275.09942917560227
  0
LINE
  8
_0-0_
  6
CONTINUOUS
 62
    7
 10
217.85992213187126
 20
275.09942917560227
 11
214.55932213187128
 21
275.09942917560227
  0
LINE
  8
_0-0_
  6
CONTINUOUS
 62
    7
 10
214.55932213187128
 20
275.09942917560227
 11
214.55932213187128
 21
274.18012917560225
  0
LINE
  8
_0-0_
  6
CONTINUOUS
 62
    7
 10
214.55932213187128
 20
274.18012917560225
 11
212.83422213187129
 21
274.18012917560225
  0
LINE
  8
_0-0_
  6
CONTINUOUS
 62
    7
 10
212.83422213187129
 20
274.18012917560225
 11
212.83422213187129
 21
270.95002917560225
  0
LINE
  8
_0-0_
  6
CONTINUOUS
 62
    7
 10
212.83422213187129
 20
270.95002917560225
 11
211.3099221318713
 21
270.95002917560225
  0
LINE
  8
_0-0_
  6
CONTINUOUS
 62
    7
 10
211.3099221318713
 20
270.95002917560225
 11
211.3099221318713
 21
275.64902917560232
  0
LINE
  8
_0-0_
  6
CONTINUOUS
 62
    7
 10
211.3099221318713
 20
275.64902917560232
 11
197.30922213187131
 21
275.64902917560232
  0
LINE
  8
_0-0_
  6
CONTINUOUS
 62
    7
 10
304.46712213187129
 20
275.64902917560232
 11
318.46612213187132
 21
275.64902917560232
  0
LINE
  8
_0-0_
  6
CONTINUOUS
 62
    7
 10
318.46612213187132
 20
275.64902917560232
 11
318.46612213187132
 21
261.64962917560229
  0
LINE
  8
_0-0_
  6
CONTINUOUS
 62
    7
 10
318.46612213187132
 20
261.64962917560229
 11
304.46712213187129
 21
261.64962917560229
  0
LINE
  8
_0-0_
  6
CONTINUOUS
 62
    7
 10
304.46712213187129
 20
261.64962917560229
 11
304.46712213187129
 21
275.64902917560232
  0
LINE
  8
_0-0_
  6
CONTINUOUS
 62
    7
 10
285.41712213187128
 20
275.64902917560232
 11
299.41612213187125
 21
275.64902917560232
  0
LINE
  8
_0-0_
  6
CONTINUOUS
 62
    7
 10
299.41612213187125
 20
275.64902917560232
 11
299.41612213187125
 21
261.64962917560229
  0
LINE
  8
_0-0_
  6
CONTINUOUS
 62
    7
 10
299.41612213187125
 20
261.64962917560229
 11
285.41712213187128
 21
261.64962917560229
  0
LINE
  8
_0-0_
  6
CONTINUOUS
 62
    7
 10
285.41712213187128
 20
261.64962917560229
 11
285.41712213187128
 21
275.64902917560232
  0
LINE
  8
_0-0_
  6
CONTINUOUS
 62
    7
 10
266.36712213187127
 20
275.64902917560232
 11
280.36612213187129
 21
275.64902917560232
  0
LINE
  8
_0-0_
  6
CONTINUOUS
 62
    7
 10
280.36612213187129
 20
275.64902917560232
 11
280.36612213187129
 21
261.64962917560229
  0
LINE
  8
_0-0_
  6
CONTINUOUS
 62
    7
 10
280.36612213187129
 20
261.64962917560229
 11
266.36712213187127
 21
261.64962917560229
  0
LINE
  8
_0-0_
  6
CONTINUOUS
 62
    7
 10
266.36712213187127
 20
261.64962917560229
 11
266.36712213187127
 21
275.64902917560232
  0
LINE
  8
_0-0_
  6
CONTINUOUS
 62
    7
 10
247.31682213187128
 20
275.64902917560232
 11
261.31612213187128
 21
275.64902917560232
  0
LINE
  8
_0-0_
  6
CONTINUOUS
 62
    7
 10
261.31612213187128
 20
275.64902917560232
 11
261.31612213187128
 21
261.64962917560229
  0
LINE
  8
_0-0_
  6
CONTINUOUS
 62
    7
 10
261.31612213187128
 20
261.64962917560229
 11
247.31682213187128
 21
261.64962917560229
  0
LINE
  8
_0-0_
  6
CONTINUOUS
 62
    7
 10
247.31682213187128
 20
261.64962917560229
 11
247.31682213187128
 21
275.64902917560232
  0
LINE
  8
_0-0_
  6
CONTINUOUS
 62
    7
 10
228.26682213187132
 20
275.64902917560232
 11
242.26612213187127
 21
275.64902917560232
  0
LINE
  8
_0-0_
  6
CONTINUOUS
 62
    7
 10
242.26612213187127
 20
275.64902917560232
 11
242.26612213187127
 21
261.64962917560229
  0
LINE
  8
_0-0_
  6
CONTINUOUS
 62
    7
 10
242.26612213187127
 20
261.64962917560229
 11
228.26682213187132
 21
261.64962917560229
  0
LINE
  8
_0-0_
  6
CONTINUOUS
 62
    7
 10
228.26682213187132
 20
261.64962917560229
 11
228.26682213187132
 21
275.64902917560232
  0
LINE
  8
_0-0_
  6
CONTINUOUS
 62
    7
 10
161.59177213187127
 20
275.64902917560232
 11
175.59132213187127
 21
275.64902917560232
  0
LINE
  8
_0-0_
  6
CONTINUOUS
 62
    7
 10
175.59132213187127
 20
275.64902917560232
 11
175.59132213187127
 21
261.64962917560229
  0
LINE
  8
_0-0_
  6
CONTINUOUS
 62
    7
 10
175.59132213187127
 20
261.64962917560229
 11
161.59177213187127
 21
261.64962917560229
  0
LINE
  8
_0-0_
  6
CONTINUOUS
 62
    7
 10
161.59177213187127
 20
261.64962917560229
 11
161.59177213187127
 21
275.64902917560232
  0
LINE
  8
_0-0_
  6
CONTINUOUS
 62
    7
 10
294.94212213187132
 20
294.69902917560228
 11
308.94112213187128
 21
294.69902917560228
  0
LINE
  8
_0-0_
  6
CONTINUOUS
 62
    7
 10
308.94112213187128
 20
294.69902917560228
 11
308.94112213187128
 21
280.6998291756023
  0
LINE
  8
_0-0_
  6
CONTINUOUS
 62
    7
 10
308.94112213187128
 20
280.6998291756023
 11
294.94212213187132
 21
280.6998291756023
  0
LINE
  8
_0-0_
  6
CONTINUOUS
 62
    7
 10
294.94212213187132
 20
280.6998291756023
 11
294.94212213187132
 21
294.69902917560228
  0
LINE
  8
_0-0_
  6
CONTINUOUS
 62
    7
 10
275.8921221318713
 20
294.69902917560228
 11
289.89112213187127
 21
294.69902917560228
  0
LINE
  8
_0-0_
  6
CONTINUOUS
 62
    7
 10
289.89112213187127
 20
294.69902917560228
 11
289.89112213187127
 21
280.6998291756023
  0
LINE
  8
_0-0_
  6
CONTINUOUS
 62
    7
 10
289.89112213187127
 20
280.6998291756023
 11
275.8921221318713
 21
280.6998291756023
  0
LINE
  8
_0-0_
  6
CONTINUOUS
 62
    7
 10
275.8921221318713
 20
280.6998291756023
 11
275.8921221318713
 21
294.69902917560228
  0
LINE
  8
_0-0_
  6
CONTINUOUS
 62
    7
 10
256.84182213187125
 20
294.69902917560228
 11
270.84112213187132
 21
294.69902917560228
  0
LINE
  8
_0-0_
  6
CONTINUOUS
 62
    7
 10
270.84112213187132
 20
294.69902917560228
 11
270.84112213187132
 21
280.6998291756023
  0
LINE
  8
_0-0_
  6
CONTINUOUS
 62
    7
 10
270.84112213187132
 20
280.6998291756023
 11
256.84182213187125
 21
280.6998291756023
  0
LINE
  8
_0-0_
  6
CONTINUOUS
 62
    7
 10
256.84182213187125
 20
280.6998291756023
 11
256.84182213187125
 21
294.69902917560228
  0
LINE
  8
_0-0_
  6
CONTINUOUS
 62
    7
 10
237.7918221318713
 20
294.69902917560228
 11
251.7911221318713
 21
294.69902917560228
  0
LINE
  8
_0-0_
  6
CONTINUOUS
 62
    7
 10
251.7911221318713
 20
294.69902917560228
 11
251.7911221318713
 21
280.6998291756023
  0
LINE
  8
_0-0_
  6
CONTINUOUS
 62
    7
 10
251.7911221318713
 20
280.6998291756023
 11
237.7918221318713
 21
280.6998291756023
  0
LINE
  8
_0-0_
  6
CONTINUOUS
 62
    7
 10
237.7918221318713
 20
280.6998291756023
 11
237.7918221318713
 21
294.69902917560228
  0
LINE
  8
_0-0_
  6
CONTINUOUS
 62
    7
 10
218.74182213187129
 20
294.69902917560228
 11
232.74112213187129
 21
294.69902917560228
  0
LINE
  8
_0-0_
  6
CONTINUOUS
 62
    7
 10
232.74112213187129
 20
294.69902917560228
 11
232.74112213187129
 21
280.6998291756023
  0
LINE
  8
_0-0_
  6
CONTINUOUS
 62
    7
 10
232.74112213187129
 20
280.6998291756023
 11
218.74182213187129
 21
280.6998291756023
  0
LINE
  8
_0-0_
  6
CONTINUOUS
 62
    7
 10
218.74182213187129
 20
280.6998291756023
 11
218.74182213187129
 21
294.69902917560228
  0
LINE
  8
_0-0_
  6
CONTINUOUS
 62
    7
 10
192.54802213187128
 20
294.69902917560228
 11
206.54742213187126
 21
294.69902917560228
  0
LINE
  8
_0-0_
  6
CONTINUOUS
 62
    7
 10
206.54742213187126
 20
294.69902917560228
 11
206.54742213187126
 21
280.6998291756023
  0
LINE
  8
_0-0_
  6
CONTINUOUS
 62
    7
 10
206.54742213187126
 20
280.6998291756023
 11
192.54802213187128
 21
280.6998291756023
  0
LINE
  8
_0-0_
  6
CONTINUOUS
 62
    7
 10
192.54802213187128
 20
280.6998291756023
 11
192.54802213187128
 21
294.69902917560228
  0
LINE
  8
_0-0_
  6
CONTINUOUS
 62
    7
 10
161.59177213187127
 20
294.69902917560228
 11
175.59132213187127
 21
294.69902917560228
  0
LINE
  8
_0-0_
  6
CONTINUOUS
 62
    7
 10
175.59132213187127
 20
294.69902917560228
 11
175.59132213187127
 21
280.6998291756023
  0
LINE
  8
_0-0_
  6
CONTINUOUS
 62
    7
 10
175.59132213187127
 20
280.6998291756023
 11
161.59177213187127
 21
280.6998291756023
  0
LINE
  8
_0-0_
  6
CONTINUOUS
 62
    7
 10
161.59177213187127
 20
280.6998291756023
 11
161.59177213187127
 21
294.69902917560228
  0
LINE
  8
_0-0_
  6
CONTINUOUS
 62
    7
 10
290.17912213187128
 20
313.74902917560223
 11
304.17912213187128
 21
313.74902917560223
  0
LINE
  8
_0-0_
  6
CONTINUOUS
 62
    7
 10
304.17912213187128
 20
313.74902917560223
 11
304.17912213187128
 21
299.74982917560226
  0
LINE
  8
_0-0_
  6
CONTINUOUS
 62
    7
 10
304.17912213187128
 20
299.74982917560226
 11
290.17912213187128
 21
299.74982917560226
  0
LINE
  8
_0-0_
  6
CONTINUOUS
 62
    7
 10
290.17912213187128
 20
299.74982917560226
 11
290.17912213187128
 21
313.74902917560223
  0
LINE
  8
_0-0_
  6
CONTINUOUS
 62
    7
 10
271.12912213187127
 20
313.74902917560223
 11
285.12912213187127
 21
313.74902917560223
  0
LINE
  8
_0-0_
  6
CONTINUOUS
 62
    7
 10
285.12912213187127
 20
313.74902917560223
 11
285.12912213187127
 21
299.74982917560226
  0
LINE
  8
_0-0_
  6
CONTINUOUS
 62
    7
 10
285.12912213187127
 20
299.74982917560226
 11
271.12912213187127
 21
299.74982917560226
  0
LINE
  8
_0-0_
  6
CONTINUOUS
 62
    7
 10
271.12912213187127
 20
299.74982917560226
 11
271.12912213187127
 21
313.74902917560223
  0
LINE
  8
_0-0_
  6
CONTINUOUS
 62
    7
 10
252.07932213187132
 20
313.74902917560223
 11
266.07912213187126
 21
313.74902917560223
  0
LINE
  8
_0-0_
  6
CONTINUOUS
 62
    7
 10
266.07912213187126
 20
313.74902917560223
 11
266.07912213187126
 21
299.74982917560226
  0
LINE
  8
_0-0_
  6
CONTINUOUS
 62
    7
 10
266.07912213187126
 20
299.74982917560226
 11
252.07932213187132
 21
299.74982917560226
  0
LINE
  8
_0-0_
  6
CONTINUOUS
 62
    7
 10
252.07932213187132
 20
299.74982917560226
 11
252.07932213187132
 21
313.74902917560223
  0
LINE
  8
_0-0_
  6
CONTINUOUS
 62
    7
 10
233.02932213187125
 20
313.74902917560223
 11
247.02862213187132
 21
313.74902917560223
  0
LINE
  8
_0-0_
  6
CONTINUOUS
 62
    7
 10
247.02862213187132
 20
313.74902917560223
 11
247.02862213187132
 21
299.74982917560226
  0
LINE
  8
_0-0_
  6
CONTINUOUS
 62
    7
 10
247.02862213187132
 20
299.74982917560226
 11
233.02932213187125
 21
299.74982917560226
  0
LINE
  8
_0-0_
  6
CONTINUOUS
 62
    7
 10
233.02932213187125
 20
299.74982917560226
 11
233.02932213187125
 21
313.74902917560223
  0
LINE
  8
_0-0_
  6
CONTINUOUS
 62
    7
 10
213.9793221318713
 20
313.74902917560223
 11
227.9786221318713
 21
313.74902917560223
  0
LINE
  8
_0-0_
  6
CONTINUOUS
 62
    7
 10
227.9786221318713
 20
313.74902917560223
 11
227.9786221318713
 21
299.74982917560226
  0
LINE
  8
_0-0_
  6
CONTINUOUS
 62
    7
 10
227.9786221318713
 20
299.74982917560226
 11
213.9793221318713
 21
299.74982917560226
  0
LINE
  8
_0-0_
  6
CONTINUOUS
 62
    7
 10
213.9793221318713
 20
299.74982917560226
 11
213.9793221318713
 21
313.74902917560223
  0
LINE
  8
_0-0_
  6
CONTINUOUS
 62
    7
 10
190.1668221318713
 20
313.74902917560223
 11
204.1661221318713
 21
313.74902917560223
  0
LINE
  8
_0-0_
  6
CONTINUOUS
 62
    7
 10
204.1661221318713
 20
313.74902917560223
 11
204.1661221318713
 21
299.74982917560226
  0
LINE
  8
_0-0_
  6
CONTINUOUS
 62
    7
 10
204.1661221318713
 20
299.74982917560226
 11
190.1668221318713
 21
299.74982917560226
  0
LINE
  8
_0-0_
  6
CONTINUOUS
 62
    7
 10
190.1668221318713
 20
299.74982917560226
 11
190.1668221318713
 21
313.74902917560223
  0
LINE
  8
_0-0_
  6
CONTINUOUS
 62
    7
 10
161.59177213187127
 20
313.74902917560223
 11
175.59132213187127
 21
313.74902917560223
  0
LINE
  8
_0-0_
  6
CONTINUOUS
 62
    7
 10
175.59132213187127
 20
313.74902917560223
 11
175.59132213187127
 21
299.74982917560226
  0
LINE
  8
_0-0_
  6
CONTINUOUS
 62
    7
 10
175.59132213187127
 20
299.74982917560226
 11
161.59177213187127
 21
299.74982917560226
  0
LINE
  8
_0-0_
  6
CONTINUOUS
 62
    7
 10
161.59177213187127
 20
299.74982917560226
 11
161.59177213187127
 21
313.74902917560223
  0
LINE
  8
_0-0_
  6
CONTINUOUS
 62
    7
 10
299.70412213187126
 20
332.7990291756023
 11
313.70412213187126
 21
332.7990291756023
  0
LINE
  8
_0-0_
  6
CONTINUOUS
 62
    7
 10
313.70412213187126
 20
332.7990291756023
 11
313.70412213187126
 21
318.79982917560233
  0
LINE
  8
_0-0_
  6
CONTINUOUS
 62
    7
 10
313.70412213187126
 20
318.79982917560233
 11
299.70412213187126
 21
318.79982917560233
  0
LINE
  8
_0-0_
  6
CONTINUOUS
 62
    7
 10
299.70412213187126
 20
318.79982917560233
 11
299.70412213187126
 21
332.7990291756023
  0
LINE
  8
_0-0_
  6
CONTINUOUS
 62
    7
 10
280.6541221318713
 20
332.7990291756023
 11
294.6541221318713
 21
332.7990291756023
  0
LINE
  8
_0-0_
  6
CONTINUOUS
 62
    7
 10
294.6541221318713
 20
332.7990291756023
 11
294.6541221318713
 21
318.79982917560233
  0
LINE
  8
_0-0_
  6
CONTINUOUS
 62
    7
 10
294.6541221318713
 20
318.79982917560233
 11
280.6541221318713
 21
318.79982917560233
  0
LINE
  8
_0-0_
  6
CONTINUOUS
 62
    7
 10
280.6541221318713
 20
318.79982917560233
 11
280.6541221318713
 21
332.7990291756023
  0
LINE
  8
_0-0_
  6
CONTINUOUS
 62
    7
 10
261.60412213187129
 20
332.7990291756023
 11
275.60412213187129
 21
332.7990291756023
  0
LINE
  8
_0-0_
  6
CONTINUOUS
 62
    7
 10
275.60412213187129
 20
332.7990291756023
 11
275.60412213187129
 21
318.79982917560233
  0
LINE
  8
_0-0_
  6
CONTINUOUS
 62
    7
 10
275.60412213187129
 20
318.79982917560233
 11
261.60412213187129
 21
318.79982917560233
  0
LINE
  8
_0-0_
  6
CONTINUOUS
 62
    7
 10
261.60412213187129
 20
318.79982917560233
 11
261.60412213187129
 21
332.7990291756023
  0
LINE
  8
_0-0_
  6
CONTINUOUS
 62
    7
 10
242.55432213187129
 20
332.7990291756023
 11
256.55362213187129
 21
332.7990291756023
  0
LINE
  8
_0-0_
  6
CONTINUOUS
 62
    7
 10
256.55362213187129
 20
332.7990291756023
 11
256.55362213187129
 21
318.79982917560233
  0
LINE
  8
_0-0_
  6
CONTINUOUS
 62
    7
 10
256.55362213187129
 20
318.79982917560233
 11
242.55432213187129
 21
318.79982917560233
  0
LINE
  8
_0-0_
  6
CONTINUOUS
 62
    7
 10
242.55432213187129
 20
318.79982917560233
 11
242.55432213187129
 21
332.7990291756023
  0
LINE
  8
_0-0_
  6
CONTINUOUS
 62
    7
 10
223.50432213187128
 20
332.7990291756023
 11
237.50362213187128
 21
332.7990291756023
  0
LINE
  8
_0-0_
  6
CONTINUOUS
 62
    7
 10
237.50362213187128
 20
332.7990291756023
 11
237.50362213187128
 21
318.79982917560233
  0
LINE
  8
_0-0_
  6
CONTINUOUS
 62
    7
 10
237.50362213187128
 20
318.79982917560233
 11
223.50432213187128
 21
318.79982917560233
  0
LINE
  8
_0-0_
  6
CONTINUOUS
 62
    7
 10
223.50432213187128
 20
318.79982917560233
 11
223.50432213187128
 21
332.7990291756023
  0
LINE
  8
_0-0_
  6
CONTINUOUS
 62
    7
 10
204.45432213187127
 20
332.7990291756023
 11
218.45362213187127
 21
332.7990291756023
  0
LINE
  8
_0-0_
  6
CONTINUOUS
 62
    7
 10
218.45362213187127
 20
332.7990291756023
 11
218.45362213187127
 21
318.79982917560233
  0
LINE
  8
_0-0_
  6
CONTINUOUS
 62
    7
 10
218.45362213187127
 20
318.79982917560233
 11
204.45432213187127
 21
318.79982917560233
  0
LINE
  8
_0-0_
  6
CONTINUOUS
 62
    7
 10
204.45432213187127
 20
318.79982917560233
 11
204.45432213187127
 21
332.7990291756023
  0
LINE
  8
_0-0_
  6
CONTINUOUS
 62
    7
 10
185.40432213187131
 20
332.7990291756023
 11
199.40362213187132
 21
332.7990291756023
  0
LINE
  8
_0-0_
  6
CONTINUOUS
 62
    7
 10
199.40362213187132
 20
332.7990291756023
 11
199.40362213187132
 21
318.79982917560233
  0
LINE
  8
_0-0_
  6
CONTINUOUS
 62
    7
 10
199.40362213187132
 20
318.79982917560233
 11
185.40432213187131
 21
318.79982917560233
  0
LINE
  8
_0-0_
  6
CONTINUOUS
 62
    7
 10
185.40432213187131
 20
318.79982917560233
 11
185.40432213187131
 21
332.7990291756023
  0
LINE
  8
_0-0_
  6
CONTINUOUS
 62
    7
 10
161.59177213187127
 20
332.7990291756023
 11
175.59132213187127
 21
332.7990291756023
  0
LINE
  8
_0-0_
  6
CONTINUOUS
 62
    7
 10
175.59132213187127
 20
332.7990291756023
 11
175.59132213187127
 21
318.79982917560233
  0
LINE
  8
_0-0_
  6
CONTINUOUS
 62
    7
 10
175.59132213187127
 20
318.79982917560233
 11
161.59177213187127
 21
318.79982917560233
  0
LINE
  8
_0-0_
  6
CONTINUOUS
 62
    7
 10
161.59177213187127
 20
318.79982917560233
 11
161.59177213187127
 21
332.7990291756023
  0
LINE
  8
_0-0_
  6
CONTINUOUS
 62
    7
 10
299.70412213187126
 20
361.37362917560222
 11
313.70412213187126
 21
361.37362917560222
  0
LINE
  8
_0-0_
  6
CONTINUOUS
 62
    7
 10
313.70412213187126
 20
361.37362917560222
 11
313.70412213187126
 21
347.37462917560231
  0
LINE
  8
_0-0_
  6
CONTINUOUS
 62
    7
 10
313.70412213187126
 20
347.37462917560231
 11
299.70412213187126
 21
347.37462917560231
  0
LINE
  8
_0-0_
  6
CONTINUOUS
 62
    7
 10
299.70412213187126
 20
347.37462917560231
 11
299.70412213187126
 21
361.37362917560222
  0
LINE
  8
_0-0_
  6
CONTINUOUS
 62
    7
 10
271.12912213187127
 20
361.37362917560222
 11
285.12912213187127
 21
361.37362917560222
  0
LINE
  8
_0-0_
  6
CONTINUOUS
 62
    7
 10
285.12912213187127
 20
361.37362917560222
 11
285.12912213187127
 21
347.37462917560231
  0
LINE
  8
_0-0_
  6
CONTINUOUS
 62
    7
 10
285.12912213187127
 20
347.37462917560231
 11
271.12912213187127
 21
347.37462917560231
  0
LINE
  8
_0-0_
  6
CONTINUOUS
 62
    7
 10
271.12912213187127
 20
347.37462917560231
 11
271.12912213187127
 21
361.37362917560222
  0
LINE
  8
_0-0_
  6
CONTINUOUS
 62
    7
 10
252.07932213187132
 20
361.37362917560222
 11
266.07912213187126
 21
361.37362917560222
  0
LINE
  8
_0-0_
  6
CONTINUOUS
 62
    7
 10
266.07912213187126
 20
361.37362917560222
 11
266.07912213187126
 21
347.37462917560231
  0
LINE
  8
_0-0_
  6
CONTINUOUS
 62
    7
 10
266.07912213187126
 20
347.37462917560231
 11
252.07932213187132
 21
347.37462917560231
  0
LINE
  8
_0-0_
  6
CONTINUOUS
 62
    7
 10
252.07932213187132
 20
347.37462917560231
 11
252.07932213187132
 21
361.37362917560222
  0
LINE
  8
_0-0_
  6
CONTINUOUS
 62
    7
 10
233.02932213187125
 20
361.37362917560222
 11
247.02862213187132
 21
361.37362917560222
  0
LINE
  8
_0-0_
  6
CONTINUOUS
 62
    7
 10
247.02862213187132
 20
361.37362917560222
 11
247.02862213187132
 21
347.37462917560231
  0
LINE
  8
_0-0_
  6
CONTINUOUS
 62
    7
 10
247.02862213187132
 20
347.37462917560231
 11
233.02932213187125
 21
347.37462917560231
  0
LINE
  8
_0-0_
  6
CONTINUOUS
 62
    7
 10
233.02932213187125
 20
347.37462917560231
 11
233.02932213187125
 21
361.37362917560222
  0
LINE
  8
_0-0_
  6
CONTINUOUS
 62
    7
 10
213.9793221318713
 20
361.37362917560222
 11
227.9786221318713
 21
361.37362917560222
  0
LINE
  8
_0-0_
  6
CONTINUOUS
 62
    7
 10
227.9786221318713
 20
361.37362917560222
 11
227.9786221318713
 21
347.37462917560231
  0
LINE
  8
_0-0_
  6
CONTINUOUS
 62
    7
 10
227.9786221318713
 20
347.37462917560231
 11
213.9793221318713
 21
347.37462917560231
  0
LINE
  8
_0-0_
  6
CONTINUOUS
 62
    7
 10
213.9793221318713
 20
347.37462917560231
 11
213.9793221318713
 21
361.37362917560222
  0
LINE
  8
_0-0_
  6
CONTINUOUS
 62
    7
 10
185.40432213187131
 20
361.37362917560222
 11
199.40362213187132
 21
361.37362917560222
  0
LINE
  8
_0-0_
  6
CONTINUOUS
 62
    7
 10
199.40362213187132
 20
361.37362917560222
 11
199.40362213187132
 21
347.37462917560231
  0
LINE
  8
_0-0_
  6
CONTINUOUS
 62
    7
 10
199.40362213187132
 20
347.37462917560231
 11
185.40432213187131
 21
347.37462917560231
  0
LINE
  8
_0-0_
  6
CONTINUOUS
 62
    7
 10
185.40432213187131
 20
347.37462917560231
 11
185.40432213187131
 21
361.37362917560222
  0
ENDSEC
  0
EOF
