  0
SECTION
  2
HEADER
  9
$ACADVER
  1
AC1009
  9
$INSBASE
 10
0
 20
0
 30
0
  9
$EXTMIN
 10
0
 20
0
  9
$EXTMAX
 10
841
 20
594
  9
$LIMMIN
 10
0
 20
0
  9
$LIMMAX
 10
841
 20
594
  9
$LTSCALE
 40
1
  0
ENDSEC
  0
SECTION
  2
TABLES
  0
TABLE
  2
LTYPE
 70
     9
  0
LTYPE
  2
CONTINUOUS
 70
    64
  3
実線
 72
    65
 73
     0
 40
0.0
  0
LTYPE
  2
DASHED1
 70
    64
  3
--  --  --  --  --  --  --  --  
 72
    65
 73
     2
 40
2.5
 49
1.25
 49
-1.25
  0
LTYPE
  2
DASHED2
 70
    64
  3
----    ----    ----    ----    
 72
    65
 73
     2
 40
5.0
 49
2.5
 49
-2.5
  0
LTYPE
  2
DASHED3
 70
    64
  3
------  ------  ------  ------  
 72
    65
 73
     2
 40
5.0
 49
3.75
 49
-1.25
  0
LTYPE
  2
CENTER1
 70
    64
  3
----- - ----- - ----- - ----- - 
 72
    65
 73
     4
 40
10.0
 49
6.25
 49
-1.25
 49
1.25
 49
-1.25
  0
LTYPE
  2
CENTER2
 70
    64
  3
----------  --  ----------  --  
 72
    65
 73
     4
 40
20.0
 49
12.5
 49
-2.5
 49
2.5
 49
-2.5
  0
LTYPE
  2
PHANTOM1
 70
    64
  3
--- - - --- - - --- - - --- - - 
 72
    65
 73
     6
 40
10.0
 49
3.25
 49
-1.25
 49
1.25
 49
-1.25
 49
1.25
 49
-1.25
  0
LTYPE
  2
PHANTOM2
 70
    64
  3
--------  -  -  --------  -  -  
 72
    65
 73
     6
 40
20.0
 49
10.0
 49
-2.5
 49
1.25
 49
-2.5
 49
1.25
 49
-2.5
  0
LTYPE
  2
DOT
 70
    64
  3
-   -   -   -   -   -   -   -   
 72
    65
 73
     2
 40
2.5
 49
0.625
 49
-1.875
  0
LTYPE
  2
DUMMY
 70
    64
  3
ダミー
 72
    65
 73
     0
 40
0.0
  0
LTYPE
  2
RAND1
 70
    64
  3
ランダム線1
 72
    65
 73
     4
 40
10.0
 49
1.0
 49
-2.0
 49
3.0
 49
-4.0
  0
LTYPE
  2
RAND2
 70
    64
  3
ランダム線2
 72
    65
 73
     4
 40
14.0
 49
2.0
 49
-3.0
 49
4.0
 49
-5.0
  0
LTYPE
  2
RAND3
 70
    64
  3
ランダム線3
 72
    65
 73
     4
 40
18.0
 49
3.0
 49
-4.0
 49
5.0
 49
-6.0
  0
LTYPE
  2
RAND4
 70
    64
  3
ランダム線4
 72
    65
 73
     4
 40
22.0
 49
4.0
 49
-5.0
 49
6.0
 49
-7.0
  0
LTYPE
  2
RAND5
 70
    64
  3
ランダム線5
 72
    65
 73
     4
 40
26.0
 49
5.0
 49
-6.0
 49
7.0
 49
-8.0
  0
LTYPE
  2
LONG1
 70
    64
  3
----------  --  ----------  --  
 72
    65
 73
     4
 40
40.0
 49
32.5
 49
-2.5
 49
2.5
 49
-2.5
  0
LTYPE
  2
LONG2
 70
    64
  3
--------  -  -  --------  -  -  
 72
    65
 73
     6
 40
40.0
 49
30.0
 49
-2.5
 49
1.25
 49
-2.5
 49
1.25
 49
-2.5
  0
LTYPE
  2
LONG3
 70
    64
  3
+++++++++++++++..+++++++++++++++
 72
    65
 73
     2
 40
40.0
 49
37.5
 49
-2.5
  0
LTYPE
  2
LONG4
 70
    64
  3
+++++++++++++++..+++++++++++++++
 72
    65
 73
     2
 40
80.0
 49
75.0
 49
-5.0
  0
LTYPE
  2
LONG5
 70
    64
  3
----------  --  ----------  --  
 72
    65
 73
     4
 40
60.0
 49
37.5
 49
-7.5
 49
7.5
 49
-7.5
  0
LTYPE
  2
dashed
 70
   64
  3
-------   -------------   ------
 72
   65
 73
    2
 40
7.5
 49
6
 49
-1.5
  0
LTYPE
  2
dashed_spaced
 70
   64
  3
----        --------        ----
 72
   65
 73
    2
 40
12
 49
6
 49
-6
  0
LTYPE
  2
long_dashed_dotted
 70
   64
  3
------------- --- --------------
 72
   65
 73
    4
 40
15.25
 49
12
 49
-1.5
 49
0.25
 49
-1.5
  0
LTYPE
  2
long_dashed_double-dotted
 70
   64
  3
----------- --- --- ------------
 72
   65
 73
    6
 40
17
 49
12
 49
-1.5
 49
0.25
 49
-1.5
 49
0.25
 49
-1.5
  0
LTYPE
  2
long_dashed_triplicate-dotted
 70
   64
  3
--------- --- --- --- ----------
 72
   65
 73
    8
 40
18.75
 49
12
 49
-1.5
 49
0.25
 49
-1.5
 49
0.25
 49
-1.5
 49
0.25
 49
-1.5
  0
LTYPE
  2
dotted
 70
   64
  3
   -       -       -       -    
 72
   65
 73
    2
 40
1.75
 49
0.25
 49
-1.5
  0
LTYPE
  2
chain
 70
   64
  3
-------------- -- --------------
 72
   65
 73
    4
 40
18.5
 49
12
 49
-1.5
 49
3.5
 49
-1.5
  0
LTYPE
  2
chain_double_dash
 70
   64
  3
------------ -- -- -------------
 72
   65
 73
    6
 40
23.5
 49
12
 49
-1.5
 49
3.5
 49
-1.5
 49
3.5
 49
-1.5
  0
LTYPE
  2
dashed_dotted
 70
   64
  3
-----------     -     ----------
 72
   65
 73
    4
 40
9.25
 49
6
 49
-1.5
 49
0.25
 49
-1.5
  0
LTYPE
  2
double-dashed_dotted
 70
   64
  3
------   -----------   -   -----
 72
   65
 73
    6
 40
16.75
 49
6
 49
-1.5
 49
6
 49
-1.5
 49
0.25
 49
-1.5
  0
LTYPE
  2
dashed_double-dotted
 70
   64
  3
---------    -    -    ---------
 72
   65
 73
    6
 40
11
 49
6
 49
-1.5
 49
0.25
 49
-1.5
 49
0.25
 49
-1.5
  0
LTYPE
  2
double-dashed_double-dotted
 70
   64
  3
-----   ---------   -   -   ----
 72
   65
 73
    8
 40
18.5
 49
6
 49
-1.5
 49
6
 49
-1.5
 49
0.25
 49
-1.5
 49
0.25
 49
-1.5
  0
LTYPE
  2
dashed_triplicate-dotted
 70
   64
  3
-------    -    -    -    ------
 72
   65
 73
    8
 40
12.75
 49
6
 49
-1.5
 49
0.25
 49
-1.5
 49
0.25
 49
-1.5
 49
0.25
 49
-1.5
  0
LTYPE
  2
double-dashed_triplicate-dotted
 70
   64
  3
-----  ---------  -  -  -  -----
 72
   65
 73
   10
 40
20.25
 49
6
 49
-1.5
 49
6
 49
-1.5
 49
0.25
 49
-1.5
 49
0.25
 49
-1.5
 49
0.25
 49
-1.5
  0
LTYPE
  2
undefined
 70
   64
  3
--------------------------------
 72
   65
 73
    0
 40
0
  0
LTYPE
  2
_
 70
   64
  3
                                
 72
   65
 73
    0
 40
0
  0
LTYPE
  2
__18
 70
   64
  3
                                
 72
   65
 73
    0
 40
0
  0
LTYPE
  2
__19
 70
   64
  3
                                
 72
   65
 73
    0
 40
0
  0
LTYPE
  2
__20
 70
   64
  3
                                
 72
   65
 73
    0
 40
0
  0
LTYPE
  2
__21
 70
   64
  3
                                
 72
   65
 73
    0
 40
0
  0
LTYPE
  2
__22
 70
   64
  3
                                
 72
   65
 73
    0
 40
0
  0
LTYPE
  2
__23
 70
   64
  3
                                
 72
   65
 73
    0
 40
0
  0
LTYPE
  2
__24
 70
   64
  3
                                
 72
   65
 73
    0
 40
0
  0
LTYPE
  2
__25
 70
   64
  3
                                
 72
   65
 73
    0
 40
0
  0
LTYPE
  2
__26
 70
   64
  3
                                
 72
   65
 73
    0
 40
0
  0
LTYPE
  2
__27
 70
   64
  3
                                
 72
   65
 73
    0
 40
0
  0
LTYPE
  2
__28
 70
   64
  3
                                
 72
   65
 73
    0
 40
0
  0
LTYPE
  2
__29
 70
   64
  3
                                
 72
   65
 73
    0
 40
0
  0
LTYPE
  2
__30
 70
   64
  3
                                
 72
   65
 73
    0
 40
0
  0
LTYPE
  2
__31
 70
   64
  3
                                
 72
   65
 73
    0
 40
0
  0
LTYPE
  2
__32
 70
   64
  3
                                
 72
   65
 73
    0
 40
0
  0
ENDTAB
  0
TABLE
  2
STYLE
  5
3
100
AcDbSymbolTable
 70
     1
  0
STYLE
  5
10
100
AcDbSymbolTableRecord
100
AcDbTextStyleTableRecord
  2
STANDARD
 70
     0
 40
0.0
 41
1.0
 50
0.0
 71
     0
 42
0.2
  3
txt
  4
bigfont.shx
  0
STYLE
  5
26
100
AcDbSymbolTableRecord
100
AcDbTextStyleTableRecord
  2
TATEGAKI
 70
    68
 40
0.0
 41
1.0
 50
0.0
 71
     0
 42
1.0
  3
txt
  4
bigfont.shx
  0
ENDTAB
  0
TABLE
  2
LAYER
 70
    2
  0
LAYER
  2
_0-0_
 70
   64
 62
    7
  6
CONTINUOUS
  0
LAYER
  2
ADD_LINE
 70
   64
 62
    7
  6
CONTINUOUS
  0
ENDTAB
  0
ENDSEC
  0
SECTION
  2
BLOCKS
  0
ENDSEC
  0
SECTION
  2
ENTITIES
  0
LINE
  8
_0-0_
  6
CONTINUOUS
 62
    7
 10
599.64352380952391
 20
339.13574613591271
 11
599.64352380952391
 21
332.13574613591271
  0
LINE
  8
_0-0_
  6
CONTINUOUS
 62
    7
 10
599.64352380952391
 20
315.3357461359127
 11
599.64352380952391
 21
308.3357461359127
  0
LINE
  8
_0-0_
  6
CONTINUOUS
 62
    7
 10
599.16836300627392
 20
330.76033435091273
 11
599.16836300627392
 21
316.7113579209128
  0
LINE
  8
_0-0_
  6
CONTINUOUS
 62
    7
 10
585.11883461277387
 20
316.7113579209128
 11
585.11883461277387
 21
330.76033435091273
  0
LINE
  8
_0-0_
  6
CONTINUOUS
 62
    7
 10
599.64352380952391
 20
308.3357461359127
 11
586.14352380952391
 21
308.3357461359127
  0
LINE
  8
_0-0_
  6
CONTINUOUS
 62
    7
 10
586.14352380952391
 20
315.3357461359127
 11
586.14352380952391
 21
308.3357461359127
  0
LINE
  8
_0-0_
  6
CONTINUOUS
 62
    7
 10
594.44272380952384
 20
330.76033435091273
 11
599.16836300627392
 21
330.76033435091273
  0
LINE
  8
_0-0_
  6
CONTINUOUS
 62
    7
 10
599.64352380952391
 20
339.13574613591271
 11
586.14352380952391
 21
339.13574613591271
  0
LINE
  8
_0-0_
  6
CONTINUOUS
 62
    7
 10
599.64352380952391
 20
332.13574613591271
 11
594.44272380952384
 21
332.13574613591271
  0
LINE
  8
_0-0_
  6
CONTINUOUS
 62
    7
 10
586.14352380952391
 20
339.13574613591271
 11
586.14352380952391
 21
332.13574613591271
  0
LINE
  8
_0-0_
  6
CONTINUOUS
 62
    7
 10
585.11883461277387
 20
330.76033435091273
 11
589.84282380952391
 21
330.76033435091273
  0
LINE
  8
_0-0_
  6
CONTINUOUS
 62
    7
 10
589.84282380952391
 20
332.13574613591271
 11
586.14352380952391
 21
332.13574613591271
  0
LINE
  8
_0-0_
  6
CONTINUOUS
 62
    7
 10
303.30519880952392
 20
287.66071613591265
 11
303.30519880952392
 21
301.16071613591265
  0
LINE
  8
_0-0_
  6
CONTINUOUS
 62
    7
 10
310.30519880952392
 20
301.16071613591265
 11
303.30519880952392
 21
301.16071613591265
  0
LINE
  8
_0-0_
  6
CONTINUOUS
 62
    7
 10
310.30519880952392
 20
287.66071613591265
 11
303.30519880952392
 21
287.66071613591265
  0
LINE
  8
_0-0_
  6
CONTINUOUS
 62
    7
 10
310.30519880952392
 20
287.66071613591265
 11
310.30519880952392
 21
292.86151613591267
  0
LINE
  8
_0-0_
  6
CONTINUOUS
 62
    7
 10
311.68056005902389
 20
288.13642792091269
 11
311.68056005902389
 21
292.86151613591267
  0
LINE
  8
_0-0_
  6
CONTINUOUS
 62
    7
 10
325.72983756002401
 20
288.13642792091269
 11
311.68056005902389
 21
288.13642792091269
  0
LINE
  8
_0-0_
  6
CONTINUOUS
 62
    7
 10
310.30519880952392
 20
297.46141613591266
 11
310.30519880952392
 21
301.16071613591265
  0
LINE
  8
_0-0_
  6
CONTINUOUS
 62
    7
 10
311.68056005902389
 20
302.18540435091268
 11
325.72983756002401
 21
302.18540435091268
  0
LINE
  8
_0-0_
  6
CONTINUOUS
 62
    7
 10
334.10519880952398
 20
301.16071613591265
 11
327.10519880952398
 21
301.16071613591265
  0
LINE
  8
_0-0_
  6
CONTINUOUS
 62
    7
 10
334.10519880952398
 20
287.66071613591265
 11
334.10519880952398
 21
301.16071613591265
  0
LINE
  8
_0-0_
  6
CONTINUOUS
 62
    7
 10
334.10519880952398
 20
287.66071613591265
 11
327.10519880952398
 21
287.66071613591265
  0
LINE
  8
_0-0_
  6
CONTINUOUS
 62
    7
 10
327.10519880952398
 20
287.66071613591265
 11
327.10519880952398
 21
292.86151613591267
  0
LINE
  8
_0-0_
  6
CONTINUOUS
 62
    7
 10
327.10519880952398
 20
297.46141613591266
 11
327.10519880952398
 21
301.16071613591265
  0
LINE
  8
_0-0_
  6
CONTINUOUS
 62
    7
 10
629.86302380952384
 20
395.41044613591276
 11
438.12474130952387
 21
395.41044613591276
  0
LINE
  8
_0-0_
  6
CONTINUOUS
 62
    7
 10
271.4628738095239
 20
395.41044613591271
 11
434.62474130952387
 21
395.41044613591271
  0
LINE
  8
_0-0_
  6
CONTINUOUS
 62
    7
 10
271.4628738095239
 20
261.58571113591267
 11
444.15038630952381
 21
261.58571113591267
  0
LINE
  8
_0-0_
  6
CONTINUOUS
 62
    7
 10
268.4628738095239
 20
264.58571113591267
 11
268.4628738095239
 21
392.41044613591271
  0
LINE
  8
_0-0_
  6
CONTINUOUS
 62
    7
 10
437.12474130952387
 20
394.41044613591276
 11
437.12474130952387
 21
376.91044613591276
  0
LINE
  8
_0-0_
  6
CONTINUOUS
 62
    7
 10
437.12474130952387
 20
373.91044613591276
 11
437.12474130952387
 21
329.99807863591269
  0
LINE
  8
_0-0_
  6
CONTINUOUS
 62
    7
 10
446.35177341496956
 20
286.83006840289977
 11
437.42335420407818
 21
322.54137386892552
  0
LINE
  8
_0-0_
  6
CONTINUOUS
 62
    7
 10
446.65038630952387
 20
280.08571113591267
 11
446.65038630952387
 21
262.58571113591262
  0
LINE
  8
_0-0_
  6
CONTINUOUS
 62
    7
 10
445.15038630952381
 20
280.08571113591267
 11
445.15038630952381
 21
262.58571113591267
  0
LINE
  8
_0-0_
  6
CONTINUOUS
 62
    7
 10
444.85177341496956
 20
286.83006840289983
 11
435.92335420407812
 21
322.54137386892552
  0
LINE
  8
_0-0_
  6
CONTINUOUS
 62
    7
 10
435.62474130952387
 20
373.91044613591276
 11
435.62474130952387
 21
329.99807863591269
  0
LINE
  8
_0-0_
  6
CONTINUOUS
 62
    7
 10
435.62474130952387
 20
394.41044613591276
 11
435.62474130952387
 21
376.91044613591276
  0
ARC
  8
_0-0_
  6
CONTINUOUS
 62
    7
 10
271.4628738095239
 20
392.41044613591271
 40
3
 50
90
 51
180
  0
ARC
  8
_0-0_
  6
CONTINUOUS
 62
    7
 10
445.62474130952387
 20
324.96688169828673
 40
10
 50
180
 51
194.03713868216576
  0
ARC
  8
_0-0_
  6
CONTINUOUS
 62
    7
 10
434.62474130952387
 20
394.41044613591276
 40
1
 50
0
 51
90
  0
ARC
  8
_0-0_
  6
CONTINUOUS
 62
    7
 10
435.15038630952381
 20
284.40456057353862
 40
10
 50
0
 51
14.037138682165798
  0
ARC
  8
_0-0_
  6
CONTINUOUS
 62
    7
 10
444.15038630952381
 20
262.58571113591267
 40
1
 50
270
 51
0
  0
ARC
  8
_0-0_
  6
CONTINUOUS
 62
    7
 10
271.4628738095239
 20
264.58571113591267
 40
3
 50
180
 51
270
  0
CIRCLE
  8
_0-0_
  6
CONTINUOUS
 62
    7
 10
271.4628738095239
 20
392.41044613591271
 40
1.1000000000000001
  0
CIRCLE
  8
_0-0_
  6
CONTINUOUS
 62
    7
 10
271.4628738095239
 20
264.58571113591267
 40
1.1000000000000001
  0
CIRCLE
  8
_0-0_
  6
CONTINUOUS
 62
    7
 10
442.15038630952381
 20
264.58571113591267
 40
1.1000000000000001
  0
CIRCLE
  8
_0-0_
  6
CONTINUOUS
 62
    7
 10
432.62474130952387
 20
392.41044613591271
 40
1.1000000000000001
  0
LINE
  8
_0-0_
  6
CONTINUOUS
 62
    7
 10
406.93046005902386
 20
283.0859279209127
 11
420.93146005902383
 21
283.0859279209127
  0
LINE
  8
_0-0_
  6
CONTINUOUS
 62
    7
 10
420.93146005902383
 20
283.0859279209127
 11
420.93146005902383
 21
269.08645792091272
  0
LINE
  8
_0-0_
  6
CONTINUOUS
 62
    7
 10
420.93146005902383
 20
269.08645792091272
 11
406.93046005902386
 21
269.08645792091272
  0
LINE
  8
_0-0_
  6
CONTINUOUS
 62
    7
 10
406.93046005902386
 20
269.08645792091272
 11
406.93046005902386
 21
283.0859279209127
  0
LINE
  8
_0-0_
  6
CONTINUOUS
 62
    7
 10
385.50046005902385
 20
283.0859279209127
 11
399.50046005902385
 21
283.0859279209127
  0
LINE
  8
_0-0_
  6
CONTINUOUS
 62
    7
 10
399.50046005902385
 20
283.0859279209127
 11
399.50046005902385
 21
269.08645792091272
  0
LINE
  8
_0-0_
  6
CONTINUOUS
 62
    7
 10
399.50046005902385
 20
269.08645792091272
 11
385.50046005902385
 21
269.08645792091272
  0
LINE
  8
_0-0_
  6
CONTINUOUS
 62
    7
 10
385.50046005902385
 20
269.08645792091272
 11
385.50046005902385
 21
283.0859279209127
  0
LINE
  8
_0-0_
  6
CONTINUOUS
 62
    7
 10
366.4506600590239
 20
283.0859279209127
 11
380.45046005902384
 21
283.0859279209127
  0
LINE
  8
_0-0_
  6
CONTINUOUS
 62
    7
 10
380.45046005902384
 20
283.0859279209127
 11
380.45046005902384
 21
269.08645792091272
  0
LINE
  8
_0-0_
  6
CONTINUOUS
 62
    7
 10
380.45046005902384
 20
269.08645792091272
 11
366.4506600590239
 21
269.08645792091272
  0
LINE
  8
_0-0_
  6
CONTINUOUS
 62
    7
 10
366.4506600590239
 20
269.08645792091272
 11
366.4506600590239
 21
283.0859279209127
  0
LINE
  8
_0-0_
  6
CONTINUOUS
 62
    7
 10
345.01946005902386
 20
283.0859279209127
 11
359.01876005902386
 21
283.0859279209127
  0
LINE
  8
_0-0_
  6
CONTINUOUS
 62
    7
 10
359.01876005902386
 20
283.0859279209127
 11
359.01876005902386
 21
269.08645792091272
  0
LINE
  8
_0-0_
  6
CONTINUOUS
 62
    7
 10
359.01876005902386
 20
269.08645792091272
 11
345.01946005902386
 21
269.08645792091272
  0
LINE
  8
_0-0_
  6
CONTINUOUS
 62
    7
 10
345.01946005902386
 20
269.08645792091272
 11
345.01946005902386
 21
283.0859279209127
  0
LINE
  8
_0-0_
  6
CONTINUOUS
 62
    7
 10
323.58816005902389
 20
283.0859279209127
 11
337.5874600590239
 21
283.0859279209127
  0
LINE
  8
_0-0_
  6
CONTINUOUS
 62
    7
 10
337.5874600590239
 20
283.0859279209127
 11
337.5874600590239
 21
269.08645792091272
  0
LINE
  8
_0-0_
  6
CONTINUOUS
 62
    7
 10
337.5874600590239
 20
269.08645792091272
 11
323.58816005902389
 21
269.08645792091272
  0
LINE
  8
_0-0_
  6
CONTINUOUS
 62
    7
 10
323.58816005902389
 20
269.08645792091272
 11
323.58816005902389
 21
283.0859279209127
  0
LINE
  8
_0-0_
  6
CONTINUOUS
 62
    7
 10
302.15546005902388
 20
283.0859279209127
 11
316.15626005902385
 21
283.0859279209127
  0
LINE
  8
_0-0_
  6
CONTINUOUS
 62
    7
 10
316.15626005902385
 20
283.0859279209127
 11
316.15626005902385
 21
269.08645792091272
  0
LINE
  8
_0-0_
  6
CONTINUOUS
 62
    7
 10
316.15626005902385
 20
269.08645792091272
 11
302.15546005902388
 21
269.08645792091272
  0
LINE
  8
_0-0_
  6
CONTINUOUS
 62
    7
 10
302.15546005902388
 20
269.08645792091272
 11
302.15546005902388
 21
283.0859279209127
  0
LINE
  8
_0-0_
  6
CONTINUOUS
 62
    7
 10
275.96311005902385
 20
283.0859279209127
 11
289.96266005902385
 21
283.0859279209127
  0
LINE
  8
_0-0_
  6
CONTINUOUS
 62
    7
 10
289.96266005902385
 20
283.0859279209127
 11
289.96266005902385
 21
269.08645792091272
  0
LINE
  8
_0-0_
  6
CONTINUOUS
 62
    7
 10
289.96266005902385
 20
269.08645792091272
 11
275.96311005902385
 21
269.08645792091272
  0
LINE
  8
_0-0_
  6
CONTINUOUS
 62
    7
 10
275.96311005902385
 20
269.08645792091272
 11
275.96311005902385
 21
283.0859279209127
  0
LINE
  8
_0-0_
  6
CONTINUOUS
 62
    7
 10
418.83846005902387
 20
302.13582792091273
 11
432.8374600590239
 21
302.13582792091273
  0
LINE
  8
_0-0_
  6
CONTINUOUS
 62
    7
 10
432.8374600590239
 20
302.13582792091273
 11
432.8374600590239
 21
288.13642792091269
  0
LINE
  8
_0-0_
  6
CONTINUOUS
 62
    7
 10
432.8374600590239
 20
288.13642792091269
 11
418.83846005902387
 21
288.13642792091269
  0
LINE
  8
_0-0_
  6
CONTINUOUS
 62
    7
 10
418.83846005902387
 20
288.13642792091269
 11
418.83846005902387
 21
302.13582792091273
  0
LINE
  8
_0-0_
  6
CONTINUOUS
 62
    7
 10
399.78846005902386
 20
302.13582792091273
 11
413.78746005902383
 21
302.13582792091273
  0
LINE
  8
_0-0_
  6
CONTINUOUS
 62
    7
 10
413.78746005902383
 20
302.13582792091273
 11
413.78746005902383
 21
288.13642792091269
  0
LINE
  8
_0-0_
  6
CONTINUOUS
 62
    7
 10
413.78746005902383
 20
288.13642792091269
 11
399.78846005902386
 21
288.13642792091269
  0
LINE
  8
_0-0_
  6
CONTINUOUS
 62
    7
 10
399.78846005902386
 20
288.13642792091269
 11
399.78846005902386
 21
302.13582792091273
  0
LINE
  8
_0-0_
  6
CONTINUOUS
 62
    7
 10
380.73846005902385
 20
302.13582792091273
 11
394.73746005902387
 21
302.13582792091273
  0
LINE
  8
_0-0_
  6
CONTINUOUS
 62
    7
 10
394.73746005902387
 20
302.13582792091273
 11
394.73746005902387
 21
288.13642792091269
  0
LINE
  8
_0-0_
  6
CONTINUOUS
 62
    7
 10
394.73746005902387
 20
288.13642792091269
 11
380.73846005902385
 21
288.13642792091269
  0
LINE
  8
_0-0_
  6
CONTINUOUS
 62
    7
 10
380.73846005902385
 20
288.13642792091269
 11
380.73846005902385
 21
302.13582792091273
  0
LINE
  8
_0-0_
  6
CONTINUOUS
 62
    7
 10
361.68816005902386
 20
302.13582792091273
 11
375.68746005902386
 21
302.13582792091273
  0
LINE
  8
_0-0_
  6
CONTINUOUS
 62
    7
 10
375.68746005902386
 20
302.13582792091273
 11
375.68746005902386
 21
288.13642792091269
  0
LINE
  8
_0-0_
  6
CONTINUOUS
 62
    7
 10
375.68746005902386
 20
288.13642792091269
 11
361.68816005902386
 21
288.13642792091269
  0
LINE
  8
_0-0_
  6
CONTINUOUS
 62
    7
 10
361.68816005902386
 20
288.13642792091269
 11
361.68816005902386
 21
302.13582792091273
  0
LINE
  8
_0-0_
  6
CONTINUOUS
 62
    7
 10
342.6381600590239
 20
302.13582792091273
 11
356.63746005902385
 21
302.13582792091273
  0
LINE
  8
_0-0_
  6
CONTINUOUS
 62
    7
 10
356.63746005902385
 20
302.13582792091273
 11
356.63746005902385
 21
288.13642792091269
  0
LINE
  8
_0-0_
  6
CONTINUOUS
 62
    7
 10
356.63746005902385
 20
288.13642792091269
 11
342.6381600590239
 21
288.13642792091269
  0
LINE
  8
_0-0_
  6
CONTINUOUS
 62
    7
 10
342.6381600590239
 20
288.13642792091269
 11
342.6381600590239
 21
302.13582792091273
  0
LINE
  8
_0-0_
  6
CONTINUOUS
 62
    7
 10
275.96311005902385
 20
302.13582792091273
 11
289.96266005902385
 21
302.13582792091273
  0
LINE
  8
_0-0_
  6
CONTINUOUS
 62
    7
 10
289.96266005902385
 20
302.13582792091273
 11
289.96266005902385
 21
288.13642792091269
  0
LINE
  8
_0-0_
  6
CONTINUOUS
 62
    7
 10
289.96266005902385
 20
288.13642792091269
 11
275.96311005902385
 21
288.13642792091269
  0
LINE
  8
_0-0_
  6
CONTINUOUS
 62
    7
 10
275.96311005902385
 20
288.13642792091269
 11
275.96311005902385
 21
302.13582792091273
  0
LINE
  8
_0-0_
  6
CONTINUOUS
 62
    7
 10
409.3134600590239
 20
321.18582792091269
 11
423.31246005902386
 21
321.18582792091269
  0
LINE
  8
_0-0_
  6
CONTINUOUS
 62
    7
 10
423.31246005902386
 20
321.18582792091269
 11
423.31246005902386
 21
307.18662792091271
  0
LINE
  8
_0-0_
  6
CONTINUOUS
 62
    7
 10
423.31246005902386
 20
307.18662792091271
 11
409.3134600590239
 21
307.18662792091271
  0
LINE
  8
_0-0_
  6
CONTINUOUS
 62
    7
 10
409.3134600590239
 20
307.18662792091271
 11
409.3134600590239
 21
321.18582792091269
  0
LINE
  8
_0-0_
  6
CONTINUOUS
 62
    7
 10
390.26346005902388
 20
321.18582792091269
 11
404.26246005902385
 21
321.18582792091269
  0
LINE
  8
_0-0_
  6
CONTINUOUS
 62
    7
 10
404.26246005902385
 20
321.18582792091269
 11
404.26246005902385
 21
307.18662792091271
  0
LINE
  8
_0-0_
  6
CONTINUOUS
 62
    7
 10
404.26246005902385
 20
307.18662792091271
 11
390.26346005902388
 21
307.18662792091271
  0
LINE
  8
_0-0_
  6
CONTINUOUS
 62
    7
 10
390.26346005902388
 20
307.18662792091271
 11
390.26346005902388
 21
321.18582792091269
  0
LINE
  8
_0-0_
  6
CONTINUOUS
 62
    7
 10
371.21316005902383
 20
321.18582792091269
 11
385.2124600590239
 21
321.18582792091269
  0
LINE
  8
_0-0_
  6
CONTINUOUS
 62
    7
 10
385.2124600590239
 20
321.18582792091269
 11
385.2124600590239
 21
307.18662792091271
  0
LINE
  8
_0-0_
  6
CONTINUOUS
 62
    7
 10
385.2124600590239
 20
307.18662792091271
 11
371.21316005902383
 21
307.18662792091271
  0
LINE
  8
_0-0_
  6
CONTINUOUS
 62
    7
 10
371.21316005902383
 20
307.18662792091271
 11
371.21316005902383
 21
321.18582792091269
  0
LINE
  8
_0-0_
  6
CONTINUOUS
 62
    7
 10
352.16316005902388
 20
321.18582792091269
 11
366.16246005902389
 21
321.18582792091269
  0
LINE
  8
_0-0_
  6
CONTINUOUS
 62
    7
 10
366.16246005902389
 20
321.18582792091269
 11
366.16246005902389
 21
307.18662792091271
  0
LINE
  8
_0-0_
  6
CONTINUOUS
 62
    7
 10
366.16246005902389
 20
307.18662792091271
 11
352.16316005902388
 21
307.18662792091271
  0
LINE
  8
_0-0_
  6
CONTINUOUS
 62
    7
 10
352.16316005902388
 20
307.18662792091271
 11
352.16316005902388
 21
321.18582792091269
  0
LINE
  8
_0-0_
  6
CONTINUOUS
 62
    7
 10
333.11316005902387
 20
321.18582792091269
 11
347.11246005902387
 21
321.18582792091269
  0
LINE
  8
_0-0_
  6
CONTINUOUS
 62
    7
 10
347.11246005902387
 20
321.18582792091269
 11
347.11246005902387
 21
307.18662792091271
  0
LINE
  8
_0-0_
  6
CONTINUOUS
 62
    7
 10
347.11246005902387
 20
307.18662792091271
 11
333.11316005902387
 21
307.18662792091271
  0
LINE
  8
_0-0_
  6
CONTINUOUS
 62
    7
 10
333.11316005902387
 20
307.18662792091271
 11
333.11316005902387
 21
321.18582792091269
  0
LINE
  8
_0-0_
  6
CONTINUOUS
 62
    7
 10
306.91936005902386
 20
321.18582792091269
 11
320.91876005902384
 21
321.18582792091269
  0
LINE
  8
_0-0_
  6
CONTINUOUS
 62
    7
 10
320.91876005902384
 20
321.18582792091269
 11
320.91876005902384
 21
307.18662792091271
  0
LINE
  8
_0-0_
  6
CONTINUOUS
 62
    7
 10
320.91876005902384
 20
307.18662792091271
 11
306.91936005902386
 21
307.18662792091271
  0
LINE
  8
_0-0_
  6
CONTINUOUS
 62
    7
 10
306.91936005902386
 20
307.18662792091271
 11
306.91936005902386
 21
321.18582792091269
  0
LINE
  8
_0-0_
  6
CONTINUOUS
 62
    7
 10
275.96311005902385
 20
321.18582792091269
 11
289.96266005902385
 21
321.18582792091269
  0
LINE
  8
_0-0_
  6
CONTINUOUS
 62
    7
 10
289.96266005902385
 20
321.18582792091269
 11
289.96266005902385
 21
307.18662792091271
  0
LINE
  8
_0-0_
  6
CONTINUOUS
 62
    7
 10
289.96266005902385
 20
307.18662792091271
 11
275.96311005902385
 21
307.18662792091271
  0
LINE
  8
_0-0_
  6
CONTINUOUS
 62
    7
 10
275.96311005902385
 20
307.18662792091271
 11
275.96311005902385
 21
321.18582792091269
  0
LINE
  8
_0-0_
  6
CONTINUOUS
 62
    7
 10
404.55046005902386
 20
340.2358279209127
 11
418.55046005902386
 21
340.2358279209127
  0
LINE
  8
_0-0_
  6
CONTINUOUS
 62
    7
 10
418.55046005902386
 20
340.2358279209127
 11
418.55046005902386
 21
326.23662792091272
  0
LINE
  8
_0-0_
  6
CONTINUOUS
 62
    7
 10
418.55046005902386
 20
326.23662792091272
 11
404.55046005902386
 21
326.23662792091272
  0
LINE
  8
_0-0_
  6
CONTINUOUS
 62
    7
 10
404.55046005902386
 20
326.23662792091272
 11
404.55046005902386
 21
340.2358279209127
  0
LINE
  8
_0-0_
  6
CONTINUOUS
 62
    7
 10
385.50046005902385
 20
340.2358279209127
 11
399.50046005902385
 21
340.2358279209127
  0
LINE
  8
_0-0_
  6
CONTINUOUS
 62
    7
 10
399.50046005902385
 20
340.2358279209127
 11
399.50046005902385
 21
326.23662792091272
  0
LINE
  8
_0-0_
  6
CONTINUOUS
 62
    7
 10
399.50046005902385
 20
326.23662792091272
 11
385.50046005902385
 21
326.23662792091272
  0
LINE
  8
_0-0_
  6
CONTINUOUS
 62
    7
 10
385.50046005902385
 20
326.23662792091272
 11
385.50046005902385
 21
340.2358279209127
  0
LINE
  8
_0-0_
  6
CONTINUOUS
 62
    7
 10
366.4506600590239
 20
340.2358279209127
 11
380.45046005902384
 21
340.2358279209127
  0
LINE
  8
_0-0_
  6
CONTINUOUS
 62
    7
 10
380.45046005902384
 20
340.2358279209127
 11
380.45046005902384
 21
326.23662792091272
  0
LINE
  8
_0-0_
  6
CONTINUOUS
 62
    7
 10
380.45046005902384
 20
326.23662792091272
 11
366.4506600590239
 21
326.23662792091272
  0
LINE
  8
_0-0_
  6
CONTINUOUS
 62
    7
 10
366.4506600590239
 20
326.23662792091272
 11
366.4506600590239
 21
340.2358279209127
  0
LINE
  8
_0-0_
  6
CONTINUOUS
 62
    7
 10
347.40066005902383
 20
340.2358279209127
 11
361.3999600590239
 21
340.2358279209127
  0
LINE
  8
_0-0_
  6
CONTINUOUS
 62
    7
 10
361.3999600590239
 20
340.2358279209127
 11
361.3999600590239
 21
326.23662792091272
  0
LINE
  8
_0-0_
  6
CONTINUOUS
 62
    7
 10
361.3999600590239
 20
326.23662792091272
 11
347.40066005902383
 21
326.23662792091272
  0
LINE
  8
_0-0_
  6
CONTINUOUS
 62
    7
 10
347.40066005902383
 20
326.23662792091272
 11
347.40066005902383
 21
340.2358279209127
  0
LINE
  8
_0-0_
  6
CONTINUOUS
 62
    7
 10
328.35066005902388
 20
340.2358279209127
 11
342.34996005902389
 21
340.2358279209127
  0
LINE
  8
_0-0_
  6
CONTINUOUS
 62
    7
 10
342.34996005902389
 20
340.2358279209127
 11
342.34996005902389
 21
326.23662792091272
  0
LINE
  8
_0-0_
  6
CONTINUOUS
 62
    7
 10
342.34996005902389
 20
326.23662792091272
 11
328.35066005902388
 21
326.23662792091272
  0
LINE
  8
_0-0_
  6
CONTINUOUS
 62
    7
 10
328.35066005902388
 20
326.23662792091272
 11
328.35066005902388
 21
340.2358279209127
  0
LINE
  8
_0-0_
  6
CONTINUOUS
 62
    7
 10
304.53816005902388
 20
340.2358279209127
 11
318.53746005902389
 21
340.2358279209127
  0
LINE
  8
_0-0_
  6
CONTINUOUS
 62
    7
 10
318.53746005902389
 20
340.2358279209127
 11
318.53746005902389
 21
326.23662792091272
  0
LINE
  8
_0-0_
  6
CONTINUOUS
 62
    7
 10
318.53746005902389
 20
326.23662792091272
 11
304.53816005902388
 21
326.23662792091272
  0
LINE
  8
_0-0_
  6
CONTINUOUS
 62
    7
 10
304.53816005902388
 20
326.23662792091272
 11
304.53816005902388
 21
340.2358279209127
  0
LINE
  8
_0-0_
  6
CONTINUOUS
 62
    7
 10
275.96311005902385
 20
340.2358279209127
 11
289.96266005902385
 21
340.2358279209127
  0
LINE
  8
_0-0_
  6
CONTINUOUS
 62
    7
 10
289.96266005902385
 20
340.2358279209127
 11
289.96266005902385
 21
326.23662792091272
  0
LINE
  8
_0-0_
  6
CONTINUOUS
 62
    7
 10
289.96266005902385
 20
326.23662792091272
 11
275.96311005902385
 21
326.23662792091272
  0
LINE
  8
_0-0_
  6
CONTINUOUS
 62
    7
 10
275.96311005902385
 20
326.23662792091272
 11
275.96311005902385
 21
340.2358279209127
  0
LINE
  8
_0-0_
  6
CONTINUOUS
 62
    7
 10
414.07546005902384
 20
359.28582792091271
 11
428.07546005902384
 21
359.28582792091271
  0
LINE
  8
_0-0_
  6
CONTINUOUS
 62
    7
 10
428.07546005902384
 20
359.28582792091271
 11
428.07546005902384
 21
345.28662792091274
  0
LINE
  8
_0-0_
  6
CONTINUOUS
 62
    7
 10
428.07546005902384
 20
345.28662792091274
 11
414.07546005902384
 21
345.28662792091274
  0
LINE
  8
_0-0_
  6
CONTINUOUS
 62
    7
 10
414.07546005902384
 20
345.28662792091274
 11
414.07546005902384
 21
359.28582792091271
  0
LINE
  8
_0-0_
  6
CONTINUOUS
 62
    7
 10
395.02546005902389
 20
359.28582792091271
 11
409.02546005902389
 21
359.28582792091271
  0
LINE
  8
_0-0_
  6
CONTINUOUS
 62
    7
 10
409.02546005902389
 20
359.28582792091271
 11
409.02546005902389
 21
345.28662792091274
  0
LINE
  8
_0-0_
  6
CONTINUOUS
 62
    7
 10
409.02546005902389
 20
345.28662792091274
 11
395.02546005902389
 21
345.28662792091274
  0
LINE
  8
_0-0_
  6
CONTINUOUS
 62
    7
 10
395.02546005902389
 20
345.28662792091274
 11
395.02546005902389
 21
359.28582792091271
  0
LINE
  8
_0-0_
  6
CONTINUOUS
 62
    7
 10
375.97546005902387
 20
359.28582792091271
 11
389.97546005902387
 21
359.28582792091271
  0
LINE
  8
_0-0_
  6
CONTINUOUS
 62
    7
 10
389.97546005902387
 20
359.28582792091271
 11
389.97546005902387
 21
345.28662792091274
  0
LINE
  8
_0-0_
  6
CONTINUOUS
 62
    7
 10
389.97546005902387
 20
345.28662792091274
 11
375.97546005902387
 21
345.28662792091274
  0
LINE
  8
_0-0_
  6
CONTINUOUS
 62
    7
 10
375.97546005902387
 20
345.28662792091274
 11
375.97546005902387
 21
359.28582792091271
  0
LINE
  8
_0-0_
  6
CONTINUOUS
 62
    7
 10
356.92566005902387
 20
359.28582792091271
 11
370.92496005902387
 21
359.28582792091271
  0
LINE
  8
_0-0_
  6
CONTINUOUS
 62
    7
 10
370.92496005902387
 20
359.28582792091271
 11
370.92496005902387
 21
345.28662792091274
  0
LINE
  8
_0-0_
  6
CONTINUOUS
 62
    7
 10
370.92496005902387
 20
345.28662792091274
 11
356.92566005902387
 21
345.28662792091274
  0
LINE
  8
_0-0_
  6
CONTINUOUS
 62
    7
 10
356.92566005902387
 20
345.28662792091274
 11
356.92566005902387
 21
359.28582792091271
  0
LINE
  8
_0-0_
  6
CONTINUOUS
 62
    7
 10
337.87566005902386
 20
359.28582792091271
 11
351.87496005902386
 21
359.28582792091271
  0
LINE
  8
_0-0_
  6
CONTINUOUS
 62
    7
 10
351.87496005902386
 20
359.28582792091271
 11
351.87496005902386
 21
345.28662792091274
  0
LINE
  8
_0-0_
  6
CONTINUOUS
 62
    7
 10
351.87496005902386
 20
345.28662792091274
 11
337.87566005902386
 21
345.28662792091274
  0
LINE
  8
_0-0_
  6
CONTINUOUS
 62
    7
 10
337.87566005902386
 20
345.28662792091274
 11
337.87566005902386
 21
359.28582792091271
  0
LINE
  8
_0-0_
  6
CONTINUOUS
 62
    7
 10
318.82566005902385
 20
359.28582792091271
 11
332.82496005902385
 21
359.28582792091271
  0
LINE
  8
_0-0_
  6
CONTINUOUS
 62
    7
 10
332.82496005902385
 20
359.28582792091271
 11
332.82496005902385
 21
345.28662792091274
  0
LINE
  8
_0-0_
  6
CONTINUOUS
 62
    7
 10
332.82496005902385
 20
345.28662792091274
 11
318.82566005902385
 21
345.28662792091274
  0
LINE
  8
_0-0_
  6
CONTINUOUS
 62
    7
 10
318.82566005902385
 20
345.28662792091274
 11
318.82566005902385
 21
359.28582792091271
  0
LINE
  8
_0-0_
  6
CONTINUOUS
 62
    7
 10
299.77566005902389
 20
359.28582792091271
 11
313.7749600590239
 21
359.28582792091271
  0
LINE
  8
_0-0_
  6
CONTINUOUS
 62
    7
 10
313.7749600590239
 20
359.28582792091271
 11
313.7749600590239
 21
345.28662792091274
  0
LINE
  8
_0-0_
  6
CONTINUOUS
 62
    7
 10
313.7749600590239
 20
345.28662792091274
 11
299.77566005902389
 21
345.28662792091274
  0
LINE
  8
_0-0_
  6
CONTINUOUS
 62
    7
 10
299.77566005902389
 20
345.28662792091274
 11
299.77566005902389
 21
359.28582792091271
  0
LINE
  8
_0-0_
  6
CONTINUOUS
 62
    7
 10
275.96311005902385
 20
359.28582792091271
 11
289.96266005902385
 21
359.28582792091271
  0
LINE
  8
_0-0_
  6
CONTINUOUS
 62
    7
 10
289.96266005902385
 20
359.28582792091271
 11
289.96266005902385
 21
345.28662792091274
  0
LINE
  8
_0-0_
  6
CONTINUOUS
 62
    7
 10
289.96266005902385
 20
345.28662792091274
 11
275.96311005902385
 21
345.28662792091274
  0
LINE
  8
_0-0_
  6
CONTINUOUS
 62
    7
 10
275.96311005902385
 20
345.28662792091274
 11
275.96311005902385
 21
359.28582792091271
  0
LINE
  8
_0-0_
  6
CONTINUOUS
 62
    7
 10
414.07546005902384
 20
387.86042792091268
 11
428.07546005902384
 21
387.86042792091268
  0
LINE
  8
_0-0_
  6
CONTINUOUS
 62
    7
 10
428.07546005902384
 20
387.86042792091268
 11
428.07546005902384
 21
373.86142792091272
  0
LINE
  8
_0-0_
  6
CONTINUOUS
 62
    7
 10
428.07546005902384
 20
373.86142792091272
 11
414.07546005902384
 21
373.86142792091272
  0
LINE
  8
_0-0_
  6
CONTINUOUS
 62
    7
 10
414.07546005902384
 20
373.86142792091272
 11
414.07546005902384
 21
387.86042792091268
  0
LINE
  8
_0-0_
  6
CONTINUOUS
 62
    7
 10
385.50046005902385
 20
387.86042792091268
 11
399.50046005902385
 21
387.86042792091268
  0
LINE
  8
_0-0_
  6
CONTINUOUS
 62
    7
 10
399.50046005902385
 20
387.86042792091268
 11
399.50046005902385
 21
373.86142792091272
  0
LINE
  8
_0-0_
  6
CONTINUOUS
 62
    7
 10
399.50046005902385
 20
373.86142792091272
 11
385.50046005902385
 21
373.86142792091272
  0
LINE
  8
_0-0_
  6
CONTINUOUS
 62
    7
 10
385.50046005902385
 20
373.86142792091272
 11
385.50046005902385
 21
387.86042792091268
  0
LINE
  8
_0-0_
  6
CONTINUOUS
 62
    7
 10
366.4506600590239
 20
387.86042792091268
 11
380.45046005902384
 21
387.86042792091268
  0
LINE
  8
_0-0_
  6
CONTINUOUS
 62
    7
 10
380.45046005902384
 20
387.86042792091268
 11
380.45046005902384
 21
373.86142792091272
  0
LINE
  8
_0-0_
  6
CONTINUOUS
 62
    7
 10
380.45046005902384
 20
373.86142792091272
 11
366.4506600590239
 21
373.86142792091272
  0
LINE
  8
_0-0_
  6
CONTINUOUS
 62
    7
 10
366.4506600590239
 20
373.86142792091272
 11
366.4506600590239
 21
387.86042792091268
  0
LINE
  8
_0-0_
  6
CONTINUOUS
 62
    7
 10
347.40066005902383
 20
387.86042792091268
 11
361.3999600590239
 21
387.86042792091268
  0
LINE
  8
_0-0_
  6
CONTINUOUS
 62
    7
 10
361.3999600590239
 20
387.86042792091268
 11
361.3999600590239
 21
373.86142792091272
  0
LINE
  8
_0-0_
  6
CONTINUOUS
 62
    7
 10
361.3999600590239
 20
373.86142792091272
 11
347.40066005902383
 21
373.86142792091272
  0
LINE
  8
_0-0_
  6
CONTINUOUS
 62
    7
 10
347.40066005902383
 20
373.86142792091272
 11
347.40066005902383
 21
387.86042792091268
  0
LINE
  8
_0-0_
  6
CONTINUOUS
 62
    7
 10
328.35066005902388
 20
387.86042792091268
 11
342.34996005902389
 21
387.86042792091268
  0
LINE
  8
_0-0_
  6
CONTINUOUS
 62
    7
 10
342.34996005902389
 20
387.86042792091268
 11
342.34996005902389
 21
373.86142792091272
  0
LINE
  8
_0-0_
  6
CONTINUOUS
 62
    7
 10
342.34996005902389
 20
373.86142792091272
 11
328.35066005902388
 21
373.86142792091272
  0
LINE
  8
_0-0_
  6
CONTINUOUS
 62
    7
 10
328.35066005902388
 20
373.86142792091272
 11
328.35066005902388
 21
387.86042792091268
  0
LINE
  8
_0-0_
  6
CONTINUOUS
 62
    7
 10
299.77566005902389
 20
387.86042792091268
 11
313.7749600590239
 21
387.86042792091268
  0
LINE
  8
_0-0_
  6
CONTINUOUS
 62
    7
 10
313.7749600590239
 20
387.86042792091268
 11
313.7749600590239
 21
373.86142792091272
  0
LINE
  8
_0-0_
  6
CONTINUOUS
 62
    7
 10
313.7749600590239
 20
373.86142792091272
 11
299.77566005902389
 21
373.86142792091272
  0
LINE
  8
_0-0_
  6
CONTINUOUS
 62
    7
 10
299.77566005902389
 20
373.86142792091272
 11
299.77566005902389
 21
387.86042792091268
  0
LINE
  8
_0-0_
  6
CONTINUOUS
 62
    7
 10
311.68056005902389
 20
297.46141613591266
 11
311.68056005902389
 21
302.18540435091268
  0
LINE
  8
_0-0_
  6
CONTINUOUS
 62
    7
 10
311.68056005902389
 20
297.46141613591266
 11
310.30519880952392
 21
297.46141613591266
  0
LINE
  8
_0-0_
  6
CONTINUOUS
 62
    7
 10
310.30519880952392
 20
292.86151613591267
 11
311.68056005902389
 21
292.86151613591267
  0
LINE
  8
_0-0_
  6
CONTINUOUS
 62
    7
 10
325.72983756002401
 20
302.18540435091268
 11
325.72983756002401
 21
297.46141613591266
  0
LINE
  8
_0-0_
  6
CONTINUOUS
 62
    7
 10
327.10519880952398
 20
297.46141613591266
 11
325.72983756002401
 21
297.46141613591266
  0
LINE
  8
_0-0_
  6
CONTINUOUS
 62
    7
 10
325.72983756002401
 20
292.86151613591267
 11
325.72983756002401
 21
288.13642792091269
  0
LINE
  8
_0-0_
  6
CONTINUOUS
 62
    7
 10
325.72983756002401
 20
292.86151613591267
 11
327.10519880952398
 21
292.86151613591267
  0
LINE
  8
_0-0_
  6
CONTINUOUS
 62
    7
 10
589.84282380952391
 20
332.13574613591271
 11
589.84282380952391
 21
330.76033435091273
  0
LINE
  8
_0-0_
  6
CONTINUOUS
 62
    7
 10
594.44272380952384
 20
330.76033435091273
 11
594.44272380952384
 21
332.13574613591271
  0
LINE
  8
_0-0_
  6
CONTINUOUS
 62
    7
 10
589.84282380952391
 20
316.7113579209128
 11
589.84282380952391
 21
315.3357461359127
  0
LINE
  8
_0-0_
  6
CONTINUOUS
 62
    7
 10
594.44272380952384
 20
315.3357461359127
 11
594.44272380952384
 21
316.7113579209128
  0
LINE
  8
_0-0_
  6
CONTINUOUS
 62
    7
 10
589.84282380952391
 20
316.7113579209128
 11
585.11883461277387
 21
316.7113579209128
  0
LINE
  8
_0-0_
  6
CONTINUOUS
 62
    7
 10
446.65038630952387
 20
283.08571113591267
 11
446.65038630952387
 21
284.40456057353856
  0
ARC
  8
_0-0_
  6
CONTINUOUS
 62
    7
 10
447.12474130952387
 20
324.96688169828673
 40
10
 50
180
 51
194.03713868216576
  0
ARC
  8
_0-0_
  6
CONTINUOUS
 62
    7
 10
438.12474130952387
 20
394.41044613591276
 40
1
 50
90
 51
180
  0
ARC
  8
_0-0_
  6
CONTINUOUS
 62
    7
 10
447.65038630952387
 20
262.58571113591262
 40
1
 50
180
 51
270
  0
LINE
  8
_0-0_
  6
CONTINUOUS
 62
    7
 10
629.86302380952384
 20
261.58571113591262
 11
447.65038630952387
 21
261.58571113591262
  0
ARC
  8
_0-0_
  6
CONTINUOUS
 62
    7
 10
629.86302380952384
 20
264.58571113591262
 40
3
 50
270
 51
0
  0
LINE
  8
_0-0_
  6
CONTINUOUS
 62
    7
 10
632.86302380952384
 20
392.41044613591276
 11
632.86302380952384
 21
264.58571113591262
  0
ARC
  8
_0-0_
  6
CONTINUOUS
 62
    7
 10
629.86302380952384
 20
392.41044613591276
 40
3
 50
0
 51
90
  0
CIRCLE
  8
_0-0_
  6
CONTINUOUS
 62
    7
 10
440.12474130952387
 20
392.41044613591276
 40
1.1000000000000001
  0
CIRCLE
  8
_0-0_
  6
CONTINUOUS
 62
    7
 10
449.65038630952387
 20
264.58571113591262
 40
1.1000000000000001
  0
CIRCLE
  8
_0-0_
  6
CONTINUOUS
 62
    7
 10
629.86302380952384
 20
264.58571113591262
 40
1.1000000000000001
  0
CIRCLE
  8
_0-0_
  6
CONTINUOUS
 62
    7
 10
629.86302380952384
 20
392.41044613591276
 40
1.1000000000000001
  0
ARC
  8
_0-0_
  6
CONTINUOUS
 62
    7
 10
436.65038630952387
 20
284.40456057353856
 40
10
 50
0
 51
14.037138682165798
  0
LINE
  8
_0-0_
  6
CONTINUOUS
 62
    7
 10
589.84282380952391
 20
315.3357461359127
 11
586.14352380952391
 21
315.3357461359127
  0
LINE
  8
_0-0_
  6
CONTINUOUS
 62
    7
 10
599.64352380952391
 20
315.3357461359127
 11
594.44272380952384
 21
315.3357461359127
  0
LINE
  8
_0-0_
  6
CONTINUOUS
 62
    7
 10
444.62568461277385
 20
387.90993435091264
 11
458.67521300627379
 21
387.90993435091264
  0
LINE
  8
_0-0_
  6
CONTINUOUS
 62
    7
 10
458.67521300627379
 20
387.90993435091264
 11
458.67521300627379
 21
373.86095792091271
  0
LINE
  8
_0-0_
  6
CONTINUOUS
 62
    7
 10
458.67521300627379
 20
373.86095792091271
 11
444.62568461277385
 21
373.86095792091271
  0
LINE
  8
_0-0_
  6
CONTINUOUS
 62
    7
 10
444.62568461277385
 20
373.86095792091271
 11
444.62568461277385
 21
387.90993435091264
  0
LINE
  8
_0-0_
  6
CONTINUOUS
 62
    7
 10
463.67573461277391
 20
387.90993435091264
 11
477.72526300627391
 21
387.90993435091264
  0
LINE
  8
_0-0_
  6
CONTINUOUS
 62
    7
 10
477.72526300627391
 20
387.90993435091264
 11
477.72526300627391
 21
373.86095792091271
  0
LINE
  8
_0-0_
  6
CONTINUOUS
 62
    7
 10
477.72526300627391
 20
373.86095792091271
 11
463.67573461277391
 21
373.86095792091271
  0
LINE
  8
_0-0_
  6
CONTINUOUS
 62
    7
 10
463.67573461277391
 20
373.86095792091271
 11
463.67573461277391
 21
387.90993435091264
  0
LINE
  8
_0-0_
  6
CONTINUOUS
 62
    7
 10
482.72573461277381
 20
387.90993435091264
 11
496.77526300627386
 21
387.90993435091264
  0
LINE
  8
_0-0_
  6
CONTINUOUS
 62
    7
 10
496.77526300627386
 20
387.90993435091264
 11
496.77526300627386
 21
373.86095792091271
  0
LINE
  8
_0-0_
  6
CONTINUOUS
 62
    7
 10
496.77526300627386
 20
373.86095792091271
 11
482.72573461277381
 21
373.86095792091271
  0
LINE
  8
_0-0_
  6
CONTINUOUS
 62
    7
 10
482.72573461277381
 20
373.86095792091271
 11
482.72573461277381
 21
387.90993435091264
  0
LINE
  8
_0-0_
  6
CONTINUOUS
 62
    7
 10
501.77573461277387
 20
387.90993435091264
 11
515.82526300627387
 21
387.90993435091264
  0
LINE
  8
_0-0_
  6
CONTINUOUS
 62
    7
 10
515.82526300627387
 20
387.90993435091264
 11
515.82526300627387
 21
373.86095792091271
  0
LINE
  8
_0-0_
  6
CONTINUOUS
 62
    7
 10
515.82526300627387
 20
373.86095792091271
 11
501.77573461277387
 21
373.86095792091271
  0
LINE
  8
_0-0_
  6
CONTINUOUS
 62
    7
 10
501.77573461277387
 20
373.86095792091271
 11
501.77573461277387
 21
387.90993435091264
  0
LINE
  8
_0-0_
  6
CONTINUOUS
 62
    7
 10
530.35073461277375
 20
387.90993435091264
 11
544.40026300627392
 21
387.90993435091264
  0
LINE
  8
_0-0_
  6
CONTINUOUS
 62
    7
 10
544.40026300627392
 20
387.90993435091264
 11
544.40026300627392
 21
373.86095792091271
  0
LINE
  8
_0-0_
  6
CONTINUOUS
 62
    7
 10
544.40026300627392
 20
373.86095792091271
 11
530.35073461277375
 21
373.86095792091271
  0
LINE
  8
_0-0_
  6
CONTINUOUS
 62
    7
 10
530.35073461277375
 20
373.86095792091271
 11
530.35073461277375
 21
387.90993435091264
  0
LINE
  8
_0-0_
  6
CONTINUOUS
 62
    7
 10
549.40103461277386
 20
387.90993435091264
 11
563.4505630062738
 21
387.90993435091264
  0
LINE
  8
_0-0_
  6
CONTINUOUS
 62
    7
 10
563.4505630062738
 20
387.90993435091264
 11
563.4505630062738
 21
373.86095792091271
  0
LINE
  8
_0-0_
  6
CONTINUOUS
 62
    7
 10
563.4505630062738
 20
373.86095792091271
 11
549.40103461277386
 21
373.86095792091271
  0
LINE
  8
_0-0_
  6
CONTINUOUS
 62
    7
 10
549.40103461277386
 20
373.86095792091271
 11
549.40103461277386
 21
387.90993435091264
  0
LINE
  8
_0-0_
  6
CONTINUOUS
 62
    7
 10
568.45103461277381
 20
387.90993435091264
 11
582.50056300627398
 21
387.90993435091264
  0
LINE
  8
_0-0_
  6
CONTINUOUS
 62
    7
 10
582.50056300627398
 20
387.90993435091264
 11
582.50056300627398
 21
373.86095792091271
  0
LINE
  8
_0-0_
  6
CONTINUOUS
 62
    7
 10
582.50056300627398
 20
373.86095792091271
 11
568.45103461277381
 21
373.86095792091271
  0
LINE
  8
_0-0_
  6
CONTINUOUS
 62
    7
 10
568.45103461277381
 20
373.86095792091271
 11
568.45103461277381
 21
387.90993435091264
  0
LINE
  8
_0-0_
  6
CONTINUOUS
 62
    7
 10
587.50103461277376
 20
387.90993435091264
 11
601.55056300627393
 21
387.90993435091264
  0
LINE
  8
_0-0_
  6
CONTINUOUS
 62
    7
 10
601.55056300627393
 20
387.90993435091264
 11
601.55056300627393
 21
373.86095792091271
  0
LINE
  8
_0-0_
  6
CONTINUOUS
 62
    7
 10
601.55056300627393
 20
373.86095792091271
 11
587.50103461277376
 21
373.86095792091271
  0
LINE
  8
_0-0_
  6
CONTINUOUS
 62
    7
 10
587.50103461277376
 20
373.86095792091271
 11
587.50103461277376
 21
387.90993435091264
  0
LINE
  8
_0-0_
  6
CONTINUOUS
 62
    7
 10
611.31303461277389
 20
359.33533435091272
 11
625.36256300627383
 21
359.33533435091272
  0
LINE
  8
_0-0_
  6
CONTINUOUS
 62
    7
 10
625.36256300627383
 20
359.33533435091272
 11
625.36256300627383
 21
345.28635792091279
  0
LINE
  8
_0-0_
  6
CONTINUOUS
 62
    7
 10
625.36256300627383
 20
345.28635792091279
 11
611.31303461277389
 21
345.28635792091279
  0
LINE
  8
_0-0_
  6
CONTINUOUS
 62
    7
 10
611.31303461277389
 20
345.28635792091279
 11
611.31303461277389
 21
359.33533435091272
  0
LINE
  8
_0-0_
  6
CONTINUOUS
 62
    7
 10
611.31303461277389
 20
340.28533435091265
 11
625.36256300627383
 21
340.28533435091265
  0
LINE
  8
_0-0_
  6
CONTINUOUS
 62
    7
 10
625.36256300627383
 20
340.28533435091265
 11
625.36256300627383
 21
326.23635792091272
  0
LINE
  8
_0-0_
  6
CONTINUOUS
 62
    7
 10
625.36256300627383
 20
326.23635792091272
 11
611.31303461277389
 21
326.23635792091272
  0
LINE
  8
_0-0_
  6
CONTINUOUS
 62
    7
 10
611.31303461277389
 20
326.23635792091272
 11
611.31303461277389
 21
340.28533435091265
  0
LINE
  8
_0-0_
  6
CONTINUOUS
 62
    7
 10
587.50103461277376
 20
359.33533435091272
 11
601.55056300627393
 21
359.33533435091272
  0
LINE
  8
_0-0_
  6
CONTINUOUS
 62
    7
 10
601.55056300627393
 20
359.33533435091272
 11
601.55056300627393
 21
345.28635792091279
  0
LINE
  8
_0-0_
  6
CONTINUOUS
 62
    7
 10
601.55056300627393
 20
345.28635792091279
 11
587.50103461277376
 21
345.28635792091279
  0
LINE
  8
_0-0_
  6
CONTINUOUS
 62
    7
 10
587.50103461277376
 20
345.28635792091279
 11
587.50103461277376
 21
359.33533435091272
  0
LINE
  8
_0-0_
  6
CONTINUOUS
 62
    7
 10
568.45103461277381
 20
359.33533435091272
 11
582.50056300627398
 21
359.33533435091272
  0
LINE
  8
_0-0_
  6
CONTINUOUS
 62
    7
 10
582.50056300627398
 20
359.33533435091272
 11
582.50056300627398
 21
345.28635792091279
  0
LINE
  8
_0-0_
  6
CONTINUOUS
 62
    7
 10
582.50056300627398
 20
345.28635792091279
 11
568.45103461277381
 21
345.28635792091279
  0
LINE
  8
_0-0_
  6
CONTINUOUS
 62
    7
 10
568.45103461277381
 20
345.28635792091279
 11
568.45103461277381
 21
359.33533435091272
  0
LINE
  8
_0-0_
  6
CONTINUOUS
 62
    7
 10
549.40103461277386
 20
359.33533435091272
 11
563.4505630062738
 21
359.33533435091272
  0
LINE
  8
_0-0_
  6
CONTINUOUS
 62
    7
 10
563.4505630062738
 20
359.33533435091272
 11
563.4505630062738
 21
345.28635792091279
  0
LINE
  8
_0-0_
  6
CONTINUOUS
 62
    7
 10
563.4505630062738
 20
345.28635792091279
 11
549.40103461277386
 21
345.28635792091279
  0
LINE
  8
_0-0_
  6
CONTINUOUS
 62
    7
 10
549.40103461277386
 20
345.28635792091279
 11
549.40103461277386
 21
359.33533435091272
  0
LINE
  8
_0-0_
  6
CONTINUOUS
 62
    7
 10
530.35073461277375
 20
359.33533435091272
 11
544.40026300627392
 21
359.33533435091272
  0
LINE
  8
_0-0_
  6
CONTINUOUS
 62
    7
 10
544.40026300627392
 20
359.33533435091272
 11
544.40026300627392
 21
345.28635792091279
  0
LINE
  8
_0-0_
  6
CONTINUOUS
 62
    7
 10
544.40026300627392
 20
345.28635792091279
 11
530.35073461277375
 21
345.28635792091279
  0
LINE
  8
_0-0_
  6
CONTINUOUS
 62
    7
 10
530.35073461277375
 20
345.28635792091279
 11
530.35073461277375
 21
359.33533435091272
  0
LINE
  8
_0-0_
  6
CONTINUOUS
 62
    7
 10
511.30073461277385
 20
359.33533435091272
 11
525.35026300627396
 21
359.33533435091272
  0
LINE
  8
_0-0_
  6
CONTINUOUS
 62
    7
 10
525.35026300627396
 20
359.33533435091272
 11
525.35026300627396
 21
345.28635792091279
  0
LINE
  8
_0-0_
  6
CONTINUOUS
 62
    7
 10
525.35026300627396
 20
345.28635792091279
 11
511.30073461277385
 21
345.28635792091279
  0
LINE
  8
_0-0_
  6
CONTINUOUS
 62
    7
 10
511.30073461277385
 20
345.28635792091279
 11
511.30073461277385
 21
359.33533435091272
  0
LINE
  8
_0-0_
  6
CONTINUOUS
 62
    7
 10
492.2507346127739
 20
359.33533435091272
 11
506.30026300627395
 21
359.33533435091272
  0
LINE
  8
_0-0_
  6
CONTINUOUS
 62
    7
 10
506.30026300627395
 20
359.33533435091272
 11
506.30026300627395
 21
345.28635792091279
  0
LINE
  8
_0-0_
  6
CONTINUOUS
 62
    7
 10
506.30026300627395
 20
345.28635792091279
 11
492.2507346127739
 21
345.28635792091279
  0
LINE
  8
_0-0_
  6
CONTINUOUS
 62
    7
 10
492.2507346127739
 20
345.28635792091279
 11
492.2507346127739
 21
359.33533435091272
  0
LINE
  8
_0-0_
  6
CONTINUOUS
 62
    7
 10
501.77573461277387
 20
340.28533435091265
 11
515.82526300627387
 21
340.28533435091265
  0
LINE
  8
_0-0_
  6
CONTINUOUS
 62
    7
 10
515.82526300627387
 20
340.28533435091265
 11
515.82526300627387
 21
326.23635792091272
  0
LINE
  8
_0-0_
  6
CONTINUOUS
 62
    7
 10
515.82526300627387
 20
326.23635792091272
 11
501.77573461277387
 21
326.23635792091272
  0
LINE
  8
_0-0_
  6
CONTINUOUS
 62
    7
 10
501.77573461277387
 20
326.23635792091272
 11
501.77573461277387
 21
340.28533435091265
  0
LINE
  8
_0-0_
  6
CONTINUOUS
 62
    7
 10
520.82573461277389
 20
340.28533435091265
 11
534.87526300627383
 21
340.28533435091265
  0
LINE
  8
_0-0_
  6
CONTINUOUS
 62
    7
 10
534.87526300627383
 20
340.28533435091265
 11
534.87526300627383
 21
326.23635792091272
  0
LINE
  8
_0-0_
  6
CONTINUOUS
 62
    7
 10
534.87526300627383
 20
326.23635792091272
 11
520.82573461277389
 21
326.23635792091272
  0
LINE
  8
_0-0_
  6
CONTINUOUS
 62
    7
 10
520.82573461277389
 20
326.23635792091272
 11
520.82573461277389
 21
340.28533435091265
  0
LINE
  8
_0-0_
  6
CONTINUOUS
 62
    7
 10
539.87433461277374
 20
340.28533435091265
 11
553.9238630062739
 21
340.28533435091265
  0
LINE
  8
_0-0_
  6
CONTINUOUS
 62
    7
 10
553.9238630062739
 20
340.28533435091265
 11
553.9238630062739
 21
326.23635792091272
  0
LINE
  8
_0-0_
  6
CONTINUOUS
 62
    7
 10
553.9238630062739
 20
326.23635792091272
 11
539.87433461277374
 21
326.23635792091272
  0
LINE
  8
_0-0_
  6
CONTINUOUS
 62
    7
 10
539.87433461277374
 20
326.23635792091272
 11
539.87433461277374
 21
340.28533435091265
  0
LINE
  8
_0-0_
  6
CONTINUOUS
 62
    7
 10
558.92403461277377
 20
340.28533435091265
 11
572.97356300627393
 21
340.28533435091265
  0
LINE
  8
_0-0_
  6
CONTINUOUS
 62
    7
 10
572.97356300627393
 20
340.28533435091265
 11
572.97356300627393
 21
326.23635792091272
  0
LINE
  8
_0-0_
  6
CONTINUOUS
 62
    7
 10
572.97356300627393
 20
326.23635792091272
 11
558.92403461277377
 21
326.23635792091272
  0
LINE
  8
_0-0_
  6
CONTINUOUS
 62
    7
 10
558.92403461277377
 20
326.23635792091272
 11
558.92403461277377
 21
340.28533435091265
  0
LINE
  8
_0-0_
  6
CONTINUOUS
 62
    7
 10
473.20073461277389
 20
359.33533435091272
 11
487.25026300627388
 21
359.33533435091272
  0
LINE
  8
_0-0_
  6
CONTINUOUS
 62
    7
 10
487.25026300627388
 20
359.33533435091272
 11
487.25026300627388
 21
345.28635792091279
  0
LINE
  8
_0-0_
  6
CONTINUOUS
 62
    7
 10
487.25026300627388
 20
345.28635792091279
 11
473.20073461277389
 21
345.28635792091279
  0
LINE
  8
_0-0_
  6
CONTINUOUS
 62
    7
 10
473.20073461277389
 20
345.28635792091279
 11
473.20073461277389
 21
359.33533435091272
  0
LINE
  8
_0-0_
  6
CONTINUOUS
 62
    7
 10
454.15073461277393
 20
359.33533435091272
 11
468.20026300627387
 21
359.33533435091272
  0
LINE
  8
_0-0_
  6
CONTINUOUS
 62
    7
 10
468.20026300627387
 20
359.33533435091272
 11
468.20026300627387
 21
345.28635792091279
  0
LINE
  8
_0-0_
  6
CONTINUOUS
 62
    7
 10
468.20026300627387
 20
345.28635792091279
 11
454.15073461277393
 21
345.28635792091279
  0
LINE
  8
_0-0_
  6
CONTINUOUS
 62
    7
 10
454.15073461277393
 20
345.28635792091279
 11
454.15073461277393
 21
359.33533435091272
  0
LINE
  8
_0-0_
  6
CONTINUOUS
 62
    7
 10
444.62568461277385
 20
340.28533435091265
 11
458.67521300627379
 21
340.28533435091265
  0
LINE
  8
_0-0_
  6
CONTINUOUS
 62
    7
 10
458.67521300627379
 20
340.28533435091265
 11
458.67521300627379
 21
326.23635792091272
  0
LINE
  8
_0-0_
  6
CONTINUOUS
 62
    7
 10
458.67521300627379
 20
326.23635792091272
 11
444.62568461277385
 21
326.23635792091272
  0
LINE
  8
_0-0_
  6
CONTINUOUS
 62
    7
 10
444.62568461277385
 20
326.23635792091272
 11
444.62568461277385
 21
340.28533435091265
  0
LINE
  8
_0-0_
  6
CONTINUOUS
 62
    7
 10
463.67573461277391
 20
340.28533435091265
 11
477.72526300627391
 21
340.28533435091265
  0
LINE
  8
_0-0_
  6
CONTINUOUS
 62
    7
 10
477.72526300627391
 20
340.28533435091265
 11
477.72526300627391
 21
326.23635792091272
  0
LINE
  8
_0-0_
  6
CONTINUOUS
 62
    7
 10
477.72526300627391
 20
326.23635792091272
 11
463.67573461277391
 21
326.23635792091272
  0
LINE
  8
_0-0_
  6
CONTINUOUS
 62
    7
 10
463.67573461277391
 20
326.23635792091272
 11
463.67573461277391
 21
340.28533435091265
  0
LINE
  8
_0-0_
  6
CONTINUOUS
 62
    7
 10
482.72573461277381
 20
340.28533435091265
 11
496.77526300627386
 21
340.28533435091265
  0
LINE
  8
_0-0_
  6
CONTINUOUS
 62
    7
 10
496.77526300627386
 20
340.28533435091265
 11
496.77526300627386
 21
326.23635792091272
  0
LINE
  8
_0-0_
  6
CONTINUOUS
 62
    7
 10
496.77526300627386
 20
326.23635792091272
 11
482.72573461277381
 21
326.23635792091272
  0
LINE
  8
_0-0_
  6
CONTINUOUS
 62
    7
 10
482.72573461277381
 20
326.23635792091272
 11
482.72573461277381
 21
340.28533435091265
  0
LINE
  8
_0-0_
  6
CONTINUOUS
 62
    7
 10
506.53824461277389
 20
321.23533435091269
 11
520.58777300627389
 21
321.23533435091269
  0
LINE
  8
_0-0_
  6
CONTINUOUS
 62
    7
 10
520.58777300627389
 20
321.23533435091269
 11
520.58777300627389
 21
307.18635792091277
  0
LINE
  8
_0-0_
  6
CONTINUOUS
 62
    7
 10
520.58777300627389
 20
307.18635792091277
 11
506.53824461277389
 21
307.18635792091277
  0
LINE
  8
_0-0_
  6
CONTINUOUS
 62
    7
 10
506.53824461277389
 20
307.18635792091277
 11
506.53824461277389
 21
321.23533435091269
  0
LINE
  8
_0-0_
  6
CONTINUOUS
 62
    7
 10
525.58824461277391
 20
321.23533435091269
 11
539.63777300627385
 21
321.23533435091269
  0
LINE
  8
_0-0_
  6
CONTINUOUS
 62
    7
 10
539.63777300627385
 20
321.23533435091269
 11
539.63777300627385
 21
307.18635792091277
  0
LINE
  8
_0-0_
  6
CONTINUOUS
 62
    7
 10
539.63777300627385
 20
307.18635792091277
 11
525.58824461277391
 21
307.18635792091277
  0
LINE
  8
_0-0_
  6
CONTINUOUS
 62
    7
 10
525.58824461277391
 20
307.18635792091277
 11
525.58824461277391
 21
321.23533435091269
  0
LINE
  8
_0-0_
  6
CONTINUOUS
 62
    7
 10
544.63684461277376
 20
321.23533435091269
 11
558.68637300627393
 21
321.23533435091269
  0
LINE
  8
_0-0_
  6
CONTINUOUS
 62
    7
 10
558.68637300627393
 20
321.23533435091269
 11
558.68637300627393
 21
307.18635792091277
  0
LINE
  8
_0-0_
  6
CONTINUOUS
 62
    7
 10
558.68637300627393
 20
307.18635792091277
 11
544.63684461277376
 21
307.18635792091277
  0
LINE
  8
_0-0_
  6
CONTINUOUS
 62
    7
 10
544.63684461277376
 20
307.18635792091277
 11
544.63684461277376
 21
321.23533435091269
  0
LINE
  8
_0-0_
  6
CONTINUOUS
 62
    7
 10
563.68654461277379
 20
321.23533435091269
 11
577.73607300627395
 21
321.23533435091269
  0
LINE
  8
_0-0_
  6
CONTINUOUS
 62
    7
 10
577.73607300627395
 20
321.23533435091269
 11
577.73607300627395
 21
307.18635792091277
  0
LINE
  8
_0-0_
  6
CONTINUOUS
 62
    7
 10
577.73607300627395
 20
307.18635792091277
 11
563.68654461277379
 21
307.18635792091277
  0
LINE
  8
_0-0_
  6
CONTINUOUS
 62
    7
 10
563.68654461277379
 20
307.18635792091277
 11
563.68654461277379
 21
321.23533435091269
  0
LINE
  8
_0-0_
  6
CONTINUOUS
 62
    7
 10
449.38819461277387
 20
321.23533435091269
 11
463.43772300627381
 21
321.23533435091269
  0
LINE
  8
_0-0_
  6
CONTINUOUS
 62
    7
 10
463.43772300627381
 20
321.23533435091269
 11
463.43772300627381
 21
307.18635792091277
  0
LINE
  8
_0-0_
  6
CONTINUOUS
 62
    7
 10
463.43772300627381
 20
307.18635792091277
 11
449.38819461277387
 21
307.18635792091277
  0
LINE
  8
_0-0_
  6
CONTINUOUS
 62
    7
 10
449.38819461277387
 20
307.18635792091277
 11
449.38819461277387
 21
321.23533435091269
  0
LINE
  8
_0-0_
  6
CONTINUOUS
 62
    7
 10
468.43824461277393
 20
321.23533435091269
 11
482.48777300627393
 21
321.23533435091269
  0
LINE
  8
_0-0_
  6
CONTINUOUS
 62
    7
 10
482.48777300627393
 20
321.23533435091269
 11
482.48777300627393
 21
307.18635792091277
  0
LINE
  8
_0-0_
  6
CONTINUOUS
 62
    7
 10
482.48777300627393
 20
307.18635792091277
 11
468.43824461277393
 21
307.18635792091277
  0
LINE
  8
_0-0_
  6
CONTINUOUS
 62
    7
 10
468.43824461277393
 20
307.18635792091277
 11
468.43824461277393
 21
321.23533435091269
  0
LINE
  8
_0-0_
  6
CONTINUOUS
 62
    7
 10
487.48824461277383
 20
321.23533435091269
 11
501.53777300627388
 21
321.23533435091269
  0
LINE
  8
_0-0_
  6
CONTINUOUS
 62
    7
 10
501.53777300627388
 20
321.23533435091269
 11
501.53777300627388
 21
307.18635792091277
  0
LINE
  8
_0-0_
  6
CONTINUOUS
 62
    7
 10
501.53777300627388
 20
307.18635792091277
 11
487.48824461277383
 21
307.18635792091277
  0
LINE
  8
_0-0_
  6
CONTINUOUS
 62
    7
 10
487.48824461277383
 20
307.18635792091277
 11
487.48824461277383
 21
321.23533435091269
  0
LINE
  8
_0-0_
  6
CONTINUOUS
 62
    7
 10
516.06328461277394
 20
302.18533435091274
 11
530.11281300627388
 21
302.18533435091274
  0
LINE
  8
_0-0_
  6
CONTINUOUS
 62
    7
 10
530.11281300627388
 20
302.18533435091274
 11
530.11281300627388
 21
288.13635792091281
  0
LINE
  8
_0-0_
  6
CONTINUOUS
 62
    7
 10
530.11281300627388
 20
288.13635792091281
 11
516.06328461277394
 21
288.13635792091281
  0
LINE
  8
_0-0_
  6
CONTINUOUS
 62
    7
 10
516.06328461277394
 20
288.13635792091281
 11
516.06328461277394
 21
302.18533435091274
  0
LINE
  8
_0-0_
  6
CONTINUOUS
 62
    7
 10
535.1132846127739
 20
302.18533435091274
 11
549.16281300627384
 21
302.18533435091274
  0
LINE
  8
_0-0_
  6
CONTINUOUS
 62
    7
 10
549.16281300627384
 20
302.18533435091274
 11
549.16281300627384
 21
288.13635792091281
  0
LINE
  8
_0-0_
  6
CONTINUOUS
 62
    7
 10
549.16281300627384
 20
288.13635792091281
 11
535.1132846127739
 21
288.13635792091281
  0
LINE
  8
_0-0_
  6
CONTINUOUS
 62
    7
 10
535.1132846127739
 20
288.13635792091281
 11
535.1132846127739
 21
302.18533435091274
  0
LINE
  8
_0-0_
  6
CONTINUOUS
 62
    7
 10
554.16188461277375
 20
302.18533435091274
 11
568.21141300627392
 21
302.18533435091274
  0
LINE
  8
_0-0_
  6
CONTINUOUS
 62
    7
 10
568.21141300627392
 20
302.18533435091274
 11
568.21141300627392
 21
288.13635792091281
  0
LINE
  8
_0-0_
  6
CONTINUOUS
 62
    7
 10
568.21141300627392
 20
288.13635792091281
 11
554.16188461277375
 21
288.13635792091281
  0
LINE
  8
_0-0_
  6
CONTINUOUS
 62
    7
 10
554.16188461277375
 20
288.13635792091281
 11
554.16188461277375
 21
302.18533435091274
  0
LINE
  8
_0-0_
  6
CONTINUOUS
 62
    7
 10
458.91323461277386
 20
302.18533435091274
 11
472.9627630062738
 21
302.18533435091274
  0
LINE
  8
_0-0_
  6
CONTINUOUS
 62
    7
 10
472.9627630062738
 20
302.18533435091274
 11
472.9627630062738
 21
288.13635792091281
  0
LINE
  8
_0-0_
  6
CONTINUOUS
 62
    7
 10
472.9627630062738
 20
288.13635792091281
 11
458.91323461277386
 21
288.13635792091281
  0
LINE
  8
_0-0_
  6
CONTINUOUS
 62
    7
 10
458.91323461277386
 20
288.13635792091281
 11
458.91323461277386
 21
302.18533435091274
  0
LINE
  8
_0-0_
  6
CONTINUOUS
 62
    7
 10
477.96328461277386
 20
302.18533435091274
 11
492.01281300627392
 21
302.18533435091274
  0
LINE
  8
_0-0_
  6
CONTINUOUS
 62
    7
 10
492.01281300627392
 20
302.18533435091274
 11
492.01281300627392
 21
288.13635792091281
  0
LINE
  8
_0-0_
  6
CONTINUOUS
 62
    7
 10
492.01281300627392
 20
288.13635792091281
 11
477.96328461277386
 21
288.13635792091281
  0
LINE
  8
_0-0_
  6
CONTINUOUS
 62
    7
 10
477.96328461277386
 20
288.13635792091281
 11
477.96328461277386
 21
302.18533435091274
  0
LINE
  8
_0-0_
  6
CONTINUOUS
 62
    7
 10
497.01328461277382
 20
302.18533435091274
 11
511.06281300627387
 21
302.18533435091274
  0
LINE
  8
_0-0_
  6
CONTINUOUS
 62
    7
 10
511.06281300627387
 20
302.18533435091274
 11
511.06281300627387
 21
288.13635792091281
  0
LINE
  8
_0-0_
  6
CONTINUOUS
 62
    7
 10
511.06281300627387
 20
288.13635792091281
 11
497.01328461277382
 21
288.13635792091281
  0
LINE
  8
_0-0_
  6
CONTINUOUS
 62
    7
 10
497.01328461277382
 20
288.13635792091281
 11
497.01328461277382
 21
302.18533435091274
  0
LINE
  8
_0-0_
  6
CONTINUOUS
 62
    7
 10
544.63828461277399
 20
283.13543435091265
 11
558.68781300627393
 21
283.13543435091265
  0
LINE
  8
_0-0_
  6
CONTINUOUS
 62
    7
 10
558.68781300627393
 20
283.13543435091265
 11
558.68781300627393
 21
269.08645792091272
  0
LINE
  8
_0-0_
  6
CONTINUOUS
 62
    7
 10
558.68781300627393
 20
269.08645792091272
 11
544.63828461277399
 21
269.08645792091272
  0
LINE
  8
_0-0_
  6
CONTINUOUS
 62
    7
 10
544.63828461277399
 20
269.08645792091272
 11
544.63828461277399
 21
283.13543435091265
  0
LINE
  8
_0-0_
  6
CONTINUOUS
 62
    7
 10
563.68828461277394
 20
283.13543435091265
 11
577.73781300627388
 21
283.13543435091265
  0
LINE
  8
_0-0_
  6
CONTINUOUS
 62
    7
 10
577.73781300627388
 20
283.13543435091265
 11
577.73781300627388
 21
269.08645792091272
  0
LINE
  8
_0-0_
  6
CONTINUOUS
 62
    7
 10
577.73781300627388
 20
269.08645792091272
 11
563.68828461277394
 21
269.08645792091272
  0
LINE
  8
_0-0_
  6
CONTINUOUS
 62
    7
 10
563.68828461277394
 20
269.08645792091272
 11
563.68828461277394
 21
283.13543435091265
  0
LINE
  8
_0-0_
  6
CONTINUOUS
 62
    7
 10
487.48823461277385
 20
283.13543435091265
 11
501.53776300627391
 21
283.13543435091265
  0
LINE
  8
_0-0_
  6
CONTINUOUS
 62
    7
 10
501.53776300627391
 20
283.13543435091265
 11
501.53776300627391
 21
269.08645792091272
  0
LINE
  8
_0-0_
  6
CONTINUOUS
 62
    7
 10
501.53776300627391
 20
269.08645792091272
 11
487.48823461277385
 21
269.08645792091272
  0
LINE
  8
_0-0_
  6
CONTINUOUS
 62
    7
 10
487.48823461277385
 20
269.08645792091272
 11
487.48823461277385
 21
283.13543435091265
  0
LINE
  8
_0-0_
  6
CONTINUOUS
 62
    7
 10
506.53828461277391
 20
283.13543435091265
 11
520.58781300627402
 21
283.13543435091265
  0
LINE
  8
_0-0_
  6
CONTINUOUS
 62
    7
 10
520.58781300627402
 20
283.13543435091265
 11
520.58781300627402
 21
269.08645792091272
  0
LINE
  8
_0-0_
  6
CONTINUOUS
 62
    7
 10
520.58781300627402
 20
269.08645792091272
 11
506.53828461277391
 21
269.08645792091272
  0
LINE
  8
_0-0_
  6
CONTINUOUS
 62
    7
 10
506.53828461277391
 20
269.08645792091272
 11
506.53828461277391
 21
283.13543435091265
  0
LINE
  8
_0-0_
  6
CONTINUOUS
 62
    7
 10
525.5882846127738
 20
283.13543435091265
 11
539.63781300627397
 21
283.13543435091265
  0
LINE
  8
_0-0_
  6
CONTINUOUS
 62
    7
 10
539.63781300627397
 20
283.13543435091265
 11
539.63781300627397
 21
269.08645792091272
  0
LINE
  8
_0-0_
  6
CONTINUOUS
 62
    7
 10
539.63781300627397
 20
269.08645792091272
 11
525.5882846127738
 21
269.08645792091272
  0
LINE
  8
_0-0_
  6
CONTINUOUS
 62
    7
 10
525.5882846127738
 20
269.08645792091272
 11
525.5882846127738
 21
283.13543435091265
  0
LINE
  8
_0-0_
  6
CONTINUOUS
 62
    7
 10
466.05693461277394
 20
283.13543435091265
 11
480.10646300627394
 21
283.13543435091265
  0
LINE
  8
_0-0_
  6
CONTINUOUS
 62
    7
 10
480.10646300627394
 20
283.13543435091265
 11
480.10646300627394
 21
269.08645792091272
  0
LINE
  8
_0-0_
  6
CONTINUOUS
 62
    7
 10
480.10646300627394
 20
269.08645792091272
 11
466.05693461277394
 21
269.08645792091272
  0
LINE
  8
_0-0_
  6
CONTINUOUS
 62
    7
 10
466.05693461277394
 20
269.08645792091272
 11
466.05693461277394
 21
283.13543435091265
  0
LINE
  8
_0-0_
  6
CONTINUOUS
 62
    7
 10
585.11803461277395
 20
283.13543435091265
 11
599.16756300627389
 21
283.13543435091265
  0
LINE
  8
_0-0_
  6
CONTINUOUS
 62
    7
 10
599.16756300627389
 20
283.13543435091265
 11
599.16756300627389
 21
269.08645792091272
  0
LINE
  8
_0-0_
  6
CONTINUOUS
 62
    7
 10
599.16756300627389
 20
269.08645792091272
 11
585.11803461277395
 21
269.08645792091272
  0
LINE
  8
_0-0_
  6
CONTINUOUS
 62
    7
 10
585.11803461277395
 20
269.08645792091272
 11
585.11803461277395
 21
283.13543435091265
  0
LINE
  8
_0-0_
  6
CONTINUOUS
 62
    7
 10
580.35703461277399
 20
302.18533435091274
 11
594.40656300627393
 21
302.18533435091274
  0
LINE
  8
_0-0_
  6
CONTINUOUS
 62
    7
 10
594.40656300627393
 20
302.18533435091274
 11
594.40656300627393
 21
288.13635792091281
  0
LINE
  8
_0-0_
  6
CONTINUOUS
 62
    7
 10
594.40656300627393
 20
288.13635792091281
 11
580.35703461277399
 21
288.13635792091281
  0
LINE
  8
_0-0_
  6
CONTINUOUS
 62
    7
 10
580.35703461277399
 20
288.13635792091281
 11
580.35703461277399
 21
302.18533435091274
  0
LINE
  8
_0-0_
  6
CONTINUOUS
 62
    7
 10
611.31303461277389
 20
321.23533435091269
 11
625.36256300627383
 21
321.23533435091269
  0
LINE
  8
_0-0_
  6
CONTINUOUS
 62
    7
 10
625.36256300627383
 20
321.23533435091269
 11
625.36256300627383
 21
307.18635792091277
  0
LINE
  8
_0-0_
  6
CONTINUOUS
 62
    7
 10
625.36256300627383
 20
307.18635792091277
 11
611.31303461277389
 21
307.18635792091277
  0
LINE
  8
_0-0_
  6
CONTINUOUS
 62
    7
 10
611.31303461277389
 20
307.18635792091277
 11
611.31303461277389
 21
321.23533435091269
  0
LINE
  8
_0-0_
  6
CONTINUOUS
 62
    7
 10
611.31303461277389
 20
302.18533435091274
 11
625.36256300627383
 21
302.18533435091274
  0
LINE
  8
_0-0_
  6
CONTINUOUS
 62
    7
 10
625.36256300627383
 20
302.18533435091274
 11
625.36256300627383
 21
288.13635792091281
  0
LINE
  8
_0-0_
  6
CONTINUOUS
 62
    7
 10
625.36256300627383
 20
288.13635792091281
 11
611.31303461277389
 21
288.13635792091281
  0
LINE
  8
_0-0_
  6
CONTINUOUS
 62
    7
 10
611.31303461277389
 20
288.13635792091281
 11
611.31303461277389
 21
302.18533435091274
  0
LINE
  8
_0-0_
  6
CONTINUOUS
 62
    7
 10
611.31303461277389
 20
283.13543435091265
 11
625.36256300627383
 21
283.13543435091265
  0
LINE
  8
_0-0_
  6
CONTINUOUS
 62
    7
 10
625.36256300627383
 20
283.13543435091265
 11
625.36256300627383
 21
269.08645792091272
  0
LINE
  8
_0-0_
  6
CONTINUOUS
 62
    7
 10
625.36256300627383
 20
269.08645792091272
 11
611.31303461277389
 21
269.08645792091272
  0
LINE
  8
_0-0_
  6
CONTINUOUS
 62
    7
 10
611.31303461277389
 20
269.08645792091272
 11
611.31303461277389
 21
283.13543435091265
  0
LINE
  8
_0-0_
  6
CONTINUOUS
 62
    7
 10
444.62568461277385
 20
387.90993435091264
 11
458.67521300627379
 21
387.90993435091264
  0
LINE
  8
_0-0_
  6
CONTINUOUS
 62
    7
 10
458.67521300627379
 20
387.90993435091264
 11
458.67521300627379
 21
373.86095792091271
  0
LINE
  8
_0-0_
  6
CONTINUOUS
 62
    7
 10
458.67521300627379
 20
373.86095792091271
 11
444.62568461277385
 21
373.86095792091271
  0
LINE
  8
_0-0_
  6
CONTINUOUS
 62
    7
 10
444.62568461277385
 20
373.86095792091271
 11
444.62568461277385
 21
387.90993435091264
  0
LINE
  8
_0-0_
  6
CONTINUOUS
 62
    7
 10
463.67573461277391
 20
387.90993435091264
 11
477.72526300627391
 21
387.90993435091264
  0
LINE
  8
_0-0_
  6
CONTINUOUS
 62
    7
 10
477.72526300627391
 20
387.90993435091264
 11
477.72526300627391
 21
373.86095792091271
  0
LINE
  8
_0-0_
  6
CONTINUOUS
 62
    7
 10
477.72526300627391
 20
373.86095792091271
 11
463.67573461277391
 21
373.86095792091271
  0
LINE
  8
_0-0_
  6
CONTINUOUS
 62
    7
 10
463.67573461277391
 20
373.86095792091271
 11
463.67573461277391
 21
387.90993435091264
  0
LINE
  8
_0-0_
  6
CONTINUOUS
 62
    7
 10
482.72573461277381
 20
387.90993435091264
 11
496.77526300627386
 21
387.90993435091264
  0
LINE
  8
_0-0_
  6
CONTINUOUS
 62
    7
 10
496.77526300627386
 20
387.90993435091264
 11
496.77526300627386
 21
373.86095792091271
  0
LINE
  8
_0-0_
  6
CONTINUOUS
 62
    7
 10
496.77526300627386
 20
373.86095792091271
 11
482.72573461277381
 21
373.86095792091271
  0
LINE
  8
_0-0_
  6
CONTINUOUS
 62
    7
 10
482.72573461277381
 20
373.86095792091271
 11
482.72573461277381
 21
387.90993435091264
  0
LINE
  8
_0-0_
  6
CONTINUOUS
 62
    7
 10
501.77573461277387
 20
387.90993435091264
 11
515.82526300627387
 21
387.90993435091264
  0
LINE
  8
_0-0_
  6
CONTINUOUS
 62
    7
 10
515.82526300627387
 20
387.90993435091264
 11
515.82526300627387
 21
373.86095792091271
  0
LINE
  8
_0-0_
  6
CONTINUOUS
 62
    7
 10
515.82526300627387
 20
373.86095792091271
 11
501.77573461277387
 21
373.86095792091271
  0
LINE
  8
_0-0_
  6
CONTINUOUS
 62
    7
 10
501.77573461277387
 20
373.86095792091271
 11
501.77573461277387
 21
387.90993435091264
  0
LINE
  8
_0-0_
  6
CONTINUOUS
 62
    7
 10
530.35073461277375
 20
387.90993435091264
 11
544.40026300627392
 21
387.90993435091264
  0
LINE
  8
_0-0_
  6
CONTINUOUS
 62
    7
 10
544.40026300627392
 20
387.90993435091264
 11
544.40026300627392
 21
373.86095792091271
  0
LINE
  8
_0-0_
  6
CONTINUOUS
 62
    7
 10
544.40026300627392
 20
373.86095792091271
 11
530.35073461277375
 21
373.86095792091271
  0
LINE
  8
_0-0_
  6
CONTINUOUS
 62
    7
 10
530.35073461277375
 20
373.86095792091271
 11
530.35073461277375
 21
387.90993435091264
  0
LINE
  8
_0-0_
  6
CONTINUOUS
 62
    7
 10
549.40103461277386
 20
387.90993435091264
 11
563.4505630062738
 21
387.90993435091264
  0
LINE
  8
_0-0_
  6
CONTINUOUS
 62
    7
 10
563.4505630062738
 20
387.90993435091264
 11
563.4505630062738
 21
373.86095792091271
  0
LINE
  8
_0-0_
  6
CONTINUOUS
 62
    7
 10
563.4505630062738
 20
373.86095792091271
 11
549.40103461277386
 21
373.86095792091271
  0
LINE
  8
_0-0_
  6
CONTINUOUS
 62
    7
 10
549.40103461277386
 20
373.86095792091271
 11
549.40103461277386
 21
387.90993435091264
  0
LINE
  8
_0-0_
  6
CONTINUOUS
 62
    7
 10
568.45103461277381
 20
387.90993435091264
 11
582.50056300627398
 21
387.90993435091264
  0
LINE
  8
_0-0_
  6
CONTINUOUS
 62
    7
 10
582.50056300627398
 20
387.90993435091264
 11
582.50056300627398
 21
373.86095792091271
  0
LINE
  8
_0-0_
  6
CONTINUOUS
 62
    7
 10
582.50056300627398
 20
373.86095792091271
 11
568.45103461277381
 21
373.86095792091271
  0
LINE
  8
_0-0_
  6
CONTINUOUS
 62
    7
 10
568.45103461277381
 20
373.86095792091271
 11
568.45103461277381
 21
387.90993435091264
  0
LINE
  8
_0-0_
  6
CONTINUOUS
 62
    7
 10
587.50103461277376
 20
387.90993435091264
 11
601.55056300627393
 21
387.90993435091264
  0
LINE
  8
_0-0_
  6
CONTINUOUS
 62
    7
 10
601.55056300627393
 20
387.90993435091264
 11
601.55056300627393
 21
373.86095792091271
  0
LINE
  8
_0-0_
  6
CONTINUOUS
 62
    7
 10
601.55056300627393
 20
373.86095792091271
 11
587.50103461277376
 21
373.86095792091271
  0
LINE
  8
_0-0_
  6
CONTINUOUS
 62
    7
 10
587.50103461277376
 20
373.86095792091271
 11
587.50103461277376
 21
387.90993435091264
  0
LINE
  8
_0-0_
  6
CONTINUOUS
 62
    7
 10
611.31303461277389
 20
359.33533435091272
 11
625.36256300627383
 21
359.33533435091272
  0
LINE
  8
_0-0_
  6
CONTINUOUS
 62
    7
 10
625.36256300627383
 20
359.33533435091272
 11
625.36256300627383
 21
345.28635792091279
  0
LINE
  8
_0-0_
  6
CONTINUOUS
 62
    7
 10
625.36256300627383
 20
345.28635792091279
 11
611.31303461277389
 21
345.28635792091279
  0
LINE
  8
_0-0_
  6
CONTINUOUS
 62
    7
 10
611.31303461277389
 20
345.28635792091279
 11
611.31303461277389
 21
359.33533435091272
  0
LINE
  8
_0-0_
  6
CONTINUOUS
 62
    7
 10
611.31303461277389
 20
340.28533435091265
 11
625.36256300627383
 21
340.28533435091265
  0
LINE
  8
_0-0_
  6
CONTINUOUS
 62
    7
 10
625.36256300627383
 20
340.28533435091265
 11
625.36256300627383
 21
326.23635792091272
  0
LINE
  8
_0-0_
  6
CONTINUOUS
 62
    7
 10
625.36256300627383
 20
326.23635792091272
 11
611.31303461277389
 21
326.23635792091272
  0
LINE
  8
_0-0_
  6
CONTINUOUS
 62
    7
 10
611.31303461277389
 20
326.23635792091272
 11
611.31303461277389
 21
340.28533435091265
  0
LINE
  8
_0-0_
  6
CONTINUOUS
 62
    7
 10
587.50103461277376
 20
359.33533435091272
 11
601.55056300627393
 21
359.33533435091272
  0
LINE
  8
_0-0_
  6
CONTINUOUS
 62
    7
 10
601.55056300627393
 20
359.33533435091272
 11
601.55056300627393
 21
345.28635792091279
  0
LINE
  8
_0-0_
  6
CONTINUOUS
 62
    7
 10
601.55056300627393
 20
345.28635792091279
 11
587.50103461277376
 21
345.28635792091279
  0
LINE
  8
_0-0_
  6
CONTINUOUS
 62
    7
 10
587.50103461277376
 20
345.28635792091279
 11
587.50103461277376
 21
359.33533435091272
  0
LINE
  8
_0-0_
  6
CONTINUOUS
 62
    7
 10
568.45103461277381
 20
359.33533435091272
 11
582.50056300627398
 21
359.33533435091272
  0
LINE
  8
_0-0_
  6
CONTINUOUS
 62
    7
 10
582.50056300627398
 20
359.33533435091272
 11
582.50056300627398
 21
345.28635792091279
  0
LINE
  8
_0-0_
  6
CONTINUOUS
 62
    7
 10
582.50056300627398
 20
345.28635792091279
 11
568.45103461277381
 21
345.28635792091279
  0
LINE
  8
_0-0_
  6
CONTINUOUS
 62
    7
 10
568.45103461277381
 20
345.28635792091279
 11
568.45103461277381
 21
359.33533435091272
  0
LINE
  8
_0-0_
  6
CONTINUOUS
 62
    7
 10
549.40103461277386
 20
359.33533435091272
 11
563.4505630062738
 21
359.33533435091272
  0
LINE
  8
_0-0_
  6
CONTINUOUS
 62
    7
 10
563.4505630062738
 20
359.33533435091272
 11
563.4505630062738
 21
345.28635792091279
  0
LINE
  8
_0-0_
  6
CONTINUOUS
 62
    7
 10
563.4505630062738
 20
345.28635792091279
 11
549.40103461277386
 21
345.28635792091279
  0
LINE
  8
_0-0_
  6
CONTINUOUS
 62
    7
 10
549.40103461277386
 20
345.28635792091279
 11
549.40103461277386
 21
359.33533435091272
  0
LINE
  8
_0-0_
  6
CONTINUOUS
 62
    7
 10
530.35073461277375
 20
359.33533435091272
 11
544.40026300627392
 21
359.33533435091272
  0
LINE
  8
_0-0_
  6
CONTINUOUS
 62
    7
 10
544.40026300627392
 20
359.33533435091272
 11
544.40026300627392
 21
345.28635792091279
  0
LINE
  8
_0-0_
  6
CONTINUOUS
 62
    7
 10
544.40026300627392
 20
345.28635792091279
 11
530.35073461277375
 21
345.28635792091279
  0
LINE
  8
_0-0_
  6
CONTINUOUS
 62
    7
 10
530.35073461277375
 20
345.28635792091279
 11
530.35073461277375
 21
359.33533435091272
  0
LINE
  8
_0-0_
  6
CONTINUOUS
 62
    7
 10
511.30073461277385
 20
359.33533435091272
 11
525.35026300627396
 21
359.33533435091272
  0
LINE
  8
_0-0_
  6
CONTINUOUS
 62
    7
 10
525.35026300627396
 20
359.33533435091272
 11
525.35026300627396
 21
345.28635792091279
  0
LINE
  8
_0-0_
  6
CONTINUOUS
 62
    7
 10
525.35026300627396
 20
345.28635792091279
 11
511.30073461277385
 21
345.28635792091279
  0
LINE
  8
_0-0_
  6
CONTINUOUS
 62
    7
 10
511.30073461277385
 20
345.28635792091279
 11
511.30073461277385
 21
359.33533435091272
  0
LINE
  8
_0-0_
  6
CONTINUOUS
 62
    7
 10
492.2507346127739
 20
359.33533435091272
 11
506.30026300627395
 21
359.33533435091272
  0
LINE
  8
_0-0_
  6
CONTINUOUS
 62
    7
 10
506.30026300627395
 20
359.33533435091272
 11
506.30026300627395
 21
345.28635792091279
  0
LINE
  8
_0-0_
  6
CONTINUOUS
 62
    7
 10
506.30026300627395
 20
345.28635792091279
 11
492.2507346127739
 21
345.28635792091279
  0
LINE
  8
_0-0_
  6
CONTINUOUS
 62
    7
 10
492.2507346127739
 20
345.28635792091279
 11
492.2507346127739
 21
359.33533435091272
  0
LINE
  8
_0-0_
  6
CONTINUOUS
 62
    7
 10
501.77573461277387
 20
340.28533435091265
 11
515.82526300627387
 21
340.28533435091265
  0
LINE
  8
_0-0_
  6
CONTINUOUS
 62
    7
 10
515.82526300627387
 20
340.28533435091265
 11
515.82526300627387
 21
326.23635792091272
  0
LINE
  8
_0-0_
  6
CONTINUOUS
 62
    7
 10
515.82526300627387
 20
326.23635792091272
 11
501.77573461277387
 21
326.23635792091272
  0
LINE
  8
_0-0_
  6
CONTINUOUS
 62
    7
 10
501.77573461277387
 20
326.23635792091272
 11
501.77573461277387
 21
340.28533435091265
  0
LINE
  8
_0-0_
  6
CONTINUOUS
 62
    7
 10
520.82573461277389
 20
340.28533435091265
 11
534.87526300627383
 21
340.28533435091265
  0
LINE
  8
_0-0_
  6
CONTINUOUS
 62
    7
 10
534.87526300627383
 20
340.28533435091265
 11
534.87526300627383
 21
326.23635792091272
  0
LINE
  8
_0-0_
  6
CONTINUOUS
 62
    7
 10
534.87526300627383
 20
326.23635792091272
 11
520.82573461277389
 21
326.23635792091272
  0
LINE
  8
_0-0_
  6
CONTINUOUS
 62
    7
 10
520.82573461277389
 20
326.23635792091272
 11
520.82573461277389
 21
340.28533435091265
  0
LINE
  8
_0-0_
  6
CONTINUOUS
 62
    7
 10
539.87433461277374
 20
340.28533435091265
 11
553.9238630062739
 21
340.28533435091265
  0
LINE
  8
_0-0_
  6
CONTINUOUS
 62
    7
 10
553.9238630062739
 20
340.28533435091265
 11
553.9238630062739
 21
326.23635792091272
  0
LINE
  8
_0-0_
  6
CONTINUOUS
 62
    7
 10
553.9238630062739
 20
326.23635792091272
 11
539.87433461277374
 21
326.23635792091272
  0
LINE
  8
_0-0_
  6
CONTINUOUS
 62
    7
 10
539.87433461277374
 20
326.23635792091272
 11
539.87433461277374
 21
340.28533435091265
  0
LINE
  8
_0-0_
  6
CONTINUOUS
 62
    7
 10
558.92403461277377
 20
340.28533435091265
 11
572.97356300627393
 21
340.28533435091265
  0
LINE
  8
_0-0_
  6
CONTINUOUS
 62
    7
 10
572.97356300627393
 20
340.28533435091265
 11
572.97356300627393
 21
326.23635792091272
  0
LINE
  8
_0-0_
  6
CONTINUOUS
 62
    7
 10
572.97356300627393
 20
326.23635792091272
 11
558.92403461277377
 21
326.23635792091272
  0
LINE
  8
_0-0_
  6
CONTINUOUS
 62
    7
 10
558.92403461277377
 20
326.23635792091272
 11
558.92403461277377
 21
340.28533435091265
  0
LINE
  8
_0-0_
  6
CONTINUOUS
 62
    7
 10
473.20073461277389
 20
359.33533435091272
 11
487.25026300627388
 21
359.33533435091272
  0
LINE
  8
_0-0_
  6
CONTINUOUS
 62
    7
 10
487.25026300627388
 20
359.33533435091272
 11
487.25026300627388
 21
345.28635792091279
  0
LINE
  8
_0-0_
  6
CONTINUOUS
 62
    7
 10
487.25026300627388
 20
345.28635792091279
 11
473.20073461277389
 21
345.28635792091279
  0
LINE
  8
_0-0_
  6
CONTINUOUS
 62
    7
 10
473.20073461277389
 20
345.28635792091279
 11
473.20073461277389
 21
359.33533435091272
  0
LINE
  8
_0-0_
  6
CONTINUOUS
 62
    7
 10
454.15073461277393
 20
359.33533435091272
 11
468.20026300627387
 21
359.33533435091272
  0
LINE
  8
_0-0_
  6
CONTINUOUS
 62
    7
 10
468.20026300627387
 20
359.33533435091272
 11
468.20026300627387
 21
345.28635792091279
  0
LINE
  8
_0-0_
  6
CONTINUOUS
 62
    7
 10
468.20026300627387
 20
345.28635792091279
 11
454.15073461277393
 21
345.28635792091279
  0
LINE
  8
_0-0_
  6
CONTINUOUS
 62
    7
 10
454.15073461277393
 20
345.28635792091279
 11
454.15073461277393
 21
359.33533435091272
  0
LINE
  8
_0-0_
  6
CONTINUOUS
 62
    7
 10
444.62568461277385
 20
340.28533435091265
 11
458.67521300627379
 21
340.28533435091265
  0
LINE
  8
_0-0_
  6
CONTINUOUS
 62
    7
 10
458.67521300627379
 20
340.28533435091265
 11
458.67521300627379
 21
326.23635792091272
  0
LINE
  8
_0-0_
  6
CONTINUOUS
 62
    7
 10
458.67521300627379
 20
326.23635792091272
 11
444.62568461277385
 21
326.23635792091272
  0
LINE
  8
_0-0_
  6
CONTINUOUS
 62
    7
 10
444.62568461277385
 20
326.23635792091272
 11
444.62568461277385
 21
340.28533435091265
  0
LINE
  8
_0-0_
  6
CONTINUOUS
 62
    7
 10
463.67573461277391
 20
340.28533435091265
 11
477.72526300627391
 21
340.28533435091265
  0
LINE
  8
_0-0_
  6
CONTINUOUS
 62
    7
 10
477.72526300627391
 20
340.28533435091265
 11
477.72526300627391
 21
326.23635792091272
  0
LINE
  8
_0-0_
  6
CONTINUOUS
 62
    7
 10
477.72526300627391
 20
326.23635792091272
 11
463.67573461277391
 21
326.23635792091272
  0
LINE
  8
_0-0_
  6
CONTINUOUS
 62
    7
 10
463.67573461277391
 20
326.23635792091272
 11
463.67573461277391
 21
340.28533435091265
  0
LINE
  8
_0-0_
  6
CONTINUOUS
 62
    7
 10
482.72573461277381
 20
340.28533435091265
 11
496.77526300627386
 21
340.28533435091265
  0
LINE
  8
_0-0_
  6
CONTINUOUS
 62
    7
 10
496.77526300627386
 20
340.28533435091265
 11
496.77526300627386
 21
326.23635792091272
  0
LINE
  8
_0-0_
  6
CONTINUOUS
 62
    7
 10
496.77526300627386
 20
326.23635792091272
 11
482.72573461277381
 21
326.23635792091272
  0
LINE
  8
_0-0_
  6
CONTINUOUS
 62
    7
 10
482.72573461277381
 20
326.23635792091272
 11
482.72573461277381
 21
340.28533435091265
  0
LINE
  8
_0-0_
  6
CONTINUOUS
 62
    7
 10
506.53824461277389
 20
321.23533435091269
 11
520.58777300627389
 21
321.23533435091269
  0
LINE
  8
_0-0_
  6
CONTINUOUS
 62
    7
 10
520.58777300627389
 20
321.23533435091269
 11
520.58777300627389
 21
307.18635792091277
  0
LINE
  8
_0-0_
  6
CONTINUOUS
 62
    7
 10
520.58777300627389
 20
307.18635792091277
 11
506.53824461277389
 21
307.18635792091277
  0
LINE
  8
_0-0_
  6
CONTINUOUS
 62
    7
 10
506.53824461277389
 20
307.18635792091277
 11
506.53824461277389
 21
321.23533435091269
  0
LINE
  8
_0-0_
  6
CONTINUOUS
 62
    7
 10
525.58824461277391
 20
321.23533435091269
 11
539.63777300627385
 21
321.23533435091269
  0
LINE
  8
_0-0_
  6
CONTINUOUS
 62
    7
 10
539.63777300627385
 20
321.23533435091269
 11
539.63777300627385
 21
307.18635792091277
  0
LINE
  8
_0-0_
  6
CONTINUOUS
 62
    7
 10
539.63777300627385
 20
307.18635792091277
 11
525.58824461277391
 21
307.18635792091277
  0
LINE
  8
_0-0_
  6
CONTINUOUS
 62
    7
 10
525.58824461277391
 20
307.18635792091277
 11
525.58824461277391
 21
321.23533435091269
  0
LINE
  8
_0-0_
  6
CONTINUOUS
 62
    7
 10
544.63684461277376
 20
321.23533435091269
 11
558.68637300627393
 21
321.23533435091269
  0
LINE
  8
_0-0_
  6
CONTINUOUS
 62
    7
 10
558.68637300627393
 20
321.23533435091269
 11
558.68637300627393
 21
307.18635792091277
  0
LINE
  8
_0-0_
  6
CONTINUOUS
 62
    7
 10
558.68637300627393
 20
307.18635792091277
 11
544.63684461277376
 21
307.18635792091277
  0
LINE
  8
_0-0_
  6
CONTINUOUS
 62
    7
 10
544.63684461277376
 20
307.18635792091277
 11
544.63684461277376
 21
321.23533435091269
  0
LINE
  8
_0-0_
  6
CONTINUOUS
 62
    7
 10
563.68654461277379
 20
321.23533435091269
 11
577.73607300627395
 21
321.23533435091269
  0
LINE
  8
_0-0_
  6
CONTINUOUS
 62
    7
 10
577.73607300627395
 20
321.23533435091269
 11
577.73607300627395
 21
307.18635792091277
  0
LINE
  8
_0-0_
  6
CONTINUOUS
 62
    7
 10
577.73607300627395
 20
307.18635792091277
 11
563.68654461277379
 21
307.18635792091277
  0
LINE
  8
_0-0_
  6
CONTINUOUS
 62
    7
 10
563.68654461277379
 20
307.18635792091277
 11
563.68654461277379
 21
321.23533435091269
  0
LINE
  8
_0-0_
  6
CONTINUOUS
 62
    7
 10
449.38819461277387
 20
321.23533435091269
 11
463.43772300627381
 21
321.23533435091269
  0
LINE
  8
_0-0_
  6
CONTINUOUS
 62
    7
 10
463.43772300627381
 20
321.23533435091269
 11
463.43772300627381
 21
307.18635792091277
  0
LINE
  8
_0-0_
  6
CONTINUOUS
 62
    7
 10
463.43772300627381
 20
307.18635792091277
 11
449.38819461277387
 21
307.18635792091277
  0
LINE
  8
_0-0_
  6
CONTINUOUS
 62
    7
 10
449.38819461277387
 20
307.18635792091277
 11
449.38819461277387
 21
321.23533435091269
  0
LINE
  8
_0-0_
  6
CONTINUOUS
 62
    7
 10
468.43824461277393
 20
321.23533435091269
 11
482.48777300627393
 21
321.23533435091269
  0
LINE
  8
_0-0_
  6
CONTINUOUS
 62
    7
 10
482.48777300627393
 20
321.23533435091269
 11
482.48777300627393
 21
307.18635792091277
  0
LINE
  8
_0-0_
  6
CONTINUOUS
 62
    7
 10
482.48777300627393
 20
307.18635792091277
 11
468.43824461277393
 21
307.18635792091277
  0
LINE
  8
_0-0_
  6
CONTINUOUS
 62
    7
 10
468.43824461277393
 20
307.18635792091277
 11
468.43824461277393
 21
321.23533435091269
  0
LINE
  8
_0-0_
  6
CONTINUOUS
 62
    7
 10
487.48824461277383
 20
321.23533435091269
 11
501.53777300627388
 21
321.23533435091269
  0
LINE
  8
_0-0_
  6
CONTINUOUS
 62
    7
 10
501.53777300627388
 20
321.23533435091269
 11
501.53777300627388
 21
307.18635792091277
  0
LINE
  8
_0-0_
  6
CONTINUOUS
 62
    7
 10
501.53777300627388
 20
307.18635792091277
 11
487.48824461277383
 21
307.18635792091277
  0
LINE
  8
_0-0_
  6
CONTINUOUS
 62
    7
 10
487.48824461277383
 20
307.18635792091277
 11
487.48824461277383
 21
321.23533435091269
  0
LINE
  8
_0-0_
  6
CONTINUOUS
 62
    7
 10
516.06328461277394
 20
302.18533435091274
 11
530.11281300627388
 21
302.18533435091274
  0
LINE
  8
_0-0_
  6
CONTINUOUS
 62
    7
 10
530.11281300627388
 20
302.18533435091274
 11
530.11281300627388
 21
288.13635792091281
  0
LINE
  8
_0-0_
  6
CONTINUOUS
 62
    7
 10
530.11281300627388
 20
288.13635792091281
 11
516.06328461277394
 21
288.13635792091281
  0
LINE
  8
_0-0_
  6
CONTINUOUS
 62
    7
 10
516.06328461277394
 20
288.13635792091281
 11
516.06328461277394
 21
302.18533435091274
  0
LINE
  8
_0-0_
  6
CONTINUOUS
 62
    7
 10
535.1132846127739
 20
302.18533435091274
 11
549.16281300627384
 21
302.18533435091274
  0
LINE
  8
_0-0_
  6
CONTINUOUS
 62
    7
 10
549.16281300627384
 20
302.18533435091274
 11
549.16281300627384
 21
288.13635792091281
  0
LINE
  8
_0-0_
  6
CONTINUOUS
 62
    7
 10
549.16281300627384
 20
288.13635792091281
 11
535.1132846127739
 21
288.13635792091281
  0
LINE
  8
_0-0_
  6
CONTINUOUS
 62
    7
 10
535.1132846127739
 20
288.13635792091281
 11
535.1132846127739
 21
302.18533435091274
  0
LINE
  8
_0-0_
  6
CONTINUOUS
 62
    7
 10
554.16188461277375
 20
302.18533435091274
 11
568.21141300627392
 21
302.18533435091274
  0
LINE
  8
_0-0_
  6
CONTINUOUS
 62
    7
 10
568.21141300627392
 20
302.18533435091274
 11
568.21141300627392
 21
288.13635792091281
  0
LINE
  8
_0-0_
  6
CONTINUOUS
 62
    7
 10
568.21141300627392
 20
288.13635792091281
 11
554.16188461277375
 21
288.13635792091281
  0
LINE
  8
_0-0_
  6
CONTINUOUS
 62
    7
 10
554.16188461277375
 20
288.13635792091281
 11
554.16188461277375
 21
302.18533435091274
  0
LINE
  8
_0-0_
  6
CONTINUOUS
 62
    7
 10
458.91323461277386
 20
302.18533435091274
 11
472.9627630062738
 21
302.18533435091274
  0
LINE
  8
_0-0_
  6
CONTINUOUS
 62
    7
 10
472.9627630062738
 20
302.18533435091274
 11
472.9627630062738
 21
288.13635792091281
  0
LINE
  8
_0-0_
  6
CONTINUOUS
 62
    7
 10
472.9627630062738
 20
288.13635792091281
 11
458.91323461277386
 21
288.13635792091281
  0
LINE
  8
_0-0_
  6
CONTINUOUS
 62
    7
 10
458.91323461277386
 20
288.13635792091281
 11
458.91323461277386
 21
302.18533435091274
  0
LINE
  8
_0-0_
  6
CONTINUOUS
 62
    7
 10
477.96328461277386
 20
302.18533435091274
 11
492.01281300627392
 21
302.18533435091274
  0
LINE
  8
_0-0_
  6
CONTINUOUS
 62
    7
 10
492.01281300627392
 20
302.18533435091274
 11
492.01281300627392
 21
288.13635792091281
  0
LINE
  8
_0-0_
  6
CONTINUOUS
 62
    7
 10
492.01281300627392
 20
288.13635792091281
 11
477.96328461277386
 21
288.13635792091281
  0
LINE
  8
_0-0_
  6
CONTINUOUS
 62
    7
 10
477.96328461277386
 20
288.13635792091281
 11
477.96328461277386
 21
302.18533435091274
  0
LINE
  8
_0-0_
  6
CONTINUOUS
 62
    7
 10
497.01328461277382
 20
302.18533435091274
 11
511.06281300627387
 21
302.18533435091274
  0
LINE
  8
_0-0_
  6
CONTINUOUS
 62
    7
 10
511.06281300627387
 20
302.18533435091274
 11
511.06281300627387
 21
288.13635792091281
  0
LINE
  8
_0-0_
  6
CONTINUOUS
 62
    7
 10
511.06281300627387
 20
288.13635792091281
 11
497.01328461277382
 21
288.13635792091281
  0
LINE
  8
_0-0_
  6
CONTINUOUS
 62
    7
 10
497.01328461277382
 20
288.13635792091281
 11
497.01328461277382
 21
302.18533435091274
  0
LINE
  8
_0-0_
  6
CONTINUOUS
 62
    7
 10
544.63828461277399
 20
283.13543435091265
 11
558.68781300627393
 21
283.13543435091265
  0
LINE
  8
_0-0_
  6
CONTINUOUS
 62
    7
 10
558.68781300627393
 20
283.13543435091265
 11
558.68781300627393
 21
269.08645792091272
  0
LINE
  8
_0-0_
  6
CONTINUOUS
 62
    7
 10
558.68781300627393
 20
269.08645792091272
 11
544.63828461277399
 21
269.08645792091272
  0
LINE
  8
_0-0_
  6
CONTINUOUS
 62
    7
 10
544.63828461277399
 20
269.08645792091272
 11
544.63828461277399
 21
283.13543435091265
  0
LINE
  8
_0-0_
  6
CONTINUOUS
 62
    7
 10
563.68828461277394
 20
283.13543435091265
 11
577.73781300627388
 21
283.13543435091265
  0
LINE
  8
_0-0_
  6
CONTINUOUS
 62
    7
 10
577.73781300627388
 20
283.13543435091265
 11
577.73781300627388
 21
269.08645792091272
  0
LINE
  8
_0-0_
  6
CONTINUOUS
 62
    7
 10
577.73781300627388
 20
269.08645792091272
 11
563.68828461277394
 21
269.08645792091272
  0
LINE
  8
_0-0_
  6
CONTINUOUS
 62
    7
 10
563.68828461277394
 20
269.08645792091272
 11
563.68828461277394
 21
283.13543435091265
  0
LINE
  8
_0-0_
  6
CONTINUOUS
 62
    7
 10
487.48823461277385
 20
283.13543435091265
 11
501.53776300627391
 21
283.13543435091265
  0
LINE
  8
_0-0_
  6
CONTINUOUS
 62
    7
 10
501.53776300627391
 20
283.13543435091265
 11
501.53776300627391
 21
269.08645792091272
  0
LINE
  8
_0-0_
  6
CONTINUOUS
 62
    7
 10
501.53776300627391
 20
269.08645792091272
 11
487.48823461277385
 21
269.08645792091272
  0
LINE
  8
_0-0_
  6
CONTINUOUS
 62
    7
 10
487.48823461277385
 20
269.08645792091272
 11
487.48823461277385
 21
283.13543435091265
  0
LINE
  8
_0-0_
  6
CONTINUOUS
 62
    7
 10
506.53828461277391
 20
283.13543435091265
 11
520.58781300627402
 21
283.13543435091265
  0
LINE
  8
_0-0_
  6
CONTINUOUS
 62
    7
 10
520.58781300627402
 20
283.13543435091265
 11
520.58781300627402
 21
269.08645792091272
  0
LINE
  8
_0-0_
  6
CONTINUOUS
 62
    7
 10
520.58781300627402
 20
269.08645792091272
 11
506.53828461277391
 21
269.08645792091272
  0
LINE
  8
_0-0_
  6
CONTINUOUS
 62
    7
 10
506.53828461277391
 20
269.08645792091272
 11
506.53828461277391
 21
283.13543435091265
  0
LINE
  8
_0-0_
  6
CONTINUOUS
 62
    7
 10
525.5882846127738
 20
283.13543435091265
 11
539.63781300627397
 21
283.13543435091265
  0
LINE
  8
_0-0_
  6
CONTINUOUS
 62
    7
 10
539.63781300627397
 20
283.13543435091265
 11
539.63781300627397
 21
269.08645792091272
  0
LINE
  8
_0-0_
  6
CONTINUOUS
 62
    7
 10
539.63781300627397
 20
269.08645792091272
 11
525.5882846127738
 21
269.08645792091272
  0
LINE
  8
_0-0_
  6
CONTINUOUS
 62
    7
 10
525.5882846127738
 20
269.08645792091272
 11
525.5882846127738
 21
283.13543435091265
  0
LINE
  8
_0-0_
  6
CONTINUOUS
 62
    7
 10
466.05693461277394
 20
283.13543435091265
 11
480.10646300627394
 21
283.13543435091265
  0
LINE
  8
_0-0_
  6
CONTINUOUS
 62
    7
 10
480.10646300627394
 20
283.13543435091265
 11
480.10646300627394
 21
269.08645792091272
  0
LINE
  8
_0-0_
  6
CONTINUOUS
 62
    7
 10
480.10646300627394
 20
269.08645792091272
 11
466.05693461277394
 21
269.08645792091272
  0
LINE
  8
_0-0_
  6
CONTINUOUS
 62
    7
 10
466.05693461277394
 20
269.08645792091272
 11
466.05693461277394
 21
283.13543435091265
  0
LINE
  8
_0-0_
  6
CONTINUOUS
 62
    7
 10
585.11803461277395
 20
283.13543435091265
 11
599.16756300627389
 21
283.13543435091265
  0
LINE
  8
_0-0_
  6
CONTINUOUS
 62
    7
 10
599.16756300627389
 20
283.13543435091265
 11
599.16756300627389
 21
269.08645792091272
  0
LINE
  8
_0-0_
  6
CONTINUOUS
 62
    7
 10
599.16756300627389
 20
269.08645792091272
 11
585.11803461277395
 21
269.08645792091272
  0
LINE
  8
_0-0_
  6
CONTINUOUS
 62
    7
 10
585.11803461277395
 20
269.08645792091272
 11
585.11803461277395
 21
283.13543435091265
  0
LINE
  8
_0-0_
  6
CONTINUOUS
 62
    7
 10
580.35703461277399
 20
302.18533435091274
 11
594.40656300627393
 21
302.18533435091274
  0
LINE
  8
_0-0_
  6
CONTINUOUS
 62
    7
 10
594.40656300627393
 20
302.18533435091274
 11
594.40656300627393
 21
288.13635792091281
  0
LINE
  8
_0-0_
  6
CONTINUOUS
 62
    7
 10
594.40656300627393
 20
288.13635792091281
 11
580.35703461277399
 21
288.13635792091281
  0
LINE
  8
_0-0_
  6
CONTINUOUS
 62
    7
 10
580.35703461277399
 20
288.13635792091281
 11
580.35703461277399
 21
302.18533435091274
  0
LINE
  8
_0-0_
  6
CONTINUOUS
 62
    7
 10
611.31303461277389
 20
321.23533435091269
 11
625.36256300627383
 21
321.23533435091269
  0
LINE
  8
_0-0_
  6
CONTINUOUS
 62
    7
 10
625.36256300627383
 20
321.23533435091269
 11
625.36256300627383
 21
307.18635792091277
  0
LINE
  8
_0-0_
  6
CONTINUOUS
 62
    7
 10
625.36256300627383
 20
307.18635792091277
 11
611.31303461277389
 21
307.18635792091277
  0
LINE
  8
_0-0_
  6
CONTINUOUS
 62
    7
 10
611.31303461277389
 20
307.18635792091277
 11
611.31303461277389
 21
321.23533435091269
  0
LINE
  8
_0-0_
  6
CONTINUOUS
 62
    7
 10
611.31303461277389
 20
302.18533435091274
 11
625.36256300627383
 21
302.18533435091274
  0
LINE
  8
_0-0_
  6
CONTINUOUS
 62
    7
 10
625.36256300627383
 20
302.18533435091274
 11
625.36256300627383
 21
288.13635792091281
  0
LINE
  8
_0-0_
  6
CONTINUOUS
 62
    7
 10
625.36256300627383
 20
288.13635792091281
 11
611.31303461277389
 21
288.13635792091281
  0
LINE
  8
_0-0_
  6
CONTINUOUS
 62
    7
 10
611.31303461277389
 20
288.13635792091281
 11
611.31303461277389
 21
302.18533435091274
  0
LINE
  8
_0-0_
  6
CONTINUOUS
 62
    7
 10
611.31303461277389
 20
283.13543435091265
 11
625.36256300627383
 21
283.13543435091265
  0
LINE
  8
_0-0_
  6
CONTINUOUS
 62
    7
 10
625.36256300627383
 20
283.13543435091265
 11
625.36256300627383
 21
269.08645792091272
  0
LINE
  8
_0-0_
  6
CONTINUOUS
 62
    7
 10
625.36256300627383
 20
269.08645792091272
 11
611.31303461277389
 21
269.08645792091272
  0
LINE
  8
_0-0_
  6
CONTINUOUS
 62
    7
 10
611.31303461277389
 20
269.08645792091272
 11
611.31303461277389
 21
283.13543435091265
  0
LINE
  8
_0-0_
  6
CONTINUOUS
 62
    7
 10
599.16836300627392
 20
316.7113579209128
 11
594.44272380952384
 21
316.7113579209128
  0
ARC
  8
_0-0_
  6
CONTINUOUS
 62
    7
 10
436.37474130952387
 20
376.91044613591276
 40
0.7500000000000001
 50
180
 51
270
  0
ARC
  8
_0-0_
  6
CONTINUOUS
 62
    7
 10
436.37474130952387
 20
376.91044613591276
 40
0.7500000000000001
 50
270
 51
0
  0
ARC
  8
_0-0_
  6
CONTINUOUS
 62
    7
 10
436.37474130952387
 20
373.91044613591276
 40
0.7500000000000001
 50
90
 51
180
  0
ARC
  8
_0-0_
  6
CONTINUOUS
 62
    7
 10
436.37474130952387
 20
373.91044613591276
 40
0.7500000000000001
 50
0
 51
90
  0
ARC
  8
_0-0_
  6
CONTINUOUS
 62
    7
 10
436.37474130952387
 20
329.99807863591269
 40
0.7500000000000001
 50
180
 51
270
  0
ARC
  8
_0-0_
  6
CONTINUOUS
 62
    7
 10
436.37474130952387
 20
329.99807863591269
 40
0.7500000000000001
 50
270
 51
0
  0
ARC
  8
_0-0_
  6
CONTINUOUS
 62
    7
 10
436.37474130952387
 20
326.99807863591269
 40
0.7500000000000001
 50
90
 51
180
  0
ARC
  8
_0-0_
  6
CONTINUOUS
 62
    7
 10
436.37474130952387
 20
326.99807863591269
 40
0.7500000000000001
 50
0
 51
90
  0
ARC
  8
_0-0_
  6
CONTINUOUS
 62
    7
 10
445.90038630952387
 20
283.08571113591267
 40
0.7500000000000001
 50
180
 51
270
  0
ARC
  8
_0-0_
  6
CONTINUOUS
 62
    7
 10
445.90038630952387
 20
283.08571113591267
 40
0.7500000000000001
 50
270
 51
0
  0
ARC
  8
_0-0_
  6
CONTINUOUS
 62
    7
 10
445.90038630952387
 20
280.08571113591267
 40
0.7500000000000001
 50
90
 51
180
  0
ARC
  8
_0-0_
  6
CONTINUOUS
 62
    7
 10
445.90038630952387
 20
280.08571113591267
 40
0.7500000000000001
 50
0
 51
90
  0
LINE
  8
_0-0_
  6
CONTINUOUS
 62
    7
 10
435.62474130952387
 20
326.99807863591269
 11
435.62474130952387
 21
324.96688169828673
  0
LINE
  8
_0-0_
  6
CONTINUOUS
 62
    7
 10
437.12474130952387
 20
326.99807863591269
 11
437.12474130952387
 21
324.96688169828673
  0
LINE
  8
_0-0_
  6
CONTINUOUS
 62
    7
 10
445.15038630952381
 20
284.40456057353862
 11
445.15038630952381
 21
283.08571113591267
  0
LINE
  8
_0-0_
  6
CONTINUOUS
 62
    7
 10
446.65038630952387
 20
284.40456057353856
 11
446.65038630952387
 21
283.08571113591267
  0
CIRCLE
  8
_0-0_
  6
CONTINUOUS
 62
    7
 10
282.37287380952387
 20
390.41044613591271
 40
1.05
  0
CIRCLE
  8
_0-0_
  6
CONTINUOUS
 62
    7
 10
618.95302380952387
 20
390.41044613591276
 40
1.05
  0
ENDSEC
  0
EOF
