  0
SECTION
  2
HEADER
  9
$ACADVER
  1
AC1009
  9
$EXTMIN
 10
0.0
 20
0.0
 30
0.0
  9
$EXTMAX
 10
1000.0
 20
1000.0
 30
0.0
  9
$FILLMODE
 70
 0
  9
$SPLFRAME
 70
 1
  0
ENDSEC
  0
SECTION
  2
TABLES
  0
TABLE
  2
LAYER
 70
1
  0
LAYER
  2
0
 70
     0
 62
     7
  6
CONTINUOUS
  0
ENDTAB
  0
ENDSEC
  0
SECTION
  2
ENTITIES
  0
LINE
  8
0
 62
     0
 10
0.0950846
 20
129.021
 30
0.0
 11
162.02
 21
129.021
 31
0.0
  0
LINE
  8
0
 62
     0
 10
162.02
 20
129.021
 30
0.0
 11
162.02
 21
0.434082
 31
0.0
  0
LINE
  8
0
 62
     0
 10
162.02
 20
0.434082
 30
0.0
 11
0.0950846
 21
0.434082
 31
0.0
  0
LINE
  8
0
 62
     0
 10
0.0950846
 20
0.434082
 30
0.0
 11
0.0950846
 21
129.021
 31
0.0
  0
LINE
  8
0
 62
     0
 10
133.587
 20
16.9595
 30
0.0
 11
147.588
 21
16.9595
 31
0.0
  0
LINE
  8
0
 62
     0
 10
147.588
 20
16.9595
 30
0.0
 11
147.588
 21
2.96003
 31
0.0
  0
LINE
  8
0
 62
     0
 10
147.588
 20
2.96003
 30
0.0
 11
133.587
 21
2.96003
 31
0.0
  0
LINE
  8
0
 62
     0
 10
133.587
 20
2.96003
 30
0.0
 11
133.587
 21
16.9595
 31
0.0
  0
LINE
  8
0
 62
     0
 10
112.157
 20
16.9595
 30
0.0
 11
126.157
 21
16.9595
 31
0.0
  0
LINE
  8
0
 62
     0
 10
126.157
 20
16.9595
 30
0.0
 11
126.157
 21
2.96003
 31
0.0
  0
LINE
  8
0
 62
     0
 10
126.157
 20
2.96003
 30
0.0
 11
112.157
 21
2.96003
 31
0.0
  0
LINE
  8
0
 62
     0
 10
112.157
 20
2.96003
 30
0.0
 11
112.157
 21
16.9595
 31
0.0
  0
LINE
  8
0
 62
     0
 10
93.1072
 20
16.9595
 30
0.0
 11
107.107
 21
16.9595
 31
0.0
  0
LINE
  8
0
 62
     0
 10
107.107
 20
16.9595
 30
0.0
 11
107.107
 21
2.96003
 31
0.0
  0
LINE
  8
0
 62
     0
 10
107.107
 20
2.96003
 30
0.0
 11
93.1072
 21
2.96003
 31
0.0
  0
LINE
  8
0
 62
     0
 10
93.1072
 20
2.96003
 30
0.0
 11
93.1072
 21
16.9595
 31
0.0
  0
LINE
  8
0
 62
     0
 10
71.676
 20
16.9595
 30
0.0
 11
85.6753
 21
16.9595
 31
0.0
  0
LINE
  8
0
 62
     0
 10
85.6753
 20
16.9595
 30
0.0
 11
85.6753
 21
2.96003
 31
0.0
  0
LINE
  8
0
 62
     0
 10
85.6753
 20
2.96003
 30
0.0
 11
71.676
 21
2.96003
 31
0.0
  0
LINE
  8
0
 62
     0
 10
71.676
 20
2.96003
 30
0.0
 11
71.676
 21
16.9595
 31
0.0
  0
LINE
  8
0
 62
     0
 10
50.2447
 20
16.9595
 30
0.0
 11
64.244
 21
16.9595
 31
0.0
  0
LINE
  8
0
 62
     0
 10
64.244
 20
16.9595
 30
0.0
 11
64.244
 21
2.96003
 31
0.0
  0
LINE
  8
0
 62
     0
 10
64.244
 20
2.96003
 30
0.0
 11
50.2447
 21
2.96003
 31
0.0
  0
LINE
  8
0
 62
     0
 10
50.2447
 20
2.96003
 30
0.0
 11
50.2447
 21
16.9595
 31
0.0
  0
LINE
  8
0
 62
     0
 10
28.812
 20
16.9595
 30
0.0
 11
42.8128
 21
16.9595
 31
0.0
  0
LINE
  8
0
 62
     0
 10
42.8128
 20
16.9595
 30
0.0
 11
42.8128
 21
2.96003
 31
0.0
  0
LINE
  8
0
 62
     0
 10
42.8128
 20
2.96003
 30
0.0
 11
28.812
 21
2.96003
 31
0.0
  0
LINE
  8
0
 62
     0
 10
28.812
 20
2.96003
 30
0.0
 11
28.812
 21
16.9595
 31
0.0
  0
LINE
  8
0
 62
     0
 10
2.61965
 20
16.9595
 30
0.0
 11
16.6192
 21
16.9595
 31
0.0
  0
LINE
  8
0
 62
     0
 10
16.6192
 20
16.9595
 30
0.0
 11
16.6192
 21
2.96003
 31
0.0
  0
LINE
  8
0
 62
     0
 10
16.6192
 20
2.96003
 30
0.0
 11
2.61965
 21
2.96003
 31
0.0
  0
LINE
  8
0
 62
     0
 10
2.61965
 20
2.96003
 30
0.0
 11
2.61965
 21
16.9595
 31
0.0
  0
LINE
  8
0
 62
     0
 10
38.3371
 20
36.0094
 30
0.0
 11
38.3371
 21
31.3104
 31
0.0
  0
LINE
  8
0
 62
     0
 10
38.3371
 20
31.3104
 30
0.0
 11
36.8131
 21
31.3104
 31
0.0
  0
LINE
  8
0
 62
     0
 10
36.8131
 20
31.3104
 30
0.0
 11
36.8131
 21
34.5405
 31
0.0
  0
LINE
  8
0
 62
     0
 10
36.8131
 20
34.5405
 30
0.0
 11
35.0876
 21
34.5405
 31
0.0
  0
LINE
  8
0
 62
     0
 10
35.0876
 20
34.5405
 30
0.0
 11
35.0876
 21
35.4598
 31
0.0
  0
LINE
  8
0
 62
     0
 10
35.0876
 20
35.4598
 30
0.0
 11
31.7872
 21
35.4598
 31
0.0
  0
LINE
  8
0
 62
     0
 10
31.7872
 20
35.4598
 30
0.0
 11
31.7872
 21
34.5405
 31
0.0
  0
LINE
  8
0
 62
     0
 10
31.7872
 20
34.5405
 30
0.0
 11
30.0619
 21
34.5405
 31
0.0
  0
LINE
  8
0
 62
     0
 10
30.0619
 20
34.5405
 30
0.0
 11
30.0619
 21
31.3104
 31
0.0
  0
LINE
  8
0
 62
     0
 10
30.0619
 20
31.3104
 30
0.0
 11
29.2378
 21
31.3104
 31
0.0
  0
LINE
  8
0
 62
     0
 10
29.2378
 20
31.3104
 30
0.0
 11
29.2378
 21
28.5102
 31
0.0
  0
LINE
  8
0
 62
     0
 10
29.2378
 20
28.5102
 30
0.0
 11
30.0619
 21
28.5102
 31
0.0
  0
LINE
  8
0
 62
     0
 10
30.0619
 20
28.5102
 30
0.0
 11
30.0619
 21
22.2402
 31
0.0
  0
LINE
  8
0
 62
     0
 10
30.0619
 20
22.2402
 30
0.0
 11
31.7872
 21
22.2402
 31
0.0
  0
LINE
  8
0
 62
     0
 10
31.7872
 20
22.2402
 30
0.0
 11
31.7872
 21
21.2604
 31
0.0
  0
LINE
  8
0
 62
     0
 10
31.7872
 20
21.2604
 30
0.0
 11
35.0876
 21
21.2604
 31
0.0
  0
LINE
  8
0
 62
     0
 10
35.0876
 20
21.2604
 30
0.0
 11
35.0876
 21
22.2402
 31
0.0
  0
LINE
  8
0
 62
     0
 10
35.0876
 20
22.2402
 30
0.0
 11
36.8131
 21
22.2402
 31
0.0
  0
LINE
  8
0
 62
     0
 10
36.8131
 20
22.2402
 30
0.0
 11
36.8131
 21
26.7105
 31
0.0
  0
LINE
  8
0
 62
     0
 10
36.8131
 20
26.7105
 30
0.0
 11
38.3371
 21
26.7105
 31
0.0
  0
LINE
  8
0
 62
     0
 10
38.3371
 20
26.7105
 30
0.0
 11
38.3371
 21
22.01
 31
0.0
  0
LINE
  8
0
 62
     0
 10
38.3371
 20
22.01
 30
0.0
 11
52.3378
 21
22.01
 31
0.0
  0
LINE
  8
0
 62
     0
 10
52.3378
 20
22.01
 30
0.0
 11
52.3378
 21
26.7105
 31
0.0
  0
LINE
  8
0
 62
     0
 10
52.3378
 20
26.7105
 30
0.0
 11
53.8621
 21
26.7105
 31
0.0
  0
LINE
  8
0
 62
     0
 10
53.8621
 20
26.7105
 30
0.0
 11
53.8621
 21
22.2402
 31
0.0
  0
LINE
  8
0
 62
     0
 10
53.8621
 20
22.2402
 30
0.0
 11
55.5872
 21
22.2402
 31
0.0
  0
LINE
  8
0
 62
     0
 10
55.5872
 20
22.2402
 30
0.0
 11
55.5872
 21
21.2604
 31
0.0
  0
LINE
  8
0
 62
     0
 10
55.5872
 20
21.2604
 30
0.0
 11
58.8878
 21
21.2604
 31
0.0
  0
LINE
  8
0
 62
     0
 10
58.8878
 20
21.2604
 30
0.0
 11
58.8878
 21
22.2402
 31
0.0
  0
LINE
  8
0
 62
     0
 10
58.8878
 20
22.2402
 30
0.0
 11
60.6129
 21
22.2402
 31
0.0
  0
LINE
  8
0
 62
     0
 10
60.6129
 20
22.2402
 30
0.0
 11
60.6129
 21
28.5102
 31
0.0
  0
LINE
  8
0
 62
     0
 10
60.6129
 20
28.5102
 30
0.0
 11
61.437
 21
28.5102
 31
0.0
  0
LINE
  8
0
 62
     0
 10
61.437
 20
28.5102
 30
0.0
 11
61.437
 21
31.3104
 31
0.0
  0
LINE
  8
0
 62
     0
 10
61.437
 20
31.3104
 30
0.0
 11
60.6129
 21
31.3104
 31
0.0
  0
LINE
  8
0
 62
     0
 10
60.6129
 20
31.3104
 30
0.0
 11
60.6129
 21
34.5405
 31
0.0
  0
LINE
  8
0
 62
     0
 10
60.6129
 20
34.5405
 30
0.0
 11
58.8878
 21
34.5405
 31
0.0
  0
LINE
  8
0
 62
     0
 10
58.8878
 20
34.5405
 30
0.0
 11
58.8878
 21
35.4598
 31
0.0
  0
LINE
  8
0
 62
     0
 10
58.8878
 20
35.4598
 30
0.0
 11
55.5872
 21
35.4598
 31
0.0
  0
LINE
  8
0
 62
     0
 10
55.5872
 20
35.4598
 30
0.0
 11
55.5872
 21
34.5405
 31
0.0
  0
LINE
  8
0
 62
     0
 10
55.5872
 20
34.5405
 30
0.0
 11
53.8621
 21
34.5405
 31
0.0
  0
LINE
  8
0
 62
     0
 10
53.8621
 20
34.5405
 30
0.0
 11
53.8621
 21
31.3104
 31
0.0
  0
LINE
  8
0
 62
     0
 10
53.8621
 20
31.3104
 30
0.0
 11
52.3378
 21
31.3104
 31
0.0
  0
LINE
  8
0
 62
     0
 10
52.3378
 20
31.3104
 30
0.0
 11
52.3378
 21
36.0094
 31
0.0
  0
LINE
  8
0
 62
     0
 10
52.3378
 20
36.0094
 30
0.0
 11
38.3371
 21
36.0094
 31
0.0
  0
LINE
  8
0
 62
     0
 10
145.495
 20
36.0094
 30
0.0
 11
159.494
 21
36.0094
 31
0.0
  0
LINE
  8
0
 62
     0
 10
159.494
 20
36.0094
 30
0.0
 11
159.494
 21
22.01
 31
0.0
  0
LINE
  8
0
 62
     0
 10
159.494
 20
22.01
 30
0.0
 11
145.495
 21
22.01
 31
0.0
  0
LINE
  8
0
 62
     0
 10
145.495
 20
22.01
 30
0.0
 11
145.495
 21
36.0094
 31
0.0
  0
LINE
  8
0
 62
     0
 10
126.445
 20
36.0094
 30
0.0
 11
140.444
 21
36.0094
 31
0.0
  0
LINE
  8
0
 62
     0
 10
140.444
 20
36.0094
 30
0.0
 11
140.444
 21
22.01
 31
0.0
  0
LINE
  8
0
 62
     0
 10
140.444
 20
22.01
 30
0.0
 11
126.445
 21
22.01
 31
0.0
  0
LINE
  8
0
 62
     0
 10
126.445
 20
22.01
 30
0.0
 11
126.445
 21
36.0094
 31
0.0
  0
LINE
  8
0
 62
     0
 10
107.395
 20
36.0094
 30
0.0
 11
121.394
 21
36.0094
 31
0.0
  0
LINE
  8
0
 62
     0
 10
121.394
 20
36.0094
 30
0.0
 11
121.394
 21
22.01
 31
0.0
  0
LINE
  8
0
 62
     0
 10
121.394
 20
22.01
 30
0.0
 11
107.395
 21
22.01
 31
0.0
  0
LINE
  8
0
 62
     0
 10
107.395
 20
22.01
 30
0.0
 11
107.395
 21
36.0094
 31
0.0
  0
LINE
  8
0
 62
     0
 10
88.3447
 20
36.0094
 30
0.0
 11
102.344
 21
36.0094
 31
0.0
  0
LINE
  8
0
 62
     0
 10
102.344
 20
36.0094
 30
0.0
 11
102.344
 21
22.01
 31
0.0
  0
LINE
  8
0
 62
     0
 10
102.344
 20
22.01
 30
0.0
 11
88.3447
 21
22.01
 31
0.0
  0
LINE
  8
0
 62
     0
 10
88.3447
 20
22.01
 30
0.0
 11
88.3447
 21
36.0094
 31
0.0
  0
LINE
  8
0
 62
     0
 10
69.2947
 20
36.0094
 30
0.0
 11
83.294
 21
36.0094
 31
0.0
  0
LINE
  8
0
 62
     0
 10
83.294
 20
36.0094
 30
0.0
 11
83.294
 21
22.01
 31
0.0
  0
LINE
  8
0
 62
     0
 10
83.294
 20
22.01
 30
0.0
 11
69.2947
 21
22.01
 31
0.0
  0
LINE
  8
0
 62
     0
 10
69.2947
 20
22.01
 30
0.0
 11
69.2947
 21
36.0094
 31
0.0
  0
LINE
  8
0
 62
     0
 10
2.61965
 20
36.0094
 30
0.0
 11
16.6192
 21
36.0094
 31
0.0
  0
LINE
  8
0
 62
     0
 10
16.6192
 20
36.0094
 30
0.0
 11
16.6192
 21
22.01
 31
0.0
  0
LINE
  8
0
 62
     0
 10
16.6192
 20
22.01
 30
0.0
 11
2.61965
 21
22.01
 31
0.0
  0
LINE
  8
0
 62
     0
 10
2.61965
 20
22.01
 30
0.0
 11
2.61965
 21
36.0094
 31
0.0
  0
LINE
  8
0
 62
     0
 10
135.97
 20
55.0594
 30
0.0
 11
149.969
 21
55.0594
 31
0.0
  0
LINE
  8
0
 62
     0
 10
149.969
 20
55.0594
 30
0.0
 11
149.969
 21
41.0602
 31
0.0
  0
LINE
  8
0
 62
     0
 10
149.969
 20
41.0602
 30
0.0
 11
135.97
 21
41.0602
 31
0.0
  0
LINE
  8
0
 62
     0
 10
135.97
 20
41.0602
 30
0.0
 11
135.97
 21
55.0594
 31
0.0
  0
LINE
  8
0
 62
     0
 10
116.92
 20
55.0594
 30
0.0
 11
130.919
 21
55.0594
 31
0.0
  0
LINE
  8
0
 62
     0
 10
130.919
 20
55.0594
 30
0.0
 11
130.919
 21
41.0602
 31
0.0
  0
LINE
  8
0
 62
     0
 10
130.919
 20
41.0602
 30
0.0
 11
116.92
 21
41.0602
 31
0.0
  0
LINE
  8
0
 62
     0
 10
116.92
 20
41.0602
 30
0.0
 11
116.92
 21
55.0594
 31
0.0
  0
LINE
  8
0
 62
     0
 10
97.8697
 20
55.0594
 30
0.0
 11
111.869
 21
55.0594
 31
0.0
  0
LINE
  8
0
 62
     0
 10
111.869
 20
55.0594
 30
0.0
 11
111.869
 21
41.0602
 31
0.0
  0
LINE
  8
0
 62
     0
 10
111.869
 20
41.0602
 30
0.0
 11
97.8697
 21
41.0602
 31
0.0
  0
LINE
  8
0
 62
     0
 10
97.8697
 20
41.0602
 30
0.0
 11
97.8697
 21
55.0594
 31
0.0
  0
LINE
  8
0
 62
     0
 10
78.8197
 20
55.0594
 30
0.0
 11
92.819
 21
55.0594
 31
0.0
  0
LINE
  8
0
 62
     0
 10
92.819
 20
55.0594
 30
0.0
 11
92.819
 21
41.0602
 31
0.0
  0
LINE
  8
0
 62
     0
 10
92.819
 20
41.0602
 30
0.0
 11
78.8197
 21
41.0602
 31
0.0
  0
LINE
  8
0
 62
     0
 10
78.8197
 20
41.0602
 30
0.0
 11
78.8197
 21
55.0594
 31
0.0
  0
LINE
  8
0
 62
     0
 10
59.7697
 20
55.0594
 30
0.0
 11
73.769
 21
55.0594
 31
0.0
  0
LINE
  8
0
 62
     0
 10
73.769
 20
55.0594
 30
0.0
 11
73.769
 21
41.0602
 31
0.0
  0
LINE
  8
0
 62
     0
 10
73.769
 20
41.0602
 30
0.0
 11
59.7697
 21
41.0602
 31
0.0
  0
LINE
  8
0
 62
     0
 10
59.7697
 20
41.0602
 30
0.0
 11
59.7697
 21
55.0594
 31
0.0
  0
LINE
  8
0
 62
     0
 10
33.5759
 20
55.0594
 30
0.0
 11
47.5753
 21
55.0594
 31
0.0
  0
LINE
  8
0
 62
     0
 10
47.5753
 20
55.0594
 30
0.0
 11
47.5753
 21
41.0602
 31
0.0
  0
LINE
  8
0
 62
     0
 10
47.5753
 20
41.0602
 30
0.0
 11
33.5759
 21
41.0602
 31
0.0
  0
LINE
  8
0
 62
     0
 10
33.5759
 20
41.0602
 30
0.0
 11
33.5759
 21
55.0594
 31
0.0
  0
LINE
  8
0
 62
     0
 10
2.61965
 20
55.0594
 30
0.0
 11
16.6192
 21
55.0594
 31
0.0
  0
LINE
  8
0
 62
     0
 10
16.6192
 20
55.0594
 30
0.0
 11
16.6192
 21
41.0602
 31
0.0
  0
LINE
  8
0
 62
     0
 10
16.6192
 20
41.0602
 30
0.0
 11
2.61965
 21
41.0602
 31
0.0
  0
LINE
  8
0
 62
     0
 10
2.61965
 20
41.0602
 30
0.0
 11
2.61965
 21
55.0594
 31
0.0
  0
LINE
  8
0
 62
     0
 10
131.207
 20
74.1094
 30
0.0
 11
145.207
 21
74.1094
 31
0.0
  0
LINE
  8
0
 62
     0
 10
145.207
 20
74.1094
 30
0.0
 11
145.207
 21
60.1102
 31
0.0
  0
LINE
  8
0
 62
     0
 10
145.207
 20
60.1102
 30
0.0
 11
131.207
 21
60.1102
 31
0.0
  0
LINE
  8
0
 62
     0
 10
131.207
 20
60.1102
 30
0.0
 11
131.207
 21
74.1094
 31
0.0
  0
LINE
  8
0
 62
     0
 10
112.157
 20
74.1094
 30
0.0
 11
126.157
 21
74.1094
 31
0.0
  0
LINE
  8
0
 62
     0
 10
126.157
 20
74.1094
 30
0.0
 11
126.157
 21
60.1102
 31
0.0
  0
LINE
  8
0
 62
     0
 10
126.157
 20
60.1102
 30
0.0
 11
112.157
 21
60.1102
 31
0.0
  0
LINE
  8
0
 62
     0
 10
112.157
 20
60.1102
 30
0.0
 11
112.157
 21
74.1094
 31
0.0
  0
LINE
  8
0
 62
     0
 10
93.1072
 20
74.1094
 30
0.0
 11
107.107
 21
74.1094
 31
0.0
  0
LINE
  8
0
 62
     0
 10
107.107
 20
74.1094
 30
0.0
 11
107.107
 21
60.1102
 31
0.0
  0
LINE
  8
0
 62
     0
 10
107.107
 20
60.1102
 30
0.0
 11
93.1072
 21
60.1102
 31
0.0
  0
LINE
  8
0
 62
     0
 10
93.1072
 20
60.1102
 30
0.0
 11
93.1072
 21
74.1094
 31
0.0
  0
LINE
  8
0
 62
     0
 10
74.0572
 20
74.1094
 30
0.0
 11
88.0565
 21
74.1094
 31
0.0
  0
LINE
  8
0
 62
     0
 10
88.0565
 20
74.1094
 30
0.0
 11
88.0565
 21
60.1102
 31
0.0
  0
LINE
  8
0
 62
     0
 10
88.0565
 20
60.1102
 30
0.0
 11
74.0572
 21
60.1102
 31
0.0
  0
LINE
  8
0
 62
     0
 10
74.0572
 20
60.1102
 30
0.0
 11
74.0572
 21
74.1094
 31
0.0
  0
LINE
  8
0
 62
     0
 10
55.0072
 20
74.1094
 30
0.0
 11
69.0065
 21
74.1094
 31
0.0
  0
LINE
  8
0
 62
     0
 10
69.0065
 20
74.1094
 30
0.0
 11
69.0065
 21
60.1102
 31
0.0
  0
LINE
  8
0
 62
     0
 10
69.0065
 20
60.1102
 30
0.0
 11
55.0072
 21
60.1102
 31
0.0
  0
LINE
  8
0
 62
     0
 10
55.0072
 20
60.1102
 30
0.0
 11
55.0072
 21
74.1094
 31
0.0
  0
LINE
  8
0
 62
     0
 10
31.1947
 20
74.1094
 30
0.0
 11
45.194
 21
74.1094
 31
0.0
  0
LINE
  8
0
 62
     0
 10
45.194
 20
74.1094
 30
0.0
 11
45.194
 21
60.1102
 31
0.0
  0
LINE
  8
0
 62
     0
 10
45.194
 20
60.1102
 30
0.0
 11
31.1947
 21
60.1102
 31
0.0
  0
LINE
  8
0
 62
     0
 10
31.1947
 20
60.1102
 30
0.0
 11
31.1947
 21
74.1094
 31
0.0
  0
LINE
  8
0
 62
     0
 10
2.61965
 20
74.1094
 30
0.0
 11
16.6192
 21
74.1094
 31
0.0
  0
LINE
  8
0
 62
     0
 10
16.6192
 20
74.1094
 30
0.0
 11
16.6192
 21
60.1102
 31
0.0
  0
LINE
  8
0
 62
     0
 10
16.6192
 20
60.1102
 30
0.0
 11
2.61965
 21
60.1102
 31
0.0
  0
LINE
  8
0
 62
     0
 10
2.61965
 20
60.1102
 30
0.0
 11
2.61965
 21
74.1094
 31
0.0
  0
LINE
  8
0
 62
     0
 10
140.732
 20
93.1594
 30
0.0
 11
154.732
 21
93.1594
 31
0.0
  0
LINE
  8
0
 62
     0
 10
154.732
 20
93.1594
 30
0.0
 11
154.732
 21
79.1602
 31
0.0
  0
LINE
  8
0
 62
     0
 10
154.732
 20
79.1602
 30
0.0
 11
140.732
 21
79.1602
 31
0.0
  0
LINE
  8
0
 62
     0
 10
140.732
 20
79.1602
 30
0.0
 11
140.732
 21
93.1594
 31
0.0
  0
LINE
  8
0
 62
     0
 10
121.682
 20
93.1594
 30
0.0
 11
135.682
 21
93.1594
 31
0.0
  0
LINE
  8
0
 62
     0
 10
135.682
 20
93.1594
 30
0.0
 11
135.682
 21
79.1602
 31
0.0
  0
LINE
  8
0
 62
     0
 10
135.682
 20
79.1602
 30
0.0
 11
121.682
 21
79.1602
 31
0.0
  0
LINE
  8
0
 62
     0
 10
121.682
 20
79.1602
 30
0.0
 11
121.682
 21
93.1594
 31
0.0
  0
LINE
  8
0
 62
     0
 10
102.632
 20
93.1594
 30
0.0
 11
116.632
 21
93.1594
 31
0.0
  0
LINE
  8
0
 62
     0
 10
116.632
 20
93.1594
 30
0.0
 11
116.632
 21
79.1602
 31
0.0
  0
LINE
  8
0
 62
     0
 10
116.632
 20
79.1602
 30
0.0
 11
102.632
 21
79.1602
 31
0.0
  0
LINE
  8
0
 62
     0
 10
102.632
 20
79.1602
 30
0.0
 11
102.632
 21
93.1594
 31
0.0
  0
LINE
  8
0
 62
     0
 10
83.5822
 20
93.1594
 30
0.0
 11
97.5815
 21
93.1594
 31
0.0
  0
LINE
  8
0
 62
     0
 10
97.5815
 20
93.1594
 30
0.0
 11
97.5815
 21
79.1602
 31
0.0
  0
LINE
  8
0
 62
     0
 10
97.5815
 20
79.1602
 30
0.0
 11
83.5822
 21
79.1602
 31
0.0
  0
LINE
  8
0
 62
     0
 10
83.5822
 20
79.1602
 30
0.0
 11
83.5822
 21
93.1594
 31
0.0
  0
LINE
  8
0
 62
     0
 10
64.5322
 20
93.1594
 30
0.0
 11
78.5315
 21
93.1594
 31
0.0
  0
LINE
  8
0
 62
     0
 10
78.5315
 20
93.1594
 30
0.0
 11
78.5315
 21
79.1602
 31
0.0
  0
LINE
  8
0
 62
     0
 10
78.5315
 20
79.1602
 30
0.0
 11
64.5322
 21
79.1602
 31
0.0
  0
LINE
  8
0
 62
     0
 10
64.5322
 20
79.1602
 30
0.0
 11
64.5322
 21
93.1594
 31
0.0
  0
LINE
  8
0
 62
     0
 10
45.4822
 20
93.1594
 30
0.0
 11
59.4815
 21
93.1594
 31
0.0
  0
LINE
  8
0
 62
     0
 10
59.4815
 20
93.1594
 30
0.0
 11
59.4815
 21
79.1602
 31
0.0
  0
LINE
  8
0
 62
     0
 10
59.4815
 20
79.1602
 30
0.0
 11
45.4822
 21
79.1602
 31
0.0
  0
LINE
  8
0
 62
     0
 10
45.4822
 20
79.1602
 30
0.0
 11
45.4822
 21
93.1594
 31
0.0
  0
LINE
  8
0
 62
     0
 10
26.4322
 20
93.1594
 30
0.0
 11
40.4315
 21
93.1594
 31
0.0
  0
LINE
  8
0
 62
     0
 10
40.4315
 20
93.1594
 30
0.0
 11
40.4315
 21
79.1602
 31
0.0
  0
LINE
  8
0
 62
     0
 10
40.4315
 20
79.1602
 30
0.0
 11
26.4322
 21
79.1602
 31
0.0
  0
LINE
  8
0
 62
     0
 10
26.4322
 20
79.1602
 30
0.0
 11
26.4322
 21
93.1594
 31
0.0
  0
LINE
  8
0
 62
     0
 10
2.61965
 20
93.1594
 30
0.0
 11
16.6192
 21
93.1594
 31
0.0
  0
LINE
  8
0
 62
     0
 10
16.6192
 20
93.1594
 30
0.0
 11
16.6192
 21
79.1602
 31
0.0
  0
LINE
  8
0
 62
     0
 10
16.6192
 20
79.1602
 30
0.0
 11
2.61965
 21
79.1602
 31
0.0
  0
LINE
  8
0
 62
     0
 10
2.61965
 20
79.1602
 30
0.0
 11
2.61965
 21
93.1594
 31
0.0
  0
LINE
  8
0
 62
     0
 10
140.732
 20
121.734
 30
0.0
 11
154.732
 21
121.734
 31
0.0
  0
LINE
  8
0
 62
     0
 10
154.732
 20
121.734
 30
0.0
 11
154.732
 21
107.735
 31
0.0
  0
LINE
  8
0
 62
     0
 10
154.732
 20
107.735
 30
0.0
 11
140.732
 21
107.735
 31
0.0
  0
LINE
  8
0
 62
     0
 10
140.732
 20
107.735
 30
0.0
 11
140.732
 21
121.734
 31
0.0
  0
LINE
  8
0
 62
     0
 10
112.157
 20
121.734
 30
0.0
 11
126.157
 21
121.734
 31
0.0
  0
LINE
  8
0
 62
     0
 10
126.157
 20
121.734
 30
0.0
 11
126.157
 21
107.735
 31
0.0
  0
LINE
  8
0
 62
     0
 10
126.157
 20
107.735
 30
0.0
 11
112.157
 21
107.735
 31
0.0
  0
LINE
  8
0
 62
     0
 10
112.157
 20
107.735
 30
0.0
 11
112.157
 21
121.734
 31
0.0
  0
LINE
  8
0
 62
     0
 10
93.1072
 20
121.734
 30
0.0
 11
107.107
 21
121.734
 31
0.0
  0
LINE
  8
0
 62
     0
 10
107.107
 20
121.734
 30
0.0
 11
107.107
 21
107.735
 31
0.0
  0
LINE
  8
0
 62
     0
 10
107.107
 20
107.735
 30
0.0
 11
93.1072
 21
107.735
 31
0.0
  0
LINE
  8
0
 62
     0
 10
93.1072
 20
107.735
 30
0.0
 11
93.1072
 21
121.734
 31
0.0
  0
LINE
  8
0
 62
     0
 10
74.0572
 20
121.734
 30
0.0
 11
88.0565
 21
121.734
 31
0.0
  0
LINE
  8
0
 62
     0
 10
88.0565
 20
121.734
 30
0.0
 11
88.0565
 21
107.735
 31
0.0
  0
LINE
  8
0
 62
     0
 10
88.0565
 20
107.735
 30
0.0
 11
74.0572
 21
107.735
 31
0.0
  0
LINE
  8
0
 62
     0
 10
74.0572
 20
107.735
 30
0.0
 11
74.0572
 21
121.734
 31
0.0
  0
LINE
  8
0
 62
     0
 10
55.0072
 20
121.734
 30
0.0
 11
69.0065
 21
121.734
 31
0.0
  0
LINE
  8
0
 62
     0
 10
69.0065
 20
121.734
 30
0.0
 11
69.0065
 21
107.735
 31
0.0
  0
LINE
  8
0
 62
     0
 10
69.0065
 20
107.735
 30
0.0
 11
55.0072
 21
107.735
 31
0.0
  0
LINE
  8
0
 62
     0
 10
55.0072
 20
107.735
 30
0.0
 11
55.0072
 21
121.734
 31
0.0
  0
LINE
  8
0
 62
     0
 10
26.4322
 20
121.734
 30
0.0
 11
40.4315
 21
121.734
 31
0.0
  0
LINE
  8
0
 62
     0
 10
40.4315
 20
121.734
 30
0.0
 11
40.4315
 21
107.735
 31
0.0
  0
LINE
  8
0
 62
     0
 10
40.4315
 20
107.735
 30
0.0
 11
26.4322
 21
107.735
 31
0.0
  0
LINE
  8
0
 62
     0
 10
26.4322
 20
107.735
 30
0.0
 11
26.4322
 21
121.734
 31
0.0
  0
ENDSEC
  0
EOF
