G04 #@! TF.GenerationSoftware,KiCad,Pcbnew,(5.1.9)-1*
G04 #@! TF.CreationDate,2021-05-10T23:03:44+09:00*
G04 #@! TF.ProjectId,Pistachio_plate_rev2,50697374-6163-4686-996f-5f706c617465,rev?*
G04 #@! TF.SameCoordinates,Original*
G04 #@! TF.FileFunction,Profile,NP*
%FSLAX46Y46*%
G04 Gerber Fmt 4.6, Leading zero omitted, Abs format (unit mm)*
G04 Created by KiCad (PCBNEW (5.1.9)-1) date 2021-05-10 23:03:44*
%MOMM*%
%LPD*%
G01*
G04 APERTURE LIST*
G04 #@! TA.AperFunction,Profile*
%ADD10C,0.010000*%
G04 #@! TD*
G04 APERTURE END LIST*
D10*
X53460919Y-144603329D02*
X53460919Y-130603859D01*
X350448822Y-97003429D02*
X336399293Y-97003429D01*
X336399293Y-82954452D02*
X350448822Y-82954452D01*
X345687022Y-125578429D02*
X331637493Y-125578429D01*
X150805919Y-130603859D02*
X150805919Y-144603329D01*
X376643022Y-92479452D02*
X376643022Y-106528429D01*
X136805919Y-130603859D02*
X150805919Y-130603859D01*
X158235919Y-144603329D02*
X158235919Y-130603859D01*
X350448822Y-82954452D02*
X350448822Y-97003429D01*
X350448022Y-144628329D02*
X336398493Y-144628329D01*
X231386922Y-144628329D02*
X217337393Y-144628329D01*
X336398493Y-130579352D02*
X350448022Y-130579352D01*
X136805919Y-144603329D02*
X136805919Y-130603859D01*
X271868272Y-130579352D02*
X271868272Y-144628329D01*
X53460919Y-130603859D02*
X67461719Y-130603859D01*
X158235919Y-130603859D02*
X172236919Y-130603859D01*
X336399293Y-97003429D02*
X336399293Y-82954452D01*
X74893619Y-130603859D02*
X88892919Y-130603859D01*
X150805919Y-144603329D02*
X136805919Y-144603329D01*
X376643022Y-130579352D02*
X376643022Y-144628329D01*
X376643022Y-106528429D02*
X362593493Y-106528429D01*
X350923983Y-98379040D02*
X337423983Y-98379040D01*
X290918272Y-144628329D02*
X276868743Y-144628329D01*
X362593493Y-92479452D02*
X376643022Y-92479452D01*
X172236919Y-144603329D02*
X158235919Y-144603329D01*
X376643022Y-144628329D02*
X362593493Y-144628329D01*
X257818743Y-130579352D02*
X271868272Y-130579352D01*
X252818222Y-144628329D02*
X238768693Y-144628329D01*
X371233483Y-23304340D02*
G75*
G03*
X371233483Y-23304340I-1000000J0D01*
G01*
X74893619Y-144603329D02*
X74893619Y-130603859D01*
X376643022Y-125578429D02*
X362593493Y-125578429D01*
X331637493Y-125578429D02*
X331637493Y-111529452D01*
X96324919Y-130603859D02*
X110324219Y-130603859D01*
X88892919Y-144603329D02*
X74893619Y-144603329D01*
X96324919Y-144603329D02*
X96324919Y-130603859D01*
X110324219Y-144603329D02*
X96324919Y-144603329D01*
X345687022Y-111529452D02*
X345687022Y-125578429D01*
X276868743Y-130579352D02*
X290918272Y-130579352D01*
X238768693Y-144628329D02*
X238768693Y-130579352D01*
X376643022Y-111529452D02*
X376643022Y-125578429D01*
X131755919Y-144603329D02*
X117756119Y-144603329D01*
X217337393Y-144628329D02*
X217337393Y-130579352D01*
X172236919Y-130603859D02*
X172236919Y-144603329D01*
X362593493Y-144628329D02*
X362593493Y-130579352D01*
X290918272Y-130579352D02*
X290918272Y-144628329D01*
X362593493Y-130579352D02*
X376643022Y-130579352D01*
X331637493Y-111529452D02*
X345687022Y-111529452D01*
X271868272Y-144628329D02*
X257818743Y-144628329D01*
X350448022Y-130579352D02*
X350448022Y-144628329D01*
X67461719Y-144603329D02*
X53460919Y-144603329D01*
X67461719Y-130603859D02*
X67461719Y-144603329D01*
X217337393Y-130579352D02*
X231386922Y-130579352D01*
X88892919Y-130603859D02*
X88892919Y-144603329D01*
X110324219Y-130603859D02*
X110324219Y-144603329D01*
X117756119Y-144603329D02*
X117756119Y-130603859D01*
X131755919Y-130603859D02*
X131755919Y-144603329D01*
X117756119Y-130603859D02*
X131755919Y-130603859D01*
X350923983Y-81579040D02*
X337423983Y-81579040D01*
X231386922Y-130579352D02*
X231386922Y-144628329D01*
X362593493Y-125578429D02*
X362593493Y-111529452D01*
X362593493Y-111529452D02*
X376643022Y-111529452D01*
X276868743Y-144628329D02*
X276868743Y-130579352D01*
X257818743Y-144628329D02*
X257818743Y-130579352D01*
X336398493Y-144628329D02*
X336398493Y-130579352D01*
X362593493Y-106528429D02*
X362593493Y-92479452D01*
X243293272Y-111529452D02*
X243293272Y-125578429D01*
X305442343Y-125578429D02*
X305442343Y-111529452D01*
X252818232Y-106528429D02*
X238768703Y-106528429D01*
X309968272Y-144628329D02*
X295918743Y-144628329D01*
X224243222Y-111529452D02*
X224243222Y-125578429D01*
X252818232Y-92479452D02*
X252818232Y-106528429D01*
X229243743Y-125578429D02*
X229243743Y-111529452D01*
X309968272Y-130579352D02*
X309968272Y-144628329D01*
X243293272Y-125578429D02*
X229243743Y-125578429D01*
X210193693Y-125578429D02*
X210193693Y-111529452D01*
X267343743Y-125578429D02*
X267343743Y-111529452D01*
X271868232Y-92479452D02*
X271868232Y-106528429D01*
X300443272Y-125578429D02*
X286393743Y-125578429D01*
X257818703Y-106528429D02*
X257818703Y-92479452D01*
X248055722Y-87478429D02*
X234006193Y-87478429D01*
X300443272Y-111529452D02*
X300443272Y-125578429D01*
X238768693Y-130579352D02*
X252818222Y-130579352D01*
X224243222Y-125578429D02*
X210193693Y-125578429D01*
X271868232Y-106528429D02*
X257818703Y-106528429D01*
X214718182Y-106528429D02*
X200668653Y-106528429D01*
X314968743Y-144628329D02*
X314968743Y-130579352D01*
X314968743Y-130579352D02*
X329018272Y-130579352D01*
X262343272Y-111529452D02*
X262343272Y-125578429D01*
X281393272Y-125578429D02*
X267343743Y-125578429D01*
X248293743Y-111529452D02*
X262343272Y-111529452D01*
X200668653Y-106528429D02*
X200668653Y-92479452D01*
X238768703Y-92479452D02*
X252818232Y-92479452D01*
X210193693Y-111529452D02*
X224243222Y-111529452D01*
X295917303Y-92479452D02*
X309966832Y-92479452D01*
X281393272Y-111529452D02*
X281393272Y-125578429D01*
X319491872Y-111529452D02*
X319491872Y-125578429D01*
X200668653Y-92479452D02*
X214718182Y-92479452D01*
X290918232Y-106528429D02*
X276868703Y-106528429D01*
X257818703Y-92479452D02*
X271868232Y-92479452D01*
X329016532Y-106528429D02*
X314967003Y-106528429D01*
X219718703Y-92479452D02*
X233768232Y-92479452D01*
X314967003Y-92479452D02*
X329016532Y-92479452D01*
X234006193Y-87478429D02*
X234006193Y-73429452D01*
X276868703Y-92479452D02*
X290918232Y-92479452D01*
X295918743Y-144628329D02*
X295918743Y-130579352D01*
X248293743Y-125578429D02*
X248293743Y-111529452D01*
X219718703Y-106528429D02*
X219718703Y-92479452D01*
X262343272Y-125578429D02*
X248293743Y-125578429D01*
X229243743Y-111529452D02*
X243293272Y-111529452D01*
X319491872Y-125578429D02*
X305442343Y-125578429D01*
X233768232Y-92479452D02*
X233768232Y-106528429D01*
X286393743Y-111529452D02*
X300443272Y-111529452D01*
X267343743Y-111529452D02*
X281393272Y-111529452D01*
X238768703Y-106528429D02*
X238768703Y-92479452D01*
X314967003Y-106528429D02*
X314967003Y-92479452D01*
X233768232Y-106528429D02*
X219718703Y-106528429D01*
X309966832Y-106528429D02*
X295917303Y-106528429D01*
X214718182Y-92479452D02*
X214718182Y-106528429D01*
X290918232Y-92479452D02*
X290918232Y-106528429D01*
X329016532Y-92479452D02*
X329016532Y-106528429D01*
X309966832Y-92479452D02*
X309966832Y-106528429D01*
X276868703Y-106528429D02*
X276868703Y-92479452D01*
X286393743Y-125578429D02*
X286393743Y-111529452D01*
X305442343Y-111529452D02*
X319491872Y-111529452D01*
X252818222Y-130579352D02*
X252818222Y-144628329D01*
X329018272Y-144628329D02*
X314968743Y-144628329D01*
X329018272Y-130579352D02*
X329018272Y-144628329D01*
X295918743Y-130579352D02*
X309968272Y-130579352D01*
X295917303Y-106528429D02*
X295917303Y-92479452D01*
X272106193Y-87478429D02*
X272106193Y-73429452D01*
X267105722Y-73429452D02*
X267105722Y-87478429D01*
X295680722Y-68428429D02*
X281631193Y-68428429D01*
X229005722Y-87478429D02*
X214956193Y-87478429D01*
X305204322Y-73429452D02*
X305204322Y-87478429D01*
X253056193Y-87478429D02*
X253056193Y-73429452D01*
X262581193Y-54379452D02*
X276630722Y-54379452D01*
X229005722Y-73429452D02*
X229005722Y-87478429D01*
X219480722Y-68428429D02*
X205431193Y-68428429D01*
X310204493Y-87478429D02*
X310204493Y-73429452D01*
X352831022Y-68428429D02*
X338781493Y-68428429D01*
X291154793Y-73429452D02*
X305204322Y-73429452D01*
X286155722Y-73429452D02*
X286155722Y-87478429D01*
X272106193Y-73429452D02*
X286155722Y-73429452D01*
X262581193Y-68428429D02*
X262581193Y-54379452D01*
X376643022Y-68428429D02*
X362593493Y-68428429D01*
X243531193Y-54379452D02*
X257580722Y-54379452D01*
X376643022Y-87478429D02*
X362593493Y-87478429D01*
X281631193Y-68428429D02*
X281631193Y-54379452D01*
X257580722Y-54379452D02*
X257580722Y-68428429D01*
X195906143Y-87478429D02*
X195906143Y-73429452D01*
X300681493Y-54379452D02*
X314731022Y-54379452D01*
X362593493Y-87478429D02*
X362593493Y-73429452D01*
X209955672Y-87478429D02*
X195906143Y-87478429D01*
X219480722Y-54379452D02*
X219480722Y-68428429D01*
X291154793Y-87478429D02*
X291154793Y-73429452D01*
X305204322Y-87478429D02*
X291154793Y-87478429D01*
X267105722Y-87478429D02*
X253056193Y-87478429D01*
X300681493Y-68428429D02*
X300681493Y-54379452D01*
X314731022Y-68428429D02*
X300681493Y-68428429D01*
X333781022Y-54379452D02*
X333781022Y-68428429D01*
X333781022Y-68428429D02*
X319731493Y-68428429D01*
X338781493Y-68428429D02*
X338781493Y-54379452D01*
X295680722Y-54379452D02*
X295680722Y-68428429D01*
X338781493Y-54379452D02*
X352831022Y-54379452D01*
X243531193Y-68428429D02*
X243531193Y-54379452D01*
X319731493Y-68428429D02*
X319731493Y-54379452D01*
X319731493Y-54379452D02*
X333781022Y-54379452D01*
X276630722Y-68428429D02*
X262581193Y-68428429D01*
X234006193Y-73429452D02*
X248055722Y-73429452D01*
X214956193Y-73429452D02*
X229005722Y-73429452D01*
X352831022Y-54379452D02*
X352831022Y-68428429D01*
X362593493Y-68428429D02*
X362593493Y-54379452D01*
X209955672Y-73429452D02*
X209955672Y-87478429D01*
X205431193Y-68428429D02*
X205431193Y-54379452D01*
X314731022Y-54379452D02*
X314731022Y-68428429D01*
X205431193Y-54379452D02*
X219480722Y-54379452D01*
X224481193Y-68428429D02*
X224481193Y-54379452D01*
X238530722Y-68428429D02*
X224481193Y-68428429D01*
X324254022Y-73429452D02*
X324254022Y-87478429D01*
X362593493Y-73429452D02*
X376643022Y-73429452D01*
X310204493Y-73429452D02*
X324254022Y-73429452D01*
X281631193Y-54379452D02*
X295680722Y-54379452D01*
X376643022Y-73429452D02*
X376643022Y-87478429D01*
X253056193Y-73429452D02*
X267105722Y-73429452D01*
X238530722Y-54379452D02*
X238530722Y-68428429D01*
X224481193Y-54379452D02*
X238530722Y-54379452D01*
X286155722Y-87478429D02*
X272106193Y-87478429D01*
X257580722Y-68428429D02*
X243531193Y-68428429D01*
X248055722Y-73429452D02*
X248055722Y-87478429D01*
X276630722Y-54379452D02*
X276630722Y-68428429D01*
X214956193Y-87478429D02*
X214956193Y-73429452D01*
X195906143Y-73429452D02*
X209955672Y-73429452D01*
X324254022Y-87478429D02*
X310204493Y-87478429D01*
X352831022Y-25804852D02*
X352831022Y-39853829D01*
X267105722Y-39853829D02*
X253056193Y-39853829D01*
X350923983Y-98379040D02*
X350923983Y-105379040D01*
X34653333Y-23304340D02*
G75*
G03*
X34653333Y-23304340I-1000000J0D01*
G01*
X338781493Y-25804852D02*
X352831022Y-25804852D01*
X319731493Y-39853829D02*
X319731493Y-25804852D01*
X281631193Y-39853829D02*
X281631193Y-25804852D01*
X253056193Y-25804852D02*
X267105722Y-25804852D01*
X195906143Y-39853829D02*
X195906143Y-25804852D01*
X79606119Y-39878359D02*
X79606119Y-25829359D01*
X229005722Y-25804852D02*
X229005722Y-39853829D01*
X98656119Y-39878359D02*
X98656119Y-25829359D01*
X209955672Y-25804852D02*
X209955672Y-39853829D01*
X319731493Y-25804852D02*
X333781022Y-25804852D01*
X350923983Y-74579040D02*
X337423983Y-74579040D01*
X93655419Y-39878359D02*
X79606119Y-39878359D01*
X337423983Y-74579040D02*
X337423983Y-81579040D01*
X51031119Y-25829359D02*
X65080419Y-25829359D01*
X79606119Y-25829359D02*
X93655419Y-25829359D01*
X77035296Y-111504382D02*
X77035296Y-125603359D01*
X61585658Y-126054070D02*
X61585658Y-112554070D01*
X295680722Y-25804852D02*
X295680722Y-39853829D01*
X352831022Y-39853829D02*
X338781493Y-39853829D01*
X234006193Y-39853829D02*
X234006193Y-25804852D01*
X281631193Y-25804852D02*
X295680722Y-25804852D01*
X350923983Y-74579040D02*
X350923983Y-81579040D01*
X197930845Y-130629075D02*
X197930845Y-129310226D01*
X78385658Y-126054070D02*
X78385658Y-112554070D01*
X65080419Y-25829359D02*
X65080419Y-39878359D01*
X333781022Y-39853829D02*
X319731493Y-39853829D01*
X333781022Y-25804852D02*
X333781022Y-39853829D01*
X314731022Y-25804852D02*
X314731022Y-39853829D01*
X337423983Y-98379040D02*
X337423983Y-105379040D01*
X300681493Y-25804852D02*
X314731022Y-25804852D01*
X350923983Y-105379040D02*
X337423983Y-105379040D01*
X209955672Y-39853829D02*
X195906143Y-39853829D01*
X214956193Y-25804852D02*
X229005722Y-25804852D01*
X93655419Y-25829359D02*
X93655419Y-39878359D01*
X338781493Y-39853829D02*
X338781493Y-25804852D01*
X300681493Y-39853829D02*
X300681493Y-25804852D01*
X314731022Y-39853829D02*
X300681493Y-39853829D01*
X295680722Y-39853829D02*
X281631193Y-39853829D01*
X195906143Y-25804852D02*
X209955672Y-25804852D01*
X62936019Y-125603359D02*
X62936019Y-111504382D01*
X253056193Y-39853829D02*
X253056193Y-25804852D01*
X267105722Y-25804852D02*
X267105722Y-39853829D01*
X248055722Y-39853829D02*
X234006193Y-39853829D01*
X65080419Y-39878359D02*
X51031119Y-39878359D01*
X248055722Y-25804852D02*
X248055722Y-39853829D01*
X234006193Y-25804852D02*
X248055722Y-25804852D01*
X214956193Y-39853829D02*
X214956193Y-25804852D01*
X229005722Y-39853829D02*
X214956193Y-39853829D01*
X62936019Y-111504382D02*
X77035296Y-111504382D01*
X51031119Y-39878359D02*
X51031119Y-25829359D01*
X376643022Y-54379452D02*
X376643022Y-68428429D01*
X77035296Y-125603359D02*
X62936019Y-125603359D01*
X362593493Y-54379452D02*
X376643022Y-54379452D01*
X150805919Y-25829359D02*
X150805919Y-39878359D01*
X117706119Y-25829359D02*
X131755919Y-25829359D01*
X112705419Y-87503159D02*
X98656119Y-87503159D01*
X179380919Y-25829359D02*
X179380919Y-39878359D01*
X27218569Y-68453159D02*
X27218569Y-54403959D01*
X70081119Y-54403959D02*
X84130419Y-54403959D01*
X131755919Y-39878359D02*
X117706119Y-39878359D01*
X131755919Y-25829359D02*
X131755919Y-39878359D01*
X136755919Y-39878359D02*
X136755919Y-25829359D01*
X117706119Y-87503159D02*
X117706119Y-73453959D01*
X41268119Y-54403959D02*
X41268119Y-68453159D01*
X27218569Y-73453959D02*
X41268119Y-73453959D01*
X79606119Y-73453959D02*
X93655419Y-73453959D01*
X179380919Y-54403959D02*
X179380919Y-68453159D01*
X55793619Y-87503159D02*
X55793619Y-73453959D01*
X41268119Y-68453159D02*
X27218569Y-68453159D01*
X136755919Y-25829359D02*
X150805919Y-25829359D01*
X165330919Y-39878359D02*
X165330919Y-25829359D01*
X27218569Y-87503159D02*
X27218569Y-73453959D01*
X108181119Y-68453159D02*
X108181119Y-54403959D01*
X146280919Y-68453159D02*
X146280919Y-54403959D01*
X150805919Y-39878359D02*
X136755919Y-39878359D01*
X65080419Y-54403959D02*
X65080419Y-68453159D01*
X93655419Y-73453959D02*
X93655419Y-87503159D01*
X103180419Y-54403959D02*
X103180419Y-68453159D01*
X146280919Y-54403959D02*
X160330919Y-54403959D01*
X84130419Y-68453159D02*
X70081119Y-68453159D01*
X98656119Y-87503159D02*
X98656119Y-73453959D01*
X160330919Y-68453159D02*
X146280919Y-68453159D01*
X122230419Y-68453159D02*
X108181119Y-68453159D01*
X127230919Y-68453159D02*
X127230919Y-54403959D01*
X141280919Y-54403959D02*
X141280919Y-68453159D01*
X165330919Y-68453159D02*
X165330919Y-54403959D01*
X41268119Y-87503159D02*
X27218569Y-87503159D01*
X69842919Y-73453959D02*
X69842919Y-87503159D01*
X103180419Y-68453159D02*
X89131119Y-68453159D01*
X179380919Y-68453159D02*
X165330919Y-68453159D01*
X41268119Y-73453959D02*
X41268119Y-87503159D01*
X79606119Y-87503159D02*
X79606119Y-73453959D01*
X165330919Y-25829359D02*
X179380919Y-25829359D01*
X179380919Y-39878359D02*
X165330919Y-39878359D01*
X84130419Y-54403959D02*
X84130419Y-68453159D01*
X51031119Y-54403959D02*
X65080419Y-54403959D01*
X27218569Y-54403959D02*
X41268119Y-54403959D01*
X51031119Y-68453159D02*
X51031119Y-54403959D01*
X89131119Y-54403959D02*
X103180419Y-54403959D01*
X70081119Y-68453159D02*
X70081119Y-54403959D01*
X89131119Y-68453159D02*
X89131119Y-54403959D01*
X108181119Y-54403959D02*
X122230419Y-54403959D01*
X122230419Y-54403959D02*
X122230419Y-68453159D01*
X127230919Y-54403959D02*
X141280919Y-54403959D01*
X98656119Y-73453959D02*
X112705419Y-73453959D01*
X165330919Y-54403959D02*
X179380919Y-54403959D01*
X69842919Y-87503159D02*
X55793619Y-87503159D01*
X160330919Y-54403959D02*
X160330919Y-68453159D01*
X112705419Y-73453959D02*
X112705419Y-87503159D01*
X93655419Y-87503159D02*
X79606119Y-87503159D01*
X98656119Y-25829359D02*
X112705419Y-25829359D01*
X141280919Y-68453159D02*
X127230919Y-68453159D01*
X112705419Y-39878359D02*
X98656119Y-39878359D01*
X55793619Y-73453959D02*
X69842919Y-73453959D01*
X65080419Y-68453159D02*
X51031119Y-68453159D01*
X112705419Y-25829359D02*
X112705419Y-39878359D01*
X117706119Y-39878359D02*
X117706119Y-25829359D01*
X150805919Y-73453959D02*
X150805919Y-87503159D01*
X41268119Y-92503959D02*
X41268119Y-106553159D01*
X136517919Y-92503959D02*
X136517919Y-106553159D01*
X103418619Y-106553159D02*
X103418619Y-92503959D01*
X155805919Y-87503159D02*
X155805919Y-73453959D01*
X155567919Y-92503959D02*
X155567919Y-106553159D01*
X160568919Y-92503959D02*
X174617919Y-92503959D01*
X174617919Y-92503959D02*
X174617919Y-106553159D01*
X112943619Y-125603359D02*
X112943619Y-111553959D01*
X146042919Y-111553959D02*
X146042919Y-125603359D01*
X165092919Y-111553959D02*
X165092919Y-125603359D01*
X151043919Y-125603359D02*
X151043919Y-111553959D01*
X170093919Y-125603359D02*
X170093919Y-111553959D01*
X117706119Y-73453959D02*
X131755919Y-73453959D01*
X169855919Y-87503159D02*
X155805919Y-87503159D01*
X131755919Y-87503159D02*
X117706119Y-87503159D01*
X131755919Y-73453959D02*
X131755919Y-87503159D01*
X27218569Y-106553159D02*
X27218569Y-92503959D01*
X27218569Y-92503959D02*
X41268119Y-92503959D01*
X122468619Y-106553159D02*
X122468619Y-92503959D01*
X84368619Y-92503959D02*
X98417919Y-92503959D01*
X41268119Y-111553959D02*
X41268119Y-125603359D01*
X98417919Y-92503959D02*
X98417919Y-106553159D01*
X155805919Y-73453959D02*
X169855919Y-73453959D01*
X112943619Y-111553959D02*
X126992919Y-111553959D01*
X126992919Y-111553959D02*
X126992919Y-125603359D01*
X27218569Y-144653329D02*
X27218569Y-130603859D01*
X41268119Y-106553159D02*
X27218569Y-106553159D01*
X58174819Y-106553159D02*
X58174819Y-92503959D01*
X72224219Y-106553159D02*
X58174819Y-106553159D01*
X136517919Y-106553159D02*
X122468619Y-106553159D01*
X84368619Y-106553159D02*
X84368619Y-92503959D01*
X131993919Y-125603359D02*
X131993919Y-111553959D01*
X58174819Y-92503959D02*
X72224219Y-92503959D01*
X141518919Y-106553159D02*
X141518919Y-92503959D01*
X93893619Y-111553959D02*
X107942919Y-111553959D01*
X146042919Y-125603359D02*
X131993919Y-125603359D01*
X126992919Y-125603359D02*
X112943619Y-125603359D01*
X72224219Y-92503959D02*
X72224219Y-106553159D01*
X174617919Y-106553159D02*
X160568919Y-106553159D01*
X131993919Y-111553959D02*
X146042919Y-111553959D01*
X136755919Y-87503159D02*
X136755919Y-73453959D01*
X136755919Y-73453959D02*
X150805919Y-73453959D01*
X93893619Y-125603359D02*
X93893619Y-111553959D01*
X169855919Y-73453959D02*
X169855919Y-87503159D01*
X141518919Y-92503959D02*
X155567919Y-92503959D01*
X107942919Y-111553959D02*
X107942919Y-125603359D01*
X160568919Y-106553159D02*
X160568919Y-92503959D01*
X98417919Y-106553159D02*
X84368619Y-106553159D01*
X27218569Y-111553959D02*
X41268119Y-111553959D01*
X184142919Y-125603359D02*
X170093919Y-125603359D01*
X151043919Y-111553959D02*
X165092919Y-111553959D01*
X122468619Y-92503959D02*
X136517919Y-92503959D01*
X184142919Y-111553959D02*
X184142919Y-125603359D01*
X150805919Y-87503159D02*
X136755919Y-87503159D01*
X103418619Y-92503959D02*
X117467919Y-92503959D01*
X117467919Y-106553159D02*
X103418619Y-106553159D01*
X27218569Y-125603359D02*
X27218569Y-111553959D01*
X165092919Y-125603359D02*
X151043919Y-125603359D01*
X117467919Y-92503959D02*
X117467919Y-106553159D01*
X41268119Y-125603359D02*
X27218569Y-125603359D01*
X107942919Y-125603359D02*
X93893619Y-125603359D01*
X155567919Y-106553159D02*
X141518919Y-106553159D01*
X170093919Y-111553959D02*
X184142919Y-111553959D01*
X187655200Y-84466708D02*
G75*
G02*
X186905200Y-83716708I0J750000D01*
G01*
X22743333Y-18304340D02*
X185905200Y-18304340D01*
X197930845Y-130629075D02*
G75*
G02*
X197180845Y-131379075I-750000J0D01*
G01*
X186905200Y-86716708D02*
X186905200Y-88747905D01*
X194530845Y-149129075D02*
G75*
G03*
X194530845Y-149129075I-1100000J0D01*
G01*
X196430845Y-151129075D02*
G75*
G02*
X195430845Y-152129075I-1000000J0D01*
G01*
X23843333Y-149129075D02*
G75*
G03*
X23843333Y-149129075I-1100000J0D01*
G01*
X381143483Y-18304340D02*
G75*
G02*
X384143483Y-21304340I0J-3000000D01*
G01*
X188405200Y-36804340D02*
G75*
G02*
X187655200Y-37554340I-750000J0D01*
G01*
X187203813Y-91173413D02*
G75*
G02*
X186905200Y-88747905I9701387J2425508D01*
G01*
X185905200Y-18304340D02*
G75*
G02*
X186905200Y-19304340I0J-1000000D01*
G01*
X187655200Y-37554340D02*
G75*
G02*
X186905200Y-36804340I0J750000D01*
G01*
X197180845Y-132879075D02*
G75*
G02*
X197930845Y-133629075I0J-750000D01*
G01*
X196430845Y-130629075D02*
X196430845Y-129310226D01*
X186905200Y-36804340D02*
X186905200Y-19304340D01*
X187655200Y-85966708D02*
G75*
G02*
X188405200Y-86716708I0J-750000D01*
G01*
X188405200Y-39804340D02*
X188405200Y-83716708D01*
X19743333Y-149129075D02*
X19743333Y-21304340D01*
X41268119Y-130603859D02*
X41268119Y-144653329D01*
X384143483Y-21304340D02*
X384143483Y-149129075D01*
X198930845Y-152129075D02*
G75*
G02*
X197930845Y-151129075I0J1000000D01*
G01*
X19743333Y-21304340D02*
G75*
G02*
X22743333Y-18304340I3000000J0D01*
G01*
X27218569Y-130603859D02*
X41268119Y-130603859D01*
X85385658Y-126054070D02*
X78385658Y-126054070D01*
X41268119Y-144653329D02*
X27218569Y-144653329D01*
X188703813Y-91173413D02*
G75*
G02*
X188405200Y-88747905I9701387J2425508D01*
G01*
X381143483Y-18304340D02*
X189405200Y-18304340D01*
X382243483Y-21304340D02*
G75*
G03*
X382243483Y-21304340I-1100000J0D01*
G01*
X54585658Y-126054070D02*
X54585658Y-112554070D01*
X188405200Y-36804340D02*
X188405200Y-19304340D01*
X61585658Y-112554070D02*
X54585658Y-112554070D01*
X188405200Y-83716708D02*
G75*
G02*
X187655200Y-84466708I-750000J0D01*
G01*
X196132232Y-126884718D02*
G75*
G02*
X196430845Y-129310226I-9701387J-2425508D01*
G01*
X22743333Y-152129075D02*
X195430845Y-152129075D01*
X186905200Y-39804340D02*
G75*
G02*
X187655200Y-39054340I750000J0D01*
G01*
X186905200Y-39804340D02*
X186905200Y-83716708D01*
X382243483Y-149129075D02*
G75*
G03*
X382243483Y-149129075I-1100000J0D01*
G01*
X196430845Y-133629075D02*
G75*
G02*
X197180845Y-132879075I750000J0D01*
G01*
X192505200Y-21304340D02*
G75*
G03*
X192505200Y-21304340I-1100000J0D01*
G01*
X197930845Y-133629075D02*
X197930845Y-151129075D01*
X188405200Y-19304340D02*
G75*
G02*
X189405200Y-18304340I1000000J0D01*
G01*
X197632232Y-126884718D02*
G75*
G02*
X197930845Y-129310226I-9701387J-2425508D01*
G01*
X23843333Y-21304340D02*
G75*
G03*
X23843333Y-21304340I-1100000J0D01*
G01*
X384143483Y-149129075D02*
G75*
G02*
X381143483Y-152129075I-3000000J0D01*
G01*
X186905200Y-86716708D02*
G75*
G02*
X187655200Y-85966708I750000J0D01*
G01*
X197180845Y-131379075D02*
G75*
G02*
X196430845Y-130629075I0J750000D01*
G01*
X188405200Y-86716708D02*
X188405200Y-88747905D01*
X196132232Y-126884718D02*
X187203813Y-91173413D01*
X381143483Y-152129075D02*
X198930845Y-152129075D01*
X197632232Y-126884718D02*
X188703813Y-91173413D01*
X85385658Y-126054070D02*
X85385658Y-112554070D01*
X185005200Y-21304340D02*
G75*
G03*
X185005200Y-21304340I-1100000J0D01*
G01*
X85385658Y-112554070D02*
X78385658Y-112554070D01*
X61585658Y-126054070D02*
X54585658Y-126054070D01*
X202030845Y-149129075D02*
G75*
G03*
X202030845Y-149129075I-1100000J0D01*
G01*
X196430845Y-133629075D02*
X196430845Y-151129075D01*
X22743333Y-152129075D02*
G75*
G02*
X19743333Y-149129075I0J3000000D01*
G01*
X187655200Y-39054340D02*
G75*
G02*
X188405200Y-39804340I0J-750000D01*
G01*
M02*
