M48
; DRILL file {KiCad (5.1.5)-3} date 2020/07/19 18:58:03
; FORMAT={-:-/ absolute / metric / decimal}
; #@! TF.CreationDate,2020-07-19T18:58:03+09:00
; #@! TF.GenerationSoftware,Kicad,Pcbnew,(5.1.5)-3
; #@! TF.FileFunction,Plated,1,2,PTH
FMAT,2
METRIC
T1C0.300
T2C0.813
T3C1.000
T4C1.300
T5C1.499
%
G90
G05
T1
X61.278Y-53.913
X61.278Y-61.533
X61.278Y-69.153
X61.278Y-76.773
X61.278Y-84.393
X61.278Y-92.013
X61.278Y-99.633
X61.278Y-109.793
X61.278Y-119.953
X61.278Y-130.113
X61.278Y-142.813
X61.278Y-152.973
X61.278Y-163.133
X61.278Y-173.293
X66.104Y-49.341
X66.358Y-178.373
X71.438Y-69.153
X71.438Y-71.693
X71.438Y-102.173
X71.438Y-119.953
X71.438Y-137.733
X71.438Y-158.053
X73.724Y-49.341
X73.978Y-69.153
X73.978Y-71.693
X73.978Y-175.833
X78.296Y-73.471
X79.058Y-102.173
X79.693Y-82.488
X80.836Y-121.35
X81.217Y-159.831
X81.471Y-73.344
X81.471Y-139.892
X81.598Y-49.341
X82.868Y-102.427
X84.138Y-117.413
X84.138Y-178.373
X86.678Y-127.573
X86.678Y-135.193
X86.678Y-145.353
X86.678Y-152.973
X86.678Y-163.133
X86.678Y-170.753
X86.678Y-175.833
X88.964Y-49.341
X89.853Y-120.588
X91.758Y-99.633
X91.758Y-107.253
X91.758Y-112.333
X94.298Y-127.573
X94.298Y-135.193
X94.298Y-145.353
X94.298Y-152.973
X94.298Y-175.833
X94.298Y-178.373
X95.314Y-72.836
X96.33Y-49.341
X96.838Y-99.633
X101.918Y-175.833
X104.204Y-49.341
X104.458Y-71.693
X104.458Y-178.373
X106.998Y-99.633
X109.538Y-58.993
X109.538Y-64.073
X109.538Y-69.153
X109.538Y-175.833
X110.681Y-74.487
X112.586Y-49.341
X113.983Y-67.883
X114.618Y-58.993
X114.618Y-64.073
X114.618Y-74.233
X114.618Y-99.633
X114.618Y-104.713
X114.618Y-109.793
X114.618Y-117.413
X117.158Y-71.693
X117.158Y-125.033
X117.158Y-130.113
X117.158Y-135.193
X117.158Y-175.833
X117.158Y-178.373
X119.698Y-74.233
X119.698Y-125.033
X119.698Y-130.113
X119.698Y-135.193
X121.73Y-49.341
X122.238Y-71.693
X124.778Y-74.233
X124.778Y-99.633
X124.778Y-145.353
X124.778Y-150.433
X127.318Y-71.693
X127.318Y-140.273
X129.858Y-145.353
X129.858Y-158.053
X129.858Y-178.373
X131.89Y-49.341
X132.017Y-58.231
X132.398Y-76.011
X132.398Y-74.233
X132.398Y-99.633
X132.398Y-175.833
X134.938Y-71.693
X134.938Y-140.273
X136.208Y-67.883
X137.478Y-74.233
X140.018Y-71.693
X140.018Y-140.273
X140.018Y-158.053
X140.018Y-175.833
X142.304Y-49.341
X142.558Y-74.233
X142.558Y-99.633
X142.558Y-178.373
X145.098Y-71.693
X145.098Y-140.273
X149.797Y-78.424
X150.178Y-99.633
X150.178Y-137.733
X150.178Y-175.833
X150.94Y-58.358
X152.718Y-76.773
X152.718Y-158.053
X152.972Y-49.341
X155.258Y-67.883
X155.258Y-74.233
X155.258Y-99.633
X155.258Y-178.373
X157.798Y-71.693
X157.798Y-137.733
X160.338Y-71.693
X160.338Y-74.233
X160.338Y-76.773
X160.338Y-158.053
X160.338Y-175.833
X162.878Y-71.693
X162.878Y-99.633
X164.148Y-49.341
X167.958Y-76.773
X167.958Y-137.733
X170.244Y-79.948
X170.498Y-58.358
X170.498Y-99.633
X170.498Y-178.373
X173.038Y-158.053
X173.038Y-175.833
X173.673Y-67.883
X174.816Y-49.341
X175.578Y-71.693
X175.578Y-76.773
X175.832Y-58.104
X178.118Y-137.733
X180.658Y-74.233
X180.658Y-99.633
X180.658Y-158.053
X183.198Y-71.693
X183.198Y-137.733
X183.198Y-175.833
X184.976Y-49.341
X185.738Y-76.773
X185.738Y-178.373
X188.278Y-74.233
X188.278Y-99.633
X188.278Y-137.733
X189.548Y-58.104
X190.818Y-71.693
X190.818Y-158.053
X191.072Y-81.726
X193.358Y-76.773
X193.358Y-99.633
X193.358Y-175.833
X195.136Y-49.341
X198.184Y-68.264
X198.438Y-74.233
X198.438Y-76.773
X198.438Y-137.733
X198.438Y-158.053
X198.438Y-178.373
X200.978Y-99.633
X203.518Y-158.053
X203.518Y-175.833
X204.407Y-56.834
X205.042Y-49.341
X206.058Y-76.773
X206.058Y-137.733
X208.598Y-51.373
X208.598Y-99.633
X208.598Y-178.373
X209.106Y-82.615
X211.138Y-158.053
X213.678Y-81.853
X213.678Y-102.173
X213.678Y-109.793
X213.678Y-114.873
X213.678Y-175.833
X216.218Y-51.373
X216.218Y-109.793
X216.218Y-119.953
X216.218Y-137.733
X216.218Y-164.403
X216.218Y-173.293
X217.488Y-161.863
X218.758Y-81.853
X218.758Y-99.633
X218.758Y-102.173
X218.758Y-117.413
X218.758Y-175.833
X220.663Y-127.573
X221.298Y-99.633
X221.298Y-135.193
X221.298Y-173.293
X221.298Y-178.373
X223.838Y-53.913
X223.838Y-71.693
X223.838Y-81.853
X223.838Y-92.013
X223.838Y-104.713
X223.838Y-114.873
X223.838Y-122.493
X223.838Y-137.733
X225.743Y-156.148
X226.378Y-132.653
X226.378Y-175.833
X227.648Y-161.863
X228.283Y-152.338
X228.283Y-166.308
X228.918Y-142.813
X228.918Y-178.373
X229.426Y-61.025
X229.426Y-69.153
X229.426Y-79.313
X229.426Y-89.981
X229.934Y-53.913
X230.823Y-156.148
X231.458Y-81.853
X231.458Y-97.093
X231.458Y-99.125
X231.458Y-101.665
X231.458Y-104.713
X231.458Y-112.333
X231.458Y-117.413
X231.458Y-122.493
X231.458Y-150.433
X231.458Y-163.133
X231.458Y-168.213
X231.458Y-173.293
X231.966Y-84.393
X233.363Y-132.018
X233.998Y-99.633
X233.998Y-127.573
X233.998Y-158.053
X233.998Y-165.673
X233.998Y-173.293
X234.506Y-49.341
X235.141Y-90.743
X236.538Y-71.693
X236.538Y-102.173
X236.538Y-122.493
X236.538Y-130.113
X236.538Y-135.193
X236.538Y-140.273
X237.808Y-146.623
X238.824Y-84.52
X238.824Y-94.934
X239.078Y-119.953
X240.348Y-163.133
X241.11Y-49.341
X241.618Y-81.853
X241.618Y-86.933
X241.618Y-92.013
X241.618Y-140.273
X241.618Y-145.353
X241.618Y-150.433
X241.618Y-155.513
X241.618Y-175.833
X244.158Y-119.953
X244.158Y-173.293
X244.158Y-178.373
X246.698Y-76.773
X246.698Y-81.853
X246.698Y-140.273
X246.698Y-145.353
X246.698Y-150.433
X246.698Y-155.513
X246.698Y-175.833
X251.27Y-49.341
X251.778Y-69.153
X251.778Y-76.773
X251.778Y-81.853
X251.778Y-119.953
X251.778Y-162.498
X251.778Y-165.673
X251.778Y-175.833
X254.318Y-137.733
X255.588Y-162.498
X255.588Y-165.673
X256.858Y-76.773
X256.858Y-119.953
X259.398Y-158.053
X259.398Y-178.373
X261.938Y-49.341
X261.938Y-81.853
X261.938Y-119.953
X261.938Y-137.733
X261.938Y-175.833
X267.018Y-76.773
X267.018Y-81.853
X267.018Y-137.733
X269.558Y-69.153
X269.558Y-158.053
X269.558Y-178.373
X272.098Y-76.773
X272.098Y-119.953
X273.241Y-97.601
X274.638Y-137.733
X274.638Y-158.053
X274.638Y-175.833
X275.654Y-49.341
X277.178Y-76.773
X279.718Y-84.393
X279.718Y-119.953
X279.718Y-178.373
X282.258Y-137.733
X282.258Y-158.053
X282.258Y-175.833
X284.798Y-79.313
X284.798Y-119.953
X287.338Y-49.341
X287.338Y-84.393
X289.878Y-69.153
X289.878Y-79.313
X289.878Y-158.053
X292.418Y-119.953
X292.418Y-137.733
X292.418Y-175.833
X292.418Y-178.373
X292.672Y-97.22
X294.958Y-79.313
X297.498Y-158.053
X298.514Y-49.341
X300.038Y-119.953
X300.038Y-137.733
X302.578Y-79.313
X302.578Y-81.853
X302.578Y-175.833
X305.118Y-119.953
X305.118Y-158.053
X305.118Y-178.373
X307.658Y-79.313
X307.658Y-81.853
X310.198Y-49.341
X310.198Y-119.953
X310.579Y-97.22
X311.214Y-63.311
X312.738Y-137.733
X312.738Y-158.053
X312.738Y-175.833
X315.278Y-71.693
X316.929Y-49.214
X317.818Y-119.953
X317.818Y-178.373
X320.358Y-71.693
X320.358Y-81.853
X320.358Y-158.053
X321.374Y-49.087
X321.374Y-50.865
X322.898Y-119.953
X322.898Y-137.733
X322.898Y-175.833
X327.343Y-49.087
X327.978Y-81.853
X327.978Y-158.053
X327.978Y-178.373
X330.518Y-71.693
X330.518Y-97.093
X330.518Y-119.953
X330.518Y-175.833
X333.058Y-137.733
X333.058Y-158.053
X333.185Y-49.087
X334.582Y-57.723
X335.598Y-119.953
X338.138Y-175.833
X338.138Y-178.373
X338.265Y-49.087
X340.678Y-71.693
X340.678Y-81.853
X340.678Y-119.953
X340.678Y-158.053
X343.218Y-137.733
X343.599Y-49.087
X345.758Y-71.693
X345.758Y-81.853
X348.298Y-119.953
X348.298Y-178.373
X349.06Y-97.474
X349.187Y-49.087
X350.838Y-137.733
X350.838Y-158.053
X350.838Y-175.833
X353.378Y-119.953
X354.14Y-49.087
X358.458Y-71.693
X358.458Y-175.833
X358.458Y-178.373
X359.474Y-49.087
X360.998Y-119.953
X360.998Y-137.733
X360.998Y-155.513
X365.57Y-49.087
X366.078Y-71.693
X366.078Y-142.813
X366.078Y-145.353
X366.078Y-150.433
X367.729Y-97.728
X368.618Y-102.173
X368.618Y-114.873
X368.618Y-119.953
X368.618Y-137.733
X368.618Y-142.813
X368.618Y-145.353
X368.618Y-150.433
X368.618Y-158.053
X368.618Y-178.373
X371.158Y-49.087
X371.158Y-109.793
X371.158Y-137.733
X371.158Y-175.833
X373.698Y-102.173
X373.698Y-114.873
X373.698Y-119.953
X376.238Y-158.053
X376.619Y-49.087
X378.778Y-112.333
X378.778Y-175.833
X379.032Y-70.169
X381.318Y-102.173
X381.318Y-109.793
X381.318Y-178.373
X383.858Y-71.693
X383.858Y-135.193
X384.112Y-49.087
X387.033Y-97.22
X388.938Y-53.659
X388.938Y-102.173
X388.938Y-155.513
X388.938Y-178.373
X390.716Y-49.087
X391.478Y-137.733
X391.478Y-145.353
X391.478Y-150.433
X391.732Y-53.913
X393.51Y-57.977
X394.018Y-104.713
X394.018Y-155.513
X394.018Y-175.833
X395.318Y-82.361
X396.558Y-178.373
X397.193Y-49.087
X399.098Y-137.733
X399.098Y-145.353
X399.098Y-150.433
X399.098Y-155.513
X399.098Y-163.133
X399.098Y-170.753
X399.098Y-175.833
X399.352Y-118.937
X399.606Y-103.697
X399.733Y-96.712
X399.733Y-112.714
X399.86Y-89.473
X401.384Y-118.302
X402.288Y-102.753
X403.018Y-56.043
X404.432Y-49.087
X408.496Y-118.302
X409.258Y-175.833
X409.258Y-178.373
X411.095Y-49.655
X413.449Y-49.087
X414.338Y-178.373
X416.497Y-118.302
X417.64Y-99.379
X417.894Y-49.087
X421.958Y-165.673
X421.958Y-170.753
X421.958Y-175.833
X422.212Y-60.009
X422.339Y-54.167
X422.339Y-65.978
X422.339Y-70.931
X422.339Y-77.408
X422.339Y-82.742
X422.466Y-87.441
X422.466Y-92.775
X422.466Y-98.617
X422.466Y-104.713
X422.466Y-110.682
X422.466Y-116.651
X422.466Y-122.747
X422.593Y-128.208
X422.593Y-134.558
X422.593Y-141.924
X422.593Y-148.655
X422.593Y-153.989
X422.593Y-160.593
T2
X68.271Y-53.405
X68.271Y-55.945
X68.271Y-58.485
X68.271Y-61.025
X68.271Y-63.565
X68.271Y-66.105
X68.271Y-68.645
X68.271Y-71.185
X68.271Y-73.725
X68.271Y-76.265
X68.271Y-78.805
X68.271Y-81.345
X83.491Y-53.405
X83.491Y-55.945
X83.491Y-58.485
X83.491Y-61.025
X83.491Y-63.565
X83.491Y-66.105
X83.491Y-68.645
X83.491Y-71.185
X83.491Y-73.725
X83.491Y-76.265
X83.491Y-78.805
X83.491Y-81.345
X399.741Y-53.433
X399.741Y-55.973
X399.741Y-58.513
X399.741Y-61.053
X399.741Y-63.593
X399.741Y-66.133
X399.741Y-68.673
X399.741Y-71.213
X399.741Y-73.753
X399.741Y-76.293
X399.741Y-78.833
X399.741Y-81.373
X414.961Y-53.433
X414.961Y-55.973
X414.961Y-58.513
X414.961Y-61.053
X414.961Y-63.593
X414.961Y-66.133
X414.961Y-68.673
X414.961Y-71.213
X414.961Y-73.753
X414.961Y-76.293
X414.961Y-78.833
X414.961Y-81.373
T4
X235.128Y-87.417
X235.128Y-93.917
X219.012Y-105.908
X219.012Y-112.408
T5
X379.239Y-164.944
X385.589Y-162.404
X338.758Y-164.944
X345.108Y-162.404
X184.396Y-126.854
X190.746Y-124.314
X357.808Y-126.844
X364.158Y-124.304
X405.433Y-107.794
X411.783Y-105.254
X300.658Y-164.944
X307.008Y-162.404
X70.096Y-107.804
X76.446Y-105.264
X338.758Y-126.844
X345.108Y-124.304
X257.795Y-107.794
X264.145Y-105.254
X212.916Y-145.904
X219.266Y-143.364
X189.159Y-88.754
X195.509Y-86.214
X122.484Y-107.804
X128.834Y-105.264
X179.634Y-60.179
X185.984Y-57.639
X253.033Y-145.894
X259.383Y-143.354
X122.484Y-60.179
X128.834Y-57.639
X127.246Y-126.854
X133.596Y-124.314
X276.845Y-107.794
X283.195Y-105.254
X343.52Y-60.169
X349.87Y-57.629
X170.109Y-88.754
X176.459Y-86.214
X141.534Y-107.804
X147.884Y-105.264
X319.708Y-126.844
X326.058Y-124.304
X238.745Y-107.794
X245.095Y-105.254
X70.096Y-145.904
X76.446Y-143.364
X136.716Y-145.904
X143.066Y-143.364
X117.666Y-164.954
X124.016Y-162.414
X208.209Y-60.179
X214.559Y-57.639
X96.29Y-164.954
X102.64Y-162.414
X295.895Y-107.794
X302.245Y-105.254
X132.009Y-88.754
X138.359Y-86.214
X276.845Y-60.169
X283.195Y-57.629
X333.995Y-107.794
X340.345Y-105.254
X238.745Y-60.169
X245.095Y-57.629
X141.534Y-60.179
X147.884Y-57.639
X295.895Y-60.169
X302.245Y-57.629
X281.608Y-126.844
X287.958Y-124.304
X286.37Y-88.744
X292.72Y-86.204
X200.978Y-164.954
X207.328Y-162.414
X146.296Y-126.854
X152.646Y-124.314
X98.671Y-107.804
X105.021Y-105.264
X281.608Y-164.944
X287.958Y-162.404
X70.096Y-126.854
X76.446Y-124.314
X329.233Y-145.894
X335.583Y-143.354
X343.52Y-88.744
X349.87Y-86.204
X151.059Y-88.754
X157.409Y-86.214
X155.766Y-145.861
X162.116Y-143.321
X300.658Y-126.844
X307.008Y-124.304
X305.42Y-88.744
X311.77Y-86.204
X405.433Y-164.944
X411.783Y-162.404
X165.346Y-126.854
X171.696Y-124.314
X291.133Y-145.894
X297.483Y-143.354
X324.47Y-60.169
X330.82Y-57.629
X248.27Y-88.744
X254.62Y-86.204
X193.866Y-145.904
X200.216Y-143.364
X357.808Y-164.944
X364.158Y-162.404
X174.816Y-145.904
X181.166Y-143.364
X405.433Y-145.894
X411.783Y-143.354
X243.508Y-126.844
X249.858Y-124.304
X319.708Y-164.944
X326.058Y-162.404
X381.62Y-60.169
X387.97Y-57.629
X260.176Y-164.944
X266.526Y-162.404
X379.239Y-117.319
X385.589Y-114.779
X139.002Y-164.954
X145.352Y-162.414
X348.283Y-145.894
X354.633Y-143.354
X381.62Y-88.744
X387.97Y-86.204
X179.642Y-164.954
X185.992Y-162.414
X105.855Y-145.904
X112.205Y-143.364
X93.909Y-88.754
X100.259Y-86.214
X203.446Y-126.854
X209.796Y-124.314
X272.083Y-145.894
X278.433Y-143.354
X314.945Y-107.794
X321.295Y-105.254
X70.096Y-88.754
X76.446Y-86.214
X208.209Y-88.754
X214.559Y-86.214
X310.183Y-145.894
X316.533Y-143.354
X353.045Y-107.794
X359.395Y-105.254
X198.684Y-107.804
X205.034Y-105.264
X262.558Y-126.844
X268.908Y-124.304
X93.909Y-60.179
X100.259Y-57.639
X405.433Y-88.744
X411.783Y-86.204
X362.57Y-88.744
X368.92Y-86.204
X257.795Y-60.169
X264.145Y-57.629
X112.959Y-88.754
X119.309Y-86.214
X179.634Y-107.804
X185.984Y-105.264
X405.433Y-126.844
X411.783Y-124.304
X362.57Y-60.169
X368.92Y-57.629
X160.584Y-60.179
X166.934Y-57.639
X160.584Y-107.804
X166.934Y-105.264
X374.476Y-145.894
X380.826Y-143.354
X160.592Y-164.954
X166.942Y-162.414
X267.32Y-88.744
X273.67Y-86.204
X324.47Y-88.744
X330.82Y-86.204
X101.053Y-126.854
X107.403Y-124.314
X70.096Y-164.954
X76.446Y-162.414
T3
G00X212.55Y-79.508
M15
G01X213.05Y-79.508
M16
G05
G00X214.05Y-75.308
M15
G01X214.55Y-75.308
M16
G05
G00X218.05Y-75.308
M15
G01X218.55Y-75.308
M16
G05
G00X221.05Y-75.308
M15
G01X221.55Y-75.308
M16
G05
G00X196.592Y-53.399
M15
G01X196.592Y-52.899
M16
G05
G00X196.592Y-56.399
M15
G01X196.592Y-55.899
M16
G05
G00X196.592Y-60.399
M15
G01X196.592Y-59.899
M16
G05
G00X200.792Y-61.899
M15
G01X200.792Y-61.399
M16
G05
G00X233.484Y-79.508
M15
G01X232.984Y-79.508
M16
G05
G00X236.484Y-79.508
M15
G01X235.984Y-79.508
M16
G05
G00X240.484Y-79.508
M15
G01X239.984Y-79.508
M16
G05
G00X241.984Y-75.308
M15
G01X241.484Y-75.308
M16
G05
G00X313.178Y-53.399
M15
G01X313.178Y-52.899
M16
G05
G00X313.178Y-56.399
M15
G01X313.178Y-55.899
M16
G05
G00X313.178Y-60.399
M15
G01X313.178Y-59.899
M16
G05
G00X317.378Y-61.899
M15
G01X317.378Y-61.399
M16
G05
T0
M30
