  0
SECTION
  2
HEADER
  9
$ACADVER
  1
AC1009
  9
$INSBASE
 10
0
 20
0
 30
0
  9
$EXTMIN
 10
0
 20
0
  9
$EXTMAX
 10
841
 20
594
  9
$LIMMIN
 10
0
 20
0
  9
$LIMMAX
 10
841
 20
594
  9
$LTSCALE
 40
1
  0
ENDSEC
  0
SECTION
  2
TABLES
  0
TABLE
  2
LTYPE
 70
     9
  0
LTYPE
  2
CONTINUOUS
 70
    64
  3
実線
 72
    65
 73
     0
 40
0.0
  0
LTYPE
  2
DASHED1
 70
    64
  3
--  --  --  --  --  --  --  --  
 72
    65
 73
     2
 40
2.5
 49
1.25
 49
-1.25
  0
LTYPE
  2
DASHED2
 70
    64
  3
----    ----    ----    ----    
 72
    65
 73
     2
 40
5.0
 49
2.5
 49
-2.5
  0
LTYPE
  2
DASHED3
 70
    64
  3
------  ------  ------  ------  
 72
    65
 73
     2
 40
5.0
 49
3.75
 49
-1.25
  0
LTYPE
  2
CENTER1
 70
    64
  3
----- - ----- - ----- - ----- - 
 72
    65
 73
     4
 40
10.0
 49
6.25
 49
-1.25
 49
1.25
 49
-1.25
  0
LTYPE
  2
CENTER2
 70
    64
  3
----------  --  ----------  --  
 72
    65
 73
     4
 40
20.0
 49
12.5
 49
-2.5
 49
2.5
 49
-2.5
  0
LTYPE
  2
PHANTOM1
 70
    64
  3
--- - - --- - - --- - - --- - - 
 72
    65
 73
     6
 40
10.0
 49
3.25
 49
-1.25
 49
1.25
 49
-1.25
 49
1.25
 49
-1.25
  0
LTYPE
  2
PHANTOM2
 70
    64
  3
--------  -  -  --------  -  -  
 72
    65
 73
     6
 40
20.0
 49
10.0
 49
-2.5
 49
1.25
 49
-2.5
 49
1.25
 49
-2.5
  0
LTYPE
  2
DOT
 70
    64
  3
-   -   -   -   -   -   -   -   
 72
    65
 73
     2
 40
2.5
 49
0.625
 49
-1.875
  0
LTYPE
  2
DUMMY
 70
    64
  3
ダミー
 72
    65
 73
     0
 40
0.0
  0
LTYPE
  2
RAND1
 70
    64
  3
ランダム線1
 72
    65
 73
     4
 40
10.0
 49
1.0
 49
-2.0
 49
3.0
 49
-4.0
  0
LTYPE
  2
RAND2
 70
    64
  3
ランダム線2
 72
    65
 73
     4
 40
14.0
 49
2.0
 49
-3.0
 49
4.0
 49
-5.0
  0
LTYPE
  2
RAND3
 70
    64
  3
ランダム線3
 72
    65
 73
     4
 40
18.0
 49
3.0
 49
-4.0
 49
5.0
 49
-6.0
  0
LTYPE
  2
RAND4
 70
    64
  3
ランダム線4
 72
    65
 73
     4
 40
22.0
 49
4.0
 49
-5.0
 49
6.0
 49
-7.0
  0
LTYPE
  2
RAND5
 70
    64
  3
ランダム線5
 72
    65
 73
     4
 40
26.0
 49
5.0
 49
-6.0
 49
7.0
 49
-8.0
  0
LTYPE
  2
LONG1
 70
    64
  3
----------  --  ----------  --  
 72
    65
 73
     4
 40
40.0
 49
32.5
 49
-2.5
 49
2.5
 49
-2.5
  0
LTYPE
  2
LONG2
 70
    64
  3
--------  -  -  --------  -  -  
 72
    65
 73
     6
 40
40.0
 49
30.0
 49
-2.5
 49
1.25
 49
-2.5
 49
1.25
 49
-2.5
  0
LTYPE
  2
LONG3
 70
    64
  3
+++++++++++++++..+++++++++++++++
 72
    65
 73
     2
 40
40.0
 49
37.5
 49
-2.5
  0
LTYPE
  2
LONG4
 70
    64
  3
+++++++++++++++..+++++++++++++++
 72
    65
 73
     2
 40
80.0
 49
75.0
 49
-5.0
  0
LTYPE
  2
LONG5
 70
    64
  3
----------  --  ----------  --  
 72
    65
 73
     4
 40
60.0
 49
37.5
 49
-7.5
 49
7.5
 49
-7.5
  0
LTYPE
  2
dashed
 70
   64
  3
-------   -------------   ------
 72
   65
 73
    2
 40
7.5
 49
6
 49
-1.5
  0
LTYPE
  2
dashed_spaced
 70
   64
  3
----        --------        ----
 72
   65
 73
    2
 40
12
 49
6
 49
-6
  0
LTYPE
  2
long_dashed_dotted
 70
   64
  3
------------- --- --------------
 72
   65
 73
    4
 40
15.25
 49
12
 49
-1.5
 49
0.25
 49
-1.5
  0
LTYPE
  2
long_dashed_double-dotted
 70
   64
  3
----------- --- --- ------------
 72
   65
 73
    6
 40
17
 49
12
 49
-1.5
 49
0.25
 49
-1.5
 49
0.25
 49
-1.5
  0
LTYPE
  2
long_dashed_triplicate-dotted
 70
   64
  3
--------- --- --- --- ----------
 72
   65
 73
    8
 40
18.75
 49
12
 49
-1.5
 49
0.25
 49
-1.5
 49
0.25
 49
-1.5
 49
0.25
 49
-1.5
  0
LTYPE
  2
dotted
 70
   64
  3
   -       -       -       -    
 72
   65
 73
    2
 40
1.75
 49
0.25
 49
-1.5
  0
LTYPE
  2
chain
 70
   64
  3
-------------- -- --------------
 72
   65
 73
    4
 40
18.5
 49
12
 49
-1.5
 49
3.5
 49
-1.5
  0
LTYPE
  2
chain_double_dash
 70
   64
  3
------------ -- -- -------------
 72
   65
 73
    6
 40
23.5
 49
12
 49
-1.5
 49
3.5
 49
-1.5
 49
3.5
 49
-1.5
  0
LTYPE
  2
dashed_dotted
 70
   64
  3
-----------     -     ----------
 72
   65
 73
    4
 40
9.25
 49
6
 49
-1.5
 49
0.25
 49
-1.5
  0
LTYPE
  2
double-dashed_dotted
 70
   64
  3
------   -----------   -   -----
 72
   65
 73
    6
 40
16.75
 49
6
 49
-1.5
 49
6
 49
-1.5
 49
0.25
 49
-1.5
  0
LTYPE
  2
dashed_double-dotted
 70
   64
  3
---------    -    -    ---------
 72
   65
 73
    6
 40
11
 49
6
 49
-1.5
 49
0.25
 49
-1.5
 49
0.25
 49
-1.5
  0
LTYPE
  2
double-dashed_double-dotted
 70
   64
  3
-----   ---------   -   -   ----
 72
   65
 73
    8
 40
18.5
 49
6
 49
-1.5
 49
6
 49
-1.5
 49
0.25
 49
-1.5
 49
0.25
 49
-1.5
  0
LTYPE
  2
dashed_triplicate-dotted
 70
   64
  3
-------    -    -    -    ------
 72
   65
 73
    8
 40
12.75
 49
6
 49
-1.5
 49
0.25
 49
-1.5
 49
0.25
 49
-1.5
 49
0.25
 49
-1.5
  0
LTYPE
  2
double-dashed_triplicate-dotted
 70
   64
  3
-----  ---------  -  -  -  -----
 72
   65
 73
   10
 40
20.25
 49
6
 49
-1.5
 49
6
 49
-1.5
 49
0.25
 49
-1.5
 49
0.25
 49
-1.5
 49
0.25
 49
-1.5
  0
LTYPE
  2
undefined
 70
   64
  3
--------------------------------
 72
   65
 73
    0
 40
0
  0
LTYPE
  2
_
 70
   64
  3
                                
 72
   65
 73
    0
 40
0
  0
LTYPE
  2
__18
 70
   64
  3
                                
 72
   65
 73
    0
 40
0
  0
LTYPE
  2
__19
 70
   64
  3
                                
 72
   65
 73
    0
 40
0
  0
LTYPE
  2
__20
 70
   64
  3
                                
 72
   65
 73
    0
 40
0
  0
LTYPE
  2
__21
 70
   64
  3
                                
 72
   65
 73
    0
 40
0
  0
LTYPE
  2
__22
 70
   64
  3
                                
 72
   65
 73
    0
 40
0
  0
LTYPE
  2
__23
 70
   64
  3
                                
 72
   65
 73
    0
 40
0
  0
LTYPE
  2
__24
 70
   64
  3
                                
 72
   65
 73
    0
 40
0
  0
LTYPE
  2
__25
 70
   64
  3
                                
 72
   65
 73
    0
 40
0
  0
LTYPE
  2
__26
 70
   64
  3
                                
 72
   65
 73
    0
 40
0
  0
LTYPE
  2
__27
 70
   64
  3
                                
 72
   65
 73
    0
 40
0
  0
LTYPE
  2
__28
 70
   64
  3
                                
 72
   65
 73
    0
 40
0
  0
LTYPE
  2
__29
 70
   64
  3
                                
 72
   65
 73
    0
 40
0
  0
LTYPE
  2
__30
 70
   64
  3
                                
 72
   65
 73
    0
 40
0
  0
LTYPE
  2
__31
 70
   64
  3
                                
 72
   65
 73
    0
 40
0
  0
LTYPE
  2
__32
 70
   64
  3
                                
 72
   65
 73
    0
 40
0
  0
ENDTAB
  0
TABLE
  2
STYLE
  5
3
100
AcDbSymbolTable
 70
     1
  0
STYLE
  5
10
100
AcDbSymbolTableRecord
100
AcDbTextStyleTableRecord
  2
STANDARD
 70
     0
 40
0.0
 41
1.0
 50
0.0
 71
     0
 42
0.2
  3
txt
  4
bigfont.shx
  0
STYLE
  5
26
100
AcDbSymbolTableRecord
100
AcDbTextStyleTableRecord
  2
TATEGAKI
 70
    68
 40
0.0
 41
1.0
 50
0.0
 71
     0
 42
1.0
  3
txt
  4
bigfont.shx
  0
ENDTAB
  0
TABLE
  2
LAYER
 70
    2
  0
LAYER
  2
_0-0_
 70
   64
 62
    7
  6
CONTINUOUS
  0
LAYER
  2
ADD_LINE
 70
   64
 62
    7
  6
CONTINUOUS
  0
ENDTAB
  0
ENDSEC
  0
SECTION
  2
BLOCKS
  0
ENDSEC
  0
SECTION
  2
ENTITIES
  0
LINE
  8
_0-0_
  6
CONTINUOUS
 62
    7
 10
195.90887213187131
 20
274.64939917560224
 11
188.90887213187131
 21
274.64939917560224
  0
LINE
  8
_0-0_
  6
CONTINUOUS
 62
    7
 10
188.90887213187131
 20
261.14939917560224
 11
188.90887213187131
 21
274.64939917560224
  0
LINE
  8
_0-0_
  6
CONTINUOUS
 62
    7
 10
195.90887213187131
 20
261.14939917560224
 11
188.90887213187131
 21
261.14939917560224
  0
LINE
  8
_0-0_
  6
CONTINUOUS
 62
    7
 10
195.90887213187131
 20
261.14939917560224
 11
195.90887213187131
 21
274.64939917560224
  0
LINE
  8
_0-0_
  6
CONTINUOUS
 62
    7
 10
219.70887213187137
 20
274.64939917560224
 11
212.70887213187137
 21
274.64939917560224
  0
LINE
  8
_0-0_
  6
CONTINUOUS
 62
    7
 10
212.70887213187137
 20
261.14939917560224
 11
212.70887213187137
 21
274.64939917560224
  0
LINE
  8
_0-0_
  6
CONTINUOUS
 62
    7
 10
219.70887213187137
 20
261.14939917560224
 11
219.70887213187137
 21
274.64939917560224
  0
LINE
  8
_0-0_
  6
CONTINUOUS
 62
    7
 10
219.70887213187137
 20
261.14939917560224
 11
212.70887213187137
 21
261.14939917560224
  0
LINE
  8
_0-0_
  6
CONTINUOUS
 62
    7
 10
471.7471971318713
 20
312.6244291756023
 11
471.7471971318713
 21
305.6244291756023
  0
LINE
  8
_0-0_
  6
CONTINUOUS
 62
    7
 10
485.2471971318713
 20
312.6244291756023
 11
471.7471971318713
 21
312.6244291756023
  0
LINE
  8
_0-0_
  6
CONTINUOUS
 62
    7
 10
485.2471971318713
 20
305.6244291756023
 11
471.7471971318713
 21
305.6244291756023
  0
LINE
  8
_0-0_
  6
CONTINUOUS
 62
    7
 10
485.2471971318713
 20
312.6244291756023
 11
485.2471971318713
 21
305.6244291756023
  0
LINE
  8
_0-0_
  6
CONTINUOUS
 62
    7
 10
485.2471971318713
 20
288.82442917560229
 11
471.7471971318713
 21
288.82442917560229
  0
LINE
  8
_0-0_
  6
CONTINUOUS
 62
    7
 10
485.2471971318713
 20
288.82442917560229
 11
485.2471971318713
 21
281.82442917560229
  0
LINE
  8
_0-0_
  6
CONTINUOUS
 62
    7
 10
485.2471971318713
 20
281.82442917560229
 11
471.7471971318713
 21
281.82442917560229
  0
LINE
  8
_0-0_
  6
CONTINUOUS
 62
    7
 10
471.7471971318713
 20
288.82442917560229
 11
471.7471971318713
 21
281.82442917560229
  0
CIRCLE
  8
_0-0_
  6
CONTINUOUS
 62
    7
 10
504.55669713187126
 20
363.89912917560235
 40
1
  0
CIRCLE
  8
_0-0_
  6
CONTINUOUS
 62
    7
 10
167.97654713187126
 20
363.8991291756023
 40
1
  0
LINE
  8
_0-0_
  6
CONTINUOUS
 62
    7
 10
154.06654713187129
 20
238.07439417560224
 11
154.06654713187129
 21
365.8991291756023
  0
LINE
  8
_0-0_
  6
CONTINUOUS
 62
    7
 10
157.06654713187129
 20
368.8991291756023
 11
320.22841463187126
 21
368.8991291756023
  0
ARC
  8
_0-0_
  6
CONTINUOUS
 62
    7
 10
157.06654713187129
 20
365.8991291756023
 40
3
 50
90
 51
180
  0
ARC
  8
_0-0_
  6
CONTINUOUS
 62
    7
 10
331.22841463187126
 20
298.45556473797632
 40
10
 50
180
 51
194.03713868216576
  0
ARC
  8
_0-0_
  6
CONTINUOUS
 62
    7
 10
320.22841463187126
 20
367.89912917560235
 40
1
 50
0
 51
90
  0
LINE
  8
_0-0_
  6
CONTINUOUS
 62
    7
 10
330.45544673731695
 20
260.31875144258942
 11
321.52702752642557
 21
296.03005690861511
  0
ARC
  8
_0-0_
  6
CONTINUOUS
 62
    7
 10
320.75405963187126
 20
257.89324361322821
 40
10
 50
0
 51
14.037138682165798
  0
ARC
  8
_0-0_
  6
CONTINUOUS
 62
    7
 10
329.75405963187126
 20
236.07439417560224
 40
1
 50
270
 51
0
  0
ARC
  8
_0-0_
  6
CONTINUOUS
 62
    7
 10
332.72841463187126
 20
298.45556473797632
 40
10
 50
180
 51
194.03713868216576
  0
LINE
  8
_0-0_
  6
CONTINUOUS
 62
    7
 10
331.95544673731695
 20
260.31875144258942
 11
323.02702752642557
 21
296.03005690861511
  0
ARC
  8
_0-0_
  6
CONTINUOUS
 62
    7
 10
322.25405963187126
 20
257.89324361322821
 40
10
 50
0
 51
14.037138682165798
  0
ARC
  8
_0-0_
  6
CONTINUOUS
 62
    7
 10
323.72841463187126
 20
367.89912917560235
 40
1
 50
90
 51
180
  0
ARC
  8
_0-0_
  6
CONTINUOUS
 62
    7
 10
333.25405963187126
 20
236.07439417560224
 40
1
 50
180
 51
270
  0
LINE
  8
_0-0_
  6
CONTINUOUS
 62
    7
 10
329.0789598484169
 20
368.89912917560235
 11
323.72841463187126
 21
368.89912917560235
  0
LINE
  8
_0-0_
  6
CONTINUOUS
 62
    7
 10
330.75405963187126
 20
253.57439417560224
 11
330.75405963187126
 21
236.07439417560224
  0
ARC
  8
_0-0_
  6
CONTINUOUS
 62
    7
 10
331.50405963187126
 20
253.57439417560224
 40
0.7500000000000001
 50
90
 51
180
  0
LINE
  8
_0-0_
  6
CONTINUOUS
 62
    7
 10
332.25405963187126
 20
253.57439417560224
 11
332.25405963187126
 21
236.07439417560224
  0
ARC
  8
_0-0_
  6
CONTINUOUS
 62
    7
 10
331.50405963187126
 20
253.57439417560224
 40
0.7500000000000001
 50
0
 51
90
  0
LINE
  8
_0-0_
  6
CONTINUOUS
 62
    7
 10
330.75405963187126
 20
256.57439417560227
 11
330.75405963187126
 21
257.89324361322821
  0
ARC
  8
_0-0_
  6
CONTINUOUS
 62
    7
 10
331.50405963187126
 20
256.57439417560227
 40
0.7500000000000001
 50
180
 51
270
  0
LINE
  8
_0-0_
  6
CONTINUOUS
 62
    7
 10
332.25405963187126
 20
256.57439417560227
 11
332.25405963187126
 21
257.89324361322821
  0
ARC
  8
_0-0_
  6
CONTINUOUS
 62
    7
 10
331.50405963187126
 20
256.57439417560227
 40
0.7500000000000001
 50
270
 51
0
  0
LINE
  8
_0-0_
  6
CONTINUOUS
 62
    7
 10
321.22841463187126
 20
300.48676167560228
 11
321.22841463187126
 21
298.45556473797632
  0
ARC
  8
_0-0_
  6
CONTINUOUS
 62
    7
 10
321.97841463187126
 20
300.48676167560228
 40
0.7500000000000001
 50
90
 51
180
  0
LINE
  8
_0-0_
  6
CONTINUOUS
 62
    7
 10
322.72841463187126
 20
300.48676167560228
 11
322.72841463187126
 21
298.45556473797632
  0
ARC
  8
_0-0_
  6
CONTINUOUS
 62
    7
 10
321.97841463187126
 20
300.48676167560228
 40
0.7500000000000001
 50
0
 51
90
  0
ARC
  8
_0-0_
  6
CONTINUOUS
 62
    7
 10
321.97841463187126
 20
303.48676167560228
 40
0.7500000000000001
 50
180
 51
270
  0
ARC
  8
_0-0_
  6
CONTINUOUS
 62
    7
 10
321.97841463187126
 20
303.48676167560228
 40
0.7500000000000001
 50
270
 51
0
  0
LINE
  8
_0-0_
  6
CONTINUOUS
 62
    7
 10
321.22841463187126
 20
350.39912917560235
 11
321.22841463187126
 21
367.89912917560235
  0
ARC
  8
_0-0_
  6
CONTINUOUS
 62
    7
 10
321.97841463187126
 20
350.39912917560235
 40
0.7500000000000001
 50
180
 51
270
  0
LINE
  8
_0-0_
  6
CONTINUOUS
 62
    7
 10
322.72841463187126
 20
350.39912917560235
 11
322.72841463187126
 21
367.89912917560235
  0
ARC
  8
_0-0_
  6
CONTINUOUS
 62
    7
 10
321.97841463187126
 20
350.39912917560235
 40
0.7500000000000001
 50
270
 51
0
  0
LINE
  8
_0-0_
  6
CONTINUOUS
 62
    7
 10
321.22841463187126
 20
347.39912917560235
 11
321.22841463187126
 21
303.48676167560228
  0
ARC
  8
_0-0_
  6
CONTINUOUS
 62
    7
 10
321.97841463187126
 20
347.39912917560235
 40
0.7500000000000001
 50
90
 51
180
  0
LINE
  8
_0-0_
  6
CONTINUOUS
 62
    7
 10
322.72841463187126
 20
347.39912917560235
 11
322.72841463187126
 21
303.48676167560228
  0
ARC
  8
_0-0_
  6
CONTINUOUS
 62
    7
 10
321.97841463187126
 20
347.39912917560235
 40
0.7500000000000001
 50
0
 51
90
  0
LINE
  8
_0-0_
  6
CONTINUOUS
 62
    7
 10
157.06654713187129
 20
235.07439417560224
 11
329.75405963187126
 21
235.07439417560224
  0
ARC
  8
_0-0_
  6
CONTINUOUS
 62
    7
 10
157.06654713187129
 20
238.07439417560224
 40
3
 50
180
 51
270
  0
LINE
  8
_0-0_
  6
CONTINUOUS
 62
    7
 10
515.46669713187123
 20
235.07439417560224
 11
333.25405963187126
 21
235.07439417560224
  0
ARC
  8
_0-0_
  6
CONTINUOUS
 62
    7
 10
515.46669713187123
 20
238.07439417560224
 40
3
 50
270
 51
0
  0
LINE
  8
_0-0_
  6
CONTINUOUS
 62
    7
 10
515.46669713187123
 20
368.89912917560235
 11
323.72841463187126
 21
368.89912917560235
  0
LINE
  8
_0-0_
  6
CONTINUOUS
 62
    7
 10
518.46669713187123
 20
365.89912917560235
 11
518.46669713187123
 21
238.07439417560224
  0
ARC
  8
_0-0_
  6
CONTINUOUS
 62
    7
 10
515.46669713187123
 20
365.89912917560235
 40
3
 50
0
 51
90
  0
CIRCLE
  8
_0-0_
  6
CONTINUOUS
 62
    7
 10
157.06654713187129
 20
365.8991291756023
 40
1.1000000000000001
  0
CIRCLE
  8
_0-0_
  6
CONTINUOUS
 62
    7
 10
157.06654713187129
 20
238.07439417560224
 40
1.1000000000000001
  0
CIRCLE
  8
_0-0_
  6
CONTINUOUS
 62
    7
 10
327.75405963187126
 20
238.07439417560224
 40
1.1000000000000001
  0
CIRCLE
  8
_0-0_
  6
CONTINUOUS
 62
    7
 10
318.22841463187126
 20
365.8991291756023
 40
1.1000000000000001
  0
CIRCLE
  8
_0-0_
  6
CONTINUOUS
 62
    7
 10
325.72841463187126
 20
365.89912917560235
 40
1.1000000000000001
  0
CIRCLE
  8
_0-0_
  6
CONTINUOUS
 62
    7
 10
335.25405963187126
 20
238.07439417560224
 40
1.1000000000000001
  0
CIRCLE
  8
_0-0_
  6
CONTINUOUS
 62
    7
 10
515.46669713187123
 20
238.07439417560224
 40
1.1000000000000001
  0
CIRCLE
  8
_0-0_
  6
CONTINUOUS
 62
    7
 10
515.46669713187123
 20
365.89912917560235
 40
1.1000000000000001
  0
LINE
  8
_0-0_
  6
CONTINUOUS
 62
    7
 10
175.59133338137121
 20
256.59961096060226
 11
175.59133338137121
 21
242.55014096060233
  0
LINE
  8
_0-0_
  6
CONTINUOUS
 62
    7
 10
175.59133338137121
 20
242.55014096060233
 11
161.54178338137126
 21
242.55014096060233
  0
LINE
  8
_0-0_
  6
CONTINUOUS
 62
    7
 10
161.54178338137126
 20
256.59961096060226
 11
175.59133338137121
 21
256.59961096060226
  0
LINE
  8
_0-0_
  6
CONTINUOUS
 62
    7
 10
161.54178338137126
 20
242.55014096060233
 11
161.54178338137126
 21
256.59961096060226
  0
LINE
  8
_0-0_
  6
CONTINUOUS
 62
    7
 10
318.46613338137126
 20
275.6495109606023
 11
318.46613338137126
 21
261.60011096060231
  0
LINE
  8
_0-0_
  6
CONTINUOUS
 62
    7
 10
318.46613338137126
 20
261.60011096060231
 11
304.41713338137129
 21
261.60011096060231
  0
LINE
  8
_0-0_
  6
CONTINUOUS
 62
    7
 10
304.41713338137129
 20
275.6495109606023
 11
318.46613338137126
 21
275.6495109606023
  0
LINE
  8
_0-0_
  6
CONTINUOUS
 62
    7
 10
304.41713338137129
 20
261.60011096060231
 11
304.41713338137129
 21
275.6495109606023
  0
LINE
  8
_0-0_
  6
CONTINUOUS
 62
    7
 10
299.4161333813712
 20
275.6495109606023
 11
299.4161333813712
 21
261.60011096060231
  0
LINE
  8
_0-0_
  6
CONTINUOUS
 62
    7
 10
299.4161333813712
 20
261.60011096060231
 11
285.36713338137122
 21
261.60011096060231
  0
LINE
  8
_0-0_
  6
CONTINUOUS
 62
    7
 10
285.36713338137122
 20
275.6495109606023
 11
299.4161333813712
 21
275.6495109606023
  0
LINE
  8
_0-0_
  6
CONTINUOUS
 62
    7
 10
285.36713338137122
 20
261.60011096060231
 11
285.36713338137122
 21
275.6495109606023
  0
LINE
  8
_0-0_
  6
CONTINUOUS
 62
    7
 10
280.36613338137124
 20
275.6495109606023
 11
280.36613338137124
 21
261.60011096060231
  0
LINE
  8
_0-0_
  6
CONTINUOUS
 62
    7
 10
280.36613338137124
 20
261.60011096060231
 11
266.31713338137126
 21
261.60011096060231
  0
LINE
  8
_0-0_
  6
CONTINUOUS
 62
    7
 10
266.31713338137126
 20
275.6495109606023
 11
280.36613338137124
 21
275.6495109606023
  0
LINE
  8
_0-0_
  6
CONTINUOUS
 62
    7
 10
266.31713338137126
 20
261.60011096060231
 11
266.31713338137126
 21
275.6495109606023
  0
LINE
  8
_0-0_
  6
CONTINUOUS
 62
    7
 10
261.31613338137129
 20
275.6495109606023
 11
261.31613338137129
 21
261.60011096060231
  0
LINE
  8
_0-0_
  6
CONTINUOUS
 62
    7
 10
261.31613338137129
 20
261.60011096060231
 11
247.26683338137127
 21
261.60011096060231
  0
LINE
  8
_0-0_
  6
CONTINUOUS
 62
    7
 10
247.26683338137127
 20
275.6495109606023
 11
261.31613338137129
 21
275.6495109606023
  0
LINE
  8
_0-0_
  6
CONTINUOUS
 62
    7
 10
247.26683338137127
 20
261.60011096060231
 11
247.26683338137127
 21
275.6495109606023
  0
LINE
  8
_0-0_
  6
CONTINUOUS
 62
    7
 10
242.26613338137122
 20
275.6495109606023
 11
242.26613338137122
 21
261.60011096060231
  0
LINE
  8
_0-0_
  6
CONTINUOUS
 62
    7
 10
242.26613338137122
 20
261.60011096060231
 11
228.21683338137132
 21
261.60011096060231
  0
LINE
  8
_0-0_
  6
CONTINUOUS
 62
    7
 10
228.21683338137132
 20
275.6495109606023
 11
242.26613338137122
 21
275.6495109606023
  0
LINE
  8
_0-0_
  6
CONTINUOUS
 62
    7
 10
228.21683338137132
 20
261.60011096060231
 11
228.21683338137132
 21
275.6495109606023
  0
LINE
  8
_0-0_
  6
CONTINUOUS
 62
    7
 10
175.59133338137121
 20
275.6495109606023
 11
175.59133338137121
 21
261.60011096060231
  0
LINE
  8
_0-0_
  6
CONTINUOUS
 62
    7
 10
175.59133338137121
 20
261.60011096060231
 11
161.54178338137126
 21
261.60011096060231
  0
LINE
  8
_0-0_
  6
CONTINUOUS
 62
    7
 10
161.54178338137126
 20
275.6495109606023
 11
175.59133338137121
 21
275.6495109606023
  0
LINE
  8
_0-0_
  6
CONTINUOUS
 62
    7
 10
161.54178338137126
 20
261.60011096060231
 11
161.54178338137126
 21
275.6495109606023
  0
LINE
  8
_0-0_
  6
CONTINUOUS
 62
    7
 10
308.94113338137129
 20
294.69951096060225
 11
308.94113338137129
 21
280.65031096060233
  0
LINE
  8
_0-0_
  6
CONTINUOUS
 62
    7
 10
308.94113338137129
 20
280.65031096060233
 11
294.89213338137131
 21
280.65031096060233
  0
LINE
  8
_0-0_
  6
CONTINUOUS
 62
    7
 10
294.89213338137131
 20
294.69951096060225
 11
308.94113338137129
 21
294.69951096060225
  0
LINE
  8
_0-0_
  6
CONTINUOUS
 62
    7
 10
294.89213338137131
 20
280.65031096060233
 11
294.89213338137131
 21
294.69951096060225
  0
LINE
  8
_0-0_
  6
CONTINUOUS
 62
    7
 10
289.89113338137122
 20
294.69951096060225
 11
289.89113338137122
 21
280.65031096060233
  0
LINE
  8
_0-0_
  6
CONTINUOUS
 62
    7
 10
289.89113338137122
 20
280.65031096060233
 11
275.84213338137124
 21
280.65031096060233
  0
LINE
  8
_0-0_
  6
CONTINUOUS
 62
    7
 10
275.84213338137124
 20
294.69951096060225
 11
289.89113338137122
 21
294.69951096060225
  0
LINE
  8
_0-0_
  6
CONTINUOUS
 62
    7
 10
275.84213338137124
 20
280.65031096060233
 11
275.84213338137124
 21
294.69951096060225
  0
LINE
  8
_0-0_
  6
CONTINUOUS
 62
    7
 10
270.84113338137126
 20
294.69951096060225
 11
270.84113338137126
 21
280.65031096060233
  0
LINE
  8
_0-0_
  6
CONTINUOUS
 62
    7
 10
270.84113338137126
 20
280.65031096060233
 11
256.79183338137125
 21
280.65031096060233
  0
LINE
  8
_0-0_
  6
CONTINUOUS
 62
    7
 10
256.79183338137125
 20
294.69951096060225
 11
270.84113338137126
 21
294.69951096060225
  0
LINE
  8
_0-0_
  6
CONTINUOUS
 62
    7
 10
256.79183338137125
 20
280.65031096060233
 11
256.79183338137125
 21
294.69951096060225
  0
LINE
  8
_0-0_
  6
CONTINUOUS
 62
    7
 10
251.79113338137131
 20
294.69951096060225
 11
251.79113338137131
 21
280.65031096060233
  0
LINE
  8
_0-0_
  6
CONTINUOUS
 62
    7
 10
251.79113338137131
 20
280.65031096060233
 11
237.74183338137129
 21
280.65031096060233
  0
LINE
  8
_0-0_
  6
CONTINUOUS
 62
    7
 10
237.74183338137129
 20
294.69951096060225
 11
251.79113338137131
 21
294.69951096060225
  0
LINE
  8
_0-0_
  6
CONTINUOUS
 62
    7
 10
237.74183338137129
 20
280.65031096060233
 11
237.74183338137129
 21
294.69951096060225
  0
LINE
  8
_0-0_
  6
CONTINUOUS
 62
    7
 10
232.74113338137124
 20
294.69951096060225
 11
232.74113338137124
 21
280.65031096060233
  0
LINE
  8
_0-0_
  6
CONTINUOUS
 62
    7
 10
232.74113338137124
 20
280.65031096060233
 11
218.69183338137123
 21
280.65031096060233
  0
LINE
  8
_0-0_
  6
CONTINUOUS
 62
    7
 10
218.69183338137123
 20
294.69951096060225
 11
232.74113338137124
 21
294.69951096060225
  0
LINE
  8
_0-0_
  6
CONTINUOUS
 62
    7
 10
218.69183338137123
 20
280.65031096060233
 11
218.69183338137123
 21
294.69951096060225
  0
LINE
  8
_0-0_
  6
CONTINUOUS
 62
    7
 10
206.54743338137121
 20
294.69951096060225
 11
206.54743338137121
 21
280.65031096060233
  0
LINE
  8
_0-0_
  6
CONTINUOUS
 62
    7
 10
206.54743338137121
 20
280.65031096060233
 11
192.49803338137122
 21
280.65031096060233
  0
LINE
  8
_0-0_
  6
CONTINUOUS
 62
    7
 10
192.49803338137122
 20
294.69951096060225
 11
206.54743338137121
 21
294.69951096060225
  0
LINE
  8
_0-0_
  6
CONTINUOUS
 62
    7
 10
192.49803338137122
 20
280.65031096060233
 11
192.49803338137122
 21
294.69951096060225
  0
LINE
  8
_0-0_
  6
CONTINUOUS
 62
    7
 10
175.59133338137121
 20
294.69951096060225
 11
175.59133338137121
 21
280.65031096060233
  0
LINE
  8
_0-0_
  6
CONTINUOUS
 62
    7
 10
175.59133338137121
 20
280.65031096060233
 11
161.54178338137126
 21
280.65031096060233
  0
LINE
  8
_0-0_
  6
CONTINUOUS
 62
    7
 10
161.54178338137126
 20
294.69951096060225
 11
175.59133338137121
 21
294.69951096060225
  0
LINE
  8
_0-0_
  6
CONTINUOUS
 62
    7
 10
161.54178338137126
 20
280.65031096060233
 11
161.54178338137126
 21
294.69951096060225
  0
LINE
  8
_0-0_
  6
CONTINUOUS
 62
    7
 10
304.17913338137123
 20
313.74951096060227
 11
304.17913338137123
 21
299.70031096060234
  0
LINE
  8
_0-0_
  6
CONTINUOUS
 62
    7
 10
304.17913338137123
 20
299.70031096060234
 11
290.12913338137128
 21
299.70031096060234
  0
LINE
  8
_0-0_
  6
CONTINUOUS
 62
    7
 10
290.12913338137128
 20
313.74951096060227
 11
304.17913338137123
 21
313.74951096060227
  0
LINE
  8
_0-0_
  6
CONTINUOUS
 62
    7
 10
290.12913338137128
 20
299.70031096060234
 11
290.12913338137128
 21
313.74951096060227
  0
LINE
  8
_0-0_
  6
CONTINUOUS
 62
    7
 10
285.12913338137128
 20
313.74951096060227
 11
285.12913338137128
 21
299.70031096060234
  0
LINE
  8
_0-0_
  6
CONTINUOUS
 62
    7
 10
285.12913338137128
 20
299.70031096060234
 11
271.07913338137121
 21
299.70031096060234
  0
LINE
  8
_0-0_
  6
CONTINUOUS
 62
    7
 10
271.07913338137121
 20
313.74951096060227
 11
285.12913338137128
 21
313.74951096060227
  0
LINE
  8
_0-0_
  6
CONTINUOUS
 62
    7
 10
271.07913338137121
 20
299.70031096060234
 11
271.07913338137121
 21
313.74951096060227
  0
LINE
  8
_0-0_
  6
CONTINUOUS
 62
    7
 10
266.07913338137121
 20
313.74951096060227
 11
266.07913338137121
 21
299.70031096060234
  0
LINE
  8
_0-0_
  6
CONTINUOUS
 62
    7
 10
266.07913338137121
 20
299.70031096060234
 11
252.02933338137132
 21
299.70031096060234
  0
LINE
  8
_0-0_
  6
CONTINUOUS
 62
    7
 10
252.02933338137132
 20
313.74951096060227
 11
266.07913338137121
 21
313.74951096060227
  0
LINE
  8
_0-0_
  6
CONTINUOUS
 62
    7
 10
252.02933338137132
 20
299.70031096060234
 11
252.02933338137132
 21
313.74951096060227
  0
LINE
  8
_0-0_
  6
CONTINUOUS
 62
    7
 10
247.02863338137126
 20
313.74951096060227
 11
247.02863338137126
 21
299.70031096060234
  0
LINE
  8
_0-0_
  6
CONTINUOUS
 62
    7
 10
247.02863338137126
 20
299.70031096060234
 11
232.97933338137125
 21
299.70031096060234
  0
LINE
  8
_0-0_
  6
CONTINUOUS
 62
    7
 10
232.97933338137125
 20
313.74951096060227
 11
247.02863338137126
 21
313.74951096060227
  0
LINE
  8
_0-0_
  6
CONTINUOUS
 62
    7
 10
232.97933338137125
 20
299.70031096060234
 11
232.97933338137125
 21
313.74951096060227
  0
LINE
  8
_0-0_
  6
CONTINUOUS
 62
    7
 10
227.97863338137131
 20
313.74951096060227
 11
227.97863338137131
 21
299.70031096060234
  0
LINE
  8
_0-0_
  6
CONTINUOUS
 62
    7
 10
227.97863338137131
 20
299.70031096060234
 11
213.92933338137129
 21
299.70031096060234
  0
LINE
  8
_0-0_
  6
CONTINUOUS
 62
    7
 10
213.92933338137129
 20
313.74951096060227
 11
227.97863338137131
 21
313.74951096060227
  0
LINE
  8
_0-0_
  6
CONTINUOUS
 62
    7
 10
213.92933338137129
 20
299.70031096060234
 11
213.92933338137129
 21
313.74951096060227
  0
LINE
  8
_0-0_
  6
CONTINUOUS
 62
    7
 10
204.16613338137131
 20
313.74951096060227
 11
204.16613338137131
 21
299.70031096060234
  0
LINE
  8
_0-0_
  6
CONTINUOUS
 62
    7
 10
204.16613338137131
 20
299.70031096060234
 11
190.11683338137129
 21
299.70031096060234
  0
LINE
  8
_0-0_
  6
CONTINUOUS
 62
    7
 10
190.11683338137129
 20
313.74951096060227
 11
204.16613338137131
 21
313.74951096060227
  0
LINE
  8
_0-0_
  6
CONTINUOUS
 62
    7
 10
190.11683338137129
 20
299.70031096060234
 11
190.11683338137129
 21
313.74951096060227
  0
LINE
  8
_0-0_
  6
CONTINUOUS
 62
    7
 10
175.59133338137121
 20
313.74951096060227
 11
175.59133338137121
 21
299.70031096060234
  0
LINE
  8
_0-0_
  6
CONTINUOUS
 62
    7
 10
175.59133338137121
 20
299.70031096060234
 11
161.54178338137126
 21
299.70031096060234
  0
LINE
  8
_0-0_
  6
CONTINUOUS
 62
    7
 10
161.54178338137126
 20
313.74951096060227
 11
175.59133338137121
 21
313.74951096060227
  0
LINE
  8
_0-0_
  6
CONTINUOUS
 62
    7
 10
161.54178338137126
 20
299.70031096060234
 11
161.54178338137126
 21
313.74951096060227
  0
LINE
  8
_0-0_
  6
CONTINUOUS
 62
    7
 10
313.70413338137121
 20
332.79951096060233
 11
313.70413338137121
 21
318.75031096060229
  0
LINE
  8
_0-0_
  6
CONTINUOUS
 62
    7
 10
313.70413338137121
 20
318.75031096060229
 11
299.65413338137125
 21
318.75031096060229
  0
LINE
  8
_0-0_
  6
CONTINUOUS
 62
    7
 10
299.65413338137125
 20
332.79951096060233
 11
313.70413338137121
 21
332.79951096060233
  0
LINE
  8
_0-0_
  6
CONTINUOUS
 62
    7
 10
299.65413338137125
 20
318.75031096060229
 11
299.65413338137125
 21
332.79951096060233
  0
LINE
  8
_0-0_
  6
CONTINUOUS
 62
    7
 10
294.65413338137125
 20
332.79951096060233
 11
294.65413338137125
 21
318.75031096060229
  0
LINE
  8
_0-0_
  6
CONTINUOUS
 62
    7
 10
294.65413338137125
 20
318.75031096060229
 11
280.6041333813713
 21
318.75031096060229
  0
LINE
  8
_0-0_
  6
CONTINUOUS
 62
    7
 10
280.6041333813713
 20
332.79951096060233
 11
294.65413338137125
 21
332.79951096060233
  0
LINE
  8
_0-0_
  6
CONTINUOUS
 62
    7
 10
280.6041333813713
 20
318.75031096060229
 11
280.6041333813713
 21
332.79951096060233
  0
LINE
  8
_0-0_
  6
CONTINUOUS
 62
    7
 10
275.6041333813713
 20
332.79951096060233
 11
275.6041333813713
 21
318.75031096060229
  0
LINE
  8
_0-0_
  6
CONTINUOUS
 62
    7
 10
275.6041333813713
 20
318.75031096060229
 11
261.55413338137123
 21
318.75031096060229
  0
LINE
  8
_0-0_
  6
CONTINUOUS
 62
    7
 10
261.55413338137123
 20
332.79951096060233
 11
275.6041333813713
 21
332.79951096060233
  0
LINE
  8
_0-0_
  6
CONTINUOUS
 62
    7
 10
261.55413338137123
 20
318.75031096060229
 11
261.55413338137123
 21
332.79951096060233
  0
LINE
  8
_0-0_
  6
CONTINUOUS
 62
    7
 10
256.55363338137124
 20
332.79951096060233
 11
256.55363338137124
 21
318.75031096060229
  0
LINE
  8
_0-0_
  6
CONTINUOUS
 62
    7
 10
256.55363338137124
 20
318.75031096060229
 11
242.50433338137123
 21
318.75031096060229
  0
LINE
  8
_0-0_
  6
CONTINUOUS
 62
    7
 10
242.50433338137123
 20
332.79951096060233
 11
256.55363338137124
 21
332.79951096060233
  0
LINE
  8
_0-0_
  6
CONTINUOUS
 62
    7
 10
242.50433338137123
 20
318.75031096060229
 11
242.50433338137123
 21
332.79951096060233
  0
LINE
  8
_0-0_
  6
CONTINUOUS
 62
    7
 10
237.50363338137129
 20
332.79951096060233
 11
237.50363338137129
 21
318.75031096060229
  0
LINE
  8
_0-0_
  6
CONTINUOUS
 62
    7
 10
237.50363338137129
 20
318.75031096060229
 11
223.45433338137127
 21
318.75031096060229
  0
LINE
  8
_0-0_
  6
CONTINUOUS
 62
    7
 10
223.45433338137127
 20
332.79951096060233
 11
237.50363338137129
 21
332.79951096060233
  0
LINE
  8
_0-0_
  6
CONTINUOUS
 62
    7
 10
223.45433338137127
 20
318.75031096060229
 11
223.45433338137127
 21
332.79951096060233
  0
LINE
  8
_0-0_
  6
CONTINUOUS
 62
    7
 10
218.45363338137122
 20
332.79951096060233
 11
218.45363338137122
 21
318.75031096060229
  0
LINE
  8
_0-0_
  6
CONTINUOUS
 62
    7
 10
218.45363338137122
 20
318.75031096060229
 11
204.4043333813712
 21
318.75031096060229
  0
LINE
  8
_0-0_
  6
CONTINUOUS
 62
    7
 10
204.4043333813712
 20
332.79951096060233
 11
218.45363338137122
 21
332.79951096060233
  0
LINE
  8
_0-0_
  6
CONTINUOUS
 62
    7
 10
204.4043333813712
 20
318.75031096060229
 11
204.4043333813712
 21
332.79951096060233
  0
LINE
  8
_0-0_
  6
CONTINUOUS
 62
    7
 10
199.40363338137126
 20
332.79951096060233
 11
199.40363338137126
 21
318.75031096060229
  0
LINE
  8
_0-0_
  6
CONTINUOUS
 62
    7
 10
199.40363338137126
 20
318.75031096060229
 11
185.35433338137125
 21
318.75031096060229
  0
LINE
  8
_0-0_
  6
CONTINUOUS
 62
    7
 10
185.35433338137125
 20
332.79951096060233
 11
199.40363338137126
 21
332.79951096060233
  0
LINE
  8
_0-0_
  6
CONTINUOUS
 62
    7
 10
185.35433338137125
 20
318.75031096060229
 11
185.35433338137125
 21
332.79951096060233
  0
LINE
  8
_0-0_
  6
CONTINUOUS
 62
    7
 10
175.59133338137121
 20
332.79951096060233
 11
175.59133338137121
 21
318.75031096060229
  0
LINE
  8
_0-0_
  6
CONTINUOUS
 62
    7
 10
175.59133338137121
 20
318.75031096060229
 11
161.54178338137126
 21
318.75031096060229
  0
LINE
  8
_0-0_
  6
CONTINUOUS
 62
    7
 10
161.54178338137126
 20
332.79951096060233
 11
175.59133338137121
 21
332.79951096060233
  0
LINE
  8
_0-0_
  6
CONTINUOUS
 62
    7
 10
161.54178338137126
 20
318.75031096060229
 11
161.54178338137126
 21
332.79951096060233
  0
LINE
  8
_0-0_
  6
CONTINUOUS
 62
    7
 10
313.70413338137121
 20
361.37411096060225
 11
313.70413338137121
 21
347.32511096060227
  0
LINE
  8
_0-0_
  6
CONTINUOUS
 62
    7
 10
313.70413338137121
 20
347.32511096060227
 11
299.65413338137125
 21
347.32511096060227
  0
LINE
  8
_0-0_
  6
CONTINUOUS
 62
    7
 10
299.65413338137125
 20
361.37411096060225
 11
313.70413338137121
 21
361.37411096060225
  0
LINE
  8
_0-0_
  6
CONTINUOUS
 62
    7
 10
299.65413338137125
 20
347.32511096060227
 11
299.65413338137125
 21
361.37411096060225
  0
LINE
  8
_0-0_
  6
CONTINUOUS
 62
    7
 10
285.12913338137128
 20
361.37411096060225
 11
285.12913338137128
 21
347.32511096060227
  0
LINE
  8
_0-0_
  6
CONTINUOUS
 62
    7
 10
285.12913338137128
 20
347.32511096060227
 11
271.07913338137121
 21
347.32511096060227
  0
LINE
  8
_0-0_
  6
CONTINUOUS
 62
    7
 10
271.07913338137121
 20
361.37411096060225
 11
285.12913338137128
 21
361.37411096060225
  0
LINE
  8
_0-0_
  6
CONTINUOUS
 62
    7
 10
271.07913338137121
 20
347.32511096060227
 11
271.07913338137121
 21
361.37411096060225
  0
LINE
  8
_0-0_
  6
CONTINUOUS
 62
    7
 10
266.07913338137121
 20
361.37411096060225
 11
266.07913338137121
 21
347.32511096060227
  0
LINE
  8
_0-0_
  6
CONTINUOUS
 62
    7
 10
266.07913338137121
 20
347.32511096060227
 11
252.02933338137132
 21
347.32511096060227
  0
LINE
  8
_0-0_
  6
CONTINUOUS
 62
    7
 10
252.02933338137132
 20
361.37411096060225
 11
266.07913338137121
 21
361.37411096060225
  0
LINE
  8
_0-0_
  6
CONTINUOUS
 62
    7
 10
252.02933338137132
 20
347.32511096060227
 11
252.02933338137132
 21
361.37411096060225
  0
LINE
  8
_0-0_
  6
CONTINUOUS
 62
    7
 10
247.02863338137126
 20
361.37411096060225
 11
247.02863338137126
 21
347.32511096060227
  0
LINE
  8
_0-0_
  6
CONTINUOUS
 62
    7
 10
247.02863338137126
 20
347.32511096060227
 11
232.97933338137125
 21
347.32511096060227
  0
LINE
  8
_0-0_
  6
CONTINUOUS
 62
    7
 10
232.97933338137125
 20
361.37411096060225
 11
247.02863338137126
 21
361.37411096060225
  0
LINE
  8
_0-0_
  6
CONTINUOUS
 62
    7
 10
232.97933338137125
 20
347.32511096060227
 11
232.97933338137125
 21
361.37411096060225
  0
LINE
  8
_0-0_
  6
CONTINUOUS
 62
    7
 10
227.97863338137131
 20
361.37411096060225
 11
227.97863338137131
 21
347.32511096060227
  0
LINE
  8
_0-0_
  6
CONTINUOUS
 62
    7
 10
227.97863338137131
 20
347.32511096060227
 11
213.92933338137129
 21
347.32511096060227
  0
LINE
  8
_0-0_
  6
CONTINUOUS
 62
    7
 10
213.92933338137129
 20
361.37411096060225
 11
227.97863338137131
 21
361.37411096060225
  0
LINE
  8
_0-0_
  6
CONTINUOUS
 62
    7
 10
213.92933338137129
 20
347.32511096060227
 11
213.92933338137129
 21
361.37411096060225
  0
LINE
  8
_0-0_
  6
CONTINUOUS
 62
    7
 10
199.40363338137126
 20
361.37411096060225
 11
199.40363338137126
 21
347.32511096060227
  0
LINE
  8
_0-0_
  6
CONTINUOUS
 62
    7
 10
199.40363338137126
 20
347.32511096060227
 11
185.35433338137125
 21
347.32511096060227
  0
LINE
  8
_0-0_
  6
CONTINUOUS
 62
    7
 10
185.35433338137125
 20
361.37411096060225
 11
199.40363338137126
 21
361.37411096060225
  0
LINE
  8
_0-0_
  6
CONTINUOUS
 62
    7
 10
185.35433338137125
 20
347.32511096060227
 11
185.35433338137125
 21
361.37411096060225
  0
LINE
  8
_0-0_
  6
CONTINUOUS
 62
    7
 10
197.25923338137125
 20
275.69908739060224
 11
211.35851088237143
 21
275.69908739060224
  0
LINE
  8
_0-0_
  6
CONTINUOUS
 62
    7
 10
211.35851088237143
 20
261.60011096060231
 11
197.25923338137125
 21
261.60011096060231
  0
LINE
  8
_0-0_
  6
CONTINUOUS
 62
    7
 10
197.25923338137125
 20
261.60011096060231
 11
197.25923338137125
 21
275.69908739060224
  0
LINE
  8
_0-0_
  6
CONTINUOUS
 62
    7
 10
211.35851088237143
 20
275.69908739060224
 11
211.35851088237143
 21
261.60011096060231
  0
LINE
  8
_0-0_
  6
CONTINUOUS
 62
    7
 10
349.2794079351213
 20
361.39861739060223
 11
363.3289363286213
 21
361.39861739060223
  0
LINE
  8
_0-0_
  6
CONTINUOUS
 62
    7
 10
332.25405963187126
 20
256.57439417560227
 11
332.25405963187126
 21
257.89324361322815
  0
LINE
  8
_0-0_
  6
CONTINUOUS
 62
    7
 10
330.22935793512124
 20
361.39861739060223
 11
344.27888632862118
 21
361.39861739060223
  0
LINE
  8
_0-0_
  6
CONTINUOUS
 62
    7
 10
344.27888632862118
 20
361.39861739060223
 11
344.27888632862118
 21
347.3496409606023
  0
LINE
  8
_0-0_
  6
CONTINUOUS
 62
    7
 10
344.27888632862118
 20
347.3496409606023
 11
330.22935793512124
 21
347.3496409606023
  0
LINE
  8
_0-0_
  6
CONTINUOUS
 62
    7
 10
330.22935793512124
 20
347.3496409606023
 11
330.22935793512124
 21
361.39861739060223
  0
LINE
  8
_0-0_
  6
CONTINUOUS
 62
    7
 10
363.3289363286213
 20
361.39861739060223
 11
363.3289363286213
 21
347.3496409606023
  0
LINE
  8
_0-0_
  6
CONTINUOUS
 62
    7
 10
363.3289363286213
 20
347.3496409606023
 11
349.2794079351213
 21
347.3496409606023
  0
LINE
  8
_0-0_
  6
CONTINUOUS
 62
    7
 10
349.2794079351213
 20
347.3496409606023
 11
349.2794079351213
 21
361.39861739060223
  0
LINE
  8
_0-0_
  6
CONTINUOUS
 62
    7
 10
368.3294079351212
 20
361.39861739060223
 11
382.37893632862125
 21
361.39861739060223
  0
LINE
  8
_0-0_
  6
CONTINUOUS
 62
    7
 10
382.37893632862125
 20
361.39861739060223
 11
382.37893632862125
 21
347.3496409606023
  0
LINE
  8
_0-0_
  6
CONTINUOUS
 62
    7
 10
382.37893632862125
 20
347.3496409606023
 11
368.3294079351212
 21
347.3496409606023
  0
LINE
  8
_0-0_
  6
CONTINUOUS
 62
    7
 10
368.3294079351212
 20
347.3496409606023
 11
368.3294079351212
 21
361.39861739060223
  0
LINE
  8
_0-0_
  6
CONTINUOUS
 62
    7
 10
387.37940793512126
 20
361.39861739060223
 11
401.42893632862126
 21
361.39861739060223
  0
LINE
  8
_0-0_
  6
CONTINUOUS
 62
    7
 10
401.42893632862126
 20
361.39861739060223
 11
401.42893632862126
 21
347.3496409606023
  0
LINE
  8
_0-0_
  6
CONTINUOUS
 62
    7
 10
401.42893632862126
 20
347.3496409606023
 11
387.37940793512126
 21
347.3496409606023
  0
LINE
  8
_0-0_
  6
CONTINUOUS
 62
    7
 10
387.37940793512126
 20
347.3496409606023
 11
387.37940793512126
 21
361.39861739060223
  0
LINE
  8
_0-0_
  6
CONTINUOUS
 62
    7
 10
415.95440793512114
 20
361.39861739060223
 11
430.00393632862131
 21
361.39861739060223
  0
LINE
  8
_0-0_
  6
CONTINUOUS
 62
    7
 10
430.00393632862131
 20
361.39861739060223
 11
430.00393632862131
 21
347.3496409606023
  0
LINE
  8
_0-0_
  6
CONTINUOUS
 62
    7
 10
430.00393632862131
 20
347.3496409606023
 11
415.95440793512114
 21
347.3496409606023
  0
LINE
  8
_0-0_
  6
CONTINUOUS
 62
    7
 10
415.95440793512114
 20
347.3496409606023
 11
415.95440793512114
 21
361.39861739060223
  0
LINE
  8
_0-0_
  6
CONTINUOUS
 62
    7
 10
435.00470793512125
 20
361.39861739060223
 11
449.05423632862119
 21
361.39861739060223
  0
LINE
  8
_0-0_
  6
CONTINUOUS
 62
    7
 10
449.05423632862119
 20
361.39861739060223
 11
449.05423632862119
 21
347.3496409606023
  0
LINE
  8
_0-0_
  6
CONTINUOUS
 62
    7
 10
449.05423632862119
 20
347.3496409606023
 11
435.00470793512125
 21
347.3496409606023
  0
LINE
  8
_0-0_
  6
CONTINUOUS
 62
    7
 10
435.00470793512125
 20
347.3496409606023
 11
435.00470793512125
 21
361.39861739060223
  0
LINE
  8
_0-0_
  6
CONTINUOUS
 62
    7
 10
454.0547079351212
 20
361.39861739060223
 11
468.10423632862137
 21
361.39861739060223
  0
LINE
  8
_0-0_
  6
CONTINUOUS
 62
    7
 10
468.10423632862137
 20
361.39861739060223
 11
468.10423632862137
 21
347.3496409606023
  0
LINE
  8
_0-0_
  6
CONTINUOUS
 62
    7
 10
468.10423632862137
 20
347.3496409606023
 11
454.0547079351212
 21
347.3496409606023
  0
LINE
  8
_0-0_
  6
CONTINUOUS
 62
    7
 10
454.0547079351212
 20
347.3496409606023
 11
454.0547079351212
 21
361.39861739060223
  0
LINE
  8
_0-0_
  6
CONTINUOUS
 62
    7
 10
473.10470793512116
 20
361.39861739060223
 11
487.15423632862132
 21
361.39861739060223
  0
LINE
  8
_0-0_
  6
CONTINUOUS
 62
    7
 10
487.15423632862132
 20
361.39861739060223
 11
487.15423632862132
 21
347.3496409606023
  0
LINE
  8
_0-0_
  6
CONTINUOUS
 62
    7
 10
487.15423632862132
 20
347.3496409606023
 11
473.10470793512116
 21
347.3496409606023
  0
LINE
  8
_0-0_
  6
CONTINUOUS
 62
    7
 10
473.10470793512116
 20
347.3496409606023
 11
473.10470793512116
 21
361.39861739060223
  0
LINE
  8
_0-0_
  6
CONTINUOUS
 62
    7
 10
496.91670793512128
 20
332.82401739060231
 11
510.96623632862122
 21
332.82401739060231
  0
LINE
  8
_0-0_
  6
CONTINUOUS
 62
    7
 10
510.96623632862122
 20
332.82401739060231
 11
510.96623632862122
 21
318.77504096060238
  0
LINE
  8
_0-0_
  6
CONTINUOUS
 62
    7
 10
510.96623632862122
 20
318.77504096060238
 11
496.91670793512128
 21
318.77504096060238
  0
LINE
  8
_0-0_
  6
CONTINUOUS
 62
    7
 10
496.91670793512128
 20
318.77504096060238
 11
496.91670793512128
 21
332.82401739060231
  0
LINE
  8
_0-0_
  6
CONTINUOUS
 62
    7
 10
496.91670793512128
 20
313.77401739060224
 11
510.96623632862122
 21
313.77401739060224
  0
LINE
  8
_0-0_
  6
CONTINUOUS
 62
    7
 10
510.96623632862122
 20
313.77401739060224
 11
510.96623632862122
 21
299.72504096060231
  0
LINE
  8
_0-0_
  6
CONTINUOUS
 62
    7
 10
510.96623632862122
 20
299.72504096060231
 11
496.91670793512128
 21
299.72504096060231
  0
LINE
  8
_0-0_
  6
CONTINUOUS
 62
    7
 10
496.91670793512128
 20
299.72504096060231
 11
496.91670793512128
 21
313.77401739060224
  0
LINE
  8
_0-0_
  6
CONTINUOUS
 62
    7
 10
473.10470793512116
 20
332.82401739060231
 11
487.15423632862132
 21
332.82401739060231
  0
LINE
  8
_0-0_
  6
CONTINUOUS
 62
    7
 10
487.15423632862132
 20
332.82401739060231
 11
487.15423632862132
 21
318.77504096060238
  0
LINE
  8
_0-0_
  6
CONTINUOUS
 62
    7
 10
487.15423632862132
 20
318.77504096060238
 11
473.10470793512116
 21
318.77504096060238
  0
LINE
  8
_0-0_
  6
CONTINUOUS
 62
    7
 10
473.10470793512116
 20
318.77504096060238
 11
473.10470793512116
 21
332.82401739060231
  0
LINE
  8
_0-0_
  6
CONTINUOUS
 62
    7
 10
454.0547079351212
 20
332.82401739060231
 11
468.10423632862137
 21
332.82401739060231
  0
LINE
  8
_0-0_
  6
CONTINUOUS
 62
    7
 10
468.10423632862137
 20
332.82401739060231
 11
468.10423632862137
 21
318.77504096060238
  0
LINE
  8
_0-0_
  6
CONTINUOUS
 62
    7
 10
468.10423632862137
 20
318.77504096060238
 11
454.0547079351212
 21
318.77504096060238
  0
LINE
  8
_0-0_
  6
CONTINUOUS
 62
    7
 10
454.0547079351212
 20
318.77504096060238
 11
454.0547079351212
 21
332.82401739060231
  0
LINE
  8
_0-0_
  6
CONTINUOUS
 62
    7
 10
435.00470793512125
 20
332.82401739060231
 11
449.05423632862119
 21
332.82401739060231
  0
LINE
  8
_0-0_
  6
CONTINUOUS
 62
    7
 10
449.05423632862119
 20
332.82401739060231
 11
449.05423632862119
 21
318.77504096060238
  0
LINE
  8
_0-0_
  6
CONTINUOUS
 62
    7
 10
449.05423632862119
 20
318.77504096060238
 11
435.00470793512125
 21
318.77504096060238
  0
LINE
  8
_0-0_
  6
CONTINUOUS
 62
    7
 10
435.00470793512125
 20
318.77504096060238
 11
435.00470793512125
 21
332.82401739060231
  0
LINE
  8
_0-0_
  6
CONTINUOUS
 62
    7
 10
415.95440793512114
 20
332.82401739060231
 11
430.00393632862131
 21
332.82401739060231
  0
LINE
  8
_0-0_
  6
CONTINUOUS
 62
    7
 10
430.00393632862131
 20
332.82401739060231
 11
430.00393632862131
 21
318.77504096060238
  0
LINE
  8
_0-0_
  6
CONTINUOUS
 62
    7
 10
430.00393632862131
 20
318.77504096060238
 11
415.95440793512114
 21
318.77504096060238
  0
LINE
  8
_0-0_
  6
CONTINUOUS
 62
    7
 10
415.95440793512114
 20
318.77504096060238
 11
415.95440793512114
 21
332.82401739060231
  0
LINE
  8
_0-0_
  6
CONTINUOUS
 62
    7
 10
396.90440793512124
 20
332.82401739060231
 11
410.95393632862135
 21
332.82401739060231
  0
LINE
  8
_0-0_
  6
CONTINUOUS
 62
    7
 10
410.95393632862135
 20
332.82401739060231
 11
410.95393632862135
 21
318.77504096060238
  0
LINE
  8
_0-0_
  6
CONTINUOUS
 62
    7
 10
410.95393632862135
 20
318.77504096060238
 11
396.90440793512124
 21
318.77504096060238
  0
LINE
  8
_0-0_
  6
CONTINUOUS
 62
    7
 10
396.90440793512124
 20
318.77504096060238
 11
396.90440793512124
 21
332.82401739060231
  0
LINE
  8
_0-0_
  6
CONTINUOUS
 62
    7
 10
377.85440793512129
 20
332.82401739060231
 11
391.90393632862134
 21
332.82401739060231
  0
LINE
  8
_0-0_
  6
CONTINUOUS
 62
    7
 10
391.90393632862134
 20
332.82401739060231
 11
391.90393632862134
 21
318.77504096060238
  0
LINE
  8
_0-0_
  6
CONTINUOUS
 62
    7
 10
391.90393632862134
 20
318.77504096060238
 11
377.85440793512129
 21
318.77504096060238
  0
LINE
  8
_0-0_
  6
CONTINUOUS
 62
    7
 10
377.85440793512129
 20
318.77504096060238
 11
377.85440793512129
 21
332.82401739060231
  0
LINE
  8
_0-0_
  6
CONTINUOUS
 62
    7
 10
387.37940793512126
 20
313.77401739060224
 11
401.42893632862126
 21
313.77401739060224
  0
LINE
  8
_0-0_
  6
CONTINUOUS
 62
    7
 10
401.42893632862126
 20
313.77401739060224
 11
401.42893632862126
 21
299.72504096060231
  0
LINE
  8
_0-0_
  6
CONTINUOUS
 62
    7
 10
401.42893632862126
 20
299.72504096060231
 11
387.37940793512126
 21
299.72504096060231
  0
LINE
  8
_0-0_
  6
CONTINUOUS
 62
    7
 10
387.37940793512126
 20
299.72504096060231
 11
387.37940793512126
 21
313.77401739060224
  0
LINE
  8
_0-0_
  6
CONTINUOUS
 62
    7
 10
406.42940793512128
 20
313.77401739060224
 11
420.47893632862122
 21
313.77401739060224
  0
LINE
  8
_0-0_
  6
CONTINUOUS
 62
    7
 10
420.47893632862122
 20
313.77401739060224
 11
420.47893632862122
 21
299.72504096060231
  0
LINE
  8
_0-0_
  6
CONTINUOUS
 62
    7
 10
420.47893632862122
 20
299.72504096060231
 11
406.42940793512128
 21
299.72504096060231
  0
LINE
  8
_0-0_
  6
CONTINUOUS
 62
    7
 10
406.42940793512128
 20
299.72504096060231
 11
406.42940793512128
 21
313.77401739060224
  0
LINE
  8
_0-0_
  6
CONTINUOUS
 62
    7
 10
425.47800793512113
 20
313.77401739060224
 11
439.5275363286213
 21
313.77401739060224
  0
LINE
  8
_0-0_
  6
CONTINUOUS
 62
    7
 10
439.5275363286213
 20
313.77401739060224
 11
439.5275363286213
 21
299.72504096060231
  0
LINE
  8
_0-0_
  6
CONTINUOUS
 62
    7
 10
439.5275363286213
 20
299.72504096060231
 11
425.47800793512113
 21
299.72504096060231
  0
LINE
  8
_0-0_
  6
CONTINUOUS
 62
    7
 10
425.47800793512113
 20
299.72504096060231
 11
425.47800793512113
 21
313.77401739060224
  0
LINE
  8
_0-0_
  6
CONTINUOUS
 62
    7
 10
444.52770793512116
 20
313.77401739060224
 11
458.57723632862132
 21
313.77401739060224
  0
LINE
  8
_0-0_
  6
CONTINUOUS
 62
    7
 10
458.57723632862132
 20
313.77401739060224
 11
458.57723632862132
 21
299.72504096060231
  0
LINE
  8
_0-0_
  6
CONTINUOUS
 62
    7
 10
458.57723632862132
 20
299.72504096060231
 11
444.52770793512116
 21
299.72504096060231
  0
LINE
  8
_0-0_
  6
CONTINUOUS
 62
    7
 10
444.52770793512116
 20
299.72504096060231
 11
444.52770793512116
 21
313.77401739060224
  0
LINE
  8
_0-0_
  6
CONTINUOUS
 62
    7
 10
358.80440793512128
 20
332.82401739060231
 11
372.85393632862127
 21
332.82401739060231
  0
LINE
  8
_0-0_
  6
CONTINUOUS
 62
    7
 10
372.85393632862127
 20
332.82401739060231
 11
372.85393632862127
 21
318.77504096060238
  0
LINE
  8
_0-0_
  6
CONTINUOUS
 62
    7
 10
372.85393632862127
 20
318.77504096060238
 11
358.80440793512128
 21
318.77504096060238
  0
LINE
  8
_0-0_
  6
CONTINUOUS
 62
    7
 10
358.80440793512128
 20
318.77504096060238
 11
358.80440793512128
 21
332.82401739060231
  0
LINE
  8
_0-0_
  6
CONTINUOUS
 62
    7
 10
339.75440793512132
 20
332.82401739060231
 11
353.80393632862126
 21
332.82401739060231
  0
LINE
  8
_0-0_
  6
CONTINUOUS
 62
    7
 10
353.80393632862126
 20
332.82401739060231
 11
353.80393632862126
 21
318.77504096060238
  0
LINE
  8
_0-0_
  6
CONTINUOUS
 62
    7
 10
353.80393632862126
 20
318.77504096060238
 11
339.75440793512132
 21
318.77504096060238
  0
LINE
  8
_0-0_
  6
CONTINUOUS
 62
    7
 10
339.75440793512132
 20
318.77504096060238
 11
339.75440793512132
 21
332.82401739060231
  0
LINE
  8
_0-0_
  6
CONTINUOUS
 62
    7
 10
330.22935793512124
 20
313.77401739060224
 11
344.27888632862118
 21
313.77401739060224
  0
LINE
  8
_0-0_
  6
CONTINUOUS
 62
    7
 10
344.27888632862118
 20
313.77401739060224
 11
344.27888632862118
 21
299.72504096060231
  0
LINE
  8
_0-0_
  6
CONTINUOUS
 62
    7
 10
344.27888632862118
 20
299.72504096060231
 11
330.22935793512124
 21
299.72504096060231
  0
LINE
  8
_0-0_
  6
CONTINUOUS
 62
    7
 10
330.22935793512124
 20
299.72504096060231
 11
330.22935793512124
 21
313.77401739060224
  0
LINE
  8
_0-0_
  6
CONTINUOUS
 62
    7
 10
349.2794079351213
 20
313.77401739060224
 11
363.3289363286213
 21
313.77401739060224
  0
LINE
  8
_0-0_
  6
CONTINUOUS
 62
    7
 10
363.3289363286213
 20
313.77401739060224
 11
363.3289363286213
 21
299.72504096060231
  0
LINE
  8
_0-0_
  6
CONTINUOUS
 62
    7
 10
363.3289363286213
 20
299.72504096060231
 11
349.2794079351213
 21
299.72504096060231
  0
LINE
  8
_0-0_
  6
CONTINUOUS
 62
    7
 10
349.2794079351213
 20
299.72504096060231
 11
349.2794079351213
 21
313.77401739060224
  0
LINE
  8
_0-0_
  6
CONTINUOUS
 62
    7
 10
368.3294079351212
 20
313.77401739060224
 11
382.37893632862125
 21
313.77401739060224
  0
LINE
  8
_0-0_
  6
CONTINUOUS
 62
    7
 10
382.37893632862125
 20
313.77401739060224
 11
382.37893632862125
 21
299.72504096060231
  0
LINE
  8
_0-0_
  6
CONTINUOUS
 62
    7
 10
382.37893632862125
 20
299.72504096060231
 11
368.3294079351212
 21
299.72504096060231
  0
LINE
  8
_0-0_
  6
CONTINUOUS
 62
    7
 10
368.3294079351212
 20
299.72504096060231
 11
368.3294079351212
 21
313.77401739060224
  0
LINE
  8
_0-0_
  6
CONTINUOUS
 62
    7
 10
392.14191793512128
 20
294.72401739060228
 11
406.19144632862128
 21
294.72401739060228
  0
LINE
  8
_0-0_
  6
CONTINUOUS
 62
    7
 10
406.19144632862128
 20
294.72401739060228
 11
406.19144632862128
 21
280.67504096060236
  0
LINE
  8
_0-0_
  6
CONTINUOUS
 62
    7
 10
406.19144632862128
 20
280.67504096060236
 11
392.14191793512128
 21
280.67504096060236
  0
LINE
  8
_0-0_
  6
CONTINUOUS
 62
    7
 10
392.14191793512128
 20
280.67504096060236
 11
392.14191793512128
 21
294.72401739060228
  0
LINE
  8
_0-0_
  6
CONTINUOUS
 62
    7
 10
411.1919179351213
 20
294.72401739060228
 11
425.24144632862124
 21
294.72401739060228
  0
LINE
  8
_0-0_
  6
CONTINUOUS
 62
    7
 10
425.24144632862124
 20
294.72401739060228
 11
425.24144632862124
 21
280.67504096060236
  0
LINE
  8
_0-0_
  6
CONTINUOUS
 62
    7
 10
425.24144632862124
 20
280.67504096060236
 11
411.1919179351213
 21
280.67504096060236
  0
LINE
  8
_0-0_
  6
CONTINUOUS
 62
    7
 10
411.1919179351213
 20
280.67504096060236
 11
411.1919179351213
 21
294.72401739060228
  0
LINE
  8
_0-0_
  6
CONTINUOUS
 62
    7
 10
430.24051793512115
 20
294.72401739060228
 11
444.29004632862132
 21
294.72401739060228
  0
LINE
  8
_0-0_
  6
CONTINUOUS
 62
    7
 10
444.29004632862132
 20
294.72401739060228
 11
444.29004632862132
 21
280.67504096060236
  0
LINE
  8
_0-0_
  6
CONTINUOUS
 62
    7
 10
444.29004632862132
 20
280.67504096060236
 11
430.24051793512115
 21
280.67504096060236
  0
LINE
  8
_0-0_
  6
CONTINUOUS
 62
    7
 10
430.24051793512115
 20
280.67504096060236
 11
430.24051793512115
 21
294.72401739060228
  0
LINE
  8
_0-0_
  6
CONTINUOUS
 62
    7
 10
449.29021793512118
 20
294.72401739060228
 11
463.33974632862135
 21
294.72401739060228
  0
LINE
  8
_0-0_
  6
CONTINUOUS
 62
    7
 10
463.33974632862135
 20
294.72401739060228
 11
463.33974632862135
 21
280.67504096060236
  0
LINE
  8
_0-0_
  6
CONTINUOUS
 62
    7
 10
463.33974632862135
 20
280.67504096060236
 11
449.29021793512118
 21
280.67504096060236
  0
LINE
  8
_0-0_
  6
CONTINUOUS
 62
    7
 10
449.29021793512118
 20
280.67504096060236
 11
449.29021793512118
 21
294.72401739060228
  0
LINE
  8
_0-0_
  6
CONTINUOUS
 62
    7
 10
334.99186793512126
 20
294.72401739060228
 11
349.0413963286212
 21
294.72401739060228
  0
LINE
  8
_0-0_
  6
CONTINUOUS
 62
    7
 10
349.0413963286212
 20
294.72401739060228
 11
349.0413963286212
 21
280.67504096060236
  0
LINE
  8
_0-0_
  6
CONTINUOUS
 62
    7
 10
349.0413963286212
 20
280.67504096060236
 11
334.99186793512126
 21
280.67504096060236
  0
LINE
  8
_0-0_
  6
CONTINUOUS
 62
    7
 10
334.99186793512126
 20
280.67504096060236
 11
334.99186793512126
 21
294.72401739060228
  0
LINE
  8
_0-0_
  6
CONTINUOUS
 62
    7
 10
354.04191793512132
 20
294.72401739060228
 11
368.09144632862132
 21
294.72401739060228
  0
LINE
  8
_0-0_
  6
CONTINUOUS
 62
    7
 10
368.09144632862132
 20
294.72401739060228
 11
368.09144632862132
 21
280.67504096060236
  0
LINE
  8
_0-0_
  6
CONTINUOUS
 62
    7
 10
368.09144632862132
 20
280.67504096060236
 11
354.04191793512132
 21
280.67504096060236
  0
LINE
  8
_0-0_
  6
CONTINUOUS
 62
    7
 10
354.04191793512132
 20
280.67504096060236
 11
354.04191793512132
 21
294.72401739060228
  0
LINE
  8
_0-0_
  6
CONTINUOUS
 62
    7
 10
373.09191793512122
 20
294.72401739060228
 11
387.14144632862127
 21
294.72401739060228
  0
LINE
  8
_0-0_
  6
CONTINUOUS
 62
    7
 10
387.14144632862127
 20
294.72401739060228
 11
387.14144632862127
 21
280.67504096060236
  0
LINE
  8
_0-0_
  6
CONTINUOUS
 62
    7
 10
387.14144632862127
 20
280.67504096060236
 11
373.09191793512122
 21
280.67504096060236
  0
LINE
  8
_0-0_
  6
CONTINUOUS
 62
    7
 10
373.09191793512122
 20
280.67504096060236
 11
373.09191793512122
 21
294.72401739060228
  0
LINE
  8
_0-0_
  6
CONTINUOUS
 62
    7
 10
401.66695793512133
 20
275.67401739060233
 11
415.71648632862127
 21
275.67401739060233
  0
LINE
  8
_0-0_
  6
CONTINUOUS
 62
    7
 10
415.71648632862127
 20
275.67401739060233
 11
415.71648632862127
 21
261.6250409606024
  0
LINE
  8
_0-0_
  6
CONTINUOUS
 62
    7
 10
415.71648632862127
 20
261.6250409606024
 11
401.66695793512133
 21
261.6250409606024
  0
LINE
  8
_0-0_
  6
CONTINUOUS
 62
    7
 10
401.66695793512133
 20
261.6250409606024
 11
401.66695793512133
 21
275.67401739060233
  0
LINE
  8
_0-0_
  6
CONTINUOUS
 62
    7
 10
420.71695793512129
 20
275.67401739060233
 11
434.76648632862123
 21
275.67401739060233
  0
LINE
  8
_0-0_
  6
CONTINUOUS
 62
    7
 10
434.76648632862123
 20
275.67401739060233
 11
434.76648632862123
 21
261.6250409606024
  0
LINE
  8
_0-0_
  6
CONTINUOUS
 62
    7
 10
434.76648632862123
 20
261.6250409606024
 11
420.71695793512129
 21
261.6250409606024
  0
LINE
  8
_0-0_
  6
CONTINUOUS
 62
    7
 10
420.71695793512129
 20
261.6250409606024
 11
420.71695793512129
 21
275.67401739060233
  0
LINE
  8
_0-0_
  6
CONTINUOUS
 62
    7
 10
439.76555793512114
 20
275.67401739060233
 11
453.81508632862131
 21
275.67401739060233
  0
LINE
  8
_0-0_
  6
CONTINUOUS
 62
    7
 10
453.81508632862131
 20
275.67401739060233
 11
453.81508632862131
 21
261.6250409606024
  0
LINE
  8
_0-0_
  6
CONTINUOUS
 62
    7
 10
453.81508632862131
 20
261.6250409606024
 11
439.76555793512114
 21
261.6250409606024
  0
LINE
  8
_0-0_
  6
CONTINUOUS
 62
    7
 10
439.76555793512114
 20
261.6250409606024
 11
439.76555793512114
 21
275.67401739060233
  0
LINE
  8
_0-0_
  6
CONTINUOUS
 62
    7
 10
344.51690793512125
 20
275.67401739060233
 11
358.56643632862119
 21
275.67401739060233
  0
LINE
  8
_0-0_
  6
CONTINUOUS
 62
    7
 10
358.56643632862119
 20
275.67401739060233
 11
358.56643632862119
 21
261.6250409606024
  0
LINE
  8
_0-0_
  6
CONTINUOUS
 62
    7
 10
358.56643632862119
 20
261.6250409606024
 11
344.51690793512125
 21
261.6250409606024
  0
LINE
  8
_0-0_
  6
CONTINUOUS
 62
    7
 10
344.51690793512125
 20
261.6250409606024
 11
344.51690793512125
 21
275.67401739060233
  0
LINE
  8
_0-0_
  6
CONTINUOUS
 62
    7
 10
363.56695793512125
 20
275.67401739060233
 11
377.61648632862131
 21
275.67401739060233
  0
LINE
  8
_0-0_
  6
CONTINUOUS
 62
    7
 10
377.61648632862131
 20
275.67401739060233
 11
377.61648632862131
 21
261.6250409606024
  0
LINE
  8
_0-0_
  6
CONTINUOUS
 62
    7
 10
377.61648632862131
 20
261.6250409606024
 11
363.56695793512125
 21
261.6250409606024
  0
LINE
  8
_0-0_
  6
CONTINUOUS
 62
    7
 10
363.56695793512125
 20
261.6250409606024
 11
363.56695793512125
 21
275.67401739060233
  0
LINE
  8
_0-0_
  6
CONTINUOUS
 62
    7
 10
382.61695793512121
 20
275.67401739060233
 11
396.66648632862126
 21
275.67401739060233
  0
LINE
  8
_0-0_
  6
CONTINUOUS
 62
    7
 10
396.66648632862126
 20
275.67401739060233
 11
396.66648632862126
 21
261.6250409606024
  0
LINE
  8
_0-0_
  6
CONTINUOUS
 62
    7
 10
396.66648632862126
 20
261.6250409606024
 11
382.61695793512121
 21
261.6250409606024
  0
LINE
  8
_0-0_
  6
CONTINUOUS
 62
    7
 10
382.61695793512121
 20
261.6250409606024
 11
382.61695793512121
 21
275.67401739060233
  0
LINE
  8
_0-0_
  6
CONTINUOUS
 62
    7
 10
430.24195793512138
 20
256.62411739060224
 11
444.29148632862132
 21
256.62411739060224
  0
LINE
  8
_0-0_
  6
CONTINUOUS
 62
    7
 10
444.29148632862132
 20
256.62411739060224
 11
444.29148632862132
 21
242.57514096060231
  0
LINE
  8
_0-0_
  6
CONTINUOUS
 62
    7
 10
444.29148632862132
 20
242.57514096060231
 11
430.24195793512138
 21
242.57514096060231
  0
LINE
  8
_0-0_
  6
CONTINUOUS
 62
    7
 10
430.24195793512138
 20
242.57514096060231
 11
430.24195793512138
 21
256.62411739060224
  0
LINE
  8
_0-0_
  6
CONTINUOUS
 62
    7
 10
449.29195793512133
 20
256.62411739060224
 11
463.34148632862127
 21
256.62411739060224
  0
LINE
  8
_0-0_
  6
CONTINUOUS
 62
    7
 10
463.34148632862127
 20
256.62411739060224
 11
463.34148632862127
 21
242.57514096060231
  0
LINE
  8
_0-0_
  6
CONTINUOUS
 62
    7
 10
463.34148632862127
 20
242.57514096060231
 11
449.29195793512133
 21
242.57514096060231
  0
LINE
  8
_0-0_
  6
CONTINUOUS
 62
    7
 10
449.29195793512133
 20
242.57514096060231
 11
449.29195793512133
 21
256.62411739060224
  0
LINE
  8
_0-0_
  6
CONTINUOUS
 62
    7
 10
373.09190793512124
 20
256.62411739060224
 11
387.1414363286213
 21
256.62411739060224
  0
LINE
  8
_0-0_
  6
CONTINUOUS
 62
    7
 10
387.1414363286213
 20
256.62411739060224
 11
387.1414363286213
 21
242.57514096060231
  0
LINE
  8
_0-0_
  6
CONTINUOUS
 62
    7
 10
387.1414363286213
 20
242.57514096060231
 11
373.09190793512124
 21
242.57514096060231
  0
LINE
  8
_0-0_
  6
CONTINUOUS
 62
    7
 10
373.09190793512124
 20
242.57514096060231
 11
373.09190793512124
 21
256.62411739060224
  0
LINE
  8
_0-0_
  6
CONTINUOUS
 62
    7
 10
392.1419579351213
 20
256.62411739060224
 11
406.19148632862141
 21
256.62411739060224
  0
LINE
  8
_0-0_
  6
CONTINUOUS
 62
    7
 10
406.19148632862141
 20
256.62411739060224
 11
406.19148632862141
 21
242.57514096060231
  0
LINE
  8
_0-0_
  6
CONTINUOUS
 62
    7
 10
406.19148632862141
 20
242.57514096060231
 11
392.1419579351213
 21
242.57514096060231
  0
LINE
  8
_0-0_
  6
CONTINUOUS
 62
    7
 10
392.1419579351213
 20
242.57514096060231
 11
392.1419579351213
 21
256.62411739060224
  0
LINE
  8
_0-0_
  6
CONTINUOUS
 62
    7
 10
411.1919579351212
 20
256.62411739060224
 11
425.24148632862136
 21
256.62411739060224
  0
LINE
  8
_0-0_
  6
CONTINUOUS
 62
    7
 10
425.24148632862136
 20
256.62411739060224
 11
425.24148632862136
 21
242.57514096060231
  0
LINE
  8
_0-0_
  6
CONTINUOUS
 62
    7
 10
425.24148632862136
 20
242.57514096060231
 11
411.1919579351212
 21
242.57514096060231
  0
LINE
  8
_0-0_
  6
CONTINUOUS
 62
    7
 10
411.1919579351212
 20
242.57514096060231
 11
411.1919579351212
 21
256.62411739060224
  0
LINE
  8
_0-0_
  6
CONTINUOUS
 62
    7
 10
351.66060793512133
 20
256.62411739060224
 11
365.71013632862133
 21
256.62411739060224
  0
LINE
  8
_0-0_
  6
CONTINUOUS
 62
    7
 10
365.71013632862133
 20
256.62411739060224
 11
365.71013632862133
 21
242.57514096060231
  0
LINE
  8
_0-0_
  6
CONTINUOUS
 62
    7
 10
365.71013632862133
 20
242.57514096060231
 11
351.66060793512133
 21
242.57514096060231
  0
LINE
  8
_0-0_
  6
CONTINUOUS
 62
    7
 10
351.66060793512133
 20
242.57514096060231
 11
351.66060793512133
 21
256.62411739060224
  0
LINE
  8
_0-0_
  6
CONTINUOUS
 62
    7
 10
470.72170793512134
 20
256.62411739060224
 11
484.77123632862128
 21
256.62411739060224
  0
LINE
  8
_0-0_
  6
CONTINUOUS
 62
    7
 10
484.77123632862128
 20
256.62411739060224
 11
484.77123632862128
 21
242.57514096060231
  0
LINE
  8
_0-0_
  6
CONTINUOUS
 62
    7
 10
484.77123632862128
 20
242.57514096060231
 11
470.72170793512134
 21
242.57514096060231
  0
LINE
  8
_0-0_
  6
CONTINUOUS
 62
    7
 10
470.72170793512134
 20
242.57514096060231
 11
470.72170793512134
 21
256.62411739060224
  0
LINE
  8
_0-0_
  6
CONTINUOUS
 62
    7
 10
465.96070793512138
 20
275.67401739060233
 11
480.01023632862132
 21
275.67401739060233
  0
LINE
  8
_0-0_
  6
CONTINUOUS
 62
    7
 10
480.01023632862132
 20
275.67401739060233
 11
480.01023632862132
 21
261.6250409606024
  0
LINE
  8
_0-0_
  6
CONTINUOUS
 62
    7
 10
480.01023632862132
 20
261.6250409606024
 11
465.96070793512138
 21
261.6250409606024
  0
LINE
  8
_0-0_
  6
CONTINUOUS
 62
    7
 10
465.96070793512138
 20
261.6250409606024
 11
465.96070793512138
 21
275.67401739060233
  0
LINE
  8
_0-0_
  6
CONTINUOUS
 62
    7
 10
484.77203632862131
 20
304.24901739060232
 11
484.77203632862131
 21
290.20004096060239
  0
LINE
  8
_0-0_
  6
CONTINUOUS
 62
    7
 10
470.72250793512126
 20
290.20004096060239
 11
470.72250793512126
 21
304.24901739060232
  0
LINE
  8
_0-0_
  6
CONTINUOUS
 62
    7
 10
496.91670793512128
 20
294.72401739060228
 11
510.96623632862122
 21
294.72401739060228
  0
LINE
  8
_0-0_
  6
CONTINUOUS
 62
    7
 10
510.96623632862122
 20
294.72401739060228
 11
510.96623632862122
 21
280.67504096060236
  0
LINE
  8
_0-0_
  6
CONTINUOUS
 62
    7
 10
510.96623632862122
 20
280.67504096060236
 11
496.91670793512128
 21
280.67504096060236
  0
LINE
  8
_0-0_
  6
CONTINUOUS
 62
    7
 10
496.91670793512128
 20
280.67504096060236
 11
496.91670793512128
 21
294.72401739060228
  0
LINE
  8
_0-0_
  6
CONTINUOUS
 62
    7
 10
496.91670793512128
 20
275.67401739060233
 11
510.96623632862122
 21
275.67401739060233
  0
LINE
  8
_0-0_
  6
CONTINUOUS
 62
    7
 10
510.96623632862122
 20
275.67401739060233
 11
510.96623632862122
 21
261.6250409606024
  0
LINE
  8
_0-0_
  6
CONTINUOUS
 62
    7
 10
510.96623632862122
 20
261.6250409606024
 11
496.91670793512128
 21
261.6250409606024
  0
LINE
  8
_0-0_
  6
CONTINUOUS
 62
    7
 10
496.91670793512128
 20
261.6250409606024
 11
496.91670793512128
 21
275.67401739060233
  0
LINE
  8
_0-0_
  6
CONTINUOUS
 62
    7
 10
496.91670793512128
 20
256.62411739060224
 11
510.96623632862122
 21
256.62411739060224
  0
LINE
  8
_0-0_
  6
CONTINUOUS
 62
    7
 10
510.96623632862122
 20
256.62411739060224
 11
510.96623632862122
 21
242.57514096060231
  0
LINE
  8
_0-0_
  6
CONTINUOUS
 62
    7
 10
510.96623632862122
 20
242.57514096060231
 11
496.91670793512128
 21
242.57514096060231
  0
LINE
  8
_0-0_
  6
CONTINUOUS
 62
    7
 10
496.91670793512128
 20
242.57514096060231
 11
496.91670793512128
 21
256.62411739060224
  0
LINE
  8
_0-0_
  6
CONTINUOUS
 62
    7
 10
470.72250793512126
 20
304.24901739060232
 11
484.77203632862131
 21
304.24901739060232
  0
LINE
  8
_0-0_
  6
CONTINUOUS
 62
    7
 10
484.77203632862131
 20
290.20004096060239
 11
470.72250793512126
 21
290.20004096060239
  0
LINE
  8
_0-0_
  6
CONTINUOUS
 62
    7
 10
292.55913338137123
 20
256.59961096060226
 11
306.5601333813712
 21
256.59961096060226
  0
LINE
  8
_0-0_
  6
CONTINUOUS
 62
    7
 10
306.5601333813712
 20
256.59961096060226
 11
306.5601333813712
 21
242.60014096060229
  0
LINE
  8
_0-0_
  6
CONTINUOUS
 62
    7
 10
306.5601333813712
 20
242.60014096060229
 11
292.55913338137123
 21
242.60014096060229
  0
LINE
  8
_0-0_
  6
CONTINUOUS
 62
    7
 10
292.55913338137123
 20
242.60014096060229
 11
292.55913338137123
 21
256.59961096060226
  0
LINE
  8
_0-0_
  6
CONTINUOUS
 62
    7
 10
271.12913338137122
 20
256.59961096060226
 11
285.12913338137122
 21
256.59961096060226
  0
LINE
  8
_0-0_
  6
CONTINUOUS
 62
    7
 10
285.12913338137122
 20
256.59961096060226
 11
285.12913338137122
 21
242.60014096060229
  0
LINE
  8
_0-0_
  6
CONTINUOUS
 62
    7
 10
285.12913338137122
 20
242.60014096060229
 11
271.12913338137122
 21
242.60014096060229
  0
LINE
  8
_0-0_
  6
CONTINUOUS
 62
    7
 10
271.12913338137122
 20
242.60014096060229
 11
271.12913338137122
 21
256.59961096060226
  0
LINE
  8
_0-0_
  6
CONTINUOUS
 62
    7
 10
252.07933338137127
 20
256.59961096060226
 11
266.07913338137121
 21
256.59961096060226
  0
LINE
  8
_0-0_
  6
CONTINUOUS
 62
    7
 10
266.07913338137121
 20
256.59961096060226
 11
266.07913338137121
 21
242.60014096060229
  0
LINE
  8
_0-0_
  6
CONTINUOUS
 62
    7
 10
266.07913338137121
 20
242.60014096060229
 11
252.07933338137127
 21
242.60014096060229
  0
LINE
  8
_0-0_
  6
CONTINUOUS
 62
    7
 10
252.07933338137127
 20
242.60014096060229
 11
252.07933338137127
 21
256.59961096060226
  0
LINE
  8
_0-0_
  6
CONTINUOUS
 62
    7
 10
230.64813338137122
 20
256.59961096060226
 11
244.64743338137123
 21
256.59961096060226
  0
LINE
  8
_0-0_
  6
CONTINUOUS
 62
    7
 10
244.64743338137123
 20
256.59961096060226
 11
244.64743338137123
 21
242.60014096060229
  0
LINE
  8
_0-0_
  6
CONTINUOUS
 62
    7
 10
244.64743338137123
 20
242.60014096060229
 11
230.64813338137122
 21
242.60014096060229
  0
LINE
  8
_0-0_
  6
CONTINUOUS
 62
    7
 10
230.64813338137122
 20
242.60014096060229
 11
230.64813338137122
 21
256.59961096060226
  0
LINE
  8
_0-0_
  6
CONTINUOUS
 62
    7
 10
209.21683338137126
 20
256.59961096060226
 11
223.21613338137126
 21
256.59961096060226
  0
LINE
  8
_0-0_
  6
CONTINUOUS
 62
    7
 10
223.21613338137126
 20
256.59961096060226
 11
223.21613338137126
 21
242.60014096060229
  0
LINE
  8
_0-0_
  6
CONTINUOUS
 62
    7
 10
223.21613338137126
 20
242.60014096060229
 11
209.21683338137126
 21
242.60014096060229
  0
LINE
  8
_0-0_
  6
CONTINUOUS
 62
    7
 10
209.21683338137126
 20
242.60014096060229
 11
209.21683338137126
 21
256.59961096060226
  0
LINE
  8
_0-0_
  6
CONTINUOUS
 62
    7
 10
187.78413338137125
 20
256.59961096060226
 11
201.78493338137122
 21
256.59961096060226
  0
LINE
  8
_0-0_
  6
CONTINUOUS
 62
    7
 10
201.78493338137122
 20
256.59961096060226
 11
201.78493338137122
 21
242.60014096060229
  0
LINE
  8
_0-0_
  6
CONTINUOUS
 62
    7
 10
201.78493338137122
 20
242.60014096060229
 11
187.78413338137125
 21
242.60014096060229
  0
LINE
  8
_0-0_
  6
CONTINUOUS
 62
    7
 10
187.78413338137125
 20
242.60014096060229
 11
187.78413338137125
 21
256.59961096060226
  0
ENDSEC
  0
EOF
