  0
SECTION
  2
HEADER
  9
$ACADVER
  1
AC1009
  9
$INSBASE
 10
0
 20
0
 30
0
  9
$EXTMIN
 10
0
 20
0
  9
$EXTMAX
 10
841
 20
594
  9
$LIMMIN
 10
0
 20
0
  9
$LIMMAX
 10
841
 20
594
  9
$LTSCALE
 40
1
  0
ENDSEC
  0
SECTION
  2
TABLES
  0
TABLE
  2
LTYPE
 70
     9
  0
LTYPE
  2
CONTINUOUS
 70
    64
  3
実線
 72
    65
 73
     0
 40
0.0
  0
LTYPE
  2
DASHED1
 70
    64
  3
--  --  --  --  --  --  --  --  
 72
    65
 73
     2
 40
2.5
 49
1.25
 49
-1.25
  0
LTYPE
  2
DASHED2
 70
    64
  3
----    ----    ----    ----    
 72
    65
 73
     2
 40
5.0
 49
2.5
 49
-2.5
  0
LTYPE
  2
DASHED3
 70
    64
  3
------  ------  ------  ------  
 72
    65
 73
     2
 40
5.0
 49
3.75
 49
-1.25
  0
LTYPE
  2
CENTER1
 70
    64
  3
----- - ----- - ----- - ----- - 
 72
    65
 73
     4
 40
10.0
 49
6.25
 49
-1.25
 49
1.25
 49
-1.25
  0
LTYPE
  2
CENTER2
 70
    64
  3
----------  --  ----------  --  
 72
    65
 73
     4
 40
20.0
 49
12.5
 49
-2.5
 49
2.5
 49
-2.5
  0
LTYPE
  2
PHANTOM1
 70
    64
  3
--- - - --- - - --- - - --- - - 
 72
    65
 73
     6
 40
10.0
 49
3.25
 49
-1.25
 49
1.25
 49
-1.25
 49
1.25
 49
-1.25
  0
LTYPE
  2
PHANTOM2
 70
    64
  3
--------  -  -  --------  -  -  
 72
    65
 73
     6
 40
20.0
 49
10.0
 49
-2.5
 49
1.25
 49
-2.5
 49
1.25
 49
-2.5
  0
LTYPE
  2
DOT
 70
    64
  3
-   -   -   -   -   -   -   -   
 72
    65
 73
     2
 40
2.5
 49
0.625
 49
-1.875
  0
LTYPE
  2
DUMMY
 70
    64
  3
ダミー
 72
    65
 73
     0
 40
0.0
  0
LTYPE
  2
RAND1
 70
    64
  3
ランダム線1
 72
    65
 73
     4
 40
10.0
 49
1.0
 49
-2.0
 49
3.0
 49
-4.0
  0
LTYPE
  2
RAND2
 70
    64
  3
ランダム線2
 72
    65
 73
     4
 40
14.0
 49
2.0
 49
-3.0
 49
4.0
 49
-5.0
  0
LTYPE
  2
RAND3
 70
    64
  3
ランダム線3
 72
    65
 73
     4
 40
18.0
 49
3.0
 49
-4.0
 49
5.0
 49
-6.0
  0
LTYPE
  2
RAND4
 70
    64
  3
ランダム線4
 72
    65
 73
     4
 40
22.0
 49
4.0
 49
-5.0
 49
6.0
 49
-7.0
  0
LTYPE
  2
RAND5
 70
    64
  3
ランダム線5
 72
    65
 73
     4
 40
26.0
 49
5.0
 49
-6.0
 49
7.0
 49
-8.0
  0
LTYPE
  2
LONG1
 70
    64
  3
----------  --  ----------  --  
 72
    65
 73
     4
 40
40.0
 49
32.5
 49
-2.5
 49
2.5
 49
-2.5
  0
LTYPE
  2
LONG2
 70
    64
  3
--------  -  -  --------  -  -  
 72
    65
 73
     6
 40
40.0
 49
30.0
 49
-2.5
 49
1.25
 49
-2.5
 49
1.25
 49
-2.5
  0
LTYPE
  2
LONG3
 70
    64
  3
+++++++++++++++..+++++++++++++++
 72
    65
 73
     2
 40
40.0
 49
37.5
 49
-2.5
  0
LTYPE
  2
LONG4
 70
    64
  3
+++++++++++++++..+++++++++++++++
 72
    65
 73
     2
 40
80.0
 49
75.0
 49
-5.0
  0
LTYPE
  2
LONG5
 70
    64
  3
----------  --  ----------  --  
 72
    65
 73
     4
 40
60.0
 49
37.5
 49
-7.5
 49
7.5
 49
-7.5
  0
LTYPE
  2
dashed
 70
   64
  3
-------   -------------   ------
 72
   65
 73
    2
 40
7.5
 49
6
 49
-1.5
  0
LTYPE
  2
dashed_spaced
 70
   64
  3
----        --------        ----
 72
   65
 73
    2
 40
12
 49
6
 49
-6
  0
LTYPE
  2
long_dashed_dotted
 70
   64
  3
------------- --- --------------
 72
   65
 73
    4
 40
15.25
 49
12
 49
-1.5
 49
0.25
 49
-1.5
  0
LTYPE
  2
long_dashed_double-dotted
 70
   64
  3
----------- --- --- ------------
 72
   65
 73
    6
 40
17
 49
12
 49
-1.5
 49
0.25
 49
-1.5
 49
0.25
 49
-1.5
  0
LTYPE
  2
long_dashed_triplicate-dotted
 70
   64
  3
--------- --- --- --- ----------
 72
   65
 73
    8
 40
18.75
 49
12
 49
-1.5
 49
0.25
 49
-1.5
 49
0.25
 49
-1.5
 49
0.25
 49
-1.5
  0
LTYPE
  2
dotted
 70
   64
  3
   -       -       -       -    
 72
   65
 73
    2
 40
1.75
 49
0.25
 49
-1.5
  0
LTYPE
  2
chain
 70
   64
  3
-------------- -- --------------
 72
   65
 73
    4
 40
18.5
 49
12
 49
-1.5
 49
3.5
 49
-1.5
  0
LTYPE
  2
chain_double_dash
 70
   64
  3
------------ -- -- -------------
 72
   65
 73
    6
 40
23.5
 49
12
 49
-1.5
 49
3.5
 49
-1.5
 49
3.5
 49
-1.5
  0
LTYPE
  2
dashed_dotted
 70
   64
  3
-----------     -     ----------
 72
   65
 73
    4
 40
9.25
 49
6
 49
-1.5
 49
0.25
 49
-1.5
  0
LTYPE
  2
double-dashed_dotted
 70
   64
  3
------   -----------   -   -----
 72
   65
 73
    6
 40
16.75
 49
6
 49
-1.5
 49
6
 49
-1.5
 49
0.25
 49
-1.5
  0
LTYPE
  2
dashed_double-dotted
 70
   64
  3
---------    -    -    ---------
 72
   65
 73
    6
 40
11
 49
6
 49
-1.5
 49
0.25
 49
-1.5
 49
0.25
 49
-1.5
  0
LTYPE
  2
double-dashed_double-dotted
 70
   64
  3
-----   ---------   -   -   ----
 72
   65
 73
    8
 40
18.5
 49
6
 49
-1.5
 49
6
 49
-1.5
 49
0.25
 49
-1.5
 49
0.25
 49
-1.5
  0
LTYPE
  2
dashed_triplicate-dotted
 70
   64
  3
-------    -    -    -    ------
 72
   65
 73
    8
 40
12.75
 49
6
 49
-1.5
 49
0.25
 49
-1.5
 49
0.25
 49
-1.5
 49
0.25
 49
-1.5
  0
LTYPE
  2
double-dashed_triplicate-dotted
 70
   64
  3
-----  ---------  -  -  -  -----
 72
   65
 73
   10
 40
20.25
 49
6
 49
-1.5
 49
6
 49
-1.5
 49
0.25
 49
-1.5
 49
0.25
 49
-1.5
 49
0.25
 49
-1.5
  0
LTYPE
  2
undefined
 70
   64
  3
--------------------------------
 72
   65
 73
    0
 40
0
  0
LTYPE
  2
_
 70
   64
  3
                                
 72
   65
 73
    0
 40
0
  0
LTYPE
  2
__18
 70
   64
  3
                                
 72
   65
 73
    0
 40
0
  0
LTYPE
  2
__19
 70
   64
  3
                                
 72
   65
 73
    0
 40
0
  0
LTYPE
  2
__20
 70
   64
  3
                                
 72
   65
 73
    0
 40
0
  0
LTYPE
  2
__21
 70
   64
  3
                                
 72
   65
 73
    0
 40
0
  0
LTYPE
  2
__22
 70
   64
  3
                                
 72
   65
 73
    0
 40
0
  0
LTYPE
  2
__23
 70
   64
  3
                                
 72
   65
 73
    0
 40
0
  0
LTYPE
  2
__24
 70
   64
  3
                                
 72
   65
 73
    0
 40
0
  0
LTYPE
  2
__25
 70
   64
  3
                                
 72
   65
 73
    0
 40
0
  0
LTYPE
  2
__26
 70
   64
  3
                                
 72
   65
 73
    0
 40
0
  0
LTYPE
  2
__27
 70
   64
  3
                                
 72
   65
 73
    0
 40
0
  0
LTYPE
  2
__28
 70
   64
  3
                                
 72
   65
 73
    0
 40
0
  0
LTYPE
  2
__29
 70
   64
  3
                                
 72
   65
 73
    0
 40
0
  0
LTYPE
  2
__30
 70
   64
  3
                                
 72
   65
 73
    0
 40
0
  0
LTYPE
  2
__31
 70
   64
  3
                                
 72
   65
 73
    0
 40
0
  0
LTYPE
  2
__32
 70
   64
  3
                                
 72
   65
 73
    0
 40
0
  0
ENDTAB
  0
TABLE
  2
STYLE
  5
3
100
AcDbSymbolTable
 70
     1
  0
STYLE
  5
10
100
AcDbSymbolTableRecord
100
AcDbTextStyleTableRecord
  2
STANDARD
 70
     0
 40
0.0
 41
1.0
 50
0.0
 71
     0
 42
0.2
  3
txt
  4
bigfont.shx
  0
STYLE
  5
26
100
AcDbSymbolTableRecord
100
AcDbTextStyleTableRecord
  2
TATEGAKI
 70
    68
 40
0.0
 41
1.0
 50
0.0
 71
     0
 42
1.0
  3
txt
  4
bigfont.shx
  0
ENDTAB
  0
TABLE
  2
LAYER
 70
    2
  0
LAYER
  2
_0-0_
 70
   64
 62
    7
  6
CONTINUOUS
  0
LAYER
  2
ADD_LINE
 70
   64
 62
    7
  6
CONTINUOUS
  0
ENDTAB
  0
ENDSEC
  0
SECTION
  2
BLOCKS
  0
ENDSEC
  0
SECTION
  2
ENTITIES
  0
LINE
  8
_0-0_
  6
CONTINUOUS
 62
    7
 10
332.25405963187126
 20
253.57439417560224
 11
332.25405963187126
 21
236.07439417560224
  0
LINE
  8
_0-0_
  6
CONTINUOUS
 62
    7
 10
157.06654713187129
 20
368.8991291756023
 11
320.22841463187126
 21
368.8991291756023
  0
LINE
  8
_0-0_
  6
CONTINUOUS
 62
    7
 10
154.06654713187129
 20
238.07439417560224
 11
154.06654713187129
 21
365.8991291756023
  0
ARC
  8
_0-0_
  6
CONTINUOUS
 62
    7
 10
157.06654713187129
 20
365.8991291756023
 40
3
 50
90
 51
180
  0
ARC
  8
_0-0_
  6
CONTINUOUS
 62
    7
 10
331.22841463187126
 20
298.45556473797632
 40
10
 50
180
 51
194.03713868216576
  0
ARC
  8
_0-0_
  6
CONTINUOUS
 62
    7
 10
320.22841463187126
 20
367.89912917560235
 40
1
 50
0
 51
90
  0
LINE
  8
_0-0_
  6
CONTINUOUS
 62
    7
 10
330.45544673731695
 20
260.31875144258942
 11
321.52702752642557
 21
296.03005690861511
  0
ARC
  8
_0-0_
  6
CONTINUOUS
 62
    7
 10
320.75405963187126
 20
257.89324361322821
 40
10
 50
0
 51
14.037138682165798
  0
ARC
  8
_0-0_
  6
CONTINUOUS
 62
    7
 10
329.75405963187126
 20
236.07439417560224
 40
1
 50
270
 51
0
  0
ARC
  8
_0-0_
  6
CONTINUOUS
 62
    7
 10
332.72841463187126
 20
298.45556473797632
 40
10
 50
180
 51
194.03713868216576
  0
LINE
  8
_0-0_
  6
CONTINUOUS
 62
    7
 10
331.95544673731695
 20
260.31875144258942
 11
323.02702752642557
 21
296.03005690861511
  0
ARC
  8
_0-0_
  6
CONTINUOUS
 62
    7
 10
322.25405963187126
 20
257.89324361322821
 40
10
 50
0
 51
14.037138682165798
  0
ARC
  8
_0-0_
  6
CONTINUOUS
 62
    7
 10
323.72841463187126
 20
367.89912917560235
 40
1
 50
90
 51
180
  0
ARC
  8
_0-0_
  6
CONTINUOUS
 62
    7
 10
333.25405963187126
 20
236.07439417560224
 40
1
 50
180
 51
270
  0
LINE
  8
_0-0_
  6
CONTINUOUS
 62
    7
 10
330.75405963187126
 20
253.57439417560224
 11
330.75405963187126
 21
236.07439417560224
  0
ARC
  8
_0-0_
  6
CONTINUOUS
 62
    7
 10
331.50405963187126
 20
253.57439417560224
 40
0.7500000000000001
 50
90
 51
180
  0
ARC
  8
_0-0_
  6
CONTINUOUS
 62
    7
 10
331.50405963187126
 20
253.57439417560224
 40
0.7500000000000001
 50
0
 51
90
  0
LINE
  8
_0-0_
  6
CONTINUOUS
 62
    7
 10
330.75405963187126
 20
256.57439417560227
 11
330.75405963187126
 21
257.89324361322821
  0
ARC
  8
_0-0_
  6
CONTINUOUS
 62
    7
 10
331.50405963187126
 20
256.57439417560227
 40
0.7500000000000001
 50
180
 51
270
  0
ARC
  8
_0-0_
  6
CONTINUOUS
 62
    7
 10
331.50405963187126
 20
256.57439417560227
 40
0.7500000000000001
 50
270
 51
0
  0
LINE
  8
_0-0_
  6
CONTINUOUS
 62
    7
 10
321.22841463187126
 20
300.48676167560228
 11
321.22841463187126
 21
298.45556473797632
  0
ARC
  8
_0-0_
  6
CONTINUOUS
 62
    7
 10
321.97841463187126
 20
300.48676167560228
 40
0.7500000000000001
 50
90
 51
180
  0
LINE
  8
_0-0_
  6
CONTINUOUS
 62
    7
 10
322.72841463187126
 20
300.48676167560228
 11
322.72841463187126
 21
298.45556473797632
  0
ARC
  8
_0-0_
  6
CONTINUOUS
 62
    7
 10
321.97841463187126
 20
300.48676167560228
 40
0.7500000000000001
 50
0
 51
90
  0
ARC
  8
_0-0_
  6
CONTINUOUS
 62
    7
 10
321.97841463187126
 20
303.48676167560228
 40
0.7500000000000001
 50
180
 51
270
  0
ARC
  8
_0-0_
  6
CONTINUOUS
 62
    7
 10
321.97841463187126
 20
303.48676167560228
 40
0.7500000000000001
 50
270
 51
0
  0
LINE
  8
_0-0_
  6
CONTINUOUS
 62
    7
 10
321.22841463187126
 20
350.39912917560235
 11
321.22841463187126
 21
367.89912917560235
  0
ARC
  8
_0-0_
  6
CONTINUOUS
 62
    7
 10
321.97841463187126
 20
350.39912917560235
 40
0.7500000000000001
 50
180
 51
270
  0
LINE
  8
_0-0_
  6
CONTINUOUS
 62
    7
 10
322.72841463187126
 20
350.39912917560235
 11
322.72841463187126
 21
367.89912917560235
  0
ARC
  8
_0-0_
  6
CONTINUOUS
 62
    7
 10
321.97841463187126
 20
350.39912917560235
 40
0.7500000000000001
 50
270
 51
0
  0
LINE
  8
_0-0_
  6
CONTINUOUS
 62
    7
 10
321.22841463187126
 20
347.39912917560235
 11
321.22841463187126
 21
303.48676167560228
  0
ARC
  8
_0-0_
  6
CONTINUOUS
 62
    7
 10
321.97841463187126
 20
347.39912917560235
 40
0.7500000000000001
 50
90
 51
180
  0
LINE
  8
_0-0_
  6
CONTINUOUS
 62
    7
 10
322.72841463187126
 20
347.39912917560235
 11
322.72841463187126
 21
303.48676167560228
  0
ARC
  8
_0-0_
  6
CONTINUOUS
 62
    7
 10
321.97841463187126
 20
347.39912917560235
 40
0.7500000000000001
 50
0
 51
90
  0
LINE
  8
_0-0_
  6
CONTINUOUS
 62
    7
 10
157.06654713187129
 20
235.07439417560224
 11
329.75405963187126
 21
235.07439417560224
  0
ARC
  8
_0-0_
  6
CONTINUOUS
 62
    7
 10
157.06654713187129
 20
238.07439417560224
 40
3
 50
180
 51
270
  0
LINE
  8
_0-0_
  6
CONTINUOUS
 62
    7
 10
515.46669713187123
 20
235.07439417560224
 11
333.25405963187126
 21
235.07439417560224
  0
ARC
  8
_0-0_
  6
CONTINUOUS
 62
    7
 10
515.46669713187123
 20
238.07439417560224
 40
3
 50
270
 51
0
  0
LINE
  8
_0-0_
  6
CONTINUOUS
 62
    7
 10
518.46669713187123
 20
365.89912917560235
 11
518.46669713187123
 21
238.07439417560224
  0
ARC
  8
_0-0_
  6
CONTINUOUS
 62
    7
 10
515.46669713187123
 20
365.89912917560235
 40
3
 50
0
 51
90
  0
CIRCLE
  8
_0-0_
  6
CONTINUOUS
 62
    7
 10
157.06654713187129
 20
365.8991291756023
 40
1.1000000000000001
  0
CIRCLE
  8
_0-0_
  6
CONTINUOUS
 62
    7
 10
157.06654713187129
 20
238.07439417560224
 40
1.1000000000000001
  0
CIRCLE
  8
_0-0_
  6
CONTINUOUS
 62
    7
 10
327.75405963187126
 20
238.07439417560224
 40
1.1000000000000001
  0
CIRCLE
  8
_0-0_
  6
CONTINUOUS
 62
    7
 10
318.22841463187126
 20
365.8991291756023
 40
1.1000000000000001
  0
CIRCLE
  8
_0-0_
  6
CONTINUOUS
 62
    7
 10
325.72841463187126
 20
365.89912917560235
 40
1.1000000000000001
  0
CIRCLE
  8
_0-0_
  6
CONTINUOUS
 62
    7
 10
335.25405963187126
 20
238.07439417560224
 40
1.1000000000000001
  0
CIRCLE
  8
_0-0_
  6
CONTINUOUS
 62
    7
 10
515.46669713187123
 20
238.07439417560224
 40
1.1000000000000001
  0
CIRCLE
  8
_0-0_
  6
CONTINUOUS
 62
    7
 10
515.46669713187123
 20
365.89912917560235
 40
1.1000000000000001
  0
LINE
  8
_0-0_
  6
CONTINUOUS
 62
    7
 10
332.25405963187126
 20
256.57439417560227
 11
332.25405963187126
 21
257.89324361322815
  0
ARC
  8
_0-0_
  6
CONTINUOUS
 62
    7
 10
191.72898338137125
 20
350.39961096060227
 40
0.1
 50
90
 51
180
  0
LINE
  8
_0-0_
  6
CONTINUOUS
 62
    7
 10
193.02898338137126
 20
350.49961096060224
 11
191.72898338137125
 21
350.49961096060224
  0
ARC
  8
_0-0_
  6
CONTINUOUS
 62
    7
 10
193.02898338137126
 20
350.39961096060227
 40
0.1
 50
0
 51
90
  0
LINE
  8
_0-0_
  6
CONTINUOUS
 62
    7
 10
191.62898338137126
 20
348.29961096060225
 11
191.62898338137126
 21
350.39961096060227
  0
ARC
  8
_0-0_
  6
CONTINUOUS
 62
    7
 10
191.72898338137125
 20
348.29961096060225
 40
0.1
 50
180
 51
270
  0
LINE
  8
_0-0_
  6
CONTINUOUS
 62
    7
 10
193.02898338137126
 20
348.19961096060229
 11
191.72898338137125
 21
348.19961096060229
  0
LINE
  8
_0-0_
  6
CONTINUOUS
 62
    7
 10
193.12898338137126
 20
348.29961096060225
 11
193.12898338137126
 21
350.39961096060227
  0
ARC
  8
_0-0_
  6
CONTINUOUS
 62
    7
 10
193.02898338137126
 20
348.29961096060225
 40
0.1
 50
270
 51
0
  0
ARC
  8
_0-0_
  6
CONTINUOUS
 62
    7
 10
220.3039833813713
 20
350.39961096060227
 40
0.1
 50
90
 51
180
  0
LINE
  8
_0-0_
  6
CONTINUOUS
 62
    7
 10
221.60398338137131
 20
350.49961096060224
 11
220.3039833813713
 21
350.49961096060224
  0
ARC
  8
_0-0_
  6
CONTINUOUS
 62
    7
 10
221.60398338137131
 20
350.39961096060227
 40
0.1
 50
0
 51
90
  0
LINE
  8
_0-0_
  6
CONTINUOUS
 62
    7
 10
220.2039833813713
 20
348.29961096060225
 11
220.2039833813713
 21
350.39961096060227
  0
ARC
  8
_0-0_
  6
CONTINUOUS
 62
    7
 10
220.3039833813713
 20
348.29961096060225
 40
0.1
 50
180
 51
270
  0
LINE
  8
_0-0_
  6
CONTINUOUS
 62
    7
 10
221.60398338137131
 20
348.19961096060229
 11
220.3039833813713
 21
348.19961096060229
  0
LINE
  8
_0-0_
  6
CONTINUOUS
 62
    7
 10
221.7039833813713
 20
348.29961096060225
 11
221.7039833813713
 21
350.39961096060227
  0
ARC
  8
_0-0_
  6
CONTINUOUS
 62
    7
 10
221.60398338137131
 20
348.29961096060225
 40
0.1
 50
270
 51
0
  0
ARC
  8
_0-0_
  6
CONTINUOUS
 62
    7
 10
239.35398338137125
 20
350.39961096060227
 40
0.1
 50
90
 51
180
  0
LINE
  8
_0-0_
  6
CONTINUOUS
 62
    7
 10
240.65398338137126
 20
350.49961096060224
 11
239.35398338137125
 21
350.49961096060224
  0
ARC
  8
_0-0_
  6
CONTINUOUS
 62
    7
 10
240.65398338137126
 20
350.39961096060227
 40
0.1
 50
0
 51
90
  0
LINE
  8
_0-0_
  6
CONTINUOUS
 62
    7
 10
239.25398338137126
 20
348.29961096060225
 11
239.25398338137126
 21
350.39961096060227
  0
ARC
  8
_0-0_
  6
CONTINUOUS
 62
    7
 10
239.35398338137125
 20
348.29961096060225
 40
0.1
 50
180
 51
270
  0
LINE
  8
_0-0_
  6
CONTINUOUS
 62
    7
 10
240.65398338137126
 20
348.19961096060229
 11
239.35398338137125
 21
348.19961096060229
  0
LINE
  8
_0-0_
  6
CONTINUOUS
 62
    7
 10
240.75398338137126
 20
348.29961096060225
 11
240.75398338137126
 21
350.39961096060227
  0
ARC
  8
_0-0_
  6
CONTINUOUS
 62
    7
 10
240.65398338137126
 20
348.29961096060225
 40
0.1
 50
270
 51
0
  0
ARC
  8
_0-0_
  6
CONTINUOUS
 62
    7
 10
258.40398338137129
 20
350.39961096060227
 40
0.1
 50
90
 51
180
  0
LINE
  8
_0-0_
  6
CONTINUOUS
 62
    7
 10
259.70398338137136
 20
350.49961096060224
 11
258.40398338137129
 21
350.49961096060224
  0
ARC
  8
_0-0_
  6
CONTINUOUS
 62
    7
 10
259.70398338137136
 20
350.39961096060227
 40
0.1
 50
0
 51
90
  0
LINE
  8
_0-0_
  6
CONTINUOUS
 62
    7
 10
258.30398338137132
 20
348.29961096060225
 11
258.30398338137132
 21
350.39961096060227
  0
ARC
  8
_0-0_
  6
CONTINUOUS
 62
    7
 10
258.40398338137129
 20
348.29961096060225
 40
0.1
 50
180
 51
270
  0
LINE
  8
_0-0_
  6
CONTINUOUS
 62
    7
 10
259.70398338137136
 20
348.19961096060229
 11
258.40398338137129
 21
348.19961096060229
  0
LINE
  8
_0-0_
  6
CONTINUOUS
 62
    7
 10
259.80398338137132
 20
348.29961096060225
 11
259.80398338137132
 21
350.39961096060227
  0
ARC
  8
_0-0_
  6
CONTINUOUS
 62
    7
 10
259.70398338137136
 20
348.29961096060225
 40
0.1
 50
270
 51
0
  0
ARC
  8
_0-0_
  6
CONTINUOUS
 62
    7
 10
277.45378338137118
 20
350.39961096060227
 40
0.1
 50
90
 51
180
  0
LINE
  8
_0-0_
  6
CONTINUOUS
 62
    7
 10
278.75378338137125
 20
350.49961096060224
 11
277.45378338137118
 21
350.49961096060224
  0
ARC
  8
_0-0_
  6
CONTINUOUS
 62
    7
 10
278.75378338137125
 20
350.39961096060227
 40
0.1
 50
0
 51
90
  0
LINE
  8
_0-0_
  6
CONTINUOUS
 62
    7
 10
277.35378338137122
 20
348.29961096060225
 11
277.35378338137122
 21
350.39961096060227
  0
ARC
  8
_0-0_
  6
CONTINUOUS
 62
    7
 10
277.45378338137118
 20
348.29961096060225
 40
0.1
 50
180
 51
270
  0
LINE
  8
_0-0_
  6
CONTINUOUS
 62
    7
 10
278.75378338137125
 20
348.19961096060229
 11
277.45378338137118
 21
348.19961096060229
  0
LINE
  8
_0-0_
  6
CONTINUOUS
 62
    7
 10
278.85378338137122
 20
348.29961096060225
 11
278.85378338137122
 21
350.39961096060227
  0
ARC
  8
_0-0_
  6
CONTINUOUS
 62
    7
 10
278.75378338137125
 20
348.29961096060225
 40
0.1
 50
270
 51
0
  0
ARC
  8
_0-0_
  6
CONTINUOUS
 62
    7
 10
306.02878338137123
 20
350.39961096060227
 40
0.1
 50
90
 51
180
  0
LINE
  8
_0-0_
  6
CONTINUOUS
 62
    7
 10
307.3287833813713
 20
350.49961096060224
 11
306.02878338137123
 21
350.49961096060224
  0
ARC
  8
_0-0_
  6
CONTINUOUS
 62
    7
 10
307.3287833813713
 20
350.39961096060227
 40
0.1
 50
0
 51
90
  0
LINE
  8
_0-0_
  6
CONTINUOUS
 62
    7
 10
305.92878338137126
 20
348.29961096060225
 11
305.92878338137126
 21
350.39961096060227
  0
ARC
  8
_0-0_
  6
CONTINUOUS
 62
    7
 10
306.02878338137123
 20
348.29961096060225
 40
0.1
 50
180
 51
270
  0
LINE
  8
_0-0_
  6
CONTINUOUS
 62
    7
 10
307.3287833813713
 20
348.19961096060229
 11
306.02878338137123
 21
348.19961096060229
  0
LINE
  8
_0-0_
  6
CONTINUOUS
 62
    7
 10
307.42878338137126
 20
348.29961096060225
 11
307.42878338137126
 21
350.39961096060227
  0
ARC
  8
_0-0_
  6
CONTINUOUS
 62
    7
 10
307.3287833813713
 20
348.29961096060225
 40
0.1
 50
270
 51
0
  0
ARC
  8
_0-0_
  6
CONTINUOUS
 62
    7
 10
191.72898338137125
 20
321.82501096060236
 40
0.1
 50
90
 51
180
  0
LINE
  8
_0-0_
  6
CONTINUOUS
 62
    7
 10
193.02898338137126
 20
321.92501096060232
 11
191.72898338137125
 21
321.92501096060232
  0
ARC
  8
_0-0_
  6
CONTINUOUS
 62
    7
 10
193.02898338137126
 20
321.82501096060236
 40
0.1
 50
0
 51
90
  0
LINE
  8
_0-0_
  6
CONTINUOUS
 62
    7
 10
191.62898338137126
 20
319.72501096060233
 11
191.62898338137126
 21
321.82501096060236
  0
ARC
  8
_0-0_
  6
CONTINUOUS
 62
    7
 10
191.72898338137125
 20
319.72501096060233
 40
0.1
 50
180
 51
270
  0
LINE
  8
_0-0_
  6
CONTINUOUS
 62
    7
 10
193.02898338137126
 20
319.62501096060237
 11
191.72898338137125
 21
319.62501096060237
  0
LINE
  8
_0-0_
  6
CONTINUOUS
 62
    7
 10
193.12898338137126
 20
319.72501096060233
 11
193.12898338137126
 21
321.82501096060236
  0
ARC
  8
_0-0_
  6
CONTINUOUS
 62
    7
 10
193.02898338137126
 20
319.72501096060233
 40
0.1
 50
270
 51
0
  0
ARC
  8
_0-0_
  6
CONTINUOUS
 62
    7
 10
210.77898338137121
 20
321.82501096060236
 40
0.1
 50
90
 51
180
  0
LINE
  8
_0-0_
  6
CONTINUOUS
 62
    7
 10
212.07898338137122
 20
321.92501096060232
 11
210.77898338137121
 21
321.92501096060232
  0
ARC
  8
_0-0_
  6
CONTINUOUS
 62
    7
 10
212.07898338137122
 20
321.82501096060236
 40
0.1
 50
0
 51
90
  0
LINE
  8
_0-0_
  6
CONTINUOUS
 62
    7
 10
210.67898338137121
 20
319.72501096060233
 11
210.67898338137121
 21
321.82501096060236
  0
ARC
  8
_0-0_
  6
CONTINUOUS
 62
    7
 10
210.77898338137121
 20
319.72501096060233
 40
0.1
 50
180
 51
270
  0
LINE
  8
_0-0_
  6
CONTINUOUS
 62
    7
 10
212.07898338137122
 20
319.62501096060237
 11
210.77898338137121
 21
319.62501096060237
  0
LINE
  8
_0-0_
  6
CONTINUOUS
 62
    7
 10
212.17898338137121
 20
319.72501096060233
 11
212.17898338137121
 21
321.82501096060236
  0
ARC
  8
_0-0_
  6
CONTINUOUS
 62
    7
 10
212.07898338137122
 20
319.72501096060233
 40
0.1
 50
270
 51
0
  0
ARC
  8
_0-0_
  6
CONTINUOUS
 62
    7
 10
229.82898338137127
 20
321.82501096060236
 40
0.1
 50
90
 51
180
  0
LINE
  8
_0-0_
  6
CONTINUOUS
 62
    7
 10
231.12898338137128
 20
321.92501096060232
 11
229.82898338137127
 21
321.92501096060232
  0
ARC
  8
_0-0_
  6
CONTINUOUS
 62
    7
 10
231.12898338137128
 20
321.82501096060236
 40
0.1
 50
0
 51
90
  0
LINE
  8
_0-0_
  6
CONTINUOUS
 62
    7
 10
229.72898338137128
 20
319.72501096060233
 11
229.72898338137128
 21
321.82501096060236
  0
ARC
  8
_0-0_
  6
CONTINUOUS
 62
    7
 10
229.82898338137127
 20
319.72501096060233
 40
0.1
 50
180
 51
270
  0
LINE
  8
_0-0_
  6
CONTINUOUS
 62
    7
 10
231.12898338137128
 20
319.62501096060237
 11
229.82898338137127
 21
319.62501096060237
  0
LINE
  8
_0-0_
  6
CONTINUOUS
 62
    7
 10
231.22898338137128
 20
319.72501096060233
 11
231.22898338137128
 21
321.82501096060236
  0
ARC
  8
_0-0_
  6
CONTINUOUS
 62
    7
 10
231.12898338137128
 20
319.72501096060233
 40
0.1
 50
270
 51
0
  0
ARC
  8
_0-0_
  6
CONTINUOUS
 62
    7
 10
248.87878338137116
 20
321.82501096060236
 40
0.1
 50
90
 51
180
  0
LINE
  8
_0-0_
  6
CONTINUOUS
 62
    7
 10
250.17878338137118
 20
321.92501096060232
 11
248.87878338137116
 21
321.92501096060232
  0
ARC
  8
_0-0_
  6
CONTINUOUS
 62
    7
 10
250.17878338137118
 20
321.82501096060236
 40
0.1
 50
0
 51
90
  0
LINE
  8
_0-0_
  6
CONTINUOUS
 62
    7
 10
248.77878338137117
 20
319.72501096060233
 11
248.77878338137117
 21
321.82501096060236
  0
ARC
  8
_0-0_
  6
CONTINUOUS
 62
    7
 10
248.87878338137116
 20
319.72501096060233
 40
0.1
 50
180
 51
270
  0
LINE
  8
_0-0_
  6
CONTINUOUS
 62
    7
 10
250.17878338137118
 20
319.62501096060237
 11
248.87878338137116
 21
319.62501096060237
  0
LINE
  8
_0-0_
  6
CONTINUOUS
 62
    7
 10
250.27878338137117
 20
319.72501096060233
 11
250.27878338137117
 21
321.82501096060236
  0
ARC
  8
_0-0_
  6
CONTINUOUS
 62
    7
 10
250.17878338137118
 20
319.72501096060233
 40
0.1
 50
270
 51
0
  0
ARC
  8
_0-0_
  6
CONTINUOUS
 62
    7
 10
220.3039833813713
 20
302.77501096060229
 40
0.1
 50
90
 51
180
  0
LINE
  8
_0-0_
  6
CONTINUOUS
 62
    7
 10
221.60398338137131
 20
302.87501096060225
 11
220.3039833813713
 21
302.87501096060225
  0
ARC
  8
_0-0_
  6
CONTINUOUS
 62
    7
 10
221.60398338137131
 20
302.77501096060229
 40
0.1
 50
0
 51
90
  0
LINE
  8
_0-0_
  6
CONTINUOUS
 62
    7
 10
220.2039833813713
 20
300.67501096060226
 11
220.2039833813713
 21
302.77501096060229
  0
ARC
  8
_0-0_
  6
CONTINUOUS
 62
    7
 10
220.3039833813713
 20
300.67501096060226
 40
0.1
 50
180
 51
270
  0
LINE
  8
_0-0_
  6
CONTINUOUS
 62
    7
 10
221.60398338137131
 20
300.5750109606023
 11
220.3039833813713
 21
300.5750109606023
  0
LINE
  8
_0-0_
  6
CONTINUOUS
 62
    7
 10
221.7039833813713
 20
300.67501096060226
 11
221.7039833813713
 21
302.77501096060229
  0
ARC
  8
_0-0_
  6
CONTINUOUS
 62
    7
 10
221.60398338137131
 20
300.67501096060226
 40
0.1
 50
270
 51
0
  0
ARC
  8
_0-0_
  6
CONTINUOUS
 62
    7
 10
239.35398338137125
 20
302.77501096060229
 40
0.1
 50
90
 51
180
  0
LINE
  8
_0-0_
  6
CONTINUOUS
 62
    7
 10
240.65398338137126
 20
302.87501096060225
 11
239.35398338137125
 21
302.87501096060225
  0
ARC
  8
_0-0_
  6
CONTINUOUS
 62
    7
 10
240.65398338137126
 20
302.77501096060229
 40
0.1
 50
0
 51
90
  0
LINE
  8
_0-0_
  6
CONTINUOUS
 62
    7
 10
239.25398338137126
 20
300.67501096060226
 11
239.25398338137126
 21
302.77501096060229
  0
ARC
  8
_0-0_
  6
CONTINUOUS
 62
    7
 10
239.35398338137125
 20
300.67501096060226
 40
0.1
 50
180
 51
270
  0
LINE
  8
_0-0_
  6
CONTINUOUS
 62
    7
 10
240.65398338137126
 20
300.5750109606023
 11
239.35398338137125
 21
300.5750109606023
  0
LINE
  8
_0-0_
  6
CONTINUOUS
 62
    7
 10
240.75398338137126
 20
300.67501096060226
 11
240.75398338137126
 21
302.77501096060229
  0
ARC
  8
_0-0_
  6
CONTINUOUS
 62
    7
 10
240.65398338137126
 20
300.67501096060226
 40
0.1
 50
270
 51
0
  0
ARC
  8
_0-0_
  6
CONTINUOUS
 62
    7
 10
258.40398338137129
 20
302.77501096060229
 40
0.1
 50
90
 51
180
  0
LINE
  8
_0-0_
  6
CONTINUOUS
 62
    7
 10
259.70398338137136
 20
302.87501096060225
 11
258.40398338137129
 21
302.87501096060225
  0
ARC
  8
_0-0_
  6
CONTINUOUS
 62
    7
 10
259.70398338137136
 20
302.77501096060229
 40
0.1
 50
0
 51
90
  0
LINE
  8
_0-0_
  6
CONTINUOUS
 62
    7
 10
258.30398338137132
 20
300.67501096060226
 11
258.30398338137132
 21
302.77501096060229
  0
ARC
  8
_0-0_
  6
CONTINUOUS
 62
    7
 10
258.40398338137129
 20
300.67501096060226
 40
0.1
 50
180
 51
270
  0
LINE
  8
_0-0_
  6
CONTINUOUS
 62
    7
 10
259.70398338137136
 20
300.5750109606023
 11
258.40398338137129
 21
300.5750109606023
  0
LINE
  8
_0-0_
  6
CONTINUOUS
 62
    7
 10
259.80398338137132
 20
300.67501096060226
 11
259.80398338137132
 21
302.77501096060229
  0
ARC
  8
_0-0_
  6
CONTINUOUS
 62
    7
 10
259.70398338137136
 20
300.67501096060226
 40
0.1
 50
270
 51
0
  0
ARC
  8
_0-0_
  6
CONTINUOUS
 62
    7
 10
277.45378338137118
 20
302.77501096060229
 40
0.1
 50
90
 51
180
  0
LINE
  8
_0-0_
  6
CONTINUOUS
 62
    7
 10
278.75378338137125
 20
302.87501096060225
 11
277.45378338137118
 21
302.87501096060225
  0
ARC
  8
_0-0_
  6
CONTINUOUS
 62
    7
 10
278.75378338137125
 20
302.77501096060229
 40
0.1
 50
0
 51
90
  0
LINE
  8
_0-0_
  6
CONTINUOUS
 62
    7
 10
277.35378338137122
 20
300.67501096060226
 11
277.35378338137122
 21
302.77501096060229
  0
ARC
  8
_0-0_
  6
CONTINUOUS
 62
    7
 10
277.45378338137118
 20
300.67501096060226
 40
0.1
 50
180
 51
270
  0
LINE
  8
_0-0_
  6
CONTINUOUS
 62
    7
 10
278.75378338137125
 20
300.5750109606023
 11
277.45378338137118
 21
300.5750109606023
  0
LINE
  8
_0-0_
  6
CONTINUOUS
 62
    7
 10
278.85378338137122
 20
300.67501096060226
 11
278.85378338137122
 21
302.77501096060229
  0
ARC
  8
_0-0_
  6
CONTINUOUS
 62
    7
 10
278.75378338137125
 20
300.67501096060226
 40
0.1
 50
270
 51
0
  0
ARC
  8
_0-0_
  6
CONTINUOUS
 62
    7
 10
225.06648338137123
 20
283.72501096060228
 40
0.1
 50
90
 51
180
  0
LINE
  8
_0-0_
  6
CONTINUOUS
 62
    7
 10
226.36648338137124
 20
283.82501096060224
 11
225.06648338137123
 21
283.82501096060224
  0
ARC
  8
_0-0_
  6
CONTINUOUS
 62
    7
 10
226.36648338137124
 20
283.72501096060228
 40
0.1
 50
0
 51
90
  0
LINE
  8
_0-0_
  6
CONTINUOUS
 62
    7
 10
224.96648338137123
 20
281.62501096060225
 11
224.96648338137123
 21
283.72501096060228
  0
ARC
  8
_0-0_
  6
CONTINUOUS
 62
    7
 10
225.06648338137123
 20
281.62501096060225
 40
0.1
 50
180
 51
270
  0
LINE
  8
_0-0_
  6
CONTINUOUS
 62
    7
 10
226.36648338137124
 20
281.52501096060229
 11
225.06648338137123
 21
281.52501096060229
  0
LINE
  8
_0-0_
  6
CONTINUOUS
 62
    7
 10
226.46648338137123
 20
281.62501096060225
 11
226.46648338137123
 21
283.72501096060228
  0
ARC
  8
_0-0_
  6
CONTINUOUS
 62
    7
 10
226.36648338137124
 20
281.62501096060225
 40
0.1
 50
270
 51
0
  0
ARC
  8
_0-0_
  6
CONTINUOUS
 62
    7
 10
244.11648338137118
 20
283.72501096060228
 40
0.1
 50
90
 51
180
  0
LINE
  8
_0-0_
  6
CONTINUOUS
 62
    7
 10
245.41648338137119
 20
283.82501096060224
 11
244.11648338137118
 21
283.82501096060224
  0
ARC
  8
_0-0_
  6
CONTINUOUS
 62
    7
 10
245.41648338137119
 20
283.72501096060228
 40
0.1
 50
0
 51
90
  0
LINE
  8
_0-0_
  6
CONTINUOUS
 62
    7
 10
244.01648338137119
 20
281.62501096060225
 11
244.01648338137119
 21
283.72501096060228
  0
ARC
  8
_0-0_
  6
CONTINUOUS
 62
    7
 10
244.11648338137118
 20
281.62501096060225
 40
0.1
 50
180
 51
270
  0
LINE
  8
_0-0_
  6
CONTINUOUS
 62
    7
 10
245.41648338137119
 20
281.52501096060229
 11
244.11648338137118
 21
281.52501096060229
  0
LINE
  8
_0-0_
  6
CONTINUOUS
 62
    7
 10
245.51648338137119
 20
281.62501096060225
 11
245.51648338137119
 21
283.72501096060228
  0
ARC
  8
_0-0_
  6
CONTINUOUS
 62
    7
 10
245.41648338137119
 20
281.62501096060225
 40
0.1
 50
270
 51
0
  0
ARC
  8
_0-0_
  6
CONTINUOUS
 62
    7
 10
263.16648338137122
 20
283.72501096060228
 40
0.1
 50
90
 51
180
  0
LINE
  8
_0-0_
  6
CONTINUOUS
 62
    7
 10
264.46648338137129
 20
283.82501096060224
 11
263.16648338137122
 21
283.82501096060224
  0
ARC
  8
_0-0_
  6
CONTINUOUS
 62
    7
 10
264.46648338137129
 20
283.72501096060228
 40
0.1
 50
0
 51
90
  0
LINE
  8
_0-0_
  6
CONTINUOUS
 62
    7
 10
263.06648338137126
 20
281.62501096060225
 11
263.06648338137126
 21
283.72501096060228
  0
ARC
  8
_0-0_
  6
CONTINUOUS
 62
    7
 10
263.16648338137122
 20
281.62501096060225
 40
0.1
 50
180
 51
270
  0
LINE
  8
_0-0_
  6
CONTINUOUS
 62
    7
 10
264.46648338137129
 20
281.52501096060229
 11
263.16648338137122
 21
281.52501096060229
  0
LINE
  8
_0-0_
  6
CONTINUOUS
 62
    7
 10
264.56648338137126
 20
281.62501096060225
 11
264.56648338137126
 21
283.72501096060228
  0
ARC
  8
_0-0_
  6
CONTINUOUS
 62
    7
 10
264.46648338137129
 20
281.62501096060225
 40
0.1
 50
270
 51
0
  0
ARC
  8
_0-0_
  6
CONTINUOUS
 62
    7
 10
282.21628338137111
 20
283.72501096060228
 40
0.1
 50
90
 51
180
  0
LINE
  8
_0-0_
  6
CONTINUOUS
 62
    7
 10
283.51628338137118
 20
283.82501096060224
 11
282.21628338137111
 21
283.82501096060224
  0
ARC
  8
_0-0_
  6
CONTINUOUS
 62
    7
 10
283.51628338137118
 20
283.72501096060228
 40
0.1
 50
0
 51
90
  0
LINE
  8
_0-0_
  6
CONTINUOUS
 62
    7
 10
282.11628338137115
 20
281.62501096060225
 11
282.11628338137115
 21
283.72501096060228
  0
ARC
  8
_0-0_
  6
CONTINUOUS
 62
    7
 10
282.21628338137111
 20
281.62501096060225
 40
0.1
 50
180
 51
270
  0
LINE
  8
_0-0_
  6
CONTINUOUS
 62
    7
 10
283.51628338137118
 20
281.52501096060229
 11
282.21628338137111
 21
281.52501096060229
  0
LINE
  8
_0-0_
  6
CONTINUOUS
 62
    7
 10
283.61628338137115
 20
281.62501096060225
 11
283.61628338137115
 21
283.72501096060228
  0
ARC
  8
_0-0_
  6
CONTINUOUS
 62
    7
 10
283.51628338137118
 20
281.62501096060225
 40
0.1
 50
270
 51
0
  0
ARC
  8
_0-0_
  6
CONTINUOUS
 62
    7
 10
234.59148338137132
 20
264.67501096060232
 40
0.1
 50
90
 51
180
  0
LINE
  8
_0-0_
  6
CONTINUOUS
 62
    7
 10
235.89148338137133
 20
264.77501096060229
 11
234.59148338137132
 21
264.77501096060229
  0
ARC
  8
_0-0_
  6
CONTINUOUS
 62
    7
 10
235.89148338137133
 20
264.67501096060232
 40
0.1
 50
0
 51
90
  0
LINE
  8
_0-0_
  6
CONTINUOUS
 62
    7
 10
234.49148338137132
 20
262.5750109606023
 11
234.49148338137132
 21
264.67501096060232
  0
ARC
  8
_0-0_
  6
CONTINUOUS
 62
    7
 10
234.59148338137132
 20
262.5750109606023
 40
0.1
 50
180
 51
270
  0
LINE
  8
_0-0_
  6
CONTINUOUS
 62
    7
 10
235.89148338137133
 20
262.47501096060233
 11
234.59148338137132
 21
262.47501096060233
  0
LINE
  8
_0-0_
  6
CONTINUOUS
 62
    7
 10
235.99148338137132
 20
262.5750109606023
 11
235.99148338137132
 21
264.67501096060232
  0
ARC
  8
_0-0_
  6
CONTINUOUS
 62
    7
 10
235.89148338137133
 20
262.5750109606023
 40
0.1
 50
270
 51
0
  0
ARC
  8
_0-0_
  6
CONTINUOUS
 62
    7
 10
253.64148338137127
 20
264.67501096060232
 40
0.1
 50
90
 51
180
  0
LINE
  8
_0-0_
  6
CONTINUOUS
 62
    7
 10
254.94148338137128
 20
264.77501096060229
 11
253.64148338137127
 21
264.77501096060229
  0
ARC
  8
_0-0_
  6
CONTINUOUS
 62
    7
 10
254.94148338137128
 20
264.67501096060232
 40
0.1
 50
0
 51
90
  0
LINE
  8
_0-0_
  6
CONTINUOUS
 62
    7
 10
253.54148338137128
 20
262.5750109606023
 11
253.54148338137128
 21
264.67501096060232
  0
ARC
  8
_0-0_
  6
CONTINUOUS
 62
    7
 10
253.64148338137127
 20
262.5750109606023
 40
0.1
 50
180
 51
270
  0
LINE
  8
_0-0_
  6
CONTINUOUS
 62
    7
 10
254.94148338137128
 20
262.47501096060233
 11
253.64148338137127
 21
262.47501096060233
  0
LINE
  8
_0-0_
  6
CONTINUOUS
 62
    7
 10
255.04148338137128
 20
262.5750109606023
 11
255.04148338137128
 21
264.67501096060232
  0
ARC
  8
_0-0_
  6
CONTINUOUS
 62
    7
 10
254.94148338137128
 20
262.5750109606023
 40
0.1
 50
270
 51
0
  0
ARC
  8
_0-0_
  6
CONTINUOUS
 62
    7
 10
272.69148338137131
 20
264.67501096060232
 40
0.1
 50
90
 51
180
  0
LINE
  8
_0-0_
  6
CONTINUOUS
 62
    7
 10
273.99148338137138
 20
264.77501096060229
 11
272.69148338137131
 21
264.77501096060229
  0
ARC
  8
_0-0_
  6
CONTINUOUS
 62
    7
 10
273.99148338137138
 20
264.67501096060232
 40
0.1
 50
0
 51
90
  0
LINE
  8
_0-0_
  6
CONTINUOUS
 62
    7
 10
272.59148338137135
 20
262.5750109606023
 11
272.59148338137135
 21
264.67501096060232
  0
ARC
  8
_0-0_
  6
CONTINUOUS
 62
    7
 10
272.69148338137131
 20
262.5750109606023
 40
0.1
 50
180
 51
270
  0
LINE
  8
_0-0_
  6
CONTINUOUS
 62
    7
 10
273.99148338137138
 20
262.47501096060233
 11
272.69148338137131
 21
262.47501096060233
  0
LINE
  8
_0-0_
  6
CONTINUOUS
 62
    7
 10
274.09148338137135
 20
262.5750109606023
 11
274.09148338137135
 21
264.67501096060232
  0
ARC
  8
_0-0_
  6
CONTINUOUS
 62
    7
 10
273.99148338137138
 20
262.5750109606023
 40
0.1
 50
270
 51
0
  0
ARC
  8
_0-0_
  6
CONTINUOUS
 62
    7
 10
291.7412833813712
 20
264.67501096060232
 40
0.1
 50
90
 51
180
  0
LINE
  8
_0-0_
  6
CONTINUOUS
 62
    7
 10
293.04128338137127
 20
264.77501096060229
 11
291.7412833813712
 21
264.77501096060229
  0
ARC
  8
_0-0_
  6
CONTINUOUS
 62
    7
 10
293.04128338137127
 20
264.67501096060232
 40
0.1
 50
0
 51
90
  0
LINE
  8
_0-0_
  6
CONTINUOUS
 62
    7
 10
291.64128338137124
 20
262.5750109606023
 11
291.64128338137124
 21
264.67501096060232
  0
ARC
  8
_0-0_
  6
CONTINUOUS
 62
    7
 10
291.7412833813712
 20
262.5750109606023
 40
0.1
 50
180
 51
270
  0
LINE
  8
_0-0_
  6
CONTINUOUS
 62
    7
 10
293.04128338137127
 20
262.47501096060233
 11
291.7412833813712
 21
262.47501096060233
  0
LINE
  8
_0-0_
  6
CONTINUOUS
 62
    7
 10
293.14128338137124
 20
262.5750109606023
 11
293.14128338137124
 21
264.67501096060232
  0
ARC
  8
_0-0_
  6
CONTINUOUS
 62
    7
 10
293.04128338137127
 20
262.5750109606023
 40
0.1
 50
270
 51
0
  0
ARC
  8
_0-0_
  6
CONTINUOUS
 62
    7
 10
379.46655793512127
 20
245.64961739060226
 40
0.1
 50
90
 51
180
  0
LINE
  8
_0-0_
  6
CONTINUOUS
 62
    7
 10
380.76655793512123
 20
245.74961739060225
 11
379.46655793512127
 21
245.74961739060225
  0
ARC
  8
_0-0_
  6
CONTINUOUS
 62
    7
 10
380.76655793512123
 20
245.64961739060226
 40
0.1
 50
0
 51
90
  0
LINE
  8
_0-0_
  6
CONTINUOUS
 62
    7
 10
379.36655793512125
 20
243.54961739060224
 11
379.36655793512125
 21
245.64961739060226
  0
ARC
  8
_0-0_
  6
CONTINUOUS
 62
    7
 10
379.46655793512127
 20
243.54961739060224
 40
0.1
 50
180
 51
270
  0
LINE
  8
_0-0_
  6
CONTINUOUS
 62
    7
 10
380.76655793512123
 20
243.44961739060224
 11
379.46655793512127
 21
243.44961739060224
  0
LINE
  8
_0-0_
  6
CONTINUOUS
 62
    7
 10
380.86655793512125
 20
243.54961739060224
 11
380.86655793512125
 21
245.64961739060226
  0
ARC
  8
_0-0_
  6
CONTINUOUS
 62
    7
 10
380.76655793512123
 20
243.54961739060224
 40
0.1
 50
270
 51
0
  0
ARC
  8
_0-0_
  6
CONTINUOUS
 62
    7
 10
398.51655793512123
 20
245.64961739060226
 40
0.1
 50
90
 51
180
  0
LINE
  8
_0-0_
  6
CONTINUOUS
 62
    7
 10
399.81655793512118
 20
245.74961739060225
 11
398.51655793512123
 21
245.74961739060225
  0
ARC
  8
_0-0_
  6
CONTINUOUS
 62
    7
 10
399.81655793512118
 20
245.64961739060226
 40
0.1
 50
0
 51
90
  0
LINE
  8
_0-0_
  6
CONTINUOUS
 62
    7
 10
398.4165579351212
 20
243.54961739060224
 11
398.4165579351212
 21
245.64961739060226
  0
ARC
  8
_0-0_
  6
CONTINUOUS
 62
    7
 10
398.51655793512123
 20
243.54961739060224
 40
0.1
 50
180
 51
270
  0
LINE
  8
_0-0_
  6
CONTINUOUS
 62
    7
 10
399.81655793512118
 20
243.44961739060224
 11
398.51655793512123
 21
243.44961739060224
  0
LINE
  8
_0-0_
  6
CONTINUOUS
 62
    7
 10
399.9165579351212
 20
243.54961739060224
 11
399.9165579351212
 21
245.64961739060226
  0
ARC
  8
_0-0_
  6
CONTINUOUS
 62
    7
 10
399.81655793512118
 20
243.54961739060224
 40
0.1
 50
270
 51
0
  0
ARC
  8
_0-0_
  6
CONTINUOUS
 62
    7
 10
417.5665579351213
 20
245.64961739060226
 40
0.1
 50
90
 51
180
  0
LINE
  8
_0-0_
  6
CONTINUOUS
 62
    7
 10
418.86655793512125
 20
245.74961739060225
 11
417.5665579351213
 21
245.74961739060225
  0
ARC
  8
_0-0_
  6
CONTINUOUS
 62
    7
 10
418.86655793512125
 20
245.64961739060226
 40
0.1
 50
0
 51
90
  0
LINE
  8
_0-0_
  6
CONTINUOUS
 62
    7
 10
417.46655793512127
 20
243.54961739060224
 11
417.46655793512127
 21
245.64961739060226
  0
ARC
  8
_0-0_
  6
CONTINUOUS
 62
    7
 10
417.5665579351213
 20
243.54961739060224
 40
0.1
 50
180
 51
270
  0
LINE
  8
_0-0_
  6
CONTINUOUS
 62
    7
 10
418.86655793512125
 20
243.44961739060224
 11
417.5665579351213
 21
243.44961739060224
  0
LINE
  8
_0-0_
  6
CONTINUOUS
 62
    7
 10
418.96655793512127
 20
243.54961739060224
 11
418.96655793512127
 21
245.64961739060226
  0
ARC
  8
_0-0_
  6
CONTINUOUS
 62
    7
 10
418.86655793512125
 20
243.54961739060224
 40
0.1
 50
270
 51
0
  0
ARC
  8
_0-0_
  6
CONTINUOUS
 62
    7
 10
436.61635793512119
 20
245.64961739060226
 40
0.1
 50
90
 51
180
  0
LINE
  8
_0-0_
  6
CONTINUOUS
 62
    7
 10
437.91635793512114
 20
245.74961739060225
 11
436.61635793512119
 21
245.74961739060225
  0
ARC
  8
_0-0_
  6
CONTINUOUS
 62
    7
 10
437.91635793512114
 20
245.64961739060226
 40
0.1
 50
0
 51
90
  0
LINE
  8
_0-0_
  6
CONTINUOUS
 62
    7
 10
436.51635793512116
 20
243.54961739060224
 11
436.51635793512116
 21
245.64961739060226
  0
ARC
  8
_0-0_
  6
CONTINUOUS
 62
    7
 10
436.61635793512119
 20
243.54961739060224
 40
0.1
 50
180
 51
270
  0
LINE
  8
_0-0_
  6
CONTINUOUS
 62
    7
 10
437.91635793512114
 20
243.44961739060224
 11
436.61635793512119
 21
243.44961739060224
  0
LINE
  8
_0-0_
  6
CONTINUOUS
 62
    7
 10
438.01635793512116
 20
243.54961739060224
 11
438.01635793512116
 21
245.64961739060226
  0
ARC
  8
_0-0_
  6
CONTINUOUS
 62
    7
 10
437.91635793512114
 20
243.54961739060224
 40
0.1
 50
270
 51
0
  0
ARC
  8
_0-0_
  6
CONTINUOUS
 62
    7
 10
350.89155793512123
 20
264.69951739060235
 40
0.1
 50
90
 51
180
  0
LINE
  8
_0-0_
  6
CONTINUOUS
 62
    7
 10
352.1915579351213
 20
264.79951739060232
 11
350.89155793512123
 21
264.79951739060232
  0
ARC
  8
_0-0_
  6
CONTINUOUS
 62
    7
 10
352.1915579351213
 20
264.69951739060235
 40
0.1
 50
0
 51
90
  0
LINE
  8
_0-0_
  6
CONTINUOUS
 62
    7
 10
350.79155793512126
 20
262.59951739060233
 11
350.79155793512126
 21
264.69951739060235
  0
ARC
  8
_0-0_
  6
CONTINUOUS
 62
    7
 10
350.89155793512123
 20
262.59951739060233
 40
0.1
 50
180
 51
270
  0
LINE
  8
_0-0_
  6
CONTINUOUS
 62
    7
 10
352.1915579351213
 20
262.49951739060236
 11
350.89155793512123
 21
262.49951739060236
  0
LINE
  8
_0-0_
  6
CONTINUOUS
 62
    7
 10
352.29155793512126
 20
262.59951739060233
 11
352.29155793512126
 21
264.69951739060235
  0
ARC
  8
_0-0_
  6
CONTINUOUS
 62
    7
 10
352.1915579351213
 20
262.59951739060233
 40
0.1
 50
270
 51
0
  0
ARC
  8
_0-0_
  6
CONTINUOUS
 62
    7
 10
369.94155793512118
 20
264.69951739060235
 40
0.1
 50
90
 51
180
  0
LINE
  8
_0-0_
  6
CONTINUOUS
 62
    7
 10
371.24155793512125
 20
264.79951739060232
 11
369.94155793512118
 21
264.79951739060232
  0
ARC
  8
_0-0_
  6
CONTINUOUS
 62
    7
 10
371.24155793512125
 20
264.69951739060235
 40
0.1
 50
0
 51
90
  0
LINE
  8
_0-0_
  6
CONTINUOUS
 62
    7
 10
369.84155793512122
 20
262.59951739060233
 11
369.84155793512122
 21
264.69951739060235
  0
ARC
  8
_0-0_
  6
CONTINUOUS
 62
    7
 10
369.94155793512118
 20
262.59951739060233
 40
0.1
 50
180
 51
270
  0
LINE
  8
_0-0_
  6
CONTINUOUS
 62
    7
 10
371.24155793512125
 20
262.49951739060236
 11
369.94155793512118
 21
262.49951739060236
  0
LINE
  8
_0-0_
  6
CONTINUOUS
 62
    7
 10
371.34155793512122
 20
262.59951739060233
 11
371.34155793512122
 21
264.69951739060235
  0
ARC
  8
_0-0_
  6
CONTINUOUS
 62
    7
 10
371.24155793512125
 20
262.59951739060233
 40
0.1
 50
270
 51
0
  0
ARC
  8
_0-0_
  6
CONTINUOUS
 62
    7
 10
388.99155793512125
 20
264.69951739060235
 40
0.1
 50
90
 51
180
  0
LINE
  8
_0-0_
  6
CONTINUOUS
 62
    7
 10
390.29155793512132
 20
264.79951739060232
 11
388.99155793512125
 21
264.79951739060232
  0
ARC
  8
_0-0_
  6
CONTINUOUS
 62
    7
 10
390.29155793512132
 20
264.69951739060235
 40
0.1
 50
0
 51
90
  0
LINE
  8
_0-0_
  6
CONTINUOUS
 62
    7
 10
388.89155793512128
 20
262.59951739060233
 11
388.89155793512128
 21
264.69951739060235
  0
ARC
  8
_0-0_
  6
CONTINUOUS
 62
    7
 10
388.99155793512125
 20
262.59951739060233
 40
0.1
 50
180
 51
270
  0
LINE
  8
_0-0_
  6
CONTINUOUS
 62
    7
 10
390.29155793512132
 20
262.49951739060236
 11
388.99155793512125
 21
262.49951739060236
  0
LINE
  8
_0-0_
  6
CONTINUOUS
 62
    7
 10
390.39155793512128
 20
262.59951739060233
 11
390.39155793512128
 21
264.69951739060235
  0
ARC
  8
_0-0_
  6
CONTINUOUS
 62
    7
 10
390.29155793512132
 20
262.59951739060233
 40
0.1
 50
270
 51
0
  0
ARC
  8
_0-0_
  6
CONTINUOUS
 62
    7
 10
408.04135793512114
 20
264.69951739060235
 40
0.1
 50
90
 51
180
  0
LINE
  8
_0-0_
  6
CONTINUOUS
 62
    7
 10
409.34135793512121
 20
264.79951739060232
 11
408.04135793512114
 21
264.79951739060232
  0
ARC
  8
_0-0_
  6
CONTINUOUS
 62
    7
 10
409.34135793512121
 20
264.69951739060235
 40
0.1
 50
0
 51
90
  0
LINE
  8
_0-0_
  6
CONTINUOUS
 62
    7
 10
407.94135793512118
 20
262.59951739060233
 11
407.94135793512118
 21
264.69951739060235
  0
ARC
  8
_0-0_
  6
CONTINUOUS
 62
    7
 10
408.04135793512114
 20
262.59951739060233
 40
0.1
 50
180
 51
270
  0
LINE
  8
_0-0_
  6
CONTINUOUS
 62
    7
 10
409.34135793512121
 20
262.49951739060236
 11
408.04135793512114
 21
262.49951739060236
  0
LINE
  8
_0-0_
  6
CONTINUOUS
 62
    7
 10
409.44135793512118
 20
262.59951739060233
 11
409.44135793512118
 21
264.69951739060235
  0
ARC
  8
_0-0_
  6
CONTINUOUS
 62
    7
 10
409.34135793512121
 20
262.59951739060233
 40
0.1
 50
270
 51
0
  0
ARC
  8
_0-0_
  6
CONTINUOUS
 62
    7
 10
341.36651793512124
 20
283.74951739060231
 40
0.1
 50
90
 51
180
  0
LINE
  8
_0-0_
  6
CONTINUOUS
 62
    7
 10
342.66651793512131
 20
283.84951739060227
 11
341.36651793512124
 21
283.84951739060227
  0
ARC
  8
_0-0_
  6
CONTINUOUS
 62
    7
 10
342.66651793512131
 20
283.74951739060231
 40
0.1
 50
0
 51
90
  0
LINE
  8
_0-0_
  6
CONTINUOUS
 62
    7
 10
341.26651793512127
 20
281.64951739060228
 11
341.26651793512127
 21
283.74951739060231
  0
ARC
  8
_0-0_
  6
CONTINUOUS
 62
    7
 10
341.36651793512124
 20
281.64951739060228
 40
0.1
 50
180
 51
270
  0
LINE
  8
_0-0_
  6
CONTINUOUS
 62
    7
 10
342.66651793512131
 20
281.54951739060232
 11
341.36651793512124
 21
281.54951739060232
  0
LINE
  8
_0-0_
  6
CONTINUOUS
 62
    7
 10
342.76651793512127
 20
281.64951739060228
 11
342.76651793512127
 21
283.74951739060231
  0
ARC
  8
_0-0_
  6
CONTINUOUS
 62
    7
 10
342.66651793512131
 20
281.64951739060228
 40
0.1
 50
270
 51
0
  0
ARC
  8
_0-0_
  6
CONTINUOUS
 62
    7
 10
360.41651793512119
 20
283.74951739060231
 40
0.1
 50
90
 51
180
  0
LINE
  8
_0-0_
  6
CONTINUOUS
 62
    7
 10
361.71651793512126
 20
283.84951739060227
 11
360.41651793512119
 21
283.84951739060227
  0
ARC
  8
_0-0_
  6
CONTINUOUS
 62
    7
 10
361.71651793512126
 20
283.74951739060231
 40
0.1
 50
0
 51
90
  0
LINE
  8
_0-0_
  6
CONTINUOUS
 62
    7
 10
360.31651793512123
 20
281.64951739060228
 11
360.31651793512123
 21
283.74951739060231
  0
ARC
  8
_0-0_
  6
CONTINUOUS
 62
    7
 10
360.41651793512119
 20
281.64951739060228
 40
0.1
 50
180
 51
270
  0
LINE
  8
_0-0_
  6
CONTINUOUS
 62
    7
 10
361.71651793512126
 20
281.54951739060232
 11
360.41651793512119
 21
281.54951739060232
  0
LINE
  8
_0-0_
  6
CONTINUOUS
 62
    7
 10
361.81651793512123
 20
281.64951739060228
 11
361.81651793512123
 21
283.74951739060231
  0
ARC
  8
_0-0_
  6
CONTINUOUS
 62
    7
 10
361.71651793512126
 20
281.64951739060228
 40
0.1
 50
270
 51
0
  0
ARC
  8
_0-0_
  6
CONTINUOUS
 62
    7
 10
379.46651793512126
 20
283.74951739060231
 40
0.1
 50
90
 51
180
  0
LINE
  8
_0-0_
  6
CONTINUOUS
 62
    7
 10
380.76651793512133
 20
283.84951739060227
 11
379.46651793512126
 21
283.84951739060227
  0
ARC
  8
_0-0_
  6
CONTINUOUS
 62
    7
 10
380.76651793512133
 20
283.74951739060231
 40
0.1
 50
0
 51
90
  0
LINE
  8
_0-0_
  6
CONTINUOUS
 62
    7
 10
379.36651793512129
 20
281.64951739060228
 11
379.36651793512129
 21
283.74951739060231
  0
ARC
  8
_0-0_
  6
CONTINUOUS
 62
    7
 10
379.46651793512126
 20
281.64951739060228
 40
0.1
 50
180
 51
270
  0
LINE
  8
_0-0_
  6
CONTINUOUS
 62
    7
 10
380.76651793512133
 20
281.54951739060232
 11
379.46651793512126
 21
281.54951739060232
  0
LINE
  8
_0-0_
  6
CONTINUOUS
 62
    7
 10
380.86651793512129
 20
281.64951739060228
 11
380.86651793512129
 21
283.74951739060231
  0
ARC
  8
_0-0_
  6
CONTINUOUS
 62
    7
 10
380.76651793512133
 20
281.64951739060228
 40
0.1
 50
270
 51
0
  0
ARC
  8
_0-0_
  6
CONTINUOUS
 62
    7
 10
398.51631793512115
 20
283.74951739060231
 40
0.1
 50
90
 51
180
  0
LINE
  8
_0-0_
  6
CONTINUOUS
 62
    7
 10
399.81631793512122
 20
283.84951739060227
 11
398.51631793512115
 21
283.84951739060227
  0
ARC
  8
_0-0_
  6
CONTINUOUS
 62
    7
 10
399.81631793512122
 20
283.74951739060231
 40
0.1
 50
0
 51
90
  0
LINE
  8
_0-0_
  6
CONTINUOUS
 62
    7
 10
398.41631793512119
 20
281.64951739060228
 11
398.41631793512119
 21
283.74951739060231
  0
ARC
  8
_0-0_
  6
CONTINUOUS
 62
    7
 10
398.51631793512115
 20
281.64951739060228
 40
0.1
 50
180
 51
270
  0
LINE
  8
_0-0_
  6
CONTINUOUS
 62
    7
 10
399.81631793512122
 20
281.54951739060232
 11
398.51631793512115
 21
281.54951739060232
  0
LINE
  8
_0-0_
  6
CONTINUOUS
 62
    7
 10
399.91631793512119
 20
281.64951739060228
 11
399.91631793512119
 21
283.74951739060231
  0
ARC
  8
_0-0_
  6
CONTINUOUS
 62
    7
 10
399.81631793512122
 20
281.64951739060228
 40
0.1
 50
270
 51
0
  0
ARC
  8
_0-0_
  6
CONTINUOUS
 62
    7
 10
336.60400793512122
 20
302.79951739060226
 40
0.1
 50
90
 51
180
  0
LINE
  8
_0-0_
  6
CONTINUOUS
 62
    7
 10
337.90400793512129
 20
302.89951739060223
 11
336.60400793512122
 21
302.89951739060223
  0
ARC
  8
_0-0_
  6
CONTINUOUS
 62
    7
 10
337.90400793512129
 20
302.79951739060226
 40
0.1
 50
0
 51
90
  0
LINE
  8
_0-0_
  6
CONTINUOUS
 62
    7
 10
336.50400793512125
 20
300.69951739060224
 11
336.50400793512125
 21
302.79951739060226
  0
ARC
  8
_0-0_
  6
CONTINUOUS
 62
    7
 10
336.60400793512122
 20
300.69951739060224
 40
0.1
 50
180
 51
270
  0
LINE
  8
_0-0_
  6
CONTINUOUS
 62
    7
 10
337.90400793512129
 20
300.59951739060227
 11
336.60400793512122
 21
300.59951739060227
  0
LINE
  8
_0-0_
  6
CONTINUOUS
 62
    7
 10
338.00400793512125
 20
300.69951739060224
 11
338.00400793512125
 21
302.79951739060226
  0
ARC
  8
_0-0_
  6
CONTINUOUS
 62
    7
 10
337.90400793512129
 20
300.69951739060224
 40
0.1
 50
270
 51
0
  0
ARC
  8
_0-0_
  6
CONTINUOUS
 62
    7
 10
355.65400793512117
 20
302.79951739060226
 40
0.1
 50
90
 51
180
  0
LINE
  8
_0-0_
  6
CONTINUOUS
 62
    7
 10
356.95400793512124
 20
302.89951739060223
 11
355.65400793512117
 21
302.89951739060223
  0
ARC
  8
_0-0_
  6
CONTINUOUS
 62
    7
 10
356.95400793512124
 20
302.79951739060226
 40
0.1
 50
0
 51
90
  0
LINE
  8
_0-0_
  6
CONTINUOUS
 62
    7
 10
355.55400793512121
 20
300.69951739060224
 11
355.55400793512121
 21
302.79951739060226
  0
ARC
  8
_0-0_
  6
CONTINUOUS
 62
    7
 10
355.65400793512117
 20
300.69951739060224
 40
0.1
 50
180
 51
270
  0
LINE
  8
_0-0_
  6
CONTINUOUS
 62
    7
 10
356.95400793512124
 20
300.59951739060227
 11
355.65400793512117
 21
300.59951739060227
  0
LINE
  8
_0-0_
  6
CONTINUOUS
 62
    7
 10
357.05400793512121
 20
300.69951739060224
 11
357.05400793512121
 21
302.79951739060226
  0
ARC
  8
_0-0_
  6
CONTINUOUS
 62
    7
 10
356.95400793512124
 20
300.69951739060224
 40
0.1
 50
270
 51
0
  0
ARC
  8
_0-0_
  6
CONTINUOUS
 62
    7
 10
374.70400793512124
 20
302.79951739060226
 40
0.1
 50
90
 51
180
  0
LINE
  8
_0-0_
  6
CONTINUOUS
 62
    7
 10
376.00400793512131
 20
302.89951739060223
 11
374.70400793512124
 21
302.89951739060223
  0
ARC
  8
_0-0_
  6
CONTINUOUS
 62
    7
 10
376.00400793512131
 20
302.79951739060226
 40
0.1
 50
0
 51
90
  0
LINE
  8
_0-0_
  6
CONTINUOUS
 62
    7
 10
374.60400793512127
 20
300.69951739060224
 11
374.60400793512127
 21
302.79951739060226
  0
ARC
  8
_0-0_
  6
CONTINUOUS
 62
    7
 10
374.70400793512124
 20
300.69951739060224
 40
0.1
 50
180
 51
270
  0
LINE
  8
_0-0_
  6
CONTINUOUS
 62
    7
 10
376.00400793512131
 20
300.59951739060227
 11
374.70400793512124
 21
300.59951739060227
  0
LINE
  8
_0-0_
  6
CONTINUOUS
 62
    7
 10
376.10400793512127
 20
300.69951739060224
 11
376.10400793512127
 21
302.79951739060226
  0
ARC
  8
_0-0_
  6
CONTINUOUS
 62
    7
 10
376.00400793512131
 20
300.69951739060224
 40
0.1
 50
270
 51
0
  0
ARC
  8
_0-0_
  6
CONTINUOUS
 62
    7
 10
393.75380793512113
 20
302.79951739060226
 40
0.1
 50
90
 51
180
  0
LINE
  8
_0-0_
  6
CONTINUOUS
 62
    7
 10
395.0538079351212
 20
302.89951739060223
 11
393.75380793512113
 21
302.89951739060223
  0
ARC
  8
_0-0_
  6
CONTINUOUS
 62
    7
 10
395.0538079351212
 20
302.79951739060226
 40
0.1
 50
0
 51
90
  0
LINE
  8
_0-0_
  6
CONTINUOUS
 62
    7
 10
393.65380793512116
 20
300.69951739060224
 11
393.65380793512116
 21
302.79951739060226
  0
ARC
  8
_0-0_
  6
CONTINUOUS
 62
    7
 10
393.75380793512113
 20
300.69951739060224
 40
0.1
 50
180
 51
270
  0
LINE
  8
_0-0_
  6
CONTINUOUS
 62
    7
 10
395.0538079351212
 20
300.59951739060227
 11
393.75380793512113
 21
300.59951739060227
  0
LINE
  8
_0-0_
  6
CONTINUOUS
 62
    7
 10
395.15380793512116
 20
300.69951739060224
 11
395.15380793512116
 21
302.79951739060226
  0
ARC
  8
_0-0_
  6
CONTINUOUS
 62
    7
 10
395.0538079351212
 20
300.69951739060224
 40
0.1
 50
270
 51
0
  0
ARC
  8
_0-0_
  6
CONTINUOUS
 62
    7
 10
346.1290579351213
 20
321.84951739060233
 40
0.1
 50
90
 51
180
  0
LINE
  8
_0-0_
  6
CONTINUOUS
 62
    7
 10
347.42905793512136
 20
321.9495173906023
 11
346.1290579351213
 21
321.9495173906023
  0
ARC
  8
_0-0_
  6
CONTINUOUS
 62
    7
 10
347.42905793512136
 20
321.84951739060233
 40
0.1
 50
0
 51
90
  0
LINE
  8
_0-0_
  6
CONTINUOUS
 62
    7
 10
346.02905793512133
 20
319.74951739060231
 11
346.02905793512133
 21
321.84951739060233
  0
ARC
  8
_0-0_
  6
CONTINUOUS
 62
    7
 10
346.1290579351213
 20
319.74951739060231
 40
0.1
 50
180
 51
270
  0
LINE
  8
_0-0_
  6
CONTINUOUS
 62
    7
 10
347.42905793512136
 20
319.64951739060234
 11
346.1290579351213
 21
319.64951739060234
  0
LINE
  8
_0-0_
  6
CONTINUOUS
 62
    7
 10
347.52905793512133
 20
319.74951739060231
 11
347.52905793512133
 21
321.84951739060233
  0
ARC
  8
_0-0_
  6
CONTINUOUS
 62
    7
 10
347.42905793512136
 20
319.74951739060231
 40
0.1
 50
270
 51
0
  0
ARC
  8
_0-0_
  6
CONTINUOUS
 62
    7
 10
365.17905793512125
 20
321.84951739060233
 40
0.1
 50
90
 51
180
  0
LINE
  8
_0-0_
  6
CONTINUOUS
 62
    7
 10
366.47905793512132
 20
321.9495173906023
 11
365.17905793512125
 21
321.9495173906023
  0
ARC
  8
_0-0_
  6
CONTINUOUS
 62
    7
 10
366.47905793512132
 20
321.84951739060233
 40
0.1
 50
0
 51
90
  0
LINE
  8
_0-0_
  6
CONTINUOUS
 62
    7
 10
365.07905793512128
 20
319.74951739060231
 11
365.07905793512128
 21
321.84951739060233
  0
ARC
  8
_0-0_
  6
CONTINUOUS
 62
    7
 10
365.17905793512125
 20
319.74951739060231
 40
0.1
 50
180
 51
270
  0
LINE
  8
_0-0_
  6
CONTINUOUS
 62
    7
 10
366.47905793512132
 20
319.64951739060234
 11
365.17905793512125
 21
319.64951739060234
  0
LINE
  8
_0-0_
  6
CONTINUOUS
 62
    7
 10
366.57905793512128
 20
319.74951739060231
 11
366.57905793512128
 21
321.84951739060233
  0
ARC
  8
_0-0_
  6
CONTINUOUS
 62
    7
 10
366.47905793512132
 20
319.74951739060231
 40
0.1
 50
270
 51
0
  0
ARC
  8
_0-0_
  6
CONTINUOUS
 62
    7
 10
384.22905793512132
 20
321.84951739060233
 40
0.1
 50
90
 51
180
  0
LINE
  8
_0-0_
  6
CONTINUOUS
 62
    7
 10
385.52905793512139
 20
321.9495173906023
 11
384.22905793512132
 21
321.9495173906023
  0
ARC
  8
_0-0_
  6
CONTINUOUS
 62
    7
 10
385.52905793512139
 20
321.84951739060233
 40
0.1
 50
0
 51
90
  0
LINE
  8
_0-0_
  6
CONTINUOUS
 62
    7
 10
384.12905793512135
 20
319.74951739060231
 11
384.12905793512135
 21
321.84951739060233
  0
ARC
  8
_0-0_
  6
CONTINUOUS
 62
    7
 10
384.22905793512132
 20
319.74951739060231
 40
0.1
 50
180
 51
270
  0
LINE
  8
_0-0_
  6
CONTINUOUS
 62
    7
 10
385.52905793512139
 20
319.64951739060234
 11
384.22905793512132
 21
319.64951739060234
  0
LINE
  8
_0-0_
  6
CONTINUOUS
 62
    7
 10
385.62905793512135
 20
319.74951739060231
 11
385.62905793512135
 21
321.84951739060233
  0
ARC
  8
_0-0_
  6
CONTINUOUS
 62
    7
 10
385.52905793512139
 20
319.74951739060231
 40
0.1
 50
270
 51
0
  0
ARC
  8
_0-0_
  6
CONTINUOUS
 62
    7
 10
403.27885793512121
 20
321.84951739060233
 40
0.1
 50
90
 51
180
  0
LINE
  8
_0-0_
  6
CONTINUOUS
 62
    7
 10
404.57885793512128
 20
321.9495173906023
 11
403.27885793512121
 21
321.9495173906023
  0
ARC
  8
_0-0_
  6
CONTINUOUS
 62
    7
 10
404.57885793512128
 20
321.84951739060233
 40
0.1
 50
0
 51
90
  0
LINE
  8
_0-0_
  6
CONTINUOUS
 62
    7
 10
403.17885793512124
 20
319.74951739060231
 11
403.17885793512124
 21
321.84951739060233
  0
ARC
  8
_0-0_
  6
CONTINUOUS
 62
    7
 10
403.27885793512121
 20
319.74951739060231
 40
0.1
 50
180
 51
270
  0
LINE
  8
_0-0_
  6
CONTINUOUS
 62
    7
 10
404.57885793512128
 20
319.64951739060234
 11
403.27885793512121
 21
319.64951739060234
  0
LINE
  8
_0-0_
  6
CONTINUOUS
 62
    7
 10
404.67885793512124
 20
319.74951739060231
 11
404.67885793512124
 21
321.84951739060233
  0
ARC
  8
_0-0_
  6
CONTINUOUS
 62
    7
 10
404.57885793512128
 20
319.74951739060231
 40
0.1
 50
270
 51
0
  0
ARC
  8
_0-0_
  6
CONTINUOUS
 62
    7
 10
422.32905793512111
 20
350.42411739060225
 40
0.1
 50
90
 51
180
  0
LINE
  8
_0-0_
  6
CONTINUOUS
 62
    7
 10
423.62905793512118
 20
350.52411739060221
 11
422.32905793512111
 21
350.52411739060221
  0
ARC
  8
_0-0_
  6
CONTINUOUS
 62
    7
 10
423.62905793512118
 20
350.42411739060225
 40
0.1
 50
0
 51
90
  0
LINE
  8
_0-0_
  6
CONTINUOUS
 62
    7
 10
422.22905793512115
 20
348.32411739060223
 11
422.22905793512115
 21
350.42411739060225
  0
ARC
  8
_0-0_
  6
CONTINUOUS
 62
    7
 10
422.32905793512111
 20
348.32411739060223
 40
0.1
 50
180
 51
270
  0
LINE
  8
_0-0_
  6
CONTINUOUS
 62
    7
 10
423.62905793512118
 20
348.22411739060226
 11
422.32905793512111
 21
348.22411739060226
  0
LINE
  8
_0-0_
  6
CONTINUOUS
 62
    7
 10
423.72905793512115
 20
348.32411739060223
 11
423.72905793512115
 21
350.42411739060225
  0
ARC
  8
_0-0_
  6
CONTINUOUS
 62
    7
 10
423.62905793512118
 20
348.32411739060223
 40
0.1
 50
270
 51
0
  0
ARC
  8
_0-0_
  6
CONTINUOUS
 62
    7
 10
441.37905793512107
 20
350.42411739060225
 40
0.1
 50
90
 51
180
  0
LINE
  8
_0-0_
  6
CONTINUOUS
 62
    7
 10
442.67905793512114
 20
350.52411739060221
 11
441.37905793512107
 21
350.52411739060221
  0
ARC
  8
_0-0_
  6
CONTINUOUS
 62
    7
 10
442.67905793512114
 20
350.42411739060225
 40
0.1
 50
0
 51
90
  0
LINE
  8
_0-0_
  6
CONTINUOUS
 62
    7
 10
441.2790579351211
 20
348.32411739060223
 11
441.2790579351211
 21
350.42411739060225
  0
ARC
  8
_0-0_
  6
CONTINUOUS
 62
    7
 10
441.37905793512107
 20
348.32411739060223
 40
0.1
 50
180
 51
270
  0
LINE
  8
_0-0_
  6
CONTINUOUS
 62
    7
 10
442.67905793512114
 20
348.22411739060226
 11
441.37905793512107
 21
348.22411739060226
  0
LINE
  8
_0-0_
  6
CONTINUOUS
 62
    7
 10
442.7790579351211
 20
348.32411739060223
 11
442.7790579351211
 21
350.42411739060225
  0
ARC
  8
_0-0_
  6
CONTINUOUS
 62
    7
 10
442.67905793512114
 20
348.32411739060223
 40
0.1
 50
270
 51
0
  0
ARC
  8
_0-0_
  6
CONTINUOUS
 62
    7
 10
460.42905793512114
 20
350.42411739060225
 40
0.1
 50
90
 51
180
  0
LINE
  8
_0-0_
  6
CONTINUOUS
 62
    7
 10
461.7290579351212
 20
350.52411739060221
 11
460.42905793512114
 21
350.52411739060221
  0
ARC
  8
_0-0_
  6
CONTINUOUS
 62
    7
 10
461.7290579351212
 20
350.42411739060225
 40
0.1
 50
0
 51
90
  0
LINE
  8
_0-0_
  6
CONTINUOUS
 62
    7
 10
460.32905793512117
 20
348.32411739060223
 11
460.32905793512117
 21
350.42411739060225
  0
ARC
  8
_0-0_
  6
CONTINUOUS
 62
    7
 10
460.42905793512114
 20
348.32411739060223
 40
0.1
 50
180
 51
270
  0
LINE
  8
_0-0_
  6
CONTINUOUS
 62
    7
 10
461.7290579351212
 20
348.22411739060226
 11
460.42905793512114
 21
348.22411739060226
  0
LINE
  8
_0-0_
  6
CONTINUOUS
 62
    7
 10
461.82905793512117
 20
348.32411739060223
 11
461.82905793512117
 21
350.42411739060225
  0
ARC
  8
_0-0_
  6
CONTINUOUS
 62
    7
 10
461.7290579351212
 20
348.32411739060223
 40
0.1
 50
270
 51
0
  0
ARC
  8
_0-0_
  6
CONTINUOUS
 62
    7
 10
479.47885793512103
 20
350.42411739060225
 40
0.1
 50
90
 51
180
  0
LINE
  8
_0-0_
  6
CONTINUOUS
 62
    7
 10
480.7788579351211
 20
350.52411739060221
 11
479.47885793512103
 21
350.52411739060221
  0
ARC
  8
_0-0_
  6
CONTINUOUS
 62
    7
 10
480.7788579351211
 20
350.42411739060225
 40
0.1
 50
0
 51
90
  0
LINE
  8
_0-0_
  6
CONTINUOUS
 62
    7
 10
479.37885793512106
 20
348.32411739060223
 11
479.37885793512106
 21
350.42411739060225
  0
ARC
  8
_0-0_
  6
CONTINUOUS
 62
    7
 10
479.47885793512103
 20
348.32411739060223
 40
0.1
 50
180
 51
270
  0
LINE
  8
_0-0_
  6
CONTINUOUS
 62
    7
 10
480.7788579351211
 20
348.22411739060226
 11
479.47885793512103
 21
348.22411739060226
  0
LINE
  8
_0-0_
  6
CONTINUOUS
 62
    7
 10
480.87885793512106
 20
348.32411739060223
 11
480.87885793512106
 21
350.42411739060225
  0
ARC
  8
_0-0_
  6
CONTINUOUS
 62
    7
 10
480.7788579351211
 20
348.32411739060223
 40
0.1
 50
270
 51
0
  0
ARC
  8
_0-0_
  6
CONTINUOUS
 62
    7
 10
336.60400793512122
 20
350.42411739060225
 40
0.1
 50
90
 51
180
  0
LINE
  8
_0-0_
  6
CONTINUOUS
 62
    7
 10
337.90400793512129
 20
350.52411739060221
 11
336.60400793512122
 21
350.52411739060221
  0
ARC
  8
_0-0_
  6
CONTINUOUS
 62
    7
 10
337.90400793512129
 20
350.42411739060225
 40
0.1
 50
0
 51
90
  0
LINE
  8
_0-0_
  6
CONTINUOUS
 62
    7
 10
336.50400793512125
 20
348.32411739060223
 11
336.50400793512125
 21
350.42411739060225
  0
ARC
  8
_0-0_
  6
CONTINUOUS
 62
    7
 10
336.60400793512122
 20
348.32411739060223
 40
0.1
 50
180
 51
270
  0
LINE
  8
_0-0_
  6
CONTINUOUS
 62
    7
 10
337.90400793512129
 20
348.22411739060226
 11
336.60400793512122
 21
348.22411739060226
  0
LINE
  8
_0-0_
  6
CONTINUOUS
 62
    7
 10
338.00400793512125
 20
348.32411739060223
 11
338.00400793512125
 21
350.42411739060225
  0
ARC
  8
_0-0_
  6
CONTINUOUS
 62
    7
 10
337.90400793512129
 20
348.32411739060223
 40
0.1
 50
270
 51
0
  0
ARC
  8
_0-0_
  6
CONTINUOUS
 62
    7
 10
355.65400793512117
 20
350.42411739060225
 40
0.1
 50
90
 51
180
  0
LINE
  8
_0-0_
  6
CONTINUOUS
 62
    7
 10
356.95400793512124
 20
350.52411739060221
 11
355.65400793512117
 21
350.52411739060221
  0
ARC
  8
_0-0_
  6
CONTINUOUS
 62
    7
 10
356.95400793512124
 20
350.42411739060225
 40
0.1
 50
0
 51
90
  0
LINE
  8
_0-0_
  6
CONTINUOUS
 62
    7
 10
355.55400793512121
 20
348.32411739060223
 11
355.55400793512121
 21
350.42411739060225
  0
ARC
  8
_0-0_
  6
CONTINUOUS
 62
    7
 10
355.65400793512117
 20
348.32411739060223
 40
0.1
 50
180
 51
270
  0
LINE
  8
_0-0_
  6
CONTINUOUS
 62
    7
 10
356.95400793512124
 20
348.22411739060226
 11
355.65400793512117
 21
348.22411739060226
  0
LINE
  8
_0-0_
  6
CONTINUOUS
 62
    7
 10
357.05400793512121
 20
348.32411739060223
 11
357.05400793512121
 21
350.42411739060225
  0
ARC
  8
_0-0_
  6
CONTINUOUS
 62
    7
 10
356.95400793512124
 20
348.32411739060223
 40
0.1
 50
270
 51
0
  0
ARC
  8
_0-0_
  6
CONTINUOUS
 62
    7
 10
374.70400793512124
 20
350.42411739060225
 40
0.1
 50
90
 51
180
  0
LINE
  8
_0-0_
  6
CONTINUOUS
 62
    7
 10
376.00400793512131
 20
350.52411739060221
 11
374.70400793512124
 21
350.52411739060221
  0
ARC
  8
_0-0_
  6
CONTINUOUS
 62
    7
 10
376.00400793512131
 20
350.42411739060225
 40
0.1
 50
0
 51
90
  0
LINE
  8
_0-0_
  6
CONTINUOUS
 62
    7
 10
374.60400793512127
 20
348.32411739060223
 11
374.60400793512127
 21
350.42411739060225
  0
ARC
  8
_0-0_
  6
CONTINUOUS
 62
    7
 10
374.70400793512124
 20
348.32411739060223
 40
0.1
 50
180
 51
270
  0
LINE
  8
_0-0_
  6
CONTINUOUS
 62
    7
 10
376.00400793512131
 20
348.22411739060226
 11
374.70400793512124
 21
348.22411739060226
  0
LINE
  8
_0-0_
  6
CONTINUOUS
 62
    7
 10
376.10400793512127
 20
348.32411739060223
 11
376.10400793512127
 21
350.42411739060225
  0
ARC
  8
_0-0_
  6
CONTINUOUS
 62
    7
 10
376.00400793512131
 20
348.32411739060223
 40
0.1
 50
270
 51
0
  0
ARC
  8
_0-0_
  6
CONTINUOUS
 62
    7
 10
393.75380793512113
 20
350.42411739060225
 40
0.1
 50
90
 51
180
  0
LINE
  8
_0-0_
  6
CONTINUOUS
 62
    7
 10
395.0538079351212
 20
350.52411739060221
 11
393.75380793512113
 21
350.52411739060221
  0
ARC
  8
_0-0_
  6
CONTINUOUS
 62
    7
 10
395.0538079351212
 20
350.42411739060225
 40
0.1
 50
0
 51
90
  0
LINE
  8
_0-0_
  6
CONTINUOUS
 62
    7
 10
393.65380793512116
 20
348.32411739060223
 11
393.65380793512116
 21
350.42411739060225
  0
ARC
  8
_0-0_
  6
CONTINUOUS
 62
    7
 10
393.75380793512113
 20
348.32411739060223
 40
0.1
 50
180
 51
270
  0
LINE
  8
_0-0_
  6
CONTINUOUS
 62
    7
 10
395.0538079351212
 20
348.22411739060226
 11
393.75380793512113
 21
348.22411739060226
  0
LINE
  8
_0-0_
  6
CONTINUOUS
 62
    7
 10
395.15380793512116
 20
348.32411739060223
 11
395.15380793512116
 21
350.42411739060225
  0
ARC
  8
_0-0_
  6
CONTINUOUS
 62
    7
 10
395.0538079351212
 20
348.32411739060223
 40
0.1
 50
270
 51
0
  0
ARC
  8
_0-0_
  6
CONTINUOUS
 62
    7
 10
422.32905793512111
 20
321.84951739060233
 40
0.1
 50
90
 51
180
  0
LINE
  8
_0-0_
  6
CONTINUOUS
 62
    7
 10
423.62905793512118
 20
321.9495173906023
 11
422.32905793512111
 21
321.9495173906023
  0
ARC
  8
_0-0_
  6
CONTINUOUS
 62
    7
 10
423.62905793512118
 20
321.84951739060233
 40
0.1
 50
0
 51
90
  0
LINE
  8
_0-0_
  6
CONTINUOUS
 62
    7
 10
422.22905793512115
 20
319.74951739060231
 11
422.22905793512115
 21
321.84951739060233
  0
ARC
  8
_0-0_
  6
CONTINUOUS
 62
    7
 10
422.32905793512111
 20
319.74951739060231
 40
0.1
 50
180
 51
270
  0
LINE
  8
_0-0_
  6
CONTINUOUS
 62
    7
 10
423.62905793512118
 20
319.64951739060234
 11
422.32905793512111
 21
319.64951739060234
  0
LINE
  8
_0-0_
  6
CONTINUOUS
 62
    7
 10
423.72905793512115
 20
319.74951739060231
 11
423.72905793512115
 21
321.84951739060233
  0
ARC
  8
_0-0_
  6
CONTINUOUS
 62
    7
 10
423.62905793512118
 20
319.74951739060231
 40
0.1
 50
270
 51
0
  0
ARC
  8
_0-0_
  6
CONTINUOUS
 62
    7
 10
441.37905793512107
 20
321.84951739060233
 40
0.1
 50
90
 51
180
  0
LINE
  8
_0-0_
  6
CONTINUOUS
 62
    7
 10
442.67905793512114
 20
321.9495173906023
 11
441.37905793512107
 21
321.9495173906023
  0
ARC
  8
_0-0_
  6
CONTINUOUS
 62
    7
 10
442.67905793512114
 20
321.84951739060233
 40
0.1
 50
0
 51
90
  0
LINE
  8
_0-0_
  6
CONTINUOUS
 62
    7
 10
441.2790579351211
 20
319.74951739060231
 11
441.2790579351211
 21
321.84951739060233
  0
ARC
  8
_0-0_
  6
CONTINUOUS
 62
    7
 10
441.37905793512107
 20
319.74951739060231
 40
0.1
 50
180
 51
270
  0
LINE
  8
_0-0_
  6
CONTINUOUS
 62
    7
 10
442.67905793512114
 20
319.64951739060234
 11
441.37905793512107
 21
319.64951739060234
  0
LINE
  8
_0-0_
  6
CONTINUOUS
 62
    7
 10
442.7790579351211
 20
319.74951739060231
 11
442.7790579351211
 21
321.84951739060233
  0
ARC
  8
_0-0_
  6
CONTINUOUS
 62
    7
 10
442.67905793512114
 20
319.74951739060231
 40
0.1
 50
270
 51
0
  0
ARC
  8
_0-0_
  6
CONTINUOUS
 62
    7
 10
460.42905793512114
 20
321.84951739060233
 40
0.1
 50
90
 51
180
  0
LINE
  8
_0-0_
  6
CONTINUOUS
 62
    7
 10
461.7290579351212
 20
321.9495173906023
 11
460.42905793512114
 21
321.9495173906023
  0
ARC
  8
_0-0_
  6
CONTINUOUS
 62
    7
 10
461.7290579351212
 20
321.84951739060233
 40
0.1
 50
0
 51
90
  0
LINE
  8
_0-0_
  6
CONTINUOUS
 62
    7
 10
460.32905793512117
 20
319.74951739060231
 11
460.32905793512117
 21
321.84951739060233
  0
ARC
  8
_0-0_
  6
CONTINUOUS
 62
    7
 10
460.42905793512114
 20
319.74951739060231
 40
0.1
 50
180
 51
270
  0
LINE
  8
_0-0_
  6
CONTINUOUS
 62
    7
 10
461.7290579351212
 20
319.64951739060234
 11
460.42905793512114
 21
319.64951739060234
  0
LINE
  8
_0-0_
  6
CONTINUOUS
 62
    7
 10
461.82905793512117
 20
319.74951739060231
 11
461.82905793512117
 21
321.84951739060233
  0
ARC
  8
_0-0_
  6
CONTINUOUS
 62
    7
 10
461.7290579351212
 20
319.74951739060231
 40
0.1
 50
270
 51
0
  0
ARC
  8
_0-0_
  6
CONTINUOUS
 62
    7
 10
479.47885793512103
 20
321.84951739060233
 40
0.1
 50
90
 51
180
  0
LINE
  8
_0-0_
  6
CONTINUOUS
 62
    7
 10
480.7788579351211
 20
321.9495173906023
 11
479.47885793512103
 21
321.9495173906023
  0
ARC
  8
_0-0_
  6
CONTINUOUS
 62
    7
 10
480.7788579351211
 20
321.84951739060233
 40
0.1
 50
0
 51
90
  0
LINE
  8
_0-0_
  6
CONTINUOUS
 62
    7
 10
479.37885793512106
 20
319.74951739060231
 11
479.37885793512106
 21
321.84951739060233
  0
ARC
  8
_0-0_
  6
CONTINUOUS
 62
    7
 10
479.47885793512103
 20
319.74951739060231
 40
0.1
 50
180
 51
270
  0
LINE
  8
_0-0_
  6
CONTINUOUS
 62
    7
 10
480.7788579351211
 20
319.64951739060234
 11
479.47885793512103
 21
319.64951739060234
  0
LINE
  8
_0-0_
  6
CONTINUOUS
 62
    7
 10
480.87885793512106
 20
319.74951739060231
 11
480.87885793512106
 21
321.84951739060233
  0
ARC
  8
_0-0_
  6
CONTINUOUS
 62
    7
 10
480.7788579351211
 20
319.74951739060231
 40
0.1
 50
270
 51
0
  0
ARC
  8
_0-0_
  6
CONTINUOUS
 62
    7
 10
267.9287833813712
 20
321.82501096060236
 40
0.1
 50
90
 51
180
  0
LINE
  8
_0-0_
  6
CONTINUOUS
 62
    7
 10
269.22878338137127
 20
321.92501096060232
 11
267.9287833813712
 21
321.92501096060232
  0
ARC
  8
_0-0_
  6
CONTINUOUS
 62
    7
 10
269.22878338137127
 20
321.82501096060236
 40
0.1
 50
0
 51
90
  0
LINE
  8
_0-0_
  6
CONTINUOUS
 62
    7
 10
267.82878338137124
 20
319.72501096060233
 11
267.82878338137124
 21
321.82501096060236
  0
ARC
  8
_0-0_
  6
CONTINUOUS
 62
    7
 10
267.9287833813712
 20
319.72501096060233
 40
0.1
 50
180
 51
270
  0
LINE
  8
_0-0_
  6
CONTINUOUS
 62
    7
 10
269.22878338137127
 20
319.62501096060237
 11
267.9287833813712
 21
319.62501096060237
  0
LINE
  8
_0-0_
  6
CONTINUOUS
 62
    7
 10
269.32878338137124
 20
319.72501096060233
 11
269.32878338137124
 21
321.82501096060236
  0
ARC
  8
_0-0_
  6
CONTINUOUS
 62
    7
 10
269.22878338137127
 20
319.72501096060233
 40
0.1
 50
270
 51
0
  0
ARC
  8
_0-0_
  6
CONTINUOUS
 62
    7
 10
286.97878338137127
 20
321.82501096060236
 40
0.1
 50
90
 51
180
  0
LINE
  8
_0-0_
  6
CONTINUOUS
 62
    7
 10
288.27878338137134
 20
321.92501096060232
 11
286.97878338137127
 21
321.92501096060232
  0
ARC
  8
_0-0_
  6
CONTINUOUS
 62
    7
 10
288.27878338137134
 20
321.82501096060236
 40
0.1
 50
0
 51
90
  0
LINE
  8
_0-0_
  6
CONTINUOUS
 62
    7
 10
286.87878338137131
 20
319.72501096060233
 11
286.87878338137131
 21
321.82501096060236
  0
ARC
  8
_0-0_
  6
CONTINUOUS
 62
    7
 10
286.97878338137127
 20
319.72501096060233
 40
0.1
 50
180
 51
270
  0
LINE
  8
_0-0_
  6
CONTINUOUS
 62
    7
 10
288.27878338137134
 20
319.62501096060237
 11
286.97878338137127
 21
319.62501096060237
  0
LINE
  8
_0-0_
  6
CONTINUOUS
 62
    7
 10
288.37878338137131
 20
319.72501096060233
 11
288.37878338137131
 21
321.82501096060236
  0
ARC
  8
_0-0_
  6
CONTINUOUS
 62
    7
 10
288.27878338137134
 20
319.72501096060233
 40
0.1
 50
270
 51
0
  0
ARC
  8
_0-0_
  6
CONTINUOUS
 62
    7
 10
306.02878338137123
 20
321.82501096060236
 40
0.1
 50
90
 51
180
  0
LINE
  8
_0-0_
  6
CONTINUOUS
 62
    7
 10
307.3287833813713
 20
321.92501096060232
 11
306.02878338137123
 21
321.92501096060232
  0
ARC
  8
_0-0_
  6
CONTINUOUS
 62
    7
 10
307.3287833813713
 20
321.82501096060236
 40
0.1
 50
0
 51
90
  0
LINE
  8
_0-0_
  6
CONTINUOUS
 62
    7
 10
305.92878338137126
 20
319.72501096060233
 11
305.92878338137126
 21
321.82501096060236
  0
ARC
  8
_0-0_
  6
CONTINUOUS
 62
    7
 10
306.02878338137123
 20
319.72501096060233
 40
0.1
 50
180
 51
270
  0
LINE
  8
_0-0_
  6
CONTINUOUS
 62
    7
 10
307.3287833813713
 20
319.62501096060237
 11
306.02878338137123
 21
319.62501096060237
  0
LINE
  8
_0-0_
  6
CONTINUOUS
 62
    7
 10
307.42878338137126
 20
319.72501096060233
 11
307.42878338137126
 21
321.82501096060236
  0
ARC
  8
_0-0_
  6
CONTINUOUS
 62
    7
 10
307.3287833813713
 20
319.72501096060233
 40
0.1
 50
270
 51
0
  0
ARC
  8
_0-0_
  6
CONTINUOUS
 62
    7
 10
296.50378338137125
 20
302.77501096060229
 40
0.1
 50
90
 51
180
  0
LINE
  8
_0-0_
  6
CONTINUOUS
 62
    7
 10
297.80378338137132
 20
302.87501096060225
 11
296.50378338137125
 21
302.87501096060225
  0
ARC
  8
_0-0_
  6
CONTINUOUS
 62
    7
 10
297.80378338137132
 20
302.77501096060229
 40
0.1
 50
0
 51
90
  0
LINE
  8
_0-0_
  6
CONTINUOUS
 62
    7
 10
296.40378338137128
 20
300.67501096060226
 11
296.40378338137128
 21
302.77501096060229
  0
ARC
  8
_0-0_
  6
CONTINUOUS
 62
    7
 10
296.50378338137125
 20
300.67501096060226
 40
0.1
 50
180
 51
270
  0
LINE
  8
_0-0_
  6
CONTINUOUS
 62
    7
 10
297.80378338137132
 20
300.5750109606023
 11
296.50378338137125
 21
300.5750109606023
  0
LINE
  8
_0-0_
  6
CONTINUOUS
 62
    7
 10
297.90378338137128
 20
300.67501096060226
 11
297.90378338137128
 21
302.77501096060229
  0
ARC
  8
_0-0_
  6
CONTINUOUS
 62
    7
 10
297.80378338137132
 20
300.67501096060226
 40
0.1
 50
270
 51
0
  0
ARC
  8
_0-0_
  6
CONTINUOUS
 62
    7
 10
301.26678338137128
 20
283.72501096060228
 40
0.1
 50
90
 51
180
  0
LINE
  8
_0-0_
  6
CONTINUOUS
 62
    7
 10
302.56678338137135
 20
283.82501096060224
 11
301.26678338137128
 21
283.82501096060224
  0
ARC
  8
_0-0_
  6
CONTINUOUS
 62
    7
 10
302.56678338137135
 20
283.72501096060228
 40
0.1
 50
0
 51
90
  0
LINE
  8
_0-0_
  6
CONTINUOUS
 62
    7
 10
301.16678338137132
 20
281.62501096060225
 11
301.16678338137132
 21
283.72501096060228
  0
ARC
  8
_0-0_
  6
CONTINUOUS
 62
    7
 10
301.26678338137128
 20
281.62501096060225
 40
0.1
 50
180
 51
270
  0
LINE
  8
_0-0_
  6
CONTINUOUS
 62
    7
 10
302.56678338137135
 20
281.52501096060229
 11
301.26678338137128
 21
281.52501096060229
  0
LINE
  8
_0-0_
  6
CONTINUOUS
 62
    7
 10
302.66678338137132
 20
281.62501096060225
 11
302.66678338137132
 21
283.72501096060228
  0
ARC
  8
_0-0_
  6
CONTINUOUS
 62
    7
 10
302.56678338137135
 20
281.62501096060225
 40
0.1
 50
270
 51
0
  0
ARC
  8
_0-0_
  6
CONTINUOUS
 62
    7
 10
310.79178338137126
 20
264.67501096060232
 40
0.1
 50
90
 51
180
  0
LINE
  8
_0-0_
  6
CONTINUOUS
 62
    7
 10
312.09178338137133
 20
264.77501096060229
 11
310.79178338137126
 21
264.77501096060229
  0
ARC
  8
_0-0_
  6
CONTINUOUS
 62
    7
 10
312.09178338137133
 20
264.67501096060232
 40
0.1
 50
0
 51
90
  0
LINE
  8
_0-0_
  6
CONTINUOUS
 62
    7
 10
310.69178338137129
 20
262.5750109606023
 11
310.69178338137129
 21
264.67501096060232
  0
ARC
  8
_0-0_
  6
CONTINUOUS
 62
    7
 10
310.79178338137126
 20
262.5750109606023
 40
0.1
 50
180
 51
270
  0
LINE
  8
_0-0_
  6
CONTINUOUS
 62
    7
 10
312.09178338137133
 20
262.47501096060233
 11
310.79178338137126
 21
262.47501096060233
  0
LINE
  8
_0-0_
  6
CONTINUOUS
 62
    7
 10
312.19178338137129
 20
262.5750109606023
 11
312.19178338137129
 21
264.67501096060232
  0
ARC
  8
_0-0_
  6
CONTINUOUS
 62
    7
 10
312.09178338137133
 20
262.5750109606023
 40
0.1
 50
270
 51
0
  0
ARC
  8
_0-0_
  6
CONTINUOUS
 62
    7
 10
194.15878338137125
 20
245.62511096060229
 40
0.1
 50
90
 51
180
  0
LINE
  8
_0-0_
  6
CONTINUOUS
 62
    7
 10
195.45878338137126
 20
245.72511096060228
 11
194.15878338137125
 21
245.72511096060228
  0
ARC
  8
_0-0_
  6
CONTINUOUS
 62
    7
 10
195.45878338137126
 20
245.62511096060229
 40
0.1
 50
0
 51
90
  0
LINE
  8
_0-0_
  6
CONTINUOUS
 62
    7
 10
194.05878338137126
 20
243.52511096060226
 11
194.05878338137126
 21
245.62511096060229
  0
ARC
  8
_0-0_
  6
CONTINUOUS
 62
    7
 10
194.15878338137125
 20
243.52511096060226
 40
0.1
 50
180
 51
270
  0
LINE
  8
_0-0_
  6
CONTINUOUS
 62
    7
 10
195.45878338137126
 20
243.42511096060227
 11
194.15878338137125
 21
243.42511096060227
  0
LINE
  8
_0-0_
  6
CONTINUOUS
 62
    7
 10
195.55878338137126
 20
243.52511096060226
 11
195.55878338137126
 21
245.62511096060229
  0
ARC
  8
_0-0_
  6
CONTINUOUS
 62
    7
 10
195.45878338137126
 20
243.52511096060226
 40
0.1
 50
270
 51
0
  0
ARC
  8
_0-0_
  6
CONTINUOUS
 62
    7
 10
203.63388338137125
 20
264.72458739060227
 40
0.1
 50
90
 51
180
  0
LINE
  8
_0-0_
  6
CONTINUOUS
 62
    7
 10
204.93388338137126
 20
264.82458739060223
 11
203.63388338137125
 21
264.82458739060223
  0
ARC
  8
_0-0_
  6
CONTINUOUS
 62
    7
 10
204.93388338137126
 20
264.72458739060227
 40
0.1
 50
0
 51
90
  0
LINE
  8
_0-0_
  6
CONTINUOUS
 62
    7
 10
203.53388338137125
 20
262.62458739060224
 11
203.53388338137125
 21
264.72458739060227
  0
ARC
  8
_0-0_
  6
CONTINUOUS
 62
    7
 10
203.63388338137125
 20
262.62458739060224
 40
0.1
 50
180
 51
270
  0
LINE
  8
_0-0_
  6
CONTINUOUS
 62
    7
 10
204.93388338137126
 20
262.52458739060228
 11
203.63388338137125
 21
262.52458739060228
  0
LINE
  8
_0-0_
  6
CONTINUOUS
 62
    7
 10
205.03388338137125
 20
262.62458739060224
 11
205.03388338137125
 21
264.72458739060227
  0
ARC
  8
_0-0_
  6
CONTINUOUS
 62
    7
 10
204.93388338137126
 20
262.62458739060224
 40
0.1
 50
270
 51
0
  0
ARC
  8
_0-0_
  6
CONTINUOUS
 62
    7
 10
198.87268338137122
 20
283.72501096060228
 40
0.1
 50
90
 51
180
  0
LINE
  8
_0-0_
  6
CONTINUOUS
 62
    7
 10
200.17268338137123
 20
283.82501096060224
 11
198.87268338137122
 21
283.82501096060224
  0
ARC
  8
_0-0_
  6
CONTINUOUS
 62
    7
 10
200.17268338137123
 20
283.72501096060228
 40
0.1
 50
0
 51
90
  0
LINE
  8
_0-0_
  6
CONTINUOUS
 62
    7
 10
198.77268338137122
 20
281.62501096060225
 11
198.77268338137122
 21
283.72501096060228
  0
ARC
  8
_0-0_
  6
CONTINUOUS
 62
    7
 10
198.87268338137122
 20
281.62501096060225
 40
0.1
 50
180
 51
270
  0
LINE
  8
_0-0_
  6
CONTINUOUS
 62
    7
 10
200.17268338137123
 20
281.52501096060229
 11
198.87268338137122
 21
281.52501096060229
  0
LINE
  8
_0-0_
  6
CONTINUOUS
 62
    7
 10
200.27268338137122
 20
281.62501096060225
 11
200.27268338137122
 21
283.72501096060228
  0
ARC
  8
_0-0_
  6
CONTINUOUS
 62
    7
 10
200.17268338137123
 20
281.62501096060225
 40
0.1
 50
270
 51
0
  0
ARC
  8
_0-0_
  6
CONTINUOUS
 62
    7
 10
196.4914833813713
 20
302.77501096060229
 40
0.1
 50
90
 51
180
  0
LINE
  8
_0-0_
  6
CONTINUOUS
 62
    7
 10
197.79148338137131
 20
302.87501096060225
 11
196.4914833813713
 21
302.87501096060225
  0
ARC
  8
_0-0_
  6
CONTINUOUS
 62
    7
 10
197.79148338137131
 20
302.77501096060229
 40
0.1
 50
0
 51
90
  0
LINE
  8
_0-0_
  6
CONTINUOUS
 62
    7
 10
196.3914833813713
 20
300.67501096060226
 11
196.3914833813713
 21
302.77501096060229
  0
ARC
  8
_0-0_
  6
CONTINUOUS
 62
    7
 10
196.4914833813713
 20
300.67501096060226
 40
0.1
 50
180
 51
270
  0
LINE
  8
_0-0_
  6
CONTINUOUS
 62
    7
 10
197.79148338137131
 20
300.5750109606023
 11
196.4914833813713
 21
300.5750109606023
  0
LINE
  8
_0-0_
  6
CONTINUOUS
 62
    7
 10
197.8914833813713
 20
300.67501096060226
 11
197.8914833813713
 21
302.77501096060229
  0
ARC
  8
_0-0_
  6
CONTINUOUS
 62
    7
 10
197.79148338137131
 20
300.67501096060226
 40
0.1
 50
270
 51
0
  0
ARC
  8
_0-0_
  6
CONTINUOUS
 62
    7
 10
412.80405793512125
 20
302.79951739060226
 40
0.1
 50
90
 51
180
  0
LINE
  8
_0-0_
  6
CONTINUOUS
 62
    7
 10
414.10405793512132
 20
302.89951739060223
 11
412.80405793512125
 21
302.89951739060223
  0
ARC
  8
_0-0_
  6
CONTINUOUS
 62
    7
 10
414.10405793512132
 20
302.79951739060226
 40
0.1
 50
0
 51
90
  0
LINE
  8
_0-0_
  6
CONTINUOUS
 62
    7
 10
412.70405793512128
 20
300.69951739060224
 11
412.70405793512128
 21
302.79951739060226
  0
ARC
  8
_0-0_
  6
CONTINUOUS
 62
    7
 10
412.80405793512125
 20
300.69951739060224
 40
0.1
 50
180
 51
270
  0
LINE
  8
_0-0_
  6
CONTINUOUS
 62
    7
 10
414.10405793512132
 20
300.59951739060227
 11
412.80405793512125
 21
300.59951739060227
  0
LINE
  8
_0-0_
  6
CONTINUOUS
 62
    7
 10
414.20405793512128
 20
300.69951739060224
 11
414.20405793512128
 21
302.79951739060226
  0
ARC
  8
_0-0_
  6
CONTINUOUS
 62
    7
 10
414.10405793512132
 20
300.69951739060224
 40
0.1
 50
270
 51
0
  0
ARC
  8
_0-0_
  6
CONTINUOUS
 62
    7
 10
431.8526579351211
 20
302.79951739060226
 40
0.1
 50
90
 51
180
  0
LINE
  8
_0-0_
  6
CONTINUOUS
 62
    7
 10
433.15265793512117
 20
302.89951739060223
 11
431.8526579351211
 21
302.89951739060223
  0
ARC
  8
_0-0_
  6
CONTINUOUS
 62
    7
 10
433.15265793512117
 20
302.79951739060226
 40
0.1
 50
0
 51
90
  0
LINE
  8
_0-0_
  6
CONTINUOUS
 62
    7
 10
431.75265793512114
 20
300.69951739060224
 11
431.75265793512114
 21
302.79951739060226
  0
ARC
  8
_0-0_
  6
CONTINUOUS
 62
    7
 10
431.8526579351211
 20
300.69951739060224
 40
0.1
 50
180
 51
270
  0
LINE
  8
_0-0_
  6
CONTINUOUS
 62
    7
 10
433.15265793512117
 20
300.59951739060227
 11
431.8526579351211
 21
300.59951739060227
  0
LINE
  8
_0-0_
  6
CONTINUOUS
 62
    7
 10
433.25265793512114
 20
300.69951739060224
 11
433.25265793512114
 21
302.79951739060226
  0
ARC
  8
_0-0_
  6
CONTINUOUS
 62
    7
 10
433.15265793512117
 20
300.69951739060224
 40
0.1
 50
270
 51
0
  0
ARC
  8
_0-0_
  6
CONTINUOUS
 62
    7
 10
450.90235793512113
 20
302.79951739060226
 40
0.1
 50
90
 51
180
  0
LINE
  8
_0-0_
  6
CONTINUOUS
 62
    7
 10
452.2023579351212
 20
302.89951739060223
 11
450.90235793512113
 21
302.89951739060223
  0
ARC
  8
_0-0_
  6
CONTINUOUS
 62
    7
 10
452.2023579351212
 20
302.79951739060226
 40
0.1
 50
0
 51
90
  0
LINE
  8
_0-0_
  6
CONTINUOUS
 62
    7
 10
450.80235793512117
 20
300.69951739060224
 11
450.80235793512117
 21
302.79951739060226
  0
ARC
  8
_0-0_
  6
CONTINUOUS
 62
    7
 10
450.90235793512113
 20
300.69951739060224
 40
0.1
 50
180
 51
270
  0
LINE
  8
_0-0_
  6
CONTINUOUS
 62
    7
 10
452.2023579351212
 20
300.59951739060227
 11
450.90235793512113
 21
300.59951739060227
  0
LINE
  8
_0-0_
  6
CONTINUOUS
 62
    7
 10
452.30235793512117
 20
300.69951739060224
 11
452.30235793512117
 21
302.79951739060226
  0
ARC
  8
_0-0_
  6
CONTINUOUS
 62
    7
 10
452.2023579351212
 20
300.69951739060224
 40
0.1
 50
270
 51
0
  0
ARC
  8
_0-0_
  6
CONTINUOUS
 62
    7
 10
455.66486793512115
 20
283.74951739060231
 40
0.1
 50
90
 51
180
  0
LINE
  8
_0-0_
  6
CONTINUOUS
 62
    7
 10
456.96486793512122
 20
283.84951739060227
 11
455.66486793512115
 21
283.84951739060227
  0
ARC
  8
_0-0_
  6
CONTINUOUS
 62
    7
 10
456.96486793512122
 20
283.74951739060231
 40
0.1
 50
0
 51
90
  0
LINE
  8
_0-0_
  6
CONTINUOUS
 62
    7
 10
455.56486793512119
 20
281.64951739060228
 11
455.56486793512119
 21
283.74951739060231
  0
ARC
  8
_0-0_
  6
CONTINUOUS
 62
    7
 10
455.66486793512115
 20
281.64951739060228
 40
0.1
 50
180
 51
270
  0
LINE
  8
_0-0_
  6
CONTINUOUS
 62
    7
 10
456.96486793512122
 20
281.54951739060232
 11
455.66486793512115
 21
281.54951739060232
  0
LINE
  8
_0-0_
  6
CONTINUOUS
 62
    7
 10
457.06486793512119
 20
281.64951739060228
 11
457.06486793512119
 21
283.74951739060231
  0
ARC
  8
_0-0_
  6
CONTINUOUS
 62
    7
 10
456.96486793512122
 20
281.64951739060228
 40
0.1
 50
270
 51
0
  0
ARC
  8
_0-0_
  6
CONTINUOUS
 62
    7
 10
436.61516793512112
 20
283.74951739060231
 40
0.1
 50
90
 51
180
  0
LINE
  8
_0-0_
  6
CONTINUOUS
 62
    7
 10
437.91516793512119
 20
283.84951739060227
 11
436.61516793512112
 21
283.84951739060227
  0
ARC
  8
_0-0_
  6
CONTINUOUS
 62
    7
 10
437.91516793512119
 20
283.74951739060231
 40
0.1
 50
0
 51
90
  0
LINE
  8
_0-0_
  6
CONTINUOUS
 62
    7
 10
436.51516793512116
 20
281.64951739060228
 11
436.51516793512116
 21
283.74951739060231
  0
ARC
  8
_0-0_
  6
CONTINUOUS
 62
    7
 10
436.61516793512112
 20
281.64951739060228
 40
0.1
 50
180
 51
270
  0
LINE
  8
_0-0_
  6
CONTINUOUS
 62
    7
 10
437.91516793512119
 20
281.54951739060232
 11
436.61516793512112
 21
281.54951739060232
  0
LINE
  8
_0-0_
  6
CONTINUOUS
 62
    7
 10
438.01516793512116
 20
281.64951739060228
 11
438.01516793512116
 21
283.74951739060231
  0
ARC
  8
_0-0_
  6
CONTINUOUS
 62
    7
 10
437.91516793512119
 20
281.64951739060228
 40
0.1
 50
270
 51
0
  0
ARC
  8
_0-0_
  6
CONTINUOUS
 62
    7
 10
417.56656793512127
 20
283.74951739060231
 40
0.1
 50
90
 51
180
  0
LINE
  8
_0-0_
  6
CONTINUOUS
 62
    7
 10
418.86656793512134
 20
283.84951739060227
 11
417.56656793512127
 21
283.84951739060227
  0
ARC
  8
_0-0_
  6
CONTINUOUS
 62
    7
 10
418.86656793512134
 20
283.74951739060231
 40
0.1
 50
0
 51
90
  0
LINE
  8
_0-0_
  6
CONTINUOUS
 62
    7
 10
417.4665679351213
 20
281.64951739060228
 11
417.4665679351213
 21
283.74951739060231
  0
ARC
  8
_0-0_
  6
CONTINUOUS
 62
    7
 10
417.56656793512127
 20
281.64951739060228
 40
0.1
 50
180
 51
270
  0
LINE
  8
_0-0_
  6
CONTINUOUS
 62
    7
 10
418.86656793512134
 20
281.54951739060232
 11
417.56656793512127
 21
281.54951739060232
  0
LINE
  8
_0-0_
  6
CONTINUOUS
 62
    7
 10
418.9665679351213
 20
281.64951739060228
 11
418.9665679351213
 21
283.74951739060231
  0
ARC
  8
_0-0_
  6
CONTINUOUS
 62
    7
 10
418.86656793512134
 20
281.64951739060228
 40
0.1
 50
270
 51
0
  0
ARC
  8
_0-0_
  6
CONTINUOUS
 62
    7
 10
427.09160793512126
 20
264.69951739060235
 40
0.1
 50
90
 51
180
  0
LINE
  8
_0-0_
  6
CONTINUOUS
 62
    7
 10
428.39160793512133
 20
264.79951739060232
 11
427.09160793512126
 21
264.79951739060232
  0
ARC
  8
_0-0_
  6
CONTINUOUS
 62
    7
 10
428.39160793512133
 20
264.69951739060235
 40
0.1
 50
0
 51
90
  0
LINE
  8
_0-0_
  6
CONTINUOUS
 62
    7
 10
426.99160793512129
 20
262.59951739060233
 11
426.99160793512129
 21
264.69951739060235
  0
ARC
  8
_0-0_
  6
CONTINUOUS
 62
    7
 10
427.09160793512126
 20
262.59951739060233
 40
0.1
 50
180
 51
270
  0
LINE
  8
_0-0_
  6
CONTINUOUS
 62
    7
 10
428.39160793512133
 20
262.49951739060236
 11
427.09160793512126
 21
262.49951739060236
  0
LINE
  8
_0-0_
  6
CONTINUOUS
 62
    7
 10
428.49160793512129
 20
262.59951739060233
 11
428.49160793512129
 21
264.69951739060235
  0
ARC
  8
_0-0_
  6
CONTINUOUS
 62
    7
 10
428.39160793512133
 20
262.59951739060233
 40
0.1
 50
270
 51
0
  0
ARC
  8
_0-0_
  6
CONTINUOUS
 62
    7
 10
446.14020793512111
 20
264.69951739060235
 40
0.1
 50
90
 51
180
  0
LINE
  8
_0-0_
  6
CONTINUOUS
 62
    7
 10
447.44020793512118
 20
264.79951739060232
 11
446.14020793512111
 21
264.79951739060232
  0
ARC
  8
_0-0_
  6
CONTINUOUS
 62
    7
 10
447.44020793512118
 20
264.69951739060235
 40
0.1
 50
0
 51
90
  0
LINE
  8
_0-0_
  6
CONTINUOUS
 62
    7
 10
446.04020793512115
 20
262.59951739060233
 11
446.04020793512115
 21
264.69951739060235
  0
ARC
  8
_0-0_
  6
CONTINUOUS
 62
    7
 10
446.14020793512111
 20
262.59951739060233
 40
0.1
 50
180
 51
270
  0
LINE
  8
_0-0_
  6
CONTINUOUS
 62
    7
 10
447.44020793512118
 20
262.49951739060236
 11
446.14020793512111
 21
262.49951739060236
  0
LINE
  8
_0-0_
  6
CONTINUOUS
 62
    7
 10
447.54020793512115
 20
262.59951739060233
 11
447.54020793512115
 21
264.69951739060235
  0
ARC
  8
_0-0_
  6
CONTINUOUS
 62
    7
 10
447.44020793512118
 20
262.59951739060233
 40
0.1
 50
270
 51
0
  0
ARC
  8
_0-0_
  6
CONTINUOUS
 62
    7
 10
358.03525793512131
 20
245.64961739060226
 40
0.1
 50
90
 51
180
  0
LINE
  8
_0-0_
  6
CONTINUOUS
 62
    7
 10
359.33525793512138
 20
245.74961739060225
 11
358.03525793512131
 21
245.74961739060225
  0
ARC
  8
_0-0_
  6
CONTINUOUS
 62
    7
 10
359.33525793512138
 20
245.64961739060226
 40
0.1
 50
0
 51
90
  0
LINE
  8
_0-0_
  6
CONTINUOUS
 62
    7
 10
357.93525793512134
 20
243.54961739060224
 11
357.93525793512134
 21
245.64961739060226
  0
ARC
  8
_0-0_
  6
CONTINUOUS
 62
    7
 10
358.03525793512131
 20
243.54961739060224
 40
0.1
 50
180
 51
270
  0
LINE
  8
_0-0_
  6
CONTINUOUS
 62
    7
 10
359.33525793512138
 20
243.44961739060224
 11
358.03525793512131
 21
243.44961739060224
  0
LINE
  8
_0-0_
  6
CONTINUOUS
 62
    7
 10
359.43525793512134
 20
243.54961739060224
 11
359.43525793512134
 21
245.64961739060226
  0
ARC
  8
_0-0_
  6
CONTINUOUS
 62
    7
 10
359.33525793512138
 20
243.54961739060224
 40
0.1
 50
270
 51
0
  0
ARC
  8
_0-0_
  6
CONTINUOUS
 62
    7
 10
455.66660793512131
 20
245.64961739060226
 40
0.1
 50
90
 51
180
  0
LINE
  8
_0-0_
  6
CONTINUOUS
 62
    7
 10
456.96660793512137
 20
245.74961739060225
 11
455.66660793512131
 21
245.74961739060225
  0
ARC
  8
_0-0_
  6
CONTINUOUS
 62
    7
 10
456.96660793512137
 20
245.64961739060226
 40
0.1
 50
0
 51
90
  0
LINE
  8
_0-0_
  6
CONTINUOUS
 62
    7
 10
455.56660793512134
 20
243.54961739060224
 11
455.56660793512134
 21
245.64961739060226
  0
ARC
  8
_0-0_
  6
CONTINUOUS
 62
    7
 10
455.66660793512131
 20
243.54961739060224
 40
0.1
 50
180
 51
270
  0
LINE
  8
_0-0_
  6
CONTINUOUS
 62
    7
 10
456.96660793512137
 20
243.44961739060224
 11
455.66660793512131
 21
243.44961739060224
  0
LINE
  8
_0-0_
  6
CONTINUOUS
 62
    7
 10
457.06660793512134
 20
243.54961739060224
 11
457.06660793512134
 21
245.64961739060226
  0
ARC
  8
_0-0_
  6
CONTINUOUS
 62
    7
 10
456.96660793512137
 20
243.54961739060224
 40
0.1
 50
270
 51
0
  0
ARC
  8
_0-0_
  6
CONTINUOUS
 62
    7
 10
472.33535793512135
 20
264.69951739060235
 40
0.1
 50
90
 51
180
  0
LINE
  8
_0-0_
  6
CONTINUOUS
 62
    7
 10
473.63535793512142
 20
264.79951739060232
 11
472.33535793512135
 21
264.79951739060232
  0
ARC
  8
_0-0_
  6
CONTINUOUS
 62
    7
 10
473.63535793512142
 20
264.69951739060235
 40
0.1
 50
0
 51
90
  0
LINE
  8
_0-0_
  6
CONTINUOUS
 62
    7
 10
472.23535793512139
 20
262.59951739060233
 11
472.23535793512139
 21
264.69951739060235
  0
ARC
  8
_0-0_
  6
CONTINUOUS
 62
    7
 10
472.33535793512135
 20
262.59951739060233
 40
0.1
 50
180
 51
270
  0
LINE
  8
_0-0_
  6
CONTINUOUS
 62
    7
 10
473.63535793512142
 20
262.49951739060236
 11
472.33535793512135
 21
262.49951739060236
  0
LINE
  8
_0-0_
  6
CONTINUOUS
 62
    7
 10
473.73535793512139
 20
262.59951739060233
 11
473.73535793512139
 21
264.69951739060235
  0
ARC
  8
_0-0_
  6
CONTINUOUS
 62
    7
 10
473.63535793512142
 20
262.59951739060233
 40
0.1
 50
270
 51
0
  0
ARC
  8
_0-0_
  6
CONTINUOUS
 62
    7
 10
477.09635793512132
 20
245.64961739060226
 40
0.1
 50
90
 51
180
  0
LINE
  8
_0-0_
  6
CONTINUOUS
 62
    7
 10
478.39635793512139
 20
245.74961739060225
 11
477.09635793512132
 21
245.74961739060225
  0
ARC
  8
_0-0_
  6
CONTINUOUS
 62
    7
 10
478.39635793512139
 20
245.64961739060226
 40
0.1
 50
0
 51
90
  0
LINE
  8
_0-0_
  6
CONTINUOUS
 62
    7
 10
476.99635793512135
 20
243.54961739060224
 11
476.99635793512135
 21
245.64961739060226
  0
ARC
  8
_0-0_
  6
CONTINUOUS
 62
    7
 10
477.09635793512132
 20
243.54961739060224
 40
0.1
 50
180
 51
270
  0
LINE
  8
_0-0_
  6
CONTINUOUS
 62
    7
 10
478.39635793512139
 20
243.44961739060224
 11
477.09635793512132
 21
243.44961739060224
  0
LINE
  8
_0-0_
  6
CONTINUOUS
 62
    7
 10
478.49635793512135
 20
243.54961739060224
 11
478.49635793512135
 21
245.64961739060226
  0
ARC
  8
_0-0_
  6
CONTINUOUS
 62
    7
 10
478.39635793512139
 20
243.54961739060224
 40
0.1
 50
270
 51
0
  0
ARC
  8
_0-0_
  6
CONTINUOUS
 62
    7
 10
481.69700793512123
 20
296.57469096060237
 40
0.1
 50
180
 51
270
  0
LINE
  8
_0-0_
  6
CONTINUOUS
 62
    7
 10
481.59700793512127
 20
297.87469096060238
 11
481.59700793512127
 21
296.57469096060237
  0
ARC
  8
_0-0_
  6
CONTINUOUS
 62
    7
 10
481.69700793512123
 20
297.87469096060238
 40
0.1
 50
90
 51
180
  0
LINE
  8
_0-0_
  6
CONTINUOUS
 62
    7
 10
483.79700793512126
 20
296.4746909606024
 11
481.69700793512123
 21
296.4746909606024
  0
ARC
  8
_0-0_
  6
CONTINUOUS
 62
    7
 10
483.79700793512126
 20
296.57469096060237
 40
0.1
 50
270
 51
0
  0
LINE
  8
_0-0_
  6
CONTINUOUS
 62
    7
 10
483.89700793512122
 20
297.87469096060238
 11
483.89700793512122
 21
296.57469096060237
  0
LINE
  8
_0-0_
  6
CONTINUOUS
 62
    7
 10
483.79700793512126
 20
297.9746909606024
 11
481.69700793512123
 21
297.9746909606024
  0
ARC
  8
_0-0_
  6
CONTINUOUS
 62
    7
 10
483.79700793512126
 20
297.87469096060238
 40
0.1
 50
0
 51
90
  0
LINE
  8
_0-0_
  6
CONTINUOUS
 62
    7
 10
515.46669713187123
 20
368.89912917560235
 11
323.72841463187126
 21
368.89912917560235
  0
ARC
  8
_0-0_
  6
CONTINUOUS
 62
    7
 10
215.56648338137126
 20
245.62511096060229
 40
0.1
 50
90
 51
180
  0
LINE
  8
_0-0_
  6
CONTINUOUS
 62
    7
 10
216.86648338137127
 20
245.72511096060228
 11
215.56648338137126
 21
245.72511096060228
  0
ARC
  8
_0-0_
  6
CONTINUOUS
 62
    7
 10
216.86648338137127
 20
245.62511096060229
 40
0.1
 50
0
 51
90
  0
LINE
  8
_0-0_
  6
CONTINUOUS
 62
    7
 10
215.46648338137126
 20
243.52511096060226
 11
215.46648338137126
 21
245.62511096060229
  0
ARC
  8
_0-0_
  6
CONTINUOUS
 62
    7
 10
215.56648338137126
 20
243.52511096060226
 40
0.1
 50
180
 51
270
  0
LINE
  8
_0-0_
  6
CONTINUOUS
 62
    7
 10
216.86648338137127
 20
243.42511096060227
 11
215.56648338137126
 21
243.42511096060227
  0
LINE
  8
_0-0_
  6
CONTINUOUS
 62
    7
 10
216.96648338137126
 20
243.52511096060226
 11
216.96648338137126
 21
245.62511096060229
  0
ARC
  8
_0-0_
  6
CONTINUOUS
 62
    7
 10
216.86648338137127
 20
243.52511096060226
 40
0.1
 50
270
 51
0
  0
ARC
  8
_0-0_
  6
CONTINUOUS
 62
    7
 10
236.99778338137122
 20
245.62511096060229
 40
0.1
 50
90
 51
180
  0
LINE
  8
_0-0_
  6
CONTINUOUS
 62
    7
 10
238.29778338137123
 20
245.72511096060228
 11
236.99778338137122
 21
245.72511096060228
  0
ARC
  8
_0-0_
  6
CONTINUOUS
 62
    7
 10
238.29778338137123
 20
245.62511096060229
 40
0.1
 50
0
 51
90
  0
LINE
  8
_0-0_
  6
CONTINUOUS
 62
    7
 10
236.89778338137123
 20
243.52511096060226
 11
236.89778338137123
 21
245.62511096060229
  0
ARC
  8
_0-0_
  6
CONTINUOUS
 62
    7
 10
236.99778338137122
 20
243.52511096060226
 40
0.1
 50
180
 51
270
  0
LINE
  8
_0-0_
  6
CONTINUOUS
 62
    7
 10
238.29778338137123
 20
243.42511096060227
 11
236.99778338137122
 21
243.42511096060227
  0
LINE
  8
_0-0_
  6
CONTINUOUS
 62
    7
 10
238.39778338137123
 20
243.52511096060226
 11
238.39778338137123
 21
245.62511096060229
  0
ARC
  8
_0-0_
  6
CONTINUOUS
 62
    7
 10
238.29778338137123
 20
243.52511096060226
 40
0.1
 50
270
 51
0
  0
ARC
  8
_0-0_
  6
CONTINUOUS
 62
    7
 10
258.4292333813712
 20
245.62511096060229
 40
0.1
 50
90
 51
180
  0
LINE
  8
_0-0_
  6
CONTINUOUS
 62
    7
 10
259.72923338137127
 20
245.72511096060228
 11
258.4292333813712
 21
245.72511096060228
  0
ARC
  8
_0-0_
  6
CONTINUOUS
 62
    7
 10
259.72923338137127
 20
245.62511096060229
 40
0.1
 50
0
 51
90
  0
LINE
  8
_0-0_
  6
CONTINUOUS
 62
    7
 10
258.32923338137124
 20
243.52511096060226
 11
258.32923338137124
 21
245.62511096060229
  0
ARC
  8
_0-0_
  6
CONTINUOUS
 62
    7
 10
258.4292333813712
 20
243.52511096060226
 40
0.1
 50
180
 51
270
  0
LINE
  8
_0-0_
  6
CONTINUOUS
 62
    7
 10
259.72923338137127
 20
243.42511096060227
 11
258.4292333813712
 21
243.42511096060227
  0
LINE
  8
_0-0_
  6
CONTINUOUS
 62
    7
 10
259.82923338137124
 20
243.52511096060226
 11
259.82923338137124
 21
245.62511096060229
  0
ARC
  8
_0-0_
  6
CONTINUOUS
 62
    7
 10
259.72923338137127
 20
243.52511096060226
 40
0.1
 50
270
 51
0
  0
ARC
  8
_0-0_
  6
CONTINUOUS
 62
    7
 10
277.47913338137118
 20
245.62511096060229
 40
0.1
 50
90
 51
180
  0
LINE
  8
_0-0_
  6
CONTINUOUS
 62
    7
 10
278.77913338137125
 20
245.72511096060228
 11
277.47913338137118
 21
245.72511096060228
  0
ARC
  8
_0-0_
  6
CONTINUOUS
 62
    7
 10
278.77913338137125
 20
245.62511096060229
 40
0.1
 50
0
 51
90
  0
LINE
  8
_0-0_
  6
CONTINUOUS
 62
    7
 10
277.37913338137122
 20
243.52511096060226
 11
277.37913338137122
 21
245.62511096060229
  0
ARC
  8
_0-0_
  6
CONTINUOUS
 62
    7
 10
277.47913338137118
 20
243.52511096060226
 40
0.1
 50
180
 51
270
  0
LINE
  8
_0-0_
  6
CONTINUOUS
 62
    7
 10
278.77913338137125
 20
243.42511096060227
 11
277.47913338137118
 21
243.42511096060227
  0
LINE
  8
_0-0_
  6
CONTINUOUS
 62
    7
 10
278.87913338137122
 20
243.52511096060226
 11
278.87913338137122
 21
245.62511096060229
  0
ARC
  8
_0-0_
  6
CONTINUOUS
 62
    7
 10
278.77913338137125
 20
243.52511096060226
 40
0.1
 50
270
 51
0
  0
ARC
  8
_0-0_
  6
CONTINUOUS
 62
    7
 10
298.90963338137124
 20
245.62511096060229
 40
0.1
 50
90
 51
180
  0
LINE
  8
_0-0_
  6
CONTINUOUS
 62
    7
 10
300.20963338137119
 20
245.72511096060228
 11
298.90963338137124
 21
245.72511096060228
  0
ARC
  8
_0-0_
  6
CONTINUOUS
 62
    7
 10
300.20963338137119
 20
245.62511096060229
 40
0.1
 50
0
 51
90
  0
LINE
  8
_0-0_
  6
CONTINUOUS
 62
    7
 10
298.80963338137121
 20
243.52511096060226
 11
298.80963338137121
 21
245.62511096060229
  0
ARC
  8
_0-0_
  6
CONTINUOUS
 62
    7
 10
298.90963338137124
 20
243.52511096060226
 40
0.1
 50
180
 51
270
  0
LINE
  8
_0-0_
  6
CONTINUOUS
 62
    7
 10
300.20963338137119
 20
243.42511096060227
 11
298.90963338137124
 21
243.42511096060227
  0
LINE
  8
_0-0_
  6
CONTINUOUS
 62
    7
 10
300.30963338137121
 20
243.52511096060226
 11
300.30963338137121
 21
245.62511096060229
  0
ARC
  8
_0-0_
  6
CONTINUOUS
 62
    7
 10
300.20963338137119
 20
243.52511096060226
 40
0.1
 50
270
 51
0
  0
ENDSEC
  0
EOF
