  0
SECTION
  2
HEADER
  9
$ACADVER
  1
AC1009
  9
$INSBASE
 10
0
 20
0
 30
0
  9
$EXTMIN
 10
0
 20
0
  9
$EXTMAX
 10
841
 20
594
  9
$LIMMIN
 10
0
 20
0
  9
$LIMMAX
 10
841
 20
594
  9
$LTSCALE
 40
1
  0
ENDSEC
  0
SECTION
  2
TABLES
  0
TABLE
  2
LTYPE
 70
     9
  0
LTYPE
  2
CONTINUOUS
 70
    64
  3
実線
 72
    65
 73
     0
 40
0.0
  0
LTYPE
  2
DASHED1
 70
    64
  3
--  --  --  --  --  --  --  --  
 72
    65
 73
     2
 40
2.5
 49
1.25
 49
-1.25
  0
LTYPE
  2
DASHED2
 70
    64
  3
----    ----    ----    ----    
 72
    65
 73
     2
 40
5.0
 49
2.5
 49
-2.5
  0
LTYPE
  2
DASHED3
 70
    64
  3
------  ------  ------  ------  
 72
    65
 73
     2
 40
5.0
 49
3.75
 49
-1.25
  0
LTYPE
  2
CENTER1
 70
    64
  3
----- - ----- - ----- - ----- - 
 72
    65
 73
     4
 40
10.0
 49
6.25
 49
-1.25
 49
1.25
 49
-1.25
  0
LTYPE
  2
CENTER2
 70
    64
  3
----------  --  ----------  --  
 72
    65
 73
     4
 40
20.0
 49
12.5
 49
-2.5
 49
2.5
 49
-2.5
  0
LTYPE
  2
PHANTOM1
 70
    64
  3
--- - - --- - - --- - - --- - - 
 72
    65
 73
     6
 40
10.0
 49
3.25
 49
-1.25
 49
1.25
 49
-1.25
 49
1.25
 49
-1.25
  0
LTYPE
  2
PHANTOM2
 70
    64
  3
--------  -  -  --------  -  -  
 72
    65
 73
     6
 40
20.0
 49
10.0
 49
-2.5
 49
1.25
 49
-2.5
 49
1.25
 49
-2.5
  0
LTYPE
  2
DOT
 70
    64
  3
-   -   -   -   -   -   -   -   
 72
    65
 73
     2
 40
2.5
 49
0.625
 49
-1.875
  0
LTYPE
  2
DUMMY
 70
    64
  3
ダミー
 72
    65
 73
     0
 40
0.0
  0
LTYPE
  2
RAND1
 70
    64
  3
ランダム線1
 72
    65
 73
     4
 40
10.0
 49
1.0
 49
-2.0
 49
3.0
 49
-4.0
  0
LTYPE
  2
RAND2
 70
    64
  3
ランダム線2
 72
    65
 73
     4
 40
14.0
 49
2.0
 49
-3.0
 49
4.0
 49
-5.0
  0
LTYPE
  2
RAND3
 70
    64
  3
ランダム線3
 72
    65
 73
     4
 40
18.0
 49
3.0
 49
-4.0
 49
5.0
 49
-6.0
  0
LTYPE
  2
RAND4
 70
    64
  3
ランダム線4
 72
    65
 73
     4
 40
22.0
 49
4.0
 49
-5.0
 49
6.0
 49
-7.0
  0
LTYPE
  2
RAND5
 70
    64
  3
ランダム線5
 72
    65
 73
     4
 40
26.0
 49
5.0
 49
-6.0
 49
7.0
 49
-8.0
  0
LTYPE
  2
LONG1
 70
    64
  3
----------  --  ----------  --  
 72
    65
 73
     4
 40
40.0
 49
32.5
 49
-2.5
 49
2.5
 49
-2.5
  0
LTYPE
  2
LONG2
 70
    64
  3
--------  -  -  --------  -  -  
 72
    65
 73
     6
 40
40.0
 49
30.0
 49
-2.5
 49
1.25
 49
-2.5
 49
1.25
 49
-2.5
  0
LTYPE
  2
LONG3
 70
    64
  3
+++++++++++++++..+++++++++++++++
 72
    65
 73
     2
 40
40.0
 49
37.5
 49
-2.5
  0
LTYPE
  2
LONG4
 70
    64
  3
+++++++++++++++..+++++++++++++++
 72
    65
 73
     2
 40
80.0
 49
75.0
 49
-5.0
  0
LTYPE
  2
LONG5
 70
    64
  3
----------  --  ----------  --  
 72
    65
 73
     4
 40
60.0
 49
37.5
 49
-7.5
 49
7.5
 49
-7.5
  0
LTYPE
  2
dashed
 70
   64
  3
-------   -------------   ------
 72
   65
 73
    2
 40
7.5
 49
6
 49
-1.5
  0
LTYPE
  2
dashed_spaced
 70
   64
  3
----        --------        ----
 72
   65
 73
    2
 40
12
 49
6
 49
-6
  0
LTYPE
  2
long_dashed_dotted
 70
   64
  3
------------- --- --------------
 72
   65
 73
    4
 40
15.25
 49
12
 49
-1.5
 49
0.25
 49
-1.5
  0
LTYPE
  2
long_dashed_double-dotted
 70
   64
  3
----------- --- --- ------------
 72
   65
 73
    6
 40
17
 49
12
 49
-1.5
 49
0.25
 49
-1.5
 49
0.25
 49
-1.5
  0
LTYPE
  2
long_dashed_triplicate-dotted
 70
   64
  3
--------- --- --- --- ----------
 72
   65
 73
    8
 40
18.75
 49
12
 49
-1.5
 49
0.25
 49
-1.5
 49
0.25
 49
-1.5
 49
0.25
 49
-1.5
  0
LTYPE
  2
dotted
 70
   64
  3
   -       -       -       -    
 72
   65
 73
    2
 40
1.75
 49
0.25
 49
-1.5
  0
LTYPE
  2
chain
 70
   64
  3
-------------- -- --------------
 72
   65
 73
    4
 40
18.5
 49
12
 49
-1.5
 49
3.5
 49
-1.5
  0
LTYPE
  2
chain_double_dash
 70
   64
  3
------------ -- -- -------------
 72
   65
 73
    6
 40
23.5
 49
12
 49
-1.5
 49
3.5
 49
-1.5
 49
3.5
 49
-1.5
  0
LTYPE
  2
dashed_dotted
 70
   64
  3
-----------     -     ----------
 72
   65
 73
    4
 40
9.25
 49
6
 49
-1.5
 49
0.25
 49
-1.5
  0
LTYPE
  2
double-dashed_dotted
 70
   64
  3
------   -----------   -   -----
 72
   65
 73
    6
 40
16.75
 49
6
 49
-1.5
 49
6
 49
-1.5
 49
0.25
 49
-1.5
  0
LTYPE
  2
dashed_double-dotted
 70
   64
  3
---------    -    -    ---------
 72
   65
 73
    6
 40
11
 49
6
 49
-1.5
 49
0.25
 49
-1.5
 49
0.25
 49
-1.5
  0
LTYPE
  2
double-dashed_double-dotted
 70
   64
  3
-----   ---------   -   -   ----
 72
   65
 73
    8
 40
18.5
 49
6
 49
-1.5
 49
6
 49
-1.5
 49
0.25
 49
-1.5
 49
0.25
 49
-1.5
  0
LTYPE
  2
dashed_triplicate-dotted
 70
   64
  3
-------    -    -    -    ------
 72
   65
 73
    8
 40
12.75
 49
6
 49
-1.5
 49
0.25
 49
-1.5
 49
0.25
 49
-1.5
 49
0.25
 49
-1.5
  0
LTYPE
  2
double-dashed_triplicate-dotted
 70
   64
  3
-----  ---------  -  -  -  -----
 72
   65
 73
   10
 40
20.25
 49
6
 49
-1.5
 49
6
 49
-1.5
 49
0.25
 49
-1.5
 49
0.25
 49
-1.5
 49
0.25
 49
-1.5
  0
LTYPE
  2
undefined
 70
   64
  3
--------------------------------
 72
   65
 73
    0
 40
0
  0
LTYPE
  2
_
 70
   64
  3
                                
 72
   65
 73
    0
 40
0
  0
LTYPE
  2
__18
 70
   64
  3
                                
 72
   65
 73
    0
 40
0
  0
LTYPE
  2
__19
 70
   64
  3
                                
 72
   65
 73
    0
 40
0
  0
LTYPE
  2
__20
 70
   64
  3
                                
 72
   65
 73
    0
 40
0
  0
LTYPE
  2
__21
 70
   64
  3
                                
 72
   65
 73
    0
 40
0
  0
LTYPE
  2
__22
 70
   64
  3
                                
 72
   65
 73
    0
 40
0
  0
LTYPE
  2
__23
 70
   64
  3
                                
 72
   65
 73
    0
 40
0
  0
LTYPE
  2
__24
 70
   64
  3
                                
 72
   65
 73
    0
 40
0
  0
LTYPE
  2
__25
 70
   64
  3
                                
 72
   65
 73
    0
 40
0
  0
LTYPE
  2
__26
 70
   64
  3
                                
 72
   65
 73
    0
 40
0
  0
LTYPE
  2
__27
 70
   64
  3
                                
 72
   65
 73
    0
 40
0
  0
LTYPE
  2
__28
 70
   64
  3
                                
 72
   65
 73
    0
 40
0
  0
LTYPE
  2
__29
 70
   64
  3
                                
 72
   65
 73
    0
 40
0
  0
LTYPE
  2
__30
 70
   64
  3
                                
 72
   65
 73
    0
 40
0
  0
LTYPE
  2
__31
 70
   64
  3
                                
 72
   65
 73
    0
 40
0
  0
LTYPE
  2
__32
 70
   64
  3
                                
 72
   65
 73
    0
 40
0
  0
ENDTAB
  0
TABLE
  2
STYLE
  5
3
100
AcDbSymbolTable
 70
     1
  0
STYLE
  5
10
100
AcDbSymbolTableRecord
100
AcDbTextStyleTableRecord
  2
STANDARD
 70
     0
 40
0.0
 41
1.0
 50
0.0
 71
     0
 42
0.2
  3
txt
  4
bigfont.shx
  0
STYLE
  5
26
100
AcDbSymbolTableRecord
100
AcDbTextStyleTableRecord
  2
TATEGAKI
 70
    68
 40
0.0
 41
1.0
 50
0.0
 71
     0
 42
1.0
  3
txt
  4
bigfont.shx
  0
ENDTAB
  0
TABLE
  2
LAYER
 70
    2
  0
LAYER
  2
_0-0_
 70
   64
 62
    7
  6
CONTINUOUS
  0
LAYER
  2
ADD_LINE
 70
   64
 62
    7
  6
CONTINUOUS
  0
ENDTAB
  0
ENDSEC
  0
SECTION
  2
BLOCKS
  0
ENDSEC
  0
SECTION
  2
ENTITIES
  0
LINE
  8
_0-0_
  6
CONTINUOUS
 62
    7
 10
268.4628738095239
 20
264.58571113591267
 11
268.4628738095239
 21
392.41044613591271
  0
LINE
  8
_0-0_
  6
CONTINUOUS
 62
    7
 10
271.4628738095239
 20
395.41044613591271
 11
434.62474130952387
 21
395.41044613591271
  0
ARC
  8
_0-0_
  6
CONTINUOUS
 62
    7
 10
271.4628738095239
 20
392.41044613591271
 40
3
 50
90
 51
180
  0
ARC
  8
_0-0_
  6
CONTINUOUS
 62
    7
 10
445.62474130952387
 20
324.96688169828673
 40
10
 50
180
 51
194.03713868216576
  0
ARC
  8
_0-0_
  6
CONTINUOUS
 62
    7
 10
434.62474130952387
 20
394.41044613591276
 40
1
 50
0
 51
90
  0
LINE
  8
_0-0_
  6
CONTINUOUS
 62
    7
 10
444.85177341496956
 20
286.83006840289983
 11
435.92335420407812
 21
322.54137386892552
  0
ARC
  8
_0-0_
  6
CONTINUOUS
 62
    7
 10
435.15038630952381
 20
284.40456057353862
 40
10
 50
0
 51
14.037138682165798
  0
ARC
  8
_0-0_
  6
CONTINUOUS
 62
    7
 10
444.15038630952381
 20
262.58571113591267
 40
1
 50
270
 51
0
  0
LINE
  8
_0-0_
  6
CONTINUOUS
 62
    7
 10
271.4628738095239
 20
261.58571113591267
 11
444.15038630952381
 21
261.58571113591267
  0
ARC
  8
_0-0_
  6
CONTINUOUS
 62
    7
 10
271.4628738095239
 20
264.58571113591267
 40
3
 50
180
 51
270
  0
CIRCLE
  8
_0-0_
  6
CONTINUOUS
 62
    7
 10
271.4628738095239
 20
392.41044613591271
 40
1.1000000000000001
  0
CIRCLE
  8
_0-0_
  6
CONTINUOUS
 62
    7
 10
271.4628738095239
 20
264.58571113591267
 40
1.1000000000000001
  0
CIRCLE
  8
_0-0_
  6
CONTINUOUS
 62
    7
 10
442.15038630952381
 20
264.58571113591267
 40
1.1000000000000001
  0
CIRCLE
  8
_0-0_
  6
CONTINUOUS
 62
    7
 10
432.62474130952387
 20
392.41044613591271
 40
1.1000000000000001
  0
LINE
  8
_0-0_
  6
CONTINUOUS
 62
    7
 10
445.15038630952381
 20
284.40456057353862
 11
445.15038630952381
 21
262.58571113591267
  0
LINE
  8
_0-0_
  6
CONTINUOUS
 62
    7
 10
435.62474130952387
 20
394.41044613591276
 11
435.62474130952387
 21
324.96688169828673
  0
CIRCLE
  8
_0-0_
  6
CONTINUOUS
 62
    7
 10
288.31287380952392
 20
390.38571113591269
 40
1
  0
LINE
  8
_0-0_
  6
CONTINUOUS
 62
    7
 10
406.93046005902386
 20
283.0859279209127
 11
420.93146005902383
 21
283.0859279209127
  0
LINE
  8
_0-0_
  6
CONTINUOUS
 62
    7
 10
420.93146005902383
 20
283.0859279209127
 11
420.93146005902383
 21
269.08645792091272
  0
LINE
  8
_0-0_
  6
CONTINUOUS
 62
    7
 10
420.93146005902383
 20
269.08645792091272
 11
406.93046005902386
 21
269.08645792091272
  0
LINE
  8
_0-0_
  6
CONTINUOUS
 62
    7
 10
406.93046005902386
 20
269.08645792091272
 11
406.93046005902386
 21
283.0859279209127
  0
LINE
  8
_0-0_
  6
CONTINUOUS
 62
    7
 10
385.50046005902385
 20
283.0859279209127
 11
399.50046005902385
 21
283.0859279209127
  0
LINE
  8
_0-0_
  6
CONTINUOUS
 62
    7
 10
399.50046005902385
 20
283.0859279209127
 11
399.50046005902385
 21
269.08645792091272
  0
LINE
  8
_0-0_
  6
CONTINUOUS
 62
    7
 10
399.50046005902385
 20
269.08645792091272
 11
385.50046005902385
 21
269.08645792091272
  0
LINE
  8
_0-0_
  6
CONTINUOUS
 62
    7
 10
385.50046005902385
 20
269.08645792091272
 11
385.50046005902385
 21
283.0859279209127
  0
LINE
  8
_0-0_
  6
CONTINUOUS
 62
    7
 10
366.4506600590239
 20
283.0859279209127
 11
380.45046005902384
 21
283.0859279209127
  0
LINE
  8
_0-0_
  6
CONTINUOUS
 62
    7
 10
380.45046005902384
 20
283.0859279209127
 11
380.45046005902384
 21
269.08645792091272
  0
LINE
  8
_0-0_
  6
CONTINUOUS
 62
    7
 10
380.45046005902384
 20
269.08645792091272
 11
366.4506600590239
 21
269.08645792091272
  0
LINE
  8
_0-0_
  6
CONTINUOUS
 62
    7
 10
366.4506600590239
 20
269.08645792091272
 11
366.4506600590239
 21
283.0859279209127
  0
LINE
  8
_0-0_
  6
CONTINUOUS
 62
    7
 10
345.01946005902386
 20
283.0859279209127
 11
359.01876005902386
 21
283.0859279209127
  0
LINE
  8
_0-0_
  6
CONTINUOUS
 62
    7
 10
359.01876005902386
 20
283.0859279209127
 11
359.01876005902386
 21
269.08645792091272
  0
LINE
  8
_0-0_
  6
CONTINUOUS
 62
    7
 10
359.01876005902386
 20
269.08645792091272
 11
345.01946005902386
 21
269.08645792091272
  0
LINE
  8
_0-0_
  6
CONTINUOUS
 62
    7
 10
345.01946005902386
 20
269.08645792091272
 11
345.01946005902386
 21
283.0859279209127
  0
LINE
  8
_0-0_
  6
CONTINUOUS
 62
    7
 10
323.58816005902389
 20
283.0859279209127
 11
337.5874600590239
 21
283.0859279209127
  0
LINE
  8
_0-0_
  6
CONTINUOUS
 62
    7
 10
337.5874600590239
 20
283.0859279209127
 11
337.5874600590239
 21
269.08645792091272
  0
LINE
  8
_0-0_
  6
CONTINUOUS
 62
    7
 10
337.5874600590239
 20
269.08645792091272
 11
323.58816005902389
 21
269.08645792091272
  0
LINE
  8
_0-0_
  6
CONTINUOUS
 62
    7
 10
323.58816005902389
 20
269.08645792091272
 11
323.58816005902389
 21
283.0859279209127
  0
LINE
  8
_0-0_
  6
CONTINUOUS
 62
    7
 10
302.15546005902388
 20
283.0859279209127
 11
316.15626005902385
 21
283.0859279209127
  0
LINE
  8
_0-0_
  6
CONTINUOUS
 62
    7
 10
316.15626005902385
 20
283.0859279209127
 11
316.15626005902385
 21
269.08645792091272
  0
LINE
  8
_0-0_
  6
CONTINUOUS
 62
    7
 10
316.15626005902385
 20
269.08645792091272
 11
302.15546005902388
 21
269.08645792091272
  0
LINE
  8
_0-0_
  6
CONTINUOUS
 62
    7
 10
302.15546005902388
 20
269.08645792091272
 11
302.15546005902388
 21
283.0859279209127
  0
LINE
  8
_0-0_
  6
CONTINUOUS
 62
    7
 10
275.96311005902385
 20
283.0859279209127
 11
289.96266005902385
 21
283.0859279209127
  0
LINE
  8
_0-0_
  6
CONTINUOUS
 62
    7
 10
289.96266005902385
 20
283.0859279209127
 11
289.96266005902385
 21
269.08645792091272
  0
LINE
  8
_0-0_
  6
CONTINUOUS
 62
    7
 10
289.96266005902385
 20
269.08645792091272
 11
275.96311005902385
 21
269.08645792091272
  0
LINE
  8
_0-0_
  6
CONTINUOUS
 62
    7
 10
275.96311005902385
 20
269.08645792091272
 11
275.96311005902385
 21
283.0859279209127
  0
LINE
  8
_0-0_
  6
CONTINUOUS
 62
    7
 10
418.83846005902387
 20
302.13582792091273
 11
432.8374600590239
 21
302.13582792091273
  0
LINE
  8
_0-0_
  6
CONTINUOUS
 62
    7
 10
432.8374600590239
 20
302.13582792091273
 11
432.8374600590239
 21
288.13642792091269
  0
LINE
  8
_0-0_
  6
CONTINUOUS
 62
    7
 10
432.8374600590239
 20
288.13642792091269
 11
418.83846005902387
 21
288.13642792091269
  0
LINE
  8
_0-0_
  6
CONTINUOUS
 62
    7
 10
418.83846005902387
 20
288.13642792091269
 11
418.83846005902387
 21
302.13582792091273
  0
LINE
  8
_0-0_
  6
CONTINUOUS
 62
    7
 10
399.78846005902386
 20
302.13582792091273
 11
413.78746005902383
 21
302.13582792091273
  0
LINE
  8
_0-0_
  6
CONTINUOUS
 62
    7
 10
413.78746005902383
 20
302.13582792091273
 11
413.78746005902383
 21
288.13642792091269
  0
LINE
  8
_0-0_
  6
CONTINUOUS
 62
    7
 10
413.78746005902383
 20
288.13642792091269
 11
399.78846005902386
 21
288.13642792091269
  0
LINE
  8
_0-0_
  6
CONTINUOUS
 62
    7
 10
399.78846005902386
 20
288.13642792091269
 11
399.78846005902386
 21
302.13582792091273
  0
LINE
  8
_0-0_
  6
CONTINUOUS
 62
    7
 10
380.73846005902385
 20
302.13582792091273
 11
394.73746005902387
 21
302.13582792091273
  0
LINE
  8
_0-0_
  6
CONTINUOUS
 62
    7
 10
394.73746005902387
 20
302.13582792091273
 11
394.73746005902387
 21
288.13642792091269
  0
LINE
  8
_0-0_
  6
CONTINUOUS
 62
    7
 10
394.73746005902387
 20
288.13642792091269
 11
380.73846005902385
 21
288.13642792091269
  0
LINE
  8
_0-0_
  6
CONTINUOUS
 62
    7
 10
380.73846005902385
 20
288.13642792091269
 11
380.73846005902385
 21
302.13582792091273
  0
LINE
  8
_0-0_
  6
CONTINUOUS
 62
    7
 10
361.68816005902386
 20
302.13582792091273
 11
375.68746005902386
 21
302.13582792091273
  0
LINE
  8
_0-0_
  6
CONTINUOUS
 62
    7
 10
375.68746005902386
 20
302.13582792091273
 11
375.68746005902386
 21
288.13642792091269
  0
LINE
  8
_0-0_
  6
CONTINUOUS
 62
    7
 10
375.68746005902386
 20
288.13642792091269
 11
361.68816005902386
 21
288.13642792091269
  0
LINE
  8
_0-0_
  6
CONTINUOUS
 62
    7
 10
361.68816005902386
 20
288.13642792091269
 11
361.68816005902386
 21
302.13582792091273
  0
LINE
  8
_0-0_
  6
CONTINUOUS
 62
    7
 10
342.6381600590239
 20
302.13582792091273
 11
356.63746005902385
 21
302.13582792091273
  0
LINE
  8
_0-0_
  6
CONTINUOUS
 62
    7
 10
356.63746005902385
 20
302.13582792091273
 11
356.63746005902385
 21
288.13642792091269
  0
LINE
  8
_0-0_
  6
CONTINUOUS
 62
    7
 10
356.63746005902385
 20
288.13642792091269
 11
342.6381600590239
 21
288.13642792091269
  0
LINE
  8
_0-0_
  6
CONTINUOUS
 62
    7
 10
342.6381600590239
 20
288.13642792091269
 11
342.6381600590239
 21
302.13582792091273
  0
LINE
  8
_0-0_
  6
CONTINUOUS
 62
    7
 10
275.96311005902385
 20
302.13582792091273
 11
289.96266005902385
 21
302.13582792091273
  0
LINE
  8
_0-0_
  6
CONTINUOUS
 62
    7
 10
289.96266005902385
 20
302.13582792091273
 11
289.96266005902385
 21
288.13642792091269
  0
LINE
  8
_0-0_
  6
CONTINUOUS
 62
    7
 10
289.96266005902385
 20
288.13642792091269
 11
275.96311005902385
 21
288.13642792091269
  0
LINE
  8
_0-0_
  6
CONTINUOUS
 62
    7
 10
275.96311005902385
 20
288.13642792091269
 11
275.96311005902385
 21
302.13582792091273
  0
LINE
  8
_0-0_
  6
CONTINUOUS
 62
    7
 10
409.3134600590239
 20
321.18582792091269
 11
423.31246005902386
 21
321.18582792091269
  0
LINE
  8
_0-0_
  6
CONTINUOUS
 62
    7
 10
423.31246005902386
 20
321.18582792091269
 11
423.31246005902386
 21
307.18662792091271
  0
LINE
  8
_0-0_
  6
CONTINUOUS
 62
    7
 10
423.31246005902386
 20
307.18662792091271
 11
409.3134600590239
 21
307.18662792091271
  0
LINE
  8
_0-0_
  6
CONTINUOUS
 62
    7
 10
409.3134600590239
 20
307.18662792091271
 11
409.3134600590239
 21
321.18582792091269
  0
LINE
  8
_0-0_
  6
CONTINUOUS
 62
    7
 10
390.26346005902388
 20
321.18582792091269
 11
404.26246005902385
 21
321.18582792091269
  0
LINE
  8
_0-0_
  6
CONTINUOUS
 62
    7
 10
404.26246005902385
 20
321.18582792091269
 11
404.26246005902385
 21
307.18662792091271
  0
LINE
  8
_0-0_
  6
CONTINUOUS
 62
    7
 10
404.26246005902385
 20
307.18662792091271
 11
390.26346005902388
 21
307.18662792091271
  0
LINE
  8
_0-0_
  6
CONTINUOUS
 62
    7
 10
390.26346005902388
 20
307.18662792091271
 11
390.26346005902388
 21
321.18582792091269
  0
LINE
  8
_0-0_
  6
CONTINUOUS
 62
    7
 10
371.21316005902383
 20
321.18582792091269
 11
385.2124600590239
 21
321.18582792091269
  0
LINE
  8
_0-0_
  6
CONTINUOUS
 62
    7
 10
385.2124600590239
 20
321.18582792091269
 11
385.2124600590239
 21
307.18662792091271
  0
LINE
  8
_0-0_
  6
CONTINUOUS
 62
    7
 10
385.2124600590239
 20
307.18662792091271
 11
371.21316005902383
 21
307.18662792091271
  0
LINE
  8
_0-0_
  6
CONTINUOUS
 62
    7
 10
371.21316005902383
 20
307.18662792091271
 11
371.21316005902383
 21
321.18582792091269
  0
LINE
  8
_0-0_
  6
CONTINUOUS
 62
    7
 10
352.16316005902388
 20
321.18582792091269
 11
366.16246005902389
 21
321.18582792091269
  0
LINE
  8
_0-0_
  6
CONTINUOUS
 62
    7
 10
366.16246005902389
 20
321.18582792091269
 11
366.16246005902389
 21
307.18662792091271
  0
LINE
  8
_0-0_
  6
CONTINUOUS
 62
    7
 10
366.16246005902389
 20
307.18662792091271
 11
352.16316005902388
 21
307.18662792091271
  0
LINE
  8
_0-0_
  6
CONTINUOUS
 62
    7
 10
352.16316005902388
 20
307.18662792091271
 11
352.16316005902388
 21
321.18582792091269
  0
LINE
  8
_0-0_
  6
CONTINUOUS
 62
    7
 10
333.11316005902387
 20
321.18582792091269
 11
347.11246005902387
 21
321.18582792091269
  0
LINE
  8
_0-0_
  6
CONTINUOUS
 62
    7
 10
347.11246005902387
 20
321.18582792091269
 11
347.11246005902387
 21
307.18662792091271
  0
LINE
  8
_0-0_
  6
CONTINUOUS
 62
    7
 10
347.11246005902387
 20
307.18662792091271
 11
333.11316005902387
 21
307.18662792091271
  0
LINE
  8
_0-0_
  6
CONTINUOUS
 62
    7
 10
333.11316005902387
 20
307.18662792091271
 11
333.11316005902387
 21
321.18582792091269
  0
LINE
  8
_0-0_
  6
CONTINUOUS
 62
    7
 10
306.91936005902386
 20
321.18582792091269
 11
320.91876005902384
 21
321.18582792091269
  0
LINE
  8
_0-0_
  6
CONTINUOUS
 62
    7
 10
320.91876005902384
 20
321.18582792091269
 11
320.91876005902384
 21
307.18662792091271
  0
LINE
  8
_0-0_
  6
CONTINUOUS
 62
    7
 10
320.91876005902384
 20
307.18662792091271
 11
306.91936005902386
 21
307.18662792091271
  0
LINE
  8
_0-0_
  6
CONTINUOUS
 62
    7
 10
306.91936005902386
 20
307.18662792091271
 11
306.91936005902386
 21
321.18582792091269
  0
LINE
  8
_0-0_
  6
CONTINUOUS
 62
    7
 10
275.96311005902385
 20
321.18582792091269
 11
289.96266005902385
 21
321.18582792091269
  0
LINE
  8
_0-0_
  6
CONTINUOUS
 62
    7
 10
289.96266005902385
 20
321.18582792091269
 11
289.96266005902385
 21
307.18662792091271
  0
LINE
  8
_0-0_
  6
CONTINUOUS
 62
    7
 10
289.96266005902385
 20
307.18662792091271
 11
275.96311005902385
 21
307.18662792091271
  0
LINE
  8
_0-0_
  6
CONTINUOUS
 62
    7
 10
275.96311005902385
 20
307.18662792091271
 11
275.96311005902385
 21
321.18582792091269
  0
LINE
  8
_0-0_
  6
CONTINUOUS
 62
    7
 10
404.55046005902386
 20
340.2358279209127
 11
418.55046005902386
 21
340.2358279209127
  0
LINE
  8
_0-0_
  6
CONTINUOUS
 62
    7
 10
418.55046005902386
 20
340.2358279209127
 11
418.55046005902386
 21
326.23662792091272
  0
LINE
  8
_0-0_
  6
CONTINUOUS
 62
    7
 10
418.55046005902386
 20
326.23662792091272
 11
404.55046005902386
 21
326.23662792091272
  0
LINE
  8
_0-0_
  6
CONTINUOUS
 62
    7
 10
404.55046005902386
 20
326.23662792091272
 11
404.55046005902386
 21
340.2358279209127
  0
LINE
  8
_0-0_
  6
CONTINUOUS
 62
    7
 10
385.50046005902385
 20
340.2358279209127
 11
399.50046005902385
 21
340.2358279209127
  0
LINE
  8
_0-0_
  6
CONTINUOUS
 62
    7
 10
399.50046005902385
 20
340.2358279209127
 11
399.50046005902385
 21
326.23662792091272
  0
LINE
  8
_0-0_
  6
CONTINUOUS
 62
    7
 10
399.50046005902385
 20
326.23662792091272
 11
385.50046005902385
 21
326.23662792091272
  0
LINE
  8
_0-0_
  6
CONTINUOUS
 62
    7
 10
385.50046005902385
 20
326.23662792091272
 11
385.50046005902385
 21
340.2358279209127
  0
LINE
  8
_0-0_
  6
CONTINUOUS
 62
    7
 10
366.4506600590239
 20
340.2358279209127
 11
380.45046005902384
 21
340.2358279209127
  0
LINE
  8
_0-0_
  6
CONTINUOUS
 62
    7
 10
380.45046005902384
 20
340.2358279209127
 11
380.45046005902384
 21
326.23662792091272
  0
LINE
  8
_0-0_
  6
CONTINUOUS
 62
    7
 10
380.45046005902384
 20
326.23662792091272
 11
366.4506600590239
 21
326.23662792091272
  0
LINE
  8
_0-0_
  6
CONTINUOUS
 62
    7
 10
366.4506600590239
 20
326.23662792091272
 11
366.4506600590239
 21
340.2358279209127
  0
LINE
  8
_0-0_
  6
CONTINUOUS
 62
    7
 10
347.40066005902383
 20
340.2358279209127
 11
361.3999600590239
 21
340.2358279209127
  0
LINE
  8
_0-0_
  6
CONTINUOUS
 62
    7
 10
361.3999600590239
 20
340.2358279209127
 11
361.3999600590239
 21
326.23662792091272
  0
LINE
  8
_0-0_
  6
CONTINUOUS
 62
    7
 10
361.3999600590239
 20
326.23662792091272
 11
347.40066005902383
 21
326.23662792091272
  0
LINE
  8
_0-0_
  6
CONTINUOUS
 62
    7
 10
347.40066005902383
 20
326.23662792091272
 11
347.40066005902383
 21
340.2358279209127
  0
LINE
  8
_0-0_
  6
CONTINUOUS
 62
    7
 10
328.35066005902388
 20
340.2358279209127
 11
342.34996005902389
 21
340.2358279209127
  0
LINE
  8
_0-0_
  6
CONTINUOUS
 62
    7
 10
342.34996005902389
 20
340.2358279209127
 11
342.34996005902389
 21
326.23662792091272
  0
LINE
  8
_0-0_
  6
CONTINUOUS
 62
    7
 10
342.34996005902389
 20
326.23662792091272
 11
328.35066005902388
 21
326.23662792091272
  0
LINE
  8
_0-0_
  6
CONTINUOUS
 62
    7
 10
328.35066005902388
 20
326.23662792091272
 11
328.35066005902388
 21
340.2358279209127
  0
LINE
  8
_0-0_
  6
CONTINUOUS
 62
    7
 10
304.53816005902388
 20
340.2358279209127
 11
318.53746005902389
 21
340.2358279209127
  0
LINE
  8
_0-0_
  6
CONTINUOUS
 62
    7
 10
318.53746005902389
 20
340.2358279209127
 11
318.53746005902389
 21
326.23662792091272
  0
LINE
  8
_0-0_
  6
CONTINUOUS
 62
    7
 10
318.53746005902389
 20
326.23662792091272
 11
304.53816005902388
 21
326.23662792091272
  0
LINE
  8
_0-0_
  6
CONTINUOUS
 62
    7
 10
304.53816005902388
 20
326.23662792091272
 11
304.53816005902388
 21
340.2358279209127
  0
LINE
  8
_0-0_
  6
CONTINUOUS
 62
    7
 10
275.96311005902385
 20
340.2358279209127
 11
289.96266005902385
 21
340.2358279209127
  0
LINE
  8
_0-0_
  6
CONTINUOUS
 62
    7
 10
289.96266005902385
 20
340.2358279209127
 11
289.96266005902385
 21
326.23662792091272
  0
LINE
  8
_0-0_
  6
CONTINUOUS
 62
    7
 10
289.96266005902385
 20
326.23662792091272
 11
275.96311005902385
 21
326.23662792091272
  0
LINE
  8
_0-0_
  6
CONTINUOUS
 62
    7
 10
275.96311005902385
 20
326.23662792091272
 11
275.96311005902385
 21
340.2358279209127
  0
LINE
  8
_0-0_
  6
CONTINUOUS
 62
    7
 10
414.07546005902384
 20
359.28582792091271
 11
428.07546005902384
 21
359.28582792091271
  0
LINE
  8
_0-0_
  6
CONTINUOUS
 62
    7
 10
428.07546005902384
 20
359.28582792091271
 11
428.07546005902384
 21
345.28662792091274
  0
LINE
  8
_0-0_
  6
CONTINUOUS
 62
    7
 10
428.07546005902384
 20
345.28662792091274
 11
414.07546005902384
 21
345.28662792091274
  0
LINE
  8
_0-0_
  6
CONTINUOUS
 62
    7
 10
414.07546005902384
 20
345.28662792091274
 11
414.07546005902384
 21
359.28582792091271
  0
LINE
  8
_0-0_
  6
CONTINUOUS
 62
    7
 10
395.02546005902389
 20
359.28582792091271
 11
409.02546005902389
 21
359.28582792091271
  0
LINE
  8
_0-0_
  6
CONTINUOUS
 62
    7
 10
409.02546005902389
 20
359.28582792091271
 11
409.02546005902389
 21
345.28662792091274
  0
LINE
  8
_0-0_
  6
CONTINUOUS
 62
    7
 10
409.02546005902389
 20
345.28662792091274
 11
395.02546005902389
 21
345.28662792091274
  0
LINE
  8
_0-0_
  6
CONTINUOUS
 62
    7
 10
395.02546005902389
 20
345.28662792091274
 11
395.02546005902389
 21
359.28582792091271
  0
LINE
  8
_0-0_
  6
CONTINUOUS
 62
    7
 10
375.97546005902387
 20
359.28582792091271
 11
389.97546005902387
 21
359.28582792091271
  0
LINE
  8
_0-0_
  6
CONTINUOUS
 62
    7
 10
389.97546005902387
 20
359.28582792091271
 11
389.97546005902387
 21
345.28662792091274
  0
LINE
  8
_0-0_
  6
CONTINUOUS
 62
    7
 10
389.97546005902387
 20
345.28662792091274
 11
375.97546005902387
 21
345.28662792091274
  0
LINE
  8
_0-0_
  6
CONTINUOUS
 62
    7
 10
375.97546005902387
 20
345.28662792091274
 11
375.97546005902387
 21
359.28582792091271
  0
LINE
  8
_0-0_
  6
CONTINUOUS
 62
    7
 10
356.92566005902387
 20
359.28582792091271
 11
370.92496005902387
 21
359.28582792091271
  0
LINE
  8
_0-0_
  6
CONTINUOUS
 62
    7
 10
370.92496005902387
 20
359.28582792091271
 11
370.92496005902387
 21
345.28662792091274
  0
LINE
  8
_0-0_
  6
CONTINUOUS
 62
    7
 10
370.92496005902387
 20
345.28662792091274
 11
356.92566005902387
 21
345.28662792091274
  0
LINE
  8
_0-0_
  6
CONTINUOUS
 62
    7
 10
356.92566005902387
 20
345.28662792091274
 11
356.92566005902387
 21
359.28582792091271
  0
LINE
  8
_0-0_
  6
CONTINUOUS
 62
    7
 10
337.87566005902386
 20
359.28582792091271
 11
351.87496005902386
 21
359.28582792091271
  0
LINE
  8
_0-0_
  6
CONTINUOUS
 62
    7
 10
351.87496005902386
 20
359.28582792091271
 11
351.87496005902386
 21
345.28662792091274
  0
LINE
  8
_0-0_
  6
CONTINUOUS
 62
    7
 10
351.87496005902386
 20
345.28662792091274
 11
337.87566005902386
 21
345.28662792091274
  0
LINE
  8
_0-0_
  6
CONTINUOUS
 62
    7
 10
337.87566005902386
 20
345.28662792091274
 11
337.87566005902386
 21
359.28582792091271
  0
LINE
  8
_0-0_
  6
CONTINUOUS
 62
    7
 10
318.82566005902385
 20
359.28582792091271
 11
332.82496005902385
 21
359.28582792091271
  0
LINE
  8
_0-0_
  6
CONTINUOUS
 62
    7
 10
332.82496005902385
 20
359.28582792091271
 11
332.82496005902385
 21
345.28662792091274
  0
LINE
  8
_0-0_
  6
CONTINUOUS
 62
    7
 10
332.82496005902385
 20
345.28662792091274
 11
318.82566005902385
 21
345.28662792091274
  0
LINE
  8
_0-0_
  6
CONTINUOUS
 62
    7
 10
318.82566005902385
 20
345.28662792091274
 11
318.82566005902385
 21
359.28582792091271
  0
LINE
  8
_0-0_
  6
CONTINUOUS
 62
    7
 10
299.77566005902389
 20
359.28582792091271
 11
313.7749600590239
 21
359.28582792091271
  0
LINE
  8
_0-0_
  6
CONTINUOUS
 62
    7
 10
313.7749600590239
 20
359.28582792091271
 11
313.7749600590239
 21
345.28662792091274
  0
LINE
  8
_0-0_
  6
CONTINUOUS
 62
    7
 10
313.7749600590239
 20
345.28662792091274
 11
299.77566005902389
 21
345.28662792091274
  0
LINE
  8
_0-0_
  6
CONTINUOUS
 62
    7
 10
299.77566005902389
 20
345.28662792091274
 11
299.77566005902389
 21
359.28582792091271
  0
LINE
  8
_0-0_
  6
CONTINUOUS
 62
    7
 10
275.96311005902385
 20
359.28582792091271
 11
289.96266005902385
 21
359.28582792091271
  0
LINE
  8
_0-0_
  6
CONTINUOUS
 62
    7
 10
289.96266005902385
 20
359.28582792091271
 11
289.96266005902385
 21
345.28662792091274
  0
LINE
  8
_0-0_
  6
CONTINUOUS
 62
    7
 10
289.96266005902385
 20
345.28662792091274
 11
275.96311005902385
 21
345.28662792091274
  0
LINE
  8
_0-0_
  6
CONTINUOUS
 62
    7
 10
275.96311005902385
 20
345.28662792091274
 11
275.96311005902385
 21
359.28582792091271
  0
LINE
  8
_0-0_
  6
CONTINUOUS
 62
    7
 10
414.07546005902384
 20
387.86042792091268
 11
428.07546005902384
 21
387.86042792091268
  0
LINE
  8
_0-0_
  6
CONTINUOUS
 62
    7
 10
428.07546005902384
 20
387.86042792091268
 11
428.07546005902384
 21
373.86142792091272
  0
LINE
  8
_0-0_
  6
CONTINUOUS
 62
    7
 10
428.07546005902384
 20
373.86142792091272
 11
414.07546005902384
 21
373.86142792091272
  0
LINE
  8
_0-0_
  6
CONTINUOUS
 62
    7
 10
414.07546005902384
 20
373.86142792091272
 11
414.07546005902384
 21
387.86042792091268
  0
LINE
  8
_0-0_
  6
CONTINUOUS
 62
    7
 10
385.50046005902385
 20
387.86042792091268
 11
399.50046005902385
 21
387.86042792091268
  0
LINE
  8
_0-0_
  6
CONTINUOUS
 62
    7
 10
399.50046005902385
 20
387.86042792091268
 11
399.50046005902385
 21
373.86142792091272
  0
LINE
  8
_0-0_
  6
CONTINUOUS
 62
    7
 10
399.50046005902385
 20
373.86142792091272
 11
385.50046005902385
 21
373.86142792091272
  0
LINE
  8
_0-0_
  6
CONTINUOUS
 62
    7
 10
385.50046005902385
 20
373.86142792091272
 11
385.50046005902385
 21
387.86042792091268
  0
LINE
  8
_0-0_
  6
CONTINUOUS
 62
    7
 10
366.4506600590239
 20
387.86042792091268
 11
380.45046005902384
 21
387.86042792091268
  0
LINE
  8
_0-0_
  6
CONTINUOUS
 62
    7
 10
380.45046005902384
 20
387.86042792091268
 11
380.45046005902384
 21
373.86142792091272
  0
LINE
  8
_0-0_
  6
CONTINUOUS
 62
    7
 10
380.45046005902384
 20
373.86142792091272
 11
366.4506600590239
 21
373.86142792091272
  0
LINE
  8
_0-0_
  6
CONTINUOUS
 62
    7
 10
366.4506600590239
 20
373.86142792091272
 11
366.4506600590239
 21
387.86042792091268
  0
LINE
  8
_0-0_
  6
CONTINUOUS
 62
    7
 10
347.40066005902383
 20
387.86042792091268
 11
361.3999600590239
 21
387.86042792091268
  0
LINE
  8
_0-0_
  6
CONTINUOUS
 62
    7
 10
361.3999600590239
 20
387.86042792091268
 11
361.3999600590239
 21
373.86142792091272
  0
LINE
  8
_0-0_
  6
CONTINUOUS
 62
    7
 10
361.3999600590239
 20
373.86142792091272
 11
347.40066005902383
 21
373.86142792091272
  0
LINE
  8
_0-0_
  6
CONTINUOUS
 62
    7
 10
347.40066005902383
 20
373.86142792091272
 11
347.40066005902383
 21
387.86042792091268
  0
LINE
  8
_0-0_
  6
CONTINUOUS
 62
    7
 10
328.35066005902388
 20
387.86042792091268
 11
342.34996005902389
 21
387.86042792091268
  0
LINE
  8
_0-0_
  6
CONTINUOUS
 62
    7
 10
342.34996005902389
 20
387.86042792091268
 11
342.34996005902389
 21
373.86142792091272
  0
LINE
  8
_0-0_
  6
CONTINUOUS
 62
    7
 10
342.34996005902389
 20
373.86142792091272
 11
328.35066005902388
 21
373.86142792091272
  0
LINE
  8
_0-0_
  6
CONTINUOUS
 62
    7
 10
328.35066005902388
 20
373.86142792091272
 11
328.35066005902388
 21
387.86042792091268
  0
LINE
  8
_0-0_
  6
CONTINUOUS
 62
    7
 10
299.77566005902389
 20
387.86042792091268
 11
313.7749600590239
 21
387.86042792091268
  0
LINE
  8
_0-0_
  6
CONTINUOUS
 62
    7
 10
313.7749600590239
 20
387.86042792091268
 11
313.7749600590239
 21
373.86142792091272
  0
LINE
  8
_0-0_
  6
CONTINUOUS
 62
    7
 10
313.7749600590239
 20
373.86142792091272
 11
299.77566005902389
 21
373.86142792091272
  0
LINE
  8
_0-0_
  6
CONTINUOUS
 62
    7
 10
299.77566005902389
 20
373.86142792091272
 11
299.77566005902389
 21
387.86042792091268
  0
LINE
  8
_0-0_
  6
CONTINUOUS
 62
    7
 10
311.68056005902389
 20
297.46141613591266
 11
311.68056005902389
 21
302.18540435091268
  0
LINE
  8
_0-0_
  6
CONTINUOUS
 62
    7
 10
310.30519880952392
 20
301.16071613591265
 11
303.30519880952392
 21
301.16071613591265
  0
LINE
  8
_0-0_
  6
CONTINUOUS
 62
    7
 10
303.30519880952392
 20
287.66071613591265
 11
303.30519880952392
 21
301.16071613591265
  0
LINE
  8
_0-0_
  6
CONTINUOUS
 62
    7
 10
310.30519880952392
 20
287.66071613591265
 11
303.30519880952392
 21
287.66071613591265
  0
LINE
  8
_0-0_
  6
CONTINUOUS
 62
    7
 10
334.10519880952398
 20
287.66071613591265
 11
327.10519880952398
 21
287.66071613591265
  0
LINE
  8
_0-0_
  6
CONTINUOUS
 62
    7
 10
334.10519880952398
 20
301.16071613591265
 11
327.10519880952398
 21
301.16071613591265
  0
LINE
  8
_0-0_
  6
CONTINUOUS
 62
    7
 10
334.10519880952398
 20
287.66071613591265
 11
334.10519880952398
 21
301.16071613591265
  0
LINE
  8
_0-0_
  6
CONTINUOUS
 62
    7
 10
310.30519880952392
 20
297.46141613591266
 11
310.30519880952392
 21
301.16071613591265
  0
LINE
  8
_0-0_
  6
CONTINUOUS
 62
    7
 10
310.30519880952392
 20
287.66071613591265
 11
310.30519880952392
 21
292.86151613591267
  0
LINE
  8
_0-0_
  6
CONTINUOUS
 62
    7
 10
327.10519880952398
 20
287.66071613591265
 11
327.10519880952398
 21
292.86151613591267
  0
LINE
  8
_0-0_
  6
CONTINUOUS
 62
    7
 10
327.10519880952398
 20
297.46141613591266
 11
327.10519880952398
 21
301.16071613591265
  0
LINE
  8
_0-0_
  6
CONTINUOUS
 62
    7
 10
311.68056005902389
 20
302.18540435091268
 11
325.72983756002401
 21
302.18540435091268
  0
LINE
  8
_0-0_
  6
CONTINUOUS
 62
    7
 10
325.72983756002401
 20
288.13642792091269
 11
311.68056005902389
 21
288.13642792091269
  0
LINE
  8
_0-0_
  6
CONTINUOUS
 62
    7
 10
311.68056005902389
 20
297.46141613591266
 11
310.30519880952392
 21
297.46141613591266
  0
LINE
  8
_0-0_
  6
CONTINUOUS
 62
    7
 10
310.30519880952392
 20
292.86151613591267
 11
311.68056005902389
 21
292.86151613591267
  0
LINE
  8
_0-0_
  6
CONTINUOUS
 62
    7
 10
311.68056005902389
 20
288.13642792091269
 11
311.68056005902389
 21
292.86151613591267
  0
LINE
  8
_0-0_
  6
CONTINUOUS
 62
    7
 10
325.72983756002401
 20
302.18540435091268
 11
325.72983756002401
 21
297.46141613591266
  0
LINE
  8
_0-0_
  6
CONTINUOUS
 62
    7
 10
327.10519880952398
 20
297.46141613591266
 11
325.72983756002401
 21
297.46141613591266
  0
LINE
  8
_0-0_
  6
CONTINUOUS
 62
    7
 10
325.72983756002401
 20
292.86151613591267
 11
325.72983756002401
 21
288.13642792091269
  0
LINE
  8
_0-0_
  6
CONTINUOUS
 62
    7
 10
325.72983756002401
 20
292.86151613591267
 11
327.10519880952398
 21
292.86151613591267
  0
ENDSEC
  0
EOF
