  0
SECTION
  2
HEADER
  9
$ACADVER
  1
AC1009
  9
$INSBASE
 10
0
 20
0
 30
0
  9
$EXTMIN
 10
0
 20
0
  9
$EXTMAX
 10
841
 20
594
  9
$LIMMIN
 10
0
 20
0
  9
$LIMMAX
 10
841
 20
594
  9
$LTSCALE
 40
1
  0
ENDSEC
  0
SECTION
  2
TABLES
  0
TABLE
  2
LTYPE
 70
     9
  0
LTYPE
  2
CONTINUOUS
 70
    64
  3
実線
 72
    65
 73
     0
 40
0.0
  0
LTYPE
  2
DASHED1
 70
    64
  3
--  --  --  --  --  --  --  --  
 72
    65
 73
     2
 40
2.5
 49
1.25
 49
-1.25
  0
LTYPE
  2
DASHED2
 70
    64
  3
----    ----    ----    ----    
 72
    65
 73
     2
 40
5.0
 49
2.5
 49
-2.5
  0
LTYPE
  2
DASHED3
 70
    64
  3
------  ------  ------  ------  
 72
    65
 73
     2
 40
5.0
 49
3.75
 49
-1.25
  0
LTYPE
  2
CENTER1
 70
    64
  3
----- - ----- - ----- - ----- - 
 72
    65
 73
     4
 40
10.0
 49
6.25
 49
-1.25
 49
1.25
 49
-1.25
  0
LTYPE
  2
CENTER2
 70
    64
  3
----------  --  ----------  --  
 72
    65
 73
     4
 40
20.0
 49
12.5
 49
-2.5
 49
2.5
 49
-2.5
  0
LTYPE
  2
PHANTOM1
 70
    64
  3
--- - - --- - - --- - - --- - - 
 72
    65
 73
     6
 40
10.0
 49
3.25
 49
-1.25
 49
1.25
 49
-1.25
 49
1.25
 49
-1.25
  0
LTYPE
  2
PHANTOM2
 70
    64
  3
--------  -  -  --------  -  -  
 72
    65
 73
     6
 40
20.0
 49
10.0
 49
-2.5
 49
1.25
 49
-2.5
 49
1.25
 49
-2.5
  0
LTYPE
  2
DOT
 70
    64
  3
-   -   -   -   -   -   -   -   
 72
    65
 73
     2
 40
2.5
 49
0.625
 49
-1.875
  0
LTYPE
  2
DUMMY
 70
    64
  3
ダミー
 72
    65
 73
     0
 40
0.0
  0
LTYPE
  2
RAND1
 70
    64
  3
ランダム線1
 72
    65
 73
     4
 40
10.0
 49
1.0
 49
-2.0
 49
3.0
 49
-4.0
  0
LTYPE
  2
RAND2
 70
    64
  3
ランダム線2
 72
    65
 73
     4
 40
14.0
 49
2.0
 49
-3.0
 49
4.0
 49
-5.0
  0
LTYPE
  2
RAND3
 70
    64
  3
ランダム線3
 72
    65
 73
     4
 40
18.0
 49
3.0
 49
-4.0
 49
5.0
 49
-6.0
  0
LTYPE
  2
RAND4
 70
    64
  3
ランダム線4
 72
    65
 73
     4
 40
22.0
 49
4.0
 49
-5.0
 49
6.0
 49
-7.0
  0
LTYPE
  2
RAND5
 70
    64
  3
ランダム線5
 72
    65
 73
     4
 40
26.0
 49
5.0
 49
-6.0
 49
7.0
 49
-8.0
  0
LTYPE
  2
LONG1
 70
    64
  3
----------  --  ----------  --  
 72
    65
 73
     4
 40
40.0
 49
32.5
 49
-2.5
 49
2.5
 49
-2.5
  0
LTYPE
  2
LONG2
 70
    64
  3
--------  -  -  --------  -  -  
 72
    65
 73
     6
 40
40.0
 49
30.0
 49
-2.5
 49
1.25
 49
-2.5
 49
1.25
 49
-2.5
  0
LTYPE
  2
LONG3
 70
    64
  3
+++++++++++++++..+++++++++++++++
 72
    65
 73
     2
 40
40.0
 49
37.5
 49
-2.5
  0
LTYPE
  2
LONG4
 70
    64
  3
+++++++++++++++..+++++++++++++++
 72
    65
 73
     2
 40
80.0
 49
75.0
 49
-5.0
  0
LTYPE
  2
LONG5
 70
    64
  3
----------  --  ----------  --  
 72
    65
 73
     4
 40
60.0
 49
37.5
 49
-7.5
 49
7.5
 49
-7.5
  0
LTYPE
  2
dashed
 70
   64
  3
-------   -------------   ------
 72
   65
 73
    2
 40
7.5
 49
6
 49
-1.5
  0
LTYPE
  2
dashed_spaced
 70
   64
  3
----        --------        ----
 72
   65
 73
    2
 40
12
 49
6
 49
-6
  0
LTYPE
  2
long_dashed_dotted
 70
   64
  3
------------- --- --------------
 72
   65
 73
    4
 40
15.25
 49
12
 49
-1.5
 49
0.25
 49
-1.5
  0
LTYPE
  2
long_dashed_double-dotted
 70
   64
  3
----------- --- --- ------------
 72
   65
 73
    6
 40
17
 49
12
 49
-1.5
 49
0.25
 49
-1.5
 49
0.25
 49
-1.5
  0
LTYPE
  2
long_dashed_triplicate-dotted
 70
   64
  3
--------- --- --- --- ----------
 72
   65
 73
    8
 40
18.75
 49
12
 49
-1.5
 49
0.25
 49
-1.5
 49
0.25
 49
-1.5
 49
0.25
 49
-1.5
  0
LTYPE
  2
dotted
 70
   64
  3
   -       -       -       -    
 72
   65
 73
    2
 40
1.75
 49
0.25
 49
-1.5
  0
LTYPE
  2
chain
 70
   64
  3
-------------- -- --------------
 72
   65
 73
    4
 40
18.5
 49
12
 49
-1.5
 49
3.5
 49
-1.5
  0
LTYPE
  2
chain_double_dash
 70
   64
  3
------------ -- -- -------------
 72
   65
 73
    6
 40
23.5
 49
12
 49
-1.5
 49
3.5
 49
-1.5
 49
3.5
 49
-1.5
  0
LTYPE
  2
dashed_dotted
 70
   64
  3
-----------     -     ----------
 72
   65
 73
    4
 40
9.25
 49
6
 49
-1.5
 49
0.25
 49
-1.5
  0
LTYPE
  2
double-dashed_dotted
 70
   64
  3
------   -----------   -   -----
 72
   65
 73
    6
 40
16.75
 49
6
 49
-1.5
 49
6
 49
-1.5
 49
0.25
 49
-1.5
  0
LTYPE
  2
dashed_double-dotted
 70
   64
  3
---------    -    -    ---------
 72
   65
 73
    6
 40
11
 49
6
 49
-1.5
 49
0.25
 49
-1.5
 49
0.25
 49
-1.5
  0
LTYPE
  2
double-dashed_double-dotted
 70
   64
  3
-----   ---------   -   -   ----
 72
   65
 73
    8
 40
18.5
 49
6
 49
-1.5
 49
6
 49
-1.5
 49
0.25
 49
-1.5
 49
0.25
 49
-1.5
  0
LTYPE
  2
dashed_triplicate-dotted
 70
   64
  3
-------    -    -    -    ------
 72
   65
 73
    8
 40
12.75
 49
6
 49
-1.5
 49
0.25
 49
-1.5
 49
0.25
 49
-1.5
 49
0.25
 49
-1.5
  0
LTYPE
  2
double-dashed_triplicate-dotted
 70
   64
  3
-----  ---------  -  -  -  -----
 72
   65
 73
   10
 40
20.25
 49
6
 49
-1.5
 49
6
 49
-1.5
 49
0.25
 49
-1.5
 49
0.25
 49
-1.5
 49
0.25
 49
-1.5
  0
LTYPE
  2
undefined
 70
   64
  3
--------------------------------
 72
   65
 73
    0
 40
0
  0
LTYPE
  2
_
 70
   64
  3
                                
 72
   65
 73
    0
 40
0
  0
LTYPE
  2
__18
 70
   64
  3
                                
 72
   65
 73
    0
 40
0
  0
LTYPE
  2
__19
 70
   64
  3
                                
 72
   65
 73
    0
 40
0
  0
LTYPE
  2
__20
 70
   64
  3
                                
 72
   65
 73
    0
 40
0
  0
LTYPE
  2
__21
 70
   64
  3
                                
 72
   65
 73
    0
 40
0
  0
LTYPE
  2
__22
 70
   64
  3
                                
 72
   65
 73
    0
 40
0
  0
LTYPE
  2
__23
 70
   64
  3
                                
 72
   65
 73
    0
 40
0
  0
LTYPE
  2
__24
 70
   64
  3
                                
 72
   65
 73
    0
 40
0
  0
LTYPE
  2
__25
 70
   64
  3
                                
 72
   65
 73
    0
 40
0
  0
LTYPE
  2
__26
 70
   64
  3
                                
 72
   65
 73
    0
 40
0
  0
LTYPE
  2
__27
 70
   64
  3
                                
 72
   65
 73
    0
 40
0
  0
LTYPE
  2
__28
 70
   64
  3
                                
 72
   65
 73
    0
 40
0
  0
LTYPE
  2
__29
 70
   64
  3
                                
 72
   65
 73
    0
 40
0
  0
LTYPE
  2
__30
 70
   64
  3
                                
 72
   65
 73
    0
 40
0
  0
LTYPE
  2
__31
 70
   64
  3
                                
 72
   65
 73
    0
 40
0
  0
LTYPE
  2
__32
 70
   64
  3
                                
 72
   65
 73
    0
 40
0
  0
ENDTAB
  0
TABLE
  2
STYLE
  5
3
100
AcDbSymbolTable
 70
     1
  0
STYLE
  5
10
100
AcDbSymbolTableRecord
100
AcDbTextStyleTableRecord
  2
STANDARD
 70
     0
 40
0.0
 41
1.0
 50
0.0
 71
     0
 42
0.2
  3
txt
  4
bigfont.shx
  0
STYLE
  5
26
100
AcDbSymbolTableRecord
100
AcDbTextStyleTableRecord
  2
TATEGAKI
 70
    68
 40
0.0
 41
1.0
 50
0.0
 71
     0
 42
1.0
  3
txt
  4
bigfont.shx
  0
ENDTAB
  0
TABLE
  2
LAYER
 70
    2
  0
LAYER
  2
_0-0_
 70
   64
 62
    7
  6
CONTINUOUS
  0
LAYER
  2
ADD_LINE
 70
   64
 62
    7
  6
CONTINUOUS
  0
ENDTAB
  0
ENDSEC
  0
SECTION
  2
BLOCKS
  0
ENDSEC
  0
SECTION
  2
ENTITIES
  0
LINE
  8
_0-0_
  6
CONTINUOUS
 62
    7
 10
268.4628738095239
 20
264.58571113591267
 11
268.4628738095239
 21
392.41044613591271
  0
LINE
  8
_0-0_
  6
CONTINUOUS
 62
    7
 10
271.4628738095239
 20
395.41044613591271
 11
434.62474130952387
 21
395.41044613591271
  0
ARC
  8
_0-0_
  6
CONTINUOUS
 62
    7
 10
271.4628738095239
 20
392.41044613591271
 40
3
 50
90
 51
180
  0
ARC
  8
_0-0_
  6
CONTINUOUS
 62
    7
 10
445.62474130952387
 20
324.96688169828673
 40
10
 50
180
 51
194.03713868216576
  0
ARC
  8
_0-0_
  6
CONTINUOUS
 62
    7
 10
434.62474130952387
 20
394.41044613591276
 40
1
 50
0
 51
90
  0
LINE
  8
_0-0_
  6
CONTINUOUS
 62
    7
 10
444.85177341496956
 20
286.83006840289983
 11
435.92335420407812
 21
322.54137386892552
  0
ARC
  8
_0-0_
  6
CONTINUOUS
 62
    7
 10
435.15038630952381
 20
284.40456057353862
 40
10
 50
0
 51
14.037138682165798
  0
ARC
  8
_0-0_
  6
CONTINUOUS
 62
    7
 10
444.15038630952381
 20
262.58571113591267
 40
1
 50
270
 51
0
  0
LINE
  8
_0-0_
  6
CONTINUOUS
 62
    7
 10
271.4628738095239
 20
261.58571113591267
 11
444.15038630952381
 21
261.58571113591267
  0
ARC
  8
_0-0_
  6
CONTINUOUS
 62
    7
 10
271.4628738095239
 20
264.58571113591267
 40
3
 50
180
 51
270
  0
CIRCLE
  8
_0-0_
  6
CONTINUOUS
 62
    7
 10
271.4628738095239
 20
392.41044613591271
 40
1.1000000000000001
  0
CIRCLE
  8
_0-0_
  6
CONTINUOUS
 62
    7
 10
271.4628738095239
 20
264.58571113591267
 40
1.1000000000000001
  0
CIRCLE
  8
_0-0_
  6
CONTINUOUS
 62
    7
 10
442.15038630952381
 20
264.58571113591267
 40
1.1000000000000001
  0
CIRCLE
  8
_0-0_
  6
CONTINUOUS
 62
    7
 10
432.62474130952387
 20
392.41044613591271
 40
1.1000000000000001
  0
LINE
  8
_0-0_
  6
CONTINUOUS
 62
    7
 10
445.15038630952381
 20
284.40456057353862
 11
445.15038630952381
 21
262.58571113591267
  0
LINE
  8
_0-0_
  6
CONTINUOUS
 62
    7
 10
435.62474130952387
 20
394.41044613591276
 11
435.62474130952387
 21
324.96688169828673
  0
ARC
  8
_0-0_
  6
CONTINUOUS
 62
    7
 10
273.46247380952389
 20
361.83654292091273
 40
0.5
 50
90
 51
180
  0
LINE
  8
_0-0_
  6
CONTINUOUS
 62
    7
 10
292.51302380952393
 20
362.33654292091273
 11
273.46247380952389
 21
362.33654292091273
  0
ARC
  8
_0-0_
  6
CONTINUOUS
 62
    7
 10
292.51302380952393
 20
361.83654292091273
 40
0.5
 50
0
 51
90
  0
LINE
  8
_0-0_
  6
CONTINUOUS
 62
    7
 10
272.96247380952389
 20
266.58617292091276
 11
272.96247380952389
 21
361.83654292091273
  0
ARC
  8
_0-0_
  6
CONTINUOUS
 62
    7
 10
273.46247380952389
 20
266.58617292091276
 40
0.5
 50
180
 51
270
  0
LINE
  8
_0-0_
  6
CONTINUOUS
 62
    7
 10
293.01302380952393
 20
266.58617292091276
 11
293.01302380952393
 21
361.83654292091273
  0
LINE
  8
_0-0_
  6
CONTINUOUS
 62
    7
 10
292.51302380952393
 20
266.08617292091276
 11
273.46247380952389
 21
266.08617292091276
  0
ARC
  8
_0-0_
  6
CONTINUOUS
 62
    7
 10
292.51302380952393
 20
266.58617292091276
 40
0.5
 50
270
 51
0
  0
ARC
  8
_0-0_
  6
CONTINUOUS
 62
    7
 10
297.27502380952399
 20
266.58617292091276
 40
0.5
 50
180
 51
270
  0
LINE
  8
_0-0_
  6
CONTINUOUS
 62
    7
 10
425.86082380952388
 20
266.08617292091276
 11
297.27502380952399
 21
266.08617292091276
  0
ARC
  8
_0-0_
  6
CONTINUOUS
 62
    7
 10
425.86082380952388
 20
266.58617292091276
 40
0.5
 50
270
 51
0
  0
LINE
  8
_0-0_
  6
CONTINUOUS
 62
    7
 10
426.36082380952388
 20
284.63614292091273
 11
426.36082380952388
 21
266.58617292091276
  0
ARC
  8
_0-0_
  6
CONTINUOUS
 62
    7
 10
426.86082380952388
 20
284.63614292091273
 40
0.5
 50
90
 51
180
  0
LINE
  8
_0-0_
  6
CONTINUOUS
 62
    7
 10
435.38782380952398
 20
285.13614292091273
 11
426.86082380952388
 21
285.13614292091273
  0
ARC
  8
_0-0_
  6
CONTINUOUS
 62
    7
 10
435.38782380952398
 20
285.63614292091273
 40
0.5
 50
270
 51
0
  0
LINE
  8
_0-0_
  6
CONTINUOUS
 62
    7
 10
435.88782380952398
 20
304.68654292091276
 11
435.88782380952398
 21
285.63614292091273
  0
ARC
  8
_0-0_
  6
CONTINUOUS
 62
    7
 10
435.38782380952398
 20
304.68654292091276
 40
0.5
 50
0
 51
90
  0
LINE
  8
_0-0_
  6
CONTINUOUS
 62
    7
 10
426.86282380952395
 20
305.18654292091276
 11
435.38782380952398
 21
305.18654292091276
  0
ARC
  8
_0-0_
  6
CONTINUOUS
 62
    7
 10
426.86282380952395
 20
305.68654292091276
 40
0.5
 50
180
 51
270
  0
LINE
  8
_0-0_
  6
CONTINUOUS
 62
    7
 10
426.36282380952395
 20
323.73654292091271
 11
426.36282380952395
 21
305.68654292091276
  0
ARC
  8
_0-0_
  6
CONTINUOUS
 62
    7
 10
425.86282380952395
 20
323.73654292091271
 40
0.5
 50
0
 51
90
  0
LINE
  8
_0-0_
  6
CONTINUOUS
 62
    7
 10
422.10082380952394
 20
324.23654292091271
 11
425.86282380952395
 21
324.23654292091271
  0
ARC
  8
_0-0_
  6
CONTINUOUS
 62
    7
 10
422.10082380952394
 20
324.73654292091271
 40
0.5
 50
180
 51
270
  0
LINE
  8
_0-0_
  6
CONTINUOUS
 62
    7
 10
421.60082380952394
 20
341.78634292091277
 11
421.60082380952394
 21
324.73654292091271
  0
ARC
  8
_0-0_
  6
CONTINUOUS
 62
    7
 10
422.10082380952394
 20
341.78634292091277
 40
0.5
 50
90
 51
180
  0
LINE
  8
_0-0_
  6
CONTINUOUS
 62
    7
 10
430.62582380952392
 20
342.28634292091277
 11
422.10082380952394
 21
342.28634292091277
  0
ARC
  8
_0-0_
  6
CONTINUOUS
 62
    7
 10
430.62582380952392
 20
342.78634292091277
 40
0.5
 50
270
 51
0
  0
LINE
  8
_0-0_
  6
CONTINUOUS
 62
    7
 10
431.12582380952392
 20
361.83654292091273
 11
431.12582380952392
 21
342.78634292091277
  0
ARC
  8
_0-0_
  6
CONTINUOUS
 62
    7
 10
430.62582380952392
 20
361.83654292091273
 40
0.5
 50
0
 51
90
  0
ARC
  8
_0-0_
  6
CONTINUOUS
 62
    7
 10
430.62582380952392
 20
371.36114292091276
 40
0.5
 50
270
 51
0
  0
LINE
  8
_0-0_
  6
CONTINUOUS
 62
    7
 10
297.27502380952399
 20
362.33654292091273
 11
430.62582380952392
 21
362.33654292091273
  0
LINE
  8
_0-0_
  6
CONTINUOUS
 62
    7
 10
296.77502380952399
 20
361.83654292091273
 11
296.77502380952399
 21
266.58617292091276
  0
ARC
  8
_0-0_
  6
CONTINUOUS
 62
    7
 10
297.27502380952399
 20
361.83654292091273
 40
0.5
 50
90
 51
180
  0
ARC
  8
_0-0_
  6
CONTINUOUS
 62
    7
 10
297.27502380952399
 20
371.36114292091276
 40
0.5
 50
180
 51
270
  0
LINE
  8
_0-0_
  6
CONTINUOUS
 62
    7
 10
316.32532380952398
 20
370.86114292091276
 11
297.27502380952399
 21
370.86114292091276
  0
ARC
  8
_0-0_
  6
CONTINUOUS
 62
    7
 10
316.32532380952398
 20
371.36114292091276
 40
0.5
 50
270
 51
0
  0
ARC
  8
_0-0_
  6
CONTINUOUS
 62
    7
 10
325.85002380952392
 20
371.36114292091276
 40
0.5
 50
180
 51
270
  0
LINE
  8
_0-0_
  6
CONTINUOUS
 62
    7
 10
296.77502380952399
 20
390.41114292091271
 11
296.77502380952399
 21
371.36114292091276
  0
ARC
  8
_0-0_
  6
CONTINUOUS
 62
    7
 10
297.27502380952399
 20
390.41114292091271
 40
0.5
 50
90
 51
180
  0
LINE
  8
_0-0_
  6
CONTINUOUS
 62
    7
 10
316.32532380952398
 20
390.91114292091271
 11
297.27502380952399
 21
390.91114292091271
  0
LINE
  8
_0-0_
  6
CONTINUOUS
 62
    7
 10
316.82532380952398
 20
390.41114292091271
 11
316.82532380952398
 21
371.36114292091276
  0
ARC
  8
_0-0_
  6
CONTINUOUS
 62
    7
 10
316.32532380952398
 20
390.41114292091271
 40
0.5
 50
0
 51
90
  0
LINE
  8
_0-0_
  6
CONTINUOUS
 62
    7
 10
325.35002380952392
 20
390.41114292091271
 11
325.35002380952392
 21
371.36114292091276
  0
ARC
  8
_0-0_
  6
CONTINUOUS
 62
    7
 10
325.85002380952392
 20
390.41114292091271
 40
0.5
 50
90
 51
180
  0
LINE
  8
_0-0_
  6
CONTINUOUS
 62
    7
 10
402.05082380952393
 20
370.86114292091276
 11
325.85002380952392
 21
370.86114292091276
  0
ARC
  8
_0-0_
  6
CONTINUOUS
 62
    7
 10
402.05082380952393
 20
371.36114292091276
 40
0.5
 50
270
 51
0
  0
LINE
  8
_0-0_
  6
CONTINUOUS
 62
    7
 10
402.55082380952393
 20
390.41114292091271
 11
402.55082380952393
 21
371.36114292091276
  0
LINE
  8
_0-0_
  6
CONTINUOUS
 62
    7
 10
402.05082380952393
 20
390.91114292091271
 11
325.85002380952392
 21
390.91114292091271
  0
ARC
  8
_0-0_
  6
CONTINUOUS
 62
    7
 10
402.05082380952393
 20
390.41114292091271
 40
0.5
 50
0
 51
90
  0
ARC
  8
_0-0_
  6
CONTINUOUS
 62
    7
 10
411.57482380952388
 20
390.41114292091271
 40
0.5
 50
90
 51
180
  0
LINE
  8
_0-0_
  6
CONTINUOUS
 62
    7
 10
411.07482380952388
 20
371.36114292091276
 11
411.07482380952388
 21
390.41114292091271
  0
LINE
  8
_0-0_
  6
CONTINUOUS
 62
    7
 10
411.57482380952388
 20
370.86114292091276
 11
430.62582380952392
 21
370.86114292091276
  0
ARC
  8
_0-0_
  6
CONTINUOUS
 62
    7
 10
411.57482380952388
 20
371.36114292091276
 40
0.5
 50
180
 51
270
  0
LINE
  8
_0-0_
  6
CONTINUOUS
 62
    7
 10
430.62582380952392
 20
390.91114292091271
 11
411.57482380952388
 21
390.91114292091271
  0
LINE
  8
_0-0_
  6
CONTINUOUS
 62
    7
 10
431.12582380952392
 20
390.41114292091271
 11
431.12582380952392
 21
371.36114292091276
  0
ARC
  8
_0-0_
  6
CONTINUOUS
 62
    7
 10
430.62582380952392
 20
390.41114292091271
 40
0.5
 50
0
 51
90
  0
LINE
  8
_0-0_
  6
CONTINUOUS
 62
    7
 10
446.15038630952387
 20
283.08571113591267
 11
446.15038630952387
 21
284.40456057353856
  0
ARC
  8
_0-0_
  6
CONTINUOUS
 62
    7
 10
446.62474130952387
 20
324.96688169828673
 40
10
 50
180
 51
194.03713868216576
  0
LINE
  8
_0-0_
  6
CONTINUOUS
 62
    7
 10
445.85177341496956
 20
286.83006840289977
 11
436.92335420407818
 21
322.54137386892552
  0
ARC
  8
_0-0_
  6
CONTINUOUS
 62
    7
 10
437.62474130952387
 20
394.41044613591276
 40
1
 50
90
 51
180
  0
ARC
  8
_0-0_
  6
CONTINUOUS
 62
    7
 10
447.15038630952387
 20
262.58571113591262
 40
1
 50
180
 51
270
  0
LINE
  8
_0-0_
  6
CONTINUOUS
 62
    7
 10
629.36302380952384
 20
261.58571113591262
 11
447.15038630952387
 21
261.58571113591262
  0
ARC
  8
_0-0_
  6
CONTINUOUS
 62
    7
 10
629.36302380952384
 20
264.58571113591262
 40
3
 50
270
 51
0
  0
LINE
  8
_0-0_
  6
CONTINUOUS
 62
    7
 10
629.36302380952384
 20
395.41044613591276
 11
437.62474130952387
 21
395.41044613591276
  0
LINE
  8
_0-0_
  6
CONTINUOUS
 62
    7
 10
632.36302380952384
 20
392.41044613591276
 11
632.36302380952384
 21
264.58571113591262
  0
ARC
  8
_0-0_
  6
CONTINUOUS
 62
    7
 10
629.36302380952384
 20
392.41044613591276
 40
3
 50
0
 51
90
  0
CIRCLE
  8
_0-0_
  6
CONTINUOUS
 62
    7
 10
439.62474130952387
 20
392.41044613591276
 40
1.1000000000000001
  0
CIRCLE
  8
_0-0_
  6
CONTINUOUS
 62
    7
 10
449.15038630952387
 20
264.58571113591262
 40
1.1000000000000001
  0
CIRCLE
  8
_0-0_
  6
CONTINUOUS
 62
    7
 10
629.36302380952384
 20
264.58571113591262
 40
1.1000000000000001
  0
CIRCLE
  8
_0-0_
  6
CONTINUOUS
 62
    7
 10
629.36302380952384
 20
392.41044613591276
 40
1.1000000000000001
  0
LINE
  8
_0-0_
  6
CONTINUOUS
 62
    7
 10
436.62474130952387
 20
394.41044613591276
 11
436.62474130952387
 21
324.96688169828673
  0
LINE
  8
_0-0_
  6
CONTINUOUS
 62
    7
 10
446.15038630952387
 20
284.40456057353856
 11
446.15038630952387
 21
262.58571113591262
  0
ARC
  8
_0-0_
  6
CONTINUOUS
 62
    7
 10
436.15038630952387
 20
284.40456057353856
 40
10
 50
0
 51
14.037138682165798
  0
ARC
  8
_0-0_
  6
CONTINUOUS
 62
    7
 10
441.62568461277385
 20
371.36095792091271
 40
0.5
 50
180
 51
270
  0
LINE
  8
_0-0_
  6
CONTINUOUS
 62
    7
 10
517.82526300627387
 20
370.86095792091271
 11
441.62568461277385
 21
370.86095792091271
  0
ARC
  8
_0-0_
  6
CONTINUOUS
 62
    7
 10
517.82526300627387
 20
371.36095792091271
 40
0.5
 50
270
 51
0
  0
LINE
  8
_0-0_
  6
CONTINUOUS
 62
    7
 10
518.32526300627387
 20
390.40993435091264
 11
518.32526300627387
 21
371.36095792091271
  0
ARC
  8
_0-0_
  6
CONTINUOUS
 62
    7
 10
517.82526300627387
 20
390.40993435091264
 40
0.5
 50
0
 51
90
  0
LINE
  8
_0-0_
  6
CONTINUOUS
 62
    7
 10
441.62568461277385
 20
390.90993435091264
 11
517.82526300627387
 21
390.90993435091264
  0
LINE
  8
_0-0_
  6
CONTINUOUS
 62
    7
 10
441.12568461277385
 20
390.40993435091264
 11
441.12568461277385
 21
371.36095792091271
  0
ARC
  8
_0-0_
  6
CONTINUOUS
 62
    7
 10
441.62568461277385
 20
390.40993435091264
 40
0.5
 50
90
 51
180
  0
ARC
  8
_0-0_
  6
CONTINUOUS
 62
    7
 10
603.55056300627393
 20
390.40993435091264
 40
0.5
 50
0
 51
90
  0
LINE
  8
_0-0_
  6
CONTINUOUS
 62
    7
 10
604.05056300627393
 20
371.36095792091271
 11
604.05056300627393
 21
390.40993435091264
  0
ARC
  8
_0-0_
  6
CONTINUOUS
 62
    7
 10
603.55056300627393
 20
371.36095792091271
 40
0.5
 50
270
 51
0
  0
LINE
  8
_0-0_
  6
CONTINUOUS
 62
    7
 10
527.35073461277375
 20
370.86095792091271
 11
603.55056300627393
 21
370.86095792091271
  0
ARC
  8
_0-0_
  6
CONTINUOUS
 62
    7
 10
527.35073461277375
 20
371.36095792091271
 40
0.5
 50
180
 51
270
  0
LINE
  8
_0-0_
  6
CONTINUOUS
 62
    7
 10
526.85073461277375
 20
390.40993435091264
 11
526.85073461277375
 21
371.36095792091271
  0
LINE
  8
_0-0_
  6
CONTINUOUS
 62
    7
 10
527.35073461277375
 20
390.90993435091264
 11
603.55056300627393
 21
390.90993435091264
  0
ARC
  8
_0-0_
  6
CONTINUOUS
 62
    7
 10
527.35073461277375
 20
390.40993435091264
 40
0.5
 50
90
 51
180
  0
ARC
  8
_0-0_
  6
CONTINUOUS
 62
    7
 10
608.31303461277389
 20
361.83533435091272
 40
0.5
 50
90
 51
180
  0
LINE
  8
_0-0_
  6
CONTINUOUS
 62
    7
 10
627.36256300627383
 20
362.33533435091272
 11
608.31303461277389
 21
362.33533435091272
  0
ARC
  8
_0-0_
  6
CONTINUOUS
 62
    7
 10
627.36256300627383
 20
361.83533435091272
 40
0.5
 50
0
 51
90
  0
LINE
  8
_0-0_
  6
CONTINUOUS
 62
    7
 10
607.81303461277389
 20
266.58645792091272
 11
607.81303461277389
 21
361.83533435091272
  0
ARC
  8
_0-0_
  6
CONTINUOUS
 62
    7
 10
608.31303461277389
 20
266.58645792091272
 40
0.5
 50
180
 51
270
  0
LINE
  8
_0-0_
  6
CONTINUOUS
 62
    7
 10
627.86256300627383
 20
266.58645792091272
 11
627.86256300627383
 21
361.83533435091272
  0
LINE
  8
_0-0_
  6
CONTINUOUS
 62
    7
 10
627.36256300627383
 20
266.08645792091272
 11
608.31303461277389
 21
266.08645792091272
  0
ARC
  8
_0-0_
  6
CONTINUOUS
 62
    7
 10
627.36256300627383
 20
266.58645792091272
 40
0.5
 50
270
 51
0
  0
ARC
  8
_0-0_
  6
CONTINUOUS
 62
    7
 10
603.55056300627393
 20
266.58645792091272
 40
0.5
 50
270
 51
0
  0
LINE
  8
_0-0_
  6
CONTINUOUS
 62
    7
 10
460.67516300677391
 20
266.08645792091272
 11
603.55056300627393
 21
266.08645792091272
  0
ARC
  8
_0-0_
  6
CONTINUOUS
 62
    7
 10
460.67516300677391
 20
266.58645792091272
 40
0.5
 50
180
 51
270
  0
LINE
  8
_0-0_
  6
CONTINUOUS
 62
    7
 10
460.17516300677391
 20
284.63635792091281
 11
460.17516300677391
 21
266.58645792091272
  0
ARC
  8
_0-0_
  6
CONTINUOUS
 62
    7
 10
459.67516300677391
 20
284.63635792091281
 40
0.5
 50
0
 51
90
  0
LINE
  8
_0-0_
  6
CONTINUOUS
 62
    7
 10
455.91323461277386
 20
285.13635792091281
 11
459.67516300677391
 21
285.13635792091281
  0
ARC
  8
_0-0_
  6
CONTINUOUS
 62
    7
 10
455.91323461277386
 20
285.63635792091281
 40
0.5
 50
180
 51
270
  0
LINE
  8
_0-0_
  6
CONTINUOUS
 62
    7
 10
455.41323461277386
 20
303.68635792091277
 11
455.41323461277386
 21
285.63635792091281
  0
ARC
  8
_0-0_
  6
CONTINUOUS
 62
    7
 10
454.91323461277386
 20
303.68635792091277
 40
0.5
 50
0
 51
90
  0
LINE
  8
_0-0_
  6
CONTINUOUS
 62
    7
 10
446.38819461277387
 20
304.18635792091277
 11
454.91323461277386
 21
304.18635792091277
  0
ARC
  8
_0-0_
  6
CONTINUOUS
 62
    7
 10
446.38819461277387
 20
304.68635792091277
 40
0.5
 50
180
 51
270
  0
LINE
  8
_0-0_
  6
CONTINUOUS
 62
    7
 10
445.88819461277387
 20
322.73635792091272
 11
445.88819461277387
 21
304.68635792091277
  0
ARC
  8
_0-0_
  6
CONTINUOUS
 62
    7
 10
445.38819461277387
 20
322.73635792091272
 40
0.5
 50
0
 51
90
  0
LINE
  8
_0-0_
  6
CONTINUOUS
 62
    7
 10
441.62568461277385
 20
323.23635792091272
 11
445.38819461277387
 21
323.23635792091272
  0
ARC
  8
_0-0_
  6
CONTINUOUS
 62
    7
 10
441.62568461277385
 20
323.73635792091272
 40
0.5
 50
180
 51
270
  0
LINE
  8
_0-0_
  6
CONTINUOUS
 62
    7
 10
441.12568461277385
 20
342.78533435091265
 11
441.12568461277385
 21
323.73635792091272
  0
ARC
  8
_0-0_
  6
CONTINUOUS
 62
    7
 10
441.62568461277385
 20
342.78533435091265
 40
0.5
 50
90
 51
180
  0
LINE
  8
_0-0_
  6
CONTINUOUS
 62
    7
 10
450.15073461277393
 20
343.28533435091265
 11
441.62568461277385
 21
343.28533435091265
  0
ARC
  8
_0-0_
  6
CONTINUOUS
 62
    7
 10
450.15073461277393
 20
343.78533435091265
 40
0.5
 50
270
 51
0
  0
LINE
  8
_0-0_
  6
CONTINUOUS
 62
    7
 10
450.65073461277393
 20
361.83533435091272
 11
450.65073461277393
 21
343.78533435091265
  0
ARC
  8
_0-0_
  6
CONTINUOUS
 62
    7
 10
451.15073461277393
 20
361.83533435091272
 40
0.5
 50
90
 51
180
  0
LINE
  8
_0-0_
  6
CONTINUOUS
 62
    7
 10
603.55056300627393
 20
362.33533435091272
 11
451.15073461277393
 21
362.33533435091272
  0
LINE
  8
_0-0_
  6
CONTINUOUS
 62
    7
 10
604.05056300627393
 20
361.83533435091272
 11
604.05056300627393
 21
266.58645792091272
  0
ARC
  8
_0-0_
  6
CONTINUOUS
 62
    7
 10
603.55056300627393
 20
361.83533435091272
 40
0.5
 50
0
 51
90
  0
CIRCLE
  8
_0-0_
  6
CONTINUOUS
 62
    7
 10
618.45302380952387
 20
390.41044613591276
 40
1
  0
CIRCLE
  8
_0-0_
  6
CONTINUOUS
 62
    7
 10
282.37287380952387
 20
390.41044613591271
 40
1
  0
ENDSEC
  0
EOF
