M48
; DRILL file {KiCad (5.1.5)-3} date 2020/07/19 18:58:03
; FORMAT={-:-/ absolute / metric / decimal}
; #@! TF.CreationDate,2020-07-19T18:58:03+09:00
; #@! TF.GenerationSoftware,Kicad,Pcbnew,(5.1.5)-3
; #@! TF.FileFunction,NonPlated,1,2,NPTH
FMAT,2
METRIC
T1C1.200
T2C1.702
T3C3.000
T4C3.048
T5C3.988
%
G90
G05
T1
X216.1Y-77.408
X223.1Y-77.408
X198.692Y-51.349
X198.692Y-58.349
X231.434Y-77.408
X238.434Y-77.408
X315.278Y-51.349
X315.278Y-58.349
T2
X377.969Y-167.484
X388.129Y-167.484
X337.488Y-167.484
X347.648Y-167.484
X183.126Y-129.394
X193.286Y-129.394
X356.538Y-129.384
X366.698Y-129.384
X404.163Y-110.334
X414.323Y-110.334
X299.388Y-167.484
X309.548Y-167.484
X68.826Y-110.344
X78.986Y-110.344
X337.488Y-129.384
X347.648Y-129.384
X256.525Y-110.334
X266.685Y-110.334
X211.646Y-148.444
X221.806Y-148.444
X187.889Y-91.294
X198.049Y-91.294
X121.214Y-110.344
X131.374Y-110.344
X178.364Y-62.719
X188.524Y-62.719
X251.763Y-148.434
X261.923Y-148.434
X121.214Y-62.719
X131.374Y-62.719
X125.976Y-129.394
X136.136Y-129.394
X275.575Y-110.334
X285.735Y-110.334
X342.25Y-62.709
X352.41Y-62.709
X168.839Y-91.294
X178.999Y-91.294
X140.264Y-110.344
X150.424Y-110.344
X318.438Y-129.384
X328.598Y-129.384
X237.475Y-110.334
X247.635Y-110.334
X68.826Y-148.444
X78.986Y-148.444
X135.446Y-148.444
X145.606Y-148.444
X116.396Y-167.494
X126.556Y-167.494
X206.939Y-62.719
X217.099Y-62.719
X95.02Y-167.494
X105.18Y-167.494
X294.625Y-110.334
X304.785Y-110.334
X130.739Y-91.294
X140.899Y-91.294
X275.575Y-62.709
X285.735Y-62.709
X332.725Y-110.334
X342.885Y-110.334
X237.475Y-62.709
X247.635Y-62.709
X140.264Y-62.719
X150.424Y-62.719
X294.625Y-62.709
X304.785Y-62.709
X280.338Y-129.384
X290.498Y-129.384
X285.1Y-91.284
X295.26Y-91.284
X199.708Y-167.494
X209.868Y-167.494
X145.026Y-129.394
X155.186Y-129.394
X97.401Y-110.344
X107.561Y-110.344
X280.338Y-167.484
X290.498Y-167.484
X68.826Y-129.394
X78.986Y-129.394
X327.963Y-148.434
X338.123Y-148.434
X342.25Y-91.284
X352.41Y-91.284
X149.789Y-91.294
X159.949Y-91.294
X154.496Y-148.401
X164.656Y-148.401
X299.388Y-129.384
X309.548Y-129.384
X304.15Y-91.284
X314.31Y-91.284
X404.163Y-167.484
X414.323Y-167.484
X164.076Y-129.394
X174.236Y-129.394
X289.863Y-148.434
X300.023Y-148.434
X323.2Y-62.709
X333.36Y-62.709
X247.0Y-91.284
X257.16Y-91.284
X192.596Y-148.444
X202.756Y-148.444
X356.538Y-167.484
X366.698Y-167.484
X173.546Y-148.444
X183.706Y-148.444
X404.163Y-148.434
X414.323Y-148.434
X242.238Y-129.384
X252.398Y-129.384
X318.438Y-167.484
X328.598Y-167.484
X380.35Y-62.709
X390.51Y-62.709
X258.906Y-167.484
X269.066Y-167.484
X377.969Y-119.859
X388.129Y-119.859
X137.732Y-167.494
X147.892Y-167.494
X347.013Y-148.434
X357.173Y-148.434
X380.35Y-91.284
X390.51Y-91.284
X178.372Y-167.494
X188.532Y-167.494
X104.585Y-148.444
X114.745Y-148.444
X92.639Y-91.294
X102.799Y-91.294
X202.176Y-129.394
X212.336Y-129.394
X270.813Y-148.434
X280.973Y-148.434
X313.675Y-110.334
X323.835Y-110.334
X68.826Y-91.294
X78.986Y-91.294
X206.939Y-91.294
X217.099Y-91.294
X308.913Y-148.434
X319.073Y-148.434
X351.775Y-110.334
X361.935Y-110.334
X197.414Y-110.344
X207.574Y-110.344
X261.288Y-129.384
X271.448Y-129.384
X92.639Y-62.719
X102.799Y-62.719
X404.163Y-91.284
X414.323Y-91.284
X361.3Y-91.284
X371.46Y-91.284
X256.525Y-62.709
X266.685Y-62.709
X111.689Y-91.294
X121.849Y-91.294
X178.364Y-110.344
X188.524Y-110.344
X404.163Y-129.384
X414.323Y-129.384
X361.3Y-62.709
X371.46Y-62.709
X159.314Y-62.719
X169.474Y-62.719
X159.314Y-110.344
X169.474Y-110.344
X373.206Y-148.434
X383.366Y-148.434
X159.322Y-167.494
X169.482Y-167.494
X266.05Y-91.284
X276.21Y-91.284
X323.2Y-91.284
X333.36Y-91.284
X99.783Y-129.394
X109.943Y-129.394
X68.826Y-167.494
X78.986Y-167.494
T3
X114.229Y-96.374
X120.579Y-93.834
X180.904Y-115.424
X187.254Y-112.884
X406.703Y-134.464
X413.053Y-131.924
X363.84Y-67.789
X370.19Y-65.249
X161.854Y-67.799
X168.204Y-65.259
X161.854Y-115.424
X168.204Y-112.884
X375.746Y-153.514
X382.096Y-150.974
X161.862Y-172.574
X168.212Y-170.034
X268.59Y-96.364
X274.94Y-93.824
X325.74Y-96.364
X332.09Y-93.824
X102.323Y-134.474
X108.673Y-131.934
X71.366Y-172.574
X77.716Y-170.034
X380.509Y-172.564
X386.859Y-170.024
X340.028Y-172.564
X346.378Y-170.024
X185.666Y-134.474
X192.016Y-131.934
X359.078Y-134.464
X365.428Y-131.924
X406.703Y-115.414
X413.053Y-112.874
X301.928Y-172.564
X308.278Y-170.024
X71.366Y-115.424
X77.716Y-112.884
X340.028Y-134.464
X346.378Y-131.924
X259.065Y-115.414
X265.415Y-112.874
X214.186Y-153.524
X220.536Y-150.984
X190.429Y-96.374
X196.779Y-93.834
X123.754Y-115.424
X130.104Y-112.884
X180.904Y-67.799
X187.254Y-65.259
X254.303Y-153.514
X260.653Y-150.974
X123.754Y-67.799
X130.104Y-65.259
X128.516Y-134.474
X134.866Y-131.934
X278.115Y-115.414
X284.465Y-112.874
X344.79Y-67.789
X351.14Y-65.249
X171.379Y-96.374
X177.729Y-93.834
X142.804Y-115.424
X149.154Y-112.884
X320.978Y-134.464
X327.328Y-131.924
X240.015Y-115.414
X246.365Y-112.874
X71.366Y-153.524
X77.716Y-150.984
X137.986Y-153.524
X144.336Y-150.984
X118.936Y-172.574
X125.286Y-170.034
X209.479Y-67.799
X215.829Y-65.259
X97.56Y-172.574
X103.91Y-170.034
X297.165Y-115.414
X303.515Y-112.874
X133.279Y-96.374
X139.629Y-93.834
X278.115Y-67.789
X284.465Y-65.249
X335.265Y-115.414
X341.615Y-112.874
X240.015Y-67.789
X246.365Y-65.249
X142.804Y-67.799
X149.154Y-65.259
X297.165Y-67.789
X303.515Y-65.249
X282.878Y-134.464
X289.228Y-131.924
X287.64Y-96.364
X293.99Y-93.824
X202.248Y-172.574
X208.598Y-170.034
X147.566Y-134.474
X153.916Y-131.934
X99.941Y-115.424
X106.291Y-112.884
X282.878Y-172.564
X289.228Y-170.024
X71.366Y-134.474
X77.716Y-131.934
X330.503Y-153.514
X336.853Y-150.974
X344.79Y-96.364
X351.14Y-93.824
X152.329Y-96.374
X158.679Y-93.834
X157.036Y-153.481
X163.386Y-150.941
X301.928Y-134.464
X308.278Y-131.924
X306.69Y-96.364
X313.04Y-93.824
X406.703Y-172.564
X413.053Y-170.024
X166.616Y-134.474
X172.966Y-131.934
X292.403Y-153.514
X298.753Y-150.974
X325.74Y-67.789
X332.09Y-65.249
X249.54Y-96.364
X255.89Y-93.824
X195.136Y-153.524
X201.486Y-150.984
X359.078Y-172.564
X365.428Y-170.024
X176.086Y-153.524
X182.436Y-150.984
X406.703Y-153.514
X413.053Y-150.974
X244.778Y-134.464
X251.128Y-131.924
X320.978Y-172.564
X327.328Y-170.024
X382.89Y-67.789
X389.24Y-65.249
X261.446Y-172.564
X267.796Y-170.024
X380.509Y-124.939
X386.859Y-122.399
X140.272Y-172.574
X146.622Y-170.034
X349.553Y-153.514
X355.903Y-150.974
X382.89Y-96.364
X389.24Y-93.824
X180.912Y-172.574
X187.262Y-170.034
X107.125Y-153.524
X113.475Y-150.984
X95.179Y-96.374
X101.529Y-93.834
X204.716Y-134.474
X211.066Y-131.934
X273.353Y-153.514
X279.703Y-150.974
X316.215Y-115.414
X322.565Y-112.874
X71.366Y-96.374
X77.716Y-93.834
X209.479Y-96.374
X215.829Y-93.834
X311.453Y-153.514
X317.803Y-150.974
X354.315Y-115.414
X360.665Y-112.874
X199.954Y-115.424
X206.304Y-112.884
X263.828Y-134.464
X270.178Y-131.924
X95.179Y-67.799
X101.529Y-65.259
X406.703Y-96.364
X413.053Y-93.824
X363.84Y-96.364
X370.19Y-93.824
X259.065Y-67.789
X265.415Y-65.249
T4
X376.053Y-107.953
X376.053Y-131.753
X97.748Y-141.448
X121.548Y-141.448
T5
X212.019Y-62.719
X100.1Y-167.494
X299.705Y-110.334
X135.819Y-91.294
X280.655Y-62.709
X337.805Y-110.334
X242.555Y-62.709
X145.344Y-62.719
X299.705Y-62.709
X285.418Y-129.384
X290.18Y-91.284
X204.788Y-167.494
X150.106Y-129.394
X102.481Y-110.344
X285.418Y-167.484
X73.906Y-129.394
X333.043Y-148.434
X347.33Y-91.284
X154.869Y-91.294
X159.576Y-148.401
X304.468Y-129.384
X309.23Y-91.284
X409.243Y-167.484
X169.156Y-129.394
X294.943Y-148.434
X328.28Y-62.709
X97.748Y-156.688
X121.548Y-156.688
X252.08Y-91.284
X197.676Y-148.444
X361.618Y-167.484
X178.626Y-148.444
X409.243Y-148.434
X247.318Y-129.384
X323.518Y-167.484
X385.43Y-62.709
X263.986Y-167.484
X383.049Y-119.859
X142.812Y-167.494
X352.093Y-148.434
X385.43Y-91.284
X183.452Y-167.494
X109.665Y-148.444
X97.719Y-91.294
X207.256Y-129.394
X275.893Y-148.434
X318.755Y-110.334
X73.906Y-91.294
X212.019Y-91.294
X313.993Y-148.434
X356.855Y-110.334
X202.494Y-110.344
X266.368Y-129.384
X97.719Y-62.719
X409.243Y-91.284
X366.38Y-91.284
X261.605Y-62.709
X116.769Y-91.294
X183.444Y-110.344
X409.243Y-129.384
X366.38Y-62.709
X164.394Y-62.719
X164.394Y-110.344
X378.286Y-148.434
X164.402Y-167.494
X271.13Y-91.284
X328.28Y-91.284
X104.863Y-129.394
X73.906Y-167.494
X383.049Y-167.484
X342.568Y-167.484
X188.206Y-129.394
X361.618Y-129.384
X409.243Y-110.334
X304.468Y-167.484
X73.906Y-110.344
X342.568Y-129.384
X261.605Y-110.334
X391.293Y-107.953
X391.293Y-131.753
X216.726Y-148.444
X192.969Y-91.294
X126.294Y-110.344
X183.444Y-62.719
X256.843Y-148.434
X126.294Y-62.719
X131.056Y-129.394
X280.655Y-110.334
X347.33Y-62.709
X173.919Y-91.294
X145.344Y-110.344
X323.518Y-129.384
X242.555Y-110.334
X73.906Y-148.444
X140.526Y-148.444
X121.476Y-167.494
T0
M30
