%TF.GenerationSoftware,KiCad,Pcbnew,(5.1.9)-1*%
%TF.CreationDate,2021-05-10T22:56:04+09:00*%
%TF.ProjectId,Pistachio_rev2,50697374-6163-4686-996f-5f726576322e,rev?*%
%TF.SameCoordinates,Original*%
%TF.FileFunction,Soldermask,Top*%
%TF.FilePolarity,Negative*%
%FSLAX46Y46*%
G04 Gerber Fmt 4.6, Leading zero omitted, Abs format (unit mm)*
G04 Created by KiCad (PCBNEW (5.1.9)-1) date 2021-05-10 22:56:04*
%MOMM*%
%LPD*%
G01*
G04 APERTURE LIST*
%ADD10C,0.902000*%
%ADD11C,1.803800*%
%ADD12C,4.089800*%
%ADD13C,3.102000*%
%ADD14C,1.626000*%
%ADD15C,3.150000*%
%ADD16O,1.802000X2.602000*%
%ADD17C,1.302000*%
%ADD18O,2.602000X1.802000*%
%ADD19C,2.102000*%
G04 APERTURE END LIST*
D10*
%TO.C,SW83*%
X142342080Y-183806740D03*
X142342080Y-182126740D03*
X154462080Y-181266740D03*
X154472080Y-179596740D03*
D11*
X143962080Y-185506740D03*
X154122080Y-185506740D03*
D12*
X149042080Y-185506740D03*
D13*
X145232080Y-182966740D03*
X151582080Y-180426740D03*
%TD*%
D10*
%TO.C,SW82*%
X123292000Y-183800000D03*
X123292000Y-182120000D03*
X135412000Y-181260000D03*
X135422000Y-179590000D03*
D11*
X124912000Y-185500000D03*
X135072000Y-185500000D03*
D12*
X129992000Y-185500000D03*
D13*
X126182000Y-182960000D03*
X132532000Y-180420000D03*
%TD*%
D10*
%TO.C,SW81*%
X101860660Y-183806740D03*
X101860660Y-182126740D03*
X113980660Y-181266740D03*
X113990660Y-179596740D03*
D11*
X103480660Y-185506740D03*
X113640660Y-185506740D03*
D12*
X108560660Y-185506740D03*
D13*
X104750660Y-182966740D03*
X111100660Y-180426740D03*
%TD*%
D10*
%TO.C,SW7*%
X201478224Y-79024560D03*
X201478224Y-77344560D03*
X213598224Y-76484560D03*
X213608224Y-74814560D03*
D11*
X203098224Y-80724560D03*
X213258224Y-80724560D03*
D12*
X208178224Y-80724560D03*
D13*
X204368224Y-78184560D03*
X210718224Y-75644560D03*
%TD*%
D10*
%TO.C,SW4*%
X123287880Y-79024560D03*
X123287880Y-77344560D03*
X135407880Y-76484560D03*
X135417880Y-74814560D03*
D11*
X124907880Y-80724560D03*
X135067880Y-80724560D03*
D12*
X129987880Y-80724560D03*
D13*
X126177880Y-78184560D03*
X132527880Y-75644560D03*
%TD*%
D14*
%TO.C,U2*%
X380590600Y-71379000D03*
X380590600Y-73919000D03*
X380590600Y-76459000D03*
X380590600Y-78999000D03*
X380590600Y-81539000D03*
X380590600Y-84079000D03*
X380590600Y-86619000D03*
X380590600Y-89159000D03*
X380590600Y-91699000D03*
X380590600Y-94239000D03*
X380590600Y-96779000D03*
X380590600Y-99319000D03*
X365370600Y-99319000D03*
X365370600Y-96779000D03*
X365370600Y-94239000D03*
X365370600Y-91699000D03*
X365370600Y-89159000D03*
X365370600Y-86619000D03*
X365370600Y-84079000D03*
X365370600Y-81539000D03*
X365370600Y-78999000D03*
X365370600Y-76459000D03*
X365370600Y-73919000D03*
X365370600Y-71379000D03*
%TD*%
D10*
%TO.C,SW1*%
X56612600Y-79024560D03*
X56612600Y-77344560D03*
X68732600Y-76484560D03*
X68742600Y-74814560D03*
D11*
X58232600Y-80724560D03*
X68392600Y-80724560D03*
D12*
X63312600Y-80724560D03*
D13*
X59502600Y-78184560D03*
X65852600Y-75644560D03*
%TD*%
D14*
%TO.C,U1*%
X49120600Y-71379000D03*
X49120600Y-73919000D03*
X49120600Y-76459000D03*
X49120600Y-78999000D03*
X49120600Y-81539000D03*
X49120600Y-84079000D03*
X49120600Y-86619000D03*
X49120600Y-89159000D03*
X49120600Y-91699000D03*
X49120600Y-94239000D03*
X49120600Y-96779000D03*
X49120600Y-99319000D03*
X33900600Y-99319000D03*
X33900600Y-96779000D03*
X33900600Y-94239000D03*
X33900600Y-91699000D03*
X33900600Y-89159000D03*
X33900600Y-86619000D03*
X33900600Y-84079000D03*
X33900600Y-81539000D03*
X33900600Y-78999000D03*
X33900600Y-76459000D03*
X33900600Y-73919000D03*
X33900600Y-71379000D03*
%TD*%
D10*
%TO.C,SW35*%
X104237800Y-126649760D03*
X104237800Y-124969760D03*
X116357800Y-124109760D03*
X116367800Y-122439760D03*
D11*
X105857800Y-128349760D03*
X116017800Y-128349760D03*
D12*
X110937800Y-128349760D03*
D13*
X107127800Y-125809760D03*
X113477800Y-123269760D03*
%TD*%
D15*
%TO.C,REF\u002A\u002A*%
X342077290Y-149777311D03*
X342077290Y-125977311D03*
D12*
X357317290Y-149777311D03*
X357317290Y-125977311D03*
%TD*%
D15*
%TO.C,REF\u002A\u002A*%
X63312290Y-159462311D03*
X87112290Y-159462311D03*
D12*
X63312290Y-174702311D03*
X87112290Y-174702311D03*
%TD*%
%TO.C,D93*%
G36*
G01*
X39418090Y-72087312D02*
X39418090Y-71387310D01*
G75*
G02*
X39469089Y-71336311I50999J0D01*
G01*
X40469091Y-71336311D01*
G75*
G02*
X40520090Y-71387310I0J-50999D01*
G01*
X40520090Y-72087312D01*
G75*
G02*
X40469091Y-72138311I-50999J0D01*
G01*
X39469089Y-72138311D01*
G75*
G02*
X39418090Y-72087312I0J50999D01*
G01*
G37*
G36*
G01*
X39418090Y-70987312D02*
X39418090Y-70287310D01*
G75*
G02*
X39469089Y-70236311I50999J0D01*
G01*
X40469091Y-70236311D01*
G75*
G02*
X40520090Y-70287310I0J-50999D01*
G01*
X40520090Y-70987312D01*
G75*
G02*
X40469091Y-71038311I-50999J0D01*
G01*
X39469089Y-71038311D01*
G75*
G02*
X39418090Y-70987312I0J50999D01*
G01*
G37*
G36*
G01*
X37284490Y-70987312D02*
X37284490Y-70287310D01*
G75*
G02*
X37335489Y-70236311I50999J0D01*
G01*
X38335491Y-70236311D01*
G75*
G02*
X38386490Y-70287310I0J-50999D01*
G01*
X38386490Y-70987312D01*
G75*
G02*
X38335491Y-71038311I-50999J0D01*
G01*
X37335489Y-71038311D01*
G75*
G02*
X37284490Y-70987312I0J50999D01*
G01*
G37*
G36*
G01*
X37284490Y-72096112D02*
X37284490Y-71396110D01*
G75*
G02*
X37335489Y-71345111I50999J0D01*
G01*
X38335491Y-71345111D01*
G75*
G02*
X38386490Y-71396110I0J-50999D01*
G01*
X38386490Y-72096112D01*
G75*
G02*
X38335491Y-72147111I-50999J0D01*
G01*
X37335489Y-72147111D01*
G75*
G02*
X37284490Y-72096112I0J50999D01*
G01*
G37*
%TD*%
%TO.C,D94*%
G36*
G01*
X375998090Y-72077312D02*
X375998090Y-71377310D01*
G75*
G02*
X376049089Y-71326311I50999J0D01*
G01*
X377049091Y-71326311D01*
G75*
G02*
X377100090Y-71377310I0J-50999D01*
G01*
X377100090Y-72077312D01*
G75*
G02*
X377049091Y-72128311I-50999J0D01*
G01*
X376049089Y-72128311D01*
G75*
G02*
X375998090Y-72077312I0J50999D01*
G01*
G37*
G36*
G01*
X375998090Y-70977312D02*
X375998090Y-70277310D01*
G75*
G02*
X376049089Y-70226311I50999J0D01*
G01*
X377049091Y-70226311D01*
G75*
G02*
X377100090Y-70277310I0J-50999D01*
G01*
X377100090Y-70977312D01*
G75*
G02*
X377049091Y-71028311I-50999J0D01*
G01*
X376049089Y-71028311D01*
G75*
G02*
X375998090Y-70977312I0J50999D01*
G01*
G37*
G36*
G01*
X373864490Y-70977312D02*
X373864490Y-70277310D01*
G75*
G02*
X373915489Y-70226311I50999J0D01*
G01*
X374915491Y-70226311D01*
G75*
G02*
X374966490Y-70277310I0J-50999D01*
G01*
X374966490Y-70977312D01*
G75*
G02*
X374915491Y-71028311I-50999J0D01*
G01*
X373915489Y-71028311D01*
G75*
G02*
X373864490Y-70977312I0J50999D01*
G01*
G37*
G36*
G01*
X373864490Y-72086112D02*
X373864490Y-71386110D01*
G75*
G02*
X373915489Y-71335111I50999J0D01*
G01*
X374915491Y-71335111D01*
G75*
G02*
X374966490Y-71386110I0J-50999D01*
G01*
X374966490Y-72086112D01*
G75*
G02*
X374915491Y-72137111I-50999J0D01*
G01*
X373915489Y-72137111D01*
G75*
G02*
X373864490Y-72086112I0J50999D01*
G01*
G37*
%TD*%
D16*
%TO.C,J1*%
X166402000Y-79637000D03*
X162202000Y-78137000D03*
X162202000Y-74137000D03*
X162202000Y-71137000D03*
D17*
X164302000Y-76337000D03*
X164302000Y-69337000D03*
%TD*%
D18*
%TO.C,J2*%
X178412000Y-97487000D03*
X179912000Y-93287000D03*
X183912000Y-93287000D03*
X186912000Y-93287000D03*
D17*
X181712000Y-95387000D03*
X188712000Y-95387000D03*
%TD*%
D16*
%TO.C,J3*%
X282992000Y-79637000D03*
X278792000Y-78137000D03*
X278792000Y-74137000D03*
X278792000Y-71137000D03*
D17*
X280892000Y-76337000D03*
X280892000Y-69337000D03*
%TD*%
D18*
%TO.C,J4*%
X207352000Y-93287000D03*
X205852000Y-97487000D03*
X201852000Y-97487000D03*
X198852000Y-97487000D03*
D17*
X204052000Y-95387000D03*
X197052000Y-95387000D03*
%TD*%
D10*
%TO.C,SW2*%
X85187720Y-79024560D03*
X85187720Y-77344560D03*
X97307720Y-76484560D03*
X97317720Y-74814560D03*
D11*
X86807720Y-80724560D03*
X96967720Y-80724560D03*
D12*
X91887720Y-80724560D03*
D13*
X88077720Y-78184560D03*
X94427720Y-75644560D03*
%TD*%
D10*
%TO.C,SW3*%
X104237800Y-79024560D03*
X104237800Y-77344560D03*
X116357800Y-76484560D03*
X116367800Y-74814560D03*
D11*
X105857800Y-80724560D03*
X116017800Y-80724560D03*
D12*
X110937800Y-80724560D03*
D13*
X107127800Y-78184560D03*
X113477800Y-75644560D03*
%TD*%
D10*
%TO.C,SW5*%
X142337960Y-79024560D03*
X142337960Y-77344560D03*
X154457960Y-76484560D03*
X154467960Y-74814560D03*
D11*
X143957960Y-80724560D03*
X154117960Y-80724560D03*
D12*
X149037960Y-80724560D03*
D13*
X145227960Y-78184560D03*
X151577960Y-75644560D03*
%TD*%
D10*
%TO.C,SW6*%
X170913080Y-79024560D03*
X170913080Y-77344560D03*
X183033080Y-76484560D03*
X183043080Y-74814560D03*
D11*
X172533080Y-80724560D03*
X182693080Y-80724560D03*
D12*
X177613080Y-80724560D03*
D13*
X173803080Y-78184560D03*
X180153080Y-75644560D03*
%TD*%
D10*
%TO.C,SW8*%
X220528304Y-79024560D03*
X220528304Y-77344560D03*
X232648304Y-76484560D03*
X232658304Y-74814560D03*
D11*
X222148304Y-80724560D03*
X232308304Y-80724560D03*
D12*
X227228304Y-80724560D03*
D13*
X223418304Y-78184560D03*
X229768304Y-75644560D03*
%TD*%
D10*
%TO.C,SW9*%
X239578384Y-79024560D03*
X239578384Y-77344560D03*
X251698384Y-76484560D03*
X251708384Y-74814560D03*
D11*
X241198384Y-80724560D03*
X251358384Y-80724560D03*
D12*
X246278384Y-80724560D03*
D13*
X242468384Y-78184560D03*
X248818384Y-75644560D03*
%TD*%
D10*
%TO.C,SW10*%
X258628464Y-79001693D03*
X258628464Y-77321693D03*
X270748464Y-76461693D03*
X270758464Y-74791693D03*
D11*
X260248464Y-80701693D03*
X270408464Y-80701693D03*
D12*
X265328464Y-80701693D03*
D13*
X261518464Y-78161693D03*
X267868464Y-75621693D03*
%TD*%
D10*
%TO.C,SW11*%
X287203584Y-79001693D03*
X287203584Y-77321693D03*
X299323584Y-76461693D03*
X299333584Y-74791693D03*
D11*
X288823584Y-80701693D03*
X298983584Y-80701693D03*
D12*
X293903584Y-80701693D03*
D13*
X290093584Y-78161693D03*
X296443584Y-75621693D03*
%TD*%
D10*
%TO.C,SW12*%
X306644900Y-79024560D03*
X306644900Y-77344560D03*
X318764900Y-76484560D03*
X318774900Y-74814560D03*
D11*
X308264900Y-80724560D03*
X318424900Y-80724560D03*
D12*
X313344900Y-80724560D03*
D13*
X309534900Y-78184560D03*
X315884900Y-75644560D03*
%TD*%
D10*
%TO.C,SW13*%
X325303744Y-79024560D03*
X325303744Y-77344560D03*
X337423744Y-76484560D03*
X337433744Y-74814560D03*
D11*
X326923744Y-80724560D03*
X337083744Y-80724560D03*
D12*
X332003744Y-80724560D03*
D13*
X328193744Y-78184560D03*
X334543744Y-75644560D03*
%TD*%
D10*
%TO.C,SW14*%
X344353824Y-79024560D03*
X344353824Y-77344560D03*
X356473824Y-76484560D03*
X356483824Y-74814560D03*
D11*
X345973824Y-80724560D03*
X356133824Y-80724560D03*
D12*
X351053824Y-80724560D03*
D13*
X347243824Y-78184560D03*
X353593824Y-75644560D03*
%TD*%
D10*
%TO.C,SW15*%
X32800000Y-107599680D03*
X32800000Y-105919680D03*
X44920000Y-105059680D03*
X44930000Y-103389680D03*
D11*
X34420000Y-109299680D03*
X44580000Y-109299680D03*
D12*
X39500000Y-109299680D03*
D13*
X35690000Y-106759680D03*
X42040000Y-104219680D03*
%TD*%
D10*
%TO.C,SW16*%
X56612600Y-107599680D03*
X56612600Y-105919680D03*
X68732600Y-105059680D03*
X68742600Y-103389680D03*
D11*
X58232600Y-109299680D03*
X68392600Y-109299680D03*
D12*
X63312600Y-109299680D03*
D13*
X59502600Y-106759680D03*
X65852600Y-104219680D03*
%TD*%
D10*
%TO.C,SW17*%
X75662680Y-107599680D03*
X75662680Y-105919680D03*
X87782680Y-105059680D03*
X87792680Y-103389680D03*
D11*
X77282680Y-109299680D03*
X87442680Y-109299680D03*
D12*
X82362680Y-109299680D03*
D13*
X78552680Y-106759680D03*
X84902680Y-104219680D03*
%TD*%
D10*
%TO.C,SW18*%
X94712760Y-107599680D03*
X94712760Y-105919680D03*
X106832760Y-105059680D03*
X106842760Y-103389680D03*
D11*
X96332760Y-109299680D03*
X106492760Y-109299680D03*
D12*
X101412760Y-109299680D03*
D13*
X97602760Y-106759680D03*
X103952760Y-104219680D03*
%TD*%
D10*
%TO.C,SW19*%
X113762840Y-107599680D03*
X113762840Y-105919680D03*
X125882840Y-105059680D03*
X125892840Y-103389680D03*
D11*
X115382840Y-109299680D03*
X125542840Y-109299680D03*
D12*
X120462840Y-109299680D03*
D13*
X116652840Y-106759680D03*
X123002840Y-104219680D03*
%TD*%
D10*
%TO.C,SW20*%
X132812920Y-107599680D03*
X132812920Y-105919680D03*
X144932920Y-105059680D03*
X144942920Y-103389680D03*
D11*
X134432920Y-109299680D03*
X144592920Y-109299680D03*
D12*
X139512920Y-109299680D03*
D13*
X135702920Y-106759680D03*
X142052920Y-104219680D03*
%TD*%
D10*
%TO.C,SW21*%
X151863000Y-107599680D03*
X151863000Y-105919680D03*
X163983000Y-105059680D03*
X163993000Y-103389680D03*
D11*
X153483000Y-109299680D03*
X163643000Y-109299680D03*
D12*
X158563000Y-109299680D03*
D13*
X154753000Y-106759680D03*
X161103000Y-104219680D03*
%TD*%
D10*
%TO.C,SW22*%
X170913080Y-107599680D03*
X170913080Y-105919680D03*
X183033080Y-105059680D03*
X183043080Y-103389680D03*
D11*
X172533080Y-109299680D03*
X182693080Y-109299680D03*
D12*
X177613080Y-109299680D03*
D13*
X173803080Y-106759680D03*
X180153080Y-104219680D03*
%TD*%
D10*
%TO.C,SW23*%
X211003264Y-107576813D03*
X211003264Y-105896813D03*
X223123264Y-105036813D03*
X223133264Y-103366813D03*
D11*
X212623264Y-109276813D03*
X222783264Y-109276813D03*
D12*
X217703264Y-109276813D03*
D13*
X213893264Y-106736813D03*
X220243264Y-104196813D03*
%TD*%
D10*
%TO.C,SW24*%
X230053344Y-107599680D03*
X230053344Y-105919680D03*
X242173344Y-105059680D03*
X242183344Y-103389680D03*
D11*
X231673344Y-109299680D03*
X241833344Y-109299680D03*
D12*
X236753344Y-109299680D03*
D13*
X232943344Y-106759680D03*
X239293344Y-104219680D03*
%TD*%
D10*
%TO.C,SW25*%
X249103424Y-107599680D03*
X249103424Y-105919680D03*
X261223424Y-105059680D03*
X261233424Y-103389680D03*
D11*
X250723424Y-109299680D03*
X260883424Y-109299680D03*
D12*
X255803424Y-109299680D03*
D13*
X251993424Y-106759680D03*
X258343424Y-104219680D03*
%TD*%
D10*
%TO.C,SW26*%
X268153504Y-107599680D03*
X268153504Y-105919680D03*
X280273504Y-105059680D03*
X280283504Y-103389680D03*
D11*
X269773504Y-109299680D03*
X279933504Y-109299680D03*
D12*
X274853504Y-109299680D03*
D13*
X271043504Y-106759680D03*
X277393504Y-104219680D03*
%TD*%
D10*
%TO.C,SW27*%
X287203584Y-107599680D03*
X287203584Y-105919680D03*
X299323584Y-105059680D03*
X299333584Y-103389680D03*
D11*
X288823584Y-109299680D03*
X298983584Y-109299680D03*
D12*
X293903584Y-109299680D03*
D13*
X290093584Y-106759680D03*
X296443584Y-104219680D03*
%TD*%
D10*
%TO.C,SW28*%
X306253664Y-107599680D03*
X306253664Y-105919680D03*
X318373664Y-105059680D03*
X318383664Y-103389680D03*
D11*
X307873664Y-109299680D03*
X318033664Y-109299680D03*
D12*
X312953664Y-109299680D03*
D13*
X309143664Y-106759680D03*
X315493664Y-104219680D03*
%TD*%
D10*
%TO.C,SW29*%
X325303744Y-107599680D03*
X325303744Y-105919680D03*
X337423744Y-105059680D03*
X337433744Y-103389680D03*
D11*
X326923744Y-109299680D03*
X337083744Y-109299680D03*
D12*
X332003744Y-109299680D03*
D13*
X328193744Y-106759680D03*
X334543744Y-104219680D03*
%TD*%
D10*
%TO.C,SW30*%
X344353824Y-107599680D03*
X344353824Y-105919680D03*
X356473824Y-105059680D03*
X356483824Y-103389680D03*
D11*
X345973824Y-109299680D03*
X356133824Y-109299680D03*
D12*
X351053824Y-109299680D03*
D13*
X347243824Y-106759680D03*
X353593824Y-104219680D03*
%TD*%
D10*
%TO.C,SW32*%
X32800000Y-126649760D03*
X32800000Y-124969760D03*
X44920000Y-124109760D03*
X44930000Y-122439760D03*
D11*
X34420000Y-128349760D03*
X44580000Y-128349760D03*
D12*
X39500000Y-128349760D03*
D13*
X35690000Y-125809760D03*
X42040000Y-123269760D03*
%TD*%
D10*
%TO.C,SW33*%
X61375120Y-126649760D03*
X61375120Y-124969760D03*
X73495120Y-124109760D03*
X73505120Y-122439760D03*
D11*
X62995120Y-128349760D03*
X73155120Y-128349760D03*
D12*
X68075120Y-128349760D03*
D13*
X64265120Y-125809760D03*
X70615120Y-123269760D03*
%TD*%
D10*
%TO.C,SW34*%
X85187720Y-126649760D03*
X85187720Y-124969760D03*
X97307720Y-124109760D03*
X97317720Y-122439760D03*
D11*
X86807720Y-128349760D03*
X96967720Y-128349760D03*
D12*
X91887720Y-128349760D03*
D13*
X88077720Y-125809760D03*
X94427720Y-123269760D03*
%TD*%
D10*
%TO.C,SW36*%
X123287880Y-126649760D03*
X123287880Y-124969760D03*
X135407880Y-124109760D03*
X135417880Y-122439760D03*
D11*
X124907880Y-128349760D03*
X135067880Y-128349760D03*
D12*
X129987880Y-128349760D03*
D13*
X126177880Y-125809760D03*
X132527880Y-123269760D03*
%TD*%
D10*
%TO.C,SW37*%
X142337960Y-126649760D03*
X142337960Y-124969760D03*
X154457960Y-124109760D03*
X154467960Y-122439760D03*
D11*
X143957960Y-128349760D03*
X154117960Y-128349760D03*
D12*
X149037960Y-128349760D03*
D13*
X145227960Y-125809760D03*
X151577960Y-123269760D03*
%TD*%
D10*
%TO.C,SW38*%
X161388040Y-126626893D03*
X161388040Y-124946893D03*
X173508040Y-124086893D03*
X173518040Y-122416893D03*
D11*
X163008040Y-128326893D03*
X173168040Y-128326893D03*
D12*
X168088040Y-128326893D03*
D13*
X164278040Y-125786893D03*
X170628040Y-123246893D03*
%TD*%
D10*
%TO.C,SW39*%
X201478224Y-126626893D03*
X201478224Y-124946893D03*
X213598224Y-124086893D03*
X213608224Y-122416893D03*
D11*
X203098224Y-128326893D03*
X213258224Y-128326893D03*
D12*
X208178224Y-128326893D03*
D13*
X204368224Y-125786893D03*
X210718224Y-123246893D03*
%TD*%
D10*
%TO.C,SW40*%
X220528304Y-126626893D03*
X220528304Y-124946893D03*
X232648304Y-124086893D03*
X232658304Y-122416893D03*
D11*
X222148304Y-128326893D03*
X232308304Y-128326893D03*
D12*
X227228304Y-128326893D03*
D13*
X223418304Y-125786893D03*
X229768304Y-123246893D03*
%TD*%
D10*
%TO.C,SW41*%
X239578384Y-126626893D03*
X239578384Y-124946893D03*
X251698384Y-124086893D03*
X251708384Y-122416893D03*
D11*
X241198384Y-128326893D03*
X251358384Y-128326893D03*
D12*
X246278384Y-128326893D03*
D13*
X242468384Y-125786893D03*
X248818384Y-123246893D03*
%TD*%
D10*
%TO.C,SW42*%
X258628464Y-126626893D03*
X258628464Y-124946893D03*
X270748464Y-124086893D03*
X270758464Y-122416893D03*
D11*
X260248464Y-128326893D03*
X270408464Y-128326893D03*
D12*
X265328464Y-128326893D03*
D13*
X261518464Y-125786893D03*
X267868464Y-123246893D03*
%TD*%
D10*
%TO.C,SW43*%
X277678544Y-126649760D03*
X277678544Y-124969760D03*
X289798544Y-124109760D03*
X289808544Y-122439760D03*
D11*
X279298544Y-128349760D03*
X289458544Y-128349760D03*
D12*
X284378544Y-128349760D03*
D13*
X280568544Y-125809760D03*
X286918544Y-123269760D03*
%TD*%
D10*
%TO.C,SW44*%
X296728624Y-126626893D03*
X296728624Y-124946893D03*
X308848624Y-124086893D03*
X308858624Y-122416893D03*
D11*
X298348624Y-128326893D03*
X308508624Y-128326893D03*
D12*
X303428624Y-128326893D03*
D13*
X299618624Y-125786893D03*
X305968624Y-123246893D03*
%TD*%
D10*
%TO.C,SW45*%
X315778704Y-126626893D03*
X315778704Y-124946893D03*
X327898704Y-124086893D03*
X327908704Y-122416893D03*
D11*
X317398704Y-128326893D03*
X327558704Y-128326893D03*
D12*
X322478704Y-128326893D03*
D13*
X318668704Y-125786893D03*
X325018704Y-123246893D03*
%TD*%
D10*
%TO.C,SW46*%
X368166424Y-126626893D03*
X368166424Y-124946893D03*
X380286424Y-124086893D03*
X380296424Y-122416893D03*
D11*
X369786424Y-128326893D03*
X379946424Y-128326893D03*
D12*
X374866424Y-128326893D03*
D13*
X371056424Y-125786893D03*
X377406424Y-123246893D03*
%TD*%
D10*
%TO.C,SW31*%
X368158224Y-107561693D03*
X368158224Y-105881693D03*
X380278224Y-105021693D03*
X380288224Y-103351693D03*
D11*
X369778224Y-109261693D03*
X379938224Y-109261693D03*
D12*
X374858224Y-109261693D03*
D13*
X371048224Y-106721693D03*
X377398224Y-104181693D03*
%TD*%
D10*
%TO.C,SW47*%
X32800001Y-145699840D03*
X32800001Y-144019840D03*
X44920001Y-143159840D03*
X44930001Y-141489840D03*
D11*
X34420001Y-147399840D03*
X44580001Y-147399840D03*
D12*
X39500001Y-147399840D03*
D13*
X35690001Y-144859840D03*
X42040001Y-142319840D03*
%TD*%
D10*
%TO.C,SW48*%
X63756380Y-145699840D03*
X63756380Y-144019840D03*
X75876380Y-143159840D03*
X75886380Y-141489840D03*
D11*
X65376380Y-147399840D03*
X75536380Y-147399840D03*
D12*
X70456380Y-147399840D03*
D13*
X66646380Y-144859840D03*
X72996380Y-142319840D03*
%TD*%
D10*
%TO.C,SW49*%
X89950240Y-145699840D03*
X89950240Y-144019840D03*
X102070240Y-143159840D03*
X102080240Y-141489840D03*
D11*
X91570240Y-147399840D03*
X101730240Y-147399840D03*
D12*
X96650240Y-147399840D03*
D13*
X92840240Y-144859840D03*
X99190240Y-142319840D03*
%TD*%
D10*
%TO.C,SW50*%
X109000320Y-145699840D03*
X109000320Y-144019840D03*
X121120320Y-143159840D03*
X121130320Y-141489840D03*
D11*
X110620320Y-147399840D03*
X120780320Y-147399840D03*
D12*
X115700320Y-147399840D03*
D13*
X111890320Y-144859840D03*
X118240320Y-142319840D03*
%TD*%
D10*
%TO.C,SW51*%
X128050400Y-145699840D03*
X128050400Y-144019840D03*
X140170400Y-143159840D03*
X140180400Y-141489840D03*
D11*
X129670400Y-147399840D03*
X139830400Y-147399840D03*
D12*
X134750400Y-147399840D03*
D13*
X130940400Y-144859840D03*
X137290400Y-142319840D03*
%TD*%
D10*
%TO.C,SW52*%
X147100480Y-145699840D03*
X147100480Y-144019840D03*
X159220480Y-143159840D03*
X159230480Y-141489840D03*
D11*
X148720480Y-147399840D03*
X158880480Y-147399840D03*
D12*
X153800480Y-147399840D03*
D13*
X149990480Y-144859840D03*
X156340480Y-142319840D03*
%TD*%
D10*
%TO.C,SW53*%
X166150560Y-145699840D03*
X166150560Y-144019840D03*
X178270560Y-143159840D03*
X178280560Y-141489840D03*
D11*
X167770560Y-147399840D03*
X177930560Y-147399840D03*
D12*
X172850560Y-147399840D03*
D13*
X169040560Y-144859840D03*
X175390560Y-142319840D03*
%TD*%
D10*
%TO.C,SW54*%
X206240744Y-145699840D03*
X206240744Y-144019840D03*
X218360744Y-143159840D03*
X218370744Y-141489840D03*
D11*
X207860744Y-147399840D03*
X218020744Y-147399840D03*
D12*
X212940744Y-147399840D03*
D13*
X209130744Y-144859840D03*
X215480744Y-142319840D03*
%TD*%
D10*
%TO.C,SW55*%
X225290824Y-145699840D03*
X225290824Y-144019840D03*
X237410824Y-143159840D03*
X237420824Y-141489840D03*
D11*
X226910824Y-147399840D03*
X237070824Y-147399840D03*
D12*
X231990824Y-147399840D03*
D13*
X228180824Y-144859840D03*
X234530824Y-142319840D03*
%TD*%
D10*
%TO.C,SW56*%
X244340904Y-145699840D03*
X244340904Y-144019840D03*
X256460904Y-143159840D03*
X256470904Y-141489840D03*
D11*
X245960904Y-147399840D03*
X256120904Y-147399840D03*
D12*
X251040904Y-147399840D03*
D13*
X247230904Y-144859840D03*
X253580904Y-142319840D03*
%TD*%
D10*
%TO.C,SW57*%
X263390984Y-145676973D03*
X263390984Y-143996973D03*
X275510984Y-143136973D03*
X275520984Y-141466973D03*
D11*
X265010984Y-147376973D03*
X275170984Y-147376973D03*
D12*
X270090984Y-147376973D03*
D13*
X266280984Y-144836973D03*
X272630984Y-142296973D03*
%TD*%
D10*
%TO.C,SW58*%
X282441064Y-145699840D03*
X282441064Y-144019840D03*
X294561064Y-143159840D03*
X294571064Y-141489840D03*
D11*
X284061064Y-147399840D03*
X294221064Y-147399840D03*
D12*
X289141064Y-147399840D03*
D13*
X285331064Y-144859840D03*
X291681064Y-142319840D03*
%TD*%
D10*
%TO.C,SW59*%
X301491144Y-145699840D03*
X301491144Y-144019840D03*
X313611144Y-143159840D03*
X313621144Y-141489840D03*
D11*
X303111144Y-147399840D03*
X313271144Y-147399840D03*
D12*
X308191144Y-147399840D03*
D13*
X304381144Y-144859840D03*
X310731144Y-142319840D03*
%TD*%
D10*
%TO.C,SW60*%
X320541224Y-145699840D03*
X320541224Y-144019840D03*
X332661224Y-143159840D03*
X332671224Y-141489840D03*
D11*
X322161224Y-147399840D03*
X332321224Y-147399840D03*
D12*
X327241224Y-147399840D03*
D13*
X323431224Y-144859840D03*
X329781224Y-142319840D03*
%TD*%
D10*
%TO.C,SW61*%
X346972564Y-144574800D03*
X345292564Y-144574800D03*
X344432564Y-132454800D03*
X342762564Y-132444800D03*
D11*
X348672564Y-142954800D03*
X348672564Y-132794800D03*
D12*
X348672564Y-137874800D03*
D13*
X346132564Y-141684800D03*
X343592564Y-135334800D03*
%TD*%
D10*
%TO.C,SW62*%
X368166424Y-145699840D03*
X368166424Y-144019840D03*
X380286424Y-143159840D03*
X380296424Y-141489840D03*
D11*
X369786424Y-147399840D03*
X379946424Y-147399840D03*
D12*
X374866424Y-147399840D03*
D13*
X371056424Y-144859840D03*
X377406424Y-142319840D03*
%TD*%
D10*
%TO.C,SW63*%
X32800000Y-164749920D03*
X32800000Y-163069920D03*
X44920000Y-162209920D03*
X44930000Y-160539920D03*
D11*
X34420000Y-166449920D03*
X44580000Y-166449920D03*
D12*
X39500000Y-166449920D03*
D13*
X35690000Y-163909920D03*
X42040000Y-161369920D03*
%TD*%
D10*
%TO.C,SW64*%
X68518900Y-164749920D03*
X68518900Y-163069920D03*
X80638900Y-162209920D03*
X80648900Y-160539920D03*
D11*
X70138900Y-166449920D03*
X80298900Y-166449920D03*
D12*
X75218900Y-166449920D03*
D13*
X71408900Y-163909920D03*
X77758900Y-161369920D03*
%TD*%
D10*
%TO.C,SW65*%
X99475280Y-164749920D03*
X99475280Y-163069920D03*
X111595280Y-162209920D03*
X111605280Y-160539920D03*
D11*
X101095280Y-166449920D03*
X111255280Y-166449920D03*
D12*
X106175280Y-166449920D03*
D13*
X102365280Y-163909920D03*
X108715280Y-161369920D03*
%TD*%
D10*
%TO.C,SW66*%
X118525360Y-164749920D03*
X118525360Y-163069920D03*
X130645360Y-162209920D03*
X130655360Y-160539920D03*
D11*
X120145360Y-166449920D03*
X130305360Y-166449920D03*
D12*
X125225360Y-166449920D03*
D13*
X121415360Y-163909920D03*
X127765360Y-161369920D03*
%TD*%
D10*
%TO.C,SW67*%
X137575440Y-164749920D03*
X137575440Y-163069920D03*
X149695440Y-162209920D03*
X149705440Y-160539920D03*
D11*
X139195440Y-166449920D03*
X149355440Y-166449920D03*
D12*
X144275440Y-166449920D03*
D13*
X140465440Y-163909920D03*
X146815440Y-161369920D03*
%TD*%
D10*
%TO.C,SW68*%
X156625520Y-164749920D03*
X156625520Y-163069920D03*
X168745520Y-162209920D03*
X168755520Y-160539920D03*
D11*
X158245520Y-166449920D03*
X168405520Y-166449920D03*
D12*
X163325520Y-166449920D03*
D13*
X159515520Y-163909920D03*
X165865520Y-161369920D03*
%TD*%
D10*
%TO.C,SW69*%
X175675600Y-164749920D03*
X175675600Y-163069920D03*
X187795600Y-162209920D03*
X187805600Y-160539920D03*
D11*
X177295600Y-166449920D03*
X187455600Y-166449920D03*
D12*
X182375600Y-166449920D03*
D13*
X178565600Y-163909920D03*
X184915600Y-161369920D03*
%TD*%
D10*
%TO.C,SW70*%
X215765784Y-164727053D03*
X215765784Y-163047053D03*
X227885784Y-162187053D03*
X227895784Y-160517053D03*
D11*
X217385784Y-166427053D03*
X227545784Y-166427053D03*
D12*
X222465784Y-166427053D03*
D13*
X218655784Y-163887053D03*
X225005784Y-161347053D03*
%TD*%
D10*
%TO.C,SW71*%
X234815864Y-164727053D03*
X234815864Y-163047053D03*
X246935864Y-162187053D03*
X246945864Y-160517053D03*
D11*
X236435864Y-166427053D03*
X246595864Y-166427053D03*
D12*
X241515864Y-166427053D03*
D13*
X237705864Y-163887053D03*
X244055864Y-161347053D03*
%TD*%
D10*
%TO.C,SW72*%
X253865944Y-164749920D03*
X253865944Y-163069920D03*
X265985944Y-162209920D03*
X265995944Y-160539920D03*
D11*
X255485944Y-166449920D03*
X265645944Y-166449920D03*
D12*
X260565944Y-166449920D03*
D13*
X256755944Y-163909920D03*
X263105944Y-161369920D03*
%TD*%
D10*
%TO.C,SW73*%
X272916024Y-164749920D03*
X272916024Y-163069920D03*
X285036024Y-162209920D03*
X285046024Y-160539920D03*
D11*
X274536024Y-166449920D03*
X284696024Y-166449920D03*
D12*
X279616024Y-166449920D03*
D13*
X275806024Y-163909920D03*
X282156024Y-161369920D03*
%TD*%
D10*
%TO.C,SW74*%
X291966104Y-164749920D03*
X291966104Y-163069920D03*
X304086104Y-162209920D03*
X304096104Y-160539920D03*
D11*
X293586104Y-166449920D03*
X303746104Y-166449920D03*
D12*
X298666104Y-166449920D03*
D13*
X294856104Y-163909920D03*
X301206104Y-161369920D03*
%TD*%
D10*
%TO.C,SW75*%
X311016184Y-164749920D03*
X311016184Y-163069920D03*
X323136184Y-162209920D03*
X323146184Y-160539920D03*
D11*
X312636184Y-166449920D03*
X322796184Y-166449920D03*
D12*
X317716184Y-166449920D03*
D13*
X313906184Y-163909920D03*
X320256184Y-161369920D03*
%TD*%
D10*
%TO.C,SW76*%
X337210044Y-164749920D03*
X337210044Y-163069920D03*
X349330044Y-162209920D03*
X349340044Y-160539920D03*
D11*
X338830044Y-166449920D03*
X348990044Y-166449920D03*
D12*
X343910044Y-166449920D03*
D13*
X340100044Y-163909920D03*
X346450044Y-161369920D03*
%TD*%
D10*
%TO.C,SW77*%
X368166424Y-164749920D03*
X368166424Y-163069920D03*
X380286424Y-162209920D03*
X380296424Y-160539920D03*
D11*
X369786424Y-166449920D03*
X379946424Y-166449920D03*
D12*
X374866424Y-166449920D03*
D13*
X371056424Y-163909920D03*
X377406424Y-161369920D03*
%TD*%
D10*
%TO.C,SW78*%
X32800000Y-183800000D03*
X32800000Y-182120000D03*
X44920000Y-181260000D03*
X44930000Y-179590000D03*
D11*
X34420000Y-185500000D03*
X44580000Y-185500000D03*
D12*
X39500000Y-185500000D03*
D13*
X35690000Y-182960000D03*
X42040000Y-180420000D03*
%TD*%
D10*
%TO.C,SW79*%
X58993860Y-183805001D03*
X58993860Y-182125001D03*
X71113860Y-181265001D03*
X71123860Y-179595001D03*
D11*
X60613860Y-185505001D03*
X70773860Y-185505001D03*
D12*
X65693860Y-185505001D03*
D13*
X61883860Y-182965001D03*
X68233860Y-180425001D03*
%TD*%
D10*
%TO.C,SW80*%
X80429320Y-183806740D03*
X80429320Y-182126740D03*
X92549320Y-181266740D03*
X92559320Y-179596740D03*
D11*
X82049320Y-185506740D03*
X92209320Y-185506740D03*
D12*
X87129320Y-185506740D03*
D13*
X83319320Y-182966740D03*
X89669320Y-180426740D03*
%TD*%
D10*
%TO.C,SW84*%
X163773420Y-183805001D03*
X163773420Y-182125001D03*
X175893420Y-181265001D03*
X175903420Y-179595001D03*
D11*
X165393420Y-185505001D03*
X175553420Y-185505001D03*
D12*
X170473420Y-185505001D03*
D13*
X166663420Y-182965001D03*
X173013420Y-180425001D03*
%TD*%
D10*
%TO.C,SW85*%
X222909564Y-183805001D03*
X222909564Y-182125001D03*
X235029564Y-181265001D03*
X235039564Y-179595001D03*
D11*
X224529564Y-185505001D03*
X234689564Y-185505001D03*
D12*
X229609564Y-185505001D03*
D13*
X225799564Y-182965001D03*
X232149564Y-180425001D03*
%TD*%
D10*
%TO.C,SW86*%
X244340904Y-183805001D03*
X244340904Y-182125001D03*
X256460904Y-181265001D03*
X256470904Y-179595001D03*
D11*
X245960904Y-185505001D03*
X256120904Y-185505001D03*
D12*
X251040904Y-185505001D03*
D13*
X247230904Y-182965001D03*
X253580904Y-180425001D03*
%TD*%
D10*
%TO.C,SW87*%
X263390984Y-183805001D03*
X263390984Y-182125001D03*
X275510984Y-181265001D03*
X275520984Y-179595001D03*
D11*
X265010984Y-185505001D03*
X275170984Y-185505001D03*
D12*
X270090984Y-185505001D03*
D13*
X266280984Y-182965001D03*
X272630984Y-180425001D03*
%TD*%
D10*
%TO.C,SW88*%
X282441064Y-183800000D03*
X282441064Y-182120000D03*
X294561064Y-181260000D03*
X294571064Y-179590000D03*
D11*
X284061064Y-185500000D03*
X294221064Y-185500000D03*
D12*
X289141064Y-185500000D03*
D13*
X285331064Y-182960000D03*
X291681064Y-180420000D03*
%TD*%
D10*
%TO.C,SW89*%
X301491144Y-183800000D03*
X301491144Y-182120000D03*
X313611144Y-181260000D03*
X313621144Y-179590000D03*
D11*
X303111144Y-185500000D03*
X313271144Y-185500000D03*
D12*
X308191144Y-185500000D03*
D13*
X304381144Y-182960000D03*
X310731144Y-180420000D03*
%TD*%
D10*
%TO.C,SW90*%
X320541224Y-183805001D03*
X320541224Y-182125001D03*
X332661224Y-181265001D03*
X332671224Y-179595001D03*
D11*
X322161224Y-185505001D03*
X332321224Y-185505001D03*
D12*
X327241224Y-185505001D03*
D13*
X323431224Y-182965001D03*
X329781224Y-180425001D03*
%TD*%
D10*
%TO.C,SW91*%
X341972564Y-183805001D03*
X341972564Y-182125001D03*
X354092564Y-181265001D03*
X354102564Y-179595001D03*
D11*
X343592564Y-185505001D03*
X353752564Y-185505001D03*
D12*
X348672564Y-185505001D03*
D13*
X344862564Y-182965001D03*
X351212564Y-180425001D03*
%TD*%
D10*
%TO.C,SW92*%
X368166424Y-183800000D03*
X368166424Y-182120000D03*
X380286424Y-181260000D03*
X380296424Y-179590000D03*
D11*
X369786424Y-185500000D03*
X379946424Y-185500000D03*
D12*
X374866424Y-185500000D03*
D13*
X371056424Y-182960000D03*
X377406424Y-180420000D03*
%TD*%
D19*
%TO.C,SW93*%
X184622000Y-130397000D03*
X184622000Y-123897000D03*
%TD*%
%TO.C,SW94*%
X200742000Y-111897000D03*
X200742000Y-105397000D03*
%TD*%
M02*
