M48
; DRILL file {KiCad (5.1.9)-1} date 05/10/21 22:56:06
; FORMAT={-:-/ absolute / metric / decimal}
; #@! TF.CreationDate,2021-05-10T22:56:06+09:00
; #@! TF.GenerationSoftware,Kicad,Pcbnew,(5.1.9)-1
; #@! TF.FileFunction,NonPlated,1,2,NPTH
FMAT,2
METRIC
T1C1.200
T2C1.702
T3C3.000
T4C3.048
T5C3.988
%
G90
G05
T1
X164.302Y-69.337
X164.302Y-76.337
X181.712Y-95.387
X188.712Y-95.387
X197.052Y-95.387
X204.052Y-95.387
X280.892Y-69.337
X280.892Y-76.337
T2
X34.42Y-109.3
X34.42Y-128.35
X34.42Y-166.45
X34.42Y-185.5
X34.42Y-147.4
X44.58Y-109.3
X44.58Y-128.35
X44.58Y-166.45
X44.58Y-185.5
X44.58Y-147.4
X58.233Y-80.725
X58.233Y-109.3
X60.614Y-185.505
X62.995Y-128.35
X65.376Y-147.4
X68.393Y-80.725
X68.393Y-109.3
X70.139Y-166.45
X70.774Y-185.505
X73.155Y-128.35
X75.536Y-147.4
X77.283Y-109.3
X80.299Y-166.45
X82.049Y-185.507
X86.808Y-80.725
X86.808Y-128.35
X87.443Y-109.3
X91.57Y-147.4
X92.209Y-185.507
X96.333Y-109.3
X96.968Y-80.725
X96.968Y-128.35
X101.095Y-166.45
X101.73Y-147.4
X103.481Y-185.507
X105.858Y-80.725
X105.858Y-128.35
X106.493Y-109.3
X110.62Y-147.4
X111.255Y-166.45
X113.641Y-185.507
X115.383Y-109.3
X116.018Y-80.725
X116.018Y-128.35
X120.145Y-166.45
X120.78Y-147.4
X124.908Y-80.725
X124.908Y-128.35
X124.912Y-185.5
X125.543Y-109.3
X129.67Y-147.4
X130.305Y-166.45
X134.433Y-109.3
X135.068Y-80.725
X135.068Y-128.35
X135.072Y-185.5
X139.195Y-166.45
X139.83Y-147.4
X143.958Y-80.725
X143.958Y-128.35
X143.962Y-185.507
X144.593Y-109.3
X148.72Y-147.4
X149.355Y-166.45
X153.483Y-109.3
X154.118Y-80.725
X154.118Y-128.35
X154.122Y-185.507
X158.246Y-166.45
X158.88Y-147.4
X163.008Y-128.327
X163.643Y-109.3
X165.393Y-185.505
X167.771Y-147.4
X168.406Y-166.45
X172.533Y-80.725
X172.533Y-109.3
X173.168Y-128.327
X175.553Y-185.505
X177.296Y-166.45
X177.931Y-147.4
X182.693Y-80.725
X182.693Y-109.3
X187.456Y-166.45
X203.098Y-80.725
X203.098Y-128.327
X207.861Y-147.4
X212.623Y-109.277
X213.258Y-80.725
X213.258Y-128.327
X217.386Y-166.427
X218.021Y-147.4
X222.148Y-80.725
X222.148Y-128.327
X222.783Y-109.277
X224.53Y-185.505
X226.911Y-147.4
X227.546Y-166.427
X231.673Y-109.3
X232.308Y-80.725
X232.308Y-128.327
X234.69Y-185.505
X236.436Y-166.427
X237.071Y-147.4
X241.198Y-80.725
X241.198Y-128.327
X241.833Y-109.3
X245.961Y-147.4
X245.961Y-185.505
X246.596Y-166.427
X250.723Y-109.3
X251.358Y-80.725
X251.358Y-128.327
X255.486Y-166.45
X256.121Y-147.4
X256.121Y-185.505
X260.248Y-80.702
X260.248Y-128.327
X260.883Y-109.3
X265.011Y-147.377
X265.011Y-185.505
X265.646Y-166.45
X269.774Y-109.3
X270.408Y-80.702
X270.408Y-128.327
X274.536Y-166.45
X275.171Y-147.377
X275.171Y-185.505
X279.299Y-128.35
X279.934Y-109.3
X284.061Y-147.4
X284.061Y-185.5
X284.696Y-166.45
X288.824Y-80.702
X288.824Y-109.3
X289.459Y-128.35
X293.586Y-166.45
X294.221Y-147.4
X294.221Y-185.5
X298.349Y-128.327
X298.984Y-80.702
X298.984Y-109.3
X303.111Y-147.4
X303.111Y-185.5
X303.746Y-166.45
X307.874Y-109.3
X308.265Y-80.725
X308.509Y-128.327
X312.636Y-166.45
X313.271Y-147.4
X313.271Y-185.5
X317.399Y-128.327
X318.034Y-109.3
X318.425Y-80.725
X322.161Y-147.4
X322.161Y-185.505
X322.796Y-166.45
X326.924Y-80.725
X326.924Y-109.3
X327.559Y-128.327
X332.321Y-147.4
X332.321Y-185.505
X337.084Y-80.725
X337.084Y-109.3
X338.83Y-166.45
X343.593Y-185.505
X345.974Y-80.725
X345.974Y-109.3
X348.673Y-132.795
X348.673Y-142.955
X348.99Y-166.45
X353.753Y-185.505
X356.134Y-80.725
X356.134Y-109.3
X369.778Y-109.262
X369.786Y-128.327
X369.786Y-147.4
X369.786Y-166.45
X369.786Y-185.5
X379.938Y-109.262
X379.946Y-128.327
X379.946Y-147.4
X379.946Y-166.45
X379.946Y-185.5
T3
X35.69Y-106.76
X35.69Y-125.81
X35.69Y-163.91
X35.69Y-182.96
X35.69Y-144.86
X42.04Y-104.22
X42.04Y-123.27
X42.04Y-161.37
X42.04Y-180.42
X42.04Y-142.32
X59.503Y-78.185
X59.503Y-106.76
X61.884Y-182.965
X64.265Y-125.81
X65.853Y-75.645
X65.853Y-104.22
X66.646Y-144.86
X68.234Y-180.425
X70.615Y-123.27
X71.409Y-163.91
X72.996Y-142.32
X77.759Y-161.37
X78.553Y-106.76
X83.319Y-182.967
X84.903Y-104.22
X88.078Y-78.185
X88.078Y-125.81
X89.669Y-180.427
X92.84Y-144.86
X94.428Y-75.645
X94.428Y-123.27
X97.603Y-106.76
X99.19Y-142.32
X102.365Y-163.91
X103.953Y-104.22
X104.751Y-182.967
X107.128Y-78.185
X107.128Y-125.81
X108.715Y-161.37
X111.101Y-180.427
X111.89Y-144.86
X113.478Y-75.645
X113.478Y-123.27
X116.653Y-106.76
X118.24Y-142.32
X121.415Y-163.91
X123.003Y-104.22
X126.178Y-78.185
X126.178Y-125.81
X126.182Y-182.96
X127.765Y-161.37
X130.94Y-144.86
X132.528Y-75.645
X132.528Y-123.27
X132.532Y-180.42
X135.703Y-106.76
X137.29Y-142.32
X140.465Y-163.91
X142.053Y-104.22
X145.228Y-78.185
X145.228Y-125.81
X145.232Y-182.967
X146.815Y-161.37
X149.99Y-144.86
X151.578Y-75.645
X151.578Y-123.27
X151.582Y-180.427
X154.753Y-106.76
X156.34Y-142.32
X159.516Y-163.91
X161.103Y-104.22
X164.278Y-125.787
X165.866Y-161.37
X166.663Y-182.965
X169.041Y-144.86
X170.628Y-123.247
X173.013Y-180.425
X173.803Y-78.185
X173.803Y-106.76
X175.391Y-142.32
X178.566Y-163.91
X180.153Y-75.645
X180.153Y-104.22
X184.916Y-161.37
X204.368Y-78.185
X204.368Y-125.787
X209.131Y-144.86
X210.718Y-75.645
X210.718Y-123.247
X213.893Y-106.737
X215.481Y-142.32
X218.656Y-163.887
X220.243Y-104.197
X223.418Y-78.185
X223.418Y-125.787
X225.006Y-161.347
X225.8Y-182.965
X228.181Y-144.86
X229.768Y-75.645
X229.768Y-123.247
X232.15Y-180.425
X232.943Y-106.76
X234.531Y-142.32
X237.706Y-163.887
X239.293Y-104.22
X242.468Y-78.185
X242.468Y-125.787
X244.056Y-161.347
X247.231Y-144.86
X247.231Y-182.965
X248.818Y-75.645
X248.818Y-123.247
X251.993Y-106.76
X253.581Y-142.32
X253.581Y-180.425
X256.756Y-163.91
X258.343Y-104.22
X261.518Y-78.162
X261.518Y-125.787
X263.106Y-161.37
X266.281Y-144.837
X266.281Y-182.965
X267.868Y-75.622
X267.868Y-123.247
X271.044Y-106.76
X272.631Y-142.297
X272.631Y-180.425
X275.806Y-163.91
X277.394Y-104.22
X280.569Y-125.81
X282.156Y-161.37
X285.331Y-144.86
X285.331Y-182.96
X286.919Y-123.27
X290.094Y-78.162
X290.094Y-106.76
X291.681Y-142.32
X291.681Y-180.42
X294.856Y-163.91
X296.444Y-75.622
X296.444Y-104.22
X299.619Y-125.787
X301.206Y-161.37
X304.381Y-144.86
X304.381Y-182.96
X305.969Y-123.247
X309.144Y-106.76
X309.535Y-78.185
X310.731Y-142.32
X310.731Y-180.42
X313.906Y-163.91
X315.494Y-104.22
X315.885Y-75.645
X318.669Y-125.787
X320.256Y-161.37
X323.431Y-144.86
X323.431Y-182.965
X325.019Y-123.247
X328.194Y-78.185
X328.194Y-106.76
X329.781Y-142.32
X329.781Y-180.425
X334.544Y-75.645
X334.544Y-104.22
X340.1Y-163.91
X343.593Y-135.335
X344.863Y-182.965
X346.133Y-141.685
X346.45Y-161.37
X347.244Y-78.185
X347.244Y-106.76
X351.213Y-180.425
X353.594Y-75.645
X353.594Y-104.22
X371.048Y-106.722
X371.056Y-125.787
X371.056Y-144.86
X371.056Y-163.91
X371.056Y-182.96
X377.398Y-104.182
X377.406Y-123.247
X377.406Y-142.32
X377.406Y-161.37
X377.406Y-180.42
T4
X63.312Y-159.462
X87.112Y-159.462
X342.077Y-125.977
X342.077Y-149.777
T5
X39.5Y-109.3
X39.5Y-128.35
X39.5Y-166.45
X39.5Y-185.5
X39.5Y-147.4
X63.312Y-174.702
X63.313Y-80.725
X63.313Y-109.3
X65.694Y-185.505
X68.075Y-128.35
X70.456Y-147.4
X75.219Y-166.45
X82.363Y-109.3
X87.112Y-174.702
X87.129Y-185.507
X91.888Y-80.725
X91.888Y-128.35
X96.65Y-147.4
X101.413Y-109.3
X106.175Y-166.45
X108.561Y-185.507
X110.938Y-80.725
X110.938Y-128.35
X115.7Y-147.4
X120.463Y-109.3
X125.225Y-166.45
X129.988Y-80.725
X129.988Y-128.35
X129.992Y-185.5
X134.75Y-147.4
X139.513Y-109.3
X144.275Y-166.45
X149.038Y-80.725
X149.038Y-128.35
X149.042Y-185.507
X153.8Y-147.4
X158.563Y-109.3
X163.326Y-166.45
X168.088Y-128.327
X170.473Y-185.505
X172.851Y-147.4
X177.613Y-80.725
X177.613Y-109.3
X182.376Y-166.45
X208.178Y-80.725
X208.178Y-128.327
X212.941Y-147.4
X217.703Y-109.277
X222.466Y-166.427
X227.228Y-80.725
X227.228Y-128.327
X229.61Y-185.505
X231.991Y-147.4
X236.753Y-109.3
X241.516Y-166.427
X246.278Y-80.725
X246.278Y-128.327
X251.041Y-147.4
X251.041Y-185.505
X255.803Y-109.3
X260.566Y-166.45
X265.328Y-80.702
X265.328Y-128.327
X270.091Y-147.377
X270.091Y-185.505
X274.854Y-109.3
X279.616Y-166.45
X284.379Y-128.35
X289.141Y-147.4
X289.141Y-185.5
X293.904Y-80.702
X293.904Y-109.3
X298.666Y-166.45
X303.429Y-128.327
X308.191Y-147.4
X308.191Y-185.5
X312.954Y-109.3
X313.345Y-80.725
X317.716Y-166.45
X322.479Y-128.327
X327.241Y-147.4
X327.241Y-185.505
X332.004Y-80.725
X332.004Y-109.3
X343.91Y-166.45
X348.673Y-137.875
X348.673Y-185.505
X351.054Y-80.725
X351.054Y-109.3
X357.317Y-125.977
X357.317Y-149.777
X374.858Y-109.262
X374.866Y-128.327
X374.866Y-147.4
X374.866Y-166.45
X374.866Y-185.5
T0
M30
