M48
; DRILL file {KiCad (5.1.9)-1} date 05/10/21 22:56:06
; FORMAT={-:-/ absolute / metric / decimal}
; #@! TF.CreationDate,2021-05-10T22:56:06+09:00
; #@! TF.GenerationSoftware,Kicad,Pcbnew,(5.1.9)-1
; #@! TF.FileFunction,Plated,1,2,PTH
FMAT,2
METRIC
T1C0.300
T2C0.400
T3C0.500
T4C0.813
T5C1.000
T6C1.300
%
G90
G05
T1
X26.058Y-73.19
X26.058Y-78.19
X26.058Y-83.19
X26.058Y-88.19
X26.058Y-93.19
X26.058Y-98.19
X26.058Y-103.19
X26.058Y-108.19
X26.058Y-113.19
X26.058Y-118.19
X26.058Y-123.19
X26.058Y-128.19
X26.058Y-133.19
X26.058Y-138.19
X26.058Y-143.19
X26.058Y-148.19
X26.058Y-153.19
X26.058Y-158.19
X26.058Y-163.19
X26.058Y-168.19
X26.058Y-173.19
X26.058Y-178.19
X26.058Y-183.19
X26.058Y-188.19
X26.058Y-193.19
X28.058Y-67.19
X28.538Y-172.28
X30.813Y-198.225
X32.088Y-113.09
X32.098Y-170.18
X32.138Y-136.88
X32.138Y-174.08
X32.218Y-151.12
X32.238Y-117.08
X32.238Y-154.98
X32.408Y-132.3
X32.918Y-189.42
X32.938Y-193.88
X33.058Y-67.19
X34.638Y-100.98
X35.658Y-82.73
X35.768Y-95.29
X35.813Y-198.225
X38.058Y-67.19
X38.663Y-124.805
X38.938Y-69.48
X38.963Y-162.88
X39.213Y-182.23
X39.238Y-143.855
X40.813Y-198.225
X43.058Y-67.19
X44.628Y-85.83
X44.708Y-100.84
X45.408Y-111.53
X45.813Y-198.225
X48.058Y-67.19
X49.438Y-185.08
X49.758Y-101.33
X50.438Y-166.28
X50.813Y-198.225
X51.838Y-146.88
X52.268Y-113.93
X52.638Y-127.68
X53.058Y-67.19
X55.813Y-198.225
X56.038Y-195.38
X56.488Y-86.63
X56.798Y-73.919
X57.138Y-173.18
X58.058Y-67.19
X60.438Y-155.88
X60.663Y-114.875
X60.813Y-85.175
X60.813Y-198.225
X62.398Y-134.85
X62.788Y-77.355
X63.058Y-67.19
X63.113Y-191.075
X64.988Y-182.305
X65.713Y-133.925
X65.813Y-113.725
X65.813Y-198.225
X65.868Y-91.49
X65.948Y-107.18
X67.438Y-125.005
X67.813Y-152.975
X68.058Y-67.19
X68.613Y-189.625
X69.988Y-143.78
X70.813Y-198.225
X71.013Y-132.725
X71.8Y-172.011
X71.838Y-119.18
X73.013Y-80.305
X73.058Y-67.19
X73.413Y-151.625
X74.938Y-163.055
X75.518Y-91.54
X75.813Y-198.225
X77.238Y-103.98
X78.013Y-170.325
X78.058Y-67.19
X80.038Y-195.18
X80.388Y-134.84
X80.813Y-198.225
X82.338Y-137.78
X83.058Y-67.19
X83.628Y-91.54
X84.738Y-73.68
X84.913Y-113.725
X85.813Y-198.225
X86.578Y-181.852
X87.038Y-156.28
X88.058Y-67.19
X90.338Y-189.512
X90.813Y-198.225
X91.138Y-125.005
X91.663Y-77.455
X91.738Y-91.48
X91.938Y-119.08
X93.058Y-67.19
X94.813Y-132.625
X95.813Y-198.225
X96.063Y-143.555
X96.338Y-103.78
X98.058Y-67.19
X99.613Y-151.625
X99.938Y-137.58
X100.388Y-91.43
X100.813Y-198.225
X103.058Y-67.19
X103.838Y-195.28
X104.013Y-113.625
X104.538Y-73.88
X105.688Y-163.055
X105.813Y-198.225
X106.138Y-156.08
X107.908Y-182.132
X108.058Y-67.19
X109.313Y-170.525
X110.463Y-124.855
X110.813Y-198.225
X111.038Y-118.98
X111.598Y-189.522
X112.448Y-91.42
X113.058Y-67.19
X113.813Y-132.625
X115.138Y-143.78
X115.438Y-103.88
X115.813Y-198.225
X118.058Y-67.19
X118.313Y-151.525
X119.538Y-137.58
X120.813Y-198.225
X121.618Y-91.39
X123.058Y-67.19
X123.113Y-113.625
X124.538Y-73.68
X124.538Y-163.13
X125.238Y-195.28
X125.338Y-155.98
X125.813Y-198.225
X128.058Y-67.19
X128.113Y-170.325
X129.298Y-181.802
X129.763Y-124.855
X129.938Y-118.78
X130.813Y-198.225
X131.178Y-91.5
X132.758Y-189.282
X132.813Y-132.425
X133.058Y-67.19
X134.038Y-103.98
X134.038Y-144.155
X134.738Y-175.68
X135.813Y-198.225
X137.513Y-151.325
X138.058Y-67.19
X138.838Y-137.58
X139.648Y-91.42
X140.813Y-198.225
X142.113Y-113.625
X143.058Y-67.19
X143.838Y-162.805
X144.238Y-195.28
X144.338Y-155.98
X144.538Y-73.58
X145.813Y-198.225
X147.313Y-170.325
X148.058Y-67.19
X148.058Y-67.19
X148.413Y-124.98
X148.748Y-182.002
X148.938Y-118.88
X150.813Y-198.225
X151.138Y-91.44
X152.113Y-132.525
X152.268Y-189.532
X153.058Y-67.19
X153.188Y-143.78
X153.638Y-103.88
X153.838Y-175.68
X155.458Y-69.45
X155.813Y-198.225
X156.913Y-151.225
X158.058Y-67.19
X160.813Y-198.225
X161.158Y-91.34
X161.213Y-113.625
X163.013Y-163.18
X163.058Y-67.19
X165.338Y-135.62
X165.813Y-198.225
X165.838Y-82.28
X166.488Y-72.88
X166.513Y-170.025
X166.938Y-118.58
X167.788Y-124.73
X167.868Y-91.36
X168.058Y-67.19
X169.898Y-181.902
X170.328Y-154.54
X170.813Y-198.225
X172.238Y-144.205
X172.318Y-72.9
X172.838Y-100.85
X173.058Y-67.19
X173.338Y-95.83
X174.008Y-189.522
X174.015Y-132.803
X174.213Y-83.525
X175.318Y-116.64
X175.668Y-95.49
X175.813Y-198.225
X177.065Y-151.853
X178.058Y-67.19
X179.168Y-72.75
X179.538Y-173.75
X179.613Y-83.525
X180.038Y-87.58
X180.238Y-127.88
X180.813Y-198.225
X180.938Y-149.98
X181.713Y-162.93
X183.058Y-67.19
X185.813Y-198.225
X187.338Y-172.78
X187.438Y-109.18
X188.058Y-67.19
X188.913Y-99.955
X190.813Y-198.225
X191.138Y-69.93
X191.138Y-74.93
X191.138Y-79.93
X191.138Y-84.93
X191.138Y-89.93
X191.138Y-94.93
X191.138Y-99.93
X191.138Y-104.93
X191.138Y-109.93
X191.138Y-109.93
X191.138Y-114.93
X191.138Y-119.93
X191.138Y-124.93
X191.138Y-129.93
X191.138Y-134.93
X191.138Y-134.93
X191.138Y-139.93
X192.138Y-144.93
X193.138Y-148.93
X194.138Y-152.93
X194.733Y-67.165
X194.733Y-72.165
X194.738Y-77.18
X194.738Y-82.18
X194.738Y-87.18
X194.738Y-92.18
X194.738Y-97.18
X194.738Y-102.18
X194.738Y-107.18
X194.738Y-112.18
X194.738Y-117.18
X194.738Y-122.18
X194.738Y-127.18
X194.738Y-132.18
X194.738Y-137.18
X195.138Y-156.93
X195.813Y-198.225
X196.138Y-142.93
X196.138Y-160.93
X197.138Y-146.93
X197.138Y-164.93
X198.138Y-150.93
X198.138Y-168.93
X198.813Y-89.48
X199.138Y-154.93
X199.138Y-172.93
X199.733Y-67.165
X200.138Y-158.93
X200.513Y-94.83
X200.813Y-85.025
X200.813Y-178.225
X200.813Y-183.225
X200.813Y-188.225
X200.813Y-193.225
X200.813Y-198.225
X201.138Y-162.93
X202.138Y-166.93
X202.413Y-86.53
X203.138Y-170.93
X204.138Y-174.93
X204.138Y-179.93
X204.138Y-184.93
X204.138Y-189.93
X204.138Y-194.93
X204.413Y-86.83
X204.733Y-67.165
X205.713Y-133.825
X206.963Y-69.555
X207.538Y-124.655
X207.963Y-77.23
X208.313Y-198.225
X208.338Y-137.83
X209.733Y-67.165
X209.913Y-152.825
X210.713Y-85.025
X211.013Y-132.325
X212.313Y-143.305
X213.313Y-198.225
X213.938Y-118.88
X214.733Y-67.165
X214.913Y-114.825
X215.713Y-151.625
X217.113Y-105.455
X217.588Y-89.63
X218.063Y-98.63
X218.313Y-198.225
X219.513Y-171.825
X219.733Y-67.165
X220.213Y-113.325
X221.813Y-162.905
X221.963Y-69.58
X222.638Y-156.88
X223.313Y-198.225
X224.733Y-67.165
X225.313Y-170.725
X226.563Y-124.68
X226.713Y-77.455
X226.713Y-190.925
X227.713Y-118.655
X227.813Y-101.305
X228.313Y-198.225
X228.438Y-177.58
X229.713Y-84.525
X229.733Y-67.165
X230.313Y-132.425
X231.638Y-143.58
X231.788Y-137.455
X232.113Y-189.825
X233.313Y-198.225
X234.513Y-151.725
X234.733Y-67.165
X236.238Y-105.83
X236.538Y-89.83
X236.738Y-98.48
X236.988Y-175.03
X237.688Y-69.655
X238.313Y-198.225
X239.013Y-113.325
X239.733Y-67.165
X241.038Y-162.855
X241.938Y-156.605
X243.313Y-198.225
X243.963Y-175.755
X244.113Y-170.325
X244.733Y-67.165
X245.713Y-124.73
X245.788Y-77.28
X246.888Y-118.78
X248.313Y-198.225
X249.113Y-85.025
X249.513Y-131.325
X249.733Y-67.165
X250.163Y-143.68
X250.713Y-137.355
X250.863Y-177.63
X253.313Y-198.225
X253.913Y-188.925
X254.013Y-151.625
X254.733Y-67.165
X255.363Y-98.705
X255.513Y-105.58
X256.013Y-89.63
X256.813Y-69.655
X257.763Y-176.205
X258.313Y-198.225
X259.733Y-67.165
X259.938Y-162.705
X260.113Y-112.225
X261.113Y-156.505
X263.313Y-170.025
X263.313Y-198.225
X264.663Y-77.23
X264.733Y-67.165
X264.963Y-124.73
X265.538Y-118.905
X268.213Y-84.725
X268.313Y-198.225
X268.613Y-132.625
X269.288Y-178.73
X269.733Y-67.165
X269.863Y-143.78
X270.288Y-137.705
X270.588Y-69.655
X272.513Y-151.725
X273.313Y-188.725
X273.313Y-198.225
X274.413Y-105.605
X274.733Y-67.165
X275.063Y-98.48
X275.588Y-72.305
X276.513Y-176.93
X278.313Y-198.225
X279.013Y-162.98
X279.113Y-111.925
X279.733Y-67.165
X280.113Y-156.605
X280.663Y-80.105
X282.513Y-170.125
X283.313Y-198.225
X283.763Y-125.105
X284.388Y-90.03
X284.733Y-67.165
X284.938Y-118.755
X285.063Y-68.725
X286.363Y-72.255
X287.413Y-131.925
X288.313Y-198.225
X288.613Y-143.555
X288.763Y-180.03
X289.188Y-137.68
X289.733Y-67.165
X291.813Y-151.725
X292.213Y-189.825
X293.188Y-177.78
X293.313Y-198.225
X293.363Y-105.605
X293.763Y-77.205
X294.088Y-98.755
X294.733Y-67.165
X296.913Y-84.825
X298.088Y-162.855
X298.313Y-198.225
X298.513Y-111.725
X299.063Y-156.405
X299.733Y-67.165
X301.713Y-170.125
X303.088Y-124.755
X303.313Y-198.225
X303.488Y-118.755
X303.613Y-89.88
X304.733Y-67.165
X306.813Y-132.425
X307.138Y-180.105
X307.488Y-143.43
X308.188Y-137.705
X308.313Y-198.225
X309.733Y-67.165
X310.813Y-151.525
X311.313Y-189.325
X312.313Y-105.555
X312.388Y-178.305
X313.088Y-98.755
X313.313Y-198.225
X313.463Y-77.355
X314.733Y-67.165
X315.388Y-134.38
X315.913Y-84.525
X317.013Y-162.655
X317.313Y-112.025
X318.088Y-156.33
X318.313Y-198.225
X319.733Y-67.165
X320.613Y-170.725
X321.863Y-124.455
X322.113Y-139.28
X322.463Y-90.03
X322.463Y-118.755
X323.313Y-198.225
X324.613Y-133.875
X324.733Y-67.165
X325.413Y-132.225
X326.213Y-180.68
X326.488Y-143.53
X328.313Y-198.225
X329.713Y-151.625
X329.733Y-67.165
X330.313Y-189.425
X331.513Y-105.455
X331.713Y-77.43
X331.888Y-98.63
X333.313Y-198.225
X334.733Y-67.165
X335.013Y-84.525
X336.213Y-111.925
X337.313Y-147.625
X338.313Y-198.225
X338.388Y-154.405
X339.113Y-135.055
X339.733Y-67.165
X341.688Y-89.98
X342.263Y-118.705
X343.238Y-162.655
X343.313Y-198.225
X344.733Y-67.165
X345.963Y-175.175
X346.413Y-172.425
X346.713Y-170.525
X347.713Y-101.125
X348.288Y-181.88
X348.313Y-198.225
X349.733Y-67.165
X350.763Y-105.58
X350.813Y-77.38
X351.813Y-189.725
X353.113Y-135.425
X353.313Y-198.225
X353.913Y-86.625
X354.113Y-84.625
X354.213Y-140.825
X354.733Y-67.165
X355.413Y-113.625
X356.288Y-100.58
X357.113Y-154.93
X358.163Y-144.005
X358.313Y-198.225
X358.613Y-107.405
X359.733Y-67.165
X361.463Y-171.125
X361.688Y-85.98
X361.713Y-82.805
X362.363Y-156.48
X362.413Y-190.275
X362.738Y-79.18
X362.763Y-76.93
X363.313Y-198.225
X363.613Y-114.125
X363.713Y-133.075
X364.013Y-149.78
X364.413Y-156.525
X364.733Y-67.165
X367.163Y-114.705
X367.988Y-99.205
X368.313Y-198.225
X368.363Y-73.905
X369.733Y-67.165
X370.938Y-83.455
X373.038Y-89.53
X373.313Y-198.225
X373.863Y-125.305
X374.388Y-181.805
X374.438Y-162.355
X374.538Y-105.73
X374.588Y-143.63
X374.733Y-67.165
X377.988Y-91.93
X377.988Y-98.03
X378.038Y-85.73
X378.313Y-198.225
X379.733Y-67.165
X379.733Y-67.165
X381.413Y-101.88
X382.288Y-128.03
X383.313Y-198.225
X384.733Y-67.165
X388.313Y-70.725
X388.313Y-75.725
X388.313Y-80.725
X388.313Y-85.725
X388.313Y-90.725
X388.313Y-95.725
X388.313Y-100.725
X388.313Y-105.725
X388.313Y-110.725
X388.313Y-115.725
X388.313Y-120.725
X388.313Y-125.725
X388.313Y-130.725
X388.313Y-135.725
X388.313Y-140.725
X388.313Y-145.725
X388.313Y-150.725
X388.313Y-155.725
X388.313Y-160.725
X388.313Y-165.725
X388.313Y-170.725
X388.313Y-175.725
X388.313Y-180.725
X388.313Y-185.725
X388.313Y-190.725
X388.313Y-195.725
T2
X32.8Y-105.92
X32.8Y-107.6
X32.8Y-124.97
X32.8Y-126.65
X32.8Y-163.07
X32.8Y-164.75
X32.8Y-182.12
X32.8Y-183.8
X32.8Y-144.02
X32.8Y-145.7
X44.92Y-105.06
X44.92Y-124.11
X44.92Y-162.21
X44.92Y-181.26
X44.92Y-143.16
X44.93Y-103.39
X44.93Y-122.44
X44.93Y-160.54
X44.93Y-179.59
X44.93Y-141.49
X56.613Y-77.345
X56.613Y-79.025
X56.613Y-105.92
X56.613Y-107.6
X58.994Y-182.125
X58.994Y-183.805
X61.375Y-124.97
X61.375Y-126.65
X63.756Y-144.02
X63.756Y-145.7
X68.519Y-163.07
X68.519Y-164.75
X68.733Y-76.485
X68.733Y-105.06
X68.743Y-74.815
X68.743Y-103.39
X71.114Y-181.265
X71.124Y-179.595
X73.495Y-124.11
X73.505Y-122.44
X75.663Y-105.92
X75.663Y-107.6
X75.876Y-143.16
X75.886Y-141.49
X80.429Y-182.127
X80.429Y-183.807
X80.639Y-162.21
X80.649Y-160.54
X85.188Y-77.345
X85.188Y-79.025
X85.188Y-124.97
X85.188Y-126.65
X87.783Y-105.06
X87.793Y-103.39
X89.95Y-144.02
X89.95Y-145.7
X92.549Y-181.267
X92.559Y-179.597
X94.713Y-105.92
X94.713Y-107.6
X97.308Y-76.485
X97.308Y-124.11
X97.318Y-74.815
X97.318Y-122.44
X99.475Y-163.07
X99.475Y-164.75
X101.861Y-182.127
X101.861Y-183.807
X102.07Y-143.16
X102.08Y-141.49
X104.238Y-77.345
X104.238Y-79.025
X104.238Y-124.97
X104.238Y-126.65
X106.833Y-105.06
X106.843Y-103.39
X109.0Y-144.02
X109.0Y-145.7
X111.595Y-162.21
X111.605Y-160.54
X113.763Y-105.92
X113.763Y-107.6
X113.981Y-181.267
X113.991Y-179.597
X116.358Y-76.485
X116.358Y-124.11
X116.368Y-74.815
X116.368Y-122.44
X118.525Y-163.07
X118.525Y-164.75
X121.12Y-143.16
X121.13Y-141.49
X123.288Y-77.345
X123.288Y-79.025
X123.288Y-124.97
X123.288Y-126.65
X123.292Y-182.12
X123.292Y-183.8
X125.883Y-105.06
X125.893Y-103.39
X128.05Y-144.02
X128.05Y-145.7
X130.645Y-162.21
X130.655Y-160.54
X132.813Y-105.92
X132.813Y-107.6
X135.408Y-76.485
X135.408Y-124.11
X135.412Y-181.26
X135.418Y-74.815
X135.418Y-122.44
X135.422Y-179.59
X137.575Y-163.07
X137.575Y-164.75
X140.17Y-143.16
X140.18Y-141.49
X142.338Y-77.345
X142.338Y-79.025
X142.338Y-124.97
X142.338Y-126.65
X142.342Y-182.127
X142.342Y-183.807
X144.933Y-105.06
X144.943Y-103.39
X147.1Y-144.02
X147.1Y-145.7
X149.695Y-162.21
X149.705Y-160.54
X151.863Y-105.92
X151.863Y-107.6
X154.458Y-76.485
X154.458Y-124.11
X154.462Y-181.267
X154.468Y-74.815
X154.468Y-122.44
X154.472Y-179.597
X156.626Y-163.07
X156.626Y-164.75
X159.22Y-143.16
X159.23Y-141.49
X161.388Y-124.947
X161.388Y-126.627
X163.773Y-182.125
X163.773Y-183.805
X163.983Y-105.06
X163.993Y-103.39
X166.151Y-144.02
X166.151Y-145.7
X168.746Y-162.21
X168.756Y-160.54
X170.913Y-77.345
X170.913Y-79.025
X170.913Y-105.92
X170.913Y-107.6
X173.508Y-124.087
X173.518Y-122.417
X175.676Y-163.07
X175.676Y-164.75
X175.893Y-181.265
X175.903Y-179.595
X178.271Y-143.16
X178.281Y-141.49
X183.033Y-76.485
X183.033Y-105.06
X183.043Y-74.815
X183.043Y-103.39
X187.796Y-162.21
X187.806Y-160.54
X201.478Y-77.345
X201.478Y-79.025
X201.478Y-124.947
X201.478Y-126.627
X206.241Y-144.02
X206.241Y-145.7
X211.003Y-105.897
X211.003Y-107.577
X213.598Y-76.485
X213.598Y-124.087
X213.608Y-74.815
X213.608Y-122.417
X215.766Y-163.047
X215.766Y-164.727
X218.361Y-143.16
X218.371Y-141.49
X220.528Y-77.345
X220.528Y-79.025
X220.528Y-124.947
X220.528Y-126.627
X222.91Y-182.125
X222.91Y-183.805
X223.123Y-105.037
X223.133Y-103.367
X225.291Y-144.02
X225.291Y-145.7
X227.886Y-162.187
X227.896Y-160.517
X230.053Y-105.92
X230.053Y-107.6
X232.648Y-76.485
X232.648Y-124.087
X232.658Y-74.815
X232.658Y-122.417
X234.816Y-163.047
X234.816Y-164.727
X235.03Y-181.265
X235.04Y-179.595
X237.411Y-143.16
X237.421Y-141.49
X239.578Y-77.345
X239.578Y-79.025
X239.578Y-124.947
X239.578Y-126.627
X242.173Y-105.06
X242.183Y-103.39
X244.341Y-144.02
X244.341Y-145.7
X244.341Y-182.125
X244.341Y-183.805
X246.936Y-162.187
X246.946Y-160.517
X249.103Y-105.92
X249.103Y-107.6
X251.698Y-76.485
X251.698Y-124.087
X251.708Y-74.815
X251.708Y-122.417
X253.866Y-163.07
X253.866Y-164.75
X256.461Y-143.16
X256.461Y-181.265
X256.471Y-141.49
X256.471Y-179.595
X258.628Y-77.322
X258.628Y-79.002
X258.628Y-124.947
X258.628Y-126.627
X261.223Y-105.06
X261.233Y-103.39
X263.391Y-143.997
X263.391Y-145.677
X263.391Y-182.125
X263.391Y-183.805
X265.986Y-162.21
X265.996Y-160.54
X268.154Y-105.92
X268.154Y-107.6
X270.748Y-76.462
X270.748Y-124.087
X270.758Y-74.792
X270.758Y-122.417
X272.916Y-163.07
X272.916Y-164.75
X275.511Y-143.137
X275.511Y-181.265
X275.521Y-141.467
X275.521Y-179.595
X277.679Y-124.97
X277.679Y-126.65
X280.274Y-105.06
X280.284Y-103.39
X282.441Y-144.02
X282.441Y-145.7
X282.441Y-182.12
X282.441Y-183.8
X285.036Y-162.21
X285.046Y-160.54
X287.204Y-77.322
X287.204Y-79.002
X287.204Y-105.92
X287.204Y-107.6
X289.799Y-124.11
X289.809Y-122.44
X291.966Y-163.07
X291.966Y-164.75
X294.561Y-143.16
X294.561Y-181.26
X294.571Y-141.49
X294.571Y-179.59
X296.729Y-124.947
X296.729Y-126.627
X299.324Y-76.462
X299.324Y-105.06
X299.334Y-74.792
X299.334Y-103.39
X301.491Y-144.02
X301.491Y-145.7
X301.491Y-182.12
X301.491Y-183.8
X304.086Y-162.21
X304.096Y-160.54
X306.254Y-105.92
X306.254Y-107.6
X306.645Y-77.345
X306.645Y-79.025
X308.849Y-124.087
X308.859Y-122.417
X311.016Y-163.07
X311.016Y-164.75
X313.611Y-143.16
X313.611Y-181.26
X313.621Y-141.49
X313.621Y-179.59
X315.779Y-124.947
X315.779Y-126.627
X318.374Y-105.06
X318.384Y-103.39
X318.765Y-76.485
X318.775Y-74.815
X320.541Y-144.02
X320.541Y-145.7
X320.541Y-182.125
X320.541Y-183.805
X323.136Y-162.21
X323.146Y-160.54
X325.304Y-77.345
X325.304Y-79.025
X325.304Y-105.92
X325.304Y-107.6
X327.899Y-124.087
X327.909Y-122.417
X332.661Y-143.16
X332.661Y-181.265
X332.671Y-141.49
X332.671Y-179.595
X337.21Y-163.07
X337.21Y-164.75
X337.424Y-76.485
X337.424Y-105.06
X337.434Y-74.815
X337.434Y-103.39
X341.973Y-182.125
X341.973Y-183.805
X342.763Y-132.445
X344.354Y-77.345
X344.354Y-79.025
X344.354Y-105.92
X344.354Y-107.6
X344.433Y-132.455
X345.293Y-144.575
X346.973Y-144.575
X349.33Y-162.21
X349.34Y-160.54
X354.093Y-181.265
X354.103Y-179.595
X356.474Y-76.485
X356.474Y-105.06
X356.484Y-74.815
X356.484Y-103.39
X368.158Y-105.882
X368.158Y-107.562
X368.166Y-124.947
X368.166Y-126.627
X368.166Y-144.02
X368.166Y-145.7
X368.166Y-163.07
X368.166Y-164.75
X368.166Y-182.12
X368.166Y-183.8
X380.278Y-105.022
X380.286Y-124.087
X380.286Y-143.16
X380.286Y-162.21
X380.286Y-181.26
X380.288Y-103.352
X380.296Y-122.417
X380.296Y-141.49
X380.296Y-160.54
X380.296Y-179.59
T3
X174.613Y-89.475
T4
X33.901Y-71.379
X33.901Y-73.919
X33.901Y-76.459
X33.901Y-78.999
X33.901Y-81.539
X33.901Y-84.079
X33.901Y-86.619
X33.901Y-89.159
X33.901Y-91.699
X33.901Y-94.239
X33.901Y-96.779
X33.901Y-99.319
X49.121Y-71.379
X49.121Y-73.919
X49.121Y-76.459
X49.121Y-78.999
X49.121Y-81.539
X49.121Y-84.079
X49.121Y-86.619
X49.121Y-89.159
X49.121Y-91.699
X49.121Y-94.239
X49.121Y-96.779
X49.121Y-99.319
X365.371Y-71.379
X365.371Y-73.919
X365.371Y-76.459
X365.371Y-78.999
X365.371Y-81.539
X365.371Y-84.079
X365.371Y-86.619
X365.371Y-89.159
X365.371Y-91.699
X365.371Y-94.239
X365.371Y-96.779
X365.371Y-99.319
X380.591Y-71.379
X380.591Y-73.919
X380.591Y-76.459
X380.591Y-78.999
X380.591Y-81.539
X380.591Y-84.079
X380.591Y-86.619
X380.591Y-89.159
X380.591Y-91.699
X380.591Y-94.239
X380.591Y-96.779
X380.591Y-99.319
T6
X184.622Y-123.897
X184.622Y-130.397
X200.742Y-105.397
X200.742Y-111.897
T5
G00X162.202Y-71.387
M15
G01X162.202Y-70.887
M16
G05
G00X162.202Y-74.387
M15
G01X162.202Y-73.887
M16
G05
G00X162.202Y-78.387
M15
G01X162.202Y-77.887
M16
G05
G00X166.402Y-79.887
M15
G01X166.402Y-79.387
M16
G05
G00X178.162Y-97.487
M15
G01X178.662Y-97.487
M16
G05
G00X179.662Y-93.287
M15
G01X180.162Y-93.287
M16
G05
G00X183.662Y-93.287
M15
G01X184.162Y-93.287
M16
G05
G00X186.662Y-93.287
M15
G01X187.162Y-93.287
M16
G05
G00X199.102Y-97.487
M15
G01X198.602Y-97.487
M16
G05
G00X202.102Y-97.487
M15
G01X201.602Y-97.487
M16
G05
G00X206.102Y-97.487
M15
G01X205.602Y-97.487
M16
G05
G00X207.602Y-93.287
M15
G01X207.102Y-93.287
M16
G05
G00X278.792Y-71.387
M15
G01X278.792Y-70.887
M16
G05
G00X278.792Y-74.387
M15
G01X278.792Y-73.887
M16
G05
G00X278.792Y-78.387
M15
G01X278.792Y-77.887
M16
G05
G00X282.992Y-79.887
M15
G01X282.992Y-79.387
M16
G05
T0
M30
