%TF.GenerationSoftware,KiCad,Pcbnew,(5.1.9)-1*%
%TF.CreationDate,2021-05-10T22:56:04+09:00*%
%TF.ProjectId,Pistachio_rev2,50697374-6163-4686-996f-5f726576322e,rev?*%
%TF.SameCoordinates,Original*%
%TF.FileFunction,Legend,Top*%
%TF.FilePolarity,Positive*%
%FSLAX46Y46*%
G04 Gerber Fmt 4.6, Leading zero omitted, Abs format (unit mm)*
G04 Created by KiCad (PCBNEW (5.1.9)-1) date 2021-05-10 22:56:04*
%MOMM*%
%LPD*%
G01*
G04 APERTURE LIST*
%ADD10C,0.150000*%
%ADD11C,0.010000*%
%ADD12C,0.100000*%
G04 APERTURE END LIST*
D10*
X204298195Y-191306940D02*
X204298195Y-190306940D01*
X204679147Y-190306940D01*
X204774385Y-190354560D01*
X204822004Y-190402179D01*
X204869623Y-190497417D01*
X204869623Y-190640274D01*
X204822004Y-190735512D01*
X204774385Y-190783131D01*
X204679147Y-190830750D01*
X204298195Y-190830750D01*
X205298195Y-191306940D02*
X205298195Y-190640274D01*
X205298195Y-190306940D02*
X205250576Y-190354560D01*
X205298195Y-190402179D01*
X205345814Y-190354560D01*
X205298195Y-190306940D01*
X205298195Y-190402179D01*
X205726766Y-191259321D02*
X205822004Y-191306940D01*
X206012480Y-191306940D01*
X206107719Y-191259321D01*
X206155338Y-191164083D01*
X206155338Y-191116464D01*
X206107719Y-191021226D01*
X206012480Y-190973607D01*
X205869623Y-190973607D01*
X205774385Y-190925988D01*
X205726766Y-190830750D01*
X205726766Y-190783131D01*
X205774385Y-190687893D01*
X205869623Y-190640274D01*
X206012480Y-190640274D01*
X206107719Y-190687893D01*
X206441052Y-190640274D02*
X206822004Y-190640274D01*
X206583909Y-190306940D02*
X206583909Y-191164083D01*
X206631528Y-191259321D01*
X206726766Y-191306940D01*
X206822004Y-191306940D01*
X207583909Y-191306940D02*
X207583909Y-190783131D01*
X207536290Y-190687893D01*
X207441052Y-190640274D01*
X207250576Y-190640274D01*
X207155338Y-190687893D01*
X207583909Y-191259321D02*
X207488671Y-191306940D01*
X207250576Y-191306940D01*
X207155338Y-191259321D01*
X207107719Y-191164083D01*
X207107719Y-191068845D01*
X207155338Y-190973607D01*
X207250576Y-190925988D01*
X207488671Y-190925988D01*
X207583909Y-190878369D01*
X208488671Y-191259321D02*
X208393433Y-191306940D01*
X208202957Y-191306940D01*
X208107719Y-191259321D01*
X208060100Y-191211702D01*
X208012480Y-191116464D01*
X208012480Y-190830750D01*
X208060100Y-190735512D01*
X208107719Y-190687893D01*
X208202957Y-190640274D01*
X208393433Y-190640274D01*
X208488671Y-190687893D01*
X208917242Y-191306940D02*
X208917242Y-190306940D01*
X209345814Y-191306940D02*
X209345814Y-190783131D01*
X209298195Y-190687893D01*
X209202957Y-190640274D01*
X209060100Y-190640274D01*
X208964861Y-190687893D01*
X208917242Y-190735512D01*
X209822004Y-191306940D02*
X209822004Y-190640274D01*
X209822004Y-190306940D02*
X209774385Y-190354560D01*
X209822004Y-190402179D01*
X209869623Y-190354560D01*
X209822004Y-190306940D01*
X209822004Y-190402179D01*
X210441052Y-191306940D02*
X210345814Y-191259321D01*
X210298195Y-191211702D01*
X210250576Y-191116464D01*
X210250576Y-190830750D01*
X210298195Y-190735512D01*
X210345814Y-190687893D01*
X210441052Y-190640274D01*
X210583909Y-190640274D01*
X210679147Y-190687893D01*
X210726766Y-190735512D01*
X210774385Y-190830750D01*
X210774385Y-191116464D01*
X210726766Y-191211702D01*
X210679147Y-191259321D01*
X210583909Y-191306940D01*
X210441052Y-191306940D01*
X211869623Y-190640274D02*
X212107719Y-191306940D01*
X212345814Y-190640274D01*
X213107719Y-191259321D02*
X213012480Y-191306940D01*
X212822004Y-191306940D01*
X212726766Y-191259321D01*
X212679147Y-191164083D01*
X212679147Y-190783131D01*
X212726766Y-190687893D01*
X212822004Y-190640274D01*
X213012480Y-190640274D01*
X213107719Y-190687893D01*
X213155338Y-190783131D01*
X213155338Y-190878369D01*
X212679147Y-190973607D01*
X213583909Y-191306940D02*
X213583909Y-190640274D01*
X213583909Y-190830750D02*
X213631528Y-190735512D01*
X213679147Y-190687893D01*
X213774385Y-190640274D01*
X213869623Y-190640274D01*
X214155338Y-190402179D02*
X214202957Y-190354560D01*
X214298195Y-190306940D01*
X214536290Y-190306940D01*
X214631528Y-190354560D01*
X214679147Y-190402179D01*
X214726766Y-190497417D01*
X214726766Y-190592655D01*
X214679147Y-190735512D01*
X214107719Y-191306940D01*
X214726766Y-191306940D01*
X215155338Y-191211702D02*
X215202957Y-191259321D01*
X215155338Y-191306940D01*
X215107719Y-191259321D01*
X215155338Y-191211702D01*
X215155338Y-191306940D01*
X215822004Y-190306940D02*
X215917242Y-190306940D01*
X216012480Y-190354560D01*
X216060100Y-190402179D01*
X216107719Y-190497417D01*
X216155338Y-190687893D01*
X216155338Y-190925988D01*
X216107719Y-191116464D01*
X216060100Y-191211702D01*
X216012480Y-191259321D01*
X215917242Y-191306940D01*
X215822004Y-191306940D01*
X215726766Y-191259321D01*
X215679147Y-191211702D01*
X215631528Y-191116464D01*
X215583909Y-190925988D01*
X215583909Y-190687893D01*
X215631528Y-190497417D01*
X215679147Y-190402179D01*
X215726766Y-190354560D01*
X215822004Y-190306940D01*
X204298195Y-192956940D02*
X204298195Y-191956940D01*
X204536290Y-191956940D01*
X204679147Y-192004560D01*
X204774385Y-192099798D01*
X204822004Y-192195036D01*
X204869623Y-192385512D01*
X204869623Y-192528369D01*
X204822004Y-192718845D01*
X204774385Y-192814083D01*
X204679147Y-192909321D01*
X204536290Y-192956940D01*
X204298195Y-192956940D01*
X205679147Y-192909321D02*
X205583909Y-192956940D01*
X205393433Y-192956940D01*
X205298195Y-192909321D01*
X205250576Y-192814083D01*
X205250576Y-192433131D01*
X205298195Y-192337893D01*
X205393433Y-192290274D01*
X205583909Y-192290274D01*
X205679147Y-192337893D01*
X205726766Y-192433131D01*
X205726766Y-192528369D01*
X205250576Y-192623607D01*
X206107719Y-192909321D02*
X206202957Y-192956940D01*
X206393433Y-192956940D01*
X206488671Y-192909321D01*
X206536290Y-192814083D01*
X206536290Y-192766464D01*
X206488671Y-192671226D01*
X206393433Y-192623607D01*
X206250576Y-192623607D01*
X206155338Y-192575988D01*
X206107719Y-192480750D01*
X206107719Y-192433131D01*
X206155338Y-192337893D01*
X206250576Y-192290274D01*
X206393433Y-192290274D01*
X206488671Y-192337893D01*
X206964861Y-192956940D02*
X206964861Y-192290274D01*
X206964861Y-191956940D02*
X206917242Y-192004560D01*
X206964861Y-192052179D01*
X207012480Y-192004560D01*
X206964861Y-191956940D01*
X206964861Y-192052179D01*
X207869623Y-192290274D02*
X207869623Y-193099798D01*
X207822004Y-193195036D01*
X207774385Y-193242655D01*
X207679147Y-193290274D01*
X207536290Y-193290274D01*
X207441052Y-193242655D01*
X207869623Y-192909321D02*
X207774385Y-192956940D01*
X207583909Y-192956940D01*
X207488671Y-192909321D01*
X207441052Y-192861702D01*
X207393433Y-192766464D01*
X207393433Y-192480750D01*
X207441052Y-192385512D01*
X207488671Y-192337893D01*
X207583909Y-192290274D01*
X207774385Y-192290274D01*
X207869623Y-192337893D01*
X208345814Y-192290274D02*
X208345814Y-192956940D01*
X208345814Y-192385512D02*
X208393433Y-192337893D01*
X208488671Y-192290274D01*
X208631528Y-192290274D01*
X208726766Y-192337893D01*
X208774385Y-192433131D01*
X208774385Y-192956940D01*
X209631528Y-192909321D02*
X209536290Y-192956940D01*
X209345814Y-192956940D01*
X209250576Y-192909321D01*
X209202957Y-192814083D01*
X209202957Y-192433131D01*
X209250576Y-192337893D01*
X209345814Y-192290274D01*
X209536290Y-192290274D01*
X209631528Y-192337893D01*
X209679147Y-192433131D01*
X209679147Y-192528369D01*
X209202957Y-192623607D01*
X210536290Y-192956940D02*
X210536290Y-191956940D01*
X210536290Y-192909321D02*
X210441052Y-192956940D01*
X210250576Y-192956940D01*
X210155338Y-192909321D01*
X210107719Y-192861702D01*
X210060100Y-192766464D01*
X210060100Y-192480750D01*
X210107719Y-192385512D01*
X210155338Y-192337893D01*
X210250576Y-192290274D01*
X210441052Y-192290274D01*
X210536290Y-192337893D01*
X211774385Y-192956940D02*
X211774385Y-191956940D01*
X211774385Y-192337893D02*
X211869623Y-192290274D01*
X212060100Y-192290274D01*
X212155338Y-192337893D01*
X212202957Y-192385512D01*
X212250576Y-192480750D01*
X212250576Y-192766464D01*
X212202957Y-192861702D01*
X212155338Y-192909321D01*
X212060100Y-192956940D01*
X211869623Y-192956940D01*
X211774385Y-192909321D01*
X212583909Y-192290274D02*
X212822004Y-192956940D01*
X213060100Y-192290274D02*
X212822004Y-192956940D01*
X212726766Y-193195036D01*
X212679147Y-193242655D01*
X212583909Y-193290274D01*
X214107719Y-191956940D02*
X214774385Y-191956940D01*
X214345814Y-192956940D01*
X214917242Y-193052179D02*
X215679147Y-193052179D01*
X215917242Y-192956940D02*
X215917242Y-192290274D01*
X215917242Y-192480750D02*
X215964861Y-192385512D01*
X216012480Y-192337893D01*
X216107719Y-192290274D01*
X216202957Y-192290274D01*
X216964861Y-192956940D02*
X216964861Y-192433131D01*
X216917242Y-192337893D01*
X216822004Y-192290274D01*
X216631528Y-192290274D01*
X216536290Y-192337893D01*
X216964861Y-192909321D02*
X216869623Y-192956940D01*
X216631528Y-192956940D01*
X216536290Y-192909321D01*
X216488671Y-192814083D01*
X216488671Y-192718845D01*
X216536290Y-192623607D01*
X216631528Y-192575988D01*
X216869623Y-192575988D01*
X216964861Y-192528369D01*
X217298195Y-192290274D02*
X217679147Y-192290274D01*
X217441052Y-191956940D02*
X217441052Y-192814083D01*
X217488671Y-192909321D01*
X217583909Y-192956940D01*
X217679147Y-192956940D01*
X218393433Y-192909321D02*
X218298195Y-192956940D01*
X218107719Y-192956940D01*
X218012480Y-192909321D01*
X217964861Y-192814083D01*
X217964861Y-192433131D01*
X218012480Y-192337893D01*
X218107719Y-192290274D01*
X218298195Y-192290274D01*
X218393433Y-192337893D01*
X218441052Y-192433131D01*
X218441052Y-192528369D01*
X217964861Y-192623607D01*
X184023195Y-190656940D02*
X184023195Y-189656940D01*
X184404147Y-189656940D01*
X184499385Y-189704560D01*
X184547004Y-189752179D01*
X184594623Y-189847417D01*
X184594623Y-189990274D01*
X184547004Y-190085512D01*
X184499385Y-190133131D01*
X184404147Y-190180750D01*
X184023195Y-190180750D01*
X185023195Y-190656940D02*
X185023195Y-189990274D01*
X185023195Y-189656940D02*
X184975576Y-189704560D01*
X185023195Y-189752179D01*
X185070814Y-189704560D01*
X185023195Y-189656940D01*
X185023195Y-189752179D01*
X185451766Y-190609321D02*
X185547004Y-190656940D01*
X185737480Y-190656940D01*
X185832719Y-190609321D01*
X185880338Y-190514083D01*
X185880338Y-190466464D01*
X185832719Y-190371226D01*
X185737480Y-190323607D01*
X185594623Y-190323607D01*
X185499385Y-190275988D01*
X185451766Y-190180750D01*
X185451766Y-190133131D01*
X185499385Y-190037893D01*
X185594623Y-189990274D01*
X185737480Y-189990274D01*
X185832719Y-190037893D01*
X186166052Y-189990274D02*
X186547004Y-189990274D01*
X186308909Y-189656940D02*
X186308909Y-190514083D01*
X186356528Y-190609321D01*
X186451766Y-190656940D01*
X186547004Y-190656940D01*
X187308909Y-190656940D02*
X187308909Y-190133131D01*
X187261290Y-190037893D01*
X187166052Y-189990274D01*
X186975576Y-189990274D01*
X186880338Y-190037893D01*
X187308909Y-190609321D02*
X187213671Y-190656940D01*
X186975576Y-190656940D01*
X186880338Y-190609321D01*
X186832719Y-190514083D01*
X186832719Y-190418845D01*
X186880338Y-190323607D01*
X186975576Y-190275988D01*
X187213671Y-190275988D01*
X187308909Y-190228369D01*
X188213671Y-190609321D02*
X188118433Y-190656940D01*
X187927957Y-190656940D01*
X187832719Y-190609321D01*
X187785100Y-190561702D01*
X187737480Y-190466464D01*
X187737480Y-190180750D01*
X187785100Y-190085512D01*
X187832719Y-190037893D01*
X187927957Y-189990274D01*
X188118433Y-189990274D01*
X188213671Y-190037893D01*
X188642242Y-190656940D02*
X188642242Y-189656940D01*
X189070814Y-190656940D02*
X189070814Y-190133131D01*
X189023195Y-190037893D01*
X188927957Y-189990274D01*
X188785100Y-189990274D01*
X188689861Y-190037893D01*
X188642242Y-190085512D01*
X189547004Y-190656940D02*
X189547004Y-189990274D01*
X189547004Y-189656940D02*
X189499385Y-189704560D01*
X189547004Y-189752179D01*
X189594623Y-189704560D01*
X189547004Y-189656940D01*
X189547004Y-189752179D01*
X190166052Y-190656940D02*
X190070814Y-190609321D01*
X190023195Y-190561702D01*
X189975576Y-190466464D01*
X189975576Y-190180750D01*
X190023195Y-190085512D01*
X190070814Y-190037893D01*
X190166052Y-189990274D01*
X190308909Y-189990274D01*
X190404147Y-190037893D01*
X190451766Y-190085512D01*
X190499385Y-190180750D01*
X190499385Y-190466464D01*
X190451766Y-190561702D01*
X190404147Y-190609321D01*
X190308909Y-190656940D01*
X190166052Y-190656940D01*
X191594623Y-189990274D02*
X191832719Y-190656940D01*
X192070814Y-189990274D01*
X192832719Y-190609321D02*
X192737480Y-190656940D01*
X192547004Y-190656940D01*
X192451766Y-190609321D01*
X192404147Y-190514083D01*
X192404147Y-190133131D01*
X192451766Y-190037893D01*
X192547004Y-189990274D01*
X192737480Y-189990274D01*
X192832719Y-190037893D01*
X192880338Y-190133131D01*
X192880338Y-190228369D01*
X192404147Y-190323607D01*
X193308909Y-190656940D02*
X193308909Y-189990274D01*
X193308909Y-190180750D02*
X193356528Y-190085512D01*
X193404147Y-190037893D01*
X193499385Y-189990274D01*
X193594623Y-189990274D01*
X193880338Y-189752179D02*
X193927957Y-189704560D01*
X194023195Y-189656940D01*
X194261290Y-189656940D01*
X194356528Y-189704560D01*
X194404147Y-189752179D01*
X194451766Y-189847417D01*
X194451766Y-189942655D01*
X194404147Y-190085512D01*
X193832719Y-190656940D01*
X194451766Y-190656940D01*
X194880338Y-190561702D02*
X194927957Y-190609321D01*
X194880338Y-190656940D01*
X194832719Y-190609321D01*
X194880338Y-190561702D01*
X194880338Y-190656940D01*
X195547004Y-189656940D02*
X195642242Y-189656940D01*
X195737480Y-189704560D01*
X195785100Y-189752179D01*
X195832719Y-189847417D01*
X195880338Y-190037893D01*
X195880338Y-190275988D01*
X195832719Y-190466464D01*
X195785100Y-190561702D01*
X195737480Y-190609321D01*
X195642242Y-190656940D01*
X195547004Y-190656940D01*
X195451766Y-190609321D01*
X195404147Y-190561702D01*
X195356528Y-190466464D01*
X195308909Y-190275988D01*
X195308909Y-190037893D01*
X195356528Y-189847417D01*
X195404147Y-189752179D01*
X195451766Y-189704560D01*
X195547004Y-189656940D01*
X184023195Y-192306940D02*
X184023195Y-191306940D01*
X184261290Y-191306940D01*
X184404147Y-191354560D01*
X184499385Y-191449798D01*
X184547004Y-191545036D01*
X184594623Y-191735512D01*
X184594623Y-191878369D01*
X184547004Y-192068845D01*
X184499385Y-192164083D01*
X184404147Y-192259321D01*
X184261290Y-192306940D01*
X184023195Y-192306940D01*
X185404147Y-192259321D02*
X185308909Y-192306940D01*
X185118433Y-192306940D01*
X185023195Y-192259321D01*
X184975576Y-192164083D01*
X184975576Y-191783131D01*
X185023195Y-191687893D01*
X185118433Y-191640274D01*
X185308909Y-191640274D01*
X185404147Y-191687893D01*
X185451766Y-191783131D01*
X185451766Y-191878369D01*
X184975576Y-191973607D01*
X185832719Y-192259321D02*
X185927957Y-192306940D01*
X186118433Y-192306940D01*
X186213671Y-192259321D01*
X186261290Y-192164083D01*
X186261290Y-192116464D01*
X186213671Y-192021226D01*
X186118433Y-191973607D01*
X185975576Y-191973607D01*
X185880338Y-191925988D01*
X185832719Y-191830750D01*
X185832719Y-191783131D01*
X185880338Y-191687893D01*
X185975576Y-191640274D01*
X186118433Y-191640274D01*
X186213671Y-191687893D01*
X186689861Y-192306940D02*
X186689861Y-191640274D01*
X186689861Y-191306940D02*
X186642242Y-191354560D01*
X186689861Y-191402179D01*
X186737480Y-191354560D01*
X186689861Y-191306940D01*
X186689861Y-191402179D01*
X187594623Y-191640274D02*
X187594623Y-192449798D01*
X187547004Y-192545036D01*
X187499385Y-192592655D01*
X187404147Y-192640274D01*
X187261290Y-192640274D01*
X187166052Y-192592655D01*
X187594623Y-192259321D02*
X187499385Y-192306940D01*
X187308909Y-192306940D01*
X187213671Y-192259321D01*
X187166052Y-192211702D01*
X187118433Y-192116464D01*
X187118433Y-191830750D01*
X187166052Y-191735512D01*
X187213671Y-191687893D01*
X187308909Y-191640274D01*
X187499385Y-191640274D01*
X187594623Y-191687893D01*
X188070814Y-191640274D02*
X188070814Y-192306940D01*
X188070814Y-191735512D02*
X188118433Y-191687893D01*
X188213671Y-191640274D01*
X188356528Y-191640274D01*
X188451766Y-191687893D01*
X188499385Y-191783131D01*
X188499385Y-192306940D01*
X189356528Y-192259321D02*
X189261290Y-192306940D01*
X189070814Y-192306940D01*
X188975576Y-192259321D01*
X188927957Y-192164083D01*
X188927957Y-191783131D01*
X188975576Y-191687893D01*
X189070814Y-191640274D01*
X189261290Y-191640274D01*
X189356528Y-191687893D01*
X189404147Y-191783131D01*
X189404147Y-191878369D01*
X188927957Y-191973607D01*
X190261290Y-192306940D02*
X190261290Y-191306940D01*
X190261290Y-192259321D02*
X190166052Y-192306940D01*
X189975576Y-192306940D01*
X189880338Y-192259321D01*
X189832719Y-192211702D01*
X189785100Y-192116464D01*
X189785100Y-191830750D01*
X189832719Y-191735512D01*
X189880338Y-191687893D01*
X189975576Y-191640274D01*
X190166052Y-191640274D01*
X190261290Y-191687893D01*
X191499385Y-192306940D02*
X191499385Y-191306940D01*
X191499385Y-191687893D02*
X191594623Y-191640274D01*
X191785100Y-191640274D01*
X191880338Y-191687893D01*
X191927957Y-191735512D01*
X191975576Y-191830750D01*
X191975576Y-192116464D01*
X191927957Y-192211702D01*
X191880338Y-192259321D01*
X191785100Y-192306940D01*
X191594623Y-192306940D01*
X191499385Y-192259321D01*
X192308909Y-191640274D02*
X192547004Y-192306940D01*
X192785100Y-191640274D02*
X192547004Y-192306940D01*
X192451766Y-192545036D01*
X192404147Y-192592655D01*
X192308909Y-192640274D01*
X193832719Y-191306940D02*
X194499385Y-191306940D01*
X194070814Y-192306940D01*
X194642242Y-192402179D02*
X195404147Y-192402179D01*
X195642242Y-192306940D02*
X195642242Y-191640274D01*
X195642242Y-191830750D02*
X195689861Y-191735512D01*
X195737480Y-191687893D01*
X195832719Y-191640274D01*
X195927957Y-191640274D01*
X196689861Y-192306940D02*
X196689861Y-191783131D01*
X196642242Y-191687893D01*
X196547004Y-191640274D01*
X196356528Y-191640274D01*
X196261290Y-191687893D01*
X196689861Y-192259321D02*
X196594623Y-192306940D01*
X196356528Y-192306940D01*
X196261290Y-192259321D01*
X196213671Y-192164083D01*
X196213671Y-192068845D01*
X196261290Y-191973607D01*
X196356528Y-191925988D01*
X196594623Y-191925988D01*
X196689861Y-191878369D01*
X197023195Y-191640274D02*
X197404147Y-191640274D01*
X197166052Y-191306940D02*
X197166052Y-192164083D01*
X197213671Y-192259321D01*
X197308909Y-192306940D01*
X197404147Y-192306940D01*
X198118433Y-192259321D02*
X198023195Y-192306940D01*
X197832719Y-192306940D01*
X197737480Y-192259321D01*
X197689861Y-192164083D01*
X197689861Y-191783131D01*
X197737480Y-191687893D01*
X197832719Y-191640274D01*
X198023195Y-191640274D01*
X198118433Y-191687893D01*
X198166052Y-191783131D01*
X198166052Y-191878369D01*
X197689861Y-191973607D01*
%TO.C,SW83*%
X156042080Y-178506740D02*
X156042080Y-179506740D01*
X155042080Y-192506740D02*
X156042080Y-192506740D01*
X156042080Y-178506740D02*
X155042080Y-178506740D01*
X156042080Y-191506740D02*
X156042080Y-192506740D01*
X142042080Y-192506740D02*
X142042080Y-191506740D01*
X143042080Y-178506740D02*
X142042080Y-178506740D01*
X142042080Y-192506740D02*
X143042080Y-192506740D01*
X142042080Y-179506740D02*
X142042080Y-178506740D01*
%TO.C,SW82*%
X136992000Y-178500000D02*
X136992000Y-179500000D01*
X135992000Y-192500000D02*
X136992000Y-192500000D01*
X136992000Y-178500000D02*
X135992000Y-178500000D01*
X136992000Y-191500000D02*
X136992000Y-192500000D01*
X122992000Y-192500000D02*
X122992000Y-191500000D01*
X123992000Y-178500000D02*
X122992000Y-178500000D01*
X122992000Y-192500000D02*
X123992000Y-192500000D01*
X122992000Y-179500000D02*
X122992000Y-178500000D01*
%TO.C,SW81*%
X115560660Y-178506740D02*
X115560660Y-179506740D01*
X114560660Y-192506740D02*
X115560660Y-192506740D01*
X115560660Y-178506740D02*
X114560660Y-178506740D01*
X115560660Y-191506740D02*
X115560660Y-192506740D01*
X101560660Y-192506740D02*
X101560660Y-191506740D01*
X102560660Y-178506740D02*
X101560660Y-178506740D01*
X101560660Y-192506740D02*
X102560660Y-192506740D01*
X101560660Y-179506740D02*
X101560660Y-178506740D01*
D11*
%TO.C,G\u002A\u002A\u002A*%
G36*
X210971622Y-177970658D02*
G01*
X211795662Y-178297308D01*
X212230616Y-178828771D01*
X212277184Y-179111822D01*
X212390293Y-179505364D01*
X212771898Y-179495703D01*
X213181786Y-179573686D01*
X213409432Y-180075653D01*
X213451594Y-180927615D01*
X213305032Y-182055584D01*
X212966503Y-183385572D01*
X212945277Y-183453518D01*
X212892481Y-183750744D01*
X213051141Y-183896213D01*
X213532532Y-183926855D01*
X214263781Y-183891117D01*
X215668569Y-183928743D01*
X216737413Y-184271496D01*
X217595855Y-184965556D01*
X217780842Y-185184901D01*
X218172358Y-185788620D01*
X218205204Y-186249612D01*
X218113685Y-186466950D01*
X217977332Y-186924704D01*
X218166277Y-187120742D01*
X218191042Y-187364669D01*
X217807030Y-187870353D01*
X217372321Y-188300820D01*
X215962512Y-189285552D01*
X214397169Y-189818005D01*
X212776543Y-189881963D01*
X211200886Y-189461208D01*
X210945083Y-189340497D01*
X210195578Y-188881599D01*
X209640607Y-188397034D01*
X209498977Y-188196842D01*
X209261602Y-187841219D01*
X208927558Y-187805783D01*
X208439744Y-187986471D01*
X207169315Y-188302609D01*
X205978426Y-188185156D01*
X204977417Y-187663961D01*
X204330327Y-186874872D01*
X203969048Y-185671399D01*
X203994508Y-184889262D01*
X204339683Y-184889262D01*
X204509692Y-186292060D01*
X205009311Y-187284024D01*
X205822930Y-187855369D01*
X206934939Y-187996309D01*
X208329726Y-187697061D01*
X208639163Y-187584331D01*
X208821342Y-187460947D01*
X209597490Y-187460947D01*
X209906510Y-188295306D01*
X210713308Y-188989466D01*
X211060586Y-189167171D01*
X212631776Y-189612798D01*
X214299857Y-189552711D01*
X214954140Y-189402401D01*
X215809701Y-189075603D01*
X216669580Y-188607683D01*
X217371730Y-188101214D01*
X217754103Y-187658767D01*
X217768939Y-187620706D01*
X217689333Y-187477077D01*
X217298511Y-187378837D01*
X216534390Y-187319610D01*
X215334885Y-187293023D01*
X214548190Y-187289977D01*
X212991311Y-187268045D01*
X211910174Y-187203357D01*
X211324523Y-187097575D01*
X211218850Y-187009778D01*
X211379858Y-186849427D01*
X211475663Y-186888299D01*
X211864699Y-186886172D01*
X212465465Y-186667274D01*
X212520857Y-186639331D01*
X213180360Y-186332521D01*
X213514314Y-186245942D01*
X213465313Y-186384414D01*
X213224464Y-186580270D01*
X213064665Y-186746724D01*
X213179787Y-186857188D01*
X213642555Y-186927213D01*
X214525700Y-186972351D01*
X215141919Y-186990302D01*
X216284995Y-187010353D01*
X217015021Y-186984253D01*
X217447587Y-186889428D01*
X217698283Y-186703302D01*
X217852305Y-186460966D01*
X218018751Y-185981483D01*
X217819851Y-185605488D01*
X217568445Y-185384361D01*
X217242298Y-185153234D01*
X216925873Y-185073949D01*
X216515595Y-185179688D01*
X215907892Y-185503632D01*
X214999191Y-186078961D01*
X214613541Y-186330999D01*
X214148068Y-186597911D01*
X213972419Y-186548198D01*
X213952878Y-186372490D01*
X214183738Y-186056129D01*
X214792617Y-185664045D01*
X215363989Y-185396225D01*
X216264862Y-184988662D01*
X216686485Y-184693635D01*
X216656843Y-184472917D01*
X216203920Y-184288275D01*
X216179788Y-184281740D01*
X214672208Y-184092045D01*
X213117638Y-184262349D01*
X211685885Y-184754083D01*
X210546753Y-185528678D01*
X210503661Y-185570999D01*
X209793968Y-186536230D01*
X209597490Y-187460947D01*
X208821342Y-187460947D01*
X209202518Y-187202790D01*
X209366767Y-186805994D01*
X209587080Y-186182447D01*
X210166644Y-185471811D01*
X210983398Y-184806893D01*
X211467924Y-184519872D01*
X212321698Y-183786683D01*
X212859214Y-182647507D01*
X213068455Y-181129318D01*
X213070934Y-180922054D01*
X213070934Y-179564219D01*
X210226663Y-182159396D01*
X209154036Y-183133892D01*
X208168569Y-184021549D01*
X207361394Y-184740820D01*
X206823646Y-185210156D01*
X206722826Y-185294670D01*
X206290847Y-185641162D01*
X206223547Y-185652442D01*
X206477881Y-185330607D01*
X206498439Y-185305602D01*
X206742894Y-184894667D01*
X207111455Y-184140133D01*
X207171723Y-184006831D01*
X207642997Y-184006831D01*
X207798880Y-183929440D01*
X207886789Y-183846850D01*
X208156759Y-183413917D01*
X208567708Y-183413917D01*
X210259146Y-181846217D01*
X211126453Y-181004391D01*
X211651888Y-180379154D01*
X211911956Y-179863094D01*
X211981592Y-179427931D01*
X211817387Y-178630236D01*
X211309505Y-178204672D01*
X210540505Y-178209777D01*
X210351218Y-178271936D01*
X209870496Y-178703827D01*
X209429250Y-179626681D01*
X209022281Y-181054071D01*
X208728619Y-182507676D01*
X208567708Y-183413917D01*
X208156759Y-183413917D01*
X208217522Y-183316476D01*
X208462789Y-182573974D01*
X208472824Y-182523933D01*
X208565038Y-181903468D01*
X208508087Y-181782850D01*
X208299947Y-182164086D01*
X207938597Y-183049183D01*
X207935722Y-183056643D01*
X207687151Y-183739480D01*
X207642997Y-184006831D01*
X207171723Y-184006831D01*
X207560378Y-183147207D01*
X208045917Y-182021094D01*
X208524329Y-180867001D01*
X208951868Y-179790135D01*
X209284789Y-178895702D01*
X209479349Y-178288908D01*
X209503586Y-178078184D01*
X209211077Y-178121230D01*
X208638526Y-178409923D01*
X207918938Y-178859143D01*
X207185320Y-179383768D01*
X206570680Y-179898679D01*
X206412377Y-180056476D01*
X205310937Y-181541693D01*
X204599914Y-183184602D01*
X204339884Y-184843960D01*
X204339683Y-184889262D01*
X203994508Y-184889262D01*
X204013526Y-184305025D01*
X204406513Y-182869063D01*
X205090762Y-181456823D01*
X206009025Y-180161615D01*
X207104056Y-179076752D01*
X208318605Y-178295543D01*
X209595427Y-177911301D01*
X209842185Y-177890787D01*
X210971622Y-177970658D01*
G37*
X210971622Y-177970658D02*
X211795662Y-178297308D01*
X212230616Y-178828771D01*
X212277184Y-179111822D01*
X212390293Y-179505364D01*
X212771898Y-179495703D01*
X213181786Y-179573686D01*
X213409432Y-180075653D01*
X213451594Y-180927615D01*
X213305032Y-182055584D01*
X212966503Y-183385572D01*
X212945277Y-183453518D01*
X212892481Y-183750744D01*
X213051141Y-183896213D01*
X213532532Y-183926855D01*
X214263781Y-183891117D01*
X215668569Y-183928743D01*
X216737413Y-184271496D01*
X217595855Y-184965556D01*
X217780842Y-185184901D01*
X218172358Y-185788620D01*
X218205204Y-186249612D01*
X218113685Y-186466950D01*
X217977332Y-186924704D01*
X218166277Y-187120742D01*
X218191042Y-187364669D01*
X217807030Y-187870353D01*
X217372321Y-188300820D01*
X215962512Y-189285552D01*
X214397169Y-189818005D01*
X212776543Y-189881963D01*
X211200886Y-189461208D01*
X210945083Y-189340497D01*
X210195578Y-188881599D01*
X209640607Y-188397034D01*
X209498977Y-188196842D01*
X209261602Y-187841219D01*
X208927558Y-187805783D01*
X208439744Y-187986471D01*
X207169315Y-188302609D01*
X205978426Y-188185156D01*
X204977417Y-187663961D01*
X204330327Y-186874872D01*
X203969048Y-185671399D01*
X203994508Y-184889262D01*
X204339683Y-184889262D01*
X204509692Y-186292060D01*
X205009311Y-187284024D01*
X205822930Y-187855369D01*
X206934939Y-187996309D01*
X208329726Y-187697061D01*
X208639163Y-187584331D01*
X208821342Y-187460947D01*
X209597490Y-187460947D01*
X209906510Y-188295306D01*
X210713308Y-188989466D01*
X211060586Y-189167171D01*
X212631776Y-189612798D01*
X214299857Y-189552711D01*
X214954140Y-189402401D01*
X215809701Y-189075603D01*
X216669580Y-188607683D01*
X217371730Y-188101214D01*
X217754103Y-187658767D01*
X217768939Y-187620706D01*
X217689333Y-187477077D01*
X217298511Y-187378837D01*
X216534390Y-187319610D01*
X215334885Y-187293023D01*
X214548190Y-187289977D01*
X212991311Y-187268045D01*
X211910174Y-187203357D01*
X211324523Y-187097575D01*
X211218850Y-187009778D01*
X211379858Y-186849427D01*
X211475663Y-186888299D01*
X211864699Y-186886172D01*
X212465465Y-186667274D01*
X212520857Y-186639331D01*
X213180360Y-186332521D01*
X213514314Y-186245942D01*
X213465313Y-186384414D01*
X213224464Y-186580270D01*
X213064665Y-186746724D01*
X213179787Y-186857188D01*
X213642555Y-186927213D01*
X214525700Y-186972351D01*
X215141919Y-186990302D01*
X216284995Y-187010353D01*
X217015021Y-186984253D01*
X217447587Y-186889428D01*
X217698283Y-186703302D01*
X217852305Y-186460966D01*
X218018751Y-185981483D01*
X217819851Y-185605488D01*
X217568445Y-185384361D01*
X217242298Y-185153234D01*
X216925873Y-185073949D01*
X216515595Y-185179688D01*
X215907892Y-185503632D01*
X214999191Y-186078961D01*
X214613541Y-186330999D01*
X214148068Y-186597911D01*
X213972419Y-186548198D01*
X213952878Y-186372490D01*
X214183738Y-186056129D01*
X214792617Y-185664045D01*
X215363989Y-185396225D01*
X216264862Y-184988662D01*
X216686485Y-184693635D01*
X216656843Y-184472917D01*
X216203920Y-184288275D01*
X216179788Y-184281740D01*
X214672208Y-184092045D01*
X213117638Y-184262349D01*
X211685885Y-184754083D01*
X210546753Y-185528678D01*
X210503661Y-185570999D01*
X209793968Y-186536230D01*
X209597490Y-187460947D01*
X208821342Y-187460947D01*
X209202518Y-187202790D01*
X209366767Y-186805994D01*
X209587080Y-186182447D01*
X210166644Y-185471811D01*
X210983398Y-184806893D01*
X211467924Y-184519872D01*
X212321698Y-183786683D01*
X212859214Y-182647507D01*
X213068455Y-181129318D01*
X213070934Y-180922054D01*
X213070934Y-179564219D01*
X210226663Y-182159396D01*
X209154036Y-183133892D01*
X208168569Y-184021549D01*
X207361394Y-184740820D01*
X206823646Y-185210156D01*
X206722826Y-185294670D01*
X206290847Y-185641162D01*
X206223547Y-185652442D01*
X206477881Y-185330607D01*
X206498439Y-185305602D01*
X206742894Y-184894667D01*
X207111455Y-184140133D01*
X207171723Y-184006831D01*
X207642997Y-184006831D01*
X207798880Y-183929440D01*
X207886789Y-183846850D01*
X208156759Y-183413917D01*
X208567708Y-183413917D01*
X210259146Y-181846217D01*
X211126453Y-181004391D01*
X211651888Y-180379154D01*
X211911956Y-179863094D01*
X211981592Y-179427931D01*
X211817387Y-178630236D01*
X211309505Y-178204672D01*
X210540505Y-178209777D01*
X210351218Y-178271936D01*
X209870496Y-178703827D01*
X209429250Y-179626681D01*
X209022281Y-181054071D01*
X208728619Y-182507676D01*
X208567708Y-183413917D01*
X208156759Y-183413917D01*
X208217522Y-183316476D01*
X208462789Y-182573974D01*
X208472824Y-182523933D01*
X208565038Y-181903468D01*
X208508087Y-181782850D01*
X208299947Y-182164086D01*
X207938597Y-183049183D01*
X207935722Y-183056643D01*
X207687151Y-183739480D01*
X207642997Y-184006831D01*
X207171723Y-184006831D01*
X207560378Y-183147207D01*
X208045917Y-182021094D01*
X208524329Y-180867001D01*
X208951868Y-179790135D01*
X209284789Y-178895702D01*
X209479349Y-178288908D01*
X209503586Y-178078184D01*
X209211077Y-178121230D01*
X208638526Y-178409923D01*
X207918938Y-178859143D01*
X207185320Y-179383768D01*
X206570680Y-179898679D01*
X206412377Y-180056476D01*
X205310937Y-181541693D01*
X204599914Y-183184602D01*
X204339884Y-184843960D01*
X204339683Y-184889262D01*
X203994508Y-184889262D01*
X204013526Y-184305025D01*
X204406513Y-182869063D01*
X205090762Y-181456823D01*
X206009025Y-180161615D01*
X207104056Y-179076752D01*
X208318605Y-178295543D01*
X209595427Y-177911301D01*
X209842185Y-177890787D01*
X210971622Y-177970658D01*
G36*
X190796622Y-177395658D02*
G01*
X191620662Y-177722308D01*
X192055616Y-178253771D01*
X192102184Y-178536822D01*
X192215293Y-178930364D01*
X192596898Y-178920703D01*
X193006786Y-178998686D01*
X193234432Y-179500653D01*
X193276594Y-180352615D01*
X193130032Y-181480584D01*
X192791503Y-182810572D01*
X192770277Y-182878518D01*
X192717481Y-183175744D01*
X192876141Y-183321213D01*
X193357532Y-183351855D01*
X194088781Y-183316117D01*
X195493569Y-183353743D01*
X196562413Y-183696496D01*
X197420855Y-184390556D01*
X197605842Y-184609901D01*
X197997358Y-185213620D01*
X198030204Y-185674612D01*
X197938685Y-185891950D01*
X197802332Y-186349704D01*
X197991277Y-186545742D01*
X198016042Y-186789669D01*
X197632030Y-187295353D01*
X197197321Y-187725820D01*
X195787512Y-188710552D01*
X194222169Y-189243005D01*
X192601543Y-189306963D01*
X191025886Y-188886208D01*
X190770083Y-188765497D01*
X190020578Y-188306599D01*
X189465607Y-187822034D01*
X189323977Y-187621842D01*
X189086602Y-187266219D01*
X188752558Y-187230783D01*
X188264744Y-187411471D01*
X186994315Y-187727609D01*
X185803426Y-187610156D01*
X184802417Y-187088961D01*
X184155327Y-186299872D01*
X183794048Y-185096399D01*
X183819508Y-184314262D01*
X184164683Y-184314262D01*
X184334692Y-185717060D01*
X184834311Y-186709024D01*
X185647930Y-187280369D01*
X186759939Y-187421309D01*
X188154726Y-187122061D01*
X188464163Y-187009331D01*
X188646342Y-186885947D01*
X189422490Y-186885947D01*
X189731510Y-187720306D01*
X190538308Y-188414466D01*
X190885586Y-188592171D01*
X192456776Y-189037798D01*
X194124857Y-188977711D01*
X194779140Y-188827401D01*
X195634701Y-188500603D01*
X196494580Y-188032683D01*
X197196730Y-187526214D01*
X197579103Y-187083767D01*
X197593939Y-187045706D01*
X197514333Y-186902077D01*
X197123511Y-186803837D01*
X196359390Y-186744610D01*
X195159885Y-186718023D01*
X194373190Y-186714977D01*
X192816311Y-186693045D01*
X191735174Y-186628357D01*
X191149523Y-186522575D01*
X191043850Y-186434778D01*
X191204858Y-186274427D01*
X191300663Y-186313299D01*
X191689699Y-186311172D01*
X192290465Y-186092274D01*
X192345857Y-186064331D01*
X193005360Y-185757521D01*
X193339314Y-185670942D01*
X193290313Y-185809414D01*
X193049464Y-186005270D01*
X192889665Y-186171724D01*
X193004787Y-186282188D01*
X193467555Y-186352213D01*
X194350700Y-186397351D01*
X194966919Y-186415302D01*
X196109995Y-186435353D01*
X196840021Y-186409253D01*
X197272587Y-186314428D01*
X197523283Y-186128302D01*
X197677305Y-185885966D01*
X197843751Y-185406483D01*
X197644851Y-185030488D01*
X197393445Y-184809361D01*
X197067298Y-184578234D01*
X196750873Y-184498949D01*
X196340595Y-184604688D01*
X195732892Y-184928632D01*
X194824191Y-185503961D01*
X194438541Y-185755999D01*
X193973068Y-186022911D01*
X193797419Y-185973198D01*
X193777878Y-185797490D01*
X194008738Y-185481129D01*
X194617617Y-185089045D01*
X195188989Y-184821225D01*
X196089862Y-184413662D01*
X196511485Y-184118635D01*
X196481843Y-183897917D01*
X196028920Y-183713275D01*
X196004788Y-183706740D01*
X194497208Y-183517045D01*
X192942638Y-183687349D01*
X191510885Y-184179083D01*
X190371753Y-184953678D01*
X190328661Y-184995999D01*
X189618968Y-185961230D01*
X189422490Y-186885947D01*
X188646342Y-186885947D01*
X189027518Y-186627790D01*
X189191767Y-186230994D01*
X189412080Y-185607447D01*
X189991644Y-184896811D01*
X190808398Y-184231893D01*
X191292924Y-183944872D01*
X192146698Y-183211683D01*
X192684214Y-182072507D01*
X192893455Y-180554318D01*
X192895934Y-180347054D01*
X192895934Y-178989219D01*
X190051663Y-181584396D01*
X188979036Y-182558892D01*
X187993569Y-183446549D01*
X187186394Y-184165820D01*
X186648646Y-184635156D01*
X186547826Y-184719670D01*
X186115847Y-185066162D01*
X186048547Y-185077442D01*
X186302881Y-184755607D01*
X186323439Y-184730602D01*
X186567894Y-184319667D01*
X186936455Y-183565133D01*
X186996723Y-183431831D01*
X187467997Y-183431831D01*
X187623880Y-183354440D01*
X187711789Y-183271850D01*
X187981759Y-182838917D01*
X188392708Y-182838917D01*
X190084146Y-181271217D01*
X190951453Y-180429391D01*
X191476888Y-179804154D01*
X191736956Y-179288094D01*
X191806592Y-178852931D01*
X191642387Y-178055236D01*
X191134505Y-177629672D01*
X190365505Y-177634777D01*
X190176218Y-177696936D01*
X189695496Y-178128827D01*
X189254250Y-179051681D01*
X188847281Y-180479071D01*
X188553619Y-181932676D01*
X188392708Y-182838917D01*
X187981759Y-182838917D01*
X188042522Y-182741476D01*
X188287789Y-181998974D01*
X188297824Y-181948933D01*
X188390038Y-181328468D01*
X188333087Y-181207850D01*
X188124947Y-181589086D01*
X187763597Y-182474183D01*
X187760722Y-182481643D01*
X187512151Y-183164480D01*
X187467997Y-183431831D01*
X186996723Y-183431831D01*
X187385378Y-182572207D01*
X187870917Y-181446094D01*
X188349329Y-180292001D01*
X188776868Y-179215135D01*
X189109789Y-178320702D01*
X189304349Y-177713908D01*
X189328586Y-177503184D01*
X189036077Y-177546230D01*
X188463526Y-177834923D01*
X187743938Y-178284143D01*
X187010320Y-178808768D01*
X186395680Y-179323679D01*
X186237377Y-179481476D01*
X185135937Y-180966693D01*
X184424914Y-182609602D01*
X184164884Y-184268960D01*
X184164683Y-184314262D01*
X183819508Y-184314262D01*
X183838526Y-183730025D01*
X184231513Y-182294063D01*
X184915762Y-180881823D01*
X185834025Y-179586615D01*
X186929056Y-178501752D01*
X188143605Y-177720543D01*
X189420427Y-177336301D01*
X189667185Y-177315787D01*
X190796622Y-177395658D01*
G37*
X190796622Y-177395658D02*
X191620662Y-177722308D01*
X192055616Y-178253771D01*
X192102184Y-178536822D01*
X192215293Y-178930364D01*
X192596898Y-178920703D01*
X193006786Y-178998686D01*
X193234432Y-179500653D01*
X193276594Y-180352615D01*
X193130032Y-181480584D01*
X192791503Y-182810572D01*
X192770277Y-182878518D01*
X192717481Y-183175744D01*
X192876141Y-183321213D01*
X193357532Y-183351855D01*
X194088781Y-183316117D01*
X195493569Y-183353743D01*
X196562413Y-183696496D01*
X197420855Y-184390556D01*
X197605842Y-184609901D01*
X197997358Y-185213620D01*
X198030204Y-185674612D01*
X197938685Y-185891950D01*
X197802332Y-186349704D01*
X197991277Y-186545742D01*
X198016042Y-186789669D01*
X197632030Y-187295353D01*
X197197321Y-187725820D01*
X195787512Y-188710552D01*
X194222169Y-189243005D01*
X192601543Y-189306963D01*
X191025886Y-188886208D01*
X190770083Y-188765497D01*
X190020578Y-188306599D01*
X189465607Y-187822034D01*
X189323977Y-187621842D01*
X189086602Y-187266219D01*
X188752558Y-187230783D01*
X188264744Y-187411471D01*
X186994315Y-187727609D01*
X185803426Y-187610156D01*
X184802417Y-187088961D01*
X184155327Y-186299872D01*
X183794048Y-185096399D01*
X183819508Y-184314262D01*
X184164683Y-184314262D01*
X184334692Y-185717060D01*
X184834311Y-186709024D01*
X185647930Y-187280369D01*
X186759939Y-187421309D01*
X188154726Y-187122061D01*
X188464163Y-187009331D01*
X188646342Y-186885947D01*
X189422490Y-186885947D01*
X189731510Y-187720306D01*
X190538308Y-188414466D01*
X190885586Y-188592171D01*
X192456776Y-189037798D01*
X194124857Y-188977711D01*
X194779140Y-188827401D01*
X195634701Y-188500603D01*
X196494580Y-188032683D01*
X197196730Y-187526214D01*
X197579103Y-187083767D01*
X197593939Y-187045706D01*
X197514333Y-186902077D01*
X197123511Y-186803837D01*
X196359390Y-186744610D01*
X195159885Y-186718023D01*
X194373190Y-186714977D01*
X192816311Y-186693045D01*
X191735174Y-186628357D01*
X191149523Y-186522575D01*
X191043850Y-186434778D01*
X191204858Y-186274427D01*
X191300663Y-186313299D01*
X191689699Y-186311172D01*
X192290465Y-186092274D01*
X192345857Y-186064331D01*
X193005360Y-185757521D01*
X193339314Y-185670942D01*
X193290313Y-185809414D01*
X193049464Y-186005270D01*
X192889665Y-186171724D01*
X193004787Y-186282188D01*
X193467555Y-186352213D01*
X194350700Y-186397351D01*
X194966919Y-186415302D01*
X196109995Y-186435353D01*
X196840021Y-186409253D01*
X197272587Y-186314428D01*
X197523283Y-186128302D01*
X197677305Y-185885966D01*
X197843751Y-185406483D01*
X197644851Y-185030488D01*
X197393445Y-184809361D01*
X197067298Y-184578234D01*
X196750873Y-184498949D01*
X196340595Y-184604688D01*
X195732892Y-184928632D01*
X194824191Y-185503961D01*
X194438541Y-185755999D01*
X193973068Y-186022911D01*
X193797419Y-185973198D01*
X193777878Y-185797490D01*
X194008738Y-185481129D01*
X194617617Y-185089045D01*
X195188989Y-184821225D01*
X196089862Y-184413662D01*
X196511485Y-184118635D01*
X196481843Y-183897917D01*
X196028920Y-183713275D01*
X196004788Y-183706740D01*
X194497208Y-183517045D01*
X192942638Y-183687349D01*
X191510885Y-184179083D01*
X190371753Y-184953678D01*
X190328661Y-184995999D01*
X189618968Y-185961230D01*
X189422490Y-186885947D01*
X188646342Y-186885947D01*
X189027518Y-186627790D01*
X189191767Y-186230994D01*
X189412080Y-185607447D01*
X189991644Y-184896811D01*
X190808398Y-184231893D01*
X191292924Y-183944872D01*
X192146698Y-183211683D01*
X192684214Y-182072507D01*
X192893455Y-180554318D01*
X192895934Y-180347054D01*
X192895934Y-178989219D01*
X190051663Y-181584396D01*
X188979036Y-182558892D01*
X187993569Y-183446549D01*
X187186394Y-184165820D01*
X186648646Y-184635156D01*
X186547826Y-184719670D01*
X186115847Y-185066162D01*
X186048547Y-185077442D01*
X186302881Y-184755607D01*
X186323439Y-184730602D01*
X186567894Y-184319667D01*
X186936455Y-183565133D01*
X186996723Y-183431831D01*
X187467997Y-183431831D01*
X187623880Y-183354440D01*
X187711789Y-183271850D01*
X187981759Y-182838917D01*
X188392708Y-182838917D01*
X190084146Y-181271217D01*
X190951453Y-180429391D01*
X191476888Y-179804154D01*
X191736956Y-179288094D01*
X191806592Y-178852931D01*
X191642387Y-178055236D01*
X191134505Y-177629672D01*
X190365505Y-177634777D01*
X190176218Y-177696936D01*
X189695496Y-178128827D01*
X189254250Y-179051681D01*
X188847281Y-180479071D01*
X188553619Y-181932676D01*
X188392708Y-182838917D01*
X187981759Y-182838917D01*
X188042522Y-182741476D01*
X188287789Y-181998974D01*
X188297824Y-181948933D01*
X188390038Y-181328468D01*
X188333087Y-181207850D01*
X188124947Y-181589086D01*
X187763597Y-182474183D01*
X187760722Y-182481643D01*
X187512151Y-183164480D01*
X187467997Y-183431831D01*
X186996723Y-183431831D01*
X187385378Y-182572207D01*
X187870917Y-181446094D01*
X188349329Y-180292001D01*
X188776868Y-179215135D01*
X189109789Y-178320702D01*
X189304349Y-177713908D01*
X189328586Y-177503184D01*
X189036077Y-177546230D01*
X188463526Y-177834923D01*
X187743938Y-178284143D01*
X187010320Y-178808768D01*
X186395680Y-179323679D01*
X186237377Y-179481476D01*
X185135937Y-180966693D01*
X184424914Y-182609602D01*
X184164884Y-184268960D01*
X184164683Y-184314262D01*
X183819508Y-184314262D01*
X183838526Y-183730025D01*
X184231513Y-182294063D01*
X184915762Y-180881823D01*
X185834025Y-179586615D01*
X186929056Y-178501752D01*
X188143605Y-177720543D01*
X189420427Y-177336301D01*
X189667185Y-177315787D01*
X190796622Y-177395658D01*
D10*
%TO.C,SW7*%
X215178224Y-73724560D02*
X215178224Y-74724560D01*
X214178224Y-87724560D02*
X215178224Y-87724560D01*
X215178224Y-73724560D02*
X214178224Y-73724560D01*
X215178224Y-86724560D02*
X215178224Y-87724560D01*
X201178224Y-87724560D02*
X201178224Y-86724560D01*
X202178224Y-73724560D02*
X201178224Y-73724560D01*
X201178224Y-87724560D02*
X202178224Y-87724560D01*
X201178224Y-74724560D02*
X201178224Y-73724560D01*
%TO.C,SW4*%
X136987880Y-73724560D02*
X136987880Y-74724560D01*
X135987880Y-87724560D02*
X136987880Y-87724560D01*
X136987880Y-73724560D02*
X135987880Y-73724560D01*
X136987880Y-86724560D02*
X136987880Y-87724560D01*
X122987880Y-87724560D02*
X122987880Y-86724560D01*
X123987880Y-73724560D02*
X122987880Y-73724560D01*
X122987880Y-87724560D02*
X123987880Y-87724560D01*
X122987880Y-74724560D02*
X122987880Y-73724560D01*
%TO.C,SW1*%
X70312600Y-73724560D02*
X70312600Y-74724560D01*
X69312600Y-87724560D02*
X70312600Y-87724560D01*
X70312600Y-73724560D02*
X69312600Y-73724560D01*
X70312600Y-86724560D02*
X70312600Y-87724560D01*
X56312600Y-87724560D02*
X56312600Y-86724560D01*
X57312600Y-73724560D02*
X56312600Y-73724560D01*
X56312600Y-87724560D02*
X57312600Y-87724560D01*
X56312600Y-74724560D02*
X56312600Y-73724560D01*
%TO.C,SW35*%
X117937800Y-121349760D02*
X117937800Y-122349760D01*
X116937800Y-135349760D02*
X117937800Y-135349760D01*
X117937800Y-121349760D02*
X116937800Y-121349760D01*
X117937800Y-134349760D02*
X117937800Y-135349760D01*
X103937800Y-135349760D02*
X103937800Y-134349760D01*
X104937800Y-121349760D02*
X103937800Y-121349760D01*
X103937800Y-135349760D02*
X104937800Y-135349760D01*
X103937800Y-122349760D02*
X103937800Y-121349760D01*
D12*
%TO.C,D93*%
G36*
X38902290Y-70187311D02*
G01*
X39402290Y-70187311D01*
X39402290Y-72187311D01*
X38902290Y-72187311D01*
X38902290Y-70187311D01*
G37*
%TO.C,D94*%
G36*
X375482290Y-70177311D02*
G01*
X375982290Y-70177311D01*
X375982290Y-72177311D01*
X375482290Y-72177311D01*
X375482290Y-70177311D01*
G37*
D10*
%TO.C,SW2*%
X98887720Y-73724560D02*
X98887720Y-74724560D01*
X97887720Y-87724560D02*
X98887720Y-87724560D01*
X98887720Y-73724560D02*
X97887720Y-73724560D01*
X98887720Y-86724560D02*
X98887720Y-87724560D01*
X84887720Y-87724560D02*
X84887720Y-86724560D01*
X85887720Y-73724560D02*
X84887720Y-73724560D01*
X84887720Y-87724560D02*
X85887720Y-87724560D01*
X84887720Y-74724560D02*
X84887720Y-73724560D01*
%TO.C,SW3*%
X117937800Y-73724560D02*
X117937800Y-74724560D01*
X116937800Y-87724560D02*
X117937800Y-87724560D01*
X117937800Y-73724560D02*
X116937800Y-73724560D01*
X117937800Y-86724560D02*
X117937800Y-87724560D01*
X103937800Y-87724560D02*
X103937800Y-86724560D01*
X104937800Y-73724560D02*
X103937800Y-73724560D01*
X103937800Y-87724560D02*
X104937800Y-87724560D01*
X103937800Y-74724560D02*
X103937800Y-73724560D01*
%TO.C,SW5*%
X156037960Y-73724560D02*
X156037960Y-74724560D01*
X155037960Y-87724560D02*
X156037960Y-87724560D01*
X156037960Y-73724560D02*
X155037960Y-73724560D01*
X156037960Y-86724560D02*
X156037960Y-87724560D01*
X142037960Y-87724560D02*
X142037960Y-86724560D01*
X143037960Y-73724560D02*
X142037960Y-73724560D01*
X142037960Y-87724560D02*
X143037960Y-87724560D01*
X142037960Y-74724560D02*
X142037960Y-73724560D01*
%TO.C,SW6*%
X184613080Y-73724560D02*
X184613080Y-74724560D01*
X183613080Y-87724560D02*
X184613080Y-87724560D01*
X184613080Y-73724560D02*
X183613080Y-73724560D01*
X184613080Y-86724560D02*
X184613080Y-87724560D01*
X170613080Y-87724560D02*
X170613080Y-86724560D01*
X171613080Y-73724560D02*
X170613080Y-73724560D01*
X170613080Y-87724560D02*
X171613080Y-87724560D01*
X170613080Y-74724560D02*
X170613080Y-73724560D01*
%TO.C,SW8*%
X234228304Y-73724560D02*
X234228304Y-74724560D01*
X233228304Y-87724560D02*
X234228304Y-87724560D01*
X234228304Y-73724560D02*
X233228304Y-73724560D01*
X234228304Y-86724560D02*
X234228304Y-87724560D01*
X220228304Y-87724560D02*
X220228304Y-86724560D01*
X221228304Y-73724560D02*
X220228304Y-73724560D01*
X220228304Y-87724560D02*
X221228304Y-87724560D01*
X220228304Y-74724560D02*
X220228304Y-73724560D01*
%TO.C,SW9*%
X253278384Y-73724560D02*
X253278384Y-74724560D01*
X252278384Y-87724560D02*
X253278384Y-87724560D01*
X253278384Y-73724560D02*
X252278384Y-73724560D01*
X253278384Y-86724560D02*
X253278384Y-87724560D01*
X239278384Y-87724560D02*
X239278384Y-86724560D01*
X240278384Y-73724560D02*
X239278384Y-73724560D01*
X239278384Y-87724560D02*
X240278384Y-87724560D01*
X239278384Y-74724560D02*
X239278384Y-73724560D01*
%TO.C,SW10*%
X272328464Y-73701693D02*
X272328464Y-74701693D01*
X271328464Y-87701693D02*
X272328464Y-87701693D01*
X272328464Y-73701693D02*
X271328464Y-73701693D01*
X272328464Y-86701693D02*
X272328464Y-87701693D01*
X258328464Y-87701693D02*
X258328464Y-86701693D01*
X259328464Y-73701693D02*
X258328464Y-73701693D01*
X258328464Y-87701693D02*
X259328464Y-87701693D01*
X258328464Y-74701693D02*
X258328464Y-73701693D01*
%TO.C,SW11*%
X300903584Y-73701693D02*
X300903584Y-74701693D01*
X299903584Y-87701693D02*
X300903584Y-87701693D01*
X300903584Y-73701693D02*
X299903584Y-73701693D01*
X300903584Y-86701693D02*
X300903584Y-87701693D01*
X286903584Y-87701693D02*
X286903584Y-86701693D01*
X287903584Y-73701693D02*
X286903584Y-73701693D01*
X286903584Y-87701693D02*
X287903584Y-87701693D01*
X286903584Y-74701693D02*
X286903584Y-73701693D01*
%TO.C,SW12*%
X320344900Y-73724560D02*
X320344900Y-74724560D01*
X319344900Y-87724560D02*
X320344900Y-87724560D01*
X320344900Y-73724560D02*
X319344900Y-73724560D01*
X320344900Y-86724560D02*
X320344900Y-87724560D01*
X306344900Y-87724560D02*
X306344900Y-86724560D01*
X307344900Y-73724560D02*
X306344900Y-73724560D01*
X306344900Y-87724560D02*
X307344900Y-87724560D01*
X306344900Y-74724560D02*
X306344900Y-73724560D01*
%TO.C,SW13*%
X339003744Y-73724560D02*
X339003744Y-74724560D01*
X338003744Y-87724560D02*
X339003744Y-87724560D01*
X339003744Y-73724560D02*
X338003744Y-73724560D01*
X339003744Y-86724560D02*
X339003744Y-87724560D01*
X325003744Y-87724560D02*
X325003744Y-86724560D01*
X326003744Y-73724560D02*
X325003744Y-73724560D01*
X325003744Y-87724560D02*
X326003744Y-87724560D01*
X325003744Y-74724560D02*
X325003744Y-73724560D01*
%TO.C,SW14*%
X358053824Y-73724560D02*
X358053824Y-74724560D01*
X357053824Y-87724560D02*
X358053824Y-87724560D01*
X358053824Y-73724560D02*
X357053824Y-73724560D01*
X358053824Y-86724560D02*
X358053824Y-87724560D01*
X344053824Y-87724560D02*
X344053824Y-86724560D01*
X345053824Y-73724560D02*
X344053824Y-73724560D01*
X344053824Y-87724560D02*
X345053824Y-87724560D01*
X344053824Y-74724560D02*
X344053824Y-73724560D01*
%TO.C,SW15*%
X46500000Y-102299680D02*
X46500000Y-103299680D01*
X45500000Y-116299680D02*
X46500000Y-116299680D01*
X46500000Y-102299680D02*
X45500000Y-102299680D01*
X46500000Y-115299680D02*
X46500000Y-116299680D01*
X32500000Y-116299680D02*
X32500000Y-115299680D01*
X33500000Y-102299680D02*
X32500000Y-102299680D01*
X32500000Y-116299680D02*
X33500000Y-116299680D01*
X32500000Y-103299680D02*
X32500000Y-102299680D01*
%TO.C,SW16*%
X70312600Y-102299680D02*
X70312600Y-103299680D01*
X69312600Y-116299680D02*
X70312600Y-116299680D01*
X70312600Y-102299680D02*
X69312600Y-102299680D01*
X70312600Y-115299680D02*
X70312600Y-116299680D01*
X56312600Y-116299680D02*
X56312600Y-115299680D01*
X57312600Y-102299680D02*
X56312600Y-102299680D01*
X56312600Y-116299680D02*
X57312600Y-116299680D01*
X56312600Y-103299680D02*
X56312600Y-102299680D01*
%TO.C,SW17*%
X89362680Y-102299680D02*
X89362680Y-103299680D01*
X88362680Y-116299680D02*
X89362680Y-116299680D01*
X89362680Y-102299680D02*
X88362680Y-102299680D01*
X89362680Y-115299680D02*
X89362680Y-116299680D01*
X75362680Y-116299680D02*
X75362680Y-115299680D01*
X76362680Y-102299680D02*
X75362680Y-102299680D01*
X75362680Y-116299680D02*
X76362680Y-116299680D01*
X75362680Y-103299680D02*
X75362680Y-102299680D01*
%TO.C,SW18*%
X108412760Y-102299680D02*
X108412760Y-103299680D01*
X107412760Y-116299680D02*
X108412760Y-116299680D01*
X108412760Y-102299680D02*
X107412760Y-102299680D01*
X108412760Y-115299680D02*
X108412760Y-116299680D01*
X94412760Y-116299680D02*
X94412760Y-115299680D01*
X95412760Y-102299680D02*
X94412760Y-102299680D01*
X94412760Y-116299680D02*
X95412760Y-116299680D01*
X94412760Y-103299680D02*
X94412760Y-102299680D01*
%TO.C,SW19*%
X127462840Y-102299680D02*
X127462840Y-103299680D01*
X126462840Y-116299680D02*
X127462840Y-116299680D01*
X127462840Y-102299680D02*
X126462840Y-102299680D01*
X127462840Y-115299680D02*
X127462840Y-116299680D01*
X113462840Y-116299680D02*
X113462840Y-115299680D01*
X114462840Y-102299680D02*
X113462840Y-102299680D01*
X113462840Y-116299680D02*
X114462840Y-116299680D01*
X113462840Y-103299680D02*
X113462840Y-102299680D01*
%TO.C,SW20*%
X146512920Y-102299680D02*
X146512920Y-103299680D01*
X145512920Y-116299680D02*
X146512920Y-116299680D01*
X146512920Y-102299680D02*
X145512920Y-102299680D01*
X146512920Y-115299680D02*
X146512920Y-116299680D01*
X132512920Y-116299680D02*
X132512920Y-115299680D01*
X133512920Y-102299680D02*
X132512920Y-102299680D01*
X132512920Y-116299680D02*
X133512920Y-116299680D01*
X132512920Y-103299680D02*
X132512920Y-102299680D01*
%TO.C,SW21*%
X165563000Y-102299680D02*
X165563000Y-103299680D01*
X164563000Y-116299680D02*
X165563000Y-116299680D01*
X165563000Y-102299680D02*
X164563000Y-102299680D01*
X165563000Y-115299680D02*
X165563000Y-116299680D01*
X151563000Y-116299680D02*
X151563000Y-115299680D01*
X152563000Y-102299680D02*
X151563000Y-102299680D01*
X151563000Y-116299680D02*
X152563000Y-116299680D01*
X151563000Y-103299680D02*
X151563000Y-102299680D01*
%TO.C,SW22*%
X184613080Y-102299680D02*
X184613080Y-103299680D01*
X183613080Y-116299680D02*
X184613080Y-116299680D01*
X184613080Y-102299680D02*
X183613080Y-102299680D01*
X184613080Y-115299680D02*
X184613080Y-116299680D01*
X170613080Y-116299680D02*
X170613080Y-115299680D01*
X171613080Y-102299680D02*
X170613080Y-102299680D01*
X170613080Y-116299680D02*
X171613080Y-116299680D01*
X170613080Y-103299680D02*
X170613080Y-102299680D01*
%TO.C,SW23*%
X224703264Y-102276813D02*
X224703264Y-103276813D01*
X223703264Y-116276813D02*
X224703264Y-116276813D01*
X224703264Y-102276813D02*
X223703264Y-102276813D01*
X224703264Y-115276813D02*
X224703264Y-116276813D01*
X210703264Y-116276813D02*
X210703264Y-115276813D01*
X211703264Y-102276813D02*
X210703264Y-102276813D01*
X210703264Y-116276813D02*
X211703264Y-116276813D01*
X210703264Y-103276813D02*
X210703264Y-102276813D01*
%TO.C,SW24*%
X243753344Y-102299680D02*
X243753344Y-103299680D01*
X242753344Y-116299680D02*
X243753344Y-116299680D01*
X243753344Y-102299680D02*
X242753344Y-102299680D01*
X243753344Y-115299680D02*
X243753344Y-116299680D01*
X229753344Y-116299680D02*
X229753344Y-115299680D01*
X230753344Y-102299680D02*
X229753344Y-102299680D01*
X229753344Y-116299680D02*
X230753344Y-116299680D01*
X229753344Y-103299680D02*
X229753344Y-102299680D01*
%TO.C,SW25*%
X262803424Y-102299680D02*
X262803424Y-103299680D01*
X261803424Y-116299680D02*
X262803424Y-116299680D01*
X262803424Y-102299680D02*
X261803424Y-102299680D01*
X262803424Y-115299680D02*
X262803424Y-116299680D01*
X248803424Y-116299680D02*
X248803424Y-115299680D01*
X249803424Y-102299680D02*
X248803424Y-102299680D01*
X248803424Y-116299680D02*
X249803424Y-116299680D01*
X248803424Y-103299680D02*
X248803424Y-102299680D01*
%TO.C,SW26*%
X281853504Y-102299680D02*
X281853504Y-103299680D01*
X280853504Y-116299680D02*
X281853504Y-116299680D01*
X281853504Y-102299680D02*
X280853504Y-102299680D01*
X281853504Y-115299680D02*
X281853504Y-116299680D01*
X267853504Y-116299680D02*
X267853504Y-115299680D01*
X268853504Y-102299680D02*
X267853504Y-102299680D01*
X267853504Y-116299680D02*
X268853504Y-116299680D01*
X267853504Y-103299680D02*
X267853504Y-102299680D01*
%TO.C,SW27*%
X300903584Y-102299680D02*
X300903584Y-103299680D01*
X299903584Y-116299680D02*
X300903584Y-116299680D01*
X300903584Y-102299680D02*
X299903584Y-102299680D01*
X300903584Y-115299680D02*
X300903584Y-116299680D01*
X286903584Y-116299680D02*
X286903584Y-115299680D01*
X287903584Y-102299680D02*
X286903584Y-102299680D01*
X286903584Y-116299680D02*
X287903584Y-116299680D01*
X286903584Y-103299680D02*
X286903584Y-102299680D01*
%TO.C,SW28*%
X319953664Y-102299680D02*
X319953664Y-103299680D01*
X318953664Y-116299680D02*
X319953664Y-116299680D01*
X319953664Y-102299680D02*
X318953664Y-102299680D01*
X319953664Y-115299680D02*
X319953664Y-116299680D01*
X305953664Y-116299680D02*
X305953664Y-115299680D01*
X306953664Y-102299680D02*
X305953664Y-102299680D01*
X305953664Y-116299680D02*
X306953664Y-116299680D01*
X305953664Y-103299680D02*
X305953664Y-102299680D01*
%TO.C,SW29*%
X339003744Y-102299680D02*
X339003744Y-103299680D01*
X338003744Y-116299680D02*
X339003744Y-116299680D01*
X339003744Y-102299680D02*
X338003744Y-102299680D01*
X339003744Y-115299680D02*
X339003744Y-116299680D01*
X325003744Y-116299680D02*
X325003744Y-115299680D01*
X326003744Y-102299680D02*
X325003744Y-102299680D01*
X325003744Y-116299680D02*
X326003744Y-116299680D01*
X325003744Y-103299680D02*
X325003744Y-102299680D01*
%TO.C,SW30*%
X358053824Y-102299680D02*
X358053824Y-103299680D01*
X357053824Y-116299680D02*
X358053824Y-116299680D01*
X358053824Y-102299680D02*
X357053824Y-102299680D01*
X358053824Y-115299680D02*
X358053824Y-116299680D01*
X344053824Y-116299680D02*
X344053824Y-115299680D01*
X345053824Y-102299680D02*
X344053824Y-102299680D01*
X344053824Y-116299680D02*
X345053824Y-116299680D01*
X344053824Y-103299680D02*
X344053824Y-102299680D01*
%TO.C,SW32*%
X46500000Y-121349760D02*
X46500000Y-122349760D01*
X45500000Y-135349760D02*
X46500000Y-135349760D01*
X46500000Y-121349760D02*
X45500000Y-121349760D01*
X46500000Y-134349760D02*
X46500000Y-135349760D01*
X32500000Y-135349760D02*
X32500000Y-134349760D01*
X33500000Y-121349760D02*
X32500000Y-121349760D01*
X32500000Y-135349760D02*
X33500000Y-135349760D01*
X32500000Y-122349760D02*
X32500000Y-121349760D01*
%TO.C,SW33*%
X75075120Y-121349760D02*
X75075120Y-122349760D01*
X74075120Y-135349760D02*
X75075120Y-135349760D01*
X75075120Y-121349760D02*
X74075120Y-121349760D01*
X75075120Y-134349760D02*
X75075120Y-135349760D01*
X61075120Y-135349760D02*
X61075120Y-134349760D01*
X62075120Y-121349760D02*
X61075120Y-121349760D01*
X61075120Y-135349760D02*
X62075120Y-135349760D01*
X61075120Y-122349760D02*
X61075120Y-121349760D01*
%TO.C,SW34*%
X98887720Y-121349760D02*
X98887720Y-122349760D01*
X97887720Y-135349760D02*
X98887720Y-135349760D01*
X98887720Y-121349760D02*
X97887720Y-121349760D01*
X98887720Y-134349760D02*
X98887720Y-135349760D01*
X84887720Y-135349760D02*
X84887720Y-134349760D01*
X85887720Y-121349760D02*
X84887720Y-121349760D01*
X84887720Y-135349760D02*
X85887720Y-135349760D01*
X84887720Y-122349760D02*
X84887720Y-121349760D01*
%TO.C,SW36*%
X136987880Y-121349760D02*
X136987880Y-122349760D01*
X135987880Y-135349760D02*
X136987880Y-135349760D01*
X136987880Y-121349760D02*
X135987880Y-121349760D01*
X136987880Y-134349760D02*
X136987880Y-135349760D01*
X122987880Y-135349760D02*
X122987880Y-134349760D01*
X123987880Y-121349760D02*
X122987880Y-121349760D01*
X122987880Y-135349760D02*
X123987880Y-135349760D01*
X122987880Y-122349760D02*
X122987880Y-121349760D01*
%TO.C,SW37*%
X156037960Y-121349760D02*
X156037960Y-122349760D01*
X155037960Y-135349760D02*
X156037960Y-135349760D01*
X156037960Y-121349760D02*
X155037960Y-121349760D01*
X156037960Y-134349760D02*
X156037960Y-135349760D01*
X142037960Y-135349760D02*
X142037960Y-134349760D01*
X143037960Y-121349760D02*
X142037960Y-121349760D01*
X142037960Y-135349760D02*
X143037960Y-135349760D01*
X142037960Y-122349760D02*
X142037960Y-121349760D01*
%TO.C,SW38*%
X175088040Y-121326893D02*
X175088040Y-122326893D01*
X174088040Y-135326893D02*
X175088040Y-135326893D01*
X175088040Y-121326893D02*
X174088040Y-121326893D01*
X175088040Y-134326893D02*
X175088040Y-135326893D01*
X161088040Y-135326893D02*
X161088040Y-134326893D01*
X162088040Y-121326893D02*
X161088040Y-121326893D01*
X161088040Y-135326893D02*
X162088040Y-135326893D01*
X161088040Y-122326893D02*
X161088040Y-121326893D01*
%TO.C,SW39*%
X215178224Y-121326893D02*
X215178224Y-122326893D01*
X214178224Y-135326893D02*
X215178224Y-135326893D01*
X215178224Y-121326893D02*
X214178224Y-121326893D01*
X215178224Y-134326893D02*
X215178224Y-135326893D01*
X201178224Y-135326893D02*
X201178224Y-134326893D01*
X202178224Y-121326893D02*
X201178224Y-121326893D01*
X201178224Y-135326893D02*
X202178224Y-135326893D01*
X201178224Y-122326893D02*
X201178224Y-121326893D01*
%TO.C,SW40*%
X234228304Y-121326893D02*
X234228304Y-122326893D01*
X233228304Y-135326893D02*
X234228304Y-135326893D01*
X234228304Y-121326893D02*
X233228304Y-121326893D01*
X234228304Y-134326893D02*
X234228304Y-135326893D01*
X220228304Y-135326893D02*
X220228304Y-134326893D01*
X221228304Y-121326893D02*
X220228304Y-121326893D01*
X220228304Y-135326893D02*
X221228304Y-135326893D01*
X220228304Y-122326893D02*
X220228304Y-121326893D01*
%TO.C,SW41*%
X253278384Y-121326893D02*
X253278384Y-122326893D01*
X252278384Y-135326893D02*
X253278384Y-135326893D01*
X253278384Y-121326893D02*
X252278384Y-121326893D01*
X253278384Y-134326893D02*
X253278384Y-135326893D01*
X239278384Y-135326893D02*
X239278384Y-134326893D01*
X240278384Y-121326893D02*
X239278384Y-121326893D01*
X239278384Y-135326893D02*
X240278384Y-135326893D01*
X239278384Y-122326893D02*
X239278384Y-121326893D01*
%TO.C,SW42*%
X272328464Y-121326893D02*
X272328464Y-122326893D01*
X271328464Y-135326893D02*
X272328464Y-135326893D01*
X272328464Y-121326893D02*
X271328464Y-121326893D01*
X272328464Y-134326893D02*
X272328464Y-135326893D01*
X258328464Y-135326893D02*
X258328464Y-134326893D01*
X259328464Y-121326893D02*
X258328464Y-121326893D01*
X258328464Y-135326893D02*
X259328464Y-135326893D01*
X258328464Y-122326893D02*
X258328464Y-121326893D01*
%TO.C,SW43*%
X291378544Y-121349760D02*
X291378544Y-122349760D01*
X290378544Y-135349760D02*
X291378544Y-135349760D01*
X291378544Y-121349760D02*
X290378544Y-121349760D01*
X291378544Y-134349760D02*
X291378544Y-135349760D01*
X277378544Y-135349760D02*
X277378544Y-134349760D01*
X278378544Y-121349760D02*
X277378544Y-121349760D01*
X277378544Y-135349760D02*
X278378544Y-135349760D01*
X277378544Y-122349760D02*
X277378544Y-121349760D01*
%TO.C,SW44*%
X310428624Y-121326893D02*
X310428624Y-122326893D01*
X309428624Y-135326893D02*
X310428624Y-135326893D01*
X310428624Y-121326893D02*
X309428624Y-121326893D01*
X310428624Y-134326893D02*
X310428624Y-135326893D01*
X296428624Y-135326893D02*
X296428624Y-134326893D01*
X297428624Y-121326893D02*
X296428624Y-121326893D01*
X296428624Y-135326893D02*
X297428624Y-135326893D01*
X296428624Y-122326893D02*
X296428624Y-121326893D01*
%TO.C,SW45*%
X329478704Y-121326893D02*
X329478704Y-122326893D01*
X328478704Y-135326893D02*
X329478704Y-135326893D01*
X329478704Y-121326893D02*
X328478704Y-121326893D01*
X329478704Y-134326893D02*
X329478704Y-135326893D01*
X315478704Y-135326893D02*
X315478704Y-134326893D01*
X316478704Y-121326893D02*
X315478704Y-121326893D01*
X315478704Y-135326893D02*
X316478704Y-135326893D01*
X315478704Y-122326893D02*
X315478704Y-121326893D01*
%TO.C,SW46*%
X381866424Y-121326893D02*
X381866424Y-122326893D01*
X380866424Y-135326893D02*
X381866424Y-135326893D01*
X381866424Y-121326893D02*
X380866424Y-121326893D01*
X381866424Y-134326893D02*
X381866424Y-135326893D01*
X367866424Y-135326893D02*
X367866424Y-134326893D01*
X368866424Y-121326893D02*
X367866424Y-121326893D01*
X367866424Y-135326893D02*
X368866424Y-135326893D01*
X367866424Y-122326893D02*
X367866424Y-121326893D01*
%TO.C,SW31*%
X381858224Y-102261693D02*
X381858224Y-103261693D01*
X380858224Y-116261693D02*
X381858224Y-116261693D01*
X381858224Y-102261693D02*
X380858224Y-102261693D01*
X381858224Y-115261693D02*
X381858224Y-116261693D01*
X367858224Y-116261693D02*
X367858224Y-115261693D01*
X368858224Y-102261693D02*
X367858224Y-102261693D01*
X367858224Y-116261693D02*
X368858224Y-116261693D01*
X367858224Y-103261693D02*
X367858224Y-102261693D01*
%TO.C,SW47*%
X46500001Y-140399840D02*
X46500001Y-141399840D01*
X45500001Y-154399840D02*
X46500001Y-154399840D01*
X46500001Y-140399840D02*
X45500001Y-140399840D01*
X46500001Y-153399840D02*
X46500001Y-154399840D01*
X32500001Y-154399840D02*
X32500001Y-153399840D01*
X33500001Y-140399840D02*
X32500001Y-140399840D01*
X32500001Y-154399840D02*
X33500001Y-154399840D01*
X32500001Y-141399840D02*
X32500001Y-140399840D01*
%TO.C,SW48*%
X77456380Y-140399840D02*
X77456380Y-141399840D01*
X76456380Y-154399840D02*
X77456380Y-154399840D01*
X77456380Y-140399840D02*
X76456380Y-140399840D01*
X77456380Y-153399840D02*
X77456380Y-154399840D01*
X63456380Y-154399840D02*
X63456380Y-153399840D01*
X64456380Y-140399840D02*
X63456380Y-140399840D01*
X63456380Y-154399840D02*
X64456380Y-154399840D01*
X63456380Y-141399840D02*
X63456380Y-140399840D01*
%TO.C,SW49*%
X103650240Y-140399840D02*
X103650240Y-141399840D01*
X102650240Y-154399840D02*
X103650240Y-154399840D01*
X103650240Y-140399840D02*
X102650240Y-140399840D01*
X103650240Y-153399840D02*
X103650240Y-154399840D01*
X89650240Y-154399840D02*
X89650240Y-153399840D01*
X90650240Y-140399840D02*
X89650240Y-140399840D01*
X89650240Y-154399840D02*
X90650240Y-154399840D01*
X89650240Y-141399840D02*
X89650240Y-140399840D01*
%TO.C,SW50*%
X122700320Y-140399840D02*
X122700320Y-141399840D01*
X121700320Y-154399840D02*
X122700320Y-154399840D01*
X122700320Y-140399840D02*
X121700320Y-140399840D01*
X122700320Y-153399840D02*
X122700320Y-154399840D01*
X108700320Y-154399840D02*
X108700320Y-153399840D01*
X109700320Y-140399840D02*
X108700320Y-140399840D01*
X108700320Y-154399840D02*
X109700320Y-154399840D01*
X108700320Y-141399840D02*
X108700320Y-140399840D01*
%TO.C,SW51*%
X141750400Y-140399840D02*
X141750400Y-141399840D01*
X140750400Y-154399840D02*
X141750400Y-154399840D01*
X141750400Y-140399840D02*
X140750400Y-140399840D01*
X141750400Y-153399840D02*
X141750400Y-154399840D01*
X127750400Y-154399840D02*
X127750400Y-153399840D01*
X128750400Y-140399840D02*
X127750400Y-140399840D01*
X127750400Y-154399840D02*
X128750400Y-154399840D01*
X127750400Y-141399840D02*
X127750400Y-140399840D01*
%TO.C,SW52*%
X160800480Y-140399840D02*
X160800480Y-141399840D01*
X159800480Y-154399840D02*
X160800480Y-154399840D01*
X160800480Y-140399840D02*
X159800480Y-140399840D01*
X160800480Y-153399840D02*
X160800480Y-154399840D01*
X146800480Y-154399840D02*
X146800480Y-153399840D01*
X147800480Y-140399840D02*
X146800480Y-140399840D01*
X146800480Y-154399840D02*
X147800480Y-154399840D01*
X146800480Y-141399840D02*
X146800480Y-140399840D01*
%TO.C,SW53*%
X179850560Y-140399840D02*
X179850560Y-141399840D01*
X178850560Y-154399840D02*
X179850560Y-154399840D01*
X179850560Y-140399840D02*
X178850560Y-140399840D01*
X179850560Y-153399840D02*
X179850560Y-154399840D01*
X165850560Y-154399840D02*
X165850560Y-153399840D01*
X166850560Y-140399840D02*
X165850560Y-140399840D01*
X165850560Y-154399840D02*
X166850560Y-154399840D01*
X165850560Y-141399840D02*
X165850560Y-140399840D01*
%TO.C,SW54*%
X219940744Y-140399840D02*
X219940744Y-141399840D01*
X218940744Y-154399840D02*
X219940744Y-154399840D01*
X219940744Y-140399840D02*
X218940744Y-140399840D01*
X219940744Y-153399840D02*
X219940744Y-154399840D01*
X205940744Y-154399840D02*
X205940744Y-153399840D01*
X206940744Y-140399840D02*
X205940744Y-140399840D01*
X205940744Y-154399840D02*
X206940744Y-154399840D01*
X205940744Y-141399840D02*
X205940744Y-140399840D01*
%TO.C,SW55*%
X238990824Y-140399840D02*
X238990824Y-141399840D01*
X237990824Y-154399840D02*
X238990824Y-154399840D01*
X238990824Y-140399840D02*
X237990824Y-140399840D01*
X238990824Y-153399840D02*
X238990824Y-154399840D01*
X224990824Y-154399840D02*
X224990824Y-153399840D01*
X225990824Y-140399840D02*
X224990824Y-140399840D01*
X224990824Y-154399840D02*
X225990824Y-154399840D01*
X224990824Y-141399840D02*
X224990824Y-140399840D01*
%TO.C,SW56*%
X258040904Y-140399840D02*
X258040904Y-141399840D01*
X257040904Y-154399840D02*
X258040904Y-154399840D01*
X258040904Y-140399840D02*
X257040904Y-140399840D01*
X258040904Y-153399840D02*
X258040904Y-154399840D01*
X244040904Y-154399840D02*
X244040904Y-153399840D01*
X245040904Y-140399840D02*
X244040904Y-140399840D01*
X244040904Y-154399840D02*
X245040904Y-154399840D01*
X244040904Y-141399840D02*
X244040904Y-140399840D01*
%TO.C,SW57*%
X277090984Y-140376973D02*
X277090984Y-141376973D01*
X276090984Y-154376973D02*
X277090984Y-154376973D01*
X277090984Y-140376973D02*
X276090984Y-140376973D01*
X277090984Y-153376973D02*
X277090984Y-154376973D01*
X263090984Y-154376973D02*
X263090984Y-153376973D01*
X264090984Y-140376973D02*
X263090984Y-140376973D01*
X263090984Y-154376973D02*
X264090984Y-154376973D01*
X263090984Y-141376973D02*
X263090984Y-140376973D01*
%TO.C,SW58*%
X296141064Y-140399840D02*
X296141064Y-141399840D01*
X295141064Y-154399840D02*
X296141064Y-154399840D01*
X296141064Y-140399840D02*
X295141064Y-140399840D01*
X296141064Y-153399840D02*
X296141064Y-154399840D01*
X282141064Y-154399840D02*
X282141064Y-153399840D01*
X283141064Y-140399840D02*
X282141064Y-140399840D01*
X282141064Y-154399840D02*
X283141064Y-154399840D01*
X282141064Y-141399840D02*
X282141064Y-140399840D01*
%TO.C,SW59*%
X315191144Y-140399840D02*
X315191144Y-141399840D01*
X314191144Y-154399840D02*
X315191144Y-154399840D01*
X315191144Y-140399840D02*
X314191144Y-140399840D01*
X315191144Y-153399840D02*
X315191144Y-154399840D01*
X301191144Y-154399840D02*
X301191144Y-153399840D01*
X302191144Y-140399840D02*
X301191144Y-140399840D01*
X301191144Y-154399840D02*
X302191144Y-154399840D01*
X301191144Y-141399840D02*
X301191144Y-140399840D01*
%TO.C,SW60*%
X334241224Y-140399840D02*
X334241224Y-141399840D01*
X333241224Y-154399840D02*
X334241224Y-154399840D01*
X334241224Y-140399840D02*
X333241224Y-140399840D01*
X334241224Y-153399840D02*
X334241224Y-154399840D01*
X320241224Y-154399840D02*
X320241224Y-153399840D01*
X321241224Y-140399840D02*
X320241224Y-140399840D01*
X320241224Y-154399840D02*
X321241224Y-154399840D01*
X320241224Y-141399840D02*
X320241224Y-140399840D01*
%TO.C,SW61*%
X341672564Y-130874800D02*
X342672564Y-130874800D01*
X355672564Y-131874800D02*
X355672564Y-130874800D01*
X341672564Y-130874800D02*
X341672564Y-131874800D01*
X354672564Y-130874800D02*
X355672564Y-130874800D01*
X355672564Y-144874800D02*
X354672564Y-144874800D01*
X341672564Y-143874800D02*
X341672564Y-144874800D01*
X355672564Y-144874800D02*
X355672564Y-143874800D01*
X342672564Y-144874800D02*
X341672564Y-144874800D01*
%TO.C,SW62*%
X381866424Y-140399840D02*
X381866424Y-141399840D01*
X380866424Y-154399840D02*
X381866424Y-154399840D01*
X381866424Y-140399840D02*
X380866424Y-140399840D01*
X381866424Y-153399840D02*
X381866424Y-154399840D01*
X367866424Y-154399840D02*
X367866424Y-153399840D01*
X368866424Y-140399840D02*
X367866424Y-140399840D01*
X367866424Y-154399840D02*
X368866424Y-154399840D01*
X367866424Y-141399840D02*
X367866424Y-140399840D01*
%TO.C,SW63*%
X46500000Y-159449920D02*
X46500000Y-160449920D01*
X45500000Y-173449920D02*
X46500000Y-173449920D01*
X46500000Y-159449920D02*
X45500000Y-159449920D01*
X46500000Y-172449920D02*
X46500000Y-173449920D01*
X32500000Y-173449920D02*
X32500000Y-172449920D01*
X33500000Y-159449920D02*
X32500000Y-159449920D01*
X32500000Y-173449920D02*
X33500000Y-173449920D01*
X32500000Y-160449920D02*
X32500000Y-159449920D01*
%TO.C,SW64*%
X82218900Y-159449920D02*
X82218900Y-160449920D01*
X81218900Y-173449920D02*
X82218900Y-173449920D01*
X82218900Y-159449920D02*
X81218900Y-159449920D01*
X82218900Y-172449920D02*
X82218900Y-173449920D01*
X68218900Y-173449920D02*
X68218900Y-172449920D01*
X69218900Y-159449920D02*
X68218900Y-159449920D01*
X68218900Y-173449920D02*
X69218900Y-173449920D01*
X68218900Y-160449920D02*
X68218900Y-159449920D01*
%TO.C,SW65*%
X113175280Y-159449920D02*
X113175280Y-160449920D01*
X112175280Y-173449920D02*
X113175280Y-173449920D01*
X113175280Y-159449920D02*
X112175280Y-159449920D01*
X113175280Y-172449920D02*
X113175280Y-173449920D01*
X99175280Y-173449920D02*
X99175280Y-172449920D01*
X100175280Y-159449920D02*
X99175280Y-159449920D01*
X99175280Y-173449920D02*
X100175280Y-173449920D01*
X99175280Y-160449920D02*
X99175280Y-159449920D01*
%TO.C,SW66*%
X132225360Y-159449920D02*
X132225360Y-160449920D01*
X131225360Y-173449920D02*
X132225360Y-173449920D01*
X132225360Y-159449920D02*
X131225360Y-159449920D01*
X132225360Y-172449920D02*
X132225360Y-173449920D01*
X118225360Y-173449920D02*
X118225360Y-172449920D01*
X119225360Y-159449920D02*
X118225360Y-159449920D01*
X118225360Y-173449920D02*
X119225360Y-173449920D01*
X118225360Y-160449920D02*
X118225360Y-159449920D01*
%TO.C,SW67*%
X151275440Y-159449920D02*
X151275440Y-160449920D01*
X150275440Y-173449920D02*
X151275440Y-173449920D01*
X151275440Y-159449920D02*
X150275440Y-159449920D01*
X151275440Y-172449920D02*
X151275440Y-173449920D01*
X137275440Y-173449920D02*
X137275440Y-172449920D01*
X138275440Y-159449920D02*
X137275440Y-159449920D01*
X137275440Y-173449920D02*
X138275440Y-173449920D01*
X137275440Y-160449920D02*
X137275440Y-159449920D01*
%TO.C,SW68*%
X170325520Y-159449920D02*
X170325520Y-160449920D01*
X169325520Y-173449920D02*
X170325520Y-173449920D01*
X170325520Y-159449920D02*
X169325520Y-159449920D01*
X170325520Y-172449920D02*
X170325520Y-173449920D01*
X156325520Y-173449920D02*
X156325520Y-172449920D01*
X157325520Y-159449920D02*
X156325520Y-159449920D01*
X156325520Y-173449920D02*
X157325520Y-173449920D01*
X156325520Y-160449920D02*
X156325520Y-159449920D01*
%TO.C,SW69*%
X189375600Y-159449920D02*
X189375600Y-160449920D01*
X188375600Y-173449920D02*
X189375600Y-173449920D01*
X189375600Y-159449920D02*
X188375600Y-159449920D01*
X189375600Y-172449920D02*
X189375600Y-173449920D01*
X175375600Y-173449920D02*
X175375600Y-172449920D01*
X176375600Y-159449920D02*
X175375600Y-159449920D01*
X175375600Y-173449920D02*
X176375600Y-173449920D01*
X175375600Y-160449920D02*
X175375600Y-159449920D01*
%TO.C,SW70*%
X229465784Y-159427053D02*
X229465784Y-160427053D01*
X228465784Y-173427053D02*
X229465784Y-173427053D01*
X229465784Y-159427053D02*
X228465784Y-159427053D01*
X229465784Y-172427053D02*
X229465784Y-173427053D01*
X215465784Y-173427053D02*
X215465784Y-172427053D01*
X216465784Y-159427053D02*
X215465784Y-159427053D01*
X215465784Y-173427053D02*
X216465784Y-173427053D01*
X215465784Y-160427053D02*
X215465784Y-159427053D01*
%TO.C,SW71*%
X248515864Y-159427053D02*
X248515864Y-160427053D01*
X247515864Y-173427053D02*
X248515864Y-173427053D01*
X248515864Y-159427053D02*
X247515864Y-159427053D01*
X248515864Y-172427053D02*
X248515864Y-173427053D01*
X234515864Y-173427053D02*
X234515864Y-172427053D01*
X235515864Y-159427053D02*
X234515864Y-159427053D01*
X234515864Y-173427053D02*
X235515864Y-173427053D01*
X234515864Y-160427053D02*
X234515864Y-159427053D01*
%TO.C,SW72*%
X267565944Y-159449920D02*
X267565944Y-160449920D01*
X266565944Y-173449920D02*
X267565944Y-173449920D01*
X267565944Y-159449920D02*
X266565944Y-159449920D01*
X267565944Y-172449920D02*
X267565944Y-173449920D01*
X253565944Y-173449920D02*
X253565944Y-172449920D01*
X254565944Y-159449920D02*
X253565944Y-159449920D01*
X253565944Y-173449920D02*
X254565944Y-173449920D01*
X253565944Y-160449920D02*
X253565944Y-159449920D01*
%TO.C,SW73*%
X286616024Y-159449920D02*
X286616024Y-160449920D01*
X285616024Y-173449920D02*
X286616024Y-173449920D01*
X286616024Y-159449920D02*
X285616024Y-159449920D01*
X286616024Y-172449920D02*
X286616024Y-173449920D01*
X272616024Y-173449920D02*
X272616024Y-172449920D01*
X273616024Y-159449920D02*
X272616024Y-159449920D01*
X272616024Y-173449920D02*
X273616024Y-173449920D01*
X272616024Y-160449920D02*
X272616024Y-159449920D01*
%TO.C,SW74*%
X305666104Y-159449920D02*
X305666104Y-160449920D01*
X304666104Y-173449920D02*
X305666104Y-173449920D01*
X305666104Y-159449920D02*
X304666104Y-159449920D01*
X305666104Y-172449920D02*
X305666104Y-173449920D01*
X291666104Y-173449920D02*
X291666104Y-172449920D01*
X292666104Y-159449920D02*
X291666104Y-159449920D01*
X291666104Y-173449920D02*
X292666104Y-173449920D01*
X291666104Y-160449920D02*
X291666104Y-159449920D01*
%TO.C,SW75*%
X324716184Y-159449920D02*
X324716184Y-160449920D01*
X323716184Y-173449920D02*
X324716184Y-173449920D01*
X324716184Y-159449920D02*
X323716184Y-159449920D01*
X324716184Y-172449920D02*
X324716184Y-173449920D01*
X310716184Y-173449920D02*
X310716184Y-172449920D01*
X311716184Y-159449920D02*
X310716184Y-159449920D01*
X310716184Y-173449920D02*
X311716184Y-173449920D01*
X310716184Y-160449920D02*
X310716184Y-159449920D01*
%TO.C,SW76*%
X350910044Y-159449920D02*
X350910044Y-160449920D01*
X349910044Y-173449920D02*
X350910044Y-173449920D01*
X350910044Y-159449920D02*
X349910044Y-159449920D01*
X350910044Y-172449920D02*
X350910044Y-173449920D01*
X336910044Y-173449920D02*
X336910044Y-172449920D01*
X337910044Y-159449920D02*
X336910044Y-159449920D01*
X336910044Y-173449920D02*
X337910044Y-173449920D01*
X336910044Y-160449920D02*
X336910044Y-159449920D01*
%TO.C,SW77*%
X381866424Y-159449920D02*
X381866424Y-160449920D01*
X380866424Y-173449920D02*
X381866424Y-173449920D01*
X381866424Y-159449920D02*
X380866424Y-159449920D01*
X381866424Y-172449920D02*
X381866424Y-173449920D01*
X367866424Y-173449920D02*
X367866424Y-172449920D01*
X368866424Y-159449920D02*
X367866424Y-159449920D01*
X367866424Y-173449920D02*
X368866424Y-173449920D01*
X367866424Y-160449920D02*
X367866424Y-159449920D01*
%TO.C,SW78*%
X46500000Y-178500000D02*
X46500000Y-179500000D01*
X45500000Y-192500000D02*
X46500000Y-192500000D01*
X46500000Y-178500000D02*
X45500000Y-178500000D01*
X46500000Y-191500000D02*
X46500000Y-192500000D01*
X32500000Y-192500000D02*
X32500000Y-191500000D01*
X33500000Y-178500000D02*
X32500000Y-178500000D01*
X32500000Y-192500000D02*
X33500000Y-192500000D01*
X32500000Y-179500000D02*
X32500000Y-178500000D01*
%TO.C,SW79*%
X72693860Y-178505001D02*
X72693860Y-179505001D01*
X71693860Y-192505001D02*
X72693860Y-192505001D01*
X72693860Y-178505001D02*
X71693860Y-178505001D01*
X72693860Y-191505001D02*
X72693860Y-192505001D01*
X58693860Y-192505001D02*
X58693860Y-191505001D01*
X59693860Y-178505001D02*
X58693860Y-178505001D01*
X58693860Y-192505001D02*
X59693860Y-192505001D01*
X58693860Y-179505001D02*
X58693860Y-178505001D01*
%TO.C,SW80*%
X94129320Y-178506740D02*
X94129320Y-179506740D01*
X93129320Y-192506740D02*
X94129320Y-192506740D01*
X94129320Y-178506740D02*
X93129320Y-178506740D01*
X94129320Y-191506740D02*
X94129320Y-192506740D01*
X80129320Y-192506740D02*
X80129320Y-191506740D01*
X81129320Y-178506740D02*
X80129320Y-178506740D01*
X80129320Y-192506740D02*
X81129320Y-192506740D01*
X80129320Y-179506740D02*
X80129320Y-178506740D01*
%TO.C,SW84*%
X177473420Y-178505001D02*
X177473420Y-179505001D01*
X176473420Y-192505001D02*
X177473420Y-192505001D01*
X177473420Y-178505001D02*
X176473420Y-178505001D01*
X177473420Y-191505001D02*
X177473420Y-192505001D01*
X163473420Y-192505001D02*
X163473420Y-191505001D01*
X164473420Y-178505001D02*
X163473420Y-178505001D01*
X163473420Y-192505001D02*
X164473420Y-192505001D01*
X163473420Y-179505001D02*
X163473420Y-178505001D01*
%TO.C,SW85*%
X236609564Y-178505001D02*
X236609564Y-179505001D01*
X235609564Y-192505001D02*
X236609564Y-192505001D01*
X236609564Y-178505001D02*
X235609564Y-178505001D01*
X236609564Y-191505001D02*
X236609564Y-192505001D01*
X222609564Y-192505001D02*
X222609564Y-191505001D01*
X223609564Y-178505001D02*
X222609564Y-178505001D01*
X222609564Y-192505001D02*
X223609564Y-192505001D01*
X222609564Y-179505001D02*
X222609564Y-178505001D01*
%TO.C,SW86*%
X258040904Y-178505001D02*
X258040904Y-179505001D01*
X257040904Y-192505001D02*
X258040904Y-192505001D01*
X258040904Y-178505001D02*
X257040904Y-178505001D01*
X258040904Y-191505001D02*
X258040904Y-192505001D01*
X244040904Y-192505001D02*
X244040904Y-191505001D01*
X245040904Y-178505001D02*
X244040904Y-178505001D01*
X244040904Y-192505001D02*
X245040904Y-192505001D01*
X244040904Y-179505001D02*
X244040904Y-178505001D01*
%TO.C,SW87*%
X277090984Y-178505001D02*
X277090984Y-179505001D01*
X276090984Y-192505001D02*
X277090984Y-192505001D01*
X277090984Y-178505001D02*
X276090984Y-178505001D01*
X277090984Y-191505001D02*
X277090984Y-192505001D01*
X263090984Y-192505001D02*
X263090984Y-191505001D01*
X264090984Y-178505001D02*
X263090984Y-178505001D01*
X263090984Y-192505001D02*
X264090984Y-192505001D01*
X263090984Y-179505001D02*
X263090984Y-178505001D01*
%TO.C,SW88*%
X296141064Y-178500000D02*
X296141064Y-179500000D01*
X295141064Y-192500000D02*
X296141064Y-192500000D01*
X296141064Y-178500000D02*
X295141064Y-178500000D01*
X296141064Y-191500000D02*
X296141064Y-192500000D01*
X282141064Y-192500000D02*
X282141064Y-191500000D01*
X283141064Y-178500000D02*
X282141064Y-178500000D01*
X282141064Y-192500000D02*
X283141064Y-192500000D01*
X282141064Y-179500000D02*
X282141064Y-178500000D01*
%TO.C,SW89*%
X315191144Y-178500000D02*
X315191144Y-179500000D01*
X314191144Y-192500000D02*
X315191144Y-192500000D01*
X315191144Y-178500000D02*
X314191144Y-178500000D01*
X315191144Y-191500000D02*
X315191144Y-192500000D01*
X301191144Y-192500000D02*
X301191144Y-191500000D01*
X302191144Y-178500000D02*
X301191144Y-178500000D01*
X301191144Y-192500000D02*
X302191144Y-192500000D01*
X301191144Y-179500000D02*
X301191144Y-178500000D01*
%TO.C,SW90*%
X334241224Y-178505001D02*
X334241224Y-179505001D01*
X333241224Y-192505001D02*
X334241224Y-192505001D01*
X334241224Y-178505001D02*
X333241224Y-178505001D01*
X334241224Y-191505001D02*
X334241224Y-192505001D01*
X320241224Y-192505001D02*
X320241224Y-191505001D01*
X321241224Y-178505001D02*
X320241224Y-178505001D01*
X320241224Y-192505001D02*
X321241224Y-192505001D01*
X320241224Y-179505001D02*
X320241224Y-178505001D01*
%TO.C,SW91*%
X355672564Y-178505001D02*
X355672564Y-179505001D01*
X354672564Y-192505001D02*
X355672564Y-192505001D01*
X355672564Y-178505001D02*
X354672564Y-178505001D01*
X355672564Y-191505001D02*
X355672564Y-192505001D01*
X341672564Y-192505001D02*
X341672564Y-191505001D01*
X342672564Y-178505001D02*
X341672564Y-178505001D01*
X341672564Y-192505001D02*
X342672564Y-192505001D01*
X341672564Y-179505001D02*
X341672564Y-178505001D01*
%TO.C,SW92*%
X381866424Y-178500000D02*
X381866424Y-179500000D01*
X380866424Y-192500000D02*
X381866424Y-192500000D01*
X381866424Y-178500000D02*
X380866424Y-178500000D01*
X381866424Y-191500000D02*
X381866424Y-192500000D01*
X367866424Y-192500000D02*
X367866424Y-191500000D01*
X368866424Y-178500000D02*
X367866424Y-178500000D01*
X367866424Y-192500000D02*
X368866424Y-192500000D01*
X367866424Y-179500000D02*
X367866424Y-178500000D01*
%TO.C,U2*%
%TO.C,U1*%
%TO.C,D93*%
X37713938Y-73879073D02*
X37713938Y-72879073D01*
X37952033Y-72879073D01*
X38094890Y-72926693D01*
X38190128Y-73021931D01*
X38237747Y-73117169D01*
X38285366Y-73307645D01*
X38285366Y-73450502D01*
X38237747Y-73640978D01*
X38190128Y-73736216D01*
X38094890Y-73831454D01*
X37952033Y-73879073D01*
X37713938Y-73879073D01*
X38761557Y-73879073D02*
X38952033Y-73879073D01*
X39047271Y-73831454D01*
X39094890Y-73783835D01*
X39190128Y-73640978D01*
X39237747Y-73450502D01*
X39237747Y-73069550D01*
X39190128Y-72974312D01*
X39142509Y-72926693D01*
X39047271Y-72879073D01*
X38856795Y-72879073D01*
X38761557Y-72926693D01*
X38713938Y-72974312D01*
X38666319Y-73069550D01*
X38666319Y-73307645D01*
X38713938Y-73402883D01*
X38761557Y-73450502D01*
X38856795Y-73498121D01*
X39047271Y-73498121D01*
X39142509Y-73450502D01*
X39190128Y-73402883D01*
X39237747Y-73307645D01*
X39571081Y-72879073D02*
X40190128Y-72879073D01*
X39856795Y-73260026D01*
X39999652Y-73260026D01*
X40094890Y-73307645D01*
X40142509Y-73355264D01*
X40190128Y-73450502D01*
X40190128Y-73688597D01*
X40142509Y-73783835D01*
X40094890Y-73831454D01*
X39999652Y-73879073D01*
X39713938Y-73879073D01*
X39618700Y-73831454D01*
X39571081Y-73783835D01*
%TO.C,D94*%
X374288938Y-74454073D02*
X374288938Y-73454073D01*
X374527033Y-73454073D01*
X374669890Y-73501693D01*
X374765128Y-73596931D01*
X374812747Y-73692169D01*
X374860366Y-73882645D01*
X374860366Y-74025502D01*
X374812747Y-74215978D01*
X374765128Y-74311216D01*
X374669890Y-74406454D01*
X374527033Y-74454073D01*
X374288938Y-74454073D01*
X375336557Y-74454073D02*
X375527033Y-74454073D01*
X375622271Y-74406454D01*
X375669890Y-74358835D01*
X375765128Y-74215978D01*
X375812747Y-74025502D01*
X375812747Y-73644550D01*
X375765128Y-73549312D01*
X375717509Y-73501693D01*
X375622271Y-73454073D01*
X375431795Y-73454073D01*
X375336557Y-73501693D01*
X375288938Y-73549312D01*
X375241319Y-73644550D01*
X375241319Y-73882645D01*
X375288938Y-73977883D01*
X375336557Y-74025502D01*
X375431795Y-74073121D01*
X375622271Y-74073121D01*
X375717509Y-74025502D01*
X375765128Y-73977883D01*
X375812747Y-73882645D01*
X376669890Y-73787407D02*
X376669890Y-74454073D01*
X376431795Y-73406454D02*
X376193700Y-74120740D01*
X376812747Y-74120740D01*
%TD*%
M02*
