  0
SECTION
  2
HEADER
  9
$ACADVER
  1
AC1009
  9
$INSBASE
 10
0
 20
0
 30
0
  9
$EXTMIN
 10
0
 20
0
  9
$EXTMAX
 10
841
 20
594
  9
$LIMMIN
 10
0
 20
0
  9
$LIMMAX
 10
841
 20
594
  9
$LTSCALE
 40
1
  0
ENDSEC
  0
SECTION
  2
TABLES
  0
TABLE
  2
LTYPE
 70
     9
  0
LTYPE
  2
CONTINUOUS
 70
    64
  3
実線
 72
    65
 73
     0
 40
0.0
  0
LTYPE
  2
DASHED1
 70
    64
  3
--  --  --  --  --  --  --  --  
 72
    65
 73
     2
 40
2.5
 49
1.25
 49
-1.25
  0
LTYPE
  2
DASHED2
 70
    64
  3
----    ----    ----    ----    
 72
    65
 73
     2
 40
5.0
 49
2.5
 49
-2.5
  0
LTYPE
  2
DASHED3
 70
    64
  3
------  ------  ------  ------  
 72
    65
 73
     2
 40
5.0
 49
3.75
 49
-1.25
  0
LTYPE
  2
CENTER1
 70
    64
  3
----- - ----- - ----- - ----- - 
 72
    65
 73
     4
 40
10.0
 49
6.25
 49
-1.25
 49
1.25
 49
-1.25
  0
LTYPE
  2
CENTER2
 70
    64
  3
----------  --  ----------  --  
 72
    65
 73
     4
 40
20.0
 49
12.5
 49
-2.5
 49
2.5
 49
-2.5
  0
LTYPE
  2
PHANTOM1
 70
    64
  3
--- - - --- - - --- - - --- - - 
 72
    65
 73
     6
 40
10.0
 49
3.25
 49
-1.25
 49
1.25
 49
-1.25
 49
1.25
 49
-1.25
  0
LTYPE
  2
PHANTOM2
 70
    64
  3
--------  -  -  --------  -  -  
 72
    65
 73
     6
 40
20.0
 49
10.0
 49
-2.5
 49
1.25
 49
-2.5
 49
1.25
 49
-2.5
  0
LTYPE
  2
DOT
 70
    64
  3
-   -   -   -   -   -   -   -   
 72
    65
 73
     2
 40
2.5
 49
0.625
 49
-1.875
  0
LTYPE
  2
DUMMY
 70
    64
  3
ダミー
 72
    65
 73
     0
 40
0.0
  0
LTYPE
  2
RAND1
 70
    64
  3
ランダム線1
 72
    65
 73
     4
 40
10.0
 49
1.0
 49
-2.0
 49
3.0
 49
-4.0
  0
LTYPE
  2
RAND2
 70
    64
  3
ランダム線2
 72
    65
 73
     4
 40
14.0
 49
2.0
 49
-3.0
 49
4.0
 49
-5.0
  0
LTYPE
  2
RAND3
 70
    64
  3
ランダム線3
 72
    65
 73
     4
 40
18.0
 49
3.0
 49
-4.0
 49
5.0
 49
-6.0
  0
LTYPE
  2
RAND4
 70
    64
  3
ランダム線4
 72
    65
 73
     4
 40
22.0
 49
4.0
 49
-5.0
 49
6.0
 49
-7.0
  0
LTYPE
  2
RAND5
 70
    64
  3
ランダム線5
 72
    65
 73
     4
 40
26.0
 49
5.0
 49
-6.0
 49
7.0
 49
-8.0
  0
LTYPE
  2
LONG1
 70
    64
  3
----------  --  ----------  --  
 72
    65
 73
     4
 40
40.0
 49
32.5
 49
-2.5
 49
2.5
 49
-2.5
  0
LTYPE
  2
LONG2
 70
    64
  3
--------  -  -  --------  -  -  
 72
    65
 73
     6
 40
40.0
 49
30.0
 49
-2.5
 49
1.25
 49
-2.5
 49
1.25
 49
-2.5
  0
LTYPE
  2
LONG3
 70
    64
  3
+++++++++++++++..+++++++++++++++
 72
    65
 73
     2
 40
40.0
 49
37.5
 49
-2.5
  0
LTYPE
  2
LONG4
 70
    64
  3
+++++++++++++++..+++++++++++++++
 72
    65
 73
     2
 40
80.0
 49
75.0
 49
-5.0
  0
LTYPE
  2
LONG5
 70
    64
  3
----------  --  ----------  --  
 72
    65
 73
     4
 40
60.0
 49
37.5
 49
-7.5
 49
7.5
 49
-7.5
  0
LTYPE
  2
dashed
 70
   64
  3
-------   -------------   ------
 72
   65
 73
    2
 40
7.5
 49
6
 49
-1.5
  0
LTYPE
  2
dashed_spaced
 70
   64
  3
----        --------        ----
 72
   65
 73
    2
 40
12
 49
6
 49
-6
  0
LTYPE
  2
long_dashed_dotted
 70
   64
  3
------------- --- --------------
 72
   65
 73
    4
 40
15.25
 49
12
 49
-1.5
 49
0.25
 49
-1.5
  0
LTYPE
  2
long_dashed_double-dotted
 70
   64
  3
----------- --- --- ------------
 72
   65
 73
    6
 40
17
 49
12
 49
-1.5
 49
0.25
 49
-1.5
 49
0.25
 49
-1.5
  0
LTYPE
  2
long_dashed_triplicate-dotted
 70
   64
  3
--------- --- --- --- ----------
 72
   65
 73
    8
 40
18.75
 49
12
 49
-1.5
 49
0.25
 49
-1.5
 49
0.25
 49
-1.5
 49
0.25
 49
-1.5
  0
LTYPE
  2
dotted
 70
   64
  3
   -       -       -       -    
 72
   65
 73
    2
 40
1.75
 49
0.25
 49
-1.5
  0
LTYPE
  2
chain
 70
   64
  3
-------------- -- --------------
 72
   65
 73
    4
 40
18.5
 49
12
 49
-1.5
 49
3.5
 49
-1.5
  0
LTYPE
  2
chain_double_dash
 70
   64
  3
------------ -- -- -------------
 72
   65
 73
    6
 40
23.5
 49
12
 49
-1.5
 49
3.5
 49
-1.5
 49
3.5
 49
-1.5
  0
LTYPE
  2
dashed_dotted
 70
   64
  3
-----------     -     ----------
 72
   65
 73
    4
 40
9.25
 49
6
 49
-1.5
 49
0.25
 49
-1.5
  0
LTYPE
  2
double-dashed_dotted
 70
   64
  3
------   -----------   -   -----
 72
   65
 73
    6
 40
16.75
 49
6
 49
-1.5
 49
6
 49
-1.5
 49
0.25
 49
-1.5
  0
LTYPE
  2
dashed_double-dotted
 70
   64
  3
---------    -    -    ---------
 72
   65
 73
    6
 40
11
 49
6
 49
-1.5
 49
0.25
 49
-1.5
 49
0.25
 49
-1.5
  0
LTYPE
  2
double-dashed_double-dotted
 70
   64
  3
-----   ---------   -   -   ----
 72
   65
 73
    8
 40
18.5
 49
6
 49
-1.5
 49
6
 49
-1.5
 49
0.25
 49
-1.5
 49
0.25
 49
-1.5
  0
LTYPE
  2
dashed_triplicate-dotted
 70
   64
  3
-------    -    -    -    ------
 72
   65
 73
    8
 40
12.75
 49
6
 49
-1.5
 49
0.25
 49
-1.5
 49
0.25
 49
-1.5
 49
0.25
 49
-1.5
  0
LTYPE
  2
double-dashed_triplicate-dotted
 70
   64
  3
-----  ---------  -  -  -  -----
 72
   65
 73
   10
 40
20.25
 49
6
 49
-1.5
 49
6
 49
-1.5
 49
0.25
 49
-1.5
 49
0.25
 49
-1.5
 49
0.25
 49
-1.5
  0
LTYPE
  2
undefined
 70
   64
  3
--------------------------------
 72
   65
 73
    0
 40
0
  0
LTYPE
  2
_
 70
   64
  3
                                
 72
   65
 73
    0
 40
0
  0
LTYPE
  2
__18
 70
   64
  3
                                
 72
   65
 73
    0
 40
0
  0
LTYPE
  2
__19
 70
   64
  3
                                
 72
   65
 73
    0
 40
0
  0
LTYPE
  2
__20
 70
   64
  3
                                
 72
   65
 73
    0
 40
0
  0
LTYPE
  2
__21
 70
   64
  3
                                
 72
   65
 73
    0
 40
0
  0
LTYPE
  2
__22
 70
   64
  3
                                
 72
   65
 73
    0
 40
0
  0
LTYPE
  2
__23
 70
   64
  3
                                
 72
   65
 73
    0
 40
0
  0
LTYPE
  2
__24
 70
   64
  3
                                
 72
   65
 73
    0
 40
0
  0
LTYPE
  2
__25
 70
   64
  3
                                
 72
   65
 73
    0
 40
0
  0
LTYPE
  2
__26
 70
   64
  3
                                
 72
   65
 73
    0
 40
0
  0
LTYPE
  2
__27
 70
   64
  3
                                
 72
   65
 73
    0
 40
0
  0
LTYPE
  2
__28
 70
   64
  3
                                
 72
   65
 73
    0
 40
0
  0
LTYPE
  2
__29
 70
   64
  3
                                
 72
   65
 73
    0
 40
0
  0
LTYPE
  2
__30
 70
   64
  3
                                
 72
   65
 73
    0
 40
0
  0
LTYPE
  2
__31
 70
   64
  3
                                
 72
   65
 73
    0
 40
0
  0
LTYPE
  2
__32
 70
   64
  3
                                
 72
   65
 73
    0
 40
0
  0
ENDTAB
  0
TABLE
  2
STYLE
  5
3
100
AcDbSymbolTable
 70
     1
  0
STYLE
  5
10
100
AcDbSymbolTableRecord
100
AcDbTextStyleTableRecord
  2
STANDARD
 70
     0
 40
0.0
 41
1.0
 50
0.0
 71
     0
 42
0.2
  3
txt
  4
bigfont.shx
  0
STYLE
  5
26
100
AcDbSymbolTableRecord
100
AcDbTextStyleTableRecord
  2
TATEGAKI
 70
    68
 40
0.0
 41
1.0
 50
0.0
 71
     0
 42
1.0
  3
txt
  4
bigfont.shx
  0
ENDTAB
  0
TABLE
  2
LAYER
 70
    2
  0
LAYER
  2
_0-0_
 70
   64
 62
    7
  6
CONTINUOUS
  0
LAYER
  2
ADD_LINE
 70
   64
 62
    7
  6
CONTINUOUS
  0
ENDTAB
  0
ENDSEC
  0
SECTION
  2
BLOCKS
  0
ENDSEC
  0
SECTION
  2
ENTITIES
  0
LINE
  8
_0-0_
  6
CONTINUOUS
 62
    7
 10
268.4628738095239
 20
264.58571113591267
 11
268.4628738095239
 21
392.41044613591271
  0
LINE
  8
_0-0_
  6
CONTINUOUS
 62
    7
 10
271.4628738095239
 20
395.41044613591271
 11
434.62474130952387
 21
395.41044613591271
  0
ARC
  8
_0-0_
  6
CONTINUOUS
 62
    7
 10
271.4628738095239
 20
392.41044613591271
 40
3
 50
90
 51
180
  0
ARC
  8
_0-0_
  6
CONTINUOUS
 62
    7
 10
445.62474130952387
 20
324.96688169828673
 40
10
 50
180
 51
194.03713868216576
  0
ARC
  8
_0-0_
  6
CONTINUOUS
 62
    7
 10
434.62474130952387
 20
394.41044613591276
 40
1
 50
0
 51
90
  0
LINE
  8
_0-0_
  6
CONTINUOUS
 62
    7
 10
444.85177341496956
 20
286.83006840289983
 11
435.92335420407812
 21
322.54137386892552
  0
ARC
  8
_0-0_
  6
CONTINUOUS
 62
    7
 10
435.15038630952381
 20
284.40456057353862
 40
10
 50
0
 51
14.037138682165798
  0
ARC
  8
_0-0_
  6
CONTINUOUS
 62
    7
 10
444.15038630952381
 20
262.58571113591267
 40
1
 50
270
 51
0
  0
LINE
  8
_0-0_
  6
CONTINUOUS
 62
    7
 10
271.4628738095239
 20
261.58571113591267
 11
444.15038630952381
 21
261.58571113591267
  0
ARC
  8
_0-0_
  6
CONTINUOUS
 62
    7
 10
271.4628738095239
 20
264.58571113591267
 40
3
 50
180
 51
270
  0
CIRCLE
  8
_0-0_
  6
CONTINUOUS
 62
    7
 10
271.4628738095239
 20
392.41044613591271
 40
1.1000000000000001
  0
CIRCLE
  8
_0-0_
  6
CONTINUOUS
 62
    7
 10
271.4628738095239
 20
264.58571113591267
 40
1.1000000000000001
  0
CIRCLE
  8
_0-0_
  6
CONTINUOUS
 62
    7
 10
442.15038630952381
 20
264.58571113591267
 40
1.1000000000000001
  0
CIRCLE
  8
_0-0_
  6
CONTINUOUS
 62
    7
 10
432.62474130952387
 20
392.41044613591271
 40
1.1000000000000001
  0
LINE
  8
_0-0_
  6
CONTINUOUS
 62
    7
 10
445.15038630952381
 20
284.40456057353862
 11
445.15038630952381
 21
262.58571113591267
  0
LINE
  8
_0-0_
  6
CONTINUOUS
 62
    7
 10
435.62474130952387
 20
394.41044613591276
 11
435.62474130952387
 21
324.96688169828673
  0
CIRCLE
  8
_0-0_
  6
CONTINUOUS
 62
    7
 10
288.31287380952392
 20
390.38571113591269
 40
1
  0
LINE
  8
_0-0_
  6
CONTINUOUS
 62
    7
 10
292.51302380952393
 20
285.63614292091273
 11
273.46247380952389
 21
285.63614292091273
  0
LINE
  8
_0-0_
  6
CONTINUOUS
 62
    7
 10
273.46247380952389
 20
304.68654292091276
 11
292.51302380952393
 21
304.68654292091276
  0
LINE
  8
_0-0_
  6
CONTINUOUS
 62
    7
 10
292.51302380952393
 20
323.73654292091271
 11
292.51302380952393
 21
304.68634292091275
  0
LINE
  8
_0-0_
  6
CONTINUOUS
 62
    7
 10
292.51302380952393
 20
304.68634292091275
 11
273.46247380952389
 21
304.68634292091275
  0
LINE
  8
_0-0_
  6
CONTINUOUS
 62
    7
 10
273.46247380952389
 20
323.73654292091271
 11
292.51302380952393
 21
323.73654292091271
  0
LINE
  8
_0-0_
  6
CONTINUOUS
 62
    7
 10
273.46247380952389
 20
304.68634292091275
 11
273.46247380952389
 21
323.73654292091271
  0
LINE
  8
_0-0_
  6
CONTINUOUS
 62
    7
 10
292.51302380952393
 20
342.78654292091272
 11
292.51302380952393
 21
323.73634292091276
  0
LINE
  8
_0-0_
  6
CONTINUOUS
 62
    7
 10
292.51302380952393
 20
323.73634292091276
 11
273.46247380952389
 21
323.73634292091276
  0
LINE
  8
_0-0_
  6
CONTINUOUS
 62
    7
 10
273.46247380952389
 20
342.78654292091272
 11
292.51302380952393
 21
342.78654292091272
  0
LINE
  8
_0-0_
  6
CONTINUOUS
 62
    7
 10
273.46247380952389
 20
323.73634292091276
 11
273.46247380952389
 21
342.78654292091272
  0
LINE
  8
_0-0_
  6
CONTINUOUS
 62
    7
 10
292.51302380952393
 20
361.83654292091273
 11
292.51302380952393
 21
342.78634292091277
  0
LINE
  8
_0-0_
  6
CONTINUOUS
 62
    7
 10
292.51302380952393
 20
342.78634292091277
 11
273.46247380952389
 21
342.78634292091277
  0
LINE
  8
_0-0_
  6
CONTINUOUS
 62
    7
 10
273.46247380952389
 20
361.83654292091273
 11
292.51302380952393
 21
361.83654292091273
  0
LINE
  8
_0-0_
  6
CONTINUOUS
 62
    7
 10
273.46247380952389
 20
342.78634292091277
 11
273.46247380952389
 21
361.83654292091273
  0
LINE
  8
_0-0_
  6
CONTINUOUS
 62
    7
 10
404.4298238095239
 20
285.63664292091272
 11
423.48182380952392
 21
285.63664292091272
  0
LINE
  8
_0-0_
  6
CONTINUOUS
 62
    7
 10
402.05082380952393
 20
266.58617292091276
 11
382.99982380952389
 21
266.58617292091276
  0
LINE
  8
_0-0_
  6
CONTINUOUS
 62
    7
 10
382.99982380952389
 20
285.63664292091272
 11
402.05082380952393
 21
285.63664292091272
  0
LINE
  8
_0-0_
  6
CONTINUOUS
 62
    7
 10
382.99982380952389
 20
266.58617292091276
 11
382.99982380952389
 21
285.63664292091272
  0
LINE
  8
_0-0_
  6
CONTINUOUS
 62
    7
 10
383.00082380952392
 20
285.63664292091272
 11
383.00082380952392
 21
266.58617292091276
  0
LINE
  8
_0-0_
  6
CONTINUOUS
 62
    7
 10
383.00082380952392
 20
266.58617292091276
 11
363.95002380952394
 21
266.58617292091276
  0
LINE
  8
_0-0_
  6
CONTINUOUS
 62
    7
 10
363.95002380952394
 20
285.63664292091272
 11
383.00082380952392
 21
285.63664292091272
  0
LINE
  8
_0-0_
  6
CONTINUOUS
 62
    7
 10
363.95002380952394
 20
266.58617292091276
 11
363.95002380952394
 21
285.63664292091272
  0
LINE
  8
_0-0_
  6
CONTINUOUS
 62
    7
 10
342.51882380952395
 20
285.63664292091272
 11
361.56912380952394
 21
285.63664292091272
  0
LINE
  8
_0-0_
  6
CONTINUOUS
 62
    7
 10
340.13782380952398
 20
285.63664292091272
 11
340.13782380952398
 21
266.58617292091276
  0
LINE
  8
_0-0_
  6
CONTINUOUS
 62
    7
 10
340.13782380952398
 20
266.58617292091276
 11
321.08752380952399
 21
266.58617292091276
  0
LINE
  8
_0-0_
  6
CONTINUOUS
 62
    7
 10
321.08752380952399
 20
285.63664292091272
 11
340.13782380952398
 21
285.63664292091272
  0
LINE
  8
_0-0_
  6
CONTINUOUS
 62
    7
 10
321.08752380952399
 20
266.58617292091276
 11
321.08752380952399
 21
285.63664292091272
  0
LINE
  8
_0-0_
  6
CONTINUOUS
 62
    7
 10
309.17992380952398
 20
285.63614292091273
 11
328.23162380952397
 21
285.63614292091273
  0
LINE
  8
_0-0_
  6
CONTINUOUS
 62
    7
 10
435.38782380952398
 20
304.68654292091276
 11
435.38782380952398
 21
285.63614292091273
  0
LINE
  8
_0-0_
  6
CONTINUOUS
 62
    7
 10
435.38782380952398
 20
285.63614292091273
 11
416.33782380952391
 21
285.63614292091273
  0
LINE
  8
_0-0_
  6
CONTINUOUS
 62
    7
 10
416.33782380952391
 20
304.68654292091276
 11
435.38782380952398
 21
304.68654292091276
  0
LINE
  8
_0-0_
  6
CONTINUOUS
 62
    7
 10
416.33782380952391
 20
285.63614292091273
 11
416.33782380952391
 21
304.68654292091276
  0
LINE
  8
_0-0_
  6
CONTINUOUS
 62
    7
 10
416.33782380952391
 20
304.68654292091276
 11
416.33782380952391
 21
285.63614292091273
  0
LINE
  8
_0-0_
  6
CONTINUOUS
 62
    7
 10
416.33782380952391
 20
285.63614292091273
 11
397.2878238095239
 21
285.63614292091273
  0
LINE
  8
_0-0_
  6
CONTINUOUS
 62
    7
 10
397.2878238095239
 20
304.68654292091276
 11
416.33782380952391
 21
304.68654292091276
  0
LINE
  8
_0-0_
  6
CONTINUOUS
 62
    7
 10
397.2878238095239
 20
285.63614292091273
 11
397.2878238095239
 21
304.68654292091276
  0
LINE
  8
_0-0_
  6
CONTINUOUS
 62
    7
 10
397.28782380952396
 20
304.68654292091276
 11
397.28782380952396
 21
285.63614292091273
  0
LINE
  8
_0-0_
  6
CONTINUOUS
 62
    7
 10
397.28782380952396
 20
285.63614292091273
 11
378.23782380952389
 21
285.63614292091273
  0
LINE
  8
_0-0_
  6
CONTINUOUS
 62
    7
 10
378.23782380952389
 20
304.68654292091276
 11
397.28782380952396
 21
304.68654292091276
  0
LINE
  8
_0-0_
  6
CONTINUOUS
 62
    7
 10
378.23782380952389
 20
285.63614292091273
 11
378.23782380952389
 21
304.68654292091276
  0
LINE
  8
_0-0_
  6
CONTINUOUS
 62
    7
 10
378.23782380952395
 20
304.68654292091276
 11
378.23782380952395
 21
285.63614292091273
  0
LINE
  8
_0-0_
  6
CONTINUOUS
 62
    7
 10
378.23782380952395
 20
285.63614292091273
 11
359.1875238095239
 21
285.63614292091273
  0
LINE
  8
_0-0_
  6
CONTINUOUS
 62
    7
 10
359.1875238095239
 20
304.68654292091276
 11
378.23782380952395
 21
304.68654292091276
  0
LINE
  8
_0-0_
  6
CONTINUOUS
 62
    7
 10
359.1875238095239
 20
285.63614292091273
 11
359.1875238095239
 21
304.68654292091276
  0
LINE
  8
_0-0_
  6
CONTINUOUS
 62
    7
 10
359.18782380952393
 20
304.68654292091276
 11
359.18782380952393
 21
285.63614292091273
  0
LINE
  8
_0-0_
  6
CONTINUOUS
 62
    7
 10
359.18782380952393
 20
285.63614292091273
 11
340.13752380952394
 21
285.63614292091273
  0
LINE
  8
_0-0_
  6
CONTINUOUS
 62
    7
 10
340.13752380952394
 20
304.68654292091276
 11
359.18782380952393
 21
304.68654292091276
  0
LINE
  8
_0-0_
  6
CONTINUOUS
 62
    7
 10
340.13752380952394
 20
285.63614292091273
 11
340.13752380952394
 21
304.68654292091276
  0
LINE
  8
_0-0_
  6
CONTINUOUS
 62
    7
 10
425.86282380952395
 20
323.73654292091271
 11
425.86282380952395
 21
304.68634292091275
  0
LINE
  8
_0-0_
  6
CONTINUOUS
 62
    7
 10
425.86282380952395
 20
304.68634292091275
 11
406.81282380952393
 21
304.68634292091275
  0
LINE
  8
_0-0_
  6
CONTINUOUS
 62
    7
 10
406.81282380952393
 20
323.73654292091271
 11
425.86282380952395
 21
323.73654292091271
  0
LINE
  8
_0-0_
  6
CONTINUOUS
 62
    7
 10
406.81282380952393
 20
304.68634292091275
 11
406.81282380952393
 21
323.73654292091271
  0
LINE
  8
_0-0_
  6
CONTINUOUS
 62
    7
 10
406.81282380952393
 20
323.73654292091271
 11
406.81282380952393
 21
304.68634292091275
  0
LINE
  8
_0-0_
  6
CONTINUOUS
 62
    7
 10
406.81282380952393
 20
304.68634292091275
 11
387.76282380952392
 21
304.68634292091275
  0
LINE
  8
_0-0_
  6
CONTINUOUS
 62
    7
 10
387.76282380952392
 20
323.73654292091271
 11
406.81282380952393
 21
323.73654292091271
  0
LINE
  8
_0-0_
  6
CONTINUOUS
 62
    7
 10
387.76282380952392
 20
304.68634292091275
 11
387.76282380952392
 21
323.73654292091271
  0
LINE
  8
_0-0_
  6
CONTINUOUS
 62
    7
 10
387.76282380952398
 20
323.73654292091271
 11
387.76282380952398
 21
304.68634292091275
  0
LINE
  8
_0-0_
  6
CONTINUOUS
 62
    7
 10
387.76282380952398
 20
304.68634292091275
 11
368.71252380952387
 21
304.68634292091275
  0
LINE
  8
_0-0_
  6
CONTINUOUS
 62
    7
 10
368.71252380952387
 20
323.73654292091271
 11
387.76282380952398
 21
323.73654292091271
  0
LINE
  8
_0-0_
  6
CONTINUOUS
 62
    7
 10
368.71252380952387
 20
304.68634292091275
 11
368.71252380952387
 21
323.73654292091271
  0
LINE
  8
_0-0_
  6
CONTINUOUS
 62
    7
 10
368.71282380952397
 20
323.73654292091271
 11
368.71282380952397
 21
304.68634292091275
  0
LINE
  8
_0-0_
  6
CONTINUOUS
 62
    7
 10
368.71282380952397
 20
304.68634292091275
 11
349.66252380952392
 21
304.68634292091275
  0
LINE
  8
_0-0_
  6
CONTINUOUS
 62
    7
 10
349.66252380952392
 20
323.73654292091271
 11
368.71282380952397
 21
323.73654292091271
  0
LINE
  8
_0-0_
  6
CONTINUOUS
 62
    7
 10
349.66252380952392
 20
304.68634292091275
 11
349.66252380952392
 21
323.73654292091271
  0
LINE
  8
_0-0_
  6
CONTINUOUS
 62
    7
 10
349.66282380952396
 20
323.73654292091271
 11
349.66282380952396
 21
304.68634292091275
  0
LINE
  8
_0-0_
  6
CONTINUOUS
 62
    7
 10
349.66282380952396
 20
304.68634292091275
 11
330.61252380952396
 21
304.68634292091275
  0
LINE
  8
_0-0_
  6
CONTINUOUS
 62
    7
 10
330.61252380952396
 20
323.73654292091271
 11
349.66282380952396
 21
323.73654292091271
  0
LINE
  8
_0-0_
  6
CONTINUOUS
 62
    7
 10
330.61252380952396
 20
304.68634292091275
 11
330.61252380952396
 21
323.73654292091271
  0
LINE
  8
_0-0_
  6
CONTINUOUS
 62
    7
 10
304.41872380952395
 20
323.73654292091271
 11
323.46912380952392
 21
323.73654292091271
  0
LINE
  8
_0-0_
  6
CONTINUOUS
 62
    7
 10
421.10082380952394
 20
342.78654292091272
 11
421.10082380952394
 21
323.73634292091276
  0
LINE
  8
_0-0_
  6
CONTINUOUS
 62
    7
 10
421.10082380952394
 20
323.73634292091276
 11
402.0498238095239
 21
323.73634292091276
  0
LINE
  8
_0-0_
  6
CONTINUOUS
 62
    7
 10
402.0498238095239
 20
342.78654292091272
 11
421.10082380952394
 21
342.78654292091272
  0
LINE
  8
_0-0_
  6
CONTINUOUS
 62
    7
 10
402.0498238095239
 20
323.73634292091276
 11
402.0498238095239
 21
342.78654292091272
  0
LINE
  8
_0-0_
  6
CONTINUOUS
 62
    7
 10
402.05082380952393
 20
342.78654292091272
 11
402.05082380952393
 21
323.73634292091276
  0
LINE
  8
_0-0_
  6
CONTINUOUS
 62
    7
 10
402.05082380952393
 20
323.73634292091276
 11
382.99982380952389
 21
323.73634292091276
  0
LINE
  8
_0-0_
  6
CONTINUOUS
 62
    7
 10
382.99982380952389
 20
342.78654292091272
 11
402.05082380952393
 21
342.78654292091272
  0
LINE
  8
_0-0_
  6
CONTINUOUS
 62
    7
 10
382.99982380952389
 20
323.73634292091276
 11
382.99982380952389
 21
342.78654292091272
  0
LINE
  8
_0-0_
  6
CONTINUOUS
 62
    7
 10
383.00082380952392
 20
342.78654292091272
 11
383.00082380952392
 21
323.73634292091276
  0
LINE
  8
_0-0_
  6
CONTINUOUS
 62
    7
 10
383.00082380952392
 20
323.73634292091276
 11
363.95002380952394
 21
323.73634292091276
  0
LINE
  8
_0-0_
  6
CONTINUOUS
 62
    7
 10
363.95002380952394
 20
342.78654292091272
 11
383.00082380952392
 21
342.78654292091272
  0
LINE
  8
_0-0_
  6
CONTINUOUS
 62
    7
 10
363.95002380952394
 20
323.73634292091276
 11
363.95002380952394
 21
342.78654292091272
  0
LINE
  8
_0-0_
  6
CONTINUOUS
 62
    7
 10
363.95032380952398
 20
342.78654292091272
 11
363.95032380952398
 21
323.73634292091276
  0
LINE
  8
_0-0_
  6
CONTINUOUS
 62
    7
 10
363.95032380952398
 20
323.73634292091276
 11
344.90002380952387
 21
323.73634292091276
  0
LINE
  8
_0-0_
  6
CONTINUOUS
 62
    7
 10
344.90002380952387
 20
342.78654292091272
 11
363.95032380952398
 21
342.78654292091272
  0
LINE
  8
_0-0_
  6
CONTINUOUS
 62
    7
 10
344.90002380952387
 20
323.73634292091276
 11
344.90002380952387
 21
342.78654292091272
  0
LINE
  8
_0-0_
  6
CONTINUOUS
 62
    7
 10
344.90032380952391
 20
342.78654292091272
 11
344.90032380952391
 21
323.73634292091276
  0
LINE
  8
_0-0_
  6
CONTINUOUS
 62
    7
 10
344.90032380952391
 20
323.73634292091276
 11
325.85002380952392
 21
323.73634292091276
  0
LINE
  8
_0-0_
  6
CONTINUOUS
 62
    7
 10
325.85002380952392
 20
342.78654292091272
 11
344.90032380952391
 21
342.78654292091272
  0
LINE
  8
_0-0_
  6
CONTINUOUS
 62
    7
 10
325.85002380952392
 20
323.73634292091276
 11
325.85002380952392
 21
342.78654292091272
  0
LINE
  8
_0-0_
  6
CONTINUOUS
 62
    7
 10
302.03752380952392
 20
342.78654292091272
 11
321.08782380952391
 21
342.78654292091272
  0
LINE
  8
_0-0_
  6
CONTINUOUS
 62
    7
 10
430.62582380952392
 20
361.83654292091273
 11
430.62582380952392
 21
342.78634292091277
  0
LINE
  8
_0-0_
  6
CONTINUOUS
 62
    7
 10
430.62582380952392
 20
342.78634292091277
 11
411.57482380952388
 21
342.78634292091277
  0
LINE
  8
_0-0_
  6
CONTINUOUS
 62
    7
 10
411.57482380952388
 20
361.83654292091273
 11
430.62582380952392
 21
361.83654292091273
  0
LINE
  8
_0-0_
  6
CONTINUOUS
 62
    7
 10
411.57482380952388
 20
342.78634292091277
 11
411.57482380952388
 21
361.83654292091273
  0
LINE
  8
_0-0_
  6
CONTINUOUS
 62
    7
 10
411.57582380952397
 20
361.83654292091273
 11
411.57582380952397
 21
342.78634292091277
  0
LINE
  8
_0-0_
  6
CONTINUOUS
 62
    7
 10
411.57582380952397
 20
342.78634292091277
 11
392.52482380952392
 21
342.78634292091277
  0
LINE
  8
_0-0_
  6
CONTINUOUS
 62
    7
 10
392.52482380952392
 20
361.83654292091273
 11
411.57582380952397
 21
361.83654292091273
  0
LINE
  8
_0-0_
  6
CONTINUOUS
 62
    7
 10
392.52482380952392
 20
342.78634292091277
 11
392.52482380952392
 21
361.83654292091273
  0
LINE
  8
_0-0_
  6
CONTINUOUS
 62
    7
 10
392.52582380952396
 20
361.83654292091273
 11
392.52582380952396
 21
342.78634292091277
  0
LINE
  8
_0-0_
  6
CONTINUOUS
 62
    7
 10
392.52582380952396
 20
342.78634292091277
 11
373.47482380952391
 21
342.78634292091277
  0
LINE
  8
_0-0_
  6
CONTINUOUS
 62
    7
 10
373.47482380952391
 20
361.83654292091273
 11
392.52582380952396
 21
361.83654292091273
  0
LINE
  8
_0-0_
  6
CONTINUOUS
 62
    7
 10
373.47482380952391
 20
342.78634292091277
 11
373.47482380952391
 21
361.83654292091273
  0
LINE
  8
_0-0_
  6
CONTINUOUS
 62
    7
 10
373.47532380952396
 20
361.83654292091273
 11
373.47532380952396
 21
342.78634292091277
  0
LINE
  8
_0-0_
  6
CONTINUOUS
 62
    7
 10
373.47532380952396
 20
342.78634292091277
 11
354.42502380952396
 21
342.78634292091277
  0
LINE
  8
_0-0_
  6
CONTINUOUS
 62
    7
 10
354.42502380952396
 20
361.83654292091273
 11
373.47532380952396
 21
361.83654292091273
  0
LINE
  8
_0-0_
  6
CONTINUOUS
 62
    7
 10
354.42502380952396
 20
342.78634292091277
 11
354.42502380952396
 21
361.83654292091273
  0
LINE
  8
_0-0_
  6
CONTINUOUS
 62
    7
 10
354.42532380952389
 20
361.83654292091273
 11
354.42532380952389
 21
342.78634292091277
  0
LINE
  8
_0-0_
  6
CONTINUOUS
 62
    7
 10
354.42532380952389
 20
342.78634292091277
 11
335.3750238095239
 21
342.78634292091277
  0
LINE
  8
_0-0_
  6
CONTINUOUS
 62
    7
 10
335.3750238095239
 20
361.83654292091273
 11
354.42532380952389
 21
361.83654292091273
  0
LINE
  8
_0-0_
  6
CONTINUOUS
 62
    7
 10
335.3750238095239
 20
342.78634292091277
 11
335.3750238095239
 21
361.83654292091273
  0
LINE
  8
_0-0_
  6
CONTINUOUS
 62
    7
 10
335.37532380952393
 20
361.83654292091273
 11
335.37532380952393
 21
342.78634292091277
  0
LINE
  8
_0-0_
  6
CONTINUOUS
 62
    7
 10
335.37532380952393
 20
342.78634292091277
 11
316.32502380952394
 21
342.78634292091277
  0
LINE
  8
_0-0_
  6
CONTINUOUS
 62
    7
 10
316.32502380952394
 20
361.83654292091273
 11
335.37532380952393
 21
361.83654292091273
  0
LINE
  8
_0-0_
  6
CONTINUOUS
 62
    7
 10
316.32502380952394
 20
342.78634292091277
 11
316.32502380952394
 21
361.83654292091273
  0
LINE
  8
_0-0_
  6
CONTINUOUS
 62
    7
 10
316.32532380952398
 20
361.83654292091273
 11
316.32532380952398
 21
342.78634292091277
  0
LINE
  8
_0-0_
  6
CONTINUOUS
 62
    7
 10
316.32532380952398
 20
342.78634292091277
 11
297.27502380952399
 21
342.78634292091277
  0
LINE
  8
_0-0_
  6
CONTINUOUS
 62
    7
 10
297.27502380952399
 20
361.83654292091273
 11
316.32532380952398
 21
361.83654292091273
  0
LINE
  8
_0-0_
  6
CONTINUOUS
 62
    7
 10
430.62582380952392
 20
390.41114292091271
 11
430.62582380952392
 21
371.36114292091276
  0
LINE
  8
_0-0_
  6
CONTINUOUS
 62
    7
 10
430.62582380952392
 20
371.36114292091276
 11
411.57482380952388
 21
371.36114292091276
  0
LINE
  8
_0-0_
  6
CONTINUOUS
 62
    7
 10
411.57482380952388
 20
390.41114292091271
 11
430.62582380952392
 21
390.41114292091271
  0
LINE
  8
_0-0_
  6
CONTINUOUS
 62
    7
 10
411.57482380952388
 20
371.36114292091276
 11
411.57482380952388
 21
390.41114292091271
  0
LINE
  8
_0-0_
  6
CONTINUOUS
 62
    7
 10
402.05082380952393
 20
390.41114292091271
 11
402.05082380952393
 21
371.36114292091276
  0
LINE
  8
_0-0_
  6
CONTINUOUS
 62
    7
 10
402.05082380952393
 20
371.36114292091276
 11
382.99982380952389
 21
371.36114292091276
  0
LINE
  8
_0-0_
  6
CONTINUOUS
 62
    7
 10
382.99982380952389
 20
390.41114292091271
 11
402.05082380952393
 21
390.41114292091271
  0
LINE
  8
_0-0_
  6
CONTINUOUS
 62
    7
 10
382.99982380952389
 20
371.36114292091276
 11
382.99982380952389
 21
390.41114292091271
  0
LINE
  8
_0-0_
  6
CONTINUOUS
 62
    7
 10
383.00082380952392
 20
390.41114292091271
 11
383.00082380952392
 21
371.36114292091276
  0
LINE
  8
_0-0_
  6
CONTINUOUS
 62
    7
 10
383.00082380952392
 20
371.36114292091276
 11
363.95002380952394
 21
371.36114292091276
  0
LINE
  8
_0-0_
  6
CONTINUOUS
 62
    7
 10
363.95002380952394
 20
390.41114292091271
 11
383.00082380952392
 21
390.41114292091271
  0
LINE
  8
_0-0_
  6
CONTINUOUS
 62
    7
 10
363.95002380952394
 20
371.36114292091276
 11
363.95002380952394
 21
390.41114292091271
  0
LINE
  8
_0-0_
  6
CONTINUOUS
 62
    7
 10
363.95032380952398
 20
390.41114292091271
 11
363.95032380952398
 21
371.36114292091276
  0
LINE
  8
_0-0_
  6
CONTINUOUS
 62
    7
 10
363.95032380952398
 20
371.36114292091276
 11
344.90002380952387
 21
371.36114292091276
  0
LINE
  8
_0-0_
  6
CONTINUOUS
 62
    7
 10
344.90002380952387
 20
390.41114292091271
 11
363.95032380952398
 21
390.41114292091271
  0
LINE
  8
_0-0_
  6
CONTINUOUS
 62
    7
 10
344.90002380952387
 20
371.36114292091276
 11
344.90002380952387
 21
390.41114292091271
  0
LINE
  8
_0-0_
  6
CONTINUOUS
 62
    7
 10
344.90032380952391
 20
390.41114292091271
 11
344.90032380952391
 21
371.36114292091276
  0
LINE
  8
_0-0_
  6
CONTINUOUS
 62
    7
 10
344.90032380952391
 20
371.36114292091276
 11
325.85002380952392
 21
371.36114292091276
  0
LINE
  8
_0-0_
  6
CONTINUOUS
 62
    7
 10
325.85002380952392
 20
390.41114292091271
 11
344.90032380952391
 21
390.41114292091271
  0
LINE
  8
_0-0_
  6
CONTINUOUS
 62
    7
 10
325.85002380952392
 20
371.36114292091276
 11
325.85002380952392
 21
390.41114292091271
  0
LINE
  8
_0-0_
  6
CONTINUOUS
 62
    7
 10
316.32532380952398
 20
390.41114292091271
 11
316.32532380952398
 21
371.36114292091276
  0
LINE
  8
_0-0_
  6
CONTINUOUS
 62
    7
 10
316.32532380952398
 20
371.36114292091276
 11
297.27502380952399
 21
371.36114292091276
  0
LINE
  8
_0-0_
  6
CONTINUOUS
 62
    7
 10
297.27502380952399
 20
390.41114292091271
 11
316.32532380952398
 21
390.41114292091271
  0
LINE
  8
_0-0_
  6
CONTINUOUS
 62
    7
 10
297.27502380952399
 20
371.36114292091276
 11
297.27502380952399
 21
390.41114292091271
  0
LINE
  8
_0-0_
  6
CONTINUOUS
 62
    7
 10
292.51302380952393
 20
304.68654292091276
 11
292.51302380952393
 21
266.58617292091276
  0
LINE
  8
_0-0_
  6
CONTINUOUS
 62
    7
 10
273.46247380952389
 20
266.58617292091276
 11
273.46247380952389
 21
304.68654292091276
  0
LINE
  8
_0-0_
  6
CONTINUOUS
 62
    7
 10
292.51302380952393
 20
266.58617292091276
 11
273.46247380952389
 21
266.58617292091276
  0
LINE
  8
_0-0_
  6
CONTINUOUS
 62
    7
 10
297.27502380952399
 20
266.58617292091276
 11
297.27502380952399
 21
361.83654292091273
  0
LINE
  8
_0-0_
  6
CONTINUOUS
 62
    7
 10
323.46912380952392
 20
304.68634292091275
 11
297.27502380952399
 21
304.68634292091275
  0
LINE
  8
_0-0_
  6
CONTINUOUS
 62
    7
 10
297.27502380952399
 20
285.63664292091272
 11
318.70662380952388
 21
285.63664292091272
  0
LINE
  8
_0-0_
  6
CONTINUOUS
 62
    7
 10
321.08752380952399
 20
266.58617292091276
 11
297.27502380952399
 21
266.58617292091276
  0
LINE
  8
_0-0_
  6
CONTINUOUS
 62
    7
 10
363.95002380952394
 20
266.58617292091276
 11
340.13782380952398
 21
266.58617292091276
  0
LINE
  8
_0-0_
  6
CONTINUOUS
 62
    7
 10
330.61252380952396
 20
304.68654292091276
 11
309.17992380952398
 21
304.68654292091276
  0
LINE
  8
_0-0_
  6
CONTINUOUS
 62
    7
 10
325.85002380952392
 20
323.73634292091276
 11
297.27502380952399
 21
323.73634292091276
  0
LINE
  8
_0-0_
  6
CONTINUOUS
 62
    7
 10
402.05082380952393
 20
266.58617292091276
 11
402.05082380952393
 21
285.63664292091272
  0
LINE
  8
_0-0_
  6
CONTINUOUS
 62
    7
 10
402.05082380952393
 20
285.63664292091272
 11
402.05082380952393
 21
266.58617292091276
  0
LINE
  8
_0-0_
  6
CONTINUOUS
 62
    7
 10
425.86082380952388
 20
266.58617292091276
 11
402.05082380952393
 21
266.58617292091276
  0
LINE
  8
_0-0_
  6
CONTINUOUS
 62
    7
 10
425.86082380952388
 20
285.63664292091272
 11
425.86082380952388
 21
266.58617292091276
  0
ENDSEC
  0
EOF
